<svg xmlns="http://www.w3.org/2000/svg" viewBox="0 0 50.03 48.81"><defs><style>.cls-1{fill:#323232;}.cls-2{fill:#353434;}.cls-3{fill:#373635;}.cls-4{fill:#343333;}.cls-5{fill:#363535;}.cls-6{fill:#262626;}.cls-7{fill:#3d3c3b;}</style></defs><title>Asset 1</title><g id="Layer_2" data-name="Layer 2"><g id="图层_1" data-name="图层 1"><path class="cls-1" d="M31.24,43.85c0-1.23,0-2.46,0-3.68a5.83,5.83,0,0,0-1.61-4.07c.84-.15,1.67-.29,2.48-.45a12.5,12.5,0,0,0,4.51-1.82,8.92,8.92,0,0,0,3.48-4.51,15,15,0,0,0,.69-7.56,8.93,8.93,0,0,0-2.13-4.44.57.57,0,0,1-.14-.62,9.37,9.37,0,0,0-.26-6.07c-.09-.24-.24-.26-.45-.27a8,8,0,0,0-3.52.89,18.09,18.09,0,0,0-2.71,1.54.67.67,0,0,1-.61.1,23.75,23.75,0,0,0-8.82-.58,17.88,17.88,0,0,0-3,.57.83.83,0,0,1-.77-.13,15.41,15.41,0,0,0-4.5-2.18,5.65,5.65,0,0,0-1.69-.21.39.39,0,0,0-.43.3,9.19,9.19,0,0,0-.23,6.15.34.34,0,0,1-.07.4A10.18,10.18,0,0,0,9.09,25a14.78,14.78,0,0,0,1.15,5,9.67,9.67,0,0,0,6.29,5.26,20.68,20.68,0,0,0,3.9.79,5.34,5.34,0,0,0-1.53,3.13.32.32,0,0,1-.21.28,5.73,5.73,0,0,1-4.87.07,5.22,5.22,0,0,1-2.13-2.06A5.66,5.66,0,0,0,8.88,35a3.19,3.19,0,0,0-1.68-.19c-.23,0-.49.09-.57.36s.1.4.25.54a3.34,3.34,0,0,0,.57.48,7,7,0,0,1,2.82,3.56,5.35,5.35,0,0,0,4.39,3.33A10.15,10.15,0,0,0,18.48,43c.22,0,.29,0,.29.22,0,1.42,0,2.85,0,4.27a1.25,1.25,0,0,1-1.75,1.27,23.83,23.83,0,0,1-7.89-4.35A24.67,24.67,0,0,1,.86,31.53,24.39,24.39,0,0,1,0,23.64a24.47,24.47,0,0,1,5-13.69A24.65,24.65,0,0,1,19.94.53,23.84,23.84,0,0,1,26.33,0,24.54,24.54,0,0,1,40.49,5.39a24.77,24.77,0,0,1,8.7,13.24,24.09,24.09,0,0,1,.78,8,24.61,24.61,0,0,1-6.07,14.75,24.8,24.8,0,0,1-10.75,7.27c-1,.35-1.69,0-1.91-.89C31.29,46.47,31.29,45.16,31.24,43.85Z"/><path class="cls-2" d="M18,41c-.19-.06-.46-.07-.44-.34s.32-.41.61-.42.46.1.43.34S18.3,41,18,41Z"/><path class="cls-3" d="M16.2,41.23c-.24,0-.53-.09-.54-.37s.24-.38.51-.38.54,0,.55.37S16.43,41.18,16.2,41.23Z"/><path class="cls-2" d="M12.88,39.65c0,.2-.1.3-.28.33s-.65-.35-.64-.6a.28.28,0,0,1,.31-.3A.65.65,0,0,1,12.88,39.65Z"/><path class="cls-4" d="M14.24,40.92c-.26,0-.54-.13-.58-.45s.18-.31.4-.32.69.24.65.46S14.48,40.92,14.24,40.92Z"/><path class="cls-5" d="M11.57,38.22c0,.17-.05.32-.25.3A.57.57,0,0,1,10.8,38a.25.25,0,0,1,.28-.32C11.41,37.68,11.54,37.91,11.57,38.22Z"/><path class="cls-5" d="M10.55,36.82c0,.19-.07.3-.22.28a.48.48,0,0,1-.48-.48c0-.17.07-.26.25-.24A.5.5,0,0,1,10.55,36.82Z"/><path class="cls-6" d="M31.24,43.85a.63.63,0,0,1,.07.19q0,1.78,0,3.55a.64.64,0,0,1-.06.19Z"/><path class="cls-7" d="M9.06,35.48c.17.07.39.1.41.34a.2.2,0,0,1-.22.23.42.42,0,0,1-.45-.34C8.78,35.58,8.93,35.51,9.06,35.48Z"/></g></g></svg>