<svg id="Layer_1" data-name="Layer 1" xmlns="http://www.w3.org/2000/svg" viewBox="0 0 100 100"><defs><style>.cls-1{fill:#efefef;}</style></defs><title>ins</title><path class="cls-1" d="M61.1,21.14H39.17a17.61,17.61,0,0,0-17.6,17.6V60.67a17.6,17.6,0,0,0,17.6,17.6H61.1a17.6,17.6,0,0,0,17.59-17.6V38.74A17.6,17.6,0,0,0,61.1,21.14Zm-10,47.31A18.62,18.62,0,1,1,69.7,49.83,18.62,18.62,0,0,1,51.08,68.45Zm17.33-32.8a4.74,4.74,0,1,1,4.74-4.73A4.73,4.73,0,0,1,68.41,35.65Z"/><path class="cls-1" d="M51.08,38.63a11.2,11.2,0,1,0,11.2,11.2A11.19,11.19,0,0,0,51.08,38.63Z"/><path class="cls-1" d="M77.75,2.84H22.52A19.25,19.25,0,0,0,3.27,22.1V77.32A19.25,19.25,0,0,0,22.52,96.58H77.75A19.26,19.26,0,0,0,97,77.32V22.1A19.25,19.25,0,0,0,77.75,2.84Zm7.73,60.43A21.78,21.78,0,0,1,63.7,85.05H36.57A21.78,21.78,0,0,1,14.79,63.27V36.14A21.78,21.78,0,0,1,36.57,14.36H63.7A21.78,21.78,0,0,1,85.48,36.14Z"/></svg>