<svg xmlns="http://www.w3.org/2000/svg" viewBox="0 0 100 100"><defs><style>.cls-1{fill:#efefef;}</style></defs><title>wechat</title><g id="Layer_3" data-name="Layer 3"><path class="cls-1" d="M27.37,32.17a3.34,3.34,0,0,0-3.49,3.25,3.31,3.31,0,0,0,3.29,3.44,3.41,3.41,0,0,0,3.53-3.23A3.45,3.45,0,0,0,27.37,32.17Z"/><path class="cls-1" d="M48.82,38.88a3.36,3.36,0,1,0-.09-6.71,3.47,3.47,0,0,0-3.39,3.41A3.39,3.39,0,0,0,48.82,38.88Z"/><path class="cls-1" d="M55.08,53.69a2.8,2.8,0,1,0,0,5.59,2.8,2.8,0,1,0,0-5.59Z"/><path class="cls-1" d="M72.5,53.7a2.8,2.8,0,0,0-2.78,2.67,2.76,2.76,0,1,0,5.52.24A2.78,2.78,0,0,0,72.5,53.7Z"/><path class="cls-1" d="M82.05,4H17A14,14,0,0,0,3,18v65.1A14,14,0,0,0,17,97h65.1a14,14,0,0,0,14-14V18A14,14,0,0,0,82.05,4ZM30.49,65a5.06,5.06,0,0,0-2.81.48c-2.61,1.47-5.11,3.13-8.08,5,.55-2.46.9-4.61,1.52-6.68A2.54,2.54,0,0,0,20,60.36C11,54,7.15,44.48,10,34.68c2.63-9.07,9.09-14.57,17.86-17.43,12-3.92,25.44.07,32.72,9.58a22.46,22.46,0,0,1,4.67,11.85c-7.51.39-14,2.67-19.33,7.81s-7.8,11.56-7.13,19.45C35.85,65.58,33.18,65.18,30.49,65ZM83.31,77.26C81,79.32,80.16,81,81.65,83.71a8,8,0,0,1,.46,1.77c-2.37-1.06-4.55-2.65-6.88-2.89s-4.74,1.09-7.16,1.34a23.92,23.92,0,0,1-19.41-6.34C38.3,68,39.78,53.34,51.76,45.49c10.65-7,26.26-4.65,33.77,5C92.08,59,91.31,70.17,83.31,77.26Z"/></g></svg>