<svg xmlns="http://www.w3.org/2000/svg" viewBox="0 0 489.5 145.67"><defs><style>.cls-1{fill:#fff}.cls-2{opacity:.8}.cls-3{fill:#999}</style></defs><title>hw6_logo</title><g id="图层_1" data-name="图层 1"><path d="M28.79,31.41H16.06v-7q0-6.36,8-11.65l2.83,2.35q-3.28,3.33-3.57,6.07h5.48Zm14.34,0H30.4v-7q0-6.36,8-11.65l2.84,2.35q-3.33,3.33-3.62,6.07h5.48Z" class="cls-1"/><path d="M60.85,83H45.43V12.76H60.85Z" class="cls-1"/><path d="M81.74,54.85h14V71c0,1.6,1,2.39,2.92,2.39s2.81-.79,2.81-2.39V62.63q0-3.81-5.09-9-9.84-9.54-12.24-12.82a11.94,11.94,0,0,1-2.4-7.2V25.78q0-13.65,17.85-13.65,16,0,16,12.43V36.7h-14V23.77c0-1.4-.79-2.1-2.35-2.1q-2.75,0-2.74,4.06l.29,4.55q0,3.91,5.2,9.11,9.66,9.24,12.29,12.92a14,14,0,0,1,2.63,8.32v9q0,14-17.89,14-17.27,0-17.26-12.72Z" class="cls-1"/><path d="M150.31,83H120.16V12.76h30v9H135.58v19H148.7v8.51H135.58V73.94h14.73Z" class="cls-1"/><path d="M183,83H152.86V12.76h29.95v9H168.28v19h13.11v8.51H168.28V73.94H183Z" class="cls-1"/><path d="M58.56,86.23a11.32,11.32,0,0,1,8.3,3.31,11.48,11.48,0,0,1-8.13,19.62,11.22,11.22,0,0,1-8.2-3.32,11,11,0,0,1-3.34-8A11.66,11.66,0,0,1,48.71,92a11.26,11.26,0,0,1,9.85-5.73Zm.09,2.12a9,9,0,0,0-4.59,1.26A9.14,9.14,0,0,0,50.67,93a9.41,9.41,0,0,0-1.22,4.77,9.18,9.18,0,0,0,9.2,9.26,9.36,9.36,0,0,0,4.71-1.23,8.89,8.89,0,0,0,3.37-3.38,9.43,9.43,0,0,0,1.21-4.75A9.22,9.22,0,0,0,66.73,93a9.12,9.12,0,0,0-3.41-3.37A9.25,9.25,0,0,0,58.65,88.35Z"/><path d="M80.89,86.23v2a5.09,5.09,0,0,0-2-.49,1.85,1.85,0,0,0-1,.25,1.08,1.08,0,0,0-.51.56,8.62,8.62,0,0,0-.1,1.7v2.18h3.37v1.8H77.31v14.35H75.22V94.26H73.1v-1.8h2.12V89.94a6.67,6.67,0,0,1,.32-2.48,2.59,2.59,0,0,1,1.08-1.2,3.6,3.6,0,0,1,1.85-.45A8.72,8.72,0,0,1,80.89,86.23Z"/><path d="M90.28,104.55l1.86-1.12q2,3.61,4.53,3.61a4.33,4.33,0,0,0,2.06-.51,3.63,3.63,0,0,0,1.47-1.38,3.5,3.5,0,0,0,.51-1.82,3.67,3.67,0,0,0-.75-2.15,17.83,17.83,0,0,0-3.74-3.51,19.3,19.3,0,0,1-3.4-3,5.45,5.45,0,0,1-1.15-3.34,5,5,0,0,1,.68-2.6,4.82,4.82,0,0,1,1.92-1.85A5.53,5.53,0,0,1,97,86.23a5.73,5.73,0,0,1,2.89.76,9.84,9.84,0,0,1,2.84,2.82l-1.78,1.35A8.6,8.6,0,0,0,98.81,89a3.68,3.68,0,0,0-1.89-.52,3,3,0,0,0-2.16.81,2.61,2.61,0,0,0-.84,2,3.37,3.37,0,0,0,.3,1.38A5.22,5.22,0,0,0,95.3,94.1c.29.27,1.23,1,2.82,2.18A15.71,15.71,0,0,1,102,100a6,6,0,0,1,1.06,3.28,5.58,5.58,0,0,1-1.81,4.13,6,6,0,0,1-4.38,1.75,6.42,6.42,0,0,1-3.61-1.06A9.72,9.72,0,0,1,90.28,104.55Z"/><path d="M107.34,86.23h2.08v9.13a8.91,8.91,0,0,1,2.77-2.49,6.77,6.77,0,0,1,3.29-.82,5.69,5.69,0,0,1,3.21.92,5.5,5.5,0,0,1,2.07,2.47,13,13,0,0,1,.67,4.86v8.31h-2.08v-7.7a19.74,19.74,0,0,0-.22-3.73,4.23,4.23,0,0,0-1.41-2.41,4.12,4.12,0,0,0-2.66-.81,5.15,5.15,0,0,0-3.38,1.25,5.81,5.81,0,0,0-2,3.09,21.05,21.05,0,0,0-.3,4.39v5.92h-2.08Z"/><path d="M139.48,103.25l1.75.92a9.84,9.84,0,0,1-2,2.74,7.91,7.91,0,0,1-2.54,1.58,8.91,8.91,0,0,1-3.2.54,7.72,7.72,0,0,1-6.18-2.59,8.78,8.78,0,0,1-2.23-5.86A8.64,8.64,0,0,1,127,95.1a7.74,7.74,0,0,1,6.4-3,8,8,0,0,1,6.6,3.13,8.72,8.72,0,0,1,1.78,5.52H127.23a6.56,6.56,0,0,0,1.8,4.61,5.73,5.73,0,0,0,4.29,1.8,6.84,6.84,0,0,0,2.41-.43,6.37,6.37,0,0,0,2-1.13A10.1,10.1,0,0,0,139.48,103.25Zm0-4.35a6.93,6.93,0,0,0-1.21-2.65,5.68,5.68,0,0,0-2.11-1.61,6.49,6.49,0,0,0-2.75-.6,6,6,0,0,0-4.08,1.52,6.94,6.94,0,0,0-1.89,3.34Z"/><path d="M145.64,92.46h2.08v2.9a8.67,8.67,0,0,1,2.76-2.49,6.75,6.75,0,0,1,3.29-.82A5.7,5.7,0,0,1,157,93a5.52,5.52,0,0,1,2.07,2.48,13.15,13.15,0,0,1,.67,4.85v8.31h-2.08v-7.7a19.46,19.46,0,0,0-.23-3.73A3.79,3.79,0,0,0,153.36,94,5.13,5.13,0,0,0,150,95.21a5.89,5.89,0,0,0-2,3.09,21.4,21.4,0,0,0-.29,4.39v5.92h-2.08Z"/><path d="M162.86,92.46h11.86l-9.15,14.31h8.85v1.84H162l9.13-14.32h-8.27Z"/><path d="M177.09,86.23h2.08v9.13A8.83,8.83,0,0,1,182,92.87a6.74,6.74,0,0,1,3.28-.82,5.67,5.67,0,0,1,3.21.92,5.37,5.37,0,0,1,2.07,2.47,13,13,0,0,1,.67,4.86v8.31H189.1v-7.7a19.74,19.74,0,0,0-.22-3.73,4.27,4.27,0,0,0-1.4-2.41,4.17,4.17,0,0,0-2.67-.81,5.15,5.15,0,0,0-3.38,1.25,5.81,5.81,0,0,0-2,3.09,21.05,21.05,0,0,0-.3,4.39v5.92h-2.08Z"/><path d="M209.23,103.25l1.75.92a9.64,9.64,0,0,1-2,2.74,7.91,7.91,0,0,1-2.54,1.58,8.89,8.89,0,0,1-3.19.54,7.73,7.73,0,0,1-6.19-2.59,8.77,8.77,0,0,1-2.22-5.86,8.63,8.63,0,0,1,1.88-5.48,7.74,7.74,0,0,1,6.41-3,8,8,0,0,1,6.59,3.13,8.72,8.72,0,0,1,1.79,5.52H197a6.56,6.56,0,0,0,1.8,4.61,5.74,5.74,0,0,0,4.3,1.8,6.83,6.83,0,0,0,2.4-.43,6.25,6.25,0,0,0,2-1.13A9.56,9.56,0,0,0,209.23,103.25Zm0-4.35A6.93,6.93,0,0,0,208,96.25a5.72,5.72,0,0,0-2.1-1.61,6.55,6.55,0,0,0-2.75-.6,6,6,0,0,0-4.09,1.52,7,7,0,0,0-1.89,3.34Z"/><path d="M215.39,92.46h2.08v2.9a8.67,8.67,0,0,1,2.76-2.49,6.77,6.77,0,0,1,3.29-.82,5.7,5.7,0,0,1,3.22.92,5.52,5.52,0,0,1,2.07,2.48,13.15,13.15,0,0,1,.67,4.85v8.31H227.4v-7.7a19.46,19.46,0,0,0-.23-3.73,4.1,4.1,0,0,0-1.39-2.41,4.17,4.17,0,0,0-2.67-.81,5.15,5.15,0,0,0-3.38,1.25,5.81,5.81,0,0,0-2,3.09,21.18,21.18,0,0,0-.3,4.39v5.92h-2.08Z"/><path d="M241.69,108.61l3.13-21.83h.35l8.88,17.91,8.79-17.91h.35l3.14,21.83H264.2L262,93l-7.72,15.61h-.56L246,92.88l-2.15,15.73Z"/><path d="M271,85.81a1.74,1.74,0,0,1,1.72,1.72,1.71,1.71,0,1,1-2.91-1.21A1.6,1.6,0,0,1,271,85.81Zm-1,6.65h2.08v16.15H270Z"/><path d="M292.49,86.23v22.38h-2.05v-2.77a9,9,0,0,1-2.93,2.39,8,8,0,0,1-3.55.8,7.89,7.89,0,0,1-5.86-2.49,8.33,8.33,0,0,1-2.43-6.05,8.18,8.18,0,0,1,2.45-6A8,8,0,0,1,284,92.05a7.64,7.64,0,0,1,3.6.84,8.18,8.18,0,0,1,2.83,2.54v-9.2Zm-8.31,7.82a6.36,6.36,0,0,0-3.2.85,6.18,6.18,0,0,0-2.33,2.4,6.54,6.54,0,0,0,0,6.52,6.46,6.46,0,0,0,2.35,2.43,6.24,6.24,0,0,0,3.17.86,6.41,6.41,0,0,0,3.23-.86,6,6,0,0,0,2.35-2.32,6.64,6.64,0,0,0,.83-3.31,6.45,6.45,0,0,0-1.85-4.69A6.14,6.14,0,0,0,284.18,94.05Z"/><path d="M313.32,86.23v22.38h-2.05v-2.77a9,9,0,0,1-2.93,2.39,8,8,0,0,1-3.56.8,7.9,7.9,0,0,1-5.86-2.49,8.36,8.36,0,0,1-2.42-6.05,8.15,8.15,0,0,1,2.45-6,7.94,7.94,0,0,1,5.89-2.48,7.64,7.64,0,0,1,3.6.84,8.26,8.26,0,0,1,2.83,2.54v-9.2ZM305,94.05a6.26,6.26,0,0,0-5.54,3.25,6.52,6.52,0,0,0-.86,3.26,6.58,6.58,0,0,0,.87,3.26,6.39,6.39,0,0,0,2.35,2.43,6.21,6.21,0,0,0,3.17.86,6.44,6.44,0,0,0,3.23-.86,6,6,0,0,0,2.35-2.32,6.63,6.63,0,0,0,.82-3.31,6.44,6.44,0,0,0-1.84-4.69A6.16,6.16,0,0,0,305,94.05Z"/><path d="M317.71,86.23h2.08v22.38h-2.08Z"/><path d="M337.71,103.25l1.75.92a9.84,9.84,0,0,1-2,2.74,8,8,0,0,1-2.55,1.58,8.85,8.85,0,0,1-3.19.54,7.72,7.72,0,0,1-6.18-2.59,8.73,8.73,0,0,1-2.23-5.86,8.64,8.64,0,0,1,1.89-5.48,7.72,7.72,0,0,1,6.4-3,8,8,0,0,1,6.6,3.13A8.72,8.72,0,0,1,340,100.7H325.46a6.56,6.56,0,0,0,1.8,4.61,5.73,5.73,0,0,0,4.29,1.8,6.83,6.83,0,0,0,2.4-.43,6.31,6.31,0,0,0,2-1.13A10.1,10.1,0,0,0,337.71,103.25Zm0-4.35a6.94,6.94,0,0,0-1.22-2.65,5.72,5.72,0,0,0-2.1-1.61,6.52,6.52,0,0,0-2.75-.6,6,6,0,0,0-4.09,1.52,6.93,6.93,0,0,0-1.88,3.34Z"/><path d="M350.37,104.55l1.85-1.12q2,3.61,4.53,3.61a4.33,4.33,0,0,0,2.06-.51,3.64,3.64,0,0,0,2-3.2,3.73,3.73,0,0,0-.74-2.15,18.09,18.09,0,0,0-3.74-3.51,18.54,18.54,0,0,1-3.4-3,5.4,5.4,0,0,1-1.16-3.34,5.12,5.12,0,0,1,.68-2.6,5,5,0,0,1,1.92-1.85,5.57,5.57,0,0,1,2.7-.67,5.69,5.69,0,0,1,2.88.76,9.85,9.85,0,0,1,2.85,2.82L361,91.16A9,9,0,0,0,358.9,89a3.69,3.69,0,0,0-1.9-.52,3,3,0,0,0-2.16.81,2.61,2.61,0,0,0-.84,2,3.37,3.37,0,0,0,.3,1.38,5.22,5.22,0,0,0,1.08,1.46c.29.27,1.23,1,2.83,2.18a15.63,15.63,0,0,1,3.88,3.72,6,6,0,0,1,1.06,3.28,5.55,5.55,0,0,1-1.81,4.13,6,6,0,0,1-4.38,1.75,6.42,6.42,0,0,1-3.61-1.06A9.71,9.71,0,0,1,350.37,104.55Z"/><path d="M383.1,95.82l-1.65,1A6.9,6.9,0,0,0,375.62,94a6.77,6.77,0,0,0-4.9,1.89,6.21,6.21,0,0,0-2,4.61,6.56,6.56,0,0,0,.9,3.33,6.33,6.33,0,0,0,2.46,2.41,7.45,7.45,0,0,0,9.32-2l1.65,1.08a7.8,7.8,0,0,1-3.11,2.71,9.94,9.94,0,0,1-4.45,1,8.75,8.75,0,0,1-6.35-2.44,7.91,7.91,0,0,1-2.52-5.92,8.47,8.47,0,0,1,1.18-4.36,8.2,8.2,0,0,1,3.24-3.13,9.36,9.36,0,0,1,4.62-1.13,9.75,9.75,0,0,1,3.09.49,8.44,8.44,0,0,1,2.53,1.27A7.19,7.19,0,0,1,383.1,95.82Z"/><path d="M387.09,86.23h2.08v9.13A8.83,8.83,0,0,1,392,92.87a6.71,6.71,0,0,1,3.28-.82,5.69,5.69,0,0,1,3.21.92,5.43,5.43,0,0,1,2.07,2.47,13,13,0,0,1,.67,4.86v8.31H399.1v-7.7a19.74,19.74,0,0,0-.22-3.73,4.23,4.23,0,0,0-1.41-2.41,4.12,4.12,0,0,0-2.66-.81,5.15,5.15,0,0,0-3.38,1.25,5.81,5.81,0,0,0-2,3.09,21.05,21.05,0,0,0-.3,4.39v5.92h-2.08Z"/><path d="M413.28,92.05a8,8,0,0,1,6.18,2.7,8.68,8.68,0,0,1-.12,11.75,8.55,8.55,0,0,1-12.14,0,8.64,8.64,0,0,1-.12-11.74A8,8,0,0,1,413.28,92.05Zm0,2A6,6,0,0,0,408.81,96a6.39,6.39,0,0,0-1.86,4.63,6.63,6.63,0,0,0,.85,3.26,6,6,0,0,0,2.3,2.34,6.54,6.54,0,0,0,6.34,0,6.09,6.09,0,0,0,2.3-2.34,6.63,6.63,0,0,0,.84-3.26A6.36,6.36,0,0,0,417.71,96,6,6,0,0,0,413.27,94.08Z"/><path d="M433.18,92.05a8,8,0,0,1,6.19,2.7,8.67,8.67,0,0,1-.13,11.75,8.53,8.53,0,0,1-12.13,0A8.66,8.66,0,0,1,427,94.76,8,8,0,0,1,433.18,92.05Zm0,2A6,6,0,0,0,428.72,96a6.39,6.39,0,0,0-1.86,4.63,6.53,6.53,0,0,0,.85,3.26,6,6,0,0,0,2.29,2.34,6.56,6.56,0,0,0,6.35,0,6,6,0,0,0,2.29-2.34,6.53,6.53,0,0,0,.85-3.26A6.36,6.36,0,0,0,437.62,96,6,6,0,0,0,433.17,94.08Z"/><path d="M445.13,86.23h2.08v22.38h-2.08Z"/><g class="cls-2"><rect width="265.06" height="70.28" x="182.94" y="12.67" class="cls-3" rx="1.43" ry="1.43"/></g><path d="M193.05,66.8,190,77.1V83H186.1V77.1l-2.95-10.3H187a62.79,62.79,0,0,1,1,6.36q.36-2.58,1.17-6.36Z" class="cls-1"/><path d="M201.86,76.56h-5.22v2.87a3.07,3.07,0,0,0,.13,1.15.49.49,0,0,0,.5.26.59.59,0,0,0,.61-.34,3.59,3.59,0,0,0,.16-1.33V77.42h3.82v1a8.21,8.21,0,0,1-.16,1.88,3.78,3.78,0,0,1-.72,1.41,3.53,3.53,0,0,1-1.44,1.12,5.56,5.56,0,0,1-2.19.37,6.48,6.48,0,0,1-2.25-.36,3.51,3.51,0,0,1-2.28-2.43,9.18,9.18,0,0,1-.21-2.25V74.28a6.62,6.62,0,0,1,.47-2.74A3.18,3.18,0,0,1,194.62,70a5.35,5.35,0,0,1,2.45-.54,5.6,5.6,0,0,1,2.8.64,3.53,3.53,0,0,1,1.54,1.71,7.89,7.89,0,0,1,.45,3Zm-4-2.15v-1a5.07,5.07,0,0,0-.11-1.33.43.43,0,0,0-.45-.29c-.28,0-.45.08-.52.25a5.14,5.14,0,0,0-.1,1.37v1Z" class="cls-1"/><path d="M206.77,74.84H203V74a6.2,6.2,0,0,1,.36-2.37,3.3,3.3,0,0,1,1.42-1.47,5.28,5.28,0,0,1,2.77-.64,5.41,5.41,0,0,1,3.08.72A2.86,2.86,0,0,1,211.87,72a27.74,27.74,0,0,1,.21,4.33V83h-3.92V81.77a2.66,2.66,0,0,1-.95,1.06,2.61,2.61,0,0,1-1.39.35,3.36,3.36,0,0,1-1.94-.59c-.59-.39-.89-1.26-.89-2.6V78.91a3.22,3.22,0,0,1,.47-2,6.55,6.55,0,0,1,2.33-1.25,6.58,6.58,0,0,0,2.12-1,2.87,2.87,0,0,0,.14-1.1,3.8,3.8,0,0,0-.15-1.35.54.54,0,0,0-.52-.31c-.27,0-.44.08-.51.26a5.7,5.7,0,0,0-.1,1.37Zm1.28,1.81a3,3,0,0,0-1.12,1.19,4.81,4.81,0,0,0-.16,1.38,3.93,3.93,0,0,0,.14,1.32.53.53,0,0,0,.53.3.52.52,0,0,0,.5-.23,4.08,4.08,0,0,0,.11-1.23Z" class="cls-1"/><path d="M217.5,69.71l-.16,1.74a3,3,0,0,1,2.54-2v4.66a3.39,3.39,0,0,0-1.63.3,1.24,1.24,0,0,0-.63.83,15,15,0,0,0-.12,2.46V83h-4V69.71Z" class="cls-1"/><path d="M220.9,66.8h4.18a10.87,10.87,0,0,1,3,.31,3,3,0,0,1,1.65,1.25,5.61,5.61,0,0,1,.63,3,3.34,3.34,0,0,1-.44,2,3.13,3.13,0,0,1-1.75.85,3.08,3.08,0,0,1,2,1.1,4.18,4.18,0,0,1,.52,2.34v1.49a6,6,0,0,1-.37,2.43,2.06,2.06,0,0,1-1.2,1.08,12.3,12.3,0,0,1-3.35.29H220.9Zm4.2,2.76v3.59h.41c.42,0,.68-.1.79-.3a4.78,4.78,0,0,0,.17-1.74,2.84,2.84,0,0,0-.14-1.06.64.64,0,0,0-.36-.39A3.53,3.53,0,0,0,225.1,69.56Zm0,6.11v4.51a1.78,1.78,0,0,0,1.13-.28,2,2,0,0,0,.24-1.22V77.17a2.12,2.12,0,0,0-.22-1.26A1.93,1.93,0,0,0,225.1,75.67Z" class="cls-1"/><path d="M241.17,74.36V77.6a13.7,13.7,0,0,1-.18,2.62,3.59,3.59,0,0,1-.77,1.55,3.37,3.37,0,0,1-1.51,1.07,6,6,0,0,1-2.12.34,7.43,7.43,0,0,1-2.26-.29,3.06,3.06,0,0,1-1.44-.89,3.41,3.41,0,0,1-.73-1.43,10.62,10.62,0,0,1-.22-2.53V74.65a8.18,8.18,0,0,1,.4-2.88,3.26,3.26,0,0,1,1.43-1.67,5,5,0,0,1,2.65-.63,6,6,0,0,1,2.33.41A3.69,3.69,0,0,1,241,72.26,8.38,8.38,0,0,1,241.17,74.36Zm-4-1a4.15,4.15,0,0,0-.11-1.28.44.44,0,0,0-.47-.26.46.46,0,0,0-.47.26,4,4,0,0,0-.12,1.28v6a3.87,3.87,0,0,0,.12,1.22.45.45,0,0,0,.46.28.47.47,0,0,0,.48-.26,3.56,3.56,0,0,0,.11-1.11Z" class="cls-1"/><path d="M251.61,74.36V77.6a13.7,13.7,0,0,1-.18,2.62,3.68,3.68,0,0,1-.76,1.55,3.49,3.49,0,0,1-1.51,1.07,6.08,6.08,0,0,1-2.12.34,7.46,7.46,0,0,1-2.27-.29,3.06,3.06,0,0,1-1.44-.89,3.41,3.41,0,0,1-.73-1.43,10.62,10.62,0,0,1-.22-2.53V74.65a8.18,8.18,0,0,1,.4-2.88,3.26,3.26,0,0,1,1.43-1.67,5.09,5.09,0,0,1,2.66-.63,6.07,6.07,0,0,1,2.33.41,3.64,3.64,0,0,1,2.22,2.38A8.38,8.38,0,0,1,251.61,74.36Zm-4-1a4.15,4.15,0,0,0-.11-1.28.43.43,0,0,0-.46-.26.47.47,0,0,0-.48.26,4,4,0,0,0-.12,1.28v6a3.87,3.87,0,0,0,.12,1.22.54.54,0,0,0,.94,0,3.27,3.27,0,0,0,.11-1.11Z" class="cls-1"/><path d="M261.62,69.71,260,75l2.13,8h-3.88L257,77.18V83h-4V66.8h4v6.78l1.26-3.87Z" class="cls-1"/><path d="M275,80.19V83h-8.87V80.64q3.93-6.44,4.68-8a6.11,6.11,0,0,0,.74-2.39,1.71,1.71,0,0,0-.22-1,.78.78,0,0,0-.69-.33.75.75,0,0,0-.68.36,3,3,0,0,0-.23,1.43v1.53h-3.61v-.58a13.08,13.08,0,0,1,.14-2.14A3.85,3.85,0,0,1,267,68a3.44,3.44,0,0,1,1.43-1.15,6,6,0,0,1,5.74.8,4,4,0,0,1,1.23,3,7.21,7.21,0,0,1-.69,2.93,61.84,61.84,0,0,1-4.09,6.56Z" class="cls-1"/><path d="M286.06,72.26v5.39a13,13,0,0,1-.2,2.67,3.83,3.83,0,0,1-2.34,2.62,5.93,5.93,0,0,1-2,.32,7.45,7.45,0,0,1-2.4-.34,3.3,3.3,0,0,1-1.53-1,4.64,4.64,0,0,1-.81-1.49,9.81,9.81,0,0,1-.23-2.49V72.26a10.74,10.74,0,0,1,.38-3.33,3.27,3.27,0,0,1,1.53-1.77,5.32,5.32,0,0,1,2.76-.67,5.81,5.81,0,0,1,2.38.46,3.86,3.86,0,0,1,1.56,1.14,3.72,3.72,0,0,1,.71,1.5A14.09,14.09,0,0,1,286.06,72.26Zm-4-1.35a6.21,6.21,0,0,0-.12-1.61.56.56,0,0,0-.59-.33.58.58,0,0,0-.59.35,5.07,5.07,0,0,0-.15,1.59v7.88a5.73,5.73,0,0,0,.14,1.69c.09.2.28.29.58.29a.56.56,0,0,0,.59-.34,5.09,5.09,0,0,0,.14-1.52Z" class="cls-1"/><path d="M293.72,66.8V83h-4V74.29A15.35,15.35,0,0,0,289.6,72a.84.84,0,0,0-.49-.57,5.15,5.15,0,0,0-1.8-.19h-.4V69.38a7.32,7.32,0,0,0,4.44-2.58Z" class="cls-1"/><path d="M305,71.09h-4c0-.75,0-1.23,0-1.42a.79.79,0,0,0-.24-.5.86.86,0,0,0-.59-.2.76.76,0,0,0-.51.19.78.78,0,0,0-.23.49c0,.2,0,.6,0,1.21v2.57a2.14,2.14,0,0,1,.91-1,3,3,0,0,1,1.48-.32,3.26,3.26,0,0,1,1.95.59,2.57,2.57,0,0,1,1.08,1.44,9,9,0,0,1,.23,2.26v1.29a17.23,17.23,0,0,1-.13,2.52,3.22,3.22,0,0,1-.69,1.53,3.67,3.67,0,0,1-1.55,1.1,6.17,6.17,0,0,1-2.29.39,6.92,6.92,0,0,1-2.66-.45,3.52,3.52,0,0,1-1.6-1.3,3.77,3.77,0,0,1-.66-1.77q-.09-.92-.09-3.6V73.91c0-1.92,0-3.21.08-3.85a3.78,3.78,0,0,1,.69-1.84,3.73,3.73,0,0,1,1.66-1.31,6.35,6.35,0,0,1,2.43-.43,6.09,6.09,0,0,1,2.78.55,3.24,3.24,0,0,1,1.56,1.54A6,6,0,0,1,305,71.09Zm-4,5a2.44,2.44,0,0,0-.19-1.17.65.65,0,0,0-.62-.32.67.67,0,0,0-.61.3,2.46,2.46,0,0,0-.2,1.19v2.93a3.36,3.36,0,0,0,.19,1.39.64.64,0,0,0,.61.33.81.81,0,0,0,.54-.25c.19-.17.28-.63.28-1.37Z" class="cls-1"/><path d="M452.1,62.11v1.7a6.5,6.5,0,0,1-.32,2.19,3.2,3.2,0,0,1-1.09,1.45,4.46,4.46,0,0,1-1.77.8V66.88a1.41,1.41,0,0,0,.8-1h-.8V62.11Zm4.24,0v1.7A6.5,6.5,0,0,1,456,66a3.2,3.2,0,0,1-1.09,1.45,4.46,4.46,0,0,1-1.77.8V66.88a1.4,1.4,0,0,0,.79-1h-.79V62.11Z" class="cls-1"/></g></svg>