<svg xmlns="http://www.w3.org/2000/svg" xmlns:xlink="http://www.w3.org/1999/xlink" viewBox="0 0 1024 1024"><defs><style>.cls-1{fill:none;}.cls-2{fill:#ffe5c0;}.cls-3{clip-path:url(#clip-path);}.cls-4{fill:#2b9a91;}.cls-5{clip-path:url(#clip-path-2);}.cls-6{fill:#20736d;}.cls-7{fill:#d5ebe9;}.cls-8{fill:#fff;}.cls-9{fill:#289487;stroke:#000;stroke-width:12px;}.cls-10,.cls-9{stroke-miterlimit:10;}.cls-10,.cls-12{fill:#1a1b1f;}.cls-10{stroke:#72b7b2;stroke-width:12.51px;}.cls-11{clip-path:url(#clip-path-3);}.cls-13{fill:#e1bdb0;}</style><clipPath id="clip-path"><rect class="cls-1" width="1024" height="1024"/></clipPath><clipPath id="clip-path-2"><path class="cls-1" d="M-163-11S-44,216,201.5,446.5c-44.5-274.5-39-461-39-461"/></clipPath><clipPath id="clip-path-3"><ellipse class="cls-1" cx="491" cy="406" rx="150" ry="205" transform="translate(-13.92 17.45) rotate(-2.01)"/></clipPath></defs><title>miku_eye</title><g id="Layer_1" data-name="Layer 1"><rect class="cls-2" x="0.5" y="0.5" width="1023" height="1023"/><path d="M1023,1V1023H1V1H1023m1-1H0V1024H1024V0Z"/><g class="cls-3"><path class="cls-4" d="M-163-11S-44,216,201.5,446.5c-44.5-274.5-39-461-39-461"/><g class="cls-5"><path class="cls-6" d="M39,4S156,399,212,452c22.36-4.17,0-91,0-91L75-14Z"/></g><path class="cls-7" d="M-7,76s0,28,44,110C23,150-1,68-1,68Z"/><path class="cls-4" d="M399-17S616,87,717,191C664,121,565-41,565-41Z"/><path class="cls-4" d="M565-41S833,223,839,328s-124,715-156,857,408,52,408,52L1157-11Z"/><path class="cls-6" d="M518-29s53,71,134,149C567,0,559-17,559-17Z"/><path class="cls-6" d="M1035,59c-123,381-338,968-338,968l126-2S973,479,1035,59Z"/><path class="cls-6" d="M1164,362c-123,381-338,968-338,968L996,963l-44,365S1102,782,1164,362Z"/></g></g><g id="eye"><path class="cls-8" d="M280.5,361.5s93-133,272-133C684.5,228.5,736,346,736,388c0,89-129.5,227.5-242.5,227.5C309.5,615.5,280.5,361.5,280.5,361.5Z"/><ellipse class="cls-9" cx="491" cy="406" rx="150" ry="205" transform="translate(-13.92 17.45) rotate(-2.01)"/><path d="M281,367s52-207,287-207c134,0,207,103,207,196,0,42-26,90-100.5,160.5,18.33-26.75,56.56-72.16,56-120-1-82.69-78-171-179-171C396,225.5,281,367,281,367Z"/><ellipse class="cls-10" cx="491" cy="406" rx="89.46" ry="131.98" transform="translate(-13.92 17.45) rotate(-2.01)"/><g class="cls-11"><ellipse class="cls-12" cx="508.98" cy="210" rx="315.99" ry="196"/></g><ellipse class="cls-8" cx="385.5" cy="495.5" rx="46.5" ry="39.5"/><ellipse class="cls-8" cx="589.73" cy="486.8" rx="21.19" ry="29.97" transform="translate(-49.4 906.65) rotate(-72.84)"/><circle class="cls-8" cx="583" cy="302" r="18"/><path class="cls-13" d="M305,190l-22,43s57-67,208-102C327,142,305,190,305,190Z"/></g></svg>