<svg xmlns="http://www.w3.org/2000/svg" xmlns:xlink="http://www.w3.org/1999/xlink" id="Layer_1" x="0" y="0" enable-background="new 0 0 500 500" version="1.1" viewBox="0 0 500 500" xml:space="preserve"><style type="text/css">.st0{fill:#f9f9f9}.st1{fill:#d8d8d8}.st2{fill:#9e9e9e}.st3{fill:#eeb7b7}.st4{fill:#fff}.st5{fill:#b1dfe2}.st6{fill:#f2d455}.st7{fill:#da251c}.st8{fill:none;stroke:#fff;stroke-width:.6367;stroke-miterlimit:10}.st9{opacity:.23;enable-background:new}.st10{fill:#f2e5c4}.st11{fill:#8c73fd}.st12{fill:#ae98ff}.st13{fill:#ffb389}.st14{fill:#8dc63f}.st15{fill:#414042}.st16{fill:#ac2743}.st17{fill:#c13356}.st18{fill:#ea506d}.st19{opacity:.31}.st20{clip-path:url(#SVGID_2_)}.st21{fill:#b33548}.st22{fill:#ffc239}.st23{fill:#ddd}.st24{fill:#faffed}.st25{stroke-dasharray:6.7916}.st25,.st26{fill:none;stroke:#b7cc54;stroke-width:5.6794;stroke-miterlimit:10}.st27{fill:#c0f2bd}.st28{fill:#fd6c79}.st29{fill:#e8c447}.st30{fill:#fdfbe6}.st31{clip-path:url(#SVGID_4_)}.st32{fill:#cc5d41}.st33{fill:#6f7b84}.st34{fill:none;stroke:#3a3112;stroke-width:1.0187;stroke-linecap:round;stroke-miterlimit:10}.st35{fill:#77b793}.st36{fill:#fff18d}.st37{fill:#bf7c6a}.st38{fill:#3fb29d}.st39{clip-path:url(#SVGID_6_)}.st40{fill:#ab362b}.st41{fill:#be3c2f}.st42{fill:#c8584c}.st43{fill:#e4b4a6}.st44{fill:#ffc9b9}.st45{fill:#ffdbd1}</style><title>apps</title><rect width="505" height="508" x="-.5" y="-2.5" class="st0"/><circle cx="250" cy="364.6" r="45.8" class="st1"/><polygon points="261.9 388.3 261.9 384.4 234.4 384.4 234.4 388.3 230.5 388.3 230.5 392.3 238.4 392.3 238.4 396.2 261.9 396.2 261.9 392.3 265.8 392.3 265.8 388.3" class="st2"/><rect width="15.7" height="11.8" x="242.3" y="376.6" class="st3"/><rect width="3.9" height="3.9" x="234.4" y="372.6" class="st3"/><rect width="3.9" height="3.9" x="261.9" y="372.6" class="st3"/><polygon points="269.7 349.1 265.8 349.1 265.8 345.2 261.9 345.2 261.9 341.2 238.4 341.2 238.4 345.2 234.4 345.2 234.4 349.1 230.5 349.1 230.5 364.7 234.4 364.7 234.4 368.7 238.4 368.7 238.4 372.6 261.9 372.6 261.9 368.7 265.8 368.7 265.8 364.8 269.7 364.8" class="st3"/><rect width="3.9" height="3.9" x="234.4" y="341.2"/><rect width="3.9" height="3.9" x="230.5" y="345.2"/><polygon points="238.4 353 238.4 356.9 234.4 356.9 234.4 360.9 238.4 360.9 242.3 360.9 242.3 356.9 242.3 353"/><polygon points="261.9 353 261.9 356.9 258 356.9 258 360.9 261.9 360.9 265.8 360.9 265.8 356.9 265.8 353"/><polygon points="226.6 349.1 226.6 353 226.6 356.9 226.6 360.9 226.6 364.8 230.5 364.8 230.5 360.9 230.5 356.9 230.5 353 230.5 349.1"/><rect width="3.9" height="3.9" x="250.1" y="384.4"/><rect width="3.9" height="3.9" x="246.2" y="384.4"/><rect width="3.9" height="3.9" x="265.8" y="364.8"/><rect width="3.9" height="3.9" x="230.5" y="364.8"/><rect width="3.9" height="3.9" x="234.4" y="368.7"/><rect width="3.9" height="3.9" x="261.9" y="368.7"/><polygon points="258 337.3 254.1 337.3 250.1 337.3 246.2 337.3 242.3 337.3 238.4 337.3 238.4 341.2 242.3 341.2 246.2 341.2 250.1 341.2 254.1 341.2 258 341.2 261.9 341.2 261.9 337.3"/><rect width="3.9" height="3.9" x="234.4" y="353" class="st4"/><rect width="3.9" height="3.9" x="258" y="353" class="st4"/><polygon points="238.4 360.9 234.4 360.9 234.4 364.8 234.4 368.7 238.4 368.7 238.4 364.8 242.3 364.8 242.3 360.9" class="st5"/><polygon points="261.9 360.9 258 360.9 258 364.8 261.9 364.8 261.9 368.7 265.8 368.7 265.8 364.8 265.8 360.9" class="st5"/><polygon points="254.1 360.9 250.1 360.9 246.2 360.9 242.3 360.9 242.3 364.8 242.3 368.7 246.2 368.7 250.1 368.7 254.1 368.7 258 368.7 258 364.8 258 360.9"/><polygon points="265.8 372.7 265.8 376.6 261.9 376.6 261.9 372.7 258 372.7 254.1 372.7 250.1 372.7 246.2 372.7 242.3 372.7 238.4 372.7 238.4 376.6 234.4 376.6 234.4 372.7 230.5 372.7 230.5 376.6 230.5 380.5 234.4 380.5 238.4 380.5 238.4 384.5 238.4 388.4 238.4 392.3 242.3 392.3 246.2 392.3 246.2 388.4 242.3 388.4 242.3 384.5 242.3 380.5 242.3 376.6 246.2 376.6 250.1 376.6 254.1 376.6 258 376.6 258 380.5 258 384.4 258 384.5 258 388.3 258 388.4 254.1 388.4 254.1 392.3 258 392.3 258 392.3 261.9 392.3 261.9 388.3 261.9 384.5 261.9 384.4 261.9 380.5 265.8 380.5 269.7 380.5 269.7 376.6 269.7 372.7"/><rect width="3.9" height="3.9" x="261.9" y="341.2"/><rect width="3.9" height="3.9" x="265.8" y="345.2"/><polygon points="269.7 349.1 269.7 353 269.7 356.9 269.7 360.9 269.7 364.8 273.7 364.8 273.7 360.9 273.7 356.9 273.7 353 273.7 349.1"/><circle cx="364.5" cy="364.6" r="45.8" class="st6"/><path d="M369.9,377.3v-36.4c0-3.1-2.5-5.6-5.6-5.7c-3.1,0-5.6,2.5-5.7,5.6c0,0,0,0,0,0v36.4c-5.1,3.1-6.8,9.8-3.6,14.9	c3.1,5.1,9.8,6.8,14.9,3.6c5.1-3.1,6.8-9.8,3.6-14.9C372.7,379.4,371.4,378.2,369.9,377.3z" class="st4"/><circle cx="364.3" cy="386.5" r="7" class="st7"/><rect width="5.4" height="28.1" x="361.6" y="353.2" class="st7"/><line x1="372.7" x2="379.8" y1="350.7" y2="350.7" class="st8"/><line x1="372.7" x2="377.2" y1="353.3" y2="353.3" class="st8"/><line x1="372.7" x2="379.8" y1="356" y2="356" class="st8"/><line x1="372.7" x2="377.2" y1="358.6" y2="358.6" class="st8"/><line x1="372.7" x2="379.8" y1="361.3" y2="361.3" class="st8"/><line x1="372.7" x2="377.2" y1="363.9" y2="363.9" class="st8"/><line x1="372.7" x2="379.8" y1="366.5" y2="366.5" class="st8"/><line x1="372.7" x2="377.2" y1="369.2" y2="369.2" class="st8"/><line x1="372.7" x2="379.8" y1="371.8" y2="371.8" class="st8"/><line x1="372.7" x2="377.2" y1="374.5" y2="374.5" class="st8"/><path d="M369.9,377.3v-36.4c0-3.1-2.5-5.6-5.6-5.6v62.2c6,0,10.9-4.8,10.9-10.8C375.2,382.8,373.2,379.2,369.9,377.3	L369.9,377.3z" class="st9"/><circle cx="135.5" cy="364.6" r="45.8" class="st10"/><path d="M111.4,350.3h13.3l3.2-3.8l4.4,3.6c0.9,0.8,0.8,1.3-0.4,1.6h-19.7L111.4,350.3z M113.4,364.7v-1.4h10.2	l2.4-3.4l4.4,3.4h5c0.9-2.9,1.6-5.8,2.2-8.8h-5.6l-0.8-1.4h6.8c0.5-2.5,1.1-5,1.6-7.6h-8l-0.4-1.4h19.1l3-4l4.6,3.8	c0.8,0.8,0.7,1.3-0.4,1.6H145l-1.8,7.6h4.2l1.6-2.8l4.6,3.8c1.1,0.9,0.9,1.7-0.4,2.2l-0.6,0.2l-0.2,6.8h0.4l2.4-4.2l4.2,4	c0.8,0.8,0.7,1.3-0.4,1.6L113.4,364.7z M113.4,345.6v-1.4h9.9l2.4-3.4l4,3.4c0.8,0.7,0.7,1.1-0.4,1.4H113.4z M113.4,358.5v-1.4h9.9	l2.2-3.2l3.8,3.2c0.8,0.7,0.7,1.1-0.2,1.4H113.4z M118.2,382.5v2.4c0,0.5-0.3,1-0.8,1.2c-0.8,0.3-1.7,0.4-2.6,0.4	c-0.9,0.1-1.4-0.1-1.4-0.8v-17.5l5.4,2.6h5l2-3.2l4.4,4c0.8,0.8,0.7,1.6-0.4,2.4l-0.6,0.4v8.8c0,0.6-0.3,1.1-0.8,1.4	c-1,0.3-2,0.5-3,0.6c-0.7,0-1-0.3-1-0.8v-1.8H118.2z M118.2,372.2v8.9h6.2v-8.9L118.2,372.2z M139,383.1v1c0.1,0.6-0.1,1.2-0.6,1.6	c-1.1,0.4-2.2,0.6-3.4,0.8c-0.8,0-1.2-0.3-1.2-1v-17.1l5.8,2.4h10.5l1.6-3l4.8,4c0.8,0.7,0.7,1.4-0.4,2.2l-0.6,0.4v9.5	c0.1,0.6-0.1,1.2-0.6,1.6c-1.2,0.6-2.5,0.9-3.8,0.8c-0.5-0.1-0.8-0.5-0.8-1v-2.2L139,383.1z M139,372.2v9.5h11.3v-9.5L139,372.2z M142.8,354.5c-0.7,2.9-1.5,5.8-2.4,8.8h7l0.2-8.8H142.8z" class="st11"/><path d="M141.2,395.5L141.2,395.5v-3.7h0.4v4.3h-0.5l-2.5-3.7l0,0v3.7h-0.4v-4.3h0.6L141.2,395.5z" class="st12"/><path d="M143.6,393.7h0.2c0.6,0,1-0.2,1-0.8c0-0.5-0.4-0.8-0.8-0.8c-0.4,0-0.7,0.2-0.8,0.5l-0.4-0.2	c0.2-0.4,0.7-0.7,1.2-0.7c0.6-0.1,1.2,0.4,1.3,1.1c0,0,0,0.1,0,0.1c0,0.5-0.3,0.9-0.7,1l0,0c0.5,0.1,0.9,0.6,0.8,1.1	c0,0.7-0.6,1.3-1.3,1.3c0,0-0.1,0-0.1,0c-0.6,0-1.1-0.3-1.4-0.8l0.4-0.2c0.1,0.4,0.5,0.7,1,0.7c0.5,0,0.9-0.4,1-0.9c0,0,0,0,0,0	c0-0.7-0.6-0.8-1.1-0.8h-0.2L143.6,393.7z" class="st12"/><path d="M147.5,394.8h-1.4v-0.3h1.4L147.5,394.8z" class="st12"/><path d="M151.4,395.5L151.4,395.5v-3.7h0.4v4.3h-0.6l-2.5-3.7l0,0v3.7h-0.4v-4.3h0.5L151.4,395.5z" class="st12"/><path d="M155.5,396.1h-2.8v-0.5l1.8-1.8c0.3-0.2,0.5-0.6,0.5-1c0-0.5-0.4-0.8-0.8-0.8c-0.4,0-0.8,0.3-0.9,0.8l-0.4-0.1	c0.1-0.6,0.7-1.1,1.3-1.1c0.6-0.1,1.2,0.4,1.3,1.1c0,0,0,0.1,0,0.1c0,0.5-0.3,1-0.7,1.3l-1.6,1.6h2.3L155.5,396.1z" class="st12"/><circle cx="364.5" cy="249.9" r="45.8" class="st13"/><circle cx="378.6" cy="228.9" r="2.2" class="st14"/><path d="M378.6,231.6c-1.5,0-2.7-1.2-2.7-2.7c0-1.5,1.2-2.7,2.7-2.7c1.5,0,2.7,1.2,2.7,2.7c0,0,0,0,0,0l0,0	C381.4,230.4,380.1,231.6,378.6,231.6z M378.6,227.2c-0.9,0-1.7,0.8-1.7,1.7c0,0.9,0.8,1.7,1.7,1.7c0.9,0,1.7-0.8,1.7-1.7l0,0	C380.3,227.9,379.6,227.2,378.6,227.2z" class="st15"/><circle cx="364.3" cy="251.2" r="26.1" class="st16"/><path d="M364.3,278.6c-15.2,0-27.5-12.3-27.5-27.5c0-15.2,12.3-27.5,27.5-27.5c15.2,0,27.5,12.3,27.5,27.5	c0,7.3-2.9,14.3-8,19.4C378.6,275.7,371.6,278.6,364.3,278.6z M364.3,226.4c-13.7,0-24.8,11.1-24.8,24.8c0,13.7,11.1,24.8,24.8,24.8	c13.7,0,24.8-11.1,24.8-24.8c0,0,0,0,0,0C389.1,237.5,378,226.4,364.3,226.4L364.3,226.4z" class="st15"/><path d="M388.9,251.4c0,13.1-7.4,22.5-20.6,24.4s-27.5-11.3-27.5-24.4s10.8-25,24-25S388.9,238.3,388.9,251.4z" class="st17"/><path d="M388.2,251.9c0,12.9-7.4,22.2-20.6,24c-13.3,1.8-27.5-11.1-27.5-24c0-12.9,10.8-24.7,24-24.8	C379.7,226.9,388.2,239,388.2,251.9z" class="st18"/><g class="st19"><g><defs><circle id="SVGID_1_" cx="364.3" cy="251.2" r="24.8"/></defs><clipPath id="SVGID_2_"><use overflow="visible" xlink:href="#SVGID_1_"/></clipPath><g class="st20"><circle cx="346.9" cy="240.9" r="12.5" class="st21"/><circle cx="359.3" cy="263.8" r="7.9" class="st21"/><circle cx="387.8" cy="261.5" r="8.4" class="st21"/></g></g></g><circle cx="367.3" cy="225.6" r="3.9" class="st22"/><path d="M367.3,230.7c-2.8,0-5.1-2.3-5.1-5.1s2.3-5.1,5.1-5.1s5.1,2.3,5.1,5.1S370.1,230.7,367.3,230.7z M367.3,222.8	c-1.6,0-2.8,1.3-2.8,2.8c0,1.6,1.3,2.8,2.8,2.8c1.6,0,2.8-1.3,2.8-2.8c0,0,0,0,0,0l0,0C370.1,224.1,368.9,222.8,367.3,222.8	L367.3,222.8z" class="st15"/><path d="M364.8,254.1c0.4,0,0.7,0.3,0.7,0.7c0,0.4-0.3,0.7-0.7,0.7c-0.4,0-0.7-0.3-0.7-0.7	C364.1,254.4,364.4,254.1,364.8,254.1z" class="st15"/><circle cx="377.5" cy="241" r=".7" class="st15"/><path d="M349.1,267.4c-1.6,0-2.9-1.6-2.9-3.5c0-0.4,0.3-0.7,0.7-0.7c0.4,0,0.7,0.3,0.7,0.7l0,0c0,1.2,0.7,2.1,1.6,2.1	c0.4,0,0.7,0.2,0.7,0.6c0,0.4-0.2,0.7-0.6,0.7C349.2,267.4,349.1,267.4,349.1,267.4z" class="st15"/><circle cx="353" cy="221.9" r=".7" class="st15"/><circle cx="372.2" cy="221.3" r=".7" class="st15"/><circle cx="384.7" cy="228.1" r=".7" class="st15"/><circle cx="381.8" cy="219.8" r="1" class="st15"/><path d="M347.6,279.7c-1.8,0.1-3.6-0.6-4.9-1.9c-2.3-2.6-2.3-5.5,0.2-10.4c0.3-0.7,1.1-0.9,1.8-0.6	c0.7,0.3,0.9,1.1,0.6,1.8c-2.4,4.7-1.7,6.1-0.6,7.4c1.4,1.6,5.4,1.2,10.5-1c5.7-2.5,12.3-7,18.5-12.6c6.2-5.6,11.4-11.7,14.4-17.2	c2.7-4.9,3.5-8.7,2.1-10.3c-0.8-0.9-2.2-1.7-6.4-0.4c-0.7,0.3-1.5,0-1.8-0.7c-0.3-0.7,0-1.5,0.7-1.8c0.1,0,0.2-0.1,0.3-0.1l0,0	c3-0.8,6.7-1.6,9.1,1.2c1.2,1.4,1.7,3.4,1.2,5.9c-0.6,2.7-1.6,5.2-3,7.5c-3.2,5.7-8.5,12-15,17.8c-6.5,5.8-13.3,10.5-19.3,13.1	c-2.5,1.2-5.1,1.9-7.8,2.2L347.6,279.7z" class="st15"/><circle cx="367.3" cy="269" r="4.4" class="st23"/><path d="M367.3,274.3c-2.9,0-5.3-2.4-5.3-5.3c0-2.9,2.4-5.3,5.3-5.3c2.9,0,5.3,2.4,5.3,5.3c0,0,0,0,0,0l0,0	C372.6,271.9,370.3,274.3,367.3,274.3z M367.3,265.6c-1.9,0-3.4,1.5-3.4,3.4c0,1.9,1.5,3.4,3.4,3.4c1.9,0,3.4-1.5,3.4-3.4l0,0	C370.7,267.1,369.2,265.6,367.3,265.6z" class="st15"/><path d="M372,260.9c-0.6,0-1.1-0.5-1.1-1.1c0,0,0,0,0,0c0-0.3,0.1-0.6,0.3-0.8l11.7-12.4c0.4-0.5,1.2-0.5,1.6-0.1	s0.5,1.2,0.1,1.6l-11.7,12.4C372.6,260.8,372.3,260.9,372,260.9z" class="st15"/><path d="M345.7,243.5c-0.1,0-0.2,0-0.2,0c-0.6-0.1-1-0.7-0.8-1.3c0.6-3.1,2.1-5.9,4.2-8.1c2.2-2.1,4.7-3,7.2-2.5	c0.6,0.1,1,0.7,0.9,1.3c-0.1,0.6-0.7,1-1.3,0.9l0,0c-1.7-0.4-3.5,0.3-5.1,1.9c-1.9,1.9-3.1,4.3-3.6,6.9	C346.8,243.2,346.3,243.5,345.7,243.5z" class="st15"/><circle cx="250" cy="249.9" r="45.8" class="st24"/><circle cx="250" cy="249.9" r="27.1" class="st25"/><path d="M250,222.8c15,0,27.1,12.1,27.1,27.1S265,277,250,277c-2.3,0-4.7-0.3-7-0.9" class="st26"/><polyline points="237.6 251.8 246.2 259.4 260.8 242.1" class="st26"/><circle cx="135.5" cy="249.9" r="45.8" class="st27"/><path d="M126,223.3c2.3,0.2,4.7,0.7,6.9,1.4c0.7,0.2,1.1,0.6,1.1,1.1c0,0.3-0.1,0.7-0.3,1c-0.5,0.6-0.8,1.4-0.8,2.1	c-0.1,0.3-0.1,0.8-0.3,1.6c-0.1,0.6-0.2,1-0.2,1.4c5.2-0.5,10.3-1.3,15.4-2.5c0.1,0,0.3-0.1,0.4-0.1c0.3,0,0.5,0.2,0.6,0.7	c0.3,1.3,0.5,2.7,0.6,4c0,0.6-0.4,1-1.2,1.2c-5.5,1.1-11.1,2-16.8,2.5c-0.2,2.4-0.4,4.4-0.4,5.9c2.9-0.9,6-1.3,9.1-1.3	c0.6-1.4,0.9-2.8,1-4.3c1.8,0.5,3.6,1.2,5.3,2.2c0.7,0.5,1.1,0.9,1.1,1.3c0,0.3-0.1,0.5-0.3,0.7c-0.3,0.3-0.6,0.7-0.8,1.2	c4.1,1.1,7.2,3,9.3,5.7c1.9,2.5,2.9,5.6,2.8,8.7c0,4.3-1.9,8.4-5.3,11.1c-3.2,2.7-7.1,4.5-11.1,5.5c-0.3,0.1-0.6,0.2-1,0.2	c-0.7,0-1.2-0.4-1.6-1.3c-0.4-0.8-1.6-2.1-3.5-3.7c2.3-0.5,4.5-1.2,6.6-2.1c1.5-0.6,3-1.4,4.3-2.2c3-2,4.8-5.3,4.7-8.9	c0-2.2-0.8-4.4-2.5-5.9c-1.4-1.3-3-2.1-4.8-2.5c-2.9,5.7-6.7,10.9-11.2,15.5c0.3,0.9,0.6,1.8,1,2.7c0.1,0.2,0.2,0.4,0.2,0.6	c0,0.3-0.2,0.6-0.6,0.8c-1.1,0.8-2.3,1.5-3.5,2c-0.2,0.1-0.4,0.2-0.6,0.2c-0.2,0-0.4-0.2-0.6-0.5c-0.4-0.7-0.7-1.5-1-2.3	c-4.1,2.8-7.5,4.2-10.3,4.2c-1.9,0.1-3.8-0.7-5-2.2c-1.1-1.5-1.6-3.3-1.6-5.1c0-3.8,1.6-7.6,4.7-11.3c2.5-3,5.6-5.4,9.1-7.1	c0.1-2.1,0.2-4.6,0.3-7.4c-1.4,0.1-2.8,0.1-4,0.1H119c-1.1,0-2.3,0-3.4-0.1c-0.7-0.1-1-0.5-1.1-1.4c-0.1-0.5-0.1-1.3-0.2-2.2	c-0.1-1.2-0.1-1.9-0.1-2.2c2.1,0.2,4.2,0.3,6.2,0.3l5.2-0.1c0.3-2.1,0.4-4.3,0.5-6.5C126.2,225.1,126.2,224.2,126,223.3z M124.8,251.3c-2.3,1.6-4.2,3.5-5.8,5.8c-1.1,1.6-1.8,3.5-1.9,5.5c0,0.6,0.2,1.3,0.7,1.7c0.3,0.4,0.8,0.5,1.3,0.5	c1.6,0,3.9-1.1,6.8-3.4C125.4,258.1,125,254.7,124.8,251.3z M131.3,257.5c2.7-3.1,5-6.5,6.8-10.2c-2.6,0.1-5.1,0.5-7.6,1.3	C130.6,251.6,130.9,254.6,131.3,257.5z" class="st28"/><circle cx="364.5" cy="136.3" r="45.8" class="st29"/><path d="M341.6,119.1h45.9c2.1,0,3.8,1.7,3.8,3.8v31.6c0,2.1-1.7,3.8-3.8,3.8h-45.9c-2.1,0-3.8-1.7-3.8-3.8v-31.6	C337.8,120.8,339.5,119.1,341.6,119.1z" class="st30"/><g><defs><path id="SVGID_3_" d="M342.1,113.4h45c2.3,0,4.2,1.9,4.2,4.2v41.2c0,2.3-1.9,4.2-4.2,4.2h-45c-2.3,0-4.2-1.9-4.2-4.2v-41.2 C337.8,115.3,339.7,113.4,342.1,113.4z"/></defs><clipPath id="SVGID_4_"><use overflow="visible" xlink:href="#SVGID_3_"/></clipPath><g class="st31"><rect width="58.2" height="11" x="336.4" y="112.9" class="st32"/></g></g><circle cx="349.8" cy="118.2" r="1.9" class="st30"/><path d="M349.7,110.5h0.2c0.5,0,0.9,0.4,0.9,0.9v6.9c0,0.5-0.4,0.9-0.9,0.9h-0.2c-0.5,0-0.9-0.4-0.9-0.9v-6.9	C348.8,110.9,349.2,110.5,349.7,110.5z" class="st33"/><circle cx="379.3" cy="118.2" r="1.9" class="st30"/><path d="M379.3,110.5h0.2c0.5,0,0.9,0.4,0.9,0.9v6.9c0,0.5-0.4,0.9-0.9,0.9h-0.2c-0.5,0-0.9-0.4-0.9-0.9v-6.9	C378.4,110.9,378.8,110.5,379.3,110.5z" class="st33"/><line x1="346.9" x2="382.2" y1="131.1" y2="131.1" class="st34"/><line x1="346.9" x2="382.2" y1="137.8" y2="137.8" class="st34"/><line x1="346.9" x2="382.2" y1="144.5" y2="144.5" class="st34"/><line x1="346.9" x2="382.2" y1="151.3" y2="151.3" class="st34"/><circle cx="379.8" cy="130.7" r="3.4" class="st35"/><circle cx="250" cy="135.4" r="45.8" class="st36"/><path d="M266.9,115.9c-9.2-10.4-7.8-8.4-10.9-14.5c-1.1-2.1-4,0.1-4,1.6c0,12.1-0.6,41.8-0.6,43.4	c0,1.2-0.4,2.4-1.1,3.4c-3.9-1.6-8.2-1.7-12.2-0.5c-7.9,2.3-13,8.7-11.4,14.3c1.6,5.6,9.4,8.2,17.3,5.8c7.2-2.1,12-7.5,11.7-12.7	c0,0,0-0.1,0-0.1v-37.7c0-1.2,2.5-4.5,5.2-1.5c2.7,3,7.5,4.7,7.9,17.7c0.1,3.4,3.1,2.3,3.6,0.8S276.1,126.2,266.9,115.9z" class="st37"/><circle cx="135.5" cy="135.4" r="45.8" class="st38"/><g><defs><circle id="SVGID_5_" cx="135.5" cy="135.4" r="45.8"/></defs><clipPath id="SVGID_6_"><use overflow="visible" xlink:href="#SVGID_5_"/></clipPath><g class="st39"><path d="M205.2,87.5l-60.8,60.8l-0.3,0.1c-0.4-2.5-1.2-6.1-2-7.6l59.1-58.6C202.6,83.9,204,85.6,205.2,87.5z" class="st40"/><path d="M201.2,82.1l-59,58.6c-0.1-0.2-0.2-0.3-0.4-0.5c-1.3-1.3-6.7-1.3-8-2.7c-1.1-1.1-1.3-5.2-2.2-7.2 c0,0,46.6-47.6,58.4-58.7C194.2,74.7,197.9,78.2,201.2,82.1z" class="st41"/><path d="M183.7,67.6c2.2,1.2,4.3,2.6,6.3,4.1c-11.8,11.1-58.4,58.7-58.4,58.7c-0.1-0.3-0.3-0.6-0.5-0.8 c-1-1-5-2-8-2.4v-0.2L183.7,67.6z" class="st42"/><path d="M144.1,148.3l-19.9,5c-0.2-0.6-0.4-1.2-0.8-1.8l18.6-10.8l0,0C143,142.2,143.7,145.8,144.1,148.3z" class="st43"/><path d="M142.2,140.7L142.2,140.7l-18.7,10.8c-0.4-0.8-1-1.4-1.7-2l9.8-19.2c0.8,2,1,6.1,2.2,7.2 c1.3,1.3,6.7,1.3,8,2.7C142,140.4,142.1,140.6,142.2,140.7z" class="st44"/><path d="M131.6,130.4l-9.8,19.2c-0.8-0.6-1.7-1-2.7-1.2l4-21.2c3.1,0.4,7,1.4,8,2.4 C131.3,129.8,131.5,130.1,131.6,130.4z" class="st45"/><path d="M124.3,153.3l-6.5,1.6l1.3-6.5c1.9,0.4,3.5,1.5,4.5,3.1C123.9,152.1,124.1,152.7,124.3,153.3z" class="st41"/></g></g></svg>