<svg xmlns="http://www.w3.org/2000/svg" xmlns:xlink="http://www.w3.org/1999/xlink" viewBox="0 0 500 500"><defs><style>.a,.aa,.ab,.aj,.j{fill:none;}.b{fill:#f9f9f9;}.c{fill:#d8d8d8;}.d{fill:#9e9e9e;}.e{fill:#eeb7b7;}.f{fill:#fff;}.g{fill:#b1dfe2;}.h{fill:#f2d455;}.i{fill:#da251c;}.j{stroke:#fff;stroke-width:0.75px;}.aa,.ab,.aj,.j{stroke-miterlimit:10;}.k{opacity:0.23;}.l{fill:#f2e5c4;}.m{fill:#8c73fd;}.n{fill:#ae98ff;}.o{fill:#ffb389;}.p{fill:#8dc63f;}.q{fill:#414042;}.r{fill:#ac2743;}.s{fill:#c13356;}.t{fill:#ea506d;}.u{opacity:0.31;}.v{clip-path:url(#a);}.w{fill:#b33548;}.x{fill:#ffc239;}.y{fill:#ddd;}.z{fill:#faffed;}.aa,.ab{stroke:#b7cc54;}.aa{stroke-width:6.69px;stroke-dasharray:8;}.ab{stroke-width:6.69px;}.ac{fill:#c0f2bd;}.ad{fill:#fd6c79;}.ae{fill:#e8c447;}.af{fill:#fdfbe6;}.ag{clip-path:url(#b);}.ah{fill:#cc5d41;}.ai{fill:#6f7b84;}.aj{stroke:#3a3112;stroke-linecap:round;stroke-width:1.2px;}.ak{fill:#77b793;}.al{fill:#fff18d;}.am{fill:#bf7c6a;}.an{fill:#3fb29d;}.ao{clip-path:url(#c);}.ap{fill:#ab362b;}.aq{fill:#be3c2f;}.ar{fill:#c8584c;}.as{fill:#e4b4a6;}.at{fill:#ffc9b9;}.au{fill:#ffdbd1;}</style><clipPath id="a"><circle class="a" cx="384.62" cy="251.39" r="29.26"/></clipPath><clipPath id="b"><rect class="a" x="353.46" y="89.1" width="62.95" height="58.46" rx="4.99"/></clipPath><clipPath id="c"><circle class="a" cx="115.07" cy="114.96" r="53.96"/></clipPath></defs><title>apps</title><rect class="b" x="-0.5" y="-2.5" width="505" height="508"/><circle class="c" cx="249.96" cy="385.04" r="53.96"/><polygon class="d" points="264.02 412.96 264.02 408.31 231.68 408.31 231.68 412.96 227.06 412.96 227.06 417.62 236.3 417.62 236.3 422.24 264.02 422.24 264.02 417.62 268.64 417.62 268.64 412.96 264.02 412.96"/><rect class="e" x="240.92" y="399.07" width="18.48" height="13.86"/><rect class="e" x="231.68" y="394.44" width="4.62" height="4.62"/><rect class="e" x="264.02" y="394.44" width="4.62" height="4.62"/><polygon class="e" points="273.26 366.72 268.64 366.72 268.64 362.1 264.02 362.1 264.02 357.48 236.3 357.48 236.3 362.1 231.68 362.1 231.68 366.72 227.06 366.72 227.06 385.13 231.68 385.13 231.68 389.82 236.3 389.82 236.3 394.44 264.02 394.44 264.02 389.82 268.64 389.82 268.64 385.2 273.26 385.2 273.26 366.72"/><rect x="231.68" y="357.48" width="4.62" height="4.62"/><rect x="227.06" y="362.1" width="4.62" height="4.62"/><polygon points="236.3 371.34 236.3 375.96 231.68 375.96 231.68 380.58 236.3 380.58 240.92 380.58 240.92 375.96 240.92 371.34 236.3 371.34"/><polygon points="264.02 371.34 264.02 375.96 259.4 375.96 259.4 380.58 264.02 380.58 268.64 380.58 268.64 375.96 268.64 371.34 264.02 371.34"/><polygon points="222.44 366.72 222.44 371.34 222.44 375.96 222.44 380.58 222.44 385.2 227.06 385.2 227.06 380.58 227.06 375.96 227.06 371.34 227.06 366.72 222.44 366.72"/><rect x="250.16" y="408.31" width="4.62" height="4.62"/><rect x="245.54" y="408.31" width="4.62" height="4.62"/><rect x="268.64" y="385.2" width="4.62" height="4.62"/><rect x="227.06" y="385.2" width="4.62" height="4.62"/><rect x="231.68" y="389.82" width="4.62" height="4.62"/><rect x="264.02" y="389.82" width="4.62" height="4.62"/><polygon points="259.4 352.86 254.78 352.86 250.16 352.86 245.54 352.86 240.92 352.86 236.3 352.86 236.3 357.48 240.92 357.48 245.54 357.48 250.16 357.48 254.78 357.48 259.4 357.48 264.02 357.48 264.02 352.86 259.4 352.86"/><rect class="f" x="231.68" y="371.34" width="4.62" height="4.62"/><rect class="f" x="259.4" y="371.34" width="4.62" height="4.62"/><polygon class="g" points="236.3 380.58 231.68 380.58 231.68 385.2 231.68 389.82 236.3 389.82 236.3 385.2 240.92 385.2 240.92 380.58 236.3 380.58"/><polygon class="g" points="264.02 380.58 259.4 380.58 259.4 385.2 264.02 385.2 264.02 389.82 268.64 389.82 268.64 385.2 268.64 380.58 264.02 380.58"/><polygon points="254.78 380.58 250.16 380.58 245.54 380.58 240.92 380.58 240.92 385.2 240.92 389.82 245.54 389.82 250.16 389.82 254.78 389.82 259.4 389.82 259.4 385.2 259.4 380.58 254.78 380.58"/><polygon points="268.64 394.51 268.64 399.14 264.02 399.14 264.02 394.51 259.4 394.51 254.78 394.51 250.16 394.51 245.54 394.51 240.92 394.51 236.3 394.51 236.3 399.14 231.68 399.14 231.68 394.51 227.06 394.51 227.06 399.14 227.06 403.76 231.68 403.76 236.3 403.76 236.3 408.38 236.3 413 236.3 417.62 240.92 417.62 245.54 417.62 245.54 413 240.92 413 240.92 408.38 240.92 403.76 240.92 399.14 245.54 399.14 250.16 399.14 254.78 399.14 259.4 399.14 259.4 403.76 259.4 408.31 259.4 408.38 259.4 412.93 259.4 413 254.78 413 254.78 417.62 259.4 417.62 259.4 417.62 264.02 417.62 264.02 412.93 264.02 408.38 264.02 408.31 264.02 403.76 268.64 403.76 273.26 403.76 273.26 399.14 273.26 394.51 268.64 394.51"/><rect x="264.02" y="357.48" width="4.62" height="4.62"/><rect x="268.64" y="362.1" width="4.62" height="4.62"/><polygon points="273.26 366.72 273.26 371.34 273.26 375.96 273.26 380.58 273.26 385.2 277.88 385.2 277.88 380.58 277.88 375.96 277.88 371.34 277.88 366.72 273.26 366.72"/><circle class="h" cx="384.86" cy="385.04" r="53.96"/><path class="f" d="M391.25,399.9V357a6.65,6.65,0,1,0-13.3,0V399.9a12.81,12.81,0,1,0,13.3,0Z"/><circle class="i" cx="384.6" cy="410.82" r="8.2"/><rect class="i" x="381.41" y="371.52" width="6.37" height="33.11"/><line class="j" x1="394.57" y1="368.6" x2="402.91" y2="368.6"/><line class="j" x1="394.57" y1="371.72" x2="399.87" y2="371.72"/><line class="j" x1="394.57" y1="374.83" x2="402.91" y2="374.83"/><line class="j" x1="394.57" y1="377.94" x2="399.87" y2="377.94"/><line class="j" x1="394.57" y1="381.06" x2="402.91" y2="381.06"/><line class="j" x1="394.57" y1="384.17" x2="399.87" y2="384.17"/><line class="j" x1="394.57" y1="387.28" x2="402.91" y2="387.28"/><line class="j" x1="394.57" y1="390.4" x2="399.87" y2="390.4"/><line class="j" x1="394.57" y1="393.51" x2="402.91" y2="393.51"/><line class="j" x1="394.57" y1="396.62" x2="399.87" y2="396.62"/><path class="k" d="M391.25,399.9V357a6.67,6.67,0,0,0-6.65-6.65v73.27a12.79,12.79,0,0,0,6.65-23.73Z"/><circle class="l" cx="115.07" cy="385.04" r="53.96"/><path class="m" d="M86.73,368.2h15.69l3.75-4.45,5.15,4.21c1.09.94.94,1.57-.47,1.88H87.67Zm2.34,16.86v-1.64h12l2.81-4,5.15,4h5.85a100.44,100.44,0,0,0,2.58-10.31h-6.56l-.94-1.63h8q.93-4.46,1.87-8.9h-9.37l-.47-1.64h22.48l3.52-4.69,5.38,4.45c.94.94.78,1.57-.47,1.88H126.31l-2.11,8.9h4.92L131,368.2l5.38,4.45q1.88,1.64-.46,2.57l-.71.24-.23,8h.47l2.81-4.92,4.92,4.68c.93.94.77,1.57-.47,1.88Zm0-22.48v-1.64h11.71l2.81-4,4.68,4c.94.78.78,1.33-.46,1.64Zm0,15.22v-1.64h11.71l2.58-3.75,4.45,3.75c.93.78.85,1.33-.24,1.64Zm5.62,28.33v2.81a1.52,1.52,0,0,1-.93,1.41,11.28,11.28,0,0,1-3.05.47c-1.09.15-1.64-.16-1.64-.94V389.27l6.33,3.05h5.85l2.34-3.75,5.15,4.68q1.41,1.41-.47,2.81l-.7.47v10.31a1.67,1.67,0,0,1-.93,1.63,13.71,13.71,0,0,1-3.52.71c-.78,0-1.17-.32-1.17-.94v-2.11Zm0-12.17v10.53H102V394Zm24.59,12.88V408a2.11,2.11,0,0,1-.7,1.87,22.55,22.55,0,0,1-4,.94c-.94,0-1.41-.4-1.41-1.17V389.51l6.79,2.81h12.41l1.88-3.52,5.62,4.69c.93.78.78,1.64-.47,2.57l-.7.47v11.24a2.12,2.12,0,0,1-.71,1.88,8.24,8.24,0,0,1-4.45.93,1.11,1.11,0,0,1-.93-1.17v-2.57Zm0-12.88V405.2h13.35V394Zm4.45-20.85q-1.17,5.16-2.81,10.31h8.2l.23-10.31Z"/><path class="n" d="M121.87,421.35h0V417h.51v5.09h-.64l-3-4.38h0v4.38h-.52V417h.65Z"/><path class="n" d="M124.62,419.22h.23c.65,0,1.18-.26,1.18-.94a1,1,0,0,0-1-.95,1,1,0,0,0-1,.6l-.44-.23a1.55,1.55,0,0,1,1.43-.81,1.37,1.37,0,0,1,1.49,1.37,1.18,1.18,0,0,1-.88,1.16v0a1.25,1.25,0,0,1,1,1.26,1.53,1.53,0,0,1-1.64,1.54,1.67,1.67,0,0,1-1.61-1l.49-.18a1.15,1.15,0,0,0,1.12.77,1.08,1.08,0,0,0,1.12-1.09c0-.77-.66-1-1.32-1h-.23Z"/><path class="n" d="M129.21,420.57H127.6v-.41h1.61Z"/><path class="n" d="M133.84,421.35h0V417h.52v5.09h-.65l-3-4.38h0v4.38h-.51V417h.64Z"/><path class="n" d="M138.68,422.11h-3.26v-.54l2.09-2.11a1.71,1.71,0,0,0,.61-1.16,1,1,0,0,0-1-1,1.07,1.07,0,0,0-1.05.9l-.51-.1a1.56,1.56,0,0,1,1.56-1.24,1.39,1.39,0,0,1,1.53,1.4,2.17,2.17,0,0,1-.82,1.54L136,421.65h2.7Z"/><circle class="o" cx="384.86" cy="249.86" r="53.96"/><circle class="p" cx="401.54" cy="225.1" r="2.59"/><path class="q" d="M401.54,228.31a3.21,3.21,0,1,1,3.2-3.21h0A3.22,3.22,0,0,1,401.54,228.31Zm0-5.18a2,2,0,1,0,2,2h0A2,2,0,0,0,401.54,223.13Z"/><circle class="r" cx="384.62" cy="251.39" r="30.77"/><path class="q" d="M384.62,283.74a32.36,32.36,0,1,1,22.87-9.48A32.36,32.36,0,0,1,384.62,283.74Zm0-61.55a29.2,29.2,0,1,0,29.19,29.2A29.23,29.23,0,0,0,384.62,222.19Z"/><path class="s" d="M413.56,251.61c0,15.43-8.68,26.52-24.29,28.71S356.93,267,356.93,251.61s12.69-29.46,28.32-29.46S413.56,236.2,413.56,251.61Z"/><path class="t" d="M412.77,252.22c0,15.19-8.67,26.14-24.29,28.29s-32.34-13.1-32.34-28.28,12.69-29.08,28.32-29.24C402.83,222.8,412.77,237,412.77,252.22Z"/><g class="u"><g class="v"><circle class="w" cx="364.11" cy="239.32" r="14.67"/><circle class="w" cx="378.78" cy="266.29" r="9.31"/><circle class="w" cx="412.3" cy="263.53" r="9.86"/></g></g><circle class="x" cx="388.2" cy="221.31" r="4.65"/><path class="q" d="M388.2,227.3a6,6,0,1,1,6-6A6,6,0,0,1,388.2,227.3Zm0-9.3a3.32,3.32,0,1,0,3.31,3.32h0A3.32,3.32,0,0,0,388.2,218h0Z"/><circle class="q" cx="385.25" cy="255.59" r="0.79"/><circle class="q" cx="400.23" cy="239.35" r="0.79"/><path class="q" d="M366.7,270.47c-1.89,0-3.43-1.84-3.43-4.1a.79.79,0,0,1,1.58,0h0c0,1.37.85,2.53,1.85,2.53a.79.79,0,1,1,0,1.57Z"/><circle class="q" cx="371.3" cy="216.95" r="0.79"/><circle class="q" cx="393.97" cy="216.16" r="0.79"/><circle class="q" cx="408.64" cy="224.18" r="0.79"/><circle class="q" cx="405.22" cy="214.38" r="1.21"/><path class="q" d="M365,284.94a7.49,7.49,0,0,1-5.81-2.19c-2.74-3.06-2.69-6.48.21-12.2a1.57,1.57,0,0,1,2.81,1.42c-2.82,5.57-2,7.22-.67,8.66,1.7,1.89,6.32,1.44,12.35-1.19,6.73-2.95,14.48-8.22,21.83-14.86s13.38-13.81,17-20.21c3.23-5.73,4.14-10.27,2.44-12.15-1-1.06-2.6-1.95-7.51-.47a1.58,1.58,0,1,1-.94-3h0c3.48-1,7.85-1.84,10.76,1.37,1.47,1.63,2,4,1.46,6.93a28.29,28.29,0,0,1-3.5,8.89c-3.77,6.68-10,14.14-17.62,21s-15.64,12.34-22.68,15.41a28.61,28.61,0,0,1-9.2,2.58Z"/><circle class="y" cx="388.2" cy="272.4" r="5.13"/><path class="q" d="M388.2,278.66a6.27,6.27,0,1,1,6.26-6.27h0A6.28,6.28,0,0,1,388.2,278.66Zm0-10.25a4,4,0,1,0,4,4h0A4,4,0,0,0,388.2,268.41Z"/><path class="q" d="M393.71,262.82a1.33,1.33,0,0,1-1.33-1.34,1.36,1.36,0,0,1,.36-.92l13.75-14.65a1.34,1.34,0,0,1,2,1.83L394.7,262.4A1.36,1.36,0,0,1,393.71,262.82Z"/><path class="q" d="M362.77,242.35a1.24,1.24,0,0,1-.27,0,1.34,1.34,0,0,1-1-1.59,18.49,18.49,0,0,1,5-9.54c2.56-2.47,5.56-3.5,8.43-2.9a1.34,1.34,0,0,1-.55,2.63c-2-.42-4.12.37-6,2.2a15.84,15.84,0,0,0-4.24,8.16A1.34,1.34,0,0,1,362.77,242.35Z"/><circle class="z" cx="249.96" cy="249.86" r="53.96"/><circle class="aa" cx="249.96" cy="249.86" r="31.94"/><path class="ab" d="M250,217.91a31.95,31.95,0,1,1-8.2,62.83"/><polyline class="ab" points="235.35 252.11 245.47 261.1 262.75 240.68"/><circle class="ac" cx="115.07" cy="249.86" r="53.96"/><path class="ad" d="M103.92,218.56a42.11,42.11,0,0,1,8.16,1.6q1.26.43,1.26,1.26a1.82,1.82,0,0,1-.34,1.12,5.4,5.4,0,0,0-1,2.51c-.07.37-.17,1-.3,1.87-.09.66-.19,1.19-.28,1.6a143.07,143.07,0,0,0,18.12-2.92,1.79,1.79,0,0,1,.48-.07c.36,0,.6.26.71.78a21.55,21.55,0,0,1,.68,4.73c0,.75-.49,1.21-1.46,1.39a176.26,176.26,0,0,1-19.75,2.92q-.43,4.29-.51,7a35.67,35.67,0,0,1,10.67-1.53,16.73,16.73,0,0,0,1.16-5.1,23.6,23.6,0,0,1,6.19,2.59c.84.54,1.25,1.05,1.25,1.52a1.26,1.26,0,0,1-.4.85,5.94,5.94,0,0,0-.89,1.36q7.27,1.95,10.95,6.74a16.21,16.21,0,0,1,3.3,10.26,16.77,16.77,0,0,1-6.22,13.12,32.41,32.41,0,0,1-13.13,6.49,4.27,4.27,0,0,1-1.15.21c-.77,0-1.41-.5-1.91-1.5s-1.87-2.43-4.11-4.31a44.82,44.82,0,0,0,7.82-2.45,27.69,27.69,0,0,0,5.1-2.65,12.37,12.37,0,0,0,5.57-10.44,9.44,9.44,0,0,0-2.89-7,12.31,12.31,0,0,0-5.71-3,76,76,0,0,1-13.15,18.22,32.25,32.25,0,0,0,1.22,3.16,1.6,1.6,0,0,1,.21.71q0,.48-.75,1a19.89,19.89,0,0,1-4.18,2.41,1.62,1.62,0,0,1-.68.24c-.23,0-.47-.19-.72-.58a13.88,13.88,0,0,1-1.15-2.71q-7.27,5-12.14,5a7.11,7.11,0,0,1-5.88-2.59,9.37,9.37,0,0,1-1.83-6.05q0-6.79,5.54-13.32a33.7,33.7,0,0,1,10.74-8.33q.1-3.73.34-8.7c-1.7.06-3.25.1-4.66.1l-2.48,0a34.33,34.33,0,0,1-4-.13c-.77-.07-1.19-.6-1.26-1.6-.09-.61-.15-1.5-.2-2.65-.07-1.36-.11-2.25-.14-2.65a63.84,63.84,0,0,0,7.35.37l6.15-.07a75,75,0,0,0,.58-7.61A15.46,15.46,0,0,0,103.92,218.56Zm-1.39,32.94a25.56,25.56,0,0,0-6.8,6.87,12.11,12.11,0,0,0-2.18,6.49,2.67,2.67,0,0,0,.79,2,2,2,0,0,0,1.53.61q2.91,0,8-4A100.22,100.22,0,0,1,102.53,251.5Zm7.68,7.31a57.25,57.25,0,0,0,8.06-12,30.45,30.45,0,0,0-8.91,1.59A74,74,0,0,0,110.21,258.81Z"/><circle class="ae" cx="384.93" cy="116.08" r="53.96"/><rect class="af" x="353.46" y="95.85" width="62.95" height="46.09" rx="4.43"/><g class="ag"><rect class="ah" x="351.77" y="88.54" width="68.57" height="12.93"/></g><circle class="af" cx="367.51" cy="94.72" r="2.25"/><rect class="ai" x="366.39" y="85.73" width="2.25" height="10.12" rx="1.02"/><circle class="af" cx="402.36" cy="94.72" r="2.25"/><rect class="ai" x="401.24" y="85.73" width="2.25" height="10.12" rx="1.02"/><line class="aj" x1="364.14" y1="109.9" x2="405.73" y2="109.9"/><line class="aj" x1="364.14" y1="117.84" x2="405.73" y2="117.84"/><line class="aj" x1="364.14" y1="125.78" x2="405.73" y2="125.78"/><line class="aj" x1="364.14" y1="133.72" x2="405.73" y2="133.72"/><circle class="ak" cx="402.92" cy="109.48" r="3.97"/><circle class="al" cx="249.96" cy="114.96" r="53.96"/><path class="am" d="M269.93,92c-10.79-12.25-9.18-9.9-12.8-17.07-1.28-2.53-4.72.15-4.72,1.86,0,14.26-.7,49.2-.7,51.07a6.33,6.33,0,0,1-1.34,4A21.15,21.15,0,0,0,236,131.3c-9.35,2.75-15.37,10.3-13.44,16.85s11.07,9.64,20.42,6.89c8.46-2.48,14.16-8.88,13.77-14.93,0-.05,0-.1,0-.15V95.54c0-1.45,3-5.32,6.14-1.8s8.85,5.57,9.26,20.88c.11,4,3.64,2.71,4.25,1S280.72,104.23,269.93,92Z"/><circle class="an" cx="115.07" cy="114.96" r="53.96"/><g class="ao"><path class="ap" d="M197.24,58.56l-71.58,71.57-.36.1c-.5-3-1.39-7.19-2.35-8.93l69.56-69A74.32,74.32,0,0,1,197.24,58.56Z"/><path class="aq" d="M192.51,52.27,123,121.3a2.64,2.64,0,0,0-.42-.58c-1.57-1.57-7.85-1.57-9.42-3.14-1.35-1.35-1.54-6.14-2.56-8.48,0,0,54.9-56.06,68.78-69.18A74.18,74.18,0,0,1,192.51,52.27Z"/><path class="ar" d="M171.92,35.14a72,72,0,0,1,7.41,4.78C165.45,53,110.55,109.1,110.55,109.1a2.91,2.91,0,0,0-.58-.94c-1.18-1.18-5.86-2.35-9.47-2.87l0-.27Z"/><path class="as" d="M125.3,130.23l-23.41,5.85A7.11,7.11,0,0,0,101,134l21.89-12.72h0C123.91,123,124.8,127.25,125.3,130.23Z"/><path class="at" d="M123,121.3h0L101,134A7.8,7.8,0,0,0,99,131.7l11.57-22.6c1,2.34,1.21,7.13,2.56,8.48,1.57,1.57,7.85,1.57,9.42,3.14A2.64,2.64,0,0,1,123,121.3Z"/><path class="au" d="M110.55,109.1,99,131.7a7.79,7.79,0,0,0-3.23-1.42l4.75-25c3.61.52,8.29,1.69,9.47,2.87A2.91,2.91,0,0,1,110.55,109.1Z"/><path class="aq" d="M101.89,136.08,94.27,138l1.48-7.7A7.73,7.73,0,0,1,101,134,7.11,7.11,0,0,1,101.89,136.08Z"/></g></svg>