<svg id="Layer_1" data-name="Layer 1" xmlns="http://www.w3.org/2000/svg" viewBox="0 0 354 150"><defs><style>.cls-1{fill:#b09b62;}.cls-2{fill:#796b3c;}.cls-3{fill:#b3b3b3;}.cls-4{fill:#666;}.cls-5{fill:#c5b582;}.cls-6{fill:#fff;}.cls-7{fill:#097889;}.cls-8{fill:#17b0b8;}.cls-9{fill:#99dade;}</style></defs><title>timeline</title><g id="BG"><rect class="cls-1" width="354" height="142.51"/></g><g id="Layer_1-2" data-name="Layer 1"><rect class="cls-2" x="0.4" y="108.07" width="353.6" height="34.44"/></g><polyline class="cls-3" points="99.76 117.97 107.28 125.49 99.76 133.01"/><polyline class="cls-4" points="99.76 133.01 92.24 125.49 99.76 117.97"/><polyline class="cls-3" points="181.7 117.97 189.22 125.49 181.7 133.01"/><polyline class="cls-4" points="181.7 133.01 174.18 125.49 181.7 117.97"/><g id="Layer_1-3" data-name="Layer 1"><rect class="cls-5" y="66.11" width="338.26" height="35.23"/><rect class="cls-6" x="92.24" y="66.11" width="261.76" height="35.23"/><polyline class="cls-7" points="96.59 83.13 96.59 71.25 108.47 71.25"/></g><g id="Layer_1-4" data-name="Layer 1"><rect class="cls-8" x="0.4" width="353.6" height="63.34"/></g><g id="Layer_1-5" data-name="Layer 1"><rect class="cls-7" x="0.4" y="15.04" width="353.6" height="34.04"/></g><g id="TIME"><path class="cls-8" d="M21.38,49.09v-9.5a2.18,2.18,0,0,1,2.17-2.18h0a2.19,2.19,0,0,1,2.18,2.18v9.5"/><path class="cls-8" d="M74.13,49.09v-9.5a2.18,2.18,0,0,1,2.17-2.18h0a2.19,2.19,0,0,1,2.18,2.18v9.5"/><path class="cls-8" d="M179.62,49.09v-9.5a2.19,2.19,0,0,1,2.18-2.18h0A2.19,2.19,0,0,1,184,39.59v9.5"/><path class="cls-8" d="M126.87,49.09v-9.5a2.19,2.19,0,0,1,2.18-2.18h0a2.19,2.19,0,0,1,2.18,2.18v9.5"/><path class="cls-8" d="M232.37,49.09v-9.5a2.19,2.19,0,0,1,2.18-2.18h0a2.19,2.19,0,0,1,2.18,2.18v9.5"/><path class="cls-8" d="M20.08,23.53v7.24H18.53V25.28a1.89,1.89,0,0,1-.31.22,2.12,2.12,0,0,1-.37.18,2.83,2.83,0,0,1-.41.14,2.07,2.07,0,0,1-.42.08V24.59a6.42,6.42,0,0,0,1.15-.46,6.62,6.62,0,0,0,1-.6Z"/><path class="cls-8" d="M24.66,30.89c-1.68,0-2.53-1.18-2.53-3.55a4.82,4.82,0,0,1,.69-2.81,2.27,2.27,0,0,1,2-1q2.47,0,2.47,3.61a4.73,4.73,0,0,1-.67,2.75A2.23,2.23,0,0,1,24.66,30.89Zm.07-6.13c-.67,0-1,.84-1,2.54s.33,2.4,1,2.4,1-.83,1-2.47S25.36,24.76,24.73,24.76Z"/><path class="cls-8" d="M31.57,24.47a1.8,1.8,0,0,0-.58-.11q-.75,0-.75.81v.54H31.4v1.15H30.24v3.91H28.68V26.86h-.85V25.71h.85v-.63a1.81,1.81,0,0,1,.57-1.39,2.14,2.14,0,0,1,1.53-.53,2.57,2.57,0,0,1,.79.1Z"/><path class="cls-8" d="M70.74,29.47h3v1.3H69v-.54a2.33,2.33,0,0,1,.19-1,3,3,0,0,1,.46-.78,3.41,3.41,0,0,1,.6-.6q.33-.27.63-.48c.2-.15.38-.29.54-.43a2.52,2.52,0,0,0,.4-.4,2.12,2.12,0,0,0,.24-.4,1.32,1.32,0,0,0,.08-.44.9.9,0,0,0-.26-.69,1.16,1.16,0,0,0-.79-.23,2.62,2.62,0,0,0-1.75.73V24.16a3.75,3.75,0,0,1,2.09-.59,2.85,2.85,0,0,1,1,.14,1.91,1.91,0,0,1,.73.4,1.66,1.66,0,0,1,.45.63,2.24,2.24,0,0,1,.16.84,2.21,2.21,0,0,1-.16.87,2.93,2.93,0,0,1-.39.69,4.48,4.48,0,0,1-.58.57c-.22.17-.44.34-.68.5l-.45.33a3.37,3.37,0,0,0-.39.33,2.38,2.38,0,0,0-.27.31A.59.59,0,0,0,70.74,29.47Z"/><path class="cls-8" d="M77.31,30.89c-1.68,0-2.53-1.18-2.53-3.55a4.82,4.82,0,0,1,.69-2.81,2.27,2.27,0,0,1,2-1q2.47,0,2.47,3.61a4.73,4.73,0,0,1-.67,2.75A2.23,2.23,0,0,1,77.31,30.89Zm.07-6.13c-.67,0-1,.84-1,2.54s.33,2.4,1,2.4,1-.83,1-2.47S78,24.76,77.38,24.76Z"/><path class="cls-8" d="M84.22,24.47a1.75,1.75,0,0,0-.58-.11q-.75,0-.75.81v.54h1.16v1.15H82.89v3.91H81.33V26.86h-.85V25.71h.85v-.63a1.81,1.81,0,0,1,.57-1.39,2.14,2.14,0,0,1,1.53-.53,2.57,2.57,0,0,1,.79.1Z"/><path class="cls-8" d="M178,23.53v7.24h-1.55V25.28a1.89,1.89,0,0,1-.31.22,2.12,2.12,0,0,1-.37.18,2.83,2.83,0,0,1-.41.14,2.07,2.07,0,0,1-.42.08V24.59a6.42,6.42,0,0,0,1.15-.46,6.62,6.62,0,0,0,1-.6Z"/><path class="cls-8" d="M182.61,30.89q-2.54,0-2.53-3.55a4.82,4.82,0,0,1,.69-2.81,2.27,2.27,0,0,1,2-1q2.48,0,2.47,3.61a4.66,4.66,0,0,1-.68,2.75A2.2,2.2,0,0,1,182.61,30.89Zm.07-6.13c-.68,0-1,.84-1,2.54s.33,2.4,1,2.4,1-.83,1-2.47S183.31,24.76,182.68,24.76Z"/><path class="cls-8" d="M189.52,24.47a1.8,1.8,0,0,0-.58-.11q-.75,0-.75.81v.54h1.15v1.15h-1.15v3.91h-1.56V26.86h-.85V25.71h.85v-.63a1.81,1.81,0,0,1,.57-1.39,2.14,2.14,0,0,1,1.53-.53,2.57,2.57,0,0,1,.79.1Z"/><path class="cls-8" d="M228.69,29.47h3v1.3H227v-.54a2.33,2.33,0,0,1,.19-1,3,3,0,0,1,.46-.78,3.41,3.41,0,0,1,.6-.6q.33-.27.63-.48a6.8,6.8,0,0,0,.54-.43,2.52,2.52,0,0,0,.4-.4,2.12,2.12,0,0,0,.24-.4,1.32,1.32,0,0,0,.08-.44.9.9,0,0,0-.26-.69,1.16,1.16,0,0,0-.79-.23,2.58,2.58,0,0,0-1.74.73V24.16a3.72,3.72,0,0,1,2.08-.59,3,3,0,0,1,1,.14,2,2,0,0,1,.72.4,1.66,1.66,0,0,1,.45.63,2.06,2.06,0,0,1,.16.84,2.41,2.41,0,0,1-.15.87,3,3,0,0,1-.4.69,4.48,4.48,0,0,1-.58.57c-.22.17-.44.34-.68.5l-.45.33a3.37,3.37,0,0,0-.39.33,2.38,2.38,0,0,0-.27.31A.59.59,0,0,0,228.69,29.47Z"/><path class="cls-8" d="M235.26,30.89c-1.68,0-2.53-1.18-2.53-3.55a4.82,4.82,0,0,1,.69-2.81,2.29,2.29,0,0,1,2-1q2.47,0,2.47,3.61a4.73,4.73,0,0,1-.67,2.75A2.23,2.23,0,0,1,235.26,30.89Zm.07-6.13c-.67,0-1,.84-1,2.54s.33,2.4,1,2.4,1-.83,1-2.47S236,24.76,235.33,24.76Z"/><path class="cls-8" d="M242.17,24.47a1.75,1.75,0,0,0-.58-.11q-.75,0-.75.81v.54H242v1.15h-1.16v3.91h-1.55V26.86h-.85V25.71h.85v-.63a1.8,1.8,0,0,1,.56-1.39,2.14,2.14,0,0,1,1.53-.53,2.53,2.53,0,0,1,.79.1Z"/><path class="cls-8" d="M117,30.89c-1.68,0-2.53-1.18-2.53-3.55a4.82,4.82,0,0,1,.69-2.81,2.27,2.27,0,0,1,2-1q2.47,0,2.47,3.61a4.73,4.73,0,0,1-.67,2.75A2.23,2.23,0,0,1,117,30.89Zm.07-6.13c-.67,0-1,.84-1,2.54s.33,2.4,1,2.4,1-.83,1-2.47S117.65,24.76,117,24.76Z"/><path class="cls-8" d="M124,23.53v7.24h-1.55V25.28a1.89,1.89,0,0,1-.31.22,2.12,2.12,0,0,1-.37.18,2.83,2.83,0,0,1-.41.14,2.07,2.07,0,0,1-.42.08V24.59a6.42,6.42,0,0,0,1.15-.46,6.62,6.62,0,0,0,1-.6Z"/><path class="cls-8" d="M127.07,27.28a.91.91,0,0,1-.64-.24.76.76,0,0,1-.25-.58.71.71,0,0,1,.26-.58,1,1,0,0,1,.66-.23.94.94,0,0,1,.65.23.79.79,0,0,1,0,1.17A1,1,0,0,1,127.07,27.28Zm0,3.61a.91.91,0,0,1-.64-.24.74.74,0,0,1-.25-.58.71.71,0,0,1,.26-.58,1,1,0,0,1,.66-.23.94.94,0,0,1,.65.23.79.79,0,0,1,0,1.17A1,1,0,0,1,127.07,30.89Z"/><path class="cls-8" d="M131.33,30.89c-1.68,0-2.53-1.18-2.53-3.55a4.82,4.82,0,0,1,.69-2.81,2.27,2.27,0,0,1,2-1q2.47,0,2.47,3.61a4.73,4.73,0,0,1-.67,2.75A2.23,2.23,0,0,1,131.33,30.89Zm.07-6.13c-.67,0-1,.84-1,2.54s.33,2.4,1,2.4,1-.83,1-2.47S132,24.76,131.4,24.76Z"/><path class="cls-8" d="M137.15,30.89c-1.68,0-2.53-1.18-2.53-3.55a4.82,4.82,0,0,1,.69-2.81,2.27,2.27,0,0,1,2-1q2.47,0,2.47,3.61a4.73,4.73,0,0,1-.67,2.75A2.23,2.23,0,0,1,137.15,30.89Zm.07-6.13c-.67,0-1,.84-1,2.54s.33,2.4,1,2.4,1-.83,1-2.47S137.85,24.76,137.22,24.76Z"/><path class="cls-8" d="M144.06,24.47a1.75,1.75,0,0,0-.58-.11q-.75,0-.75.81v.54h1.16v1.15h-1.16v3.91h-1.56V26.86h-.85V25.71h.85v-.63a1.81,1.81,0,0,1,.57-1.39,2.14,2.14,0,0,1,1.53-.53,2.57,2.57,0,0,1,.79.1Z"/><path class="cls-8" d="M285.12,49.09v-9.5a2.19,2.19,0,0,1,2.18-2.18h0a2.19,2.19,0,0,1,2.18,2.18v9.5"/><path class="cls-8" d="M337.87,49.09v-9.5a2.19,2.19,0,0,1,2.18-2.18h0a2.18,2.18,0,0,1,2.17,2.18v9.5"/><path class="cls-8" d="M275.1,30.89q-2.53,0-2.53-3.55a4.9,4.9,0,0,1,.68-2.81,2.3,2.3,0,0,1,2-1c1.64,0,2.47,1.2,2.47,3.61a4.73,4.73,0,0,1-.68,2.75A2.21,2.21,0,0,1,275.1,30.89Zm.07-6.13c-.68,0-1,.84-1,2.54s.33,2.4,1,2.4,1-.83,1-2.47S275.8,24.76,275.17,24.76Z"/><path class="cls-8" d="M280.17,29.47h3v1.3h-4.71v-.54a2.5,2.5,0,0,1,.18-1,3.34,3.34,0,0,1,.46-.78,3.83,3.83,0,0,1,.61-.6c.21-.18.42-.34.62-.48s.39-.29.55-.43a2.44,2.44,0,0,0,.39-.4,1.42,1.42,0,0,0,.24-.4,1.32,1.32,0,0,0,.08-.44.9.9,0,0,0-.26-.69,1.15,1.15,0,0,0-.78-.23,2.62,2.62,0,0,0-1.75.73V24.16a3.74,3.74,0,0,1,2.08-.59,2.91,2.91,0,0,1,1,.14,1.87,1.87,0,0,1,.72.4,1.8,1.8,0,0,1,.46.63,2.24,2.24,0,0,1,.15.84,2.41,2.41,0,0,1-.15.87,2.65,2.65,0,0,1-.4.69,4.48,4.48,0,0,1-.58.57c-.21.17-.44.34-.67.5l-.46.33a4.49,4.49,0,0,0-.39.33,1.71,1.71,0,0,0-.26.31A.51.51,0,0,0,280.17,29.47Z"/><path class="cls-8" d="M285.22,27.28a.89.89,0,0,1-.64-.24.77.77,0,0,1-.26-.58.72.72,0,0,1,.27-.58,1,1,0,0,1,1.31,0,.79.79,0,0,1,0,1.17A1,1,0,0,1,285.22,27.28Zm0,3.61a.89.89,0,0,1-.64-.24.75.75,0,0,1-.26-.58.72.72,0,0,1,.27-.58,1,1,0,0,1,1.31,0,.79.79,0,0,1,0,1.17A1,1,0,0,1,285.22,30.89Z"/><path class="cls-8" d="M289.48,30.89q-2.53,0-2.53-3.55a4.9,4.9,0,0,1,.68-2.81,2.3,2.3,0,0,1,2-1c1.64,0,2.47,1.2,2.47,3.61a4.73,4.73,0,0,1-.68,2.75A2.21,2.21,0,0,1,289.48,30.89Zm.07-6.13c-.68,0-1,.84-1,2.54s.33,2.4,1,2.4,1-.83,1-2.47S290.18,24.76,289.55,24.76Z"/><path class="cls-8" d="M295.3,30.89q-2.54,0-2.53-3.55a4.9,4.9,0,0,1,.68-2.81,2.3,2.3,0,0,1,2-1c1.64,0,2.47,1.2,2.47,3.61a4.73,4.73,0,0,1-.68,2.75A2.21,2.21,0,0,1,295.3,30.89Zm.07-6.13c-.68,0-1,.84-1,2.54s.33,2.4,1,2.4,1-.83,1-2.47S296,24.76,295.37,24.76Z"/><path class="cls-8" d="M302.21,24.47a1.85,1.85,0,0,0-.58-.11q-.75,0-.75.81v.54H302v1.15h-1.15v3.91h-1.56V26.86h-.85V25.71h.85v-.63a1.84,1.84,0,0,1,.56-1.39,2.18,2.18,0,0,1,1.54-.53,2.62,2.62,0,0,1,.79.1Z"/><path class="cls-8" d="M336.18,23.53v7.24h-1.55V25.28a1.89,1.89,0,0,1-.31.22,2.53,2.53,0,0,1-.37.18,2.83,2.83,0,0,1-.41.14,2.07,2.07,0,0,1-.42.08V24.59a6,6,0,0,0,1.14-.46,6.24,6.24,0,0,0,1-.6Z"/><path class="cls-8" d="M340.76,30.89q-2.53,0-2.53-3.55a4.82,4.82,0,0,1,.69-2.81,2.27,2.27,0,0,1,2-1q2.48,0,2.47,3.61a4.73,4.73,0,0,1-.68,2.75A2.2,2.2,0,0,1,340.76,30.89Zm.07-6.13c-.68,0-1,.84-1,2.54s.33,2.4,1,2.4,1-.83,1-2.47S341.46,24.76,340.83,24.76Z"/><path class="cls-8" d="M347.67,24.47a1.8,1.8,0,0,0-.58-.11q-.75,0-.75.81v.54h1.15v1.15h-1.15v3.91h-1.56V26.86h-.85V25.71h.85v-.63a1.84,1.84,0,0,1,.56-1.39,2.18,2.18,0,0,1,1.54-.53,2.57,2.57,0,0,1,.79.1Z"/></g><g id="TIME_Line" data-name="TIME Line"><rect id="TIME_LINE-2" data-name="TIME LINE" class="cls-9" x="178.93" width="5.54" height="143.33"/><path class="cls-6" d="M169.83,40.64V28.24a.52.52,0,0,1,.52-.53h23.1a.52.52,0,0,1,.52.53v12.4L181.9,50.27Z"/></g></svg>