<svg xmlns="http://www.w3.org/2000/svg" viewBox="0 0 997.78 184.36"><defs><style>.cls-1{fill:#fff;}</style></defs><title>logo-text</title><g id="Layer_2" data-name="Layer 2"><g id="L_Text" data-name="L Text"><g id="MARS_INC" data-name="MARS INC"><path class="cls-1" d="M150.37,182.39H129.49V84.81l-1-.28c-.64,1.13-1.37,2.22-1.93,3.39q-21.54,45.45-42.95,91c-1.4,3-3.12,3.5-6.12,3.89-6.74.85-10-1.74-12.82-8-13.82-30.16-28.26-60-43.41-89.91V182.3H0V30.51c5.81,0,11.66-.23,17.47.19,1.24.09,2.68,2.39,3.42,4q25.07,53,50,106.15c1.34,2.85,2.72,5.67,4.44,9.25,4.44-9.43,8.57-18.2,12.69-27,13.69-29.19,27.48-58.34,41-87.63,1.85-4,4-5.43,8.25-5.06s8.56.08,13.14.08Z"/><path class="cls-1" d="M664.85,30.49c6.18,0,12.08-.23,17.94.15,1.44.1,3.1,1.94,4.07,3.37q27.84,41.39,55.53,82.86c5.93,8.85,11.91,17.66,18.73,26.24V30.84h21.2V182.58c-6.18,0-12.23.27-18.23-.18-1.54-.12-3.24-2.27-4.31-3.86q-26-38.59-51.76-77.28c-7-10.46-14-20.89-22-31.12V182.29H664.85Z"/><path class="cls-1" d="M370.7,120.52c7.18,10.74,14,21,20.84,31.18,6.72,10,13.46,20,20.76,30.88-9.31,0-17.57.17-25.8-.16-1.38-.06-3-2.07-3.94-3.53Q365,152,347.69,125c-1.48-2.33-3-3.26-5.75-3.13-4.45.2-8.92.05-13.91.05v60.34H306.78V30.47h7.05c15.67.05,31.35-.32,47,.27,16.76.63,31.37,6.41,40.61,21.43a44.89,44.89,0,0,1-26.56,67.07C373.65,119.58,372.44,120,370.7,120.52Zm-42.56-16.83c13-.65,25.83-.39,38.34-2.17,13.19-1.88,19.4-11,19.47-24.94.06-14.73-6-24-19.46-26-12.51-1.82-25.34-1.5-38.35-2.13Z"/><path class="cls-1" d="M948.72,75.4c-8,0-15.49.12-22.94-.13-1.18,0-2.68-1.51-3.39-2.7-11.1-18.64-28.32-24.82-48.87-23.87C842.2,50.16,818,76.22,822.61,114.78c3.13,26.43,18.44,43.65,42.44,48.73,22.45,4.75,46.78-3.22,57.56-23.4a4.67,4.67,0,0,1,3.14-2.32c7.46-.2,14.92-.11,22.55-.11-10.22,31.49-40.61,47.54-73.23,46.47-45-1.47-71.31-35.39-74.4-67.76-4.75-49.72,27.54-78.9,58.73-85.58C898.92,22.34,936,40.65,948.72,75.4Z"/><path class="cls-1" d="M431.55,142H453.1c.44,11.6,6.16,19.41,17.31,21.77,13.77,2.91,27.28,2.55,37.42-9.43,6.68-7.9,8.22-24.81-5.81-31-8.36-3.7-17.55-5.51-26.41-8.06-6.58-1.89-13.49-2.93-19.78-5.5-18.33-7.48-25.95-21.26-24.61-43.06,1-15.56,13.26-30.35,29.81-35.05,16.2-4.6,32.26-4.23,47.54,3.58C521.44,41.84,530.38,56.4,530.16,70h-22.8c-.78-8.89-5.33-15.57-13.63-19a36.47,36.47,0,0,0-29.8.5c-9.52,4.29-12.89,12.26-12.39,22.28.45,9,5.64,14.65,13.64,17.23,10.46,3.38,21.22,5.81,31.83,8.69,3.07.84,6.1,1.86,9.15,2.79C538.8,112.37,538.7,150,522,168.36c-12.6,13.86-28.64,17.09-46.26,15.71-11.16-.87-21.66-3.89-30.79-10.75C435,165.8,429.89,154.3,431.55,142Z"/><path class="cls-1" d="M618.77,30.68h20.67V182.3H618.77Z"/><circle class="cls-1" cx="983.9" cy="170.32" r="13.88"/><path class="cls-1" d="M195.67,53a3.69,3.69,0,0,1-3.69-3.7V3.7a3.7,3.7,0,1,1,7.39,0V49.27A3.7,3.7,0,0,1,195.67,53Z"/><path class="cls-1" d="M215.38,53a3.69,3.69,0,0,1-3.69-3.7V19.71a3.7,3.7,0,1,1,7.39,0V49.27A3.7,3.7,0,0,1,215.38,53Z"/><path class="cls-1" d="M205.53,45.69a3.7,3.7,0,0,1-3.7-3.69V24.14a3.7,3.7,0,1,1,7.39,0V42A3.69,3.69,0,0,1,205.53,45.69Z"/><polygon class="cls-1" points="286.98 182.59 286.98 30.08 270.82 30.08 155.53 182.61 178.89 182.61 267.12 65.06 267.12 182.44 286.98 182.59"/><rect class="cls-1" x="199.68" y="130.15" width="72.3" height="18.52"/><polygon class="cls-1" points="176.66 30.4 239.87 30.4 176.66 113.88 176.66 30.4"/></g></g></g></svg>