<svg class="logo-main" viewBox="0 0 745.28 884.57">
  <defs>
    <style>.cls-1, .cls-13, .cls-14, .cls-16, .cls-22, .cls-3 {
      fill: none;
      }

      .cls-2 {
      fill: #333;
      }

      .cls-3 {
      stroke: #333;
      stroke-width: 4.88px;
      }

      .cls-13, .cls-14, .cls-16, .cls-22, .cls-3 {
      stroke-linecap: round;
      }

      .cls-11, .cls-15, .cls-3, .cls-4, .cls-5 {
      stroke-miterlimit: 10;
      }

      .cls-4 {
      fill: #8dc63f;
      stroke-width: 10px;
      }

      .cls-11, .cls-13, .cls-14, .cls-15, .cls-16, .cls-4, .cls-5 {
      stroke: #414042;
      }

      .cls-5 {
      fill: #ac2743;
      }

      .cls-14, .cls-5 {
      stroke-width: 25.44px;
      }

      .cls-6 {
      fill: #c13356;
      }

      .cls-7 {
      fill: #ea506d;
      }

      .cls-8 {
      opacity: 0.31;
      }

      .cls-9 {
      clip-path: url(#clip-path);
      }

      .cls-10 {
      fill: #b33548;
      }

      .cls-11 {
      fill: #ffc239;
      }

      .cls-11, .cls-16 {
      stroke-width: 21.62px;
      }

      .cls-12 {
      fill: #414042;
      }

      .cls-13, .cls-14, .cls-16, .cls-22 {
      stroke-linejoin: round;
      }

      .cls-13 {
      stroke-width: 12.72px;
      }

      .cls-15 {
      fill: #ddd;
      stroke-width: 18.35px;
      }

      .cls-17 {
      fill: #42628c;
      }

      .cls-18 {
      fill: #d92818;
      }

      .cls-19 {
      fill: #f2d680;
      }

      .cls-20 {
      fill: #f29a2e;
      }

      .cls-21 {
      fill: #faffed;
      }

      .cls-22 {
      stroke: #434244;
      stroke-width: 12px;
      }
    </style>
    <clipPath id="clip-path">
      <circle class="cls-1" cx="405.12" cy="433.06" r="235.94"/>
    </clipPath>
  </defs>
  <g id="text">
    <path class="cls-2"
          d="M185.85,883.27H172.07V818.86l-.65-.19c-.43.75-.91,1.46-1.28,2.24-9.48,20-19,40-28.35,60-.93,2-2.06,2.31-4,2.56-4.45.57-6.58-1.15-8.46-5.25-9.12-19.91-18.66-39.63-28.66-59.35v64.31h-14V783c3.84,0,7.7-.16,11.53.12.82.06,1.77,1.58,2.26,2.61q16.55,35,33,70.08c.88,1.88,1.79,3.74,2.93,6.1,2.93-6.23,5.66-12,8.38-17.81,9-19.27,18.14-38.51,27-57.85,1.22-2.66,2.65-3.59,5.45-3.34s5.65.05,8.67.05Z"/>
    <path class="cls-2"
          d="M525.49,783c4.07,0,8-.15,11.84.11,1,.06,2,1.28,2.68,2.22q18.38,27.31,36.66,54.7c3.91,5.84,7.86,11.65,12.37,17.32V783.22h14V883.4c-4.08,0-8.07.18-12-.12-1-.08-2.14-1.5-2.85-2.55Q571,855.25,554,829.71c-4.62-6.9-9.26-13.79-14.49-20.54v74h-14Z"/>
    <path class="cls-2"
          d="M331.31,842.43c4.74,7.09,9.24,13.84,13.76,20.58s8.88,13.22,13.7,20.39c-6.14,0-11.59.11-17-.11-.91,0-2-1.37-2.6-2.33q-11.6-17.75-23-35.59a3.79,3.79,0,0,0-3.79-2.07c-2.94.13-5.89,0-9.19,0v39.84h-14V783h4.66c10.34,0,20.7-.21,31,.18,11.06.42,20.71,4.23,26.81,14.15a29.63,29.63,0,0,1-17.53,44.28C333.26,841.8,332.46,842.07,331.31,842.43Zm-28.1-11.11c8.59-.43,17-.25,25.31-1.43,8.7-1.24,12.81-7.23,12.85-16.47,0-9.72-4-15.86-12.84-17.15-8.26-1.2-16.73-1-25.32-1.41Z"/>
    <path class="cls-2"
          d="M712.89,812.64c-5.3,0-10.23.08-15.15-.08-.78,0-1.77-1-2.24-1.78-7.33-12.3-18.7-16.39-32.26-15.76-20.68,1-36.62,18.17-33.61,43.62,2.07,17.45,12.17,28.81,28,32.17,14.82,3.14,30.88-2.13,38-15.45a3.06,3.06,0,0,1,2.07-1.53c4.92-.13,9.85-.07,14.89-.07-6.74,20.78-26.8,31.38-48.34,30.68-29.69-1-47.07-23.36-49.11-44.74-3.13-32.82,18.18-52.08,38.77-56.5C680,777.61,704.51,789.7,712.89,812.64Z"/>
    <path class="cls-2"
          d="M371.48,856.64H385.7c.3,7.66,4.07,12.81,11.43,14.37,9.09,1.92,18,1.69,24.7-6.22,4.41-5.22,5.43-16.38-3.84-20.48-5.51-2.44-11.59-3.64-17.43-5.32-4.35-1.25-8.9-1.93-13.06-3.63-12.1-4.94-17.13-14-16.24-28.43.63-10.27,8.75-20,19.68-23.14,10.69-3,21.29-2.79,31.38,2.37,8.5,4.34,14.4,14,14.25,22.92h-15c-.52-5.87-3.52-10.28-9-12.54a24.07,24.07,0,0,0-19.68.33c-6.28,2.83-8.51,8.09-8.18,14.71.3,5.94,3.72,9.67,9,11.37,6.9,2.23,14,3.83,21,5.74,2,.55,4,1.23,6,1.84,21.57,6.47,21.5,31.36,10.49,43.47-8.32,9.15-18.91,11.28-30.53,10.37-7.37-.58-14.3-2.57-20.33-7.1A21.79,21.79,0,0,1,371.48,856.64Z"/>
    <path class="cls-2" d="M495.07,783.12h13.65V883.21H495.07Z"/>
    <circle class="cls-2" cx="736.11" cy="875.3" r="9.16"/>
    <line class="cls-3" x1="215.76" y1="765.3" x2="215.76" y2="795.39"/>
    <line class="cls-3" x1="228.77" y1="775.88" x2="228.77" y2="795.39"/>
    <line class="cls-3" x1="222.27" y1="778.8" x2="222.27" y2="790.59"/>
    <polygon class="cls-2"
             points="276.04 883.41 276.04 782.72 265.37 782.72 189.26 883.41 204.68 883.41 262.93 805.81 262.93 883.31 276.04 883.41"/>
    <rect class="cls-2" x="218.4" y="848.78" width="47.73" height="12.23"/>
    <polygon class="cls-2" points="203.21 782.93 244.94 782.93 203.21 838.04 203.21 782.93"/>
  </g>
  <g id="logo">
    <circle id="_Path_" data-name=" Path " class="cls-4" cx="541.54" cy="221.11" r="20.86"/>
    <circle id="_Path_2" data-name=" Path 2" class="cls-5" cx="405.12" cy="433.06" r="248.15"/>
    <path id="_Path_3" data-name=" Path 3" class="cls-6"
          d="M638.51,434.84c0,124.39-70,213.81-195.87,231.49C317.74,683.75,181.9,559.23,181.9,434.84s102.26-237.6,228.31-237.6S638.51,310.57,638.51,434.84Z"/>
    <path id="_Path_4" data-name=" Path 4" class="cls-7"
          d="M632.15,439.8c0,122.49-70,210.76-195.87,228.05C311.38,685,175.54,562.28,175.54,439.8S277.8,205.38,403.85,204.11C552,202.59,632.15,317.18,632.15,439.8Z"/>
    <g class="cls-8">
      <g class="cls-9">
        <circle class="cls-10" cx="239.77" cy="335.75" r="118.29"/>
        <circle class="cls-10" cx="358.06" cy="553.25" r="75.04"/>
        <circle class="cls-10" cx="628.34" cy="530.99" r="79.49"/>
      </g>
    </g>
    <circle id="_Path_5" data-name=" Path 5" class="cls-11" cx="433.99" cy="190.5" r="37.52"/>
    <circle id="_Path_6" data-name=" Path 6" class="cls-12" cx="410.21" cy="466.98" r="6.36"/>
    <circle id="_Path_7" data-name=" Path 7" class="cls-12" cx="531.04" cy="336.01" r="6.36"/>
    <path id="_Path_8" data-name=" Path 8" class="cls-13" d="M239.39,553.89c0,14.75,9.54,26.71,21.24,26.71"/>
    <circle id="_Path_9" data-name=" Path 9" class="cls-12" cx="297.77" cy="155.4" r="6.36"/>
    <circle id="_Path_10" data-name=" Path 10" class="cls-12" cx="480.54" cy="149.04" r="6.36"/>
    <circle id="_Path_11" data-name=" Path 11" class="cls-12" cx="598.83" cy="213.65" r="6.36"/>
    <circle id="_Path_12" data-name=" Path 12" class="cls-12" cx="571.23" cy="134.66" r="9.79"/>
    <path id="_Path_13" data-name=" Path 13" class="cls-14"
          d="M587.38,262.62C624.14,251.55,646.53,254,661,270c37.55,41.46-33,166.36-157.56,278.93s-256,169.93-293.56,128.46c-16.92-18.82-18.7-40.07,3.56-84.07"/>
    <circle id="_Path_14" data-name=" Path 14" class="cls-15" cx="433.99" cy="602.47" r="41.34"/>
    <line id="_Path_15" data-name=" Path 15" class="cls-16" x1="478.51" y1="514.46" x2="589.42" y2="396.3"/>
    <path id="_Path_16" data-name=" Path 16" class="cls-16" d="M229,349.36c12.3-59.27,55-100.36,95.48-92"/>
  </g>
  <g id="rocket" class="in float">
    <path class="cls-17"
          d="M144.29,225.84c-.95,1.91-19.25-6.5-33.59-14.14-5.48-2.91-10.39-5.72-13.51-7.78s-7.63-5.49-12.46-9.4c-12.64-10.2-27.55-23.75-26.16-25.37,1.93-2.25,10.45-9.81,24.52-18.72,15.66,20.47,25.1,26.28,30,29.5s13.9,9.63,38.87,16C149.23,212.39,145.61,223.19,144.29,225.84Z"/>
    <path class="cls-18"
          d="M186.1,69.49c5.14,29.12-3.83,80.58-34.18,126.47-25-6.4-34-12.81-38.87-16s-14.3-9-30-29.5C113.44,104.54,157.28,76.16,186.1,69.49Zm-37.63,82.15a13.94,13.94,0,1,0-19.31,3.94A13.94,13.94,0,0,0,148.47,151.64Z"/>
    <path class="cls-19"
          d="M110.25,212.55c.63,11.95-2.74,18-4,19.89-4.45-1.28-18.51-8.06-21.37-10S70.3,210.3,67.38,206.71c1.23-1.85,5.5-7.34,16.74-11.44l.61-.75c4.83,3.91,9.33,7.33,12.46,9.4s8,4.87,13.51,7.78Z"/>
    <path class="cls-20"
          d="M84.91,222.48l11.62,7.69C82.84,243.47,68.34,251.49,64,254c.65-4.95,2.36-21.43,9.24-39.24Z"/>
    <path class="cls-21" d="M144.54,132.33a13.94,13.94,0,1,1-19.32,3.93A13.94,13.94,0,0,1,144.54,132.33Z"/>
    <path class="cls-22" d="M96.53,230.17C82.84,243.47,68.34,251.49,64,254c.65-4.95,2.36-21.43,9.24-39.24"/>
    <path class="cls-22"
          d="M83.09,150.43c15.66,20.47,25.1,26.28,30,29.5s13.9,9.63,38.87,16c30.35-45.89,39.32-97.35,34.18-126.47C157.28,76.16,113.44,104.54,83.09,150.43Z"/>
    <path class="cls-22" d="M148.47,151.64a13.94,13.94,0,1,1-3.93-19.31A13.93,13.93,0,0,1,148.47,151.64Z"/>
    <path class="cls-22"
          d="M151.92,196c-2.69,16.43-6.31,27.23-7.63,29.88-.95,1.91-19.25-6.5-33.59-14.14-5.48-2.91-10.39-5.72-13.51-7.78s-7.63-5.49-12.46-9.4c-12.64-10.2-27.55-23.75-26.16-25.37,1.93-2.25,10.45-9.81,24.52-18.72"/>
    <path class="cls-22"
          d="M110.25,212.55c.63,11.95-2.74,18-4,19.89-4.45-1.28-18.51-8.06-21.37-10S70.3,210.3,67.38,206.71c1.23-1.85,5.5-7.34,16.74-11.44"/>
  </g>
</svg>