<svg xmlns="http://www.w3.org/2000/svg" xmlns:xlink="http://www.w3.org/1999/xlink" viewBox="0 0 586.35 578.72"><defs><style>.cls-1,.cls-11,.cls-12,.cls-14{fill:none;}.cls-2{fill:#8dc63f;stroke-width:10px;}.cls-11,.cls-12,.cls-13,.cls-14,.cls-2,.cls-3,.cls-9{stroke:#414042;}.cls-13,.cls-2,.cls-3,.cls-9{stroke-miterlimit:10;}.cls-3{fill:#ac2743;}.cls-12,.cls-3{stroke-width:25.44px;}.cls-4{fill:#c13356;}.cls-5{fill:#ea506d;}.cls-6{opacity:0.31;}.cls-7{clip-path:url(#clip-path);}.cls-8{fill:#b33548;}.cls-9{fill:#ffc239;}.cls-14,.cls-9{stroke-width:21.62px;}.cls-10{fill:#414042;}.cls-11,.cls-12,.cls-14{stroke-linecap:round;stroke-linejoin:round;}.cls-11{stroke-width:12.72px;}.cls-13{fill:#ddd;stroke-width:18.35px;}</style><clipPath id="clip-path"><circle id="_Clipping_Path_" data-name="&lt;Clipping Path&gt;" class="cls-1" cx="283.64" cy="308.18" r="235.94"/></clipPath></defs><title>logo</title><g id="Layer_2" data-name="Layer 2"><g id="L_logo" data-name="L logo"><circle id="_Path_" data-name="&lt;Path&gt;" class="cls-2" cx="420.06" cy="96.24" r="20.86"/><circle id="_Path_2" data-name="&lt;Path&gt;" class="cls-3" cx="283.64" cy="308.18" r="248.15"/><path id="_Path_3" data-name="&lt;Path&gt;" class="cls-4" d="M517,310c0,124.39-70,213.81-195.87,231.49C196.26,558.88,60.42,434.36,60.42,310S162.68,72.37,288.72,72.37,517,185.7,517,310Z"/><path id="_Path_4" data-name="&lt;Path&gt;" class="cls-5" d="M510.67,314.93c0,122.49-70,210.76-195.87,228.05C189.9,560.15,54.06,437.41,54.06,314.93S156.32,80.51,282.36,79.24C430.54,77.71,510.67,192.31,510.67,314.93Z"/><g class="cls-6"><g class="cls-7"><circle class="cls-8" cx="118.29" cy="210.88" r="118.29"/><circle class="cls-8" cx="236.58" cy="428.38" r="75.04"/><circle class="cls-8" cx="506.86" cy="406.12" r="79.49"/></g></g><circle id="_Path_5" data-name="&lt;Path&gt;" class="cls-9" cx="312.51" cy="65.63" r="37.52"/><circle id="_Path_6" data-name="&lt;Path&gt;" class="cls-10" cx="288.72" cy="342.11" r="6.36"/><circle id="_Path_7" data-name="&lt;Path&gt;" class="cls-10" cx="409.56" cy="211.14" r="6.36"/><path id="_Path_8" data-name="&lt;Path&gt;" class="cls-11" d="M117.91,429c0,14.75,9.54,26.71,21.24,26.71"/><circle id="_Path_9" data-name="&lt;Path&gt;" class="cls-10" cx="176.29" cy="30.53" r="6.36"/><circle id="_Path_10" data-name="&lt;Path&gt;" class="cls-10" cx="359.06" cy="24.17" r="6.36"/><circle id="_Path_11" data-name="&lt;Path&gt;" class="cls-10" cx="477.35" cy="88.78" r="6.36"/><circle id="_Path_12" data-name="&lt;Path&gt;" class="cls-10" cx="449.75" cy="9.79" r="9.79"/><path id="_Path_13" data-name="&lt;Path&gt;" class="cls-12" d="M465.9,137.75c36.76-11.07,59.14-8.65,73.64,7.38C577.07,186.59,506.48,311.49,382,424.06S125.92,594,88.4,552.52C71.48,533.69,69.7,512.45,92,468.45"/><circle id="_Path_14" data-name="&lt;Path&gt;" class="cls-13" cx="312.51" cy="477.6" r="41.34"/><line id="_Path_15" data-name="&lt;Path&gt;" class="cls-14" x1="357.03" y1="389.59" x2="467.94" y2="271.43"/><path id="_Path_16" data-name="&lt;Path&gt;" class="cls-14" d="M107.48,224.49c12.34-59.27,55.07-100.35,95.52-92"/></g></g></svg>