<svg xmlns="http://www.w3.org/2000/svg" viewBox="0 0 1700.79 1700.79"><defs><style>.cls-1{fill:#412312}.cls-2{fill:#dfecb9}.cls-3{fill:#fac2b5}.cls-4{fill:#c6daf1}.cls-5{fill:#f6eb8c}.cls-6{fill:#d487ac}.cls-7{fill:#89c765}.cls-8{fill:#f37063}.cls-9{fill:#7ebbe6}.cls-10{fill:#8dc640}.cls-11{fill:#f3725e}</style></defs><title>light</title><g id="BULB"><rect width="289.48" height="44.4" x="706.56" y="260.31" class="cls-1" rx="22.2" ry="22.2"/><rect width="289.48" height="44.4" x="706.56" y="356.8" class="cls-1" rx="22.2" ry="22.2"/><rect width="289.48" height="44.4" x="706.56" y="308.56" class="cls-1" rx="22.2" ry="22.2"/><path d="M949.76,237.12a10.59,10.59,0,0,0-.4-1.28c-.08-.21-.16-.42-.25-.63a13.88,13.88,0,0,0-1.65-2.87l-.41-.51a13.7,13.7,0,0,0-1.86-1.87,14.26,14.26,0,0,0-2.19-1.48c-.39-.21-.79-.4-1.2-.58a13.7,13.7,0,0,0-5.32-1.08H920.37c-14.62-6.86-43.77-21.15-57.49-25.22h0V-459.82H839.73V201.6h0c-13.72,4.07-42.88,18.36-57.5,25.22h-16.1a13.71,13.71,0,0,0-5.33,1.08c-.41.18-.81.37-1.2.58a14.26,14.26,0,0,0-2.19,1.48,13.7,13.7,0,0,0-1.86,1.87l-.41.51a14.34,14.34,0,0,0-1.65,2.87c-.09.21-.17.42-.25.63a12.73,12.73,0,0,0-.4,1.28,13.81,13.81,0,0,0-.43,3.42h0a13.76,13.76,0,0,0,13.72,13.72H936.48a13.76,13.76,0,0,0,13.72-13.72h0A13.36,13.36,0,0,0,949.76,237.12Z" class="cls-1"/><rect width="289.48" height="44.4" x="1144.64" y="1178.47" class="cls-1" rx="22.2" ry="22.2" transform="translate(3045.51 1058.85) rotate(132.42)"/><rect width="289.48" height="44.4" x="1073.41" y="1113.37" class="cls-1" rx="22.2" ry="22.2" transform="translate(2878.18 1002.42) rotate(132.42)"/><rect width="289.48" height="44.4" x="1109.02" y="1145.92" class="cls-1" rx="22.2" ry="22.2" transform="translate(2961.84 1030.63) rotate(132.42)"/><path d="M1256.47,1304a12.36,12.36,0,0,0,1.22.57,6.62,6.62,0,0,0,.62.24,13.44,13.44,0,0,0,3.23.71c.22,0,.44,0,.66,0a12.85,12.85,0,0,0,2.63-.12,13.35,13.35,0,0,0,2.57-.61c.42-.15.83-.31,1.24-.5a13.44,13.44,0,0,0,4.39-3.2l10.86-11.88c14.93-6.17,45.15-18,57.41-25.43h0L1738,1626.34l.19-.21,15.23-16.67.19-.21-396.71-362.54h0c6.25-12.88,15.37-44,20.17-59.46l10.86-11.89a13.56,13.56,0,0,0,2.79-4.66c.15-.42.28-.85.39-1.28a14.29,14.29,0,0,0,.38-2.61,14.44,14.44,0,0,0-.12-2.63c0-.22-.07-.44-.11-.65a13.82,13.82,0,0,0-1-3.16c-.09-.2-.19-.4-.29-.6-.21-.4-.43-.78-.68-1.16a13.83,13.83,0,0,0-2.23-2.63h0a13.76,13.76,0,0,0-19.38.87L1252.78,1282.6a13.76,13.76,0,0,0,.87,19.38h0A13.49,13.49,0,0,0,1256.47,1304Z" class="cls-1"/><rect width="289.48" height="44.4" x="244.43" y="1156" class="cls-1" rx="22.2" ry="22.2" transform="translate(-291.56 2215.61) rotate(-128.45)"/><rect width="289.48" height="44.4" x="320" y="1096" class="cls-1" rx="22.2" ry="22.2" transform="translate(-122 2177.48) rotate(-128.45)"/><rect width="289.48" height="44.4" x="282.22" y="1126" class="cls-1" rx="22.2" ry="22.2" transform="translate(-206.78 2196.54) rotate(-128.45)"/><path id="C" d="M460.27,873.18c-34.13,98.61-59.33,112.34-62.07,114.51L487.68,1100l28.88-23.07.07.09.06.08-29,22.9,89.09,112.61c2.74-2.18,21.83-23.61,125.6-34.5A269.73,269.73,0,0,0,897,1120.68c117.09-93,136.64-263.24,43.68-380.32S677.39,603.72,560.31,696.68A269.8,269.8,0,0,0,460.27,873.18Z" class="cls-2"/><path id="B" d="M977,1178.86c102.77,18.05,120.32,40.76,122.9,43.12l96.68-106.16L1169.18,1091l.07-.08.07-.07,27.21,25,97-105.83c-2.58-2.36-26.77-17.8-54-118.53a269.8,269.8,0,0,0-87.56-183C1041.68,607.59,870.46,615.3,769.6,725.66s-93.15,281.58,17.21,382.43A269.8,269.8,0,0,0,977,1178.86Z" class="cls-3"/><path id="A" d="M1046,527.86C990,439.81,994.89,411.54,994.89,408l-143.59.25.11,37h-.21l.1-37L707.71,408c0,3.5,4.92,31.77-51.08,119.82A269.81,269.81,0,0,0,580.6,716c0,149.5,121.2,270.7,270.7,270.7S1122,865.45,1122,716A269.77,269.77,0,0,0,1046,527.86Z" class="cls-4"/><path d="M292.4,1129.31c-.27.36-.52.74-.75,1.12-.12.19-.23.38-.34.58a13.94,13.94,0,0,0-1.22,3.07l-.15.65a14.3,14.3,0,0,0-.3,2.61,13.75,13.75,0,0,0,.2,2.64c.08.43.17.87.29,1.3a13.49,13.49,0,0,0,2.47,4.84l10,12.61c3.72,15.72,10.66,47.44,16,60.71h0l-420.89,334.17.18.23,14,17.68.17.22L333,1237.58h0c11.71,8.21,41,22.16,55.5,29.34l10,12.62a13.8,13.8,0,0,0,4.16,3.49,11,11,0,0,0,1.2.58,14.19,14.19,0,0,0,2.52.8,14.41,14.41,0,0,0,2.62.3h.66a13.48,13.48,0,0,0,3.27-.49l.64-.19a11.32,11.32,0,0,0,1.26-.49,13.4,13.4,0,0,0,2.95-1.78h0a13.77,13.77,0,0,0,2.21-19.28L314.09,1129.06a13.77,13.77,0,0,0-19.28-2.21h0A13.67,13.67,0,0,0,292.4,1129.31Z" class="cls-1"/><path id="_3" d="M940.63,740.36a269.56,269.56,0,0,0-92-74.39,269.85,269.85,0,0,0-79,59.69C668.75,836,676.45,1007.24,786.81,1108.09A270.28,270.28,0,0,0,849.43,1151,271.05,271.05,0,0,0,897,1120.68C1014,1027.72,1033.59,857.44,940.63,740.36Z" class="cls-5" data-name="3"/><path id="_2" d="M1122,716a272.58,272.58,0,0,0-2-32.64c-109.36-73.42-258.89-57.83-350.44,42.35a270.07,270.07,0,0,0-68.89,215.25A269.4,269.4,0,0,0,851.3,986.65C1000.8,986.65,1122,865.45,1122,716Z" class="cls-6" data-name="2"/><path id="_1" d="M582.92,680.52A272.52,272.52,0,0,0,580.6,716c0,149.5,121.2,270.7,270.7,270.7A269.41,269.41,0,0,0,997,944.14a269.9,269.9,0,0,0-56.35-203.78C853.5,630.61,698.43,606.55,582.92,680.52Z" class="cls-7" data-name="1"/><path id="C-2" d="M997.76,937.59s0-.09,0-.13q.35-3.21.61-6.42c0-.1,0-.19,0-.28q.26-3.15.44-6.29l0-.42c.11-2,.21-4.1.28-6.16,0-.18,0-.36,0-.54.06-2,.11-4,.13-6v-.66c0-2,0-3.95,0-5.93,0-.26,0-.52,0-.78,0-1.93-.08-3.86-.16-5.79l0-.91q-.12-2.84-.3-5.67l-.06-1c-.13-1.85-.27-3.69-.43-5.54,0-.38-.06-.76-.1-1.14-.16-1.8-.35-3.61-.55-5.41,0-.42-.09-.84-.14-1.25-.2-1.77-.43-3.53-.67-5.29l-.18-1.36q-.37-2.58-.78-5.16l-.24-1.47c-.28-1.68-.58-3.36-.89-5l-.3-1.57c-.31-1.64-.65-3.27-1-4.91l-.36-1.67c-.35-1.59-.71-3.19-1.09-4.78l-.42-1.76c-.38-1.56-.78-3.11-1.19-4.66-.16-.62-.32-1.24-.49-1.85-.41-1.52-.84-3-1.28-4.55-.19-.64-.37-1.29-.56-1.93-.44-1.48-.9-3-1.37-4.43-.21-.67-.42-1.34-.64-2-.47-1.44-1-2.87-1.45-4.3l-.72-2.09c-.5-1.41-1-2.8-1.53-4.2-.27-.72-.53-1.44-.81-2.16-.52-1.36-1.06-2.72-1.61-4.08-.29-.74-.59-1.48-.89-2.22-.55-1.33-1.12-2.65-1.69-4-.32-.76-.64-1.52-1-2.27-.58-1.3-1.17-2.59-1.77-3.88-.35-.77-.7-1.55-1.07-2.32-.59-1.27-1.22-2.53-1.84-3.79-.38-.78-.76-1.57-1.15-2.35-.62-1.24-1.27-2.47-1.92-3.7-.41-.8-.82-1.6-1.24-2.39-.65-1.21-1.33-2.41-2-3.62-.44-.8-.87-1.6-1.33-2.4-.68-1.19-1.38-2.37-2.08-3.55-.47-.8-.93-1.61-1.41-2.41-.71-1.17-1.45-2.34-2.18-3.51-.49-.79-1-1.59-1.48-2.37-.75-1.18-1.53-2.35-2.3-3.52-.51-.77-1-1.54-1.52-2.3-.81-1.2-1.65-2.39-2.48-3.58-.5-.72-1-1.45-1.51-2.17-.92-1.29-1.86-2.56-2.81-3.83-.45-.61-.89-1.23-1.35-1.84q-2.12-2.82-4.32-5.59c-1.5-1.89-3-3.74-4.55-5.58l-1.47-1.72c-1.07-1.25-2.15-2.51-3.24-3.74l-1.71-1.91q-1.57-1.75-3.17-3.46c-.57-.62-1.15-1.23-1.73-1.84-1.13-1.2-2.28-2.38-3.43-3.55L919.82,717q-2.18-2.17-4.38-4.28l-.64-.62q-2.68-2.55-5.41-5h0c-1.77-1.59-3.55-3.14-5.34-4.67l-1-.81c-1.51-1.28-3-2.53-4.56-3.77l-1.12-.9q-2.32-1.85-4.68-3.65l-.91-.69c-1.83-1.38-3.66-2.74-5.52-4.07l-.09-.07q-9-6.42-18.38-12l0,0c-2-1.23-4.11-2.42-6.19-3.59l-.19-.11q-6.32-3.56-12.78-6.74a269.19,269.19,0,0,0-56.22,37.5l0,0c-1.47,1.27-2.93,2.57-4.38,3.88l-.34.31c-1.35,1.22-2.68,2.47-4,3.72-.22.2-.43.39-.64.6q-1.83,1.74-3.63,3.53l-.93.9c-1.16,1.16-2.31,2.35-3.46,3.53-.33.34-.67.68-1,1q-2.21,2.29-4.37,4.67c-1.66,1.81-3.28,3.64-4.88,5.49-.53.61-1,1.23-1.56,1.84-1.06,1.25-2.12,2.49-3.15,3.76-.61.73-1.19,1.47-1.78,2.21-.93,1.15-1.86,2.31-2.77,3.48l-1.81,2.37c-.86,1.14-1.72,2.27-2.56,3.42l-1.78,2.46c-.81,1.14-1.62,2.28-2.42,3.43q-.87,1.25-1.71,2.49-1.18,1.75-2.34,3.51l-1.61,2.47c-.77,1.22-1.53,2.44-2.29,3.66-.49.8-1,1.59-1.47,2.39-.78,1.3-1.55,2.61-2.31,3.91-.42.74-.86,1.47-1.28,2.21-.84,1.49-1.66,3-2.48,4.49-.31.56-.62,1.12-.92,1.69q-3.37,6.3-6.37,12.72c-.19.41-.37.82-.55,1.22q-1.2,2.58-2.34,5.19l-.8,1.89c-.65,1.53-1.3,3-1.92,4.58-.29.71-.56,1.43-.84,2.14-.58,1.47-1.16,2.94-1.71,4.41-.28.74-.55,1.48-.82,2.23-.53,1.46-1.06,2.93-1.56,4.4-.26.74-.51,1.48-.76,2.22-.5,1.5-1,3-1.47,4.51-.22.7-.45,1.41-.67,2.12-.48,1.58-.94,3.15-1.4,4.73-.18.65-.37,1.29-.55,1.93q-.72,2.58-1.38,5.16c-.13.51-.27,1-.4,1.53q-.77,3.06-1.47,6.13c0,.19-.09.39-.13.58Q703,859,701.5,869.54c0,.25-.07.51-.11.77-.28,2-.55,4.07-.79,6.1-.05.43-.09.86-.14,1.29-.21,1.88-.41,3.75-.58,5.63,0,.5-.09,1-.13,1.5-.16,1.82-.3,3.64-.42,5.47l-.09,1.55c-.11,1.83-.21,3.66-.28,5.49l-.06,1.46c-.06,1.9-.1,3.8-.13,5.7,0,.41,0,.82,0,1.23,0,2,0,4.11,0,6.16v.74a273,273,0,0,0,1.94,28.28h0a1.37,1.37,0,0,0,.2.13c2.19,1.48,4.42,2.91,6.66,4.32.65.41,1.3.82,2,1.22l2.84,1.73,2,1.2q2.37,1.4,4.77,2.74l2.36,1.32c.93.51,1.88,1,2.82,1.51.75.4,1.5.8,2.26,1.19.93.49,1.87,1,2.82,1.45l2.39,1.18c1,.5,2,1,3,1.49q2.13,1,4.28,2l2.67,1.19,2.67,1.17,2.7,1.14,2.9,1.19c.82.33,1.64.67,2.47,1,1.63.64,3.28,1.26,4.93,1.87.81.31,1.64.6,2.46.89,1,.38,2.09.75,3.14,1.11l2.51.85,3.54,1.15,2.05.66q2.64.81,5.29,1.57l2.23.62c1.21.34,2.41.66,3.63,1l2.29.6c1.41.36,2.83.7,4.26,1l1.54.37c1.87.43,3.75.83,5.63,1.22l2,.41c1.35.27,2.7.53,4.06.78l2.09.37c1.66.29,3.32.57,5,.83l1,.16c2,.3,4,.57,5.93.83l1.88.23,4.41.51,1.93.2c1.89.18,3.78.36,5.68.5l.47,0c2.05.16,4.1.28,6.16.39l1.83.09c1.54.07,3.09.13,4.64.18l1.85.05q3.13.07,6.28.08t6.25-.08l1.75-.05c1.64,0,3.28-.11,4.91-.19l1.45-.06q3.06-.16,6.1-.39l1.36-.11c1.63-.13,3.26-.27,4.88-.43l1.77-.18q2.81-.3,5.61-.64l.48-.06c2-.25,4-.54,6-.83l1.74-.27c1.53-.24,3.06-.5,4.58-.76l1.57-.28q2.91-.52,5.81-1.11l1.32-.28c1.55-.32,3.08-.65,4.62-1l1.82-.42c1.64-.39,3.27-.78,4.9-1.2l.94-.23q2.82-.74,5.61-1.52l1.77-.51c1.39-.4,2.77-.81,4.15-1.23l1.72-.53q2.73-.85,5.44-1.77l1.35-.46c1.42-.49,2.83-1,4.24-1.5l1.9-.69c1.41-.52,2.82-1.06,4.22-1.61l1.3-.5q2.61-1,5.19-2.12l1.81-.77,3.71-1.63,1.82-.81c1.68-.77,3.36-1.55,5-2.35.46-.21.9-.44,1.36-.66l3.87-1.92,1.9-1c1.23-.64,2.45-1.28,3.67-1.94l1.5-.8q2.4-1.31,4.77-2.66l1.76-1c1.12-.65,2.23-1.3,3.33-2,.61-.36,1.22-.72,1.82-1.09q2.32-1.42,4.62-2.89h0Q997.42,940.87,997.76,937.59Z" class="cls-8" data-name="C"/></g><g id="Layer_7" data-name="Layer 7"><rect width="77" height="77" x="709" y="1394.8" class="cls-9" transform="matrix(1, 0.01, -0.01, 1, 9.01, -4.67)"/><rect width="77" height="77" x="811.5" y="1377.8" class="cls-10"/><rect width="77" height="77" x="914" y="1405.8" class="cls-11"/></g></svg>