<svg xmlns="http://www.w3.org/2000/svg" xmlns:xlink="http://www.w3.org/1999/xlink" viewBox="0 0 512 512"><defs><style>.cls-1{fill:#ff7bac}.cls-2{stroke:#676b9e;stroke-linejoin:round;stroke-width:.51px;fill:url(#linear-gradient)}.cls-3{fill:#23635e}.cls-4{fill:#ffdfd5}.cls-5{fill:#0e0509}.cls-6{fill:#4dbcb1}.cls-7{fill:#2b5550}.cls-8{fill:#2d5451}.cls-9{fill:#f2d5c8}.cls-10{opacity:.09;fill:url(#linear-gradient-2)}.cls-11{fill:#2a1316}.cls-12{fill:#f73448}.cls-13{fill:#1a070b}.cls-14{fill:#ef3249}.cls-15{fill:#ffefe3}.cls-16{fill:#3f1e24}.cls-17{fill:#4aa592}.cls-18{fill:#633839}.cls-19{fill:#ff7969}.cls-20{fill:#84756f}.cls-21{fill:#564849}.cls-22{fill:#4e9e8c}.cls-23{fill:#574c4d}.cls-24{fill:#f2bd7b}.cls-25{fill:#489e8d}.cls-26{fill:#52af9c}</style><linearGradient id="linear-gradient" x1="230.73" x2="-.98" y1="181.23" y2="-75.71" gradientUnits="userSpaceOnUse"><stop offset="0" stop-color="#e9ed00"/><stop offset=".37" stop-color="#f0dd00"/><stop offset="1" stop-color="#ffb800"/></linearGradient><linearGradient id="linear-gradient-2" x1="226.27" x2="226.27" y1="297.1" y2="352.76" gradientUnits="userSpaceOnUse"><stop offset=".18" stop-color="#fff"/><stop offset=".93"/></linearGradient></defs><title>miku_front</title><g id="Layer_5" data-name="Layer 5"><rect width="513" height="513" x="-.5" y=".5" class="cls-1"/><circle cx="198.79" cy="145.82" r="247.78" class="cls-2"/></g><g id="Layer_2" data-name="Layer 2"><path id="HAIR_L" d="M136.17,80.08c-1.87-3.87-9.53-4.62-11.11-.62C75.75,204.38,55.21,688.41,51,748.44c-4.49,64.17,135.9,59.3,161.08,27.15C218.87,634.88,199.73,211.53,136.17,80.08Z" class="cls-3" data-name="HAIR L"/><path id="HAIR_R" d="M320.55,73.6c-3-3-10.51-1.25-10.7,3-5.91,134.17,132.43,598.47,148,656.59C474.54,795.36,605.67,745,619,706.4,579.56,571.16,423.49,177.16,320.55,73.6Z" class="cls-3" data-name="HAIR R"/><g id="ARM_L" data-name="ARM L"><path d="M225.65,336.81h-50.6c-16.05,0-25.92,9.87-30.86,16s-15.43,48.75-22.83,61.71S66.43,533.67,66.43,533.67L130,546s16.66-91.33,24.07-120.34c2.73-10.71,20.36-43.2,20.36-43.2l53.08-29.62Z" class="cls-4"/><path d="M120.12,416.42c-10.49,16-53.69,117.25-53.69,117.25L130,546s16.66-89.48,24.07-118.49C154.07,427.52,128.76,417,120.12,416.42Z" class="cls-5"/><path d="M154.07,427.52s-25.31-11.1-33.33-11.1" class="cls-6"/></g><g id="ARM_R" data-name="ARM R"><path d="M225.65,336.19h50.61c16.05,0,25.92,10.49,30.86,16C312.34,358.1,322.55,401,330,414s54.93,119.1,54.93,119.1L321.31,545.4s-16.66-91.34-24.07-120.34c-2.73-10.72-20.36-43.2-20.36-43.2L223.8,352.23Z" class="cls-4"/><path d="M331.19,415.8c9.25,16,53.69,117.25,53.69,117.25L321.31,545.4s-16.66-88.87-24.07-117.88C297.24,427.52,322.55,416.42,331.19,415.8Z" class="cls-5"/><path d="M297.24,427.52s24.07-12.34,33.33-11.72" class="cls-6"/></g><g id="HEAD"><path id="BT_HAIR" d="M313.62,115.07c-14.81-21.35-40.06-38.7-83-38.7-39.16,0-63.49,14-78.58,31.82" class="cls-7" data-name="BT HAIR"/><path id="B_HAIR" d="M326.25,232.51c-.62,13.58-13.58,52.46-13.58,52.46s-3.08-8.64-4.32-12.35c-9.87,13.58-24.07,25.92-34.56,35.8,1.24-6.79,1.85-14.2,3.7-27.77-3.7,13.57-18.51,30.85-27.77,40.73s-39.49,3.7-39.49,3.7S180,299.16,179.37,289.29c-1.85,4.32-1.85,11.72-1.23,17.89-4.94-3.08-25.31-21.6-31.48-43.2-3.7,3.09-5.55,11.11-6.79,19.75-3.08-4.94-13.57-41.35-11.11-41.35S273.17,233.13,326.25,232.51Z" class="cls-8" data-name="B HAIR"/><g id="NECK"><path d="M227.51,347.91l24.68-13.57s-1.85-4.94-1.85-15.43,2.56-15,2.56-15l-26.63.21-26.62-.21s2.55,4.53,2.55,15-1.85,15.43-1.85,15.43S215.78,342.36,227.51,347.91Z" class="cls-9"/><path d="M226.27,348.53l25.92-14.19s-1.85-4.94-1.85-15.43,2.56-15,2.56-15l-26.63.21-26.62-.21s2.55,4.53,2.55,15-1.85,15.43-1.85,15.43A181.81,181.81,0,0,1,226.27,348.53Z" class="cls-10"/></g><g id="HEADPHONE_R" data-name="HEADPHONE R"><rect width="25.3" height="62.33" x="318.23" y="176.97" class="cls-11" rx="3.5" ry="3.5" transform="translate(-7.82 12.98) rotate(-2.22)"/><rect width="2.62" height="56.16" x="338.43" y="179.71" class="cls-12" rx="1.31" ry="1.31" transform="translate(-7.8 13.32) rotate(-2.22)"/></g><g id="HAIR_DECO_R" data-name="HAIR DECO R"><rect width="24.07" height="121.69" x="299.73" y="56.6" class="cls-13" rx="4.96" ry="4.96" transform="translate(-20.88 135.82) rotate(-23.8)"/><rect width="10.49" height="121.69" x="306.52" y="56.6" class="cls-14" transform="translate(-20.88 135.82) rotate(-23.8)"/></g><g id="HAIR_DECO_L" data-name="HAIR DECO L"><rect width="24.07" height="120.27" x="129.64" y="56.06" class="cls-13" rx="4.89" ry="4.89" transform="translate(214.64 284.26) rotate(-152.83)"/><rect width="10.49" height="120.27" x="136.43" y="56.06" class="cls-14" transform="translate(214.64 284.26) rotate(-152.83)"/></g><path id="FACE" d="M123.21,210.91c0,64.8,66,97.51,102.44,97.51s103.07-32.71,103.07-97.51S309,85.63,226.27,85.63" class="cls-15"/><g id="HEADPHONE_L" data-name="HEADPHONE L"><rect width="25.3" height="62.33" x="109.02" y="176.97" class="cls-16" rx="3.5" ry="3.5" transform="translate(235.18 420.82) rotate(-177.78)"/><rect width="2.62" height="53.01" x="111.49" y="181.29" class="cls-12" rx="1.31" ry="1.31" transform="translate(217.47 419.79) rotate(-177.78)"/><path d="M184.92,287.43h9.88s1.23,1.24,8,1.24,9.26-2.47,9.26-4.32c0-2.47-3.71-4.32-9.26-4.32a18,18,0,0,0-8.64,1.85h-42s-7.41,0-10.5-.62c-3.08,0-13-7.4-13-14.19,0-8.64-.61-21-.61-21v-13L113.34,235l2.46,3.7,4.32,3.09s1.86,17.28,2.47,23.45c.62,5.55,6.79,21.6,22.84,21.6S184.92,287.43,184.92,287.43Z" class="cls-16"/></g><path id="F_HAIR" d="M123.21,193c0,58,7.41,69.12,7.41,69.12s3.08-15.43,4.93-17.9c2.47,6.18,9.26,32.71,17.9,51.84-3.7-12.34-9.26-96.89,42-154.28,4.32,14.19,23.46,39.5,34,46.28-.62-6.17-3.09-8.63-3.09-20.36,11.73,21,35.18,51.22,35.18,51.22s-3.09-45.05.62-71c28.38,37,45.05,101.83,43.2,145,4.32-16.66,15.42-53.08,15.42-53.08l2.47,17.28s6.79-30.85,6.79-54.3c0,0,11.11-117.26-103.68-117.26C117.66,85.63,123.21,193,123.21,193Z" class="cls-17" data-name="F HAIR"/><path id="EYE_R" d="M273.72,242.38h-.47a4,4,0,0,1-4-4v-30.8s-5.94-5.3-7.17-8.39a56.48,56.48,0,0,0,7.17,3.45V202a4,4,0,0,1,4-4h.47a4,4,0,0,1,4,4v36.41A4,4,0,0,1,273.72,242.38Z" class="cls-18" data-name="EYE R"/><path id="EYE_L" d="M182.38,242.38h-.47a4,4,0,0,1-4-4v-30.8s-5.94-5.3-7.17-8.39a57.19,57.19,0,0,0,7.17,3.45V202a4,4,0,0,1,4-4h.47a4,4,0,0,1,4,4v36.41A4,4,0,0,1,182.38,242.38Z" class="cls-18" data-name="EYE L"/><ellipse id="BLUSH_L" cx="167.64" cy="255.34" class="cls-19" data-name="BLUSH L" rx="11.73" ry="4.32"/><ellipse id="BLUSH_R" cx="284.9" cy="255.34" class="cls-19" data-name="BLUSH R" rx="11.73" ry="4.32"/></g><g id="BODY"><path id="SHIRT" d="M292.92,534.91c-5.55-4.32-9.64-30.25-9.25-41.35.61-17.9,11.72-56.16,11.72-67.27,0-6.79-4.32-22.22-7.4-29.62-5.56-9.88-21-59.86-21-59.86l-40.11,11.1s-25.3-6.78-39.5-4.93c1.24,9.25-17.89,45.66-25.3,62.33-2.93,6.6-5.55,14.19-4.32,27.15.88,9.3,6.79,43.36,6.79,61.1,0,13-14.81,40.73-14.81,40.73" class="cls-20"/><path id="COLLAR_R" d="M191.09,322s-2.46,11.11-4.93,17.28c4.93,8,9.87,16.05,16.66,25.31,9.26-6.79,23.45-17.28,23.45-17.28Z" class="cls-21" data-name="COLLAR R"/><path id="COLLAR_L" d="M262.68,322s1.24,9.88,3.71,16.05c-4.94,8-9.26,21-16,30.24-9.26-6.79-23.45-20.37-23.45-20.37Z" class="cls-21" data-name="COLLAR L"/><g id="LINE"><path d="M158.08,414.87l7.69-18.47c2.55-6.16,5-12.36,7.49-18.55s4.9-12.39,7.17-18.64c1.14-3.13,2.24-6.26,3.25-9.42a66.71,66.71,0,0,0,2.46-9.47,1.27,1.27,0,0,1,1.45-1.05,1.28,1.28,0,0,1,1,.73v0a132.23,132.23,0,0,0,6.92,13.3q1.91,3.24,3.94,6.41c1.35,2.08,2.76,4.22,4.23,6.07l-2.13-.15c1.92-1.76,3.88-3.42,5.84-5.08s3.95-3.28,5.94-4.9q6-4.85,12-9.59l2.4.73a.57.57,0,0,0-.11-.25c-.05-.07,0,0,0,0l.11.13.31.34.69.72,1.45,1.45,3,2.87c2,1.9,4,3.78,6,5.66s4.07,3.72,6.13,5.56,4.13,3.65,6.24,5.37l-2.21.4c1.47-2.49,2.85-5.1,4.2-7.71s2.68-5.25,4-7.89c2.61-5.29,5.15-10.63,7.7-16l0,0a1.23,1.23,0,0,1,2.29.19q4.33,15,9.22,29.94c1.6,5,3.25,9.93,5,14.84l1.34,3.68,1.42,3.65,1.48,3.62c.52,1.2,1.09,2.38,1.64,3.57A121.87,121.87,0,0,1,281,382.77c-2-4.84-3.89-9.72-5.69-14.63Q270,353.37,265.2,338.4l2.31.16c-2.41,5.41-4.92,10.76-7.48,16.11-1.28,2.67-2.58,5.34-3.91,8s-2.69,5.3-4.2,7.91a1.47,1.47,0,0,1-2,.54l-.19-.13h0c-2.19-1.77-4.28-3.59-6.37-5.43s-4.14-3.7-6.19-5.58-4.08-3.76-6.1-5.67l-3-2.88-1.5-1.49-.75-.77-.38-.43a2.3,2.3,0,0,1-.22-.27c0-.07,0-.05-.15-.19a2.69,2.69,0,0,1-.24-.48l2.41.73c-4,3.13-8.05,6.3-12,9.51s-7.94,6.44-11.69,9.81l0,0a1.44,1.44,0,0,1-2-.11l-.07-.08c-1.65-2.13-3-4.25-4.36-6.41s-2.66-4.35-3.92-6.56a122.47,122.47,0,0,1-6.86-13.7l2.41-.31a69.71,69.71,0,0,1-2.78,9.83c-1.1,3.17-2.28,6.3-3.49,9.42-2.43,6.23-5,12.39-7.63,18.53s-5.4,12.21-8.16,18.28S161,408.87,158.08,414.87Z" class="cls-22"/></g><g id="BADGE"><rect width="19.75" height="9.87" x="254.04" y="404.07" class="cls-23" rx="1.8" ry="1.8"/><rect width="13.58" height="3.88" x="257.13" y="407.07" class="cls-24" rx=".87" ry=".87"/></g><g id="TIE"><path d="M226.27,549.1h22.22L234.91,378.77c0-4.94.62-13.58.62-13.58l1.85-8.64-11.11-9.25-11.11,9.25,1.85,8.64s.62,8.64.62,13.58L199.73,549.1Z" class="cls-25"/><path d="M215.78,364.58h21.6s-.62,13-1.23,14.19c-2.47.62-15.43.62-19.14.62C216.4,378.77,215.78,364.58,215.78,364.58Z" class="cls-26"/></g></g></g></svg>