<svg xmlns="http://www.w3.org/2000/svg" xmlns:xlink="http://www.w3.org/1999/xlink" viewBox="0 0 612 612"><defs><style>.cls-1,.cls-17,.cls-18{fill:none}.cls-2{fill:#f2f2f2}.cls-3{fill:#8a8a8a}.cls-4{fill:#949494}.cls-5{fill:#f9b2aa}.cls-6{fill:#ffdce6}.cls-7{fill:#b85b61}.cls-8{fill:#ffc2c7}.cls-9{fill:#fff}.cls-10{fill:#4d0c00}.cls-11{fill:#00dd3d}.cls-12{fill:#8aa3ff}.cls-13{fill:#003910}.cls-14{fill:#4d3200}.cls-15{fill:#74767f}.cls-16{fill:#d14f4b}.cls-17,.cls-18{stroke:#4d0c00}.cls-17,.cls-18,.cls-23{stroke-miterlimit:10}.cls-17{stroke-width:9px}.cls-18{stroke-width:16px}.cls-19{fill:#fea601}.cls-20{fill:#f0b1ac}.cls-21{fill:#188e3a}.cls-22{fill:#f96a56}.cls-23{fill:#606060;stroke:#000}.cls-24{fill:#f0f0f0}.cls-25{fill:#f9f9f9}.cls-26{fill:#565656}.cls-27{fill:#bcbcbc}.cls-28{fill:#f92600}.cls-29{fill:#484d68}.cls-30{clip-path:url(#clip-path)}.cls-31{fill:#6378e5}.cls-32{clip-path:url(#clip-path-2)}.cls-33{clip-path:url(#clip-path-3)}.cls-34{clip-path:url(#clip-path-4)}.cls-35{clip-path:url(#clip-path-5)}.cls-36{fill:#303651}.cls-37{fill:#cecece}.cls-38{fill:#a0a0a0}.cls-39{fill:#483515}.cls-40{fill:#f4ac24}.cls-41{fill:#f8cf3f}.cls-42{clip-path:url(#clip-path-6)}.cls-43{fill:#75ab96}.cls-44{fill:#416b53}.cls-45{fill:#272278}.cls-46{fill:#82f42a}.cls-47{fill:#90f846}.cls-48{clip-path:url(#clip-path-7)}.cls-49{clip-path:url(#clip-path-8)}</style><clipPath id="clip-path"><path d="M319.19,115.61l-.07-21.28H314.7c-11.91,0-23.14,0-29.72.59-5.22.45-10.1,1.2-14.82,1.92-2.17.33-4.33.67-6.5,1L270,144.44c2.45-.33,4.89-.71,7.33-1.08,4.16-.64,8.08-1.24,11.76-1.56s11.61-.39,18.46-.41l.06,17.72a272,272,0,0,1,37.69,2.51l5.93-43.29A313.63,313.63,0,0,0,319.19,115.61Z" class="cls-1"/></clipPath><clipPath id="clip-path-2"><path d="M115.86,293.06l-21.28.07c0,1.17,0,2.68,0,4.42,0,11.91,0,23.14.59,29.72.45,5.22,1.2,10.1,1.92,14.82.33,2.17.67,4.33,1,6.5l46.63-6.29c-.33-2.45-.71-4.89-1.08-7.33-.64-4.16-1.24-8.08-1.56-11.76s-.39-11.61-.41-18.46l17.72-.06A272,272,0,0,1,161.87,267l-43.29-5.93A313.63,313.63,0,0,0,115.86,293.06Z" class="cls-1"/></clipPath><clipPath id="clip-path-3"><path d="M293.31,496.39l.07,21.28h4.42c11.91,0,23.14,0,29.72-.59,5.22-.45,10.1-1.2,14.82-1.92,2.17-.33,4.33-.67,6.5-1l-6.29-46.63c-2.45.33-4.89.71-7.33,1.08-4.16.64-8.08,1.24-11.76,1.56s-11.61.39-18.46.41l-.06-17.72a272,272,0,0,1-37.69-2.51l-5.93,43.29A313.63,313.63,0,0,0,293.31,496.39Z" class="cls-1"/></clipPath><clipPath id="clip-path-4"><path d="M496.64,318.94l21.28-.07c0-1.17,0-2.68,0-4.42,0-11.91,0-23.14-.59-29.72-.45-5.22-1.2-10.1-1.92-14.82-.33-2.17-.67-4.33-1-6.5l-46.63,6.29c.33,2.45.71,4.89,1.08,7.33.64,4.16,1.24,8.08,1.56,11.76s.39,11.61.41,18.46l-17.72.06A272,272,0,0,1,450.63,345l43.29,5.93A313.63,313.63,0,0,0,496.64,318.94Z" class="cls-1"/></clipPath><clipPath id="clip-path-5"><path d="M445.39,241.19a208.21,208.21,0,0,0-44.76-56.83L436,144.79a261.4,261.4,0,0,1,56.16,71.31Z" class="cls-1"/></clipPath><clipPath id="clip-path-6"><path d="M220.06,181a208.93,208.93,0,0,0-49.5,52.76l-44.41-29a261.46,261.46,0,0,1,62.11-66.19Z" class="cls-1"/></clipPath><clipPath id="clip-path-7"><path d="M167.11,370.81a208.21,208.21,0,0,0,44.76,56.83l-35.35,39.57a261.4,261.4,0,0,1-56.16-71.31Z" class="cls-1"/></clipPath><clipPath id="clip-path-8"><path d="M392.44,431a208.93,208.93,0,0,0,49.5-52.76l44.41,29a261.46,261.46,0,0,1-62.11,66.19Z" class="cls-1"/></clipPath><symbol id="Explosion" data-name="Explosion" viewBox="0 0 53.06 39.94"><circle cx="32.64" cy="28.86" r="9.31" class="cls-2"/><circle cx="20.74" cy="25.79" r="9.31" class="cls-2"/><circle cx="23.32" cy="18.29" r="9.31" class="cls-2"/><path d="M23.78,2.5a7.52,7.52,0,0,1,9.61,10.29A7.53,7.53,0,0,0,25.14.57,7.45,7.45,0,0,0,21.26,4.2,7.42,7.42,0,0,1,23.78,2.5Z" class="cls-2"/><path d="M41.79,19.19a11.11,11.11,0,0,1,1.42,20.75A11.12,11.12,0,1,0,37.3,18.79,11.16,11.16,0,0,1,41.79,19.19Z" class="cls-2"/><path d="M14.06,36.72A11.12,11.12,0,0,1,6.71,17.26a11.12,11.12,0,0,0,4.42,21.33,11,11,0,0,0,7.34-2.79A11,11,0,0,1,14.06,36.72Z" class="cls-2"/><circle cx="30.05" cy="30.77" r="2.26" class="cls-3"/><path d="M23.68,31.12a7,7,0,0,1-7-7,7,7,0,0,1,1.52-4.32,7,7,0,1,0,7.92,10.91A7.1,7.1,0,0,1,23.68,31.12Z" class="cls-4"/></symbol><symbol id="Tree" data-name="Tree" viewBox="0 0 61.67 74.85"><rect width="12.23" height="25.52" x="24.67" y="49.33" class="cls-10"/><polygon points="49.33 24.67 49.33 12.33 37 12.33 37 12.33 37 0 24.67 0 24.67 12.33 24.67 12.33 12.33 12.33 12.33 24.67 0 24.67 0 37 0 49.33 12.33 49.33 12.33 49.33 24.67 49.33 37 49.33 49.33 49.33 49.33 49.33 61.67 49.33 61.67 37 61.67 24.67 49.33 24.67" class="cls-11"/></symbol><symbol id="Pig" data-name="Pig" viewBox="0 0 46.13 46.13"><rect width="46.13" height="46.13" class="cls-5"/><rect width="23.06" height="15.39" x="11.53" y="24.5" class="cls-6"/><rect width="5.77" height="5.77" x="11.53" y="29.31" class="cls-7"/><rect width="5.77" height="5.77" x="28.83" y="29.31" class="cls-7"/><polygon points="23.06 29.31 17.3 29.31 17.3 35.08 23.06 35.08 28.83 35.08 28.83 29.31 23.06 29.31" class="cls-8"/><rect width="5.77" height="5.77" x="5.77" y="18.74" class="cls-9"/><rect width="5.77" height="5.77" y="18.74"/><polygon points="34.6 24.5 40.36 24.5 40.36 18.73 34.6 18.73 34.6 24.5" class="cls-9"/><polygon points="40.36 24.5 46.13 24.5 46.13 18.73 40.36 18.73 40.36 24.5"/></symbol></defs><title>Artboard 1 copy 2</title><g id="_3_-_Minecraft" data-name="3 - Minecraft"><rect width="612" height="612" class="cls-12"/><polygon points="77.16 34.53 63.26 20.62 50.65 33.23 43.22 25.81 18 51.03 31.35 64.38 19.89 75.85 33.79 89.75 59.01 64.53 53.08 58.6 77.16 34.53" class="cls-2"/><use id="Explosion-3" width="53.06" height="39.94" data-name="Explosion" transform="translate(387.97 17.84) rotate(22.5) scale(1.36)" xlink:href="#Explosion"/><use width="61.67" height="74.85" transform="translate(269.28 1.16) scale(1.19 1.12)" xlink:href="#Tree"/><use width="61.67" height="74.85" transform="translate(56.98 108.9) rotate(-45) scale(1.19 1.12)" xlink:href="#Tree"/><circle cx="306.25" cy="306" r="241.67" class="cls-13"/><circle cx="306.39" cy="303.92" r="234.71" class="cls-14"/><polygon points="212.62 73.36 204.85 54.61 208.75 53 202.96 39.04 189.01 44.82 194.79 58.78 198.2 57.36 205.97 76.11 200.87 78.23 204.36 86.66 210.59 84.07 207.54 76.7 212.16 74.78 215.22 82.16 221.45 79.58 217.96 71.15 212.62 73.36" class="cls-11"/><use id="Explosion-6" width="53.06" height="39.94" data-name="Explosion" transform="matrix(0.52, -1.25, 1.25, 0.52, 18.09, 224.28)" xlink:href="#Explosion"/><use width="61.67" height="74.85" transform="translate(1.41 342.97) rotate(-90) scale(1.19 1.12)" xlink:href="#Tree"/><polygon points="73.61 399.63 54.86 407.4 53.25 403.5 39.29 409.29 45.07 423.24 59.03 417.46 57.61 414.05 76.36 406.28 78.48 411.38 86.91 407.89 84.32 401.66 76.95 404.71 75.03 400.09 82.41 397.03 79.83 390.8 71.4 394.29 73.61 399.63" class="cls-11"/><use id="Explosion-9" width="53.06" height="39.94" data-name="Explosion" transform="matrix(-1.25, -0.52, 0.52, -1.25, 224.53, 594.16)" xlink:href="#Explosion"/><use width="61.67" height="74.85" transform="translate(343.22 610.84) rotate(180) scale(1.19 1.12)" xlink:href="#Tree"/><polygon points="399.88 538.64 407.65 557.39 403.75 559 409.54 572.96 423.49 567.18 417.71 553.22 414.3 554.64 406.53 535.89 411.63 533.77 408.14 525.34 401.91 527.93 404.96 535.3 400.34 537.22 397.28 529.84 391.05 532.42 394.54 540.85 399.88 538.64" class="cls-11"/><use id="Explosion-12" width="53.06" height="39.94" data-name="Explosion" transform="translate(594.41 387.72) rotate(112.5) scale(1.36)" xlink:href="#Explosion"/><use width="61.67" height="74.85" transform="matrix(0, 1.19, -1.12, 0, 611.09, 269.03)" xlink:href="#Tree"/><polygon points="538.89 212.37 557.64 204.6 559.25 208.5 573.21 202.71 567.43 188.76 553.47 194.54 554.89 197.95 536.14 205.72 534.02 200.62 525.59 204.11 528.18 210.34 535.55 207.29 537.47 211.91 530.09 214.97 532.67 221.2 541.1 217.71 538.89 212.37" class="cls-11"/><circle cx="305.56" cy="305.91" r="219.25" class="cls-15"/><circle cx="306" cy="306" r="137.75" class="cls-16"/><use id="Pig-3" width="46.13" height="46.13" data-name="Pig" transform="matrix(0.34, -0.34, 0.34, 0.34, 49.77, 67.25)" xlink:href="#Pig"/><polygon points="34.78 535.09 20.87 549 33.48 561.61 26.06 569.03 51.28 594.25 64.63 580.9 76.1 592.36 90 578.46 64.78 553.24 58.85 559.17 34.78 535.09" class="cls-2"/><use width="61.67" height="74.85" transform="translate(109.15 555.27) rotate(-135) scale(1.19 1.12)" xlink:href="#Tree"/><use id="Pig-6" width="46.13" height="46.13" data-name="Pig" transform="translate(67.5 562.48) rotate(-135) scale(0.48)" xlink:href="#Pig"/><polygon points="535.34 577.47 549.25 591.38 561.86 578.77 569.28 586.19 594.5 560.97 581.15 547.62 592.61 536.15 578.71 522.25 553.49 547.47 559.42 553.39 535.34 577.47" class="cls-2"/><use width="61.67" height="74.85" transform="translate(555.52 503.1) rotate(135) scale(1.19 1.12)" xlink:href="#Tree"/><use id="Pig-9" width="46.13" height="46.13" data-name="Pig" transform="matrix(-0.34, 0.34, -0.34, -0.34, 562.73, 544.75)" xlink:href="#Pig"/><polygon points="577.72 76.91 591.63 63.01 579.02 50.4 586.44 42.97 561.22 17.75 547.87 31.1 536.4 19.64 522.5 33.54 547.72 58.76 553.64 52.83 577.72 76.91" class="cls-2"/><use width="61.67" height="74.85" transform="translate(503.35 56.73) rotate(45) scale(1.19 1.12)" xlink:href="#Tree"/><use id="Pig-12" width="46.13" height="46.13" data-name="Pig" transform="matrix(0.34, 0.34, -0.34, 0.34, 545, 49.52)" xlink:href="#Pig"/><circle cx="306" cy="306" r="120.5" class="cls-17"/><g id="Layer_8" data-name="Layer 8"><line x1="306" x2="306" y1="192.71" y2="306" class="cls-18"/><path d="M281.09,196.37a115,115,0,0,1,49.82,0" class="cls-17"/><line x1="225.89" x2="306" y1="225.89" y2="306" class="cls-18"/><path d="M210.87,246.09a115,115,0,0,1,35.22-35.22" class="cls-17"/><line x1="192.71" x2="306" y1="306" y2="306" class="cls-18"/><path d="M196.37,330.91a115,115,0,0,1,0-49.82" class="cls-17"/><line x1="225.89" x2="306" y1="386.11" y2="306" class="cls-18"/><path d="M246.09,401.13a115,115,0,0,1-35.22-35.22" class="cls-17"/><line x1="306" x2="306" y1="419.29" y2="306" class="cls-18"/><path d="M330.91,415.63a115,115,0,0,1-49.82,0" class="cls-17"/><line x1="386.11" x2="306" y1="386.11" y2="306" class="cls-18"/><path d="M401.13,365.91a115,115,0,0,1-35.22,35.22" class="cls-17"/><line x1="419.29" x2="306" y1="306" y2="306" class="cls-18"/><path d="M415.63,281.09a115,115,0,0,1,0,49.82" class="cls-17"/><line x1="386.11" x2="306" y1="225.89" y2="306" class="cls-18"/><path d="M365.91,210.87a115,115,0,0,1,35.22,35.22" class="cls-17"/><rect width="4.6" height="97.93" x="247.7" y="201.03" class="cls-19" transform="translate(-103.55 250) rotate(-45)"/><rect width="4.6" height="109.99" x="251.96" y="302.75" class="cls-19" transform="translate(181.09 790.49) rotate(-135)"/><rect width="4.6" height="99.79" x="359.05" y="311.45" class="cls-19" transform="translate(872.36 361.35) rotate(135)"/><rect width="4.6" height="109.13" x="355.74" y="199.39" class="cls-19" transform="translate(284.44 -178.79) rotate(45)"/></g><circle cx="306" cy="306" r="34.25" class="cls-19"/><rect width="12.64" height="18.03" x="285.73" y="267.92" class="cls-20" transform="translate(-83.75 132.84) rotate(-22.5)"/><rect width="4.23" height="13.5" x="277.19" y="266.24" class="cls-20" transform="translate(566.73 8.55) rotate(93.04)"/><rect width="6.36" height="18.03" x="285.96" y="269.12" class="cls-21" transform="translate(-84.43 131.82) rotate(-22.5)"/><rect width="4.23" height="15.72" x="296.48" y="255.43" class="cls-20" transform="translate(184.94 -118.24) rotate(32.01)"/><rect width="6.68" height="1.26" x="283.42" y="271.33" class="cls-9" transform="translate(-82.25 130.44) rotate(-22.5)"/><rect width="5.92" height="1.26" x="284.46" y="273.91" class="cls-9" transform="translate(-83.18 130.89) rotate(-22.5)"/><rect width="4.59" height="1.26" x="285.54" y="276.65" class="cls-9" transform="translate(-84.2 131.26) rotate(-22.5)"/><polygon points="285.88 288.86 302.21 272.01 308.36 286.87 285.88 288.86" class="cls-19"/><rect width="11.48" height="11.48" x="280.9" y="258" class="cls-20" transform="translate(-79.11 129.77) rotate(-22.5)"/><rect width="5.74" height="11.48" x="281.11" y="259.09" class="cls-21" transform="translate(-79.73 128.84) rotate(-22.5)"/><rect width="5.74" height="3.13" x="288.02" y="264.93" class="cls-21" transform="translate(-79.84 131.6) rotate(-22.5)"/><rect width="4.55" height="2.42" x="284.11" y="261.91" class="cls-20" transform="translate(-78.89 129.62) rotate(-22.5)"/><rect width="1.44" height="1.44" x="282.16" y="263.32" class="cls-9" transform="translate(-79.51 128.35) rotate(-22.5)"/><rect width="1.44" height="1.44" x="280.83" y="263.87" transform="translate(-79.82 127.89) rotate(-22.5)"/><rect width="1.44" height="1.44" x="288.79" y="260.57" class="cls-9" transform="translate(656.97 391.9) rotate(157.5)"/><rect width="1.44" height="1.44" x="290.12" y="260.03" transform="matrix(-0.92, 0.38, -0.38, -0.92, 659.32, 390.34)"/><rect width=".98" height=".98" x="284.76" y="265.85" class="cls-22" transform="translate(-80.21 129.44) rotate(-22.5)"/><rect width=".98" height=".98" x="288.71" y="264.21" class="cls-22" transform="translate(-79.28 130.82) rotate(-22.5)"/><rect width="12.64" height="18.03" x="270.87" y="311.19" class="cls-20" transform="translate(87.43 698.83) rotate(-112.5)"/><rect width="4.23" height="13.5" x="271.12" y="326.19" class="cls-20" transform="translate(18.05 -14.02) rotate(3.04)"/><rect width="6.36" height="18.03" x="275.21" y="314.09" class="cls-21" transform="translate(86.42 703.95) rotate(-112.5)"/><rect width="4.23" height="15.72" x="261.42" y="305.8" class="cls-20" transform="translate(-142.12 370.88) rotate(-57.99)"/><rect width="6.68" height="1.26" x="268.87" y="324.86" class="cls-9" transform="translate(75.66 701.54) rotate(-112.5)"/><rect width="5.92" height="1.26" x="271.83" y="324.2" class="cls-9" transform="translate(79.84 703.02) rotate(-112.5)"/><rect width="4.59" height="1.26" x="275.24" y="323.78" class="cls-9" transform="translate(84.02 704.98) rotate(-112.5)"/><polygon points="289.11 326.37 272.26 310.04 287.12 303.89 289.11 326.37" class="cls-19"/><rect width="11.48" height="11.48" x="258.25" y="319.87" class="cls-20" transform="matrix(-0.38, -0.92, 0.92, -0.38, 64.19, 694.11)"/><rect width="5.74" height="11.48" x="262.22" y="322.52" class="cls-21" transform="translate(63.25 698.79) rotate(-112.5)"/><rect width="5.74" height="3.13" x="263.88" y="319.79" class="cls-21" transform="translate(71.93 690.78) rotate(-112.5)"/><rect width="4.55" height="2.42" x="261.09" y="324.66" class="cls-20" transform="translate(63.09 693.89) rotate(-112.5)"/><rect width="1.44" height="1.44" x="263.57" y="328.65" class="cls-9" transform="translate(61.13 699.59) rotate(-112.5)"/><rect width="1.44" height="1.44" x="264.12" y="329.98" transform="translate(60.66 701.93) rotate(-112.5)"/><rect width="1.44" height="1.44" x="260.82" y="322.02" class="cls-9" transform="translate(459.63 -42.4) rotate(67.5)"/><rect width="1.44" height="1.44" x="260.28" y="320.7" transform="translate(458.06 -42.71) rotate(67.5)"/><rect width=".98" height=".98" x="266.1" y="326.51" class="cls-22" transform="translate(66.5 698.43) rotate(-112.5)"/><rect width=".98" height=".98" x="264.46" y="322.56" class="cls-22" transform="translate(67.89 691.46) rotate(-112.5)"/><rect width="12.64" height="18.03" x="314.13" y="326.05" class="cls-20" transform="translate(744.74 521.99) rotate(157.5)"/><rect width="4.23" height="13.5" x="331.08" y="332.26" class="cls-20" transform="matrix(0.05, -1, 1, 0.05, -23.02, 653.75)"/><rect width="6.36" height="18.03" x="320.17" y="324.85" class="cls-21" transform="translate(749.86 518.57) rotate(157.5)"/><rect width="4.23" height="15.72" x="311.79" y="340.85" class="cls-20" transform="translate(395.26 810.79) rotate(-147.99)"/><rect width="6.68" height="1.26" x="322.41" y="339.41" class="cls-9" transform="translate(756.82 529.54) rotate(157.5)"/><rect width="5.92" height="1.26" x="322.12" y="336.83" class="cls-9" transform="translate(754.56 524.82) rotate(157.5)"/><rect width="4.59" height="1.26" x="322.37" y="334.08" class="cls-9" transform="translate(752.71 519.71) rotate(157.5)"/><polygon points="326.62 323.14 310.29 339.99 304.14 325.13 326.62 323.14" class="cls-19"/><rect width="11.48" height="11.48" x="320.12" y="342.52" class="cls-20" transform="translate(760.19 545.31) rotate(157.5)"/><rect width="5.74" height="11.48" x="325.64" y="341.42" class="cls-21" transform="translate(764.88 542.18) rotate(157.5)"/><rect width="5.74" height="3.13" x="318.74" y="343.94" class="cls-21" transform="matrix(-0.92, 0.38, -0.38, -0.92, 750.96, 541.63)"/><rect width="4.55" height="2.42" x="323.84" y="347.67" class="cls-20" transform="translate(760.92 546.4) rotate(157.5)"/><rect width="1.44" height="1.44" x="328.9" y="347.24" class="cls-9" transform="translate(767.31 543.29) rotate(157.5)"/><rect width="1.44" height="1.44" x="330.23" y="346.69" transform="translate(769.65 541.73) rotate(157.5)"/><rect width="1.44" height="1.44" x="322.27" y="349.99" class="cls-9" transform="translate(-109.62 150.3) rotate(-22.5)"/><rect width="1.44" height="1.44" x="320.95" y="350.54" transform="translate(-109.93 149.83) rotate(-22.5)"/><rect width=".98" height=".98" x="326.76" y="345.17" class="cls-22" transform="translate(761.86 539.78) rotate(157.5)"/><rect width=".98" height=".98" x="322.81" y="346.81" class="cls-22" transform="translate(754.89 544.44) rotate(157.5)"/><rect width="12.64" height="18.03" x="328.99" y="282.78" class="cls-20" transform="translate(476.58 -129.66) rotate(67.5)"/><rect width="4.23" height="13.5" x="337.14" y="272.31" class="cls-20" transform="translate(663.24 575.72) rotate(-176.96)"/><rect width="6.36" height="18.03" x="330.93" y="279.88" class="cls-21" transform="translate(473.16 -130.34) rotate(67.5)"/><rect width="4.23" height="15.72" x="346.85" y="290.48" class="cls-20" transform="translate(786.91 160.56) rotate(122.01)"/><rect width="6.68" height="1.26" x="336.95" y="285.87" class="cls-9" transform="translate(474.76 -137.52) rotate(67.5)"/><rect width="5.92" height="1.26" x="334.75" y="286.54" class="cls-9" transform="translate(473.78 -134.73) rotate(67.5)"/><rect width="4.59" height="1.26" x="332.67" y="286.95" class="cls-9" transform="translate(472.47 -131.94) rotate(67.5)"/><polygon points="323.39 285.63 340.24 301.96 325.38 308.11 323.39 285.63" class="cls-19"/><rect width="11.48" height="11.48" x="342.77" y="280.65" class="cls-20" transform="matrix(0.38, 0.92, -0.92, 0.38, 479.73, -145.19)"/><rect width="5.74" height="11.48" x="344.54" y="277.99" class="cls-21" transform="translate(476.6 -145.81) rotate(67.5)"/><rect width="5.74" height="3.13" x="342.88" y="289.07" class="cls-21" transform="translate(481.95 -140.02) rotate(67.5)"/><rect width="4.55" height="2.42" x="346.85" y="284.92" class="cls-20" transform="translate(479.88 -145.92) rotate(67.5)"/><rect width="1.44" height="1.44" x="347.49" y="281.91" class="cls-9" transform="translate(476.07 -147.23) rotate(67.5)"/><rect width="1.44" height="1.44" x="346.94" y="280.58" transform="translate(474.51 -147.54) rotate(67.5)"/><rect width="1.44" height="1.44" x="350.24" y="288.54" class="cls-9" transform="translate(218.02 724.2) rotate(-112.5)"/><rect width="1.44" height="1.44" x="350.79" y="289.87" transform="translate(217.56 726.54) rotate(-112.5)"/><rect width=".98" height=".98" x="345.42" y="284.51" class="cls-22" transform="translate(476.84 -143.64) rotate(67.5)"/><rect width=".98" height=".98" x="347.06" y="288.46" class="cls-22" transform="translate(481.5 -142.72) rotate(67.5)"/><circle cx="306.25" cy="306" r="9.67" class="cls-23"/><rect width="3.71" height="11.46" x="267.93" y="235.79" class="cls-24" transform="translate(-71.89 121.63) rotate(-22.5)"/><rect width="3.71" height="12.55" x="285.23" y="228.67" class="cls-24" transform="translate(-68.06 127.75) rotate(-22.5)"/><rect width="3.71" height="13.07" x="276.78" y="232.19" class="cls-24" transform="translate(-70.15 124.8) rotate(-22.5)"/><rect width="22.18" height="22.18" x="260.92" y="211.67" class="cls-25" transform="translate(-64.54 121.05) rotate(-22.5)"/><rect width="19.85" height="19.85" x="262.08" y="212.84" class="cls-24" transform="translate(-64.54 121.05) rotate(-22.5)"/><rect width="5.59" height="1.39" x="264.01" y="220.41" class="cls-26" transform="translate(-64.31 118.93) rotate(-22.5)"/><rect width="5.59" height="1.39" x="271.59" y="227.78" class="cls-26" transform="translate(-66.55 122.39) rotate(-22.5)"/><rect width="5.59" height="1.39" x="271.73" y="217.22" class="cls-26" transform="translate(-62.49 121.64) rotate(-22.5)"/><polygon points="265.82 222.26 266.34 223.52 267.4 226.07 268.66 225.55 267.6 223 268.89 222.47 268.37 221.21 265.82 222.26" class="cls-27"/><polygon points="274.8 218.55 273.51 219.09 274.03 220.35 275.32 219.81 275.86 221.1 277.12 220.58 276.58 219.29 276.06 218.03 274.8 218.55" class="cls-27"/><rect width="1.38" height="1.38" x="268.18" y="227.13" class="cls-27" transform="translate(-66.72 120.23) rotate(-22.5)"/><rect width="1.38" height="1.38" x="276.56" y="222.08" class="cls-27" transform="translate(-64.15 123.06) rotate(-22.5)"/><rect width="4.14" height="1.41" x="262.4" y="227.42" class="cls-27" transform="translate(-67.17 118.57) rotate(-22.5)"/><rect width="2.88" height="1.41" x="263.51" y="230.24" class="cls-27" transform="translate(-68.21 118.97) rotate(-22.5)"/><rect width="1.41" height="1.41" x="264.64" y="233.1" class="cls-27" transform="translate(-69.27 119.34) rotate(-22.5)"/><rect width="4.14" height="1.41" x="279.09" y="220.51" class="cls-27" transform="translate(625.57 317.99) rotate(157.5)"/><rect width="2.88" height="1.41" x="281.37" y="222.84" class="cls-27" transform="translate(629.63 321.85) rotate(157.5)"/><rect width="1.41" height="1.41" x="283.85" y="225.14" class="cls-27" transform="translate(633.88 325.6) rotate(157.5)"/><rect width="3.85" height="11.91" x="323.67" y="227.39" class="cls-24" transform="translate(114.08 -106.84) rotate(22.5)"/><rect width="3.85" height="13.05" x="341.22" y="234.71" class="cls-24" transform="translate(118.44 -112.95) rotate(22.5)"/><rect width="3.85" height="13.59" x="332.23" y="231" class="cls-24" transform="translate(116.44 -109.77) rotate(22.5)"/><rect width="23.06" height="23.06" x="329.49" y="209.66" class="cls-25" transform="translate(110.6 -113.67) rotate(22.5)"/><rect width="20.64" height="20.64" x="330.7" y="210.87" class="cls-24" transform="translate(110.6 -113.67) rotate(22.5)"/><rect width="5.81" height="1.44" x="336.36" y="224.75" class="cls-26" transform="translate(112.11 -112.67) rotate(22.5)"/><rect width="4.37" height="1.44" x="334.5" y="225.26" class="cls-26" transform="translate(674.31 1.41) rotate(112.5)"/><rect width="4.37" height="1.44" x="338.53" y="226.93" class="cls-26" transform="translate(681.43 -0.01) rotate(112.5)"/><polygon points="336.84 216.27 336.3 217.58 335.2 220.24 336.51 220.78 337.61 218.13 338.95 218.68 339.49 217.37 336.84 216.27" class="cls-27"/><polygon points="346.17 220.15 344.83 219.59 344.28 220.9 345.63 221.46 345.07 222.8 346.38 223.34 346.94 222 347.48 220.69 346.17 220.15" class="cls-27"/><rect width="1.44" height="1.44" x="334.28" y="221.88" class="cls-27" transform="translate(110.69 -111.25) rotate(22.5)"/><rect width="1.44" height="1.44" x="344.15" y="224.34" class="cls-27" transform="translate(112.38 -114.85) rotate(22.5)"/><rect width="4.31" height="1.46" x="329.38" y="218.86" class="cls-27" transform="translate(109.27 -110.16) rotate(22.5)"/><rect width="2.99" height="1.46" x="328.33" y="221.28" class="cls-27" transform="translate(110.07 -109.32) rotate(22.5)"/><rect width="1.46" height="1.46" x="327.27" y="223.67" class="cls-27" transform="translate(110.84 -108.44) rotate(22.5)"/><rect width="4.31" height="1.46" x="346.73" y="226.05" class="cls-27" transform="translate(584.44 569.81) rotate(-157.5)"/><rect width="2.99" height="1.46" x="346.89" y="228.97" class="cls-27" transform="translate(582.35 575.25) rotate(-157.5)"/><rect width="1.46" height="1.46" x="347.25" y="231.95" class="cls-27" transform="translate(580.43 580.82) rotate(-157.5)"/><polygon points="340.07 216.05 340.62 214.72 337.92 213.6 337.37 214.93 336 214.37 335.45 215.7 340.82 217.92 341.37 216.59 340.07 216.05" class="cls-26"/><rect width="1.46" height="1.46" x="338.36" y="215.68" class="cls-28" transform="translate(108.63 -113.29) rotate(22.5)"/><rect width="2.95" height="2.95" x="336.95" y="226" class="cls-28" transform="translate(112.81 -112.19) rotate(22.5)"/><polygon points="345.36 218.24 345.91 216.91 348.61 218.03 348.06 219.36 349.43 219.93 348.88 221.26 343.51 219.04 344.06 217.7 345.36 218.24" class="cls-26"/><rect width="1.46" height="1.46" x="345.06" y="218.46" class="cls-28" transform="translate(581.39 554.03) rotate(-157.5)"/><rect width="2.93" height="1.44" x="338.3" y="223.54" class="cls-26" transform="translate(111.68 -112.95) rotate(22.5)"/><rect width="2.93" height="1.44" x="336.12" y="228.78" class="cls-26" transform="translate(113.52 -111.72) rotate(22.5)"/><rect width="3.71" height="11.46" x="239.92" y="336.74" class="cls-24" transform="translate(17.89 696.89) rotate(-112.5)"/><rect width="3.71" height="12.55" x="233.34" y="318.89" class="cls-24" transform="translate(24.79 666.9) rotate(-112.5)"/><rect width="3.71" height="13.07" x="237.12" y="327.09" class="cls-24" transform="translate(22.2 682.08) rotate(-112.5)"/><rect width="22.18" height="22.18" x="211.92" y="329.15" class="cls-25" transform="translate(-5.99 676.48) rotate(-112.5)"/><rect width="19.85" height="19.85" x="213.09" y="330.32" class="cls-24" transform="translate(-5.99 676.48) rotate(-112.5)"/><rect width="5.59" height="1.39" x="218.56" y="344.76" class="cls-26" transform="translate(-13.09 682.16) rotate(-112.5)"/><rect width="5.59" height="1.39" x="225.93" y="337.18" class="cls-26" transform="translate(4.1 678.48) rotate(-112.5)"/><rect width="5.59" height="1.39" x="215.37" y="337.03" class="cls-26" transform="translate(-10.38 668.52) rotate(-112.5)"/><polygon points="222.51 346.43 223.77 345.91 226.32 344.85 225.8 343.59 223.25 344.65 222.72 343.36 221.46 343.88 222.51 346.43" class="cls-27"/><polygon points="218.8 337.45 219.34 338.74 220.6 338.22 220.06 336.93 221.35 336.39 220.83 335.13 219.54 335.67 218.28 336.19 218.8 337.45" class="cls-27"/><rect width="1.38" height="1.38" x="227.38" y="342.69" class="cls-27" transform="translate(-1.9 685.5) rotate(-112.5)"/><rect width="1.38" height="1.38" x="222.33" y="334.3" class="cls-27" transform="translate(-1.12 669.24) rotate(-112.5)"/><rect width="4.14" height="1.41" x="226.3" y="347.08" class="cls-27" transform="translate(-5.54 691.86) rotate(-112.5)"/><rect width="2.88" height="1.41" x="229.75" y="346.59" class="cls-27" transform="translate(-1.2 693.79) rotate(-112.5)"/><rect width="1.41" height="1.41" x="233.35" y="346.2" class="cls-27" transform="translate(3.12 695.9) rotate(-112.5)"/><rect width="4.14" height="1.41" x="219.39" y="330.39" class="cls-27" transform="translate(442.6 -0.22) rotate(67.5)"/><rect width="2.88" height="1.41" x="222.35" y="328.74" class="cls-27" transform="translate(442.52 -3.39) rotate(67.5)"/><rect width="1.41" height="1.41" x="225.39" y="326.99" class="cls-27" transform="translate(442.32 -6.59) rotate(67.5)"/><rect width="3.85" height="11.91" x="231.67" y="280.7" class="cls-24" transform="translate(-120.63 392.77) rotate(-67.5)"/><rect width="3.85" height="13.05" x="239.55" y="262.58" class="cls-24" transform="translate(-99.55 389.22) rotate(-67.5)"/><rect width="3.85" height="13.59" x="236.12" y="271.3" class="cls-24" transform="translate(-109.98 391.6) rotate(-67.5)"/><rect width="23.06" height="23.06" x="209.91" y="259.7" class="cls-25" transform="translate(-113.88 372.02) rotate(-67.5)"/><rect width="20.64" height="20.64" x="211.12" y="260.91" class="cls-24" transform="translate(-113.88 372.02) rotate(-67.5)"/><rect width="5.81" height="1.44" x="222.81" y="272.27" class="cls-26" transform="translate(-112.87 377.06) rotate(-67.5)"/><rect width="4.37" height="1.44" x="224.05" y="274.85" class="cls-26" transform="translate(122.68 -65.6) rotate(22.5)"/><rect width="4.37" height="1.44" x="225.72" y="270.81" class="cls-26" transform="translate(121.26 -66.55) rotate(22.5)"/><polygon points="216.52 275.41 217.83 275.95 220.49 277.05 221.03 275.74 218.38 274.64 218.93 273.3 217.62 272.76 216.52 275.41" class="cls-27"/><polygon points="220.4 266.08 219.84 267.42 221.15 267.97 221.71 266.62 223.05 267.18 223.59 265.87 222.25 265.31 220.94 264.77 220.4 266.08" class="cls-27"/><rect width="1.44" height="1.44" x="222.13" y="276.54" class="cls-27" transform="translate(-118.58 377.04) rotate(-67.5)"/><rect width="1.44" height="1.44" x="224.59" y="266.66" class="cls-27" transform="translate(-107.94 373.21) rotate(-67.5)"/><rect width="4.31" height="1.46" x="217.69" y="279.98" class="cls-27" transform="translate(-123.63 376.39) rotate(-67.5)"/><rect width="2.99" height="1.46" x="220.77" y="281.7" class="cls-27" transform="translate(-123.72 379.69) rotate(-67.5)"/><rect width="1.46" height="1.46" x="223.92" y="283.51" class="cls-27" transform="translate(-123.93 383.03) rotate(-67.5)"/><rect width="4.31" height="1.46" x="224.87" y="262.63" class="cls-27" transform="translate(557.22 154.4) rotate(112.5)"/><rect width="2.99" height="1.46" x="228.46" y="263.13" class="cls-27" transform="translate(561.73 152.39) rotate(112.5)"/><rect width="1.46" height="1.46" x="232.2" y="263.54" class="cls-27" transform="translate(566.22 150.2) rotate(112.5)"/><polygon points="216.3 272.18 214.97 271.63 213.85 274.33 215.18 274.88 214.62 276.25 215.95 276.8 218.17 271.43 216.84 270.88 216.3 272.18" class="cls-26"/><rect width="1.46" height="1.46" x="215.93" y="272.43" class="cls-28" transform="translate(-118.62 368.8) rotate(-67.5)"/><rect width="2.95" height="2.95" x="226.25" y="272.35" class="cls-28" transform="translate(-112.41 379.43) rotate(-67.5)"/><polygon points="218.49 266.89 217.16 266.34 218.28 263.64 219.61 264.19 220.18 262.82 221.51 263.38 219.29 268.74 217.95 268.19 218.49 266.89" class="cls-26"/><rect width="1.46" height="1.46" x="218.71" y="265.72" class="cls-28" transform="translate(549.59 165.69) rotate(112.5)"/><rect width="2.93" height="1.44" x="223.04" y="271.77" class="cls-26" transform="translate(-113.15 375.63) rotate(-67.5)"/><rect width="2.93" height="1.44" x="228.29" y="273.94" class="cls-26" transform="translate(-111.92 381.82) rotate(-67.5)"/><rect width="3.71" height="11.46" x="340.86" y="364.75" class="cls-24" transform="translate(801.12 581.61) rotate(157.5)"/><rect width="3.71" height="12.55" x="323.56" y="370.78" class="cls-24" transform="translate(770.36 600.87) rotate(157.5)"/><rect width="3.71" height="13.07" x="332.02" y="366.74" class="cls-24" transform="translate(785.17 590.36) rotate(157.5)"/><rect width="22.18" height="22.18" x="329.4" y="378.15" class="cls-25" transform="translate(804.02 618.55) rotate(157.5)"/><rect width="19.85" height="19.85" x="330.57" y="379.31" class="cls-24" transform="translate(804.02 618.55) rotate(157.5)"/><rect width="5.59" height="1.39" x="342.91" y="390.2" class="cls-26" transform="translate(814.67 619.74) rotate(157.5)"/><rect width="5.59" height="1.39" x="335.33" y="382.84" class="cls-26" transform="translate(797.27 608.47) rotate(157.5)"/><rect width="5.59" height="1.39" x="335.18" y="393.4" class="cls-26" transform="translate(801.04 628.85) rotate(157.5)"/><polygon points="346.68 389.74 346.16 388.48 345.1 385.93 343.84 386.45 344.9 389 343.61 389.53 344.13 390.79 346.68 389.74" class="cls-27"/><polygon points="337.7 393.45 338.99 392.91 338.47 391.65 337.18 392.19 336.64 390.89 335.38 391.42 335.92 392.71 336.44 393.97 337.7 393.45" class="cls-27"/><rect width="1.38" height="1.38" x="342.94" y="383.49" class="cls-27" transform="translate(808.12 607.62) rotate(157.5)"/><rect width="1.38" height="1.38" x="334.55" y="388.53" class="cls-27" transform="translate(793.92 620.53) rotate(157.5)"/><rect width="4.14" height="1.41" x="345.96" y="383.17" class="cls-27" transform="translate(816.47 605.35) rotate(157.5)"/><rect width="2.88" height="1.41" x="346.11" y="380.36" class="cls-27" transform="translate(814.46 600.11) rotate(157.5)"/><rect width="1.41" height="1.41" x="346.45" y="377.49" class="cls-27" transform="translate(812.62 594.75) rotate(157.5)"/><rect width="4.14" height="1.41" x="329.27" y="390.08" class="cls-27" transform="translate(-124.33 156.55) rotate(-22.5)"/><rect width="2.88" height="1.41" x="328.25" y="387.75" class="cls-27" transform="translate(-123.56 155.74) rotate(-22.5)"/><rect width="1.41" height="1.41" x="327.24" y="385.45" class="cls-27" transform="translate(-122.81 154.89) rotate(-22.5)"/><rect width="3.85" height="11.91" x="284.98" y="372.7" class="cls-24" transform="translate(407.07 838.28) rotate(-157.5)"/><rect width="3.85" height="13.05" x="267.43" y="364.25" class="cls-24" transform="translate(376.31 816.39) rotate(-157.5)"/><rect width="3.85" height="13.59" x="276.42" y="367.41" class="cls-24" transform="translate(392.3 826.44) rotate(-157.5)"/><rect width="23.06" height="23.06" x="259.95" y="379.28" class="cls-25" transform="translate(372.73 855.76) rotate(-157.5)"/><rect width="20.64" height="20.64" x="261.16" y="380.49" class="cls-24" transform="translate(372.73 855.76) rotate(-157.5)"/><rect width="5.81" height="1.44" x="270.34" y="385.81" class="cls-26" transform="translate(377.76 848.21) rotate(-157.5)"/><rect width="4.37" height="1.44" x="273.63" y="385.3" class="cls-26" transform="translate(-186.37 493.12) rotate(-67.5)"/><rect width="4.37" height="1.44" x="269.6" y="383.63" class="cls-26" transform="translate(-187.31 488.36) rotate(-67.5)"/><polygon points="275.66 395.73 276.2 394.42 277.3 391.76 275.99 391.22 274.89 393.87 273.55 393.32 273.01 394.63 275.66 395.73" class="cls-27"/><polygon points="266.33 391.85 267.67 392.41 268.22 391.1 266.87 390.54 267.43 389.2 266.12 388.66 265.56 390 265.02 391.31 266.33 391.85" class="cls-27"/><rect width="1.44" height="1.44" x="276.79" y="388.68" class="cls-27" transform="translate(384.87 855.36) rotate(-157.5)"/><rect width="1.44" height="1.44" x="266.91" y="386.23" class="cls-27" transform="translate(366.81 846.85) rotate(-157.5)"/><rect width="4.31" height="1.46" x="278.81" y="391.68" class="cls-27" transform="translate(390.37 862.47) rotate(-157.5)"/><rect width="2.99" height="1.46" x="281.18" y="389.25" class="cls-27" transform="translate(394.6 858.46) rotate(-157.5)"/><rect width="1.46" height="1.46" x="283.76" y="386.86" class="cls-27" transform="translate(399.01 854.56) rotate(-157.5)"/><rect width="4.31" height="1.46" x="261.46" y="384.49" class="cls-27" transform="translate(167.48 -71.56) rotate(22.5)"/><rect width="2.99" height="1.46" x="262.62" y="381.56" class="cls-27" transform="translate(166.4 -71.97) rotate(22.5)"/><rect width="1.46" height="1.46" x="263.79" y="378.59" class="cls-27" transform="translate(165.29 -72.35) rotate(22.5)"/><polygon points="272.43 395.95 271.88 397.28 274.58 398.4 275.13 397.07 276.5 397.63 277.05 396.3 271.68 394.08 271.13 395.41 272.43 395.95" class="cls-26"/><rect width="1.46" height="1.46" x="272.68" y="394.85" class="cls-28" transform="translate(374.62 865.69) rotate(-157.5)"/><rect width="2.95" height="2.95" x="272.6" y="383.05" class="cls-28" transform="translate(380.14 844.67) rotate(-157.5)"/><polygon points="267.14 393.76 266.59 395.09 263.89 393.97 264.44 392.64 263.07 392.07 263.63 390.74 268.99 392.96 268.44 394.3 267.14 393.76" class="cls-26"/><rect width="1.46" height="1.46" x="265.97" y="392.08" class="cls-28" transform="translate(170.62 -72.16) rotate(22.5)"/><rect width="2.93" height="1.44" x="271.28" y="387.02" class="cls-26" transform="translate(376.34 850.34) rotate(-157.5)"/><rect width="2.93" height="1.44" x="273.45" y="381.78" class="cls-26" transform="translate(382.52 841.08) rotate(-157.5)"/><rect width="3.71" height="11.46" x="368.88" y="263.8" class="cls-24" transform="translate(477.87 -176.12) rotate(67.5)"/><rect width="3.71" height="12.55" x="375.45" y="280.56" class="cls-24" transform="translate(497.91 -171.52) rotate(67.5)"/><rect width="3.71" height="13.07" x="371.67" y="271.85" class="cls-24" transform="translate(487.77 -173.24) rotate(67.5)"/><rect width="22.18" height="22.18" x="378.4" y="260.67" class="cls-25" transform="translate(491.51 -192.08) rotate(67.5)"/><rect width="19.85" height="19.85" x="379.56" y="261.83" class="cls-24" transform="translate(491.51 -192.08) rotate(67.5)"/><rect width="5.59" height="1.39" x="388.35" y="265.86" class="cls-26" transform="translate(487.72 -196.82) rotate(67.5)"/><rect width="5.59" height="1.39" x="380.99" y="273.44" class="cls-26" transform="translate(490.18 -185.34) rotate(67.5)"/><rect width="5.59" height="1.39" x="391.55" y="273.58" class="cls-26" transform="translate(496.83 -195.01) rotate(67.5)"/><polygon points="389.99 265.57 388.73 266.09 386.18 267.15 386.7 268.41 389.25 267.35 389.78 268.64 391.04 268.12 389.99 265.57" class="cls-27"/><polygon points="393.7 274.55 393.16 273.26 391.9 273.78 392.44 275.07 391.14 275.61 391.67 276.87 392.96 276.33 394.22 275.81 393.7 274.55" class="cls-27"/><rect width="1.38" height="1.38" x="383.74" y="267.93" class="cls-27" transform="translate(485.49 -189.34) rotate(67.5)"/><rect width="1.38" height="1.38" x="388.78" y="276.31" class="cls-27" transform="translate(496.35 -188.83) rotate(67.5)"/><rect width="4.14" height="1.41" x="382.05" y="263.52" class="cls-27" transform="translate(481.23 -191.78) rotate(67.5)"/><rect width="2.88" height="1.41" x="379.87" y="264" class="cls-27" transform="translate(479.94 -188.88) rotate(67.5)"/><rect width="1.41" height="1.41" x="377.74" y="264.39" class="cls-27" transform="translate(478.53 -185.99) rotate(67.5)"/><rect width="4.14" height="1.41" x="388.97" y="280.2" class="cls-27" transform="translate(281.16 749.68) rotate(-112.5)"/><rect width="2.88" height="1.41" x="387.26" y="281.85" class="cls-27" transform="translate(276.41 749.8) rotate(-112.5)"/><rect width="1.41" height="1.41" x="385.7" y="283.6" class="cls-27" transform="translate(271.61 750.1) rotate(-112.5)"/><rect width="3.85" height="11.91" x="376.98" y="319.39" class="cls-24" transform="translate(824.49 99.79) rotate(112.5)"/><rect width="3.85" height="13.05" x="369.09" y="336.37" class="cls-24" transform="translate(829.8 131.34) rotate(112.5)"/><rect width="3.85" height="13.59" x="372.53" y="327.11" class="cls-24" transform="translate(826.24 115.73) rotate(112.5)"/><rect width="23.06" height="23.06" x="379.53" y="329.24" class="cls-25" transform="translate(855.55 109.89) rotate(112.5)"/><rect width="20.64" height="20.64" x="380.74" y="330.45" class="cls-24" transform="translate(855.55 109.89) rotate(112.5)"/><rect width="5.81" height="1.44" x="383.88" y="338.29" class="cls-26" transform="translate(848 111.4) rotate(112.5)"/><rect width="4.37" height="1.44" x="384.08" y="335.71" class="cls-26" transform="translate(614.39 795.07) rotate(-157.5)"/><rect width="4.37" height="1.44" x="382.41" y="339.75" class="cls-26" transform="translate(609.62 802.2) rotate(-157.5)"/><polygon points="395.98 336.59 394.67 336.05 392.01 334.95 391.47 336.26 394.12 337.36 393.57 338.7 394.88 339.24 395.98 336.59" class="cls-27"/><polygon points="392.1 345.92 392.66 344.58 391.35 344.03 390.79 345.38 389.45 344.82 388.91 346.13 390.25 346.69 391.56 347.23 392.1 345.92" class="cls-27"/><rect width="1.44" height="1.44" x="388.93" y="334.03" class="cls-27" transform="translate(848.03 102.86) rotate(112.5)"/><rect width="1.44" height="1.44" x="386.48" y="343.9" class="cls-27" transform="translate(853.75 118.78) rotate(112.5)"/><rect width="4.31" height="1.46" x="390.51" y="330.56" class="cls-27" transform="translate(849 95.3) rotate(112.5)"/><rect width="2.99" height="1.46" x="388.74" y="328.84" class="cls-27" transform="translate(844.06 95.17) rotate(112.5)"/><rect width="1.46" height="1.46" x="387.11" y="327.02" class="cls-27" transform="translate(839.07 94.86) rotate(112.5)"/><rect width="4.31" height="1.46" x="383.32" y="347.91" class="cls-27" transform="translate(-84.14 571.35) rotate(-67.5)"/><rect width="2.99" height="1.46" x="381.05" y="347.41" class="cls-27" transform="translate(-85.49 568.34) rotate(-67.5)"/><rect width="1.46" height="1.46" x="378.84" y="347" class="cls-27" transform="translate(-86.95 565.34) rotate(-67.5)"/><polygon points="396.2 339.82 397.53 340.37 398.65 337.67 397.32 337.12 397.88 335.75 396.55 335.2 394.33 340.57 395.66 341.12 396.2 339.82" class="cls-26"/><rect width="1.46" height="1.46" x="395.1" y="338.11" class="cls-28" transform="translate(860.36 102.8) rotate(112.5)"/><rect width="2.95" height="2.95" x="383.3" y="336.7" class="cls-28" transform="translate(844.46 112.1) rotate(112.5)"/><polygon points="394.01 345.11 395.34 345.66 394.22 348.36 392.89 347.81 392.32 349.18 390.99 348.63 393.21 343.26 394.55 343.81 394.01 345.11" class="cls-26"/><rect width="1.46" height="1.46" x="392.33" y="344.81" class="cls-28" transform="translate(-76.6 576.45) rotate(-67.5)"/><rect width="2.93" height="1.44" x="386.53" y="338.79" class="cls-26" transform="translate(850.14 110.98) rotate(112.5)"/><rect width="2.93" height="1.44" x="381.28" y="336.62" class="cls-26" transform="translate(840.88 112.82) rotate(112.5)"/><path d="M319.19,115.61l-.07-21.28H314.7c-11.91,0-23.14,0-29.72.59-5.22.45-10.1,1.2-14.82,1.92-2.17.33-4.33.67-6.5,1L270,144.44c2.45-.33,4.89-.71,7.33-1.08,4.16-.64,8.08-1.24,11.76-1.56s11.61-.39,18.46-.41l.06,17.72a272,272,0,0,1,37.69,2.51l5.93-43.29A313.63,313.63,0,0,0,319.19,115.61Z" class="cls-29"/><g class="cls-30"><rect width="16.1" height="56.43" x="257.38" y="93.97" class="cls-31" transform="translate(-14.47 38.3) rotate(-8.04)"/><path d="M313.43,138.94H309c-11.9,0-23.14,0-29.72.59-5.21.45-10.09,1.2-14.81,1.92-2.17.33-4.34.67-6.51,1l6.3,46.63c2.44-.33,4.89-.7,7.33-1.08,4.15-.63,8.08-1.24,11.76-1.56S295,186,301.81,186l.06,17.72a271.84,271.84,0,0,1,37.68,2.51l10.51-64.36C339.49,140.41,324.12,139.3,313.43,138.94Z" class="cls-31"/></g><path d="M115.86,293.06l-21.28.07c0,1.17,0,2.68,0,4.42,0,11.91,0,23.14.59,29.72.45,5.22,1.2,10.1,1.92,14.82.33,2.17.67,4.33,1,6.5l46.63-6.29c-.33-2.45-.71-4.89-1.08-7.33-.64-4.16-1.24-8.08-1.56-11.76s-.39-11.61-.41-18.46l17.72-.06A272,272,0,0,1,161.87,267l-43.29-5.93A313.63,313.63,0,0,0,115.86,293.06Z" class="cls-29"/><g class="cls-32"><rect width="16.1" height="56.43" x="114.39" y="318.6" class="cls-31" transform="translate(-203.86 516.53) rotate(-98.04)"/><path d="M139.19,298.82h0v4.43c0,11.9,0,23.14.59,29.72.45,5.21,1.2,10.09,1.92,14.81.33,2.17.67,4.34,1,6.51l46.63-6.3c-.33-2.44-.7-4.89-1.08-7.33-.63-4.15-1.24-8.08-1.56-11.76s-.39-11.61-.41-18.46l17.72-.06a271.84,271.84,0,0,1,2.51-37.68l-64.36-10.51C140.66,272.76,139.55,288.13,139.19,298.82Z" class="cls-31"/></g><path d="M293.31,496.39l.07,21.28h4.42c11.91,0,23.14,0,29.72-.59,5.22-.45,10.1-1.2,14.82-1.92,2.17-.33,4.33-.67,6.5-1l-6.29-46.63c-2.45.33-4.89.71-7.33,1.08-4.16.64-8.08,1.24-11.76,1.56s-11.61.39-18.46.41l-.06-17.72a272,272,0,0,1-37.69-2.51l-5.93,43.29A313.63,313.63,0,0,0,293.31,496.39Z" class="cls-29"/><g class="cls-33"><rect width="16.1" height="56.43" x="339.02" y="461.59" class="cls-31" transform="translate(759.2 926.3) rotate(171.96)"/><path d="M299.07,473.06h4.43c11.9,0,23.14,0,29.72-.59,5.21-.45,10.09-1.2,14.81-1.92,2.17-.33,4.34-.67,6.51-1L348.24,423c-2.44.33-4.89.7-7.33,1.08-4.15.63-8.08,1.24-11.76,1.56s-11.61.39-18.46.41l-.06-17.72A271.84,271.84,0,0,1,273,405.78l-10.51,64.36C273,471.59,288.38,472.7,299.07,473.06Z" class="cls-31"/></g><path d="M496.64,318.94l21.28-.07c0-1.17,0-2.68,0-4.42,0-11.91,0-23.14-.59-29.72-.45-5.22-1.2-10.1-1.92-14.82-.33-2.17-.67-4.33-1-6.5l-46.63,6.29c.33,2.45.71,4.89,1.08,7.33.64,4.16,1.24,8.08,1.56,11.76s.39,11.61.41,18.46l-17.72.06A272,272,0,0,1,450.63,345l43.29,5.93A313.63,313.63,0,0,0,496.64,318.94Z" class="cls-29"/><g class="cls-34"><rect width="16.1" height="56.43" x="482.01" y="236.97" class="cls-31" transform="translate(684.14 -257.14) rotate(81.96)"/><path d="M473.31,313.18h0v-4.43c0-11.9,0-23.14-.59-29.72-.45-5.21-1.2-10.09-1.92-14.81-.33-2.17-.67-4.34-1-6.51L423.21,264c.33,2.44.7,4.89,1.08,7.33.63,4.15,1.24,8.08,1.56,11.76s.39,11.61.41,18.46l-17.72.06A271.84,271.84,0,0,1,406,339.3l64.36,10.51C471.84,339.24,473,323.87,473.31,313.18Z" class="cls-31"/></g><path d="M445.39,241.19a208.21,208.21,0,0,0-44.76-56.83L436,144.79a261.4,261.4,0,0,1,56.16,71.31Z" class="cls-29"/><g class="cls-35"><path d="M416.22,266.08a208.06,208.06,0,0,0-44.76-56.84l35.35-39.57A261.4,261.4,0,0,1,463,241Z" class="cls-36"/><rect width="61.05" height="49.91" x="421.04" y="191.61" class="cls-29" transform="translate(320.08 -266.68) rotate(49.16)"/><rect width=".22" height="12.54" x="440.71" y="193.06" class="cls-37" transform="translate(325.45 -270.51) rotate(51.87)"/><rect width="9.56" height="9.56" x="446.35" y="196.02" class="cls-38" transform="translate(330.57 -278.06) rotate(51.87)"/><rect width="4.35" height="1.48" x="445.2" y="203.02" class="cls-38" transform="translate(331.45 -273.97) rotate(51.87)"/><rect width="2.12" height="11.33" x="442.44" y="201.13" class="cls-38" transform="translate(332.36 -269.76) rotate(51.87)"/><rect width="1.63" height="11.33" x="442.1" y="196.61" class="cls-38" transform="translate(916.21 87.93) rotate(141.87)"/><rect width="5.86" height="2.07" x="435.91" y="209.42" class="cls-38" transform="translate(333.45 -264.69) rotate(51.87)"/><rect width="1.92" height="12.81" x="431.46" y="205.37" class="cls-38" transform="translate(560.39 -252.4) rotate(79.32)"/><rect width="1.92" height="12.81" x="435" y="209.88" class="cls-38" transform="translate(126.95 -159.69) rotate(24.2)"/><rect width=".99" height="4.94" x="439.29" y="195.28" class="cls-39" transform="translate(323.82 -270.3) rotate(51.87)"/><rect width=".99" height="4.94" x="443.4" y="193.43" class="cls-39" transform="translate(554.15 -276.61) rotate(79.32)"/><rect width=".99" height="4.94" x="436.19" y="198.77" class="cls-39" transform="translate(169.72 -198.66) rotate(31.53)"/></g><rect width="12.27" height="12.27" x="405.54" y="178.33" class="cls-36" transform="translate(257.74 -239.58) rotate(45.91)"/><rect width="3.92" height=".8" x="409.23" y="181.8" class="cls-40" transform="translate(255.97 -239.92) rotate(45.91)"/><rect width="1.7" height=".8" x="411.23" y="181.65" class="cls-41" transform="translate(256.14 -240.6) rotate(45.91)"/><rect width="2.92" height=".8" x="409.95" y="185.33" class="cls-40" transform="translate(258.57 -239) rotate(45.91)"/><rect width="1.7" height=".8" x="411.1" y="184.82" class="cls-41" transform="translate(258.37 -239.54) rotate(45.91)"/><rect width="4.47" height=".8" x="408.63" y="187.92" class="cls-40" transform="translate(561.46 614.46) rotate(-134.09)"/><rect width="1.7" height=".8" x="408.93" y="187.87" class="cls-41" transform="translate(559.66 613.59) rotate(-134.09)"/><rect width="1.7" height=".8" x="411.06" y="188.06" class="cls-41" transform="translate(563.14 615.45) rotate(-134.09)"/><rect width="1.7" height=".8" x="405.73" y="184.61" class="cls-41" transform="translate(556.58 605.76) rotate(-134.09)"/><rect width="1.7" height=".8" x="407.47" y="180.98" class="cls-41" transform="translate(562.13 600.86) rotate(-134.09)"/><rect width="1.7" height=".8" x="413.3" y="181.51" class="cls-41" transform="translate(571.63 605.96) rotate(-134.09)"/><rect width="1.7" height="1.61" x="413.57" y="184.16" class="cls-41" transform="translate(569.91 611.32) rotate(-134.09)"/><rect width="1.7" height=".93" x="416.47" y="183.61" class="cls-41" transform="translate(575.47 611.9) rotate(-134.09)"/><rect width="12.27" height="12.27" x="475.36" y="206.91" class="cls-29" transform="translate(432.47 -311.19) rotate(60.79)"/><rect width="3.92" height=".8" x="479.65" y="210.34" class="cls-40" transform="translate(430.51 -312.47) rotate(60.79)"/><rect width="1.7" height=".8" x="481.65" y="210.42" class="cls-41" transform="translate(431.04 -313.21) rotate(60.79)"/><rect width="2.92" height=".8" x="479.46" y="213.8" class="cls-40" transform="translate(433.18 -310.09) rotate(60.79)"/><rect width="1.7" height=".8" x="480.72" y="213.45" class="cls-41" transform="translate(433.21 -310.84) rotate(60.79)"/><rect width="4.47" height=".8" x="477.49" y="216.17" class="cls-40" transform="translate(524.81 740.98) rotate(-119.21)"/><rect width="1.7" height=".8" x="477.84" y="215.84" class="cls-41" transform="translate(523.56 739.59) rotate(-119.21)"/><rect width="1.7" height=".8" x="479.84" y="216.57" class="cls-41" transform="translate(525.91 742.43) rotate(-119.21)"/><rect width="1.7" height=".8" x="475.58" y="211.87" class="cls-41" transform="translate(523.67 731.7) rotate(-119.21)"/><rect width="1.7" height=".8" x="478.19" y="208.81" class="cls-41" transform="translate(530.22 729.43) rotate(-119.21)"/><rect width="1.7" height=".8" x="483.69" y="210.82" class="cls-41" transform="translate(536.65 737.23) rotate(-119.21)"/><rect width="1.7" height="1.61" x="483.17" y="213.43" class="cls-41" transform="translate(533.25 741.26) rotate(-119.21)"/><rect width="1.7" height=".93" x="486.2" y="213.66" class="cls-41" transform="translate(537.86 743.74) rotate(-119.21)"/><path d="M220.06,181a208.93,208.93,0,0,0-49.5,52.76l-44.41-29a261.46,261.46,0,0,1,62.11-66.19Z" class="cls-29"/><g class="cls-42"><path d="M249,206.09a208.19,208.19,0,0,0-49.5,52.75l-44.41-29a261.46,261.46,0,0,1,62.11-66.19Z" class="cls-36"/><rect width="61.05" height="49.91" x="164.27" y="153.59" class="cls-29" transform="translate(-67.51 210.44) rotate(-49.44)"/><rect width="5.05" height="11.33" x="183.78" y="182.33" class="cls-43" transform="translate(-78.33 192.82) rotate(-46.3)"/><rect width="3.03" height="10.9" x="179.88" y="184.36" class="cls-44" transform="translate(181.38 -72.74) rotate(43.7)"/><rect width="4.35" height="3.11" x="181.96" y="185.34" class="cls-43" transform="translate(-78.2 190.91) rotate(-46.3)"/><rect width="5.05" height="2.07" x="188.06" y="191.05" class="cls-45" transform="translate(-79.96 197.18) rotate(-46.3)"/><rect width="3.36" height="12.81" x="190.87" y="192.51" class="cls-45" transform="translate(-53.95 72.9) rotate(-18.85)"/><rect width="3.52" height="12.81" x="194.88" y="187.44" class="cls-45" transform="translate(-54.12 309.44) rotate(-69.34)"/><rect width="9.56" height="9.56" x="174.5" y="176.51" class="cls-44" transform="translate(-75.65 185.67) rotate(-46.3)"/></g><rect width="12.27" height="12.27" x="162.88" y="216.65" class="cls-36" transform="translate(-110.62 222.16) rotate(-52.69)"/><rect width="3.92" height=".8" x="164.89" y="223.2" class="cls-46" transform="translate(-112.13 220.76) rotate(-52.69)"/><rect width="1.7" height=".8" x="165.72" y="222.34" class="cls-47" transform="translate(-111.56 220.2) rotate(-52.69)"/><rect width="2.92" height=".8" x="168.85" y="222.45" class="cls-46" transform="translate(-110.17 223.21) rotate(-52.69)"/><rect width="1.7" height=".8" x="168.87" y="222" class="cls-47" transform="translate(-110.04 222.57) rotate(-52.69)"/><rect width="4.47" height=".8" x="170.71" y="222.61" class="cls-46" transform="translate(455.15 220.64) rotate(127.31)"/><rect width="1.7" height=".8" x="172.21" y="223.68" class="cls-47" transform="translate(456.19 222.28) rotate(127.31)"/><rect width="1.7" height=".8" x="172.08" y="221.55" class="cls-47" transform="translate(454.28 218.96) rotate(127.31)"/><rect width="1.7" height=".8" x="169.46" y="227.34" class="cls-47" transform="translate(454.68 230.34) rotate(127.31)"/><rect width="1.7" height=".8" x="165.62" y="226.16" class="cls-47" transform="translate(447.57 231.51) rotate(127.31)"/><rect width="1.7" height=".8" x="165.27" y="220.32" class="cls-47" transform="translate(442.37 222.39) rotate(127.31)"/><rect width="1.7" height="1.61" x="168.24" y="219.19" class="cls-47" transform="translate(446.56 218.86) rotate(127.31)"/><rect width="1.7" height=".93" x="166.93" y="216.79" class="cls-47" transform="translate(442.28 215.51) rotate(127.31)"/><rect width="12.27" height="12.27" x="180.7" y="143.34" class="cls-29" transform="translate(-52.41 145.92) rotate(-37.81)"/><rect width="3.92" height=".8" x="182.58" y="149.31" class="cls-46" transform="translate(-53.03 144.56) rotate(-37.81)"/><rect width="1.7" height=".8" x="183.64" y="148.41" class="cls-47" transform="translate(-52.49 144.34) rotate(-37.81)"/><rect width="2.92" height=".8" x="186.61" y="149.47" class="cls-46" transform="translate(-52.39 146.76) rotate(-37.81)"/><rect width="1.7" height=".8" x="186.77" y="148.88" class="cls-47" transform="translate(-52.12 146.36) rotate(-37.81)"/><rect width="4.47" height=".8" x="188.35" y="150.3" class="cls-46" transform="translate(433.55 152.93) rotate(142.19)"/><rect width="1.7" height=".8" x="189.56" y="151.37" class="cls-47" transform="matrix(-0.79, 0.61, -0.61, -0.79, 433.9, 154.95)"/><rect width="1.7" height=".8" x="189.99" y="149.28" class="cls-47" transform="translate(433.37 150.94) rotate(142.19)"/><rect width="1.7" height=".8" x="185.97" y="154.2" class="cls-47" transform="translate(429.2 162.21) rotate(142.19)"/><rect width="1.7" height=".8" x="182.56" y="152.07" class="cls-47" transform="translate(421.78 160.5) rotate(142.19)"/><rect width="1.7" height=".8" x="183.73" y="146.33" class="cls-47" transform="translate(420.36 149.51) rotate(142.19)"/><rect width="1.7" height="1.61" x="186.78" y="145.99" class="cls-47" transform="translate(425.87 147.74) rotate(142.19)"/><rect width="1.7" height=".93" x="186.22" y="143.35" class="cls-47" transform="translate(423.03 142.75) rotate(142.19)"/><path d="M167.11,370.81a208.21,208.21,0,0,0,44.76,56.83l-35.35,39.57a261.4,261.4,0,0,1-56.16-71.31Z" class="cls-29"/><g class="cls-48"><path d="M196.28,345.92A208.06,208.06,0,0,0,241,402.76l-35.35,39.57A261.4,261.4,0,0,1,149.53,371Z" class="cls-36"/><rect width="61.05" height="49.91" x="130.41" y="370.48" class="cls-29" transform="translate(-32.96 775.79) rotate(-130.84)"/><rect width=".22" height="12.54" x="171.57" y="406.4" class="cls-37" transform="translate(-46.95 802.51) rotate(-128.13)"/><rect width="9.56" height="9.56" x="156.58" y="406.41" class="cls-38" transform="translate(-62.47 792) rotate(-128.13)"/><rect width="4.35" height="1.48" x="162.95" y="407.5" class="cls-38" transform="translate(-54.07 790.19) rotate(-128.13)"/><rect width="2.12" height="11.33" x="167.94" y="399.54" class="cls-38" transform="translate(-45.41 788.32) rotate(-128.13)"/><rect width="1.63" height="11.33" x="168.77" y="404.07" class="cls-38" transform="translate(-216.79 192.12) rotate(-38.13)"/><rect width="5.86" height="2.07" x="170.73" y="400.51" class="cls-38" transform="translate(-35 786.07) rotate(-128.13)"/><rect width="1.92" height="12.81" x="179.12" y="393.83" class="cls-38" transform="translate(-179.84 651.36) rotate(-100.68)"/><rect width="1.92" height="12.81" x="175.58" y="389.31" class="cls-38" transform="translate(175.38 829.03) rotate(-155.8)"/><rect width=".99" height="4.94" x="172.22" y="411.78" class="cls-39" transform="translate(-46.52 805.87) rotate(-128.13)"/><rect width=".99" height="4.94" x="168.11" y="413.62" class="cls-39" transform="translate(-209.04 658.88) rotate(-100.68)"/><rect width=".99" height="4.94" x="175.32" y="408.29" class="cls-39" transform="translate(110.87 852.82) rotate(-148.47)"/></g><rect width="12.27" height="12.27" x="194.69" y="421.4" class="cls-36" transform="translate(33.46 869.25) rotate(-134.09)"/><rect width="3.92" height=".8" x="199.35" y="429.4" class="cls-40" transform="translate(32.66 873.43) rotate(-134.09)"/><rect width="1.7" height=".8" x="199.57" y="429.55" class="cls-41" transform="translate(31.04 873.04) rotate(-134.09)"/><rect width="2.92" height=".8" x="199.63" y="425.87" class="cls-40" transform="translate(34.82 867.29) rotate(-134.09)"/><rect width="1.7" height=".8" x="199.7" y="426.38" class="cls-41" transform="translate(33.54 867.76) rotate(-134.09)"/><rect width="4.47" height=".8" x="199.4" y="423.28" class="cls-40" transform="translate(365.66 -15.93) rotate(45.91)"/><rect width="1.7" height=".8" x="201.87" y="423.33" class="cls-41" transform="translate(366.03 -16.69) rotate(45.91)"/><rect width="1.7" height=".8" x="199.74" y="423.14" class="cls-41" transform="translate(365.25 -15.22) rotate(45.91)"/><rect width="1.7" height=".8" x="205.07" y="426.59" class="cls-41" transform="translate(369.35 -18) rotate(45.91)"/><rect width="1.7" height=".8" x="203.33" y="430.22" class="cls-41" transform="translate(371.42 -15.65) rotate(45.91)"/><rect width="1.7" height=".8" x="197.5" y="429.68" class="cls-41" transform="translate(369.27 -11.62) rotate(45.91)"/><rect width="1.7" height="1.61" x="197.22" y="426.24" class="cls-41" transform="translate(367 -12.35) rotate(45.91)"/><rect width="1.7" height=".93" x="194.32" y="427.46" class="cls-41" transform="translate(366.75 -10) rotate(45.91)"/><rect width="12.27" height="12.27" x="124.87" y="392.81" class="cls-29" transform="translate(-153.28 707.99) rotate(-119.21)"/><rect width="3.92" height=".8" x="128.93" y="400.86" class="cls-40" transform="translate(-155.46 711.33) rotate(-119.21)"/><rect width="1.7" height=".8" x="129.14" y="400.77" class="cls-41" transform="translate(-156.72 710.42) rotate(-119.21)"/><rect width="2.92" height=".8" x="130.13" y="397.39" class="cls-40" transform="translate(-151.4 706.78) rotate(-119.21)"/><rect width="1.7" height=".8" x="130.08" y="397.74" class="cls-41" transform="matrix(-0.49, -0.87, 0.87, -0.49, -152.68, 706.73)"/><rect width="4.47" height=".8" x="130.54" y="395.03" class="cls-40" transform="translate(413.12 86.56) rotate(60.79)"/><rect width="1.7" height=".8" x="132.96" y="395.36" class="cls-41" transform="translate(413.94 85.82) rotate(60.79)"/><rect width="1.7" height=".8" x="130.95" y="394.63" class="cls-41" transform="translate(412.27 87.2) rotate(60.79)"/><rect width="1.7" height=".8" x="135.22" y="399.33" class="cls-41" transform="translate(418.56 85.89) rotate(60.79)"/><rect width="1.7" height=".8" x="132.61" y="402.39" class="cls-41" transform="translate(419.89 89.73) rotate(60.79)"/><rect width="1.7" height=".8" x="127.11" y="400.38" class="cls-41" transform="translate(415.32 93.5) rotate(60.79)"/><rect width="1.7" height="1.61" x="127.62" y="396.96" class="cls-41" transform="translate(412.96 91.51) rotate(60.79)"/><rect width="1.7" height=".93" x="124.59" y="397.41" class="cls-41" transform="translate(411.5 94.21) rotate(60.79)"/><path d="M392.44,431a208.93,208.93,0,0,0,49.5-52.76l44.41,29a261.46,261.46,0,0,1-62.11,66.19Z" class="cls-29"/><g class="cls-49"><path d="M363.47,405.91A208.19,208.19,0,0,0,413,353.16l44.41,29a261.46,261.46,0,0,1-62.11,66.19Z" class="cls-36"/><rect width="61.05" height="49.91" x="387.18" y="408.5" class="cls-29" transform="translate(1018.63 397.96) rotate(130.56)"/><rect width="5.05" height="11.33" x="423.67" y="418.34" class="cls-43" transform="translate(1027.19 408.79) rotate(133.7)"/><rect width="3.03" height="10.9" x="429.59" y="416.73" class="cls-44" transform="translate(451.13 1025.26) rotate(-136.3)"/><rect width="4.35" height="3.11" x="426.19" y="423.55" class="cls-43" transform="translate(1031.66 409.08) rotate(133.7)"/><rect width="5.05" height="2.07" x="419.39" y="418.87" class="cls-45" transform="translate(1016.99 404.96) rotate(133.7)"/><rect width="3.36" height="12.81" x="418.27" y="406.68" class="cls-45" transform="translate(950.87 668.28) rotate(161.15)"/><rect width="3.52" height="12.81" x="414.11" y="411.75" class="cls-45" transform="translate(953.86 176.57) rotate(110.66)"/><rect width="9.56" height="9.56" x="428.43" y="425.93" class="cls-44" transform="translate(1043.9 415.05) rotate(133.7)"/></g><rect width="12.27" height="12.27" x="437.35" y="383.08" class="cls-36" transform="translate(1021.88 272.43) rotate(127.31)"/><rect width="3.92" height=".8" x="443.69" y="388" class="cls-46" transform="translate(1024.7 269.4) rotate(127.31)"/><rect width="1.7" height=".8" x="445.08" y="388.86" class="cls-47" transform="translate(1025.83 270.55) rotate(127.31)"/><rect width="2.92" height=".8" x="440.74" y="388.74" class="cls-46" transform="translate(1019.74 273.34) rotate(127.31)"/><rect width="1.7" height=".8" x="441.93" y="389.2" class="cls-47" transform="translate(1021.04 273.62) rotate(127.31)"/><rect width="4.47" height=".8" x="437.32" y="388.59" class="cls-46" transform="translate(-136.27 502.78) rotate(-52.69)"/><rect width="1.7" height=".8" x="438.59" y="387.51" class="cls-47" transform="translate(-135.46 502.27) rotate(-52.69)"/><rect width="1.7" height=".8" x="438.72" y="389.65" class="cls-47" transform="translate(-137.1 503.21) rotate(-52.69)"/><rect width="1.7" height=".8" x="441.33" y="383.86" class="cls-47" transform="translate(-131.47 503.01) rotate(-52.69)"/><rect width="1.7" height=".8" x="445.18" y="385.03" class="cls-47" transform="translate(-130.89 506.54) rotate(-52.69)"/><rect width="1.7" height=".8" x="445.52" y="390.88" class="cls-47" transform="translate(-135.41 509.11) rotate(-52.69)"/><rect width="1.7" height="1.61" x="442.55" y="391.21" class="cls-47" transform="translate(-137.15 507.04) rotate(-52.69)"/><rect width="1.7" height=".93" x="443.86" y="394.28" class="cls-47" transform="translate(-138.81 509.15) rotate(-52.69)"/><rect width="12.27" height="12.27" x="419.52" y="456.39" class="cls-29" transform="translate(1045.5 567) rotate(142.19)"/><rect width="3.92" height=".8" x="426" y="461.89" class="cls-46" transform="translate(1049.48 565.17) rotate(142.19)"/><rect width="1.7" height=".8" x="427.16" y="462.79" class="cls-47" transform="translate(1050.12 566.75) rotate(142.19)"/><rect width="2.92" height=".8" x="422.97" y="461.72" class="cls-46" transform="translate(1043.06 567.03) rotate(142.19)"/><rect width="1.7" height=".8" x="424.02" y="462.32" class="cls-47" transform="translate(1044.21 567.82) rotate(142.19)"/><rect width="4.47" height=".8" x="419.68" y="460.9" class="cls-46" transform="translate(-194.21 355.5) rotate(-37.81)"/><rect width="1.7" height=".8" x="421.23" y="459.83" class="cls-47" transform="translate(-193.52 355.38) rotate(-37.81)"/><rect width="1.7" height=".8" x="420.81" y="461.92" class="cls-47" transform="translate(-194.9 355.56) rotate(-37.81)"/><rect width="1.7" height=".8" x="424.82" y="457" class="cls-47" transform="translate(-191.04 356.99) rotate(-37.81)"/><rect width="1.7" height=".8" x="428.24" y="459.12" class="cls-47" transform="translate(-191.62 359.53) rotate(-37.81)"/><rect width="1.7" height=".8" x="427.07" y="464.86" class="cls-47" transform="translate(-195.38 360.02) rotate(-37.81)"/><rect width="1.7" height="1.61" x="424.01" y="464.4" class="cls-47" transform="translate(-195.99 358.13) rotate(-37.81)"/><rect width="1.7" height=".93" x="424.58" y="467.72" class="cls-47" transform="translate(-197.7 359.1) rotate(-37.81)"/></g></svg>