<svg xmlns="http://www.w3.org/2000/svg" viewBox="0 0 512 512"><defs><style>.cls-1{fill:#333;}.cls-2{fill:#ffda66;}.cls-3{fill:#d89c3a;}.cls-4{fill:#6f85aa;}.cls-5{fill:#b3b3b3;}.cls-6{fill:#000d23;}.cls-7{fill:#fcee3d;}.cls-8{fill:#8699bc;}.cls-9{fill:#4c668c;}.cls-10{fill:#4d4d4d;}.cls-11{fill:#bdc9e5;}.cls-12{fill:#f2f2f2;}.cls-13,.cls-14{fill:none;stroke-miterlimit:10;}.cls-13{stroke:#7e8ca8;stroke-width:3.49px;}.cls-14{stroke:#000;stroke-linecap:round;stroke-width:1.25px;}</style></defs><title>minion</title><g id="Layer_5" data-name="Layer 5"><ellipse class="cls-1" cx="252.66" cy="464.02" rx="69.64" ry="5.83"/></g><g id="Layer_3" data-name="Layer 3"><path class="cls-2" d="M322.45,269.22c7.25,8,10.29,7,10.29,14.65s-3.13,13.6-8.57,17-7.5,9.78-7.5,9.78-5.77,5.67,6.33,3.17,19.43-13.77,20.09-26.7-2.88-25.3-18.83-35.46S322.45,269.22,322.45,269.22Z"/><path class="cls-3" d="M331.58,278.31l7.79-11.09c-2.87-5.58-7.62-10.83-15.11-15.6-15.95-10.16-1.81,17.6-1.81,17.6C327.17,274.46,330.11,275.86,331.58,278.31Z"/><path d="M323.79,243.69s14.32,9.08,14.12,13.77-7.81,22.43-14.12,23.31S316.67,242,316.67,242l6.32,3.9.8-2.23"/><path class="cls-2" d="M183.22,303.5c-17.1.1-26.81,14.59-27.2,31.52s7.38,24.17,17.11,27.68,1.25-9,1.25-9-8-11.21-8-18.65c0-13,4.6-18,13.25-20.57"/><path d="M178.13,347.12c-4.59,1.12-20.44,12.81-19.4,21.36,4,4,17.73,9.8,20.65,9.8s3.84-30.51,3.84-30.51Z"/><path class="cls-4" d="M212,426.2l10.91,27.29,25.16.09s-1-16.37,1.91-18.09a3.85,3.85,0,0,1,5.67,1.88c.54,1.4,2.79,15.52,2.79,15.52l22.92.6,10.56-28.07-79.47-2.08-.87,5.52"/><path class="cls-5" d="M211.56,464l36.58-.14c2-7.5-.68-12.6-5.71-13.79s-32.91-4.62-30.87,13.93"/><path class="cls-6" d="M211.56,464l36.58-.14c2-7.5-.68-12.6-5.71-13.79s-32.91-4.62-30.87,13.93"/><path class="cls-6" d="M293.18,464l-36.58-.14c-2-7.5.67-12.6,5.7-13.79s32.91-4.62,30.88,13.93"/><path class="cls-7" d="M337.71,298.7a.94.94,0,0,0,0-1.88.94.94,0,0,0,0,1.88Z"/></g><g id="Main"><path class="cls-2" d="M323,129.74a72,72,0,0,0-143.88,0h0v257.2H323V129.74Z"/><path class="cls-8" d="M179.08,386.94a42.24,42.24,0,0,0,42.13,41.92h59.65A42.24,42.24,0,0,0,323,386.94Z"/></g><g id="Layer_7" data-name="Layer 7"><polygon class="cls-3" points="322.99 304.77 282 345.77 274.44 338.21 322.99 289.66 322.99 304.77"/><circle class="cls-3" cx="283.26" cy="336.94" r="3.69"/><polygon class="cls-3" points="179.07 304.77 220.07 345.77 227.62 338.21 179.07 289.66 179.07 304.77"/><circle class="cls-3" cx="217.71" cy="336.2" r="3.69"/><path class="cls-3" d="M322.31,141.18V139.3l-4-2.49A34.87,34.87,0,0,0,311.18,124a3.69,3.69,0,0,0-5-4.74,34.75,34.75,0,0,0-17.67-7,3.68,3.68,0,0,0-7.25,0,35,35,0,0,0-29.94,25,35,35,0,0,0-29.94-25,3.68,3.68,0,0,0-7.25,0,34.64,34.64,0,0,0-18,7.3,3.62,3.62,0,0,0-2.07-.64,3.69,3.69,0,0,0-3.69,3.68,3.59,3.59,0,0,0,.58,2,34.87,34.87,0,0,0-6.78,12.7l-3.4,2.12v1.88h-1.94v14.63h1.94v1.33l4.1,1.72a34.87,34.87,0,0,0,6.46,11,3.61,3.61,0,0,0-1,2.47,3.68,3.68,0,0,0,6.33,2.56,34.81,34.81,0,0,0,17.39,6.84,3.68,3.68,0,0,0,7.28,0,35,35,0,0,0,29.93-25,35,35,0,0,0,29.93,25,3.68,3.68,0,0,0,7.28,0,34.8,34.8,0,0,0,17-6.54,3.69,3.69,0,0,0,5.4-4.89,34.89,34.89,0,0,0,6.75-11.16l4.69-2v-1.33H323V141.18Z"/><path class="cls-9" d="M181.58,386.94a41.8,41.8,0,0,0,4.6,18.86h6a14.48,14.48,0,0,0,14.43-14.43v-4.43Z"/><path class="cls-9" d="M320.5,386.94a41.8,41.8,0,0,1-4.61,18.86h-6a14.47,14.47,0,0,1-14.43-14.43v-4.43Z"/></g><g id="Layer_4" data-name="Layer 4"><path class="cls-8" d="M295.43,387.8c0-.23,0-.46,0-.69V343.52c0-7.6-5.82-13.81-12.94-13.81H219.57c-7.12,0-12.94,6.21-12.94,13.81v43.59c0,.23,0,.46,0,.69Z"/><polygon class="cls-4" points="185.76 154.23 180.75 152.13 180.75 134.3 185.76 131.17 185.76 154.23"/><rect x="176.88" y="136.17" width="3.87" height="14.63"/><rect class="cls-10" x="180.75" y="140.71" width="5.21" height="4.22"/><polygon class="cls-4" points="317.29 154.23 322.31 152.13 322.31 134.3 317.29 131.17 317.29 154.23"/><rect x="322.31" y="136.17" width="3.87" height="14.63" transform="translate(648.48 286.98) rotate(-180)"/><rect class="cls-10" x="317.29" y="140.71" width="5.01" height="5.01"/><circle class="cls-4" cx="217.71" cy="107.81" r="3.69"/><circle class="cls-4" cx="194.04" cy="117.51" r="3.69"/><circle class="cls-4" cx="217.71" cy="176.15" r="3.69"/><circle class="cls-4" cx="194.04" cy="167.28" r="3.69"/><circle class="cls-11" cx="217.71" cy="141.92" r="34.95"/><circle class="cls-1" cx="217.71" cy="141.92" r="20.73"/><circle class="cls-12" cx="217.71" cy="144.47" r="19.99"/><circle class="cls-13" cx="217.71" cy="141.92" r="21.57"/><path d="M223.66,144a8,8,0,0,1-8-8,7.86,7.86,0,0,1,.56-2.92,8.94,8.94,0,1,0,10.35,10.35A7.92,7.92,0,0,1,223.66,144Z"/><circle class="cls-4" cx="284.85" cy="107.81" r="3.69"/><circle class="cls-4" cx="307.79" cy="117.51" r="3.69"/><circle class="cls-4" cx="284.85" cy="176.15" r="3.69"/><circle class="cls-4" cx="307.79" cy="167.28" r="3.69"/><circle class="cls-11" cx="284.85" cy="141.92" r="34.95"/><circle class="cls-1" cx="284.85" cy="141.92" r="20.73"/><circle class="cls-12" cx="284.85" cy="144.47" r="19.99"/><circle class="cls-13" cx="284.85" cy="141.92" r="21.57"/><path d="M290.8,144a8,8,0,0,1-8-8,7.87,7.87,0,0,1,.57-2.92,8.94,8.94,0,1,0,10.35,10.35A8,8,0,0,1,290.8,144Z"/><path class="cls-4" d="M271.19,365.4V349.86H231.61v23.47a13,13,0,0,0,13,13h13.57a13,13,0,0,0,13-13v-7.82S271.19,365.44,271.19,365.4Z"/><polygon class="cls-4" points="179.07 301.64 220.07 342.64 227.62 335.08 179.07 286.53 179.07 301.64"/><circle cx="217.71" cy="333.07" r="3.69"/><polygon class="cls-4" points="322.99 301.64 282 342.64 274.44 335.08 322.99 286.53 322.99 301.64"/><circle cx="283.26" cy="333.82" r="3.69"/><path class="cls-4" d="M179.08,386.94a41.67,41.67,0,0,0,4.6,18.86h6a14.48,14.48,0,0,0,14.44-14.43v-4.43Z"/><path class="cls-4" d="M323,386.94a41.8,41.8,0,0,1-4.6,18.86h-6A14.47,14.47,0,0,1,298,391.37v-4.43Z"/><circle cx="283.26" cy="283.38" r="6.65"/></g><g id="Layer_6" data-name="Layer 6"><path class="cls-14" d="M243.37,40.76c5.72,5.29,7.67,8.65,7.67,18.9"/><path class="cls-14" d="M251,59.66c-2.51-8.14-5.79-11.74-9.86-13.61"/><path class="cls-14" d="M251,59.66c-.63-4.32-6.42-8-8.77-6.81"/><path class="cls-14" d="M259.17,41.66c-8.13,6.11-7.45,8.76-8.13,18"/><path class="cls-14" d="M251,59.66c2.5-8.14,5.78-11.74,9.85-13.61"/><path class="cls-14" d="M251,59.66c.62-4.32,6.41-8,8.76-6.81"/></g></svg>