<svg xmlns="http://www.w3.org/2000/svg" xmlns:xlink="http://www.w3.org/1999/xlink" viewBox="0 0 512 512"><defs><style>.cls-1,.cls-11,.cls-12,.cls-18,.cls-19,.cls-5{fill:none;}.cls-2{fill:#d89a68;}.cls-3{fill:#ce8142;}.cls-4{fill:#9b6132;}.cls-12,.cls-5{stroke:#000;}.cls-11,.cls-12,.cls-18,.cls-19,.cls-25,.cls-5,.cls-8{stroke-miterlimit:10;}.cls-5{stroke-width:3.36px;}.cls-6{fill:#ffe9cc;}.cls-7{fill:#7e7e7e;}.cls-8{fill:#bcbcbc;stroke-width:1.58px;}.cls-11,.cls-8{stroke:#5e5e5e;}.cls-9{opacity:0.22;}.cls-10{clip-path:url(#clip-path);}.cls-11{stroke-width:0.53px;}.cls-12{stroke-width:1.48px;}.cls-13{fill:#f66;}.cls-14{fill:#f99;}.cls-15{fill:#141259;}.cls-16{fill:#a5efed;}.cls-17{fill:#ffc7de;}.cls-18{stroke:#18000d;}.cls-18,.cls-19{stroke-width:0.25px;}.cls-19{stroke:#010011;}.cls-20{font-size:5.9px;font-family:Novecentosanswide-Normal, Novecento sans wide;}.cls-21{fill:#edd3b7;}.cls-22{fill:#c2e6ff;}.cls-23{fill:#000930;}.cls-24,.cls-25{fill:#333;}.cls-25{stroke:#bfbfbf;stroke-width:1.89px;}.cls-26{fill:#4d8440;}</style><clipPath id="clip-path"><path class="cls-1" d="M322.55,227.77H271.83a1,1,0,0,1-1-.85l-1.15-13.11a1,1,0,0,1,1-1h53a1,1,0,0,1,1,1l-1.15,13.11A1,1,0,0,1,322.55,227.77Z"/></clipPath></defs><title>workspace</title><g id="Desk"><rect class="cls-2" x="231.87" y="95.4" width="50.79" height="301.89" transform="translate(503.61 -10.92) rotate(90)"/><rect class="cls-2" x="285.37" y="272.23" width="121.44" height="185.15"/><rect class="cls-3" x="106.32" y="53.98" width="7.88" height="217.76"/><rect class="cls-3" x="281.43" y="264.29" width="7.88" height="193.1"/><rect class="cls-3" x="402.88" y="264.29" width="7.88" height="193.1"/><rect class="cls-3" x="102.13" y="264.29" width="7.88" height="193.1"/><rect class="cls-3" x="400.33" y="53.98" width="7.88" height="217.76"/><rect class="cls-3" x="245.97" y="-69.74" width="22.34" height="302.14" transform="translate(338.47 -175.82) rotate(90)"/><rect class="cls-4" x="253.46" y="81.16" width="7.62" height="301.89" transform="translate(489.37 -25.16) rotate(90)"/><rect class="cls-4" x="253.46" y="109.53" width="7.62" height="317.13" transform="translate(525.36 10.83) rotate(90)"/><rect class="cls-4" x="190.19" y="212.63" width="11.07" height="171.42" transform="translate(494.06 102.62) rotate(90)"/><rect class="cls-4" x="253.53" y="-61.66" width="7.62" height="285.98" transform="translate(338.67 -176.01) rotate(90)"/><rect class="cls-4" x="289.31" y="292.81" width="113.56" height="42.69"/><rect class="cls-4" x="289.31" y="274.78" width="113.56" height="15.81"/><rect class="cls-2" x="110.01" y="271.9" width="171.42" height="20.9"/><rect class="cls-4" x="289.31" y="338.12" width="113.56" height="44.58"/><rect class="cls-4" x="289.31" y="385.32" width="113.56" height="69.33"/></g><g id="Items_on_Desk" data-name="Items on Desk"><g id="Computer"><line class="cls-5" x1="178.94" y1="202.96" x2="186.9" y2="223.47"/><rect x="138.39" y="118.37" width="141.61" height="87.83" rx="3" ry="3"/><path d="M277,118.49a2.89,2.89,0,0,1,2.88,2.88V203.2a2.88,2.88,0,0,1-2.88,2.88H141.39a2.88,2.88,0,0,1-2.88-2.88V121.37a2.89,2.89,0,0,1,2.88-2.88H277m0-.24H141.39a3.12,3.12,0,0,0-3.12,3.12V203.2a3.12,3.12,0,0,0,3.12,3.12H277a3.12,3.12,0,0,0,3.12-3.12V121.37a3.12,3.12,0,0,0-3.12-3.12Z"/><rect class="cls-6" x="140.62" y="120.76" width="137.15" height="77.15"/><rect x="184.54" y="218.54" width="54.57" height="9.75"/><line class="cls-5" x1="237.43" y1="223.47" x2="245.39" y2="202.96"/></g><g id="Speaker"><rect class="cls-7" x="285.37" y="211.56" width="3.41" height="0.91"/><rect class="cls-7" x="296.14" y="211.56" width="3.41" height="0.91"/><rect class="cls-7" x="301.53" y="211.56" width="3.41" height="0.91"/><rect class="cls-7" x="306.91" y="211.56" width="3.41" height="0.91"/><rect class="cls-7" x="290.76" y="211.56" width="3.41" height="0.91"/><path class="cls-8" d="M322.55,227.77H271.83a1,1,0,0,1-1-.85l-1.15-13.11a1,1,0,0,1,1-1h53a1,1,0,0,1,1,1l-1.15,13.11A1,1,0,0,1,322.55,227.77Z"/><g class="cls-9"><g class="cls-10"><line class="cls-11" x1="321.17" y1="200.06" x2="292.67" y2="228.56"/><line class="cls-11" x1="319.67" y1="200.06" x2="291.17" y2="228.56"/><line class="cls-11" x1="318.17" y1="200.06" x2="289.67" y2="228.56"/><line class="cls-11" x1="316.67" y1="200.06" x2="288.17" y2="228.56"/><line class="cls-11" x1="315.17" y1="200.06" x2="286.67" y2="228.56"/><line class="cls-11" x1="313.67" y1="200.06" x2="285.17" y2="228.56"/><line class="cls-11" x1="312.17" y1="200.06" x2="283.67" y2="228.56"/><line class="cls-11" x1="330.18" y1="200.06" x2="301.68" y2="228.56"/><line class="cls-11" x1="310.67" y1="200.06" x2="282.17" y2="228.56"/><line class="cls-11" x1="309.17" y1="200.06" x2="280.67" y2="228.56"/><line class="cls-11" x1="328.68" y1="200.06" x2="300.18" y2="228.56"/><line class="cls-11" x1="307.67" y1="200.06" x2="279.17" y2="228.56"/><line class="cls-11" x1="306.17" y1="200.06" x2="277.67" y2="228.56"/><line class="cls-11" x1="304.67" y1="200.06" x2="276.17" y2="228.56"/><line class="cls-11" x1="303.17" y1="200.06" x2="274.67" y2="228.56"/><line class="cls-11" x1="349.68" y1="200.06" x2="321.18" y2="228.56"/><line class="cls-11" x1="348.18" y1="200.06" x2="319.68" y2="228.56"/><line class="cls-11" x1="345.18" y1="200.06" x2="316.68" y2="228.56"/><line class="cls-11" x1="342.18" y1="200.06" x2="313.68" y2="228.56"/><line class="cls-11" x1="339.18" y1="200.06" x2="310.68" y2="228.56"/><line class="cls-11" x1="336.18" y1="200.06" x2="307.68" y2="228.56"/><line class="cls-11" x1="333.18" y1="200.06" x2="304.68" y2="228.56"/><line class="cls-11" x1="327.18" y1="200.06" x2="298.68" y2="228.56"/><line class="cls-11" x1="301.67" y1="200.06" x2="273.17" y2="228.56"/><line class="cls-11" x1="298.67" y1="200.06" x2="270.17" y2="228.56"/><line class="cls-11" x1="295.67" y1="200.06" x2="267.17" y2="228.56"/><line class="cls-11" x1="292.67" y1="200.06" x2="264.17" y2="228.56"/><line class="cls-11" x1="289.67" y1="200.06" x2="261.17" y2="228.56"/><line class="cls-11" x1="286.66" y1="200.06" x2="258.16" y2="228.56"/><line class="cls-11" x1="283.66" y1="200.06" x2="255.16" y2="228.56"/><line class="cls-11" x1="325.68" y1="200.06" x2="297.18" y2="228.56"/><line class="cls-11" x1="346.68" y1="200.06" x2="318.18" y2="228.56"/><line class="cls-11" x1="343.68" y1="200.06" x2="315.18" y2="228.56"/><line class="cls-11" x1="340.68" y1="200.06" x2="312.18" y2="228.56"/><line class="cls-11" x1="337.68" y1="200.06" x2="309.18" y2="228.56"/><line class="cls-11" x1="334.68" y1="200.06" x2="306.18" y2="228.56"/><line class="cls-11" x1="331.68" y1="200.06" x2="303.18" y2="228.56"/><line class="cls-11" x1="324.18" y1="200.06" x2="295.68" y2="228.56"/><line class="cls-11" x1="300.17" y1="200.06" x2="271.67" y2="228.56"/><line class="cls-11" x1="297.17" y1="200.06" x2="268.67" y2="228.56"/><line class="cls-11" x1="294.17" y1="200.06" x2="265.67" y2="228.56"/><line class="cls-11" x1="291.17" y1="200.06" x2="262.67" y2="228.56"/><line class="cls-11" x1="288.17" y1="200.06" x2="259.66" y2="228.56"/><line class="cls-11" x1="285.16" y1="200.06" x2="256.66" y2="228.56"/><line class="cls-11" x1="322.68" y1="200.06" x2="294.17" y2="228.56"/><line class="cls-11" x1="270.28" y1="200.06" x2="298.78" y2="228.56"/><line class="cls-11" x1="271.78" y1="200.06" x2="300.28" y2="228.56"/><line class="cls-11" x1="273.28" y1="200.06" x2="301.78" y2="228.56"/><line class="cls-11" x1="274.78" y1="200.06" x2="303.28" y2="228.56"/><line class="cls-11" x1="276.28" y1="200.06" x2="304.78" y2="228.56"/><line class="cls-11" x1="277.78" y1="200.06" x2="306.28" y2="228.56"/><line class="cls-11" x1="279.28" y1="200.06" x2="307.78" y2="228.56"/><line class="cls-11" x1="261.27" y1="200.06" x2="289.77" y2="228.56"/><line class="cls-11" x1="280.78" y1="200.06" x2="309.28" y2="228.56"/><line class="cls-11" x1="282.28" y1="200.06" x2="310.78" y2="228.56"/><line class="cls-11" x1="262.77" y1="200.06" x2="291.27" y2="228.56"/><line class="cls-11" x1="283.78" y1="200.06" x2="312.28" y2="228.56"/><line class="cls-11" x1="285.28" y1="200.06" x2="313.78" y2="228.56"/><line class="cls-11" x1="286.78" y1="200.06" x2="315.28" y2="228.56"/><line class="cls-11" x1="288.28" y1="200.06" x2="316.78" y2="228.56"/><line class="cls-11" x1="241.77" y1="200.06" x2="270.27" y2="228.56"/><line class="cls-11" x1="243.27" y1="200.06" x2="271.77" y2="228.56"/><line class="cls-11" x1="246.27" y1="200.06" x2="274.77" y2="228.56"/><line class="cls-11" x1="249.27" y1="200.06" x2="277.77" y2="228.56"/><line class="cls-11" x1="252.27" y1="200.06" x2="280.77" y2="228.56"/><line class="cls-11" x1="255.27" y1="200.06" x2="283.77" y2="228.56"/><line class="cls-11" x1="258.27" y1="200.06" x2="286.77" y2="228.56"/><line class="cls-11" x1="264.27" y1="200.06" x2="292.77" y2="228.56"/><line class="cls-11" x1="289.78" y1="200.06" x2="318.28" y2="228.56"/><line class="cls-11" x1="292.78" y1="200.06" x2="321.28" y2="228.56"/><line class="cls-11" x1="295.78" y1="200.06" x2="324.28" y2="228.56"/><line class="cls-11" x1="298.78" y1="200.06" x2="327.28" y2="228.56"/><line class="cls-11" x1="301.78" y1="200.06" x2="330.29" y2="228.56"/><line class="cls-11" x1="304.79" y1="200.06" x2="333.29" y2="228.56"/><line class="cls-11" x1="307.79" y1="200.06" x2="336.29" y2="228.56"/><line class="cls-11" x1="265.77" y1="200.06" x2="294.27" y2="228.56"/><line class="cls-11" x1="244.77" y1="200.06" x2="273.27" y2="228.56"/><line class="cls-11" x1="247.77" y1="200.06" x2="276.27" y2="228.56"/><line class="cls-11" x1="250.77" y1="200.06" x2="279.27" y2="228.56"/><line class="cls-11" x1="253.77" y1="200.06" x2="282.27" y2="228.56"/><line class="cls-11" x1="256.77" y1="200.06" x2="285.27" y2="228.56"/><line class="cls-11" x1="259.77" y1="200.06" x2="288.27" y2="228.56"/><line class="cls-11" x1="267.27" y1="200.06" x2="295.77" y2="228.56"/><line class="cls-11" x1="291.28" y1="200.06" x2="319.78" y2="228.56"/><line class="cls-11" x1="294.28" y1="200.06" x2="322.78" y2="228.56"/><line class="cls-11" x1="297.28" y1="200.06" x2="325.78" y2="228.56"/><line class="cls-11" x1="300.28" y1="200.06" x2="328.78" y2="228.56"/><line class="cls-11" x1="303.29" y1="200.06" x2="331.79" y2="228.56"/><line class="cls-11" x1="306.29" y1="200.06" x2="334.79" y2="228.56"/><line class="cls-11" x1="268.77" y1="200.06" x2="297.28" y2="228.56"/></g></g></g><path d="M380.63,68.61c-7.2,3.09-9,7.42-9.75,9.76-.69,2.11-1.24,11,2.17,13.63l5.37,1.74L386,70.36Z"/><path class="cls-12" d="M422.05,95c2.68-8.26,8.35-33.3-15.23-40.95S373.13,70,370.45,78.23"/><path d="M419.48,81.22l-5.38-1.75-7.58,23.39,5.38,1.74c4.31-.15,9.07-7.65,9.75-9.75C422.41,92.51,423.5,88,419.48,81.22Z"/><rect class="cls-13" x="388.52" y="151.01" width="5.52" height="77.68" transform="translate(744.17 444.04) rotate(-170.12)"/><rect class="cls-14" x="380.01" y="150.9" width="6.81" height="77.68" transform="translate(47.96 -75.73) rotate(12.03)"/><rect class="cls-15" x="362.89" y="177.23" width="9.23" height="51.58" transform="translate(629.99 530.71) rotate(-157.61)"/></g><g id="Layer_5" data-name="Layer 5"><path class="cls-16" d="M249.83,152.09c-.37,0-.67-1.18-.67-2.64s.3-2.64.67-2.64.68,1.18.68,2.64S250.21,152.09,249.83,152.09Z"/><path class="cls-16" d="M240.85,149.45c0-1.46.3-2.64.67-2.64s.68,1.18.68,2.64-.3,2.64-.68,2.64S240.85,150.91,240.85,149.45Z"/><ellipse class="cls-17" cx="239.36" cy="153.91" rx="1.19" ry="0.61"/><polygon class="cls-18" points="212.34 194.31 208.51 194.31 208.51 128.92 273.9 128.92 273.9 194.31 270.58 194.31 252.96 194.31 247.57 194.31 240.1 194.31 234.6 194.31 222.41 194.31 212.34 194.31"/><path class="cls-18" d="M239.66,140.23a22.51,22.51,0,0,0-2.31,8.46c-.49,5.34.46,10.18,1,10.76h0a3.73,3.73,0,0,0,1.25.69,9.83,9.83,0,0,0,9.56-1.48,10.94,10.94,0,0,0,1-.87,9.48,9.48,0,0,0,2.3-3.67c1.33-4-.42-8-1.63-9.85a88.83,88.83,0,0,0-5.65-6.88c-1.54,3.12-5.14,9-7.85,11.29l-.13.11"/><path class="cls-18" d="M231.37,143.67c-.25,3.26.49,11.68,1.84,13.64"/><path class="cls-18" d="M227.49,156.39l.09.05"/><path class="cls-18" d="M226.33,145.39c-1.91,3.93-.45,10,1.15,11"/><path class="cls-18" d="M229.28,149.45c-.46,2.55,0,6.46,1.52,8.16h0"/><path class="cls-18" d="M253.79,145.82c3.3,3,6.74,6.89,7.08,8.36.29,1.23-2.31,7.74-5,10.6a5,5,0,0,1-1.58,1.2,4.42,4.42,0,0,1-.47.15,38.53,38.53,0,0,1-5.17.76"/><path class="cls-18" d="M223.14,151.26l-.31.12c-4,1.75-5.39,7.47-5.47,8.39s2.93,5.2,9.17,6l.49.05a56.39,56.39,0,0,0,11,0l.9-.09"/><path class="cls-18" d="M245.16,165.38h0"/><path class="cls-18" d="M223.14,151.27c-.24,1.64,3,10.88,15.77,14.49a8.7,8.7,0,0,0,2.38.31,11.45,11.45,0,0,0,3.86-.68"/><path class="cls-18" d="M245.51,158.67c2.14-1.3,2-3.54,1.5-3.6s-2.57-.34-3,0c-.68.52-.77,2-.77,2.3"/><path class="cls-18" d="M253.65,151.27c.54,5.39,3.65,8.87-5,15.62"/><path class="cls-19" d="M227,165.81a35.11,35.11,0,0,0-4.36,6.34,4.17,4.17,0,0,0-.39.94"/><path class="cls-18" d="M234.6,194.31c4.13-5,8.72-12.09,10.23-17.22a10.2,10.2,0,0,0,.51-3.46c0-.13,0-.25,0-.38-1-6.84-.33-7.75-.15-7.86h0l-.49-.62a19.77,19.77,0,0,0-5.05-4.6c-.39-.24-.81-.47-1.25-.69a14.11,14.11,0,0,0-4.89-1.41,19.33,19.33,0,0,1-2.72-.44,13.4,13.4,0,0,1-3.17-1.14l0,0a.19.19,0,0,1-.09-.05h0a8.69,8.69,0,0,1-4.34-5.11h0a11.94,11.94,0,0,1-.5-2.49c-.49-5.28,10-17.15,16.6-17.08,10.2.09,13.08,7.86,13.7,8.78a20,20,0,0,1,.85,5.35,27,27,0,0,1-.14,5.44h0a7.13,7.13,0,0,1-.65,2.18,2.45,2.45,0,0,1-.52.68"/><path class="cls-18" d="M222.66,172.15c-1.18,0-7.23,4.25-9.4,6.51.38,2.37,2.49,6.09,5,9.81,1.35,2,2.82,4,4.18,5.84"/><path class="cls-18" d="M238.17,166h0c-3.39,3.47-8.13,8.91-8.83,11.15s1.4,3.61,2.21,4.51c-1.92.78-2.5,1-2.42,2.21s.36,3.36,2.21,3.41,3.16-.54,3.21-2.05a3.76,3.76,0,0,0-.42-2.18c3.28-.37,4.39-2.82,5.09-4.87s2.46-11.63,2.09-12"/><path class="cls-18" d="M247.2,169.69a12.14,12.14,0,0,0-.59,3.93,16.91,16.91,0,0,0,.43,3.52c.09.43.18.84.26,1.24.24,1.11.43,2.16.59,3.16.91,5.55.75,9.39-.32,12.77,0,0,0,0,0,0"/><path class="cls-18" d="M253.13,153.53c-.5,4-.19,7.43-2.87,11.44-.08.12-.22.27-.39.47a14.83,14.83,0,0,0-1.22,1.45,10.33,10.33,0,0,0-1.44,2.79"/><path class="cls-18" d="M249.22,158.67a13.65,13.65,0,0,1-2.61,4.57,6.78,6.78,0,0,1-.71.71,4.75,4.75,0,0,1-1.19.8"/><path class="cls-18" d="M247.3,178.38c2.79,7.12,6.89,13.51,8.37,14.25s5.73-1.23,6.8-2c.66-.45,1.89-2.56,2.84-5a19.84,19.84,0,0,0,1.25-4.65c.5-3.89-7.45-13.39-10.69-16.19l0,0"/><path class="cls-18" d="M265.31,185.62c2.71,2.82,5.08,6.56,5.27,8.69v0"/><path class="cls-18" d="M247.89,181.54c2.69,7.08,4.41,9.41,5.07,12.77"/><path class="cls-19" d="M241.52,160.65a18.26,18.26,0,0,0,4.38,3.3"/><path class="cls-18" d="M246.61,163.24a12.34,12.34,0,0,1,3.26,2.2"/><path class="cls-18" d="M253.86,166.07a.21.21,0,0,1,0,.06c-2.39,3.53-2.09,10.52,2.64,11a.23.23,0,0,0,.18-.06,4,4,0,0,1,2.24-1.12c1.56-.22,3.19,1.49,2.85,2.85-.38,1.53-.84,1.95-2.36,2.51a2.54,2.54,0,0,1-3.33-2,.15.15,0,0,0-.15-.15c-4.71-.48-6.88-.33-8-4-1.06-3.49-.73-5.26-.69-5.45h0"/><path class="cls-18" d="M244.83,177.09c.16,2.95-2.67,13.15-4.73,17.22"/><path class="cls-18" d="M218.23,188.47c-2.59,2-2.76,2.95-5.89,5.84"/><rect class="cls-18" x="210.66" y="130.39" width="7.74" height="7.74"/><text class="cls-20" transform="translate(212.16 135.92)">Q</text></g><g id="Mars"><path class="cls-21" d="M290.91,265.73c2.51,7-4.42,11.23-11.05,12.62-5.32,1.13-12.39-15-17.18-27.11,7.32-1.68,14.65-3.66,21.06-5.65C286.57,252.66,289.34,261.33,290.91,265.73Z"/><path class="cls-22" d="M129.43,247.66l-5.34-1.51c9.19-43.48,10-34.87,13.94-52.59,2.3-10.29,6.64-17,18.93-18.19,9.63-.9,8.34-3.91,25.94-4.53,1.7-.06,4.47.73,7.83,1.53a47.23,47.23,0,0,0,12.34,1.69,77.5,77.5,0,0,0,13.64-1.65c4.64-.94,8.09-1.9,10.62-1.78,10.95.54,14.26-1,22.63,3.51,22.14,11.88,21.33,17.6,24.8,26.63,2.28,5.92,7,16,14.54,43-1.75.6-3.61,1.21-5.56,1.81-6.41,2-13.74,4-21.06,5.65-1.65.38-3.31.75-4.95,1.09-5.13-9.9-10.2-21.39-10.29-28.12-2.46,18.44-5.2,52.53-5.53,67.61s5.53,37,5.53,41.86c0,.75,0,1.53.1,2.33-35.25,2.52-63.23-2.11-90-9.41,2.41-8.62,3.17-23,4.18-31,1.19-9.5-.38-50.09.13-82.21-.32,11-4.45,29.44-7.18,40.68-1.2-.23-2.55-.51-4-.85C145,251.94,137.45,249.92,129.43,247.66Z"/><path class="cls-21" d="M245,120.77c5.53,2.63,5.75,7.1,4.05,9-5.47,6.29-5.05,9.84-8.89,9.7a5.06,5.06,0,0,1-2.34-.63A62,62,0,0,0,245,120.77Z"/><path class="cls-21" d="M247.6,455.87c4.51,1,7.49,4.18-3.35,6.78-10.25,2.46-21.64,4-26.55.13-2.11-1.65-4.79-1.48-5.9-6.89-1.46-7.14-.37-17.14-.61-18-1.73-6.46-3.2-32-2.36-54.4a194.19,194.19,0,0,0,25.46-.87c-.94,21-1.43,40.53-2.16,55.51-.62,12.87-1.61,14.55,3.5,15C238.58,453.33,240.56,454.34,247.6,455.87Z"/><path class="cls-23" d="M208.83,383.47c-4.41-.08-8.94-.25-13.42-.48-9.22-.49-18.22-1.26-25.52-2.16a111.09,111.09,0,0,1-13.11-2.23c-14.13-3.71-4.36-40.68-.72-47.93a22.74,22.74,0,0,0,1.5-4.07c26.75,7.3,54.73,11.93,90,9.41,1.15,14.47,11.63,38.15-4.58,44.72a36.59,36.59,0,0,1-8.67,1.87A194.19,194.19,0,0,1,208.83,383.47Z"/><path class="cls-24" d="M204.76,67.51c25.21,0,44.89,20.65,41.58,45.64-.35,2.69-.81,5.22-1.36,7.62a16.94,16.94,0,0,0-1.59-.65l-7.75,15.79a4.79,4.79,0,0,0,2.16,3c-4.05,6.81-9.18,12.35-14.87,17.63a20.27,20.27,0,0,1-2.07,1.7A72.81,72.81,0,0,0,204,154.88c-15.33-1.32-11.58.37-18,2.73h0c-.5-.39-1-.8-1.46-1.25a63.68,63.68,0,0,1-13.14-17,4.66,4.66,0,0,0,3.33-3.44L167,120.12a14.22,14.22,0,0,0-2.56,1.16q-1.39-5.13-2.49-11.08C157.4,85.4,179.55,67.51,204.76,67.51Z"/><path class="cls-24" d="M243.39,120.12a16.94,16.94,0,0,1,1.59.65,62,62,0,0,1-7.18,18.12,4.79,4.79,0,0,1-2.16-3Z"/><path class="cls-21" d="M220.86,158.22l-.09.07c-4.28,3-9.25,4-16,4-8.08,0-13.8-.86-18.74-4.68h0c6.43-2.36,2.68-4.05,18-2.73A72.81,72.81,0,0,1,220.86,158.22Z"/><path class="cls-21" d="M220.77,158.29a101.15,101.15,0,0,0-4.06,14.12,77.5,77.5,0,0,1-13.64,1.65,47.23,47.23,0,0,1-12.34-1.69c-.47-4.92-1.9-10.89-4.71-14.76,4.94,3.82,10.66,4.68,18.74,4.68C211.52,162.29,216.49,161.32,220.77,158.29Z"/><path class="cls-21" d="M195.41,383c.88,22.47-.59,48.38-2.34,54.88-.24.88.85,10.88-.61,18-1.11,5.41-3.79,5.24-5.9,6.89-4.91,3.83-16.3,2.33-26.55-.13-10.84-2.6-5.13-9.67-.62-10.65,7-1.54,5.7-1.32,8.65-1.56,5.12-.43,4.71.54,4.09-12.33-.75-15.4-1.25-35.58-2.24-57.28C177.19,381.73,186.19,382.5,195.41,383Z"/><path class="cls-24" d="M167,120.12l7.76,15.79a4.66,4.66,0,0,1-3.33,3.44,86,86,0,0,1-7-18.07A14.22,14.22,0,0,1,167,120.12Z"/><path class="cls-21" d="M164.42,121.28a86,86,0,0,0,7,18.07,6,6,0,0,1-1.18.17c-3.84.14-3.42-3.41-8.89-9.7C159.75,128,159.84,124,164.42,121.28Z"/><path class="cls-21" d="M150.66,253.22c-2.08,13.06-3.27,19.65-5.66,26.62-2.31,6.75-11.94,2.46-16.21-.33-4-2.65-.92-19.25.64-31.85C137.45,249.92,145,251.94,150.66,253.22Z"/></g><g id="Chair"><circle class="cls-25" cx="121.81" cy="486.85" r="6.14"/><circle class="cls-25" cx="281.6" cy="486.85" r="6.14"/><circle class="cls-25" cx="201" cy="492.99" r="6.14"/><path class="cls-26" d="M290.42,382.75c0,11.26-28.85,24.14-88.35,24.14s-87.2-12.88-87.2-24.14,27.69-3.67,87.2-3.67S290.42,371.49,290.42,382.75Z"/><path class="cls-26" d="M202.07,219.71c-82.65,0-92.06,59.55-87.37,85.34,8,43.75,69.66,49.92,87.37,49.92s79.41-6.17,87.37-49.92C294.13,279.26,284.71,219.71,202.07,219.71Z"/><path d="M202.07,342c-7.7,0-21.16,2.63-20.44,24.67s-6.58,43.94-10.09,43.94c-3.71,0-7.42-22.36-7.42-43.42,0-31.5-19.42-38.05-22-56.94s27.81-23.61,60-23.61,62.61,4.72,60,23.61-22,25.44-22,56.94c0,24.7-4.17,44.6-7.88,44.6-3.31,0-10.35-23.09-9.63-45.12S209.77,342,202.07,342Z"/><path d="M266.52,401.08c-2.27,4.49-29.47,12.79-63.88,12.79s-67-8.56-64.29-12.79c2.88-4.46,29.89-1.83,64.29-1.83S269.28,395.65,266.52,401.08Z"/><path d="M202.07,401.05c-6.39,0-10.46-4.1-10.46,4.95s.13,34.24-10.1,45.26-34.24,14.17-46.83,15.35-19,3.41-19.81,6.49c-2.23,7.94.4,7,11.28,7.42,2.88.12,6.28-3.5,10.62-3.94,18.22-1.84,44.65-5.57,55.06-9.09,1.22-.42,1.49,18.54,3.85,19.58s5.39,2.58,8.92,1S211,467.25,211,467.25c10.68,2.63,37.91,7.49,56.12,9.33,4.35.44,7.74,4.06,10.63,3.94,10.87-.46,13.51.52,11.28-7.42-.87-3.08-7.22-5.31-19.81-6.49s-36.6-4.33-46.83-15.35S212.31,415.05,212.31,406s-3.85-4.95-10.24-4.95"/></g></svg>