<svg xmlns="http://www.w3.org/2000/svg" viewBox="0 0 1024 739.01"><defs><style>.cls-1{fill:#fff;}.cls-2{fill:lime;}.cls-3{fill:#fbb03b;}.cls-4{fill:#ff1d25;}.cls-5{fill:#b7cc54;}.cls-6{fill:#75b5f8;}.cls-7{fill:#b3b3b3;}.cls-8{fill:#e4a797;}.cls-12,.cls-13,.cls-14,.cls-9{fill:none;}.cls-9{stroke:#fff5e1;stroke-width:5px;}.cls-12,.cls-13,.cls-9{stroke-miterlimit:10;}.cls-10{fill:#4f8cdb;}.cls-11{fill:#fd6c79;}.cls-12{stroke:#4f8cdb;}.cls-13{stroke:#b7cc54;}.cls-14{stroke:#e4a797;stroke-linejoin:round;fill-rule:evenodd;}</style></defs><title>game-web</title><g id="game"><rect class="cls-1" x="71" y="59.24" width="507" height="370"/><path d="M575,62.24v364H74v-364H575m6-6H68v376H581v-376Z"/><circle class="cls-2" cx="516.98" cy="74.72" r="8.64"/><circle class="cls-3" cx="539.17" cy="74.72" r="8.64"/><circle class="cls-4" cx="561.36" cy="74.72" r="8.64"/><path d="M96.47,73.06l0,.56c0,.52,0,1.07-.07,1.63a12.87,12.87,0,0,1-.25,1.65,8,8,0,0,1-.5,1.5,4.34,4.34,0,0,1-.85,1.24,3.84,3.84,0,0,1-1.26.85,4.64,4.64,0,0,1-5.73-1.79A6.32,6.32,0,0,1,87,76.58a11.52,11.52,0,0,1-.25-2.43A11.77,11.77,0,0,1,87,71.73a6.63,6.63,0,0,1,.83-2.18A4.75,4.75,0,0,1,89.37,68a4.83,4.83,0,0,1,3.87-.38,4.11,4.11,0,0,1,1.24.66,5.32,5.32,0,0,1,1,1,5.78,5.78,0,0,1,.72,1.29L92.8,71.82a2,2,0,0,0-.09-.42,1.66,1.66,0,0,0-.19-.43,1.4,1.4,0,0,0-.31-.33.62.62,0,0,0-.41-.14,1,1,0,0,0-.68.22,1.64,1.64,0,0,0-.43.59,3.25,3.25,0,0,0-.24.8,6.55,6.55,0,0,0-.1.89c0,.29,0,.58,0,.84v.62c0,.23,0,.52,0,.89a7.5,7.5,0,0,0,.14,1.06,2.42,2.42,0,0,0,.38.88.9.9,0,0,0,.78.37.91.91,0,0,0,.58-.18,1.32,1.32,0,0,0,.38-.46,2.08,2.08,0,0,0,.2-.61,4.3,4.3,0,0,0,.05-.61H91.58V73.06Z"/><path d="M101.75,71.29a4.39,4.39,0,0,1,1.89.38,3.78,3.78,0,0,1,1.33,1,4.36,4.36,0,0,1,.77,1.52,6.68,6.68,0,0,1,0,3.62,4.4,4.4,0,0,1-.77,1.51,3.67,3.67,0,0,1-1.33,1,4.87,4.87,0,0,1-3.77,0,3.59,3.59,0,0,1-1.33-1,4.24,4.24,0,0,1-.77-1.51,6.68,6.68,0,0,1,0-3.62,4.2,4.2,0,0,1,.77-1.52,3.69,3.69,0,0,1,1.33-1A4.38,4.38,0,0,1,101.75,71.29Zm0,2.53a.6.6,0,0,0-.49.22,1.37,1.37,0,0,0-.27.54,3.19,3.19,0,0,0-.13.71c0,.26,0,.51,0,.74s0,.47,0,.73a3.09,3.09,0,0,0,.13.71,1.37,1.37,0,0,0,.27.54.6.6,0,0,0,.49.22.62.62,0,0,0,.5-.22,1.37,1.37,0,0,0,.27-.54,3.74,3.74,0,0,0,.13-.71c0-.26,0-.5,0-.73s0-.48,0-.74a3.89,3.89,0,0,0-.13-.71,1.37,1.37,0,0,0-.27-.54A.62.62,0,0,0,101.75,73.82Z"/><path d="M111.26,71.29a4.46,4.46,0,0,1,1.89.38,3.75,3.75,0,0,1,1.32,1,4.38,4.38,0,0,1,.78,1.52,6.68,6.68,0,0,1,0,3.62,4.43,4.43,0,0,1-.78,1.51,3.64,3.64,0,0,1-1.32,1,4.89,4.89,0,0,1-3.78,0,3.64,3.64,0,0,1-1.32-1,4.43,4.43,0,0,1-.78-1.51,6.68,6.68,0,0,1,0-3.62,4.38,4.38,0,0,1,.78-1.52,3.75,3.75,0,0,1,1.32-1A4.46,4.46,0,0,1,111.26,71.29Zm0,2.53a.59.59,0,0,0-.49.22,1.53,1.53,0,0,0-.28.54,5,5,0,0,0-.13.71c0,.26,0,.51,0,.74s0,.47,0,.73a4.73,4.73,0,0,0,.13.71,1.53,1.53,0,0,0,.28.54.66.66,0,0,0,1,0,1.53,1.53,0,0,0,.28-.54,4.73,4.73,0,0,0,.13-.71c0-.26,0-.5,0-.73s0-.48,0-.74a5,5,0,0,0-.13-.71,1.53,1.53,0,0,0-.28-.54A.59.59,0,0,0,111.26,73.82Z"/><path d="M124.88,80.62a4.33,4.33,0,0,1-1,3.16,4.2,4.2,0,0,1-3.16,1,5.73,5.73,0,0,1-1.53-.19,3.33,3.33,0,0,1-1.23-.58,3.16,3.16,0,0,1-.86-1,3.94,3.94,0,0,1-.42-1.5h3.44a.75.75,0,0,0,.19.51.63.63,0,0,0,.5.23.55.55,0,0,0,.59-.42,4.18,4.18,0,0,0,.12-1.13V79.52h0a2.07,2.07,0,0,1-.8.84,2.25,2.25,0,0,1-1.16.33,2.17,2.17,0,0,1-1.44-.47,3.65,3.65,0,0,1-.92-1.17,5.44,5.44,0,0,1-.48-1.51,9.07,9.07,0,0,1-.14-1.48,8.08,8.08,0,0,1,.26-2,7.35,7.35,0,0,1,.35-1,3.47,3.47,0,0,1,.54-.89,2.66,2.66,0,0,1,.76-.62,2.14,2.14,0,0,1,1-.23,1.81,1.81,0,0,1,1.21.41,4.13,4.13,0,0,1,.82,1l0,0-.07-1.15h3.44Zm-4.08-2.7a.51.51,0,0,0,.41-.18,1.18,1.18,0,0,0,.24-.46,3.5,3.5,0,0,0,.1-.62c0-.23,0-.45,0-.67s0-.47,0-.7a3.78,3.78,0,0,0-.1-.63,1.18,1.18,0,0,0-.24-.46.53.53,0,0,0-.41-.17.53.53,0,0,0-.41.16,1,1,0,0,0-.24.44,2.87,2.87,0,0,0-.12.61c0,.23,0,.46,0,.7s0,.43,0,.65a4.17,4.17,0,0,0,.12.65,1.49,1.49,0,0,0,.24.49A.5.5,0,0,0,120.8,77.92Z"/><path d="M126.71,80.57V66.85h3.37V80.57Z"/><path d="M139.73,77.49a3.81,3.81,0,0,1-1.39,2.43,4.2,4.2,0,0,1-2.63.84,4.76,4.76,0,0,1-1.84-.33,3.55,3.55,0,0,1-1.32-1,4,4,0,0,1-.78-1.45,6.22,6.22,0,0,1-.26-1.83,6,6,0,0,1,.28-1.87,4.63,4.63,0,0,1,.81-1.56A3.93,3.93,0,0,1,134,71.7a4,4,0,0,1,1.85-.41,3.81,3.81,0,0,1,1.81.41,3.59,3.59,0,0,1,1.25,1.07,4.39,4.39,0,0,1,.82,1.89,12.57,12.57,0,0,1,.17,2.07h-5a3.54,3.54,0,0,0,0,.45,1.65,1.65,0,0,0,.11.45.85.85,0,0,0,.24.35.6.6,0,0,0,.42.15.71.71,0,0,0,.49-.18.87.87,0,0,0,.25-.46Zm-3.28-2.58a1.87,1.87,0,0,0,0-.4,1.35,1.35,0,0,0-.14-.37.72.72,0,0,0-.25-.27.63.63,0,0,0-.74,0,.73.73,0,0,0-.24.28,1.13,1.13,0,0,0-.12.38,2.64,2.64,0,0,0,0,.38Z"/><path d="M153.71,71.39a4.61,4.61,0,0,0-.73-.56,1.89,1.89,0,0,0-.91-.19,1.85,1.85,0,0,0-1.13.33,2.49,2.49,0,0,0-.69.85,3.87,3.87,0,0,0-.36,1.12,7.8,7.8,0,0,0-.09,1.14,8.12,8.12,0,0,0,.09,1.18,3.8,3.8,0,0,0,.35,1.11,2.29,2.29,0,0,0,.68.83,1.77,1.77,0,0,0,1.08.32,2.26,2.26,0,0,0,1-.21,3.94,3.94,0,0,0,.84-.61l-.2,3.63a5.1,5.1,0,0,1-1,.35,4.58,4.58,0,0,1-1.08.12,5,5,0,0,1-2-.42,4.63,4.63,0,0,1-1.69-1.24,6.1,6.1,0,0,1-1.15-2.06,8.83,8.83,0,0,1-.43-2.91,9.49,9.49,0,0,1,.3-2.53,6.56,6.56,0,0,1,.79-1.83,4.76,4.76,0,0,1,1.11-1.23,5.46,5.46,0,0,1,1.26-.74,5.62,5.62,0,0,1,1.22-.37,5.93,5.93,0,0,1,1-.11,6.84,6.84,0,0,1,.91.07,4.59,4.59,0,0,1,.88.24Z"/><path d="M160.37,80.57V76a4.13,4.13,0,0,0-.09-1,.48.48,0,0,0-.53-.37.57.57,0,0,0-.39.12.63.63,0,0,0-.21.33,1.86,1.86,0,0,0-.09.5c0,.19,0,.39,0,.6v4.37h-3.38V66.85h3.38l0,4.94q0,.34,0,.69c0,.23,0,.46,0,.69l0,0a3.05,3.05,0,0,1,.35-.7,3.11,3.11,0,0,1,.52-.62,2.8,2.8,0,0,1,.68-.43,1.85,1.85,0,0,1,.78-.16,2.32,2.32,0,0,1,1.2.28,2.13,2.13,0,0,1,.74.75,3,3,0,0,1,.38,1.05,6.89,6.89,0,0,1,.11,1.21v6Z"/><path d="M171.31,75.06l-.5-.22a1.27,1.27,0,0,0-.45-.11,1.23,1.23,0,0,0-.75.21,1.35,1.35,0,0,0-.43.52,2.06,2.06,0,0,0-.19.69,6.23,6.23,0,0,0,0,.74v3.68h-3.38V71.48H169l-.19,1.74,0,0a3.4,3.4,0,0,1,.92-1.42,2.15,2.15,0,0,1,1.58-.54Z"/><path d="M176.71,71.29a4.39,4.39,0,0,1,1.89.38,3.78,3.78,0,0,1,1.33,1,4.36,4.36,0,0,1,.77,1.52,6.68,6.68,0,0,1,0,3.62,4.4,4.4,0,0,1-.77,1.51,3.67,3.67,0,0,1-1.33,1,4.87,4.87,0,0,1-3.77,0,3.59,3.59,0,0,1-1.33-1,4.24,4.24,0,0,1-.77-1.51,6.68,6.68,0,0,1,0-3.62,4.2,4.2,0,0,1,.77-1.52,3.69,3.69,0,0,1,1.33-1A4.38,4.38,0,0,1,176.71,71.29Zm0,2.53a.6.6,0,0,0-.49.22,1.37,1.37,0,0,0-.27.54,3.19,3.19,0,0,0-.13.71c0,.26,0,.51,0,.74s0,.47,0,.73a3.09,3.09,0,0,0,.13.71,1.37,1.37,0,0,0,.27.54.6.6,0,0,0,.49.22.59.59,0,0,0,.49-.22,1.26,1.26,0,0,0,.28-.54,3.74,3.74,0,0,0,.13-.71c0-.26,0-.5,0-.73s0-.48,0-.74a3.89,3.89,0,0,0-.13-.71,1.26,1.26,0,0,0-.28-.54A.59.59,0,0,0,176.71,73.82Z"/><path d="M185.74,73l0,0a3,3,0,0,1,.85-1.22,2,2,0,0,1,1.39-.49,2.17,2.17,0,0,1,1.51.53,3.36,3.36,0,0,1,.87,1.35h0a3.12,3.12,0,0,1,.3-.73,2.35,2.35,0,0,1,.48-.6,1.94,1.94,0,0,1,.62-.4,2.09,2.09,0,0,1,.81-.15,2,2,0,0,1,1.87.88,4.4,4.4,0,0,1,.55,2.37v6h-3.37V75.65c0-.09,0-.2,0-.33a1.28,1.28,0,0,0-.07-.35.75.75,0,0,0-.16-.29.41.41,0,0,0-.3-.12.56.56,0,0,0-.46.17,1.32,1.32,0,0,0-.2.43,2.25,2.25,0,0,0-.07.52v4.89H187v-5a2,2,0,0,0-.1-.62.4.4,0,0,0-.42-.31.57.57,0,0,0-.46.18,1.09,1.09,0,0,0-.23.44,2.42,2.42,0,0,0-.07.54v4.8h-3.37V71.48h3.41Z"/><path d="M204.7,77.49a3.81,3.81,0,0,1-1.39,2.43,4.18,4.18,0,0,1-2.63.84,4.76,4.76,0,0,1-1.84-.33,3.55,3.55,0,0,1-1.32-1,4,4,0,0,1-.78-1.45,6.22,6.22,0,0,1-.26-1.83,6,6,0,0,1,.28-1.87,4.48,4.48,0,0,1,.82-1.56,3.9,3.9,0,0,1,1.34-1.07,4,4,0,0,1,1.85-.41,3.81,3.81,0,0,1,1.81.41,3.71,3.71,0,0,1,1.26,1.07,4.49,4.49,0,0,1,.81,1.89,12.57,12.57,0,0,1,.17,2.07h-5c0,.14,0,.29,0,.45a2.12,2.12,0,0,0,.11.45.85.85,0,0,0,.24.35.6.6,0,0,0,.42.15.71.71,0,0,0,.49-.18.81.81,0,0,0,.25-.46Zm-3.28-2.58a1.87,1.87,0,0,0,0-.4,1.09,1.09,0,0,0-.14-.37.72.72,0,0,0-.25-.27.59.59,0,0,0-.37-.12.61.61,0,0,0-.37.12.73.73,0,0,0-.24.28,1.89,1.89,0,0,0-.12.38,2.64,2.64,0,0,0,0,.38Z"/><rect class="cls-5" x="74" y="91.95" width="507" height="122.38"/><path d="M575,62.24v364H74v-364H575m6-6H68v376H581v-376Z"/><circle class="cls-6" cx="179.5" cy="280.08" r="37.17"/><rect class="cls-7" x="231.25" y="257.78" width="274.92" height="17.42"/><rect class="cls-7" x="231.25" y="284.95" width="168.5" height="17.42"/><circle class="cls-8" cx="179.5" cy="366.74" r="37.17"/><rect class="cls-7" x="231.25" y="344.45" width="274.92" height="17.42"/><rect class="cls-7" x="231.25" y="371.62" width="168.5" height="17.42"/><line class="cls-9" x1="266.67" y1="130.12" x2="309" y2="174.78"/><line class="cls-9" x1="353.75" y1="148.7" x2="307.67" y2="174.12"/><circle class="cls-10" cx="266.67" cy="130.12" r="12.67"/><circle class="cls-10" cx="307.67" cy="174.12" r="9"/><circle class="cls-10" cx="353.75" cy="148.7" r="10.83"/></g><g id="code"><rect class="cls-1" x="473" y="231.24" width="507" height="370"/><path d="M977,234.24v364H476v-364H977m6-6H470v376H983v-376Z"/><rect class="cls-1" x="473" y="263.53" width="147" height="337.71"/><path d="M617,266.53V598.24H476V266.53H617m6-6H470V604.24H623V260.53Z"/><path d="M510.79,315h-2.46v-.9h3.58v5.5h-1.12Zm-.37-2.77a.84.84,0,0,1,1.67,0,.84.84,0,0,1-1.67,0Z"/><path d="M515.08,314.11H516l.09.88h0a2.8,2.8,0,0,1,2-1c1.28,0,1.87.79,1.87,2.22v3.41h-1.12v-3.26c0-1-.32-1.41-1.14-1.41a2.12,2.12,0,0,0-1.56.88v3.79h-1.13Z"/><path d="M521.48,316.87a2.63,2.63,0,0,1,2.46-2.89,2.23,2.23,0,0,1,1.58.67h0l0-1v-2.06h1.12v8h-.92l-.08-.68h0a2.57,2.57,0,0,1-1.73.81C522.42,319.74,521.48,318.69,521.48,316.87Zm4,1.21v-2.6a1.82,1.82,0,0,0-1.3-.57c-.86,0-1.56.75-1.56,1.95s.56,1.95,1.47,1.95A1.84,1.84,0,0,0,525.49,318.08Z"/><path d="M528.32,316.85a2.77,2.77,0,0,1,2.82-2.87,2.38,2.38,0,0,1,2.53,2.59,4.38,4.38,0,0,1,0,.61H529.1v-.82h3.82l-.24.27c0-1.19-.58-1.78-1.51-1.78a1.78,1.78,0,0,0-1.75,2,1.86,1.86,0,0,0,2,2,3,3,0,0,0,1.6-.49l.4.71a3.93,3.93,0,0,1-2.14.65A2.79,2.79,0,0,1,528.32,316.85Z"/><path d="M537,316.76l-1.89-2.65h1.22l.79,1.12c.19.31.41.63.63.93h0c.19-.3.4-.63.58-.94l.73-1.11h1.18l-1.91,2.75,2.06,2.75h-1.23l-.87-1.17-.7-1h0l-.64,1-.8,1.16H535Z"/><path d="M543.45,318.69a1,1,0,1,1,1,1.05A1,1,0,0,1,543.45,318.69Z"/><path d="M548.7,316.87a2.87,2.87,0,0,1,3.09-2.89,2.84,2.84,0,0,1,2,.79l-.54.7a2.2,2.2,0,0,0-1.43-.57,1.88,1.88,0,0,0-2,2,1.86,1.86,0,0,0,2,1.95,2.61,2.61,0,0,0,1.63-.64l.48.72a3.36,3.36,0,0,1-2.2.84A2.78,2.78,0,0,1,548.7,316.87Z"/><path d="M555.33,318.89l.5-.73a3.92,3.92,0,0,0,2.34.72c.84,0,1.25-.33,1.25-.74s-.23-.64-1.61-.92-2.14-.81-2.14-1.64.83-1.6,2.35-1.6a4.24,4.24,0,0,1,2.26.71l-.53.7a3.27,3.27,0,0,0-1.83-.56c-.81,0-1.13.32-1.13.7s.44.6,1.52.83c1.78.39,2.23.85,2.23,1.71s-.89,1.67-2.51,1.67A5,5,0,0,1,555.33,318.89Z"/><path d="M562.08,318.89l.5-.73a3.92,3.92,0,0,0,2.34.72c.84,0,1.25-.33,1.25-.74s-.23-.64-1.62-.92-2.13-.81-2.13-1.64.83-1.6,2.35-1.6a4.24,4.24,0,0,1,2.26.71l-.53.7a3.27,3.27,0,0,0-1.83-.56c-.82,0-1.13.32-1.13.7s.44.6,1.51.83c1.79.39,2.24.85,2.24,1.71s-.89,1.67-2.51,1.67A4.92,4.92,0,0,1,562.08,318.89Z"/><path d="M638.59,281.41v-.88l4.52-3v1.12L639.62,281v0l3.49,2.31v1.13Z"/><path d="M647,284.09a1,1,0,1,1,1,1A.94.94,0,0,1,647,284.09Zm.41-5.93,0-1.24h1.19l0,1.24-.16,3.93h-.79Z"/><path d="M652.56,277.1h2c2.34,0,3.67,1.34,3.67,3.89s-1.33,4-3.61,4h-2.06Zm1.92,6.87c1.64,0,2.51-1,2.51-3s-.87-2.91-2.51-2.91h-.72V284Z"/><path d="M659.31,281c0-2.56,1.26-4,3.05-4s3.06,1.48,3.06,4-1.26,4.1-3.06,4.1S659.31,283.59,659.31,281Zm4.87,0c0-1.89-.72-3-1.82-3s-1.81,1.09-1.81,3,.72,3.05,1.81,3.05S664.18,282.92,664.18,281Z"/><path d="M666.71,281c0-2.55,1.52-4.09,3.58-4.09a3.07,3.07,0,0,1,2.21,1l-.68.76a2.06,2.06,0,0,0-1.53-.67c-1.4,0-2.33,1.14-2.33,3s.93,3,2.35,3a2.15,2.15,0,0,0,1.67-.82l.68.73a3.08,3.08,0,0,1-2.47,1.14C668.25,285.09,666.71,283.62,666.71,281Z"/><path d="M676.16,278.11h-2.53v-1h6.27v1h-2.53V285h-1.21Z"/><path d="M683.36,282.19l-2.61-5.09H682l1.07,2.21c.28.61.55,1.2.85,1.82h0c.29-.62.59-1.21.87-1.82l1-2.21h1.24l-2.6,5.09V285h-1.21Z"/><path d="M688.7,277.1h2.48c1.73,0,3,.59,3,2.36s-1.24,2.49-3,2.49h-1.27v3H688.7Zm2.37,3.89c1.26,0,1.87-.49,1.87-1.53s-.63-1.4-1.87-1.4h-1.16V281Z"/><path d="M696.07,277.1H701v1h-3.75v2.23h3.17v1h-3.17v2.59h3.87v1h-5.07Z"/><path d="M710.22,276.45h1.19v2.25l-.07,1.32h0A2.84,2.84,0,0,1,713.5,279c1.37,0,2,.84,2,2.37V285h-1.2v-3.48c0-1-.34-1.49-1.21-1.49a2.29,2.29,0,0,0-1.67.93v4h-1.19Z"/><path d="M718.74,282.63V280h-1.62v-.89l1.67-.06.15-1.86h1v1.86h2.77v1h-2.77v2.6c0,1,.36,1.49,1.42,1.49a3.66,3.66,0,0,0,1.33-.25l.25.87a5.28,5.28,0,0,1-1.86.34C719.32,285.09,718.74,284.1,718.74,282.63Z"/><path d="M724.19,279.09h.93l.09.76h0a1.43,1.43,0,0,1,1.32-.9c.56,0,.93.33,1.09,1a1.46,1.46,0,0,1,1.35-1c.83,0,1.31.66,1.31,1.83V285h-1.17v-4.09c0-.59-.16-.89-.54-.89s-.56.27-.84.81V285h-1v-4.09c0-.59-.15-.89-.53-.89s-.59.27-.85.81V285h-1.16Z"/><path d="M733.59,282.9v-5.5h-2v-.95h3.21V283a1,1,0,0,0,1.1,1.14,2.59,2.59,0,0,0,1.05-.24l.29.88a3.76,3.76,0,0,1-1.62.34C734.3,285.09,733.59,284.31,733.59,282.9Z"/><path d="M739.22,283.3l3.49-2.31v0l-3.49-2.32v-1.12l4.52,3v.88l-4.52,3Z"/><path class="cls-11" d="M638.59,295.81v-.88l4.52-3V293l-3.49,2.31v0l3.49,2.31v1.13Z"/><path class="cls-11" d="M645.42,290.85h1.19v2.25l-.07,1.32h0a2.84,2.84,0,0,1,2.12-1.07c1.37,0,2,.84,2,2.37v3.63H649.5v-3.48c0-1-.35-1.49-1.22-1.49a2.29,2.29,0,0,0-1.67.93v4h-1.19Z"/><path class="cls-11" d="M653.94,297v-2.58h-1.62v-.9l1.67-.06.15-1.86h1v1.86h2.77v1h-2.77V297c0,1,.36,1.49,1.42,1.49a3.72,3.72,0,0,0,1.34-.25l.24.87a5.27,5.27,0,0,1-1.86.35C654.52,299.5,653.94,298.5,653.94,297Z"/><path class="cls-11" d="M659.39,293.49h.93l.1.76h0a1.43,1.43,0,0,1,1.32-.9c.56,0,.93.33,1.09,1a1.47,1.47,0,0,1,1.35-1c.83,0,1.31.66,1.31,1.83v4.17h-1.16v-4.09c0-.59-.17-.89-.55-.89s-.56.27-.83.81v4.17h-1v-4.09c0-.59-.15-.89-.53-.89s-.59.27-.85.81v4.17h-1.16Z"/><path class="cls-11" d="M668.79,297.3v-5.5h-2v-.95H670v6.52a1,1,0,0,0,1.1,1.14,2.59,2.59,0,0,0,1-.24l.29.88a3.77,3.77,0,0,1-1.62.35C669.5,299.5,668.79,298.71,668.79,297.3Z"/><path class="cls-11" d="M683.19,297.3v-5.5h-2v-.95h3.21v6.52a1,1,0,0,0,1.1,1.14,2.59,2.59,0,0,0,1-.24l.29.88a3.77,3.77,0,0,1-1.62.35C683.9,299.5,683.19,298.71,683.19,297.3Z"/><path class="cls-11" d="M688.47,297.8c0-1.31,1.19-2,4.15-2.18a1.29,1.29,0,0,0-1.48-1.3,4.19,4.19,0,0,0-2,.65l-.45-.79a5.23,5.23,0,0,1,2.65-.83,2.22,2.22,0,0,1,2.45,2.47v3.53h-1l-.1-.76h0a3.83,3.83,0,0,1-2.24.91A1.78,1.78,0,0,1,688.47,297.8Zm4.15,0v-1.37c-2.3.16-3,.62-3,1.32s.53.84,1.16.84A3,3,0,0,0,692.62,297.76Z"/><path class="cls-11" d="M695.82,293.49h1l.1.94h.05a2.93,2.93,0,0,1,2.15-1.08c1.38,0,2,.84,2,2.37v3.63H699.9v-3.48c0-1-.35-1.49-1.22-1.49a2.27,2.27,0,0,0-1.67.93v4h-1.19Z"/><path class="cls-11" d="M702.77,300.4a1.56,1.56,0,0,1,1-1.27v0a1.08,1.08,0,0,1-.6-1,1.42,1.42,0,0,1,.7-1.09v0a1.84,1.84,0,0,1-.74-1.52,2.17,2.17,0,0,1,2.36-2.1,2.68,2.68,0,0,1,.89.14h2.41v.93h-1.43a1.66,1.66,0,0,1,.43,1.08,2.05,2.05,0,0,1-2.3,2,2.52,2.52,0,0,1-.94-.2.74.74,0,0,0-.41.62c0,.42.41.61,1.16.61h1.25c1.52,0,2.27.4,2.27,1.4s-1.29,2.07-3.31,2.07C703.79,302,702.77,301.44,702.77,300.4Zm4.85-.27c0-.51-.42-.65-1.26-.65h-1a3.25,3.25,0,0,1-.89-.09c-.49.27-.66.57-.66.87,0,.57.64.91,1.8.91S707.62,300.68,707.62,300.13Zm-1-4.68a1.23,1.23,0,1,0-1.23,1.28A1.21,1.21,0,0,0,706.67,295.45Z"/><path class="cls-11" d="M710.14,293.64h5.25v.88h-5.25Zm0,2.63h5.25v.87h-5.25Z"/><path class="cls-11" d="M717.8,292.55l0-1.43h1.5l0,1.43-.34,2.73h-.78Zm2.87,0,0-1.43h1.5l0,1.43-.34,2.73H721Z"/><path class="cls-11" d="M725,292.55l0-1.43h1.5l0,1.43-.34,2.73h-.78Zm2.87,0,0-1.43h1.5l0,1.43-.34,2.73h-.78Z"/><path class="cls-11" d="M732,297.7l3.49-2.31v0L732,293v-1.13l4.52,3v.88l-4.52,3Z"/><path d="M638.59,324.61v-.88l4.52-3v1.12l-3.49,2.32v0l3.49,2.31v1.13Z"/><path d="M645.42,319.65h1.19v2.25l-.07,1.32h0a2.84,2.84,0,0,1,2.12-1.07c1.37,0,2,.84,2,2.37v3.63H649.5v-3.48c0-1-.35-1.49-1.22-1.49a2.29,2.29,0,0,0-1.67.93v4h-1.19Z"/><path d="M652.34,325.21a3,3,0,0,1,3-3.06,2.54,2.54,0,0,1,2.7,2.76,3.51,3.51,0,0,1-.06.65h-4.82v-.87h4.08L657,325c0-1.27-.62-1.91-1.61-1.91a1.9,1.9,0,0,0-1.87,2.14,2,2,0,0,0,2.17,2.15,3.19,3.19,0,0,0,1.71-.52l.42.76a4.16,4.16,0,0,1-2.29.69A3,3,0,0,1,652.34,325.21Z"/><path d="M659.67,326.6c0-1.31,1.19-2,4.15-2.18a1.29,1.29,0,0,0-1.48-1.3,4.1,4.1,0,0,0-2,.66l-.45-.8a5.23,5.23,0,0,1,2.65-.83,2.22,2.22,0,0,1,2.45,2.47v3.53h-1l-.1-.76h0a3.82,3.82,0,0,1-2.24.9A1.77,1.77,0,0,1,659.67,326.6Zm4.15,0v-1.37c-2.3.16-3,.62-3,1.32s.53.84,1.16.84A3,3,0,0,0,663.82,326.56Z"/><path d="M666.65,325.23a2.8,2.8,0,0,1,2.61-3.08,2.38,2.38,0,0,1,1.69.71h0l-.05-1v-2.18h1.19v8.5h-1l-.1-.73h0a2.69,2.69,0,0,1-1.84.87C667.65,328.29,666.65,327.17,666.65,325.23Zm4.27,1.29v-2.78a2,2,0,0,0-1.39-.6c-.91,0-1.66.8-1.66,2.08s.59,2.08,1.57,2.08A1.94,1.94,0,0,0,670.92,326.52Z"/><path d="M674.42,326.5l3.49-2.31v0l-3.49-2.32v-1.12l4.52,3v.88l-4.52,3Z"/><path d="M653,339v-.88l4.52-3v1.12L654,338.54v0l3.49,2.31V342Z"/><path d="M661.14,340.23v-2.59h-1.62v-.89l1.67-.06.15-1.86h1v1.86h2.77v.95h-2.77v2.6c0,1,.36,1.49,1.42,1.49a3.72,3.72,0,0,0,1.34-.25l.24.87a5.28,5.28,0,0,1-1.86.34C661.72,342.69,661.14,341.7,661.14,340.23Z"/><path d="M669.63,337.64H667v-.95h3.82v5.86h-1.2Zm-.39-2.94a.89.89,0,0,1,1.78,0,.89.89,0,0,1-1.78,0Z"/><path d="M675.54,340.23v-2.59h-1.62v-.89l1.67-.06.15-1.86h1v1.86h2.77v.95h-2.77v2.6c0,1,.36,1.49,1.42,1.49a3.72,3.72,0,0,0,1.34-.25l.24.87a5.28,5.28,0,0,1-1.86.34C676.12,342.69,675.54,341.7,675.54,340.23Z"/><path d="M683.19,340.5V335h-2v-.95h3.21v6.52a1,1,0,0,0,1.1,1.14,2.59,2.59,0,0,0,1-.24l.29.88a3.76,3.76,0,0,1-1.62.34C683.9,342.69,683.19,341.91,683.19,340.5Z"/><path d="M688.34,339.61a3,3,0,0,1,3-3.06,2.54,2.54,0,0,1,2.7,2.76,4.66,4.66,0,0,1-.06.65h-4.82v-.87h4.08l-.26.29c0-1.27-.62-1.91-1.61-1.91a1.9,1.9,0,0,0-1.87,2.14,2,2,0,0,0,2.16,2.15,3.19,3.19,0,0,0,1.72-.52l.42.76a4.16,4.16,0,0,1-2.29.69A3,3,0,0,1,688.34,339.61Z"/><path d="M696,340.9l3.49-2.31v0L696,336.23v-1.12l4.52,3V339L696,342Z"/><path d="M702.57,338.63c0-2.56,1.49-4.08,3.53-4.08a3,3,0,0,1,2.2,1l-.68.76a2,2,0,0,0-1.52-.67c-1.36,0-2.27,1.14-2.27,3s.81,3,2.27,3a1.74,1.74,0,0,0,1.2-.4v-1.87h-1.45v-1h2.55v3.38a3.41,3.41,0,0,1-2.37.92C704,342.69,702.57,341.22,702.57,338.63Z"/><path d="M710.07,341c0-1.31,1.19-2,4.15-2.18a1.3,1.3,0,0,0-1.48-1.31,4.2,4.2,0,0,0-2,.66l-.45-.79a5.23,5.23,0,0,1,2.65-.83,2.22,2.22,0,0,1,2.45,2.47v3.53h-1l-.1-.76h0a3.82,3.82,0,0,1-2.24.9A1.77,1.77,0,0,1,710.07,341Zm4.15,0v-1.37c-2.3.16-3,.62-3,1.32s.53.84,1.16.84A3,3,0,0,0,714.22,341Z"/><path d="M717,336.69h.93l.09.76h0a1.42,1.42,0,0,1,1.32-.9c.56,0,.93.33,1.09,1a1.46,1.46,0,0,1,1.35-1c.83,0,1.31.66,1.31,1.83v4.17h-1.17v-4.09c0-.59-.16-.89-.54-.89s-.56.27-.84.81v4.17h-1v-4.09c0-.59-.15-.89-.53-.89s-.59.27-.85.81v4.17H717Z"/><path d="M724.34,339.61a3,3,0,0,1,3-3.06,2.53,2.53,0,0,1,2.69,2.76,4.92,4.92,0,0,1,0,.65h-4.82v-.87h4.08l-.26.29c0-1.27-.62-1.91-1.61-1.91a1.9,1.9,0,0,0-1.87,2.14,2,2,0,0,0,2.16,2.15,3.19,3.19,0,0,0,1.72-.52l.41.76a4.1,4.1,0,0,1-2.28.69A3,3,0,0,1,724.34,339.61Z"/><path d="M741,333.56h1.06v12H741Z"/><path d="M753.18,334.7h1.39l1,3.2.35,1.22h0l.34-1.22,1-3.2h1.38v7.85h-1.1V339c0-.8.13-2.29.19-3h0l-.48,1.68-1,2.78h-.76l-1-2.78L754.1,336h0c.08.71.19,2.2.19,3v3.54h-1.08Z"/><path d="M760.47,341c0-1.31,1.19-2,4.15-2.18a1.3,1.3,0,0,0-1.48-1.31,4.17,4.17,0,0,0-2,.66l-.45-.79a5.2,5.2,0,0,1,2.65-.83,2.22,2.22,0,0,1,2.45,2.47v3.53h-1l-.1-.76h0a3.85,3.85,0,0,1-2.24.9A1.77,1.77,0,0,1,760.47,341Zm4.15,0v-1.37c-2.31.16-3,.62-3,1.32s.53.84,1.16.84A3,3,0,0,0,764.62,341Z"/><path d="M768.41,336.69h1l.11,1.36h0a3,3,0,0,1,2.55-1.5,2.4,2.4,0,0,1,1.15.24l-.26,1a2.9,2.9,0,0,0-1.07-.19,2.6,2.6,0,0,0-2.3,1.62v3.32h-1.2Z"/><path d="M774.76,341.78l.53-.77a4.29,4.29,0,0,0,2.5.77c.9,0,1.33-.36,1.33-.8s-.25-.68-1.72-1-2.28-.86-2.28-1.74.89-1.71,2.51-1.71a4.48,4.48,0,0,1,2.41.76l-.56.74a3.54,3.54,0,0,0-2-.6c-.87,0-1.21.35-1.21.75s.47.64,1.62.88c1.91.42,2.39.91,2.39,1.83s-1,1.78-2.68,1.78A5.19,5.19,0,0,1,774.76,341.78Z"/><path d="M789.44,341.54h1.92v-5.83h-1.92v-1h5v1h-1.93v5.83h1.93v1h-5Z"/><path d="M796.61,336.69h1l.1.93h0a3,3,0,0,1,2.16-1.07c1.37,0,2,.84,2,2.36v3.64h-1.2v-3.48c0-1-.34-1.49-1.21-1.49a2.25,2.25,0,0,0-1.67.93v4h-1.2Z"/><path d="M803.68,339.63a3.06,3.06,0,0,1,3.3-3.08,3,3,0,0,1,2.15.84l-.57.75a2.35,2.35,0,0,0-1.52-.61,2,2,0,0,0-2.13,2.1,2,2,0,0,0,2.09,2.08,2.75,2.75,0,0,0,1.74-.69l.51.77a3.57,3.57,0,0,1-2.34.9A3,3,0,0,1,803.68,339.63Z"/><path d="M812.48,341.57a1.08,1.08,0,1,1,2.16,0,1.08,1.08,0,1,1-2.16,0Z"/><path d="M818.59,339v-.88l4.52-3v1.12l-3.49,2.31v0l3.49,2.31V342Z"/><path d="M829.41,334h1l-3.94,10.43h-1Z"/><path d="M833.94,340.23v-2.59h-1.62v-.89l1.66-.06.16-1.86h1v1.86h2.77v.95h-2.77v2.6c0,1,.36,1.49,1.42,1.49a3.66,3.66,0,0,0,1.33-.25l.25.87a5.28,5.28,0,0,1-1.86.34C834.52,342.69,833.94,341.7,833.94,340.23Z"/><path d="M842.43,337.64h-2.62v-.95h3.81v5.86h-1.19ZM842,334.7a.89.89,0,0,1,1.78,0,.89.89,0,0,1-1.78,0Z"/><path d="M848.34,340.23v-2.59h-1.62v-.89l1.66-.06.16-1.86h1v1.86h2.76v.95h-2.76v2.6c0,1,.36,1.49,1.42,1.49a3.66,3.66,0,0,0,1.33-.25l.25.87a5.28,5.28,0,0,1-1.86.34C848.92,342.69,848.34,341.7,848.34,340.23Z"/><path d="M856,340.5V335h-2v-.95h3.21v6.52a1,1,0,0,0,1.11,1.14,2.59,2.59,0,0,0,1.05-.24l.28.88a3.72,3.72,0,0,1-1.61.34C856.7,342.69,856,341.91,856,340.5Z"/><path d="M861.14,339.61a3,3,0,0,1,3-3.06,2.54,2.54,0,0,1,2.7,2.76,4.92,4.92,0,0,1-.05.65H862v-.87H866l-.25.29c0-1.27-.62-1.91-1.61-1.91a1.9,1.9,0,0,0-1.87,2.14,2,2,0,0,0,2.16,2.15,3.13,3.13,0,0,0,1.71-.52l.42.76a4.1,4.1,0,0,1-2.28.69A3,3,0,0,1,861.14,339.61Z"/><path d="M868.82,340.9l3.49-2.31v0l-3.49-2.31v-1.12l4.51,3V339l-4.51,3Z"/><path d="M638.59,353.41v-.88l4.52-3v1.12L639.62,353v0l3.49,2.31v1.13Z"/><path d="M649.41,348.44h1l-3.93,10.43h-1Z"/><path d="M652.62,348.45h1.19v2.25l-.07,1.32h0A2.84,2.84,0,0,1,655.9,351c1.37,0,2,.84,2,2.37V357H656.7v-3.48c0-1-.35-1.49-1.22-1.49a2.29,2.29,0,0,0-1.67.93v4h-1.19Z"/><path d="M659.54,354a3,3,0,0,1,3-3.06,2.54,2.54,0,0,1,2.7,2.76,4.66,4.66,0,0,1-.06.65h-4.82v-.87h4.08l-.26.29c0-1.27-.62-1.91-1.61-1.91a1.9,1.9,0,0,0-1.87,2.14,2,2,0,0,0,2.17,2.15,3.19,3.19,0,0,0,1.71-.52l.42.76a4.16,4.16,0,0,1-2.29.69A3,3,0,0,1,659.54,354Z"/><path d="M666.87,355.4c0-1.31,1.19-2,4.15-2.18a1.3,1.3,0,0,0-1.48-1.31,4.2,4.2,0,0,0-2,.66l-.45-.79a5.23,5.23,0,0,1,2.65-.83,2.22,2.22,0,0,1,2.45,2.47V357h-1l-.1-.76h0a3.82,3.82,0,0,1-2.24.9A1.77,1.77,0,0,1,666.87,355.4Zm4.15,0V354c-2.3.16-3,.62-3,1.32s.52.84,1.15.84A3,3,0,0,0,671,355.36Z"/><path d="M673.85,354a2.8,2.8,0,0,1,2.61-3.08,2.38,2.38,0,0,1,1.69.71h0l0-1v-2.18h1.19V357h-1l-.09-.73h0a2.69,2.69,0,0,1-1.84.87C674.85,357.09,673.85,356,673.85,354Zm4.27,1.29v-2.78a2,2,0,0,0-1.39-.6c-.91,0-1.66.8-1.66,2.08s.59,2.08,1.57,2.08A1.94,1.94,0,0,0,678.12,355.32Z"/><path d="M681.62,355.3l3.49-2.31v0l-3.49-2.32v-1.12l4.52,3v.88l-4.52,3Z"/><path d="M638.59,382.21v-.88l4.52-3v1.12l-3.49,2.32v0l3.49,2.31v1.13Z"/><path d="M646.51,385.1h0l-.11.65h-.94v-8.5h1.19v2.25l-.05,1.08h0a2.73,2.73,0,0,1,1.87-.83c1.55,0,2.41,1.17,2.41,3,0,2-1.24,3.17-2.61,3.17A2.68,2.68,0,0,1,646.51,385.1Zm3.15-2.36c0-1.23-.45-2-1.5-2a2.21,2.21,0,0,0-1.55.79v2.77a2.22,2.22,0,0,0,1.43.6C649,384.9,649.66,384.12,649.66,382.74Z"/><path d="M652.25,382.83a2.92,2.92,0,1,1,2.92,3.06A2.88,2.88,0,0,1,652.25,382.83Zm4.61,0c0-1.26-.66-2.1-1.69-2.1s-1.7.84-1.7,2.1.66,2.08,1.7,2.08S656.86,384.08,656.86,382.83Z"/><path d="M659.45,382.83a2.8,2.8,0,0,1,2.61-3.08,2.38,2.38,0,0,1,1.69.71h0l0-1v-2.18h1.19v8.5h-1l-.1-.73h0a2.69,2.69,0,0,1-1.84.87C660.45,385.89,659.45,384.77,659.45,382.83Zm4.27,1.29v-2.78a2,2,0,0,0-1.39-.6c-.91,0-1.66.8-1.66,2.08s.59,2.08,1.57,2.08A2,2,0,0,0,663.72,384.12Z"/><path d="M666.77,388.09l.23-.93a2.17,2.17,0,0,0,.51.08,1.58,1.58,0,0,0,1.51-1.12l.15-.4-2.67-5.83h1.2l1.31,3c.22.53.46,1.14.68,1.72h0c.19-.56.41-1.17.6-1.72l1.16-3h1.15l-2.52,6.23c-.47,1.24-1.18,2.09-2.56,2.09A2.75,2.75,0,0,1,666.77,388.09Z"/><path d="M674.42,384.1l3.49-2.31v0l-3.49-2.32v-1.12l4.52,3v.88l-4.52,3Z"/><path d="M653,396.61v-.88l4.52-3v1.12L654,396.15v0l3.49,2.31v1.13Z"/><path d="M659.56,399.38l.53-.77a4.29,4.29,0,0,0,2.5.77c.9,0,1.33-.36,1.33-.8s-.24-.68-1.72-1-2.27-.86-2.27-1.74.88-1.71,2.5-1.71a4.48,4.48,0,0,1,2.41.76l-.56.74a3.54,3.54,0,0,0-1.95-.6c-.88,0-1.21.35-1.21.75s.46.64,1.61.88c1.91.42,2.39.91,2.39,1.83s-1,1.78-2.68,1.78A5.19,5.19,0,0,1,659.56,399.38Z"/><path d="M666.89,397.23a3.06,3.06,0,0,1,3.3-3.08,3,3,0,0,1,2.14.84l-.57.75a2.31,2.31,0,0,0-1.52-.61,2,2,0,0,0-2.13,2.1,2,2,0,0,0,2.09,2.08,2.72,2.72,0,0,0,1.74-.69l.52.77a3.55,3.55,0,0,1-2.35.9A3,3,0,0,1,666.89,397.23Z"/><path d="M674.81,394.29h1l.11,1.36h0a3,3,0,0,1,2.55-1.5,2.35,2.35,0,0,1,1.15.24l-.26,1a2.9,2.9,0,0,0-1.07-.19,2.6,2.6,0,0,0-2.3,1.62v3.32h-1.2Z"/><path d="M684,395.25h-2.62v-1h3.81v5.86H684Zm-.39-2.95a.89.89,0,0,1,1.78,0,.89.89,0,0,1-1.78,0Z"/><path d="M688.62,394.29h1l.1.71h0a3,3,0,0,1,1.95-.85c1.55,0,2.4,1.17,2.4,3,0,2-1.24,3.16-2.63,3.16a2.61,2.61,0,0,1-1.67-.72h0l.06,1.07v1.9h-1.19Zm4.24,2.85c0-1.23-.45-2-1.5-2a2.21,2.21,0,0,0-1.55.79v2.77a2.21,2.21,0,0,0,1.41.6C692.16,399.3,692.86,398.53,692.86,397.14Z"/><path d="M697.14,397.83v-2.58h-1.62v-.9l1.67-.06.15-1.86h1v1.86h2.77v1h-2.77v2.59c0,1,.36,1.49,1.42,1.49a3.66,3.66,0,0,0,1.33-.25l.25.87a5.28,5.28,0,0,1-1.86.34C697.72,400.29,697.14,399.3,697.14,397.83Z"/><path d="M710,399.38l.53-.77a4.29,4.29,0,0,0,2.5.77c.9,0,1.33-.36,1.33-.8s-.24-.68-1.72-1-2.27-.86-2.27-1.74.88-1.71,2.5-1.71a4.48,4.48,0,0,1,2.41.76l-.56.74a3.54,3.54,0,0,0-2-.6c-.87,0-1.2.35-1.2.75s.46.64,1.61.88c1.91.42,2.39.91,2.39,1.83s-.95,1.78-2.68,1.78A5.19,5.19,0,0,1,710,399.38Z"/><path d="M718,394.29h1l.11,1.36h0a3,3,0,0,1,2.55-1.5,2.4,2.4,0,0,1,1.15.24l-.26,1a2.9,2.9,0,0,0-1.07-.19,2.6,2.6,0,0,0-2.3,1.62v3.32H718Z"/><path d="M724.48,397.23a3.06,3.06,0,0,1,3.3-3.08,3,3,0,0,1,2.15.84l-.57.75a2.33,2.33,0,0,0-1.52-.61,2,2,0,0,0-2.13,2.1,2,2,0,0,0,2.09,2.08,2.72,2.72,0,0,0,1.74-.69l.51.77a3.5,3.5,0,0,1-2.34.9A3,3,0,0,1,724.48,397.23Z"/><path d="M731.74,394.44H737v.88h-5.25Zm0,2.63H737v.87h-5.25Z"/><path d="M740.83,393.35l0-1.43h1.5l0,1.43-.34,2.73h-.78Z"/><path d="M748,398.1v-5.5h-2v-1h3.2v6.52a1,1,0,0,0,1.11,1.14,2.59,2.59,0,0,0,1.05-.24l.29.88a3.76,3.76,0,0,1-1.62.34C748.7,400.29,748,399.51,748,398.1Z"/><path d="M756,395.25h-2.62v-1h3.81v5.86H756Zm-.39-2.95a.89.89,0,0,1,1.78,0,.89.89,0,0,1-1.78,0Z"/><path d="M761.71,399.5h0l-.11.65h-.94v-8.5h1.19v2.25l0,1.08h0a2.73,2.73,0,0,1,1.87-.83c1.54,0,2.41,1.17,2.41,3,0,2-1.25,3.17-2.61,3.17A2.68,2.68,0,0,1,761.71,399.5Zm3.15-2.36c0-1.23-.45-2-1.5-2a2.21,2.21,0,0,0-1.55.79v2.77a2.22,2.22,0,0,0,1.43.6C764.15,399.3,764.86,398.53,764.86,397.14Z"/><path d="M771.81,391.64h1l-3.94,10.43h-1Z"/><path d="M774.58,402.29l.38-.88a3,3,0,0,0,1.3.32c1.07,0,1.37-.54,1.37-1.49v-5H775v-1h3.81v5.87a2.22,2.22,0,0,1-2.53,2.53A4,4,0,0,1,774.58,402.29Zm2.66-10a.89.89,0,0,1,1.78,0,.89.89,0,0,1-1.78,0Z"/><path d="M786.12,400.51l0-1.05h0a2.56,2.56,0,0,1-1.78.83c-1.51,0-2.52-1.12-2.52-3.06a2.8,2.8,0,0,1,2.62-3.08,2.39,2.39,0,0,1,1.76.78h0l.11-.64h.94v8.25h-1.19Zm0-2v-2.78a2,2,0,0,0-1.39-.6c-.91,0-1.66.8-1.66,2.08s.59,2.08,1.57,2.08A2,2,0,0,0,786.12,398.52Z"/><path d="M789.24,397.93v-3.64h1.2v3.48c0,1,.33,1.5,1.22,1.5a2.09,2.09,0,0,0,1.64-1v-4h1.19v5.86h-1l-.09-1h0a2.74,2.74,0,0,1-2.13,1.12C789.86,400.29,789.24,399.45,789.24,397.93Z"/><path d="M796.34,397.21a3,3,0,0,1,3-3.06,2.54,2.54,0,0,1,2.7,2.76,4.92,4.92,0,0,1,0,.65h-4.82v-.87h4.07L801,397c0-1.27-.62-1.91-1.61-1.91a1.9,1.9,0,0,0-1.87,2.14,2,2,0,0,0,2.16,2.15,3.19,3.19,0,0,0,1.72-.52l.41.76a4.1,4.1,0,0,1-2.28.69A3,3,0,0,1,796.34,397.21Z"/><path d="M804.41,394.29h1l.11,1.36h0a3,3,0,0,1,2.55-1.5,2.4,2.4,0,0,1,1.15.24l-.26,1a2.92,2.92,0,0,0-1.08-.19,2.58,2.58,0,0,0-2.29,1.62v3.32h-1.2Z"/><path d="M810.77,402.49l.23-.93a2.17,2.17,0,0,0,.51.08,1.58,1.58,0,0,0,1.51-1.12l.15-.4-2.67-5.83h1.2l1.3,3c.23.53.46,1.14.69,1.72h0c.19-.56.41-1.17.6-1.72l1.16-3h1.14l-2.51,6.23c-.48,1.24-1.18,2.09-2.56,2.09A2.75,2.75,0,0,1,810.77,402.49Z"/><path d="M819.68,399.17a1.08,1.08,0,1,1,2.16,0,1.08,1.08,0,1,1-2.16,0Z"/><path d="M825,394.29h.93l.09.76h0a1.43,1.43,0,0,1,1.32-.9c.56,0,.93.33,1.09,1a1.46,1.46,0,0,1,1.35-1c.83,0,1.31.66,1.31,1.83v4.17h-1.17v-4.09c0-.59-.16-.89-.54-.89s-.56.27-.84.81v4.17h-1v-4.09c0-.59-.15-.89-.53-.89s-.59.27-.85.81v4.17H825Z"/><path d="M835.23,395.25h-2.62v-1h3.81v5.86h-1.19Zm-.39-2.95a.89.89,0,0,1,1.78,0,.89.89,0,0,1-1.78,0Z"/><path d="M839.81,394.29h1l.1.94h0a3,3,0,0,1,2.16-1.08c1.37,0,2,.84,2,2.37v3.63h-1.2v-3.48c0-1-.34-1.49-1.21-1.49a2.25,2.25,0,0,0-1.67.93v4h-1.2Z"/><path d="M848.48,399.17a1.08,1.08,0,1,1,2.16,0,1.08,1.08,0,1,1-2.16,0Z"/><path d="M853.78,402.29l.38-.88a3,3,0,0,0,1.3.32c1.07,0,1.37-.54,1.37-1.49v-5h-2.62v-1H858v5.87a2.22,2.22,0,0,1-2.53,2.53A4,4,0,0,1,853.78,402.29Zm2.66-10a.89.89,0,0,1,1.78,0,.89.89,0,0,1-1.78,0Z"/><path d="M861.16,399.38l.53-.77a4.29,4.29,0,0,0,2.5.77c.9,0,1.33-.36,1.33-.8s-.25-.68-1.72-1-2.28-.86-2.28-1.74.88-1.71,2.51-1.71a4.48,4.48,0,0,1,2.41.76l-.56.74a3.57,3.57,0,0,0-2-.6c-.87,0-1.21.35-1.21.75s.47.64,1.62.88c1.91.42,2.39.91,2.39,1.83s-1,1.78-2.68,1.78A5.19,5.19,0,0,1,861.16,399.38Z"/><path d="M870.43,393.35l0-1.43h1.5l0,1.43-.34,2.73h-.78Z"/><path d="M876,398.5l3.49-2.31v0L876,393.83v-1.12l4.51,3v.88l-4.51,3Z"/><path d="M883.39,396.61v-.88l4.52-3v1.12l-3.5,2.32v0l3.5,2.31v1.13Z"/><path d="M894.21,391.64h1l-3.94,10.43h-1Z"/><path d="M897.16,399.38l.53-.77a4.29,4.29,0,0,0,2.5.77c.9,0,1.33-.36,1.33-.8s-.25-.68-1.72-1-2.28-.86-2.28-1.74.88-1.71,2.51-1.71a4.48,4.48,0,0,1,2.41.76l-.56.74a3.57,3.57,0,0,0-2-.6c-.87,0-1.21.35-1.21.75s.47.64,1.62.88c1.91.42,2.39.91,2.39,1.83s-1,1.78-2.68,1.78A5.19,5.19,0,0,1,897.16,399.38Z"/><path d="M904.48,397.23a3.06,3.06,0,0,1,3.3-3.08,3,3,0,0,1,2.15.84l-.57.75a2.36,2.36,0,0,0-1.53-.61,2,2,0,0,0-2.12,2.1,2,2,0,0,0,2.09,2.08,2.75,2.75,0,0,0,1.74-.69l.51.77a3.53,3.53,0,0,1-2.35.9A3,3,0,0,1,904.48,397.23Z"/><path d="M912.41,394.29h1l.11,1.36h0a3,3,0,0,1,2.56-1.5,2.4,2.4,0,0,1,1.15.24l-.26,1a3,3,0,0,0-1.08-.19,2.6,2.6,0,0,0-2.3,1.62v3.32h-1.19Z"/><path d="M921.63,395.25H919v-1h3.81v5.86h-1.19Zm-.39-2.95a.89.89,0,0,1,1.78,0,.89.89,0,0,1-1.78,0Z"/><path d="M926.21,394.29h1l.1.71h0a3,3,0,0,1,2-.85c1.54,0,2.4,1.17,2.4,3,0,2-1.25,3.16-2.63,3.16a2.59,2.59,0,0,1-1.67-.72h0l.06,1.07v1.9h-1.2Zm4.25,2.85c0-1.23-.45-2-1.5-2a2.2,2.2,0,0,0-1.55.79v2.77a2.19,2.19,0,0,0,1.41.6C929.75,399.3,930.46,398.53,930.46,397.14Z"/><path d="M934.73,397.83v-2.58h-1.61v-.9l1.66-.06.16-1.86h1v1.86h2.76v1h-2.76v2.59c0,1,.36,1.49,1.42,1.49a3.66,3.66,0,0,0,1.33-.25l.24.87a5.18,5.18,0,0,1-1.85.34C935.32,400.29,934.73,399.3,934.73,397.83Z"/><path d="M940.82,398.5l3.49-2.31v0l-3.49-2.32v-1.12l4.51,3v.88l-4.51,3Z"/><path d="M653,411v-.88l4.52-3v1.12L654,410.54v0l3.49,2.31V414Z"/><path d="M659.82,406.05H661v2.25l-.07,1.32h0a2.84,2.84,0,0,1,2.12-1.07c1.37,0,2,.84,2,2.36v3.64H663.9v-3.48c0-1-.35-1.49-1.22-1.49a2.29,2.29,0,0,0-1.67.93v4h-1.19Z"/><path d="M666.74,411.61a3,3,0,0,1,3-3.06,2.54,2.54,0,0,1,2.7,2.76,3.51,3.51,0,0,1-.06.65h-4.82v-.87h4.08l-.26.29c0-1.27-.62-1.91-1.61-1.91a1.9,1.9,0,0,0-1.87,2.14,2,2,0,0,0,2.17,2.15,3.19,3.19,0,0,0,1.71-.52l.42.76a4.16,4.16,0,0,1-2.29.69A3,3,0,0,1,666.74,411.61Z"/><path d="M674.07,413c0-1.31,1.19-2,4.15-2.18a1.29,1.29,0,0,0-1.47-1.31,4.2,4.2,0,0,0-2,.66l-.45-.79a5.23,5.23,0,0,1,2.65-.83,2.22,2.22,0,0,1,2.45,2.47v3.53h-1l-.1-.76h0a3.82,3.82,0,0,1-2.24.9A1.77,1.77,0,0,1,674.07,413Zm4.15,0v-1.37c-2.3.16-3,.62-3,1.32s.53.84,1.16.84A3,3,0,0,0,678.22,413Z"/><path d="M681,411.63a2.8,2.8,0,0,1,2.62-3.08,2.38,2.38,0,0,1,1.69.71h0l0-1v-2.18h1.19v8.5h-1l-.1-.73h0a2.69,2.69,0,0,1-1.84.87C682.05,414.69,681,413.57,681,411.63Zm4.28,1.28v-2.77a2,2,0,0,0-1.39-.6c-.91,0-1.66.8-1.66,2.08s.59,2.08,1.57,2.08A1.94,1.94,0,0,0,685.32,412.91Z"/><path d="M688.34,411.61a3,3,0,0,1,3-3.06,2.54,2.54,0,0,1,2.7,2.76,4.66,4.66,0,0,1-.06.65h-4.82v-.87h4.08l-.26.29c0-1.27-.62-1.91-1.61-1.91a1.9,1.9,0,0,0-1.87,2.14,2,2,0,0,0,2.16,2.15,3.19,3.19,0,0,0,1.72-.52l.42.76a4.16,4.16,0,0,1-2.29.69A3,3,0,0,1,688.34,411.61Z"/><path d="M696.41,408.69h1l.11,1.36h0a3,3,0,0,1,2.55-1.5,2.4,2.4,0,0,1,1.15.24l-.26,1a2.9,2.9,0,0,0-1.07-.19,2.6,2.6,0,0,0-2.3,1.62v3.32h-1.2Z"/><path d="M703.22,412.9l3.49-2.31v0l-3.49-2.31v-1.12l4.52,3V411l-4.52,3Z"/><path d="M674.59,425.41v-.88l4.52-3v1.12L675.62,425v0l3.49,2.31v1.13Z"/><path d="M681.27,427.4c0-1.31,1.19-2,4.15-2.18a1.3,1.3,0,0,0-1.48-1.31,4.2,4.2,0,0,0-2,.66l-.45-.79a5.23,5.23,0,0,1,2.65-.83,2.22,2.22,0,0,1,2.45,2.47V429h-1l-.1-.76h0a3.82,3.82,0,0,1-2.24.9A1.77,1.77,0,0,1,681.27,427.4Zm4.15,0V426c-2.3.16-3,.62-3,1.32s.53.84,1.16.84A3,3,0,0,0,685.42,427.36Z"/><path d="M695.68,426A3.06,3.06,0,0,1,699,423a3,3,0,0,1,2.15.84l-.57.75a2.31,2.31,0,0,0-1.52-.61,2,2,0,0,0-2.13,2.1,2,2,0,0,0,2.09,2.08,2.72,2.72,0,0,0,1.74-.69l.51.77a3.5,3.5,0,0,1-2.34.9A3,3,0,0,1,695.68,426Z"/><path d="M704.79,426.9v-5.5h-2v-.95H706V427a1,1,0,0,0,1.1,1.14,2.59,2.59,0,0,0,1-.24l.29.88a3.76,3.76,0,0,1-1.62.34C705.5,429.09,704.79,428.31,704.79,426.9Z"/><path d="M710.07,427.4c0-1.31,1.19-2,4.15-2.18a1.3,1.3,0,0,0-1.48-1.31,4.2,4.2,0,0,0-2,.66l-.45-.79A5.23,5.23,0,0,1,713,423a2.22,2.22,0,0,1,2.45,2.47V429h-1l-.1-.76h0a3.82,3.82,0,0,1-2.24.9A1.77,1.77,0,0,1,710.07,427.4Zm4.15,0V426c-2.3.16-3,.62-3,1.32s.53.84,1.16.84A3,3,0,0,0,714.22,427.36Z"/><path d="M717.16,428.18l.53-.77a4.29,4.29,0,0,0,2.5.77c.9,0,1.33-.36,1.33-.8s-.24-.68-1.72-1-2.27-.86-2.27-1.74.88-1.71,2.5-1.71a4.48,4.48,0,0,1,2.41.76l-.56.74a3.54,3.54,0,0,0-2-.6c-.87,0-1.2.35-1.2.75s.46.64,1.61.88c1.91.42,2.39.91,2.39,1.83s-1,1.78-2.68,1.78A5.19,5.19,0,0,1,717.16,428.18Z"/><path d="M724.36,428.18l.53-.77a4.29,4.29,0,0,0,2.5.77c.9,0,1.33-.36,1.33-.8s-.25-.68-1.72-1-2.28-.86-2.28-1.74.89-1.71,2.51-1.71a4.48,4.48,0,0,1,2.41.76l-.56.74a3.54,3.54,0,0,0-2-.6c-.87,0-1.2.35-1.2.75s.46.64,1.61.88c1.91.42,2.39.91,2.39,1.83s-.95,1.78-2.68,1.78A5.19,5.19,0,0,1,724.36,428.18Z"/><path d="M731.74,423.24H737v.88h-5.25Zm0,2.63H737v.87h-5.25Z"/><path d="M739.4,422.15l0-1.43h1.5l0,1.43-.34,2.73h-.78Zm2.87,0,0-1.43h1.5l0,1.43-.34,2.73h-.78Z"/><path d="M746.22,423.09h1l.1.94h.05a2.93,2.93,0,0,1,2.15-1.08c1.38,0,2,.84,2,2.37V429h-1.2v-3.48c0-1-.34-1.49-1.21-1.49a2.25,2.25,0,0,0-1.67.93v4h-1.19Z"/><path d="M753.27,427.4c0-1.31,1.19-2,4.15-2.18a1.3,1.3,0,0,0-1.48-1.31,4.2,4.2,0,0,0-2,.66l-.45-.79a5.23,5.23,0,0,1,2.65-.83,2.22,2.22,0,0,1,2.45,2.47V429h-1l-.1-.76h0a3.82,3.82,0,0,1-2.24.9A1.77,1.77,0,0,1,753.27,427.4Zm4.15,0V426c-2.3.16-3,.62-3,1.32s.53.84,1.16.84A3,3,0,0,0,757.42,427.36Z"/><path d="M760.11,423.09h1.21l1.24,3.17c.22.59.42,1.18.62,1.76h0c.2-.58.39-1.17.61-1.76l1.24-3.17h1.15L763.86,429h-1.35Z"/><path d="M767.74,424.56H773v.87h-5.25Z"/><path d="M776.79,426.9v-5.5h-2v-.95H778V427a1,1,0,0,0,1.11,1.14,2.59,2.59,0,0,0,1-.24l.28.88a3.69,3.69,0,0,1-1.61.34C777.5,429.09,776.79,428.31,776.79,426.9Z"/><path d="M784.83,424h-2.62v-1H786V429h-1.19Zm-.39-2.94a.89.89,0,0,1,1.78,0,.89.89,0,0,1-1.78,0Z"/><path d="M789.42,423.09h1l.1.94h0a2.93,2.93,0,0,1,2.15-1.08c1.37,0,2,.84,2,2.37V429h-1.2v-3.48c0-1-.34-1.49-1.21-1.49a2.25,2.25,0,0,0-1.67.93v4h-1.19Z"/><path d="M796.73,420.45h1.2V426h0l2.89-2.89h1.34l-4.27,4.3V429h-1.2ZM799,426l.7-.76,2.74,3.75h-1.31Z"/><path d="M804.2,422.15l0-1.43h1.5l0,1.43-.34,2.73h-.78Zm2.87,0,0-1.43h1.5l0,1.43-.34,2.73h-.78Z"/><path d="M818.21,420.45h1.2v2.25l-.07,1.32h0A2.84,2.84,0,0,1,821.5,423c1.36,0,2,.84,2,2.37V429h-1.2v-3.48c0-1-.34-1.49-1.21-1.49a2.25,2.25,0,0,0-1.67.93v4h-1.2Z"/><path d="M826,423.09h1l.11,1.36h0a3,3,0,0,1,2.55-1.5,2.4,2.4,0,0,1,1.15.24l-.26,1a2.92,2.92,0,0,0-1.08-.19,2.58,2.58,0,0,0-2.29,1.62V429H826Z"/><path d="M832.34,426a3,3,0,0,1,3-3.06,2.54,2.54,0,0,1,2.7,2.76,4.92,4.92,0,0,1,0,.65h-4.82v-.87h4.07l-.25.29c0-1.27-.62-1.91-1.61-1.91a1.9,1.9,0,0,0-1.87,2.14,2,2,0,0,0,2.16,2.15,3.13,3.13,0,0,0,1.71-.52l.42.76a4.1,4.1,0,0,1-2.28.69A3,3,0,0,1,832.34,426Z"/><path d="M839.93,423.15l1.68-.06h3.48v1h-5.16Zm1.65-.46A2.18,2.18,0,0,1,844,420.3a4.69,4.69,0,0,1,1.71.33l-.26.89a3.16,3.16,0,0,0-1.33-.26,1.23,1.23,0,0,0-1.37,1.4V429h-1.18Z"/><path d="M846.94,423.24h5.25v.88h-5.25Zm0,2.63h5.25v.87h-5.25Z"/><path d="M854.6,422.15l0-1.43h1.51l0,1.43-.33,2.73h-.78Zm2.87,0,0-1.43H859l0,1.43-.33,2.73h-.78Z"/><path d="M865.41,420.44h1l-3.94,10.43h-1Z"/><path d="M868.36,430a1.58,1.58,0,0,1,.95-1.27v0a1.1,1.1,0,0,1-.6-1,1.42,1.42,0,0,1,.71-1.09v-.05a1.84,1.84,0,0,1-.74-1.52A2.17,2.17,0,0,1,871,423a2.68,2.68,0,0,1,.89.14h2.41V424h-1.43a1.65,1.65,0,0,1,.43,1.07,2.05,2.05,0,0,1-2.3,2,2.61,2.61,0,0,1-.95-.2.73.73,0,0,0-.4.62c0,.42.41.61,1.16.61h1.25c1.52,0,2.27.4,2.27,1.4s-1.29,2.07-3.32,2.07C869.39,431.6,868.36,431,868.36,430Zm4.86-.27c0-.51-.43-.65-1.26-.65h-1A3.25,3.25,0,0,1,870,429c-.49.27-.66.57-.66.87,0,.57.64.91,1.8.91S873.22,430.28,873.22,429.73Zm-1-4.68a1.23,1.23,0,1,0-1.22,1.28A1.2,1.2,0,0,0,872.26,425.05Z"/><path d="M875.66,427.4c0-1.31,1.2-2,4.16-2.18a1.31,1.31,0,0,0-1.48-1.31,4.13,4.13,0,0,0-2,.66l-.45-.79a5.19,5.19,0,0,1,2.64-.83,2.23,2.23,0,0,1,2.46,2.47V429h-1l-.09-.76h0a3.85,3.85,0,0,1-2.24.9A1.78,1.78,0,0,1,875.66,427.4Zm4.16,0V426c-2.31.16-3,.62-3,1.32s.53.84,1.16.84A3,3,0,0,0,879.82,427.36Z"/><path d="M882.59,423.09h.93l.09.76h0A1.43,1.43,0,0,1,885,423c.56,0,.93.33,1.09,1a1.46,1.46,0,0,1,1.35-1c.82,0,1.31.66,1.31,1.83V429h-1.17v-4.09c0-.59-.16-.89-.54-.89s-.56.27-.84.81V429h-1v-4.09c0-.59-.15-.89-.53-.89s-.6.27-.85.81V429h-1.16Z"/><path d="M889.94,426a3,3,0,0,1,3-3.06,2.54,2.54,0,0,1,2.7,2.76,4.92,4.92,0,0,1,0,.65h-4.82v-.87h4.07l-.26.29c0-1.27-.61-1.91-1.6-1.91a1.9,1.9,0,0,0-1.87,2.14,2,2,0,0,0,2.16,2.15,3.13,3.13,0,0,0,1.71-.52l.42.76a4.1,4.1,0,0,1-2.28.69A3,3,0,0,1,889.94,426Z"/><path d="M897.8,422.15l0-1.43h1.51l0,1.43-.33,2.73h-.78Zm2.87,0,0-1.43h1.51l0,1.43-.34,2.73H901Z"/><path d="M904.82,427.3l3.49-2.31v0l-3.49-2.32v-1.12l4.51,3v.88l-4.51,3Z"/><path d="M911.75,421.1h2c2.34,0,3.68,1.34,3.68,3.89s-1.34,4-3.61,4h-2.07Zm1.92,6.87c1.64,0,2.52-1,2.52-3s-.88-2.91-2.52-2.91H913V428Z"/><path d="M919.26,421.1h5v1h-3.74v2.23h3.17v1h-3.17v2.59h3.86v1h-5.07Z"/><path d="M925.58,421.1h1.29l1.17,4.09c.27.9.45,1.67.73,2.56h0c.28-.89.47-1.66.73-2.56l1.17-4.09h1.23L929.48,429h-1.42Z"/><path d="M933.79,425.41v-.88l4.51-3v1.12L934.81,425v0l3.49,2.31v1.13Z"/><path d="M944.61,420.44h1l-3.94,10.43h-1Z"/><path d="M947.66,427.4c0-1.31,1.2-2,4.15-2.18a1.29,1.29,0,0,0-1.47-1.31,4.13,4.13,0,0,0-2,.66l-.46-.79a5.26,5.26,0,0,1,2.65-.83,2.23,2.23,0,0,1,2.46,2.47V429h-1l-.09-.76h0a3.85,3.85,0,0,1-2.24.9A1.78,1.78,0,0,1,947.66,427.4Zm4.15,0V426c-2.3.16-3,.62-3,1.32s.53.84,1.16.84A2.94,2.94,0,0,0,951.81,427.36Z"/><path d="M955.22,427.3l3.49-2.31v0l-3.49-2.32v-1.12l4.51,3v.88l-4.51,3Z"/><path d="M653,439.81v-.88l4.52-3V437L654,439.35v0l3.49,2.31v1.13Z"/><path d="M663.81,434.84h1l-3.93,10.43h-1Z"/><path d="M667,434.85h1.19v2.25l-.07,1.32h0a2.84,2.84,0,0,1,2.12-1.07c1.37,0,2,.84,2,2.37v3.63H671.1v-3.48c0-1-.35-1.49-1.22-1.49a2.29,2.29,0,0,0-1.67.93v4H667Z"/><path d="M673.94,440.41a3,3,0,0,1,3-3.06,2.54,2.54,0,0,1,2.7,2.76,3.51,3.51,0,0,1-.06.65h-4.82v-.87h4.08l-.26.29c0-1.27-.62-1.91-1.61-1.91a1.9,1.9,0,0,0-1.87,2.14,2,2,0,0,0,2.17,2.15A3.19,3.19,0,0,0,679,442l.42.76a4.17,4.17,0,0,1-2.29.7A3,3,0,0,1,673.94,440.41Z"/><path d="M681.27,441.8c0-1.31,1.19-2,4.15-2.18a1.29,1.29,0,0,0-1.48-1.3,4.19,4.19,0,0,0-2,.65l-.45-.79a5.23,5.23,0,0,1,2.65-.83,2.22,2.22,0,0,1,2.45,2.47v3.53h-1l-.1-.76h0a3.83,3.83,0,0,1-2.24.91A1.78,1.78,0,0,1,681.27,441.8Zm4.15,0v-1.37c-2.3.16-3,.62-3,1.32s.53.84,1.16.84A3,3,0,0,0,685.42,441.76Z"/><path d="M688.25,440.43a2.8,2.8,0,0,1,2.61-3.08,2.38,2.38,0,0,1,1.69.71h0l-.05-1v-2.19h1.19v8.5h-1l-.1-.73h0a2.71,2.71,0,0,1-1.84.88C689.25,443.5,688.25,442.37,688.25,440.43Zm4.27,1.29v-2.78a2,2,0,0,0-1.39-.6c-.91,0-1.66.8-1.66,2.08s.59,2.08,1.57,2.08A2,2,0,0,0,692.52,441.72Z"/><path d="M695.54,440.41a3,3,0,0,1,3-3.06,2.54,2.54,0,0,1,2.7,2.76,4.66,4.66,0,0,1-.06.65h-4.82v-.87h4.08l-.26.29c0-1.27-.62-1.91-1.61-1.91a1.9,1.9,0,0,0-1.87,2.14,2,2,0,0,0,2.17,2.15,3.19,3.19,0,0,0,1.71-.52l.41.76a4.11,4.11,0,0,1-2.28.7A3,3,0,0,1,695.54,440.41Z"/><path d="M703.61,437.49h1l.11,1.36h0a3,3,0,0,1,2.55-1.5,2.37,2.37,0,0,1,1.15.24l-.26,1a2.9,2.9,0,0,0-1.07-.19,2.6,2.6,0,0,0-2.3,1.62v3.32h-1.2Z"/><path d="M710.42,441.7l3.49-2.31v0L710.42,437v-1.13l4.52,3v.88l-4.52,3Z"/><path d="M653,468.61v-.88l4.52-3v1.12L654,468.15v0l3.49,2.31v1.13Z"/><path d="M659.45,469.23a2.8,2.8,0,0,1,2.61-3.08,2.38,2.38,0,0,1,1.69.71h0l0-1v-2.18h1.19v8.5h-1l-.1-.73h0a2.69,2.69,0,0,1-1.84.87C660.45,472.29,659.45,471.17,659.45,469.23Zm4.27,1.29v-2.78a2,2,0,0,0-1.39-.6c-.91,0-1.66.8-1.66,2.08s.59,2.08,1.57,2.08A2,2,0,0,0,663.72,470.52Z"/><path d="M669.63,467.25H667v-1h3.82v5.86h-1.2Zm-.39-2.95a.89.89,0,0,1,1.78,0,.89.89,0,0,1-1.78,0Z"/><path d="M673.71,466.29h1.21l1.24,3.17c.22.59.42,1.18.62,1.76h.05c.19-.58.38-1.17.61-1.76l1.23-3.17h1.15l-2.36,5.86h-1.35Z"/><path d="M688.49,469.23a3.06,3.06,0,0,1,3.3-3.08,3,3,0,0,1,2.14.84l-.57.75a2.31,2.31,0,0,0-1.52-.61,2,2,0,0,0-2.13,2.1,2,2,0,0,0,2.09,2.08,2.72,2.72,0,0,0,1.74-.69l.52.77a3.55,3.55,0,0,1-2.35.9A3,3,0,0,1,688.49,469.23Z"/><path d="M697.59,470.1v-5.5h-2v-1h3.21v6.52a1,1,0,0,0,1.1,1.14,2.59,2.59,0,0,0,1.05-.24l.29.88a3.76,3.76,0,0,1-1.62.34C698.3,472.29,697.59,471.51,697.59,470.1Z"/><path d="M702.87,470.6c0-1.31,1.19-2,4.15-2.18a1.29,1.29,0,0,0-1.48-1.3,4.1,4.1,0,0,0-2,.66l-.45-.8a5.23,5.23,0,0,1,2.65-.83,2.22,2.22,0,0,1,2.45,2.47v3.53h-1l-.1-.76h0a3.82,3.82,0,0,1-2.24.9A1.77,1.77,0,0,1,702.87,470.6Zm4.15,0v-1.37c-2.3.16-3,.62-3,1.32s.53.84,1.16.84A3,3,0,0,0,707,470.56Z"/><path d="M710,471.38l.53-.77a4.29,4.29,0,0,0,2.5.77c.9,0,1.33-.36,1.33-.8s-.24-.68-1.72-1-2.27-.86-2.27-1.74.88-1.71,2.5-1.71a4.48,4.48,0,0,1,2.41.76l-.56.74a3.54,3.54,0,0,0-2-.6c-.87,0-1.2.35-1.2.75s.46.64,1.61.88c1.91.42,2.39.91,2.39,1.83s-.95,1.78-2.68,1.78A5.19,5.19,0,0,1,710,471.38Z"/><path d="M717.16,471.38l.53-.77a4.29,4.29,0,0,0,2.5.77c.9,0,1.33-.36,1.33-.8s-.24-.68-1.72-1-2.27-.86-2.27-1.74.88-1.71,2.5-1.71a4.48,4.48,0,0,1,2.41.76l-.56.74a3.54,3.54,0,0,0-2-.6c-.87,0-1.2.35-1.2.75s.46.64,1.61.88c1.91.42,2.39.91,2.39,1.83s-1,1.78-2.68,1.78A5.19,5.19,0,0,1,717.16,471.38Z"/><path d="M724.54,466.44h5.25v.88h-5.25Zm0,2.63h5.25v.87h-5.25Z"/><path d="M732.2,465.35l0-1.43h1.5l0,1.43-.34,2.73h-.78Zm2.87,0,0-1.43h1.5l0,1.43-.34,2.73h-.78Z"/><path d="M738.76,471.38l.53-.77a4.29,4.29,0,0,0,2.5.77c.9,0,1.33-.36,1.33-.8s-.24-.68-1.72-1-2.27-.86-2.27-1.74.88-1.71,2.5-1.71a4.48,4.48,0,0,1,2.41.76l-.56.74a3.54,3.54,0,0,0-2-.6c-.87,0-1.2.35-1.2.75s.46.64,1.61.88c1.91.42,2.39.91,2.39,1.83s-1,1.78-2.68,1.78A5.19,5.19,0,0,1,738.76,471.38Z"/><path d="M745.94,469.21a3,3,0,0,1,3-3.06,2.53,2.53,0,0,1,2.69,2.76,4.92,4.92,0,0,1,0,.65h-4.82v-.87h4.08l-.26.29c0-1.27-.62-1.91-1.61-1.91a1.9,1.9,0,0,0-1.87,2.14,2,2,0,0,0,2.16,2.15,3.19,3.19,0,0,0,1.72-.52l.41.76a4.1,4.1,0,0,1-2.28.69A3,3,0,0,1,745.94,469.21Z"/><path d="M753.28,469.23a3.06,3.06,0,0,1,3.3-3.08,3,3,0,0,1,2.15.84l-.57.75a2.33,2.33,0,0,0-1.52-.61,2,2,0,0,0-2.13,2.1,2,2,0,0,0,2.09,2.08,2.72,2.72,0,0,0,1.74-.69l.51.77a3.5,3.5,0,0,1-2.34.9A3,3,0,0,1,753.28,469.23Z"/><path d="M761.94,469.83v-2.58h-1.62v-.9l1.66-.06.16-1.86h1v1.86h2.77v1h-2.77v2.59c0,1,.36,1.49,1.42,1.49a3.66,3.66,0,0,0,1.33-.25l.25.87a5.28,5.28,0,0,1-1.86.34C762.52,472.29,761.94,471.3,761.94,469.83Z"/><path d="M770.43,467.25h-2.62v-1h3.81v5.86h-1.19ZM770,464.3a.89.89,0,0,1,1.78,0,.89.89,0,0,1-1.78,0Z"/><path d="M774.64,469.23a2.92,2.92,0,1,1,2.92,3.06A2.89,2.89,0,0,1,774.64,469.23Zm4.62,0c0-1.26-.66-2.1-1.7-2.1s-1.69.84-1.69,2.1.66,2.08,1.69,2.08S779.26,470.48,779.26,469.23Z"/><path d="M782.21,466.29h1l.1.94h0a3,3,0,0,1,2.16-1.08c1.37,0,2,.84,2,2.37v3.63h-1.2v-3.48c0-1-.34-1.49-1.21-1.49a2.25,2.25,0,0,0-1.67.93v4h-1.2Z"/><path d="M796.19,466.29h.93l.09.76h0a1.43,1.43,0,0,1,1.32-.9c.56,0,.93.33,1.09,1a1.46,1.46,0,0,1,1.35-1c.83,0,1.31.66,1.31,1.83v4.17h-1.17v-4.09c0-.59-.16-.89-.54-.89s-.56.27-.84.81v4.17h-1v-4.09c0-.59-.15-.89-.53-.89s-.59.27-.85.81v4.17h-1.16Z"/><path d="M806.43,467.25h-2.62v-1h3.81v5.86h-1.19ZM806,464.3a.89.89,0,0,1,1.78,0,.89.89,0,0,1-1.78,0Z"/><path d="M811,466.29h1l.1.94h0a3,3,0,0,1,2.16-1.08c1.37,0,2,.84,2,2.37v3.63h-1.2v-3.48c0-1-.34-1.49-1.21-1.49a2.25,2.25,0,0,0-1.67.93v4H811Z"/><path d="M817.94,469.21a3,3,0,0,1,3-3.06,2.54,2.54,0,0,1,2.7,2.76,4.92,4.92,0,0,1,0,.65h-4.82v-.87h4.07l-.25.29c0-1.27-.62-1.91-1.61-1.91a1.9,1.9,0,0,0-1.87,2.14,2,2,0,0,0,2.16,2.15,3.19,3.19,0,0,0,1.72-.52l.41.76a4.1,4.1,0,0,1-2.28.69A3,3,0,0,1,817.94,469.21Z"/><path d="M825.28,469.23a3.06,3.06,0,0,1,3.3-3.08,3,3,0,0,1,2.15.84l-.57.75a2.36,2.36,0,0,0-1.53-.61,2,2,0,0,0-2.12,2.1,2,2,0,0,0,2.09,2.08,2.75,2.75,0,0,0,1.74-.69l.51.77a3.53,3.53,0,0,1-2.35.9A3,3,0,0,1,825.28,469.23Z"/><path d="M833.21,466.29h1l.11,1.36h0a3,3,0,0,1,2.56-1.5,2.4,2.4,0,0,1,1.15.24l-.26,1a2.92,2.92,0,0,0-1.08-.19,2.58,2.58,0,0,0-2.29,1.62v3.32h-1.2Z"/><path d="M839.67,470.6c0-1.31,1.19-2,4.15-2.18a1.3,1.3,0,0,0-1.48-1.3,4,4,0,0,0-2,.66l-.45-.8a5.19,5.19,0,0,1,2.64-.83,2.23,2.23,0,0,1,2.46,2.47v3.53h-1l-.09-.76h0a3.85,3.85,0,0,1-2.24.9A1.77,1.77,0,0,1,839.67,470.6Zm4.15,0v-1.37c-2.31.16-3,.62-3,1.32s.53.84,1.16.84A3,3,0,0,0,843.82,470.56Z"/><path d="M847.13,466.35l1.68-.06h3.48v1h-5.16Zm1.65-.46a2.18,2.18,0,0,1,2.43-2.39,4.69,4.69,0,0,1,1.71.33l-.26.89a3.16,3.16,0,0,0-1.33-.26,1.23,1.23,0,0,0-1.37,1.4v6.29h-1.18Z"/><path d="M855.54,469.83v-2.58h-1.62v-.9l1.66-.06.16-1.86h1v1.86h2.77v1h-2.77v2.59c0,1,.36,1.49,1.42,1.49a3.66,3.66,0,0,0,1.33-.25l.25.87a5.28,5.28,0,0,1-1.86.34C856.12,472.29,855.54,471.3,855.54,469.83Z"/><path d="M861.8,465.35l0-1.43h1.51l0,1.43-.33,2.73h-.78Zm2.87,0,0-1.43h1.5l0,1.43-.34,2.73H865Z"/><path d="M868.82,470.5l3.49-2.31v0l-3.49-2.32v-1.12l4.51,3v.88l-4.51,3Z"/><path d="M667.39,483v-.88l4.52-3v1.12l-3.49,2.31v0l3.49,2.31V486Z"/><path d="M673.85,483.63a2.8,2.8,0,0,1,2.61-3.08,2.38,2.38,0,0,1,1.69.71h0l0-1v-2.18h1.19v8.5h-1l-.09-.73h0a2.69,2.69,0,0,1-1.84.87C674.85,486.69,673.85,485.57,673.85,483.63Zm4.27,1.28v-2.77a2,2,0,0,0-1.39-.6c-.91,0-1.66.8-1.66,2.08s.59,2.08,1.57,2.08A1.93,1.93,0,0,0,678.12,484.91Z"/><path d="M684,481.64h-2.62v-.95h3.81v5.86H684Zm-.39-2.94a.89.89,0,0,1,1.78,0,.89.89,0,0,1-1.78,0Z"/><path d="M688.11,480.69h1.21l1.24,3.17c.22.59.42,1.18.62,1.76h.05c.19-.58.38-1.17.6-1.76l1.24-3.17h1.15l-2.36,5.86h-1.35Z"/><path d="M702.88,483.63a3.06,3.06,0,0,1,3.3-3.08,3,3,0,0,1,2.15.84l-.57.75a2.33,2.33,0,0,0-1.52-.61,2,2,0,0,0-2.13,2.1,2,2,0,0,0,2.09,2.08,2.72,2.72,0,0,0,1.74-.69l.52.77a3.6,3.6,0,0,1-2.35.9A3,3,0,0,1,702.88,483.63Z"/><path d="M712,484.5V479h-2v-.95h3.21v6.52a1,1,0,0,0,1.1,1.14,2.59,2.59,0,0,0,1.05-.24l.29.88a3.76,3.76,0,0,1-1.62.34C712.7,486.69,712,485.91,712,484.5Z"/><path d="M717.27,485c0-1.31,1.19-2,4.15-2.18a1.3,1.3,0,0,0-1.48-1.31,4.2,4.2,0,0,0-2,.66l-.45-.79a5.23,5.23,0,0,1,2.65-.83,2.22,2.22,0,0,1,2.45,2.47v3.53h-1l-.1-.76h0a3.82,3.82,0,0,1-2.24.9A1.77,1.77,0,0,1,717.27,485Zm4.15,0v-1.37c-2.3.16-3,.62-3,1.32s.53.84,1.16.84A3,3,0,0,0,721.42,485Z"/><path d="M724.36,485.78l.53-.77a4.29,4.29,0,0,0,2.5.77c.9,0,1.33-.36,1.33-.8s-.25-.68-1.72-1-2.28-.86-2.28-1.74.89-1.71,2.51-1.71a4.48,4.48,0,0,1,2.41.76l-.56.74a3.54,3.54,0,0,0-2-.6c-.87,0-1.2.35-1.2.75s.46.64,1.61.88c1.91.42,2.39.91,2.39,1.83s-.95,1.78-2.68,1.78A5.19,5.19,0,0,1,724.36,485.78Z"/><path d="M731.56,485.78l.53-.77a4.29,4.29,0,0,0,2.5.77c.9,0,1.33-.36,1.33-.8s-.25-.68-1.72-1-2.28-.86-2.28-1.74.89-1.71,2.51-1.71a4.48,4.48,0,0,1,2.41.76l-.56.74a3.54,3.54,0,0,0-2-.6c-.87,0-1.2.35-1.2.75s.46.64,1.61.88c1.91.42,2.39.91,2.39,1.83s-1,1.78-2.68,1.78A5.19,5.19,0,0,1,731.56,485.78Z"/><path d="M738.94,480.84h5.25v.88h-5.25Zm0,2.63h5.25v.87h-5.25Z"/><path d="M746.6,479.75l0-1.43h1.5l0,1.43-.34,2.73h-.78Zm2.87,0,0-1.43H751l0,1.43-.34,2.73h-.78Z"/><path d="M753.28,483.63a3.06,3.06,0,0,1,3.3-3.08,3,3,0,0,1,2.15.84l-.57.75a2.33,2.33,0,0,0-1.52-.61,2,2,0,0,0-2.13,2.1,2,2,0,0,0,2.09,2.08,2.72,2.72,0,0,0,1.74-.69l.51.77a3.55,3.55,0,0,1-2.34.9A3,3,0,0,1,753.28,483.63Z"/><path d="M760.24,483.63a2.92,2.92,0,1,1,2.92,3.06A2.89,2.89,0,0,1,760.24,483.63Zm4.62,0c0-1.26-.66-2.1-1.7-2.1s-1.69.84-1.69,2.1.66,2.08,1.69,2.08S764.86,484.88,764.86,483.63Z"/><path d="M767.82,480.69h1l.1.93h.05a3,3,0,0,1,2.15-1.07c1.37,0,2,.84,2,2.36v3.64h-1.2v-3.48c0-1-.34-1.49-1.21-1.49a2.25,2.25,0,0,0-1.67.93v4h-1.19Z"/><path d="M776.34,484.23v-2.59h-1.62v-.89l1.66-.06.16-1.86h1v1.86h2.77v.95h-2.77v2.6c0,1,.36,1.49,1.42,1.49a3.66,3.66,0,0,0,1.33-.25l.25.87a5.28,5.28,0,0,1-1.86.34C776.92,486.69,776.34,485.7,776.34,484.23Z"/><path d="M782.07,485c0-1.31,1.19-2,4.15-2.18a1.3,1.3,0,0,0-1.48-1.31,4.2,4.2,0,0,0-2,.66l-.45-.79a5.2,5.2,0,0,1,2.65-.83,2.22,2.22,0,0,1,2.45,2.47v3.53h-1l-.09-.76h0a3.82,3.82,0,0,1-2.24.9A1.77,1.77,0,0,1,782.07,485Zm4.15,0v-1.37c-2.3.16-3,.62-3,1.32s.53.84,1.16.84A3,3,0,0,0,786.22,485Z"/><path d="M792,481.64h-2.62v-.95h3.81v5.86H792Zm-.39-2.94a.89.89,0,0,1,1.78,0,.89.89,0,0,1-1.78,0Z"/><path d="M796.61,480.69h1l.1.93h0a3,3,0,0,1,2.16-1.07c1.37,0,2,.84,2,2.36v3.64h-1.2v-3.48c0-1-.34-1.49-1.21-1.49a2.25,2.25,0,0,0-1.67.93v4h-1.2Z"/><path d="M803.54,483.61a3,3,0,0,1,3-3.06,2.54,2.54,0,0,1,2.7,2.76,4.92,4.92,0,0,1,0,.65h-4.82v-.87h4.07l-.25.29c0-1.27-.62-1.91-1.61-1.91a1.9,1.9,0,0,0-1.87,2.14,2,2,0,0,0,2.16,2.15,3.19,3.19,0,0,0,1.72-.52l.41.76a4.1,4.1,0,0,1-2.28.69A3,3,0,0,1,803.54,483.61Z"/><path d="M811.61,480.69h1l.11,1.36h0a3,3,0,0,1,2.55-1.5,2.4,2.4,0,0,1,1.15.24l-.26,1a2.92,2.92,0,0,0-1.08-.19,2.59,2.59,0,0,0-2.29,1.62v3.32h-1.2Z"/><path d="M818.6,479.75l0-1.43h1.5l0,1.43-.33,2.73h-.78Zm2.87,0,0-1.43H823l0,1.43-.34,2.73h-.78Z"/><path d="M825.62,484.9l3.49-2.31v0l-3.49-2.31v-1.12l4.51,3V483l-4.51,3Z"/><path d="M681.79,497.41v-.88l4.52-3v1.12L682.82,497v0l3.49,2.31v1.13Z"/><path d="M688.62,492.45h1.19v2.25l-.07,1.32h0A2.84,2.84,0,0,1,691.9,495c1.37,0,2,.84,2,2.37V501H692.7v-3.48c0-1-.35-1.49-1.22-1.49a2.29,2.29,0,0,0-1.67.93v4h-1.19Z"/><path d="M695.59,500.25c2.49-2.17,3.92-3.5,3.92-4.72,0-.84-.51-1.4-1.55-1.4a2.59,2.59,0,0,0-1.76.87l-.67-.66a3.45,3.45,0,0,1,2.58-1.18,2.28,2.28,0,0,1,2.54,2.3c0,1.4-1.4,2.81-3.32,4.54.46,0,1-.06,1.41-.06h2.33v1h-5.48Z"/><path d="M703.22,499.3l3.49-2.31v0l-3.49-2.32v-1.12l4.52,3v.88l-4.52,3Z"/><path d="M710,493.1h1.39l1,3.2.35,1.22h0l.34-1.22,1-3.2h1.38V501h-1.1v-3.54c0-.8.13-2.29.19-3h0l-.48,1.68-1,2.78h-.76l-1-2.78-.48-1.68h0c.08.71.19,2.2.19,3V501H710Z"/><path d="M720,496h-2.62v-1h3.81V501H720Zm-.39-2.94a.89.89,0,0,1,1.78,0,.89.89,0,0,1-1.78,0Z"/><path d="M724.62,495.09h1l.1.94h0a2.93,2.93,0,0,1,2.15-1.08c1.37,0,2,.84,2,2.37V501h-1.2v-3.48c0-1-.34-1.49-1.21-1.49a2.27,2.27,0,0,0-1.67.93v4h-1.19Z"/><path d="M731.54,498a3,3,0,0,1,3-3.06,2.54,2.54,0,0,1,2.7,2.76,4.66,4.66,0,0,1-.06.65h-4.82v-.87h4.08l-.26.29c0-1.27-.62-1.91-1.61-1.91a1.9,1.9,0,0,0-1.87,2.14,2,2,0,0,0,2.16,2.15,3.19,3.19,0,0,0,1.72-.52l.41.76a4.1,4.1,0,0,1-2.28.69A3,3,0,0,1,731.54,498Z"/><path d="M738.88,498a3.06,3.06,0,0,1,3.3-3.08,3,3,0,0,1,2.15.84l-.57.75a2.33,2.33,0,0,0-1.52-.61,2,2,0,0,0-2.13,2.1,2,2,0,0,0,2.09,2.08,2.75,2.75,0,0,0,1.74-.69l.51.77a3.5,3.5,0,0,1-2.34.9A3,3,0,0,1,738.88,498Z"/><path d="M746.81,495.09h1l.11,1.36h0a3,3,0,0,1,2.55-1.5,2.4,2.4,0,0,1,1.15.24l-.26,1a2.9,2.9,0,0,0-1.07-.19,2.6,2.6,0,0,0-2.3,1.62V501h-1.2Z"/><path d="M753.27,499.4c0-1.31,1.19-2,4.15-2.18a1.3,1.3,0,0,0-1.48-1.31,4.2,4.2,0,0,0-2,.66l-.45-.79a5.23,5.23,0,0,1,2.65-.83,2.22,2.22,0,0,1,2.45,2.47V501h-1l-.1-.76h0a3.82,3.82,0,0,1-2.24.9A1.77,1.77,0,0,1,753.27,499.4Zm4.15,0V498c-2.3.16-3,.62-3,1.32s.53.84,1.16.84A3,3,0,0,0,757.42,499.36Z"/><path d="M760.74,495.15l1.67-.06h3.49v1h-5.16Zm1.64-.46a2.18,2.18,0,0,1,2.43-2.39,4.69,4.69,0,0,1,1.71.33l-.26.89a3.14,3.14,0,0,0-1.32-.26,1.23,1.23,0,0,0-1.38,1.4V501h-1.18Z"/><path d="M769.14,498.63V496h-1.62v-.89l1.66-.06.16-1.86h1v1.86h2.77v1h-2.77v2.6c0,1,.36,1.49,1.42,1.49a3.66,3.66,0,0,0,1.33-.25l.25.87a5.28,5.28,0,0,1-1.86.34C769.72,501.09,769.14,500.1,769.14,498.63Z"/><path d="M782.3,493.1h2.48c1.73,0,3,.59,3,2.36s-1.24,2.49-3,2.49h-1.27v3H782.3Zm2.37,3.89c1.26,0,1.87-.49,1.87-1.53s-.63-1.4-1.87-1.4h-1.16V497Z"/><path d="M791.19,498.9v-5.5h-2v-.95h3.2V499a1,1,0,0,0,1.11,1.14,2.59,2.59,0,0,0,1-.24l.29.88a3.76,3.76,0,0,1-1.62.34C791.9,501.09,791.19,500.31,791.19,498.9Z"/><path d="M796.44,498.73v-3.64h1.2v3.48c0,1,.33,1.5,1.22,1.5a2.09,2.09,0,0,0,1.64-1v-4h1.19V501h-1l-.09-1h-.05a2.74,2.74,0,0,1-2.13,1.12C797.06,501.09,796.44,500.25,796.44,498.73Z"/><path d="M803.57,502a1.56,1.56,0,0,1,.95-1.27v0a1.08,1.08,0,0,1-.6-1,1.4,1.4,0,0,1,.7-1.09v-.05a1.84,1.84,0,0,1-.74-1.52,2.17,2.17,0,0,1,2.36-2.1,2.68,2.68,0,0,1,.89.14h2.41V496h-1.43a1.65,1.65,0,0,1,.43,1.07,2.05,2.05,0,0,1-2.3,2,2.52,2.52,0,0,1-.94-.2.74.74,0,0,0-.41.62c0,.42.41.61,1.16.61h1.25c1.52,0,2.27.4,2.27,1.4s-1.29,2.07-3.32,2.07C804.59,503.6,803.57,503,803.57,502Zm4.85-.27c0-.51-.43-.65-1.26-.65h-1a3.25,3.25,0,0,1-.89-.09c-.49.27-.66.57-.66.87,0,.57.64.91,1.8.91S808.42,502.28,808.42,501.73Zm-.95-4.68a1.23,1.23,0,1,0-1.23,1.28A1.21,1.21,0,0,0,807.47,497.05Z"/><path d="M813.63,496H811v-1h3.81V501h-1.19Zm-.39-2.94a.89.89,0,0,1,1.78,0,.89.89,0,0,1-1.78,0Z"/><path d="M818.21,495.09h1l.1.94h0a3,3,0,0,1,2.16-1.08c1.37,0,2,.84,2,2.37V501h-1.2v-3.48c0-1-.34-1.49-1.21-1.49a2.25,2.25,0,0,0-1.67.93v4h-1.2Z"/><path d="M832.56,493.1h2c2.34,0,3.68,1.34,3.68,3.89s-1.34,4-3.61,4h-2.06Zm1.92,6.87c1.64,0,2.51-1,2.51-3s-.87-2.91-2.51-2.91h-.72V500Z"/><path d="M839.54,498a3,3,0,0,1,3-3.06,2.54,2.54,0,0,1,2.7,2.76,4.92,4.92,0,0,1,0,.65h-4.82v-.87h4.07l-.25.29c0-1.27-.62-1.91-1.61-1.91a1.9,1.9,0,0,0-1.87,2.14,2,2,0,0,0,2.16,2.15,3.13,3.13,0,0,0,1.71-.52l.42.76a4.1,4.1,0,0,1-2.28.69A3,3,0,0,1,839.54,498Z"/><path d="M846.5,495.09h1.22l1.24,3.17c.22.59.42,1.18.62,1.76h0c.2-.58.38-1.17.61-1.76l1.24-3.17h1.15L850.26,501h-1.35Z"/><path d="M853.94,498a3,3,0,0,1,3-3.06,2.54,2.54,0,0,1,2.7,2.76,4.92,4.92,0,0,1,0,.65h-4.82v-.87h4.07l-.26.29c0-1.27-.61-1.91-1.6-1.91a1.9,1.9,0,0,0-1.87,2.14,2,2,0,0,0,2.16,2.15,3.13,3.13,0,0,0,1.71-.52l.42.76a4.1,4.1,0,0,1-2.28.69A3,3,0,0,1,853.94,498Z"/><path d="M863.19,498.9v-5.5h-2v-.95h3.21V499a1,1,0,0,0,1.11,1.14,2.59,2.59,0,0,0,1-.24l.28.88a3.72,3.72,0,0,1-1.61.34C863.9,501.09,863.19,500.31,863.19,498.9Z"/><path d="M868.24,498a2.92,2.92,0,1,1,2.92,3.06A2.89,2.89,0,0,1,868.24,498Zm4.62,0c0-1.26-.66-2.1-1.7-2.1s-1.69.84-1.69,2.1.65,2.08,1.69,2.08S872.86,499.28,872.86,498Z"/><path d="M875.81,495.09h1l.1.71h0a3,3,0,0,1,2-.85c1.54,0,2.4,1.17,2.4,3,0,2-1.25,3.16-2.63,3.16a2.59,2.59,0,0,1-1.67-.72h0l.06,1.07v1.9h-1.2Zm4.25,2.85c0-1.23-.45-2-1.51-2a2.2,2.2,0,0,0-1.54.79v2.77a2.18,2.18,0,0,0,1.41.6C879.35,500.1,880.06,499.33,880.06,497.94Z"/><path d="M882.59,495.09h.93l.09.76h0A1.43,1.43,0,0,1,885,495c.56,0,.93.33,1.09,1a1.46,1.46,0,0,1,1.35-1c.82,0,1.31.66,1.31,1.83V501h-1.17v-4.09c0-.59-.16-.89-.54-.89s-.56.27-.84.81V501h-1v-4.09c0-.59-.15-.89-.53-.89s-.6.27-.85.81V501h-1.16Z"/><path d="M889.94,498a3,3,0,0,1,3-3.06,2.54,2.54,0,0,1,2.7,2.76,4.92,4.92,0,0,1,0,.65h-4.82v-.87h4.07l-.26.29c0-1.27-.61-1.91-1.6-1.91a1.9,1.9,0,0,0-1.87,2.14,2,2,0,0,0,2.16,2.15,3.13,3.13,0,0,0,1.71-.52l.42.76a4.1,4.1,0,0,1-2.28.69A3,3,0,0,1,889.94,498Z"/><path d="M897.41,495.09h1l.1.94h0a3,3,0,0,1,2.16-1.08c1.37,0,2,.84,2,2.37V501h-1.2v-3.48c0-1-.34-1.49-1.21-1.49a2.25,2.25,0,0,0-1.67.93v4h-1.2Z"/><path d="M905.93,498.63V496h-1.61v-.89l1.66-.06.16-1.86h1v1.86h2.76v1h-2.76v2.6c0,1,.36,1.49,1.42,1.49a3.66,3.66,0,0,0,1.33-.25l.25.87a5.28,5.28,0,0,1-1.86.34C906.52,501.09,905.93,500.1,905.93,498.63Z"/><path d="M912.19,497.41v-.88l4.51-3v1.12L913.21,497v0l3.49,2.31v1.13Z"/><path d="M923,492.44h1l-3.94,10.43h-1Z"/><path d="M926.21,492.45h1.2v2.25l-.07,1.32h0A2.82,2.82,0,0,1,929.5,495c1.36,0,2,.84,2,2.37V501h-1.2v-3.48c0-1-.34-1.49-1.21-1.49a2.25,2.25,0,0,0-1.67.93v4h-1.2Z"/><path d="M933.19,500.25c2.49-2.17,3.91-3.5,3.91-4.72,0-.84-.51-1.4-1.55-1.4a2.55,2.55,0,0,0-1.75.87l-.68-.66a3.45,3.45,0,0,1,2.58-1.18,2.28,2.28,0,0,1,2.55,2.3c0,1.4-1.41,2.81-3.33,4.54.47,0,1-.06,1.42-.06h2.32v1h-5.47Z"/><path d="M940.82,499.3l3.49-2.31v0l-3.49-2.32v-1.12l4.51,3v.88l-4.51,3Z"/><path d="M667.39,511.81v-.88l4.52-3V509l-3.49,2.31v0l3.49,2.31v1.13Z"/><path d="M678.21,506.84h1l-3.93,10.43h-1Z"/><path d="M681,512.43a2.8,2.8,0,0,1,2.62-3.08,2.38,2.38,0,0,1,1.69.71h0l0-1v-2.19h1.19v8.5h-1l-.1-.73h0a2.71,2.71,0,0,1-1.84.88C682.05,515.5,681,514.37,681,512.43Zm4.28,1.29v-2.78a2,2,0,0,0-1.39-.6c-.91,0-1.66.8-1.66,2.08s.59,2.08,1.57,2.08A2,2,0,0,0,685.32,513.72Z"/><path d="M691.23,510.45h-2.62v-1h3.81v5.86h-1.19Zm-.39-2.95a.89.89,0,0,1,1.78,0,.89.89,0,0,1-1.78,0Z"/><path d="M695.31,509.49h1.21l1.24,3.17c.22.59.42,1.18.62,1.76h0c.19-.58.38-1.17.61-1.76l1.23-3.17h1.15l-2.36,5.86h-1.35Z"/><path d="M703.22,513.7l3.49-2.31v0L703.22,509v-1.13l4.52,3v.88l-4.52,3Z"/><path d="M653,526.21v-.88l4.52-3v1.12L654,525.75v0l3.49,2.31v1.13Z"/><path d="M663.81,521.24h1l-3.93,10.43h-1Z"/><path d="M666.65,526.83a2.8,2.8,0,0,1,2.61-3.08,2.38,2.38,0,0,1,1.69.71h0l-.05-1v-2.18h1.19v8.5h-1L671,529h0a2.69,2.69,0,0,1-1.84.87C667.65,529.89,666.65,528.77,666.65,526.83Zm4.27,1.29v-2.78a2,2,0,0,0-1.39-.6c-.91,0-1.66.8-1.66,2.08s.59,2.08,1.57,2.08A1.94,1.94,0,0,0,670.92,528.12Z"/><path d="M676.83,524.84h-2.62v-1H678v5.86h-1.19Zm-.39-2.94a.89.89,0,0,1,1.78,0,.89.89,0,0,1-1.78,0Z"/><path d="M680.91,523.89h1.21l1.24,3.17c.22.59.42,1.18.62,1.76h0c.19-.58.38-1.17.6-1.76l1.24-3.17H687l-2.36,5.86h-1.35Z"/><path d="M688.82,528.1l3.49-2.31v0l-3.49-2.32v-1.12l4.52,3v.88l-4.52,3Z"/><path d="M638.59,540.61v-.88l4.52-3v1.12l-3.49,2.32v0l3.49,2.31v1.13Z"/><path d="M649.41,535.64h1l-3.93,10.43h-1Z"/><path d="M653.71,543.5h0l-.11.65h-.94v-8.5h1.19v2.25l0,1.08h0a2.73,2.73,0,0,1,1.87-.83c1.55,0,2.41,1.17,2.41,3,0,2-1.24,3.17-2.61,3.17A2.68,2.68,0,0,1,653.71,543.5Zm3.15-2.36c0-1.23-.45-2-1.5-2a2.21,2.21,0,0,0-1.55.79v2.77a2.22,2.22,0,0,0,1.43.6C656.16,543.3,656.86,542.53,656.86,541.14Z"/><path d="M659.45,541.23a2.92,2.92,0,1,1,2.91,3.06A2.88,2.88,0,0,1,659.45,541.23Zm4.61,0c0-1.26-.66-2.1-1.7-2.1s-1.69.84-1.69,2.1.66,2.08,1.69,2.08S664.06,542.48,664.06,541.23Z"/><path d="M666.65,541.23a2.8,2.8,0,0,1,2.61-3.08,2.38,2.38,0,0,1,1.69.71h0l-.05-1v-2.18h1.19v8.5h-1l-.1-.73h0a2.69,2.69,0,0,1-1.84.87C667.65,544.29,666.65,543.17,666.65,541.23Zm4.27,1.29v-2.78a2,2,0,0,0-1.39-.6c-.91,0-1.66.8-1.66,2.08s.59,2.08,1.57,2.08A1.94,1.94,0,0,0,670.92,542.52Z"/><path d="M674,546.49l.23-.93a2.17,2.17,0,0,0,.51.08,1.57,1.57,0,0,0,1.51-1.12l.15-.4-2.67-5.83h1.2l1.31,3c.22.53.46,1.14.68,1.72h.05c.19-.56.41-1.17.6-1.72l1.16-3h1.14l-2.51,6.23c-.47,1.24-1.18,2.09-2.56,2.09A2.75,2.75,0,0,1,674,546.49Z"/><path d="M681.62,542.5l3.49-2.31v0l-3.49-2.32v-1.12l4.52,3v.88l-4.52,3Z"/><path class="cls-11" d="M638.59,569.41v-.88l4.52-3v1.12L639.62,569v0l3.49,2.31v1.13Z"/><path class="cls-11" d="M649.41,564.44h1l-3.93,10.43h-1Z"/><path class="cls-11" d="M652.62,564.45h1.19v2.25l-.07,1.32h0A2.84,2.84,0,0,1,655.9,567c1.37,0,2,.84,2,2.37V573H656.7v-3.48c0-1-.35-1.49-1.22-1.49a2.29,2.29,0,0,0-1.67.93v4h-1.19Z"/><path class="cls-11" d="M661.14,570.63V568h-1.62v-.89l1.67-.06.15-1.86h1v1.86h2.77V568h-2.77v2.6c0,1,.36,1.49,1.42,1.49a3.72,3.72,0,0,0,1.34-.25l.24.87a5.28,5.28,0,0,1-1.86.34C661.72,573.09,661.14,572.1,661.14,570.63Z"/><path class="cls-11" d="M666.59,567.09h.93l.1.76h0A1.43,1.43,0,0,1,669,567c.56,0,.93.33,1.09,1a1.46,1.46,0,0,1,1.35-1c.83,0,1.31.66,1.31,1.83V573h-1.16v-4.09c0-.59-.17-.89-.55-.89s-.56.27-.83.81V573h-1v-4.09c0-.59-.15-.89-.53-.89s-.59.27-.85.81V573h-1.16Z"/><path class="cls-11" d="M676,570.9v-5.5h-2v-.95h3.21V571a1,1,0,0,0,1.1,1.14,2.59,2.59,0,0,0,1.05-.24l.29.88a3.76,3.76,0,0,1-1.62.34C676.7,573.09,676,572.31,676,570.9Z"/><path class="cls-11" d="M681.62,571.3l3.49-2.31v0l-3.49-2.32v-1.12l4.52,3v.88l-4.52,3Z"/><path d="M638.59,583.81v-.88l4.52-3V581l-3.49,2.31v0l3.49,2.31v1.13Z"/><path d="M647.19,585.3v-5.5h-2v-.95h3.21v6.52a1,1,0,0,0,1.1,1.14,2.59,2.59,0,0,0,1-.24l.29.88a3.77,3.77,0,0,1-1.62.35C647.9,587.5,647.19,586.71,647.19,585.3Z"/><path d="M655.23,582.45h-2.62v-1h3.81v5.86h-1.19Zm-.39-3a.89.89,0,0,1,1.78,0,.89.89,0,0,1-1.78,0Z"/><path d="M659.82,581.49h1l.1.94h.05a2.93,2.93,0,0,1,2.16-1.08c1.37,0,2,.84,2,2.37v3.63H663.9v-3.48c0-1-.35-1.49-1.22-1.49a2.29,2.29,0,0,0-1.67.93v4h-1.19Z"/><path d="M667.13,578.85h1.2v5.53h0l2.88-2.89h1.35l-4.28,4.3v1.56h-1.2Zm2.31,5.51.7-.76,2.75,3.75h-1.32Z"/><path d="M682,581.49h1l.11,1.36h0a3,3,0,0,1,2.55-1.5,2.37,2.37,0,0,1,1.15.24l-.26,1a2.9,2.9,0,0,0-1.07-.19,2.6,2.6,0,0,0-2.3,1.62v3.32H682Z"/><path d="M688.34,584.41a3,3,0,0,1,3-3.06,2.54,2.54,0,0,1,2.7,2.76,4.66,4.66,0,0,1-.06.65h-4.82v-.87h4.08l-.26.29c0-1.27-.62-1.91-1.61-1.91a1.9,1.9,0,0,0-1.87,2.14,2,2,0,0,0,2.16,2.15,3.19,3.19,0,0,0,1.72-.52l.42.76a4.17,4.17,0,0,1-2.29.7A3,3,0,0,1,688.34,584.41Z"/><path d="M697.59,585.3v-5.5h-2v-.95h3.21v6.52a1,1,0,0,0,1.1,1.14,2.59,2.59,0,0,0,1.05-.24l.29.88a3.77,3.77,0,0,1-1.62.35C698.3,587.5,697.59,586.71,697.59,585.3Z"/><path d="M702.94,581.64h5.25v.88h-5.25Zm0,2.63h5.25v.87h-5.25Z"/><path d="M710.6,580.55l0-1.43h1.5l0,1.43-.34,2.73h-.78Zm2.87,0,0-1.43H715l0,1.43-.34,2.73h-.78Z"/><path d="M717.16,586.58l.53-.77a4.29,4.29,0,0,0,2.5.77c.9,0,1.33-.36,1.33-.8s-.24-.68-1.72-1-2.27-.86-2.27-1.74.88-1.71,2.5-1.71a4.48,4.48,0,0,1,2.41.76l-.56.74a3.54,3.54,0,0,0-2-.6c-.87,0-1.2.35-1.2.75s.46.64,1.61.88c1.91.42,2.39.91,2.39,1.83s-1,1.79-2.68,1.79A5.19,5.19,0,0,1,717.16,586.58Z"/><path d="M725.94,585v-2.58h-1.62v-.9l1.66-.06.16-1.86h1v1.86h2.77v1h-2.77V585c0,1,.36,1.49,1.42,1.49a3.66,3.66,0,0,0,1.33-.25l.25.87a5.27,5.27,0,0,1-1.86.35C726.52,587.5,725.94,586.5,725.94,585Z"/><path d="M731.57,589.69l.23-.93a2.17,2.17,0,0,0,.51.08,1.58,1.58,0,0,0,1.51-1.12l.15-.4-2.67-5.83h1.2l1.3,3c.23.52.46,1.13.69,1.71h0c.19-.56.41-1.17.6-1.71l1.16-3h1.14l-2.51,6.23c-.47,1.24-1.18,2.09-2.56,2.09A2.75,2.75,0,0,1,731.57,589.69Z"/><path d="M740.79,585.3v-5.5h-2v-.95H742v6.52a1,1,0,0,0,1.11,1.14,2.59,2.59,0,0,0,1-.24l.29.88a3.77,3.77,0,0,1-1.62.35C741.5,587.5,740.79,586.71,740.79,585.3Z"/><path d="M745.94,584.41a3,3,0,0,1,3-3.06,2.53,2.53,0,0,1,2.69,2.76,4.92,4.92,0,0,1,0,.65h-4.82v-.87h4.08l-.26.29c0-1.27-.62-1.91-1.61-1.91a1.9,1.9,0,0,0-1.87,2.14,2,2,0,0,0,2.16,2.15A3.19,3.19,0,0,0,751,586l.41.76a4.11,4.11,0,0,1-2.28.7A3,3,0,0,1,745.94,584.41Z"/><path d="M753.16,586.58l.53-.77a4.29,4.29,0,0,0,2.5.77c.9,0,1.33-.36,1.33-.8s-.25-.68-1.72-1-2.28-.86-2.28-1.74.89-1.71,2.51-1.71a4.48,4.48,0,0,1,2.41.76l-.56.74a3.54,3.54,0,0,0-2-.6c-.87,0-1.21.35-1.21.75s.47.64,1.62.88c1.91.42,2.39.91,2.39,1.83s-1,1.79-2.68,1.79A5.19,5.19,0,0,1,753.16,586.58Z"/><path d="M760.62,578.85h1.19v2.25l-.07,1.32h0a2.84,2.84,0,0,1,2.12-1.07c1.36,0,2,.84,2,2.37v3.63h-1.2v-3.48c0-1-.34-1.49-1.21-1.49a2.25,2.25,0,0,0-1.67.93v4h-1.19Z"/><path d="M767.54,584.41a3,3,0,0,1,3-3.06,2.53,2.53,0,0,1,2.69,2.76,4.92,4.92,0,0,1,0,.65h-4.82v-.87h4.08l-.26.29c0-1.27-.62-1.91-1.61-1.91a1.9,1.9,0,0,0-1.87,2.14,2,2,0,0,0,2.16,2.15,3.19,3.19,0,0,0,1.72-.52l.41.76a4.11,4.11,0,0,1-2.28.7A3,3,0,0,1,767.54,584.41Z"/><path d="M774.74,584.41a3,3,0,0,1,3-3.06,2.54,2.54,0,0,1,2.69,2.76,4.92,4.92,0,0,1-.05.65h-4.82v-.87h4.07l-.25.29c0-1.27-.62-1.91-1.61-1.91a1.9,1.9,0,0,0-1.87,2.14,2,2,0,0,0,2.16,2.15,3.19,3.19,0,0,0,1.72-.52l.41.76a4.11,4.11,0,0,1-2.28.7A3,3,0,0,1,774.74,584.41Z"/><path d="M783.54,585v-2.58h-1.62v-.9l1.66-.06.16-1.86h1v1.86h2.77v1h-2.77V585c0,1,.36,1.49,1.42,1.49a3.66,3.66,0,0,0,1.33-.25l.25.87a5.27,5.27,0,0,1-1.86.35C784.12,587.5,783.54,586.5,783.54,585Z"/><path d="M789.8,580.55l0-1.43h1.5l0,1.43-.34,2.73h-.78Zm2.87,0,0-1.43h1.5l0,1.43-.34,2.73H793Z"/><path d="M803.81,578.85H805v2.25l-.07,1.32h0a2.84,2.84,0,0,1,2.12-1.07c1.36,0,2,.84,2,2.37v3.63h-1.2v-3.48c0-1-.34-1.49-1.21-1.49a2.25,2.25,0,0,0-1.67.93v4h-1.2Z"/><path d="M811.61,581.49h1l.11,1.36h0a3,3,0,0,1,2.55-1.5,2.4,2.4,0,0,1,1.15.24l-.26,1a2.92,2.92,0,0,0-1.08-.19,2.59,2.59,0,0,0-2.29,1.62v3.32h-1.2Z"/><path d="M817.94,584.41a3,3,0,0,1,3-3.06,2.54,2.54,0,0,1,2.7,2.76,4.92,4.92,0,0,1,0,.65h-4.82v-.87h4.07l-.25.29c0-1.27-.62-1.91-1.61-1.91a1.9,1.9,0,0,0-1.87,2.14,2,2,0,0,0,2.16,2.15A3.19,3.19,0,0,0,823,586l.41.76a4.11,4.11,0,0,1-2.28.7A3,3,0,0,1,817.94,584.41Z"/><path d="M825.53,581.55l1.68-.06h3.49v1h-5.17Zm1.65-.46a2.18,2.18,0,0,1,2.43-2.39,4.5,4.5,0,0,1,1.71.34l-.26.88a3.14,3.14,0,0,0-1.32-.26,1.23,1.23,0,0,0-1.38,1.4v6.29h-1.18Z"/><path d="M832.54,581.64h5.25v.88h-5.25Zm0,2.63h5.25v.87h-5.25Z"/><path d="M840.2,580.55l0-1.43h1.51l0,1.43-.33,2.73h-.78Zm2.87,0,0-1.43h1.51l0,1.43-.34,2.73h-.78Z"/><path d="M846.88,584.43a3.06,3.06,0,0,1,3.3-3.08,3,3,0,0,1,2.15.84l-.57.75a2.36,2.36,0,0,0-1.53-.61,2,2,0,0,0-2.12,2.1,2,2,0,0,0,2.09,2.08,2.75,2.75,0,0,0,1.74-.69l.51.77a3.54,3.54,0,0,1-2.35.91A3,3,0,0,1,846.88,584.43Z"/><path d="M854,586.58l.53-.77a4.29,4.29,0,0,0,2.5.77c.9,0,1.33-.36,1.33-.8s-.25-.68-1.72-1-2.28-.86-2.28-1.74.88-1.71,2.51-1.71a4.48,4.48,0,0,1,2.41.76l-.57.74a3.51,3.51,0,0,0-1.95-.6c-.87,0-1.21.35-1.21.75s.47.64,1.62.88c1.91.42,2.39.91,2.39,1.83s-.95,1.79-2.68,1.79A5.19,5.19,0,0,1,854,586.58Z"/><path d="M861.16,586.58l.53-.77a4.29,4.29,0,0,0,2.5.77c.9,0,1.33-.36,1.33-.8s-.25-.68-1.72-1-2.28-.86-2.28-1.74.88-1.71,2.51-1.71a4.48,4.48,0,0,1,2.41.76l-.56.74a3.57,3.57,0,0,0-2-.6c-.87,0-1.21.35-1.21.75s.47.64,1.62.88c1.91.42,2.39.91,2.39,1.83s-1,1.79-2.68,1.79A5.19,5.19,0,0,1,861.16,586.58Z"/><path d="M872.61,578.84h1l-3.94,10.43h-1Z"/><path d="M878.43,582.45h-2.62v-1h3.81v5.86h-1.19Zm-.39-3a.89.89,0,0,1,1.78,0,.89.89,0,0,1-1.78,0Z"/><path d="M883,581.49h1l.1.94h0a3,3,0,0,1,2.16-1.08c1.37,0,2,.84,2,2.37v3.63h-1.2v-3.48c0-1-.34-1.49-1.21-1.49a2.25,2.25,0,0,0-1.67.93v4H883Z"/><path d="M889.84,584.43a2.8,2.8,0,0,1,2.62-3.08,2.34,2.34,0,0,1,1.68.71h0l-.06-1v-2.19h1.2v8.5h-1l-.09-.73h0a2.73,2.73,0,0,1-1.84.88C890.84,587.5,889.84,586.37,889.84,584.43Zm4.27,1.29v-2.78a2,2,0,0,0-1.38-.6c-.92,0-1.66.8-1.66,2.08s.59,2.08,1.56,2.08A1.93,1.93,0,0,0,894.11,585.72Z"/><path d="M897.14,584.41a3,3,0,0,1,3-3.06,2.54,2.54,0,0,1,2.7,2.76,4.92,4.92,0,0,1-.05.65H898v-.87H902l-.25.29c0-1.27-.62-1.91-1.61-1.91a1.9,1.9,0,0,0-1.87,2.14,2,2,0,0,0,2.16,2.15,3.13,3.13,0,0,0,1.71-.52l.42.76a4.11,4.11,0,0,1-2.28.7A3,3,0,0,1,897.14,584.41Z"/><path d="M906.42,584.31l-2-2.82h1.3l.84,1.19c.2.33.44.68.66,1h0c.2-.31.43-.67.62-1l.78-1.18h1.26l-2,2.93,2.19,2.93h-1.31l-.92-1.25c-.24-.32-.5-.71-.75-1.05h0c-.23.35-.46.7-.68,1.06l-.86,1.24h-1.26Z"/><path d="M913.28,586.37a1.08,1.08,0,1,1,1.08,1.13A1.08,1.08,0,0,1,913.28,586.37Z"/><path d="M918.88,584.43a3.06,3.06,0,0,1,3.3-3.08,3,3,0,0,1,2.15.84l-.57.75a2.36,2.36,0,0,0-1.53-.61,2,2,0,0,0-2.12,2.1,2,2,0,0,0,2.09,2.08,2.75,2.75,0,0,0,1.74-.69l.51.77a3.54,3.54,0,0,1-2.35.91A3,3,0,0,1,918.88,584.43Z"/><path d="M926,586.58l.53-.77a4.29,4.29,0,0,0,2.5.77c.9,0,1.33-.36,1.33-.8s-.25-.68-1.72-1-2.28-.86-2.28-1.74.88-1.71,2.51-1.71a4.48,4.48,0,0,1,2.41.76l-.57.74a3.51,3.51,0,0,0-1.95-.6c-.87,0-1.21.35-1.21.75s.47.64,1.62.88c1.91.42,2.39.91,2.39,1.83s-.95,1.79-2.68,1.79A5.19,5.19,0,0,1,926,586.58Z"/><path d="M933.16,586.58l.53-.77a4.29,4.29,0,0,0,2.5.77c.89,0,1.33-.36,1.33-.8s-.25-.68-1.72-1-2.28-.86-2.28-1.74.88-1.71,2.51-1.71a4.41,4.41,0,0,1,2.4.76l-.56.74a3.51,3.51,0,0,0-2-.6c-.87,0-1.21.35-1.21.75s.47.64,1.62.88c1.91.42,2.39.91,2.39,1.83s-1,1.79-2.68,1.79A5.19,5.19,0,0,1,933.16,586.58Z"/><path d="M941,580.55l0-1.43h1.51l0,1.43-.33,2.73h-.78Zm2.87,0,0-1.43h1.51l0,1.43-.33,2.73h-.78Z"/><path d="M948,585.7l3.49-2.31v0L948,581v-1.13l4.51,3v.88l-4.51,3Z"/><path d="M510.79,330.94h-2.46v-.89h3.58v5.49h-1.12Zm-.37-2.77a.79.79,0,0,1,.84-.79.8.8,0,1,1-.84.79Z"/><path d="M515.09,330.05H516l.09.87h0a2.8,2.8,0,0,1,2-1c1.29,0,1.87.79,1.87,2.22v3.41h-1.12v-3.26c0-1-.32-1.4-1.14-1.4a2.12,2.12,0,0,0-1.56.87v3.79h-1.12Z"/><path d="M521.49,332.8a2.62,2.62,0,0,1,2.45-2.89,2.23,2.23,0,0,1,1.58.67h0l0-1v-2.05h1.12v8h-.91l-.09-.68h0a2.53,2.53,0,0,1-1.73.82C522.43,335.68,521.49,334.62,521.49,332.8Zm4,1.21v-2.6a1.83,1.83,0,0,0-1.3-.56c-.86,0-1.56.74-1.56,1.94s.56,1.95,1.47,1.95A1.81,1.81,0,0,0,525.49,334Z"/><path d="M528.32,332.78a2.78,2.78,0,0,1,2.82-2.87,2.38,2.38,0,0,1,2.53,2.59,4.38,4.38,0,0,1,0,.61H529.1v-.82h3.82l-.24.28c0-1.19-.58-1.79-1.51-1.79a1.78,1.78,0,0,0-1.75,2,1.86,1.86,0,0,0,2,2,3,3,0,0,0,1.6-.48l.4.7a3.85,3.85,0,0,1-2.14.66A2.8,2.8,0,0,1,528.32,332.78Z"/><path d="M537,332.69l-1.89-2.64h1.22l.79,1.11c.19.31.41.64.63.93h0c.19-.29.4-.63.58-.94l.73-1.1h1.18l-1.9,2.75,2.05,2.74h-1.23l-.87-1.17-.69-1h0c-.21.33-.42.65-.63,1l-.81,1.16H535Z"/><path d="M543.45,334.63a1,1,0,1,1,1,1.05A1,1,0,0,1,543.45,334.63Z"/><path d="M548.42,337.55l.35-.83a2.81,2.81,0,0,0,1.22.3c1,0,1.29-.51,1.29-1.4v-4.68h-2.46v-.89h3.58v5.5a2.08,2.08,0,0,1-2.38,2.37A3.81,3.81,0,0,1,548.42,337.55Zm2.49-9.38a.84.84,0,1,1,.84.8A.78.78,0,0,1,550.91,328.17Z"/><path d="M555.33,334.82l.5-.72a4,4,0,0,0,2.34.72c.85,0,1.25-.34,1.25-.75s-.23-.64-1.61-.92-2.14-.81-2.14-1.64.83-1.6,2.35-1.6a4.21,4.21,0,0,1,2.26.71l-.53.7a3.35,3.35,0,0,0-1.83-.56c-.81,0-1.13.32-1.13.7s.44.6,1.52.83c1.78.39,2.23.85,2.23,1.71s-.89,1.68-2.51,1.68A5,5,0,0,1,555.33,334.82Z"/><path d="M510.79,347.58h-2.46v-.9h3.58v5.5h-1.12Zm-.37-2.77a.84.84,0,0,1,1.67,0,.84.84,0,0,1-1.67,0Z"/><path d="M515.08,346.68H516l.09.88h0a2.8,2.8,0,0,1,2-1c1.28,0,1.87.79,1.87,2.22v3.41h-1.12v-3.27c0-1-.32-1.4-1.14-1.4a2.12,2.12,0,0,0-1.56.88v3.79h-1.13Z"/><path d="M521.48,349.44a2.63,2.63,0,0,1,2.46-2.89,2.19,2.19,0,0,1,1.58.67h0l0-1V344.2h1.12v8h-.92l-.08-.68h0a2.57,2.57,0,0,1-1.73.81C522.42,352.31,521.48,351.26,521.48,349.44Zm4,1.2V348a1.85,1.85,0,0,0-1.3-.56c-.86,0-1.56.75-1.56,1.94s.56,2,1.47,2A1.82,1.82,0,0,0,525.49,350.64Z"/><path d="M528.32,349.42a2.77,2.77,0,0,1,2.82-2.87,2.38,2.38,0,0,1,2.53,2.59,4.53,4.53,0,0,1,0,.61H529.1v-.82h3.82l-.24.27c0-1.19-.58-1.79-1.51-1.79a1.79,1.79,0,0,0-1.75,2,1.86,1.86,0,0,0,2,2,3,3,0,0,0,1.6-.49l.4.71a3.93,3.93,0,0,1-2.14.65A2.79,2.79,0,0,1,528.32,349.42Z"/><path d="M537,349.33l-1.89-2.65h1.22l.79,1.12c.19.3.41.63.63.93h0l.58-.94.73-1.11h1.18l-1.91,2.75,2.06,2.75h-1.23l-.87-1.17c-.22-.31-.47-.68-.7-1h0l-.64,1-.8,1.17H535Z"/><path d="M543.45,351.26a1,1,0,1,1,1,1.05A1,1,0,0,1,543.45,351.26Z"/><path d="M548.82,344.2h1.12v2.12l-.06,1.23h0a2.69,2.69,0,0,1,2-1c1.28,0,1.87.79,1.87,2.22v3.41h-1.12v-3.27c0-1-.32-1.4-1.14-1.4a2.15,2.15,0,0,0-1.57.88v3.79h-1.12Z"/><path d="M556.81,350v-2.42H555.3v-.84l1.55-.06.15-1.74h.93v1.74h2.59v.9h-2.59V350c0,.94.33,1.4,1.33,1.4a3.48,3.48,0,0,0,1.25-.24l.23.82a5.14,5.14,0,0,1-1.74.32C557.36,352.31,556.81,351.38,556.81,350Z"/><path d="M561.92,346.68h.87l.09.71h0a1.32,1.32,0,0,1,1.24-.84c.52,0,.86.31,1,.93a1.39,1.39,0,0,1,1.27-.93c.78,0,1.23.62,1.23,1.71v3.92h-1.09v-3.84c0-.55-.16-.84-.52-.84s-.52.26-.78.77v3.91h-1v-3.84c0-.55-.14-.84-.5-.84s-.55.26-.79.77v3.91h-1.09Z"/><path d="M570.73,350.25V345.1h-1.89v-.9h3v6.12a1,1,0,0,0,1,1.07,2.39,2.39,0,0,0,1-.23l.27.83a3.55,3.55,0,0,1-1.51.32C571.39,352.31,570.73,351.58,570.73,350.25Z"/><path d="M507.94,297h.87l.09.71h0a1.33,1.33,0,0,1,1.23-.85c.53,0,.87.32,1,.94a1.4,1.4,0,0,1,1.27-.94c.77,0,1.22.62,1.22,1.72v3.91h-1.09v-3.83c0-.56-.15-.84-.51-.84s-.52.25-.78.77v3.9h-1v-3.83c0-.56-.14-.84-.5-.84s-.55.25-.79.77v3.9h-1.09Z"/><path d="M514.83,299.75a2.78,2.78,0,0,1,2.82-2.88,2.39,2.39,0,0,1,2.53,2.6,4.68,4.68,0,0,1,0,.61H515.6v-.82h3.83l-.25.27c0-1.19-.57-1.79-1.5-1.79a1.78,1.78,0,0,0-1.75,2,1.85,1.85,0,0,0,2,2,3,3,0,0,0,1.61-.48l.39.71a3.87,3.87,0,0,1-2.14.65A2.78,2.78,0,0,1,514.83,299.75Z"/><path d="M521.83,297h.92l.09.87h0a2.82,2.82,0,0,1,2-1c1.28,0,1.87.79,1.87,2.22v3.41h-1.12v-3.26c0-1-.32-1.4-1.14-1.4a2.13,2.13,0,0,0-1.57.87v3.79h-1.12Z"/><path d="M528.42,300.42V297h1.12v3.26c0,1,.32,1.4,1.14,1.4a1.94,1.94,0,0,0,1.54-.9V297h1.12v5.49h-.92l-.09-.91h-.05a2.58,2.58,0,0,1-2,1.05C529,302.64,528.42,301.85,528.42,300.42Z"/><path d="M536.7,301.59a1,1,0,1,1,1,1.05A1,1,0,0,1,536.7,301.59Z"/><path d="M541.67,304.51l.35-.82a2.94,2.94,0,0,0,1.22.29c1,0,1.29-.5,1.29-1.4V297.9h-2.46V297h3.58v5.51a2.08,2.08,0,0,1-2.37,2.36A3.67,3.67,0,0,1,541.67,304.51Zm2.49-9.37a.84.84,0,0,1,1.67,0,.84.84,0,0,1-1.67,0Z"/><path d="M548.59,301.78l.49-.72a4,4,0,0,0,2.35.72c.84,0,1.24-.34,1.24-.75s-.23-.63-1.61-.92-2.13-.8-2.13-1.63.82-1.61,2.34-1.61a4.21,4.21,0,0,1,2.26.72l-.52.7a3.3,3.3,0,0,0-1.83-.57c-.82,0-1.14.33-1.14.7s.44.6,1.52.83c1.79.39,2.24.85,2.24,1.71s-.89,1.68-2.52,1.68A4.81,4.81,0,0,1,548.59,301.78Z"/><path d="M510,284.18V279h-1.89v-.89h3v6.12a1,1,0,0,0,1,1.07,2.57,2.57,0,0,0,1-.23l.27.83a3.71,3.71,0,0,1-1.51.32C510.67,286.24,510,285.5,510,284.18Z"/><path d="M517.54,281.5h-2.46v-.89h3.58v5.49h-1.12Zm-.37-2.76a.84.84,0,0,1,1.67,0,.84.84,0,0,1-1.67,0Z"/><path d="M522.86,285.5h0l-.1.6h-.89v-8H523v2.11l-.05,1h0a2.61,2.61,0,0,1,1.75-.78c1.46,0,2.27,1.1,2.27,2.79,0,1.88-1.17,3-2.45,3A2.57,2.57,0,0,1,522.86,285.5Zm2.95-2.22c0-1.15-.42-1.87-1.41-1.87a2.08,2.08,0,0,0-1.45.73v2.6a2.1,2.1,0,0,0,1.34.56C525.15,285.3,525.81,284.58,525.81,283.28Z"/><rect class="cls-12" x="492.94" y="277.9" width="9.49" height="9.49"/><circle class="cls-13" cx="497.69" cy="298.76" r="4.74"/><circle class="cls-13" cx="497.69" cy="330.8" r="4.74"/><polygon class="cls-14" points="497.69 310.81 492.28 320.18 503.1 320.18 497.69 310.81"/><polygon class="cls-14" points="497.69 342.81 492.28 352.18 503.1 352.18 497.69 342.81"/><circle class="cls-2" cx="918.98" cy="246.72" r="8.64"/><circle class="cls-3" cx="941.17" cy="246.72" r="8.64"/><circle class="cls-4" cx="963.36" cy="246.72" r="8.64"/><path d="M489.12,239.59h4.14a7.07,7.07,0,0,1,1.57.18,4.21,4.21,0,0,1,1.44.61,3.45,3.45,0,0,1,1.06,1.15,3.4,3.4,0,0,1,.41,1.76,2.89,2.89,0,0,1-.17,1,2.42,2.42,0,0,1-.49.82,2.22,2.22,0,0,1-.77.55,2.4,2.4,0,0,1-1,.2v0a2.79,2.79,0,0,1,2,.87,3.06,3.06,0,0,1,.67,2.08,4.43,4.43,0,0,1-.19,1.26,3.31,3.31,0,0,1-.68,1.19,3.46,3.46,0,0,1-1.26.9,4.91,4.91,0,0,1-2,.35h-4.72Zm3.72,5a1.85,1.85,0,0,0,1-.25.93.93,0,0,0,.42-.88,1,1,0,0,0-.35-.85,1.53,1.53,0,0,0-.91-.26h-.34v2.24Zm.08,5.14a1.81,1.81,0,0,0,1-.31,1.08,1.08,0,0,0,.44-1,1.07,1.07,0,0,0-.44-.95,1.89,1.89,0,0,0-1-.29h-.28v2.5Z"/><path d="M505.24,247.06l-.5-.22a1.32,1.32,0,0,0-.45-.11,1.23,1.23,0,0,0-.75.21,1.35,1.35,0,0,0-.43.52,2.06,2.06,0,0,0-.19.69,6.23,6.23,0,0,0,0,.74v3.68H499.5v-9.09h3.39l-.19,1.74,0,0a3.4,3.4,0,0,1,.92-1.42,2.15,2.15,0,0,1,1.58-.54Z"/><path d="M514.78,252.57H511.4l.16-1.5,0,0a3.46,3.46,0,0,1-.91,1.22,2.11,2.11,0,0,1-1.41.5,2.19,2.19,0,0,1-1-.23,2.45,2.45,0,0,1-.74-.62,3.6,3.6,0,0,1-.52-.9,7,7,0,0,1-.32-1,9.65,9.65,0,0,1-.15-1.06c0-.35,0-.67,0-1a10.13,10.13,0,0,1,.12-1.48,5.45,5.45,0,0,1,.44-1.52,3.33,3.33,0,0,1,.87-1.18,2.11,2.11,0,0,1,1.42-.47,2,2,0,0,1,1.35.47,3.93,3.93,0,0,1,.84,1.15l0,0-.14-1.39h3.43Zm-4.21-2.6a.54.54,0,0,0,.49-.24,1.69,1.69,0,0,0,.24-.58,3.36,3.36,0,0,0,.09-.7c0-.24,0-.42,0-.54v-.49a2.68,2.68,0,0,0-.07-.62,1.66,1.66,0,0,0-.21-.51.5.5,0,0,0-.44-.23.51.51,0,0,0-.47.27,2.45,2.45,0,0,0-.24.65,4.41,4.41,0,0,0-.08.74c0,.25,0,.45,0,.6s0,.28,0,.47a2.62,2.62,0,0,0,.09.56,1.19,1.19,0,0,0,.2.44A.46.46,0,0,0,510.57,250Z"/><path d="M521.2,252.69l-.46.05-.45,0a3.6,3.6,0,0,1-1.74-.4,4.06,4.06,0,0,1-1.29-1.07,4.68,4.68,0,0,1-.79-1.52,6,6,0,0,1-.26-1.78,5.08,5.08,0,0,1,.3-1.78,4.46,4.46,0,0,1,.86-1.5,4.18,4.18,0,0,1,1.35-1,4,4,0,0,1,1.77-.39h.36l.35,0v2.94a1.48,1.48,0,0,0-1.14.48,1.8,1.8,0,0,0-.38,1.18,2.24,2.24,0,0,0,.08.57,1.8,1.8,0,0,0,.24.55,1.6,1.6,0,0,0,.41.41,1,1,0,0,0,.56.17h.23Z"/><path d="M526.31,248h0v4.56H522.9V238.85h3.38v8.73h0l1.59-4.1h3.65l-2.24,4.17,2.46,4.92H527.9Z"/><path d="M540.64,249.49a3.77,3.77,0,0,1-1.39,2.43,4.17,4.17,0,0,1-2.62.84,4.72,4.72,0,0,1-1.84-.33,3.55,3.55,0,0,1-1.32-1,4.15,4.15,0,0,1-.79-1.45,6.23,6.23,0,0,1-.25-1.83,6.36,6.36,0,0,1,.27-1.87,4.65,4.65,0,0,1,.82-1.56,3.9,3.9,0,0,1,1.34-1.07,4.06,4.06,0,0,1,1.85-.41,3.78,3.78,0,0,1,1.81.41,3.53,3.53,0,0,1,1.26,1.07,4.51,4.51,0,0,1,.82,1.89,12.59,12.59,0,0,1,.16,2.07h-5a3.64,3.64,0,0,0,0,.45,1.64,1.64,0,0,0,.1.45.85.85,0,0,0,.24.35.6.6,0,0,0,.42.15.69.69,0,0,0,.49-.18.75.75,0,0,0,.25-.46Zm-3.27-2.58a2.85,2.85,0,0,0,0-.4,1.35,1.35,0,0,0-.14-.37.93.93,0,0,0-.25-.27.62.62,0,0,0-.38-.12.56.56,0,0,0-.36.12.6.6,0,0,0-.24.28,1.13,1.13,0,0,0-.12.38,1.76,1.76,0,0,0,0,.38Z"/><path d="M543,252.57v-6.39h-1v-2.7h1v-2.67h3.38v2.67h1.12v2.7h-1.12v6.39Z"/><path d="M549.81,249.3a3.87,3.87,0,0,0,.76.64,1.72,1.72,0,0,0,.93.31,1,1,0,0,0,.44-.11.38.38,0,0,0,.22-.36.47.47,0,0,0-.22-.4,2.24,2.24,0,0,0-.66-.32,7.38,7.38,0,0,1-.94-.4,3.25,3.25,0,0,1-.76-.54,2.17,2.17,0,0,1-.51-.75,2.6,2.6,0,0,1-.18-1,2.8,2.8,0,0,1,.28-1.28,2.64,2.64,0,0,1,.76-1,3.29,3.29,0,0,1,1.16-.61,4.62,4.62,0,0,1,1.47-.22,5.66,5.66,0,0,1,1.43.2,5.53,5.53,0,0,1,1.34.54l-1.16,2.46q-.28-.27-.63-.54a1.23,1.23,0,0,0-.78-.27.54.54,0,0,0-.34.12.36.36,0,0,0-.16.33.45.45,0,0,0,.12.31,1.2,1.2,0,0,0,.26.24,2.11,2.11,0,0,0,.33.18l.31.12a5.22,5.22,0,0,1,.86.39,3.39,3.39,0,0,1,.7.53,2.15,2.15,0,0,1,.47.71,2.44,2.44,0,0,1,.17,1,3,3,0,0,1-.3,1.37,3,3,0,0,1-.81,1,3.39,3.39,0,0,1-1.16.61,4.44,4.44,0,0,1-1.36.21,5.43,5.43,0,0,1-1.71-.25,8.53,8.53,0,0,1-1.57-.7Z"/><path d="M977,234.24v26H476v-26H977m6-6H470v38H983v-38Z"/></g></svg>