<svg xmlns="http://www.w3.org/2000/svg" viewBox="0 0 100 100"><defs><style>.cls-1{fill:#efefef;}</style></defs><title>fb</title><g id="Layer_2" data-name="Layer 2"><path class="cls-1" d="M76.74,5H23.53A18.54,18.54,0,0,0,5,23.55V76.76A18.55,18.55,0,0,0,23.53,95.31H53.94V59.39H41.6V45.48H53.94V35.66h0C54,26.25,57.41,23,57.41,23a16.93,16.93,0,0,1,12.85-6.31H82.75V29.82H74.41c-5.71-.09-6.2,4.74-6.24,5.84h0v9.82H82.13L80.42,59.39H68.18V95.31h8.56A18.56,18.56,0,0,0,95.29,76.76V23.55A18.55,18.55,0,0,0,76.74,5Z"/></g></svg>