<svg xmlns="http://www.w3.org/2000/svg" viewBox="0 0 470.15 651.75"><defs><style>.a{fill:#ffdc83}.a,.af,.b,.d,.e,.f,.g,.h,.i,.j,.k,.l,.m,.n,.o,.p,.q{opacity:.79}.b{fill:#96b8d0}.c{fill:#92cebf}.d{fill:#65a1ba}.e{fill:#29626c}.f{fill:#43959b}.g{fill:#8abfc1}.aa,.h{fill:#337f87}.i{fill:#53baad}.j{fill:#02878c}.k{fill:#2c6166}.l{fill:#5fafb7}.m{fill:#1c434f}.n{fill:#224351}.o{fill:#233948}.p{fill:#1b4252}.q{fill:#16303a}.r{fill:#94c1e0}.aa,.bi,.bn,.r,.s,.t,.u,.w,.x,.y,.z{opacity:.88}.s{fill:#699dc4}.t{fill:#6fb8e6}.ab,.u{fill:#5583b6}.v{fill:#516c96;opacity:.82}.w{fill:#869ccf}.x{fill:#3f66a6}.y{fill:#3c4b92}.z{fill:#7593cc}.ab,.ac{opacity:.83}.ac{fill:#497ea5}.ad{fill:#dcb327}.ae,.ah,.ai,.aj,.ak,.al,.ap,.ce,.cf,.cg,.ch,.ci,.cj{fill:none}.ag,.bi,.cd,.dd,.dg{fill:#fff}.ah,.ai,.aj,.ak,.al,.am,.ao,.ap,.bm{stroke:#fff}.ah,.aj,.ak,.al{stroke-linecap:round}.ah,.aj{stroke-linejoin:round}.ah,.al{stroke-width:1.46px}.ai,.ak,.al,.am,.ao,.ap,.aw,.bd,.bg,.bh,.bm,.ce,.cf,.cg,.ch,.ci,.cj{stroke-miterlimit:10}.ai{stroke-width:2.91px}.aj{stroke-width:2px}.ak{stroke-width:3px}.am{fill:#665a57}.an{fill:#bfcae7}.ao{fill:#77706c}.ap{stroke-width:.73px}.aq{fill:#1d263d}.ar{fill:#edb51e}.as{fill:#ffc71a}.at{fill:#f8971d}.au{fill:#efb31d}.av{fill:#1c243d}.aw{fill:#809fb0;stroke:#f2ad1d}.aw,.bd{stroke-width:1.66px}.ax{fill:#f3ae1c}.ay{fill:#1e293b}.az{fill:#eab126}.ba{fill:#fdc735}.bb{fill:#ecb12c}.bc{fill:#1d273a}.bd{fill:#86a3ad;stroke:#efaa27}.be{fill:#f0ab26}.bf{fill:#91c1e5}.bg,.bh{fill:#a3a3a3;stroke:#7f7f7f}.bg{stroke-width:.21px}.bh,.ch{stroke-width:.25px}.bj{opacity:.25}.bk,.bl{fill:#212121;opacity:.43}.bl{fill:#333}.bm{fill:#262262}.bm,.cd{opacity:.48}.bn{fill:#4f8393}.bo{opacity:.78}.bp{fill:#265e67;opacity:.61}.bq{fill:#29657d;opacity:.59}.br{fill:#2d6176}.br,.cn{opacity:.65}.bs{fill:#f1b324}.bt{fill:#231f20}.bu{fill:#b92126}.bv{fill:#785745}.bw{fill:#ae7b58}.bx{fill:#b17d58}.by{fill:#dcaf72}.bz{fill:#b5875d}.ca{fill:#d0a26e}.cb{fill:#e8be80}.cc{fill:#f1c789}.ce{stroke:#cc4d27}.ce,.cf,.cg,.ci,.cj{stroke-width:.5px}.cf{stroke:#be1e2d}.cg{stroke:#8f2e1d}.ch{stroke:#8c4a3b}.ci{stroke:#c2624c}.cj{stroke:#b84e34}.ck{fill:#e5d9d6}.cl{fill:#d36d28}.cm{fill:#e4e5f4}.cn,.cp,.cv{fill:#4e72b8}.co{fill:#8a2431}.cq{fill:#f5f5f5}.cr{fill:#fcfafb}.cs{fill:#d8e4ea}.ct{fill:#edf8fd}.cu{fill:#f5f6f7}.cv,.dc,.dd{opacity:.8}.cw{fill:#dc4826}.cx{fill:#e3f3f7}.cy{fill:#4268a6}.cz{fill:#6186c0}.da{fill:#fdfefe}.db{fill:#efe8ea;opacity:.75}.dc{fill:#ede2e6}.de{fill:#c8302b;opacity:.31}.df{fill:#f1f2f2}.dg{opacity:.81}.dh{fill:#c2d9dc}.di{fill:#e7f5f4}.dj{fill:#c5dadd}.dk{fill:#bfe5e8}.dl{fill:#e8f3f2}</style></defs><title>wondros</title><rect width="612" height="824.39" x="-71.19" y="-49.82" class="a"/><polygon points="-70.93 200.29 12.76 214.95 71.91 225.32 17.85 247.34 -70.93 264.36 -70.93 200.29" class="b"/><polygon points="12.76 214.95 71.91 225.32 172.01 205.29 117.96 194.28 12.76 214.95" class="c"/><polygon points="185.88 209.8 172.01 221.26 248.63 238.88 278.6 214.5 185.88 209.8" class="d"/><polygon points="278.6 214.5 248.63 238.88 301.07 255.74 487.46 235.12 534.29 191.78 325.43 225.32 278.6 214.5" class="e"/><polygon points="278.6 214.5 299.2 185.49 385.37 185.49 350.69 221.26 325.43 225.32 278.6 214.5" class="f"/><polygon points="385.37 185.49 450.3 191.78 510.09 161.67 541.07 167.68 541.07 201.07 534.29 191.78 350.69 221.26 385.37 185.49" class="g"/><polygon points="172.01 205.29 185.88 209.8 172.01 221.26 248.63 238.88 117.96 271.09 141.68 255.74 141.57 211.38 172.01 205.29" class="h"/><polygon points="141.57 211.65 141.68 256.01 117.96 271.36 23.52 343.24 -70.93 330.01 -70.93 264.63 17.85 247.61 71.91 225.59 141.57 211.65" class="i"/><polygon points="117.96 271.09 23.52 342.97 107.22 380.78 117.96 271.09" class="j"/><polygon points="117.96 271.09 107.22 380.78 122.34 397.8 301.07 255.74 248.63 238.88 117.96 271.09" class="k"/><polygon points="487.46 235.12 301.07 255.74 122.34 397.8 374.73 318.34 487.46 235.12" class="l"/><polygon points="487.46 235.12 374.73 318.34 317.07 417.65 464.53 356.45 541.07 423.32 541.07 338.17 487.46 235.12" class="e"/><polygon points="374.73 318.34 122.34 397.8 107.22 380.78 23.52 342.97 -70.93 329.74 -70.93 498 256.57 565.11 317.07 417.65 374.73 318.34" class="m"/><polygon points="317.07 417.65 256.57 565.11 395.28 546.06 464.53 356.45 317.07 417.65" class="n"/><polygon points="541.07 423.32 464.53 356.45 395.28 546.06 360.55 772.21 541.07 752.45 541.07 423.32" class="o"/><polygon points="395.28 546.06 256.57 565.11 98.62 752.45 360.55 772.21 395.28 546.06" class="p"/><polygon points="-70.93 498 256.57 565.11 98.62 752.45 -70.93 752.45 -70.93 498" class="q"/><polygon points="-70.93 200.29 12.76 214.95 71.91 225.32 17.85 247.34 -70.93 264.36 -70.93 200.29" class="r"/><polygon points="12.76 214.95 71.91 225.32 172.01 205.29 117.96 194.28 12.76 214.95" class="r"/><polygon points="278.6 214.5 299.2 185.49 385.37 185.49 350.69 221.26 325.43 225.32 278.6 214.5" class="s"/><polygon points="385.37 185.49 450.3 191.78 510.09 161.67 541.07 167.68 541.07 201.07 534.29 191.78 350.69 221.26 385.37 185.49" class="t"/><polygon points="117.96 271.09 23.52 342.97 107.22 380.78 117.96 271.09" class="u"/><polygon points="117.96 271.09 107.22 380.78 122.34 397.8 301.07 255.74 248.63 238.88 117.96 271.09" class="v"/><polygon points="487.46 235.12 301.07 255.74 122.34 397.8 374.73 318.34 487.46 235.12" class="w"/><polygon points="487.46 235.12 374.73 318.34 317.07 417.65 464.53 356.45 541.07 423.32 541.07 338.17 487.46 235.12" class="x"/><polygon points="374.73 318.34 122.34 397.8 107.22 380.78 23.52 342.97 -70.93 329.74 -70.93 498 256.57 565.11 317.07 417.65 374.73 318.34" class="x"/><polygon points="317.07 417.65 256.57 565.11 395.28 546.06 464.53 356.45 317.07 417.65" class="x"/><polygon points="541.07 423.32 464.53 356.45 395.28 546.06 360.55 750.82 541.07 752.45 541.07 423.32" class="y"/><polygon points="395.28 546.06 256.57 565.11 98.62 752.45 360.55 750.82 395.28 546.06" class="y"/><polygon points="-70.93 498 256.57 565.11 98.62 752.45 -70.93 752.45 -70.93 498" class="y"/><polygon points="278.33 214.38 248.36 238.76 300.81 255.62 487.19 235 534.02 191.66 325.16 225.2 278.33 214.38" class="z"/><polygon points="171.75 205.18 185.6 209.68 171.75 221.14 248.36 238.76 117.69 270.97 141.41 255.62 141.3 211.26 171.75 205.18" class="aa"/><polygon points="141.3 211.53 141.41 255.89 117.69 271.24 23.25 343.12 -71.19 329.89 -71.19 264.51 17.58 247.49 71.64 225.47 141.3 211.53" class="ab"/><polyline points="17.58 247.54 -70.93 235.56 -71.19 264.56 17.58 247.54" class="ac"/><path d="M88.62,353.1c21.3-9.56,112.52-37.81,130.8-42.54l-3.1-8.4C180.93,310.51,78,339,82.89,347.55" class="ad"/><rect width="115.72" height="345.77" x="178.24" y="152.75" class="ae" transform="translate(-89.89 561.24) rotate(-89.91)"/><g class="af"><path d="M351.41,305.21l.3,11.89-4.64,4.57,2.21,87.65-3.62-2,.22,8.62,4.16-.11.18,7.13,3,2.9.22,8.91-8.32.21.35,13.67-3.27.08-.32-12.48-4.46-.18,2.31,20.75,3-.07-4.56,7.84-5.25-7.6,2.68-.06-3.19-20.44-5.95-.14L318.87,441,317,437.49l.32,12.48-5.88,2.82.63,25-12.18.3-8.78,5.28-7.14.18-.11-4.46-.09-3.56-.16-6.24-.42-16.64-.2-8L278.46,442l6.53-.17-.12-4.75-6.55-.43-.21-8.32,2.56-4.82-.13-5.05-4.9-5.53,1.62-6.58,1-6.27L277,397.47l3.77-3.66,2.3-3,6.5-1.65,3,26.39,4.84,3.14,2.55-4.82-5.27-8.78.18-4.47,13.34.26-4.77-2.26-2.21-5.29L296.5,391l-.38-3.26-2.66,1-2.14-2.62.11-7.44,3.12-6L288.13,366l-5.95-.44-2.91,2.75-1.38-.56L282,364l-5,.78-.87-1.77,4.24-.6-1.64-6.83-.93-30.23-1.42-4.21,1.41-2.49,1.6,5,2.31.6-.61-4.73,2.13.27.28,4.74,3.78.56,5.1,1.34,4.94,1.18-1.07-3.4.92-2.32,3.55-1.72-.06-2.62-.73-2.92,2.13-.06.08,3.44,1.4,3.4,2.8,2.05-1.7,3,3.46.89s2.58-1.37,2.57-1.86-2.19-2.73-2.19-2.73l2.39-2.18,4.41-.28,4.37-1.91-2-.77.12-8.17.43-8.85-1.38-3.95,5.9-1.56,2.81,10.39.2,8.19,8-17.45-.59-12.14,4.52-.11.75,18.35,12.75-4.56Z" class="ag"/><polygon points="289.9 321.44 294.57 317.79 290.32 314.11 285.29 317.9 289.9 321.44" class="ag"/><polygon points="286.79 323.96 288.59 322.58 285.35 319.97 285.42 322.9 286.79 323.96" class="ag"/><polygon points="295.19 323.14 295.72 319.71 291.74 321.82 295.19 323.14" class="ag"/><polygon points="295.62 316.05 295.46 309.71 291.52 312.98 295.62 316.05" class="ag"/><polygon points="289.78 311.68 294.33 308.39 289.59 304.24 285.05 308.08 289.78 311.68" class="ag"/><polygon points="285.25 316.31 288.35 313.06 285.08 309.48 285.25 316.31" class="ag"/><path d="M285,305c-.47.75,3.12-2,3.12-2l-3.24-2.48Z" class="ag"/><polygon points="295.38 306.29 295.22 300.19 291.27 303.34 295.38 306.29" class="ag"/><polygon points="289.55 302.65 294.09 298.87 285.31 299.1 289.55 302.65" class="ag"/><polygon points="312.06 477.75 301.77 473.03 294.16 475.71 283.96 483.51 291.1 483.33 299.88 478.05 312.06 477.75" class="ag"/><polygon points="311.43 452.79 306.13 449.82 312.73 449.65 312.34 434.4 316.99 437.49 317.31 449.96 311.43 452.79" class="ag"/><polygon points="338.19 464.6 339.78 456.83 342.75 456.76 338.19 464.6" class="ag"/><polygon points="345.52 448.66 343.45 446.82 344.16 434.81 345.17 434.99 345.52 448.66" class="ag"/><polygon points="353.49 434.78 349.3 429.55 349.12 422.34 347.25 422.38 345.88 415.95 350.04 415.84 350.22 422.97 353.27 425.87 353.49 434.78" class="ag"/><polygon points="297.49 418.65 287.78 416.52 283.11 390.77 289.61 389.12 292.65 415.51 297.49 418.65" class="ag"/><polygon points="349.28 409.32 343.27 359.53 347.75 348.76 349.28 409.32" class="ag"/><polygon points="347.75 348.76 343.93 320.08 346.97 317.69 351.71 317.1 347.07 321.67 347.75 348.76" class="ag"/><polygon points="338.47 302.36 335.08 288.04 336.08 284.05 337.72 284.01 338.47 302.36" class="ag"/><polygon points="325.75 313.71 322.74 305.6 322.74 295.13 325.55 305.52 325.75 313.71" class="ag"/><polygon points="304.64 326.5 301.71 325.41 303.54 321.45 306.34 323.51 304.64 326.5" class="ag"/><polygon points="302.06 314.63 300.66 317.6 303.54 321.45 302.14 318.06 302.06 314.63" class="ag"/></g><g class="af"><path d="M124,329.47l1.58,13.72,5.72,4.56L142.89,449l3.57-2.84,1.14,9.95-4.49.52.95,8.23-2.81,3.8,1.18,10.3,9-1,1.82,15.79,3.52-.41-1.65-14.41,4.77-.9.84,24.25-3.21.37,6.16,8.33,4.42-9.55-2.88.33.16-24,6.38-1.08,8.93,4.19,1.45-4.34,1.66,14.41,6.76,2.35,3.32,28.83L207,520.54l10.29,4.72,7.7-.88-.59-5.15-.48-4.12-.82-7.2-2.21-19.22-1.07-9.26,4.46-3.65-7.06.81-.63-5.49,7-1.49L222.47,460,219,454.84l-.67-5.83,4.39-7.11-2.8-7.33-2.11-7.06.93-3.24-4.64-3.64-3-3.13-7.26-.91.95,30.84-4.7,4.36-3.52-5.15,4.27-10.93-.91-5.11-14.3,2.34,4.76-3.33,1.54-6.43,4.81-3.34-.11-3.81,3,.7,1.89-3.35-1.3-8.54-4.32-6.46,5.83-8.66,6.33-1.43,3.57,2.72,1.4-.85L208,386.54l5.56.13.64-2.18-4.65,0,.68-8.11-3.84-34.94.85-5.07-1.92-2.65-.91,6-2.38,1-.1-5.54-2.25.64.45,5.5-4,1.22-5.28,2.33L185.72,347l.6-4.08L185,340.42l-4.1-1.44-.35-3,.32-3.48-2.3.26.46,4-1,4.12-2.68,2.8,2.3,3.17-3.58,1.56s-3-1.18-3.06-1.75,1.93-3.47,1.93-3.47L170,341l-4.79.36-5-1.53,2-1.19-1.44-9.39-1.88-10.11.85-4.77-6.59-.89-1.36,12.38,1.09,9.47-11.44-18.85-1.3-14.07-4.88.56,2.13,21.24L123,320.91Z" class="ag"/><polygon points="192.7 338.73 187.09 335.24 191.07 330.35 197.08 333.94 192.7 338.73" class="ag"/><polygon points="196.44 341.16 194.29 339.83 197.36 336.34 197.75 339.72 196.44 341.16" class="ag"/><polygon points="187.28 341.5 186.16 337.63 190.78 339.45 187.28 341.5" class="ag"/><polygon points="185.68 333.4 184.84 326.07 189.6 329.24 185.68 333.4" class="ag"/><polygon points="191.27 327.47 185.84 324.38 190.28 318.88 195.78 322.6 191.27 327.47" class="ag"/><polygon points="196.87 332.11 193.03 328.84 195.97 324.22 196.87 332.11" class="ag"/><path d="M195.37,319c.62.78-3.69-1.87-3.69-1.87l3.09-3.35Z" class="ag"/><polygon points="184.38 322.13 183.57 315.08 188.32 318.1 184.38 322.13" class="ag"/><polygon points="190.07 317.05 184.58 313.39 194.06 312.3 190.07 317.05" class="ag"/><polygon points="193.86 522.05 204.18 515.04 212.79 516.96 225 524.38 217.3 525.26 207.01 520.54 193.86 522.05" class="ag"/><polygon points="190.54 493.22 195.77 489 188.65 489.81 186.63 472.2 182.12 476.46 183.78 490.87 190.54 493.22" class="ag"/><polygon points="163.66 510.92 160.71 502.22 157.5 502.58 163.66 510.92" class="ag"/><polygon points="153.23 493.69 155.16 491.25 152.48 477.54 151.41 477.9 153.23 493.69" class="ag"/><polygon points="142.43 478.94 146.1 472.27 145.15 463.94 147.16 463.71 147.6 456.09 143.11 456.61 144.06 464.84 141.25 468.64 142.43 478.94" class="ag"/><polygon points="200.08 451.79 210.18 447.85 211.09 417.5 203.83 416.59 204.78 447.43 200.08 451.79" class="ag"/><polygon points="142.89 448.98 141.39 390.74 134.84 379.03 142.89 448.98" class="ag"/><polygon points="134.84 379.03 134.37 345.44 130.72 343.15 125.53 343.19 131.25 347.75 134.84 379.03" class="ag"/><polygon points="137.41 324.2 138.76 307.2 137.04 302.76 135.28 302.96 137.41 324.2" class="ag"/><polygon points="152.9 335.32 154.84 325.52 153.17 313.47 151.81 325.86 152.9 335.32" class="ag"/><polygon points="177.65 346.8 180.63 345.11 178.03 340.83 175.35 343.63 177.65 346.8" class="ag"/><polygon points="178.53 332.74 180.51 335.96 178.03 340.83 178.99 336.71 178.53 332.74" class="ag"/></g><polyline points="255.12 423.79 254.31 419.65 249.09 422.22" class="ah"/><polyline points="250.62 400.77 249.82 396.63 244.6 399.19" class="ah"/><polyline points="245.41 374.05 244.6 369.91 239.38 372.48" class="ah"/><polyline points="236.86 388.27 236.05 384.12 241.64 383.5" class="ah"/><polyline points="231.64 361.55 230.83 357.41 236.43 356.78" class="ah"/><polyline points="265.22 441.2 252.16 437.95 243.18 450.72" class="ai"/><polyline points="271.62 445.98 270.27 439.02 237.25 453.28 238.73 460.85" class="aj"/><line x1="256.98" x2="232.35" y1="462.39" y2="336.15" class="ak"/><line x1="257.94" x2="257.23" y1="467.29" y2="463.66" class="al"/><path d="M258.67,468.08l.74-1.26a.83.83,0,0,0-1-1.22l-1.86.55a.84.84,0,0,0-.21,1.51l1.12.7A.83.83,0,0,0,258.67,468.08Z" class="ag"/><path d="M248.38,433.89l-3-15.18c-2.7.3-8.51,2-9,2.65s3,15.4,3,15.4Z" class="ag"/><polygon points="239.22 435.88 248.25 433.22 248.35 433.77 239.33 436.44 239.22 435.88" class="am"/><polygon points="237.72 436.8 249.54 433.31 249.8 434.68 237.99 438.17 237.72 436.8" class="an"/><polygon points="238.37 385.3 238.87 385.15 245.19 417.58 244.7 417.73 238.37 385.3" class="ao"/><path d="M257.59,465.48c54.51-27.24,117.71-.35,72.12,10.27" class="ap"/><path d="M271.28,445c54.52-27.24,99.65-18,72.13,10.27" class="ap"/><path d="M237.86,461.65c54.51-27.24,116.55-27.45,88.92-1.52" class="ap"/><rect width="11.7" height="1.82" x="137.7" y="353.94" class="aq" transform="translate(-229.63 440.06) rotate(-80.84)"/><rect width="29.53" height="3.05" x="132.51" y="330.24" class="ar" transform="translate(-203.71 424.33) rotate(-80.84)"/><rect width="3.82" height="4.66" x="142.79" y="345.38" class="as" rx="1.33" transform="translate(-221.61 435.19) rotate(-80.84)"/><path d="M131.81,336.87c1.86,8.16,3.94,15.9,6,25.79s6.82,15.13,16.57,21.21,38.68,24.18,47.92,28.84a10.87,10.87,0,0,0,1.92-6.77c-13.84-10.35-34.42-25.4-41.72-32s-14.08-14.12-16.32-24.42-5.3-21.71-5.3-21.71" class="at"/><circle cx="148.69" cy="369.94" r="2.9" class="au"/><circle cx="148.69" cy="369.94" r="1.18" class="av"/><rect width="29.15" height="1.82" x="177.94" y="417.89" class="aq" transform="translate(56.67 859.26) rotate(-138.17)"/><rect width="29.53" height="3.05" x="153.83" y="395.86" class="ar" transform="translate(29.19 805.93) rotate(-138.17)"/><rect width="3.82" height="4.66" x="178.71" y="405.82" class="as" rx="1.33" transform="translate(43.01 832.75) rotate(-138.17)"/><rect width="3.82" height="4.66" x="154.78" y="384.4" class="as" rx="1.33" transform="translate(15.53 779.4) rotate(-138.17)"/><rect width="42.41" height="1.82" x="211.42" y="389.46" class="aq" transform="translate(-221.61 403.36) rotate(-60.85)"/><path d="M213.72,419.14l15.47-25.77,2.76,1.46s-10,19.51-13.41,25.75" class="ar"/><path d="M218.6,420.55c-.4,1-.69,1.71-.8,1.93-.84,1.63-1.23,2.08-3.23,3.34s-9.85,5.3-9.85,5.3c-1.77.88-2.45,1.23-3.43.72a3.72,3.72,0,0,1-1.65-2.82,21.68,21.68,0,0,1-.35-7.12c.48-2.5.66-9.81,2.4-13.81s19.79-35.2,22.57-40.09c2.05,0,2.6,0,5.69,0-4.44,13.5-15.78,50.5-15.78,50.5" class="at"/><rect width="3.82" height="4.66" x="227.25" y="394.26" class="as" rx="1.33" transform="translate(-228.82 403.52) rotate(-60.85)"/><path d="M230,368c-.08-.11-5.69,0-5.69,0l2.32-4-14.11-20-6.25-.2-1.13-2,5.07-1,3.54.7s14.71-1.5,16.37-1.4,4.22.91,5.4,2.4a45.28,45.28,0,0,1,4.38,7c.56,1.47,1.63,5.05-.41,7.76S230,368,230,368Z" class="aq"/><circle cx="203.16" cy="428.09" r=".84" class="aq"/><circle cx="215.59" cy="421.15" r=".84" class="aq"/><rect width="19.66" height="3.62" x="224.35" y="369.73" class="at" rx="1.81" transform="translate(467.96 743.34) rotate(-179.94)"/><circle cx="226.17" cy="371.54" r=".84" class="aq"/><rect width="19.66" height="3.62" x="228.98" y="362.56" class="at" rx="1.81" transform="translate(16.42 739) rotate(-116.07)"/><circle cx="235.24" cy="357.08" r=".84" class="aq"/><circle cx="207.25" cy="412.25" r="2.9" class="au"/><circle cx="207.25" cy="412.25" r="1.18" class="av"/><path d="M89.11,311.41l12,6.14a3,3,0,0,0,4-1.29l2.85-5.57a3,3,0,0,0-1.29-4l-13.39-6.87a3,3,0,0,0-4,1.29l-2.12,4.15a1.09,1.09,0,0,0-.07.85l1.5,4.66A1.14,1.14,0,0,0,89.11,311.41Z" class="av"/><path d="M117.8,318.21a87.24,87.24,0,0,1-2.41,9.73,5.22,5.22,0,0,0,2,6.25,87.12,87.12,0,0,0,8.49,5c5.8,3,10.56-2.38,12.71-4.59S149,321.07,149,321.07l.28-3.51-1-.54-1-.49-22.68-11.64-6.76,13.32Z" class="av"/><path d="M117.84,318.13c.25.05,9.64-1.24,11.2-1.64a7.46,7.46,0,0,0,3.33-1.89,15,15,0,0,1,2.68-2.5c.7-.3,9.77,3.18,12.19,4.43l2,1,7.1,3.64a1.24,1.24,0,1,0,1.13-2.21L137,308.5l-7.62-3.91L94.16,286.52a2.19,2.19,0,0,0-3,1l-5.84,11.38a2.2,2.2,0,0,0,.95,2.95Z" class="at"/><path d="M129.42,335.57a64.46,64.46,0,0,1-7.76-4c-1.21-.91-2.12-.85-1.17-4.85s1.27-5.65,1.27-5.65,6.33-.39,7.68-.63a5,5,0,0,0,2.81-1.29c1-.8,3.73-3.2,3.73-3.2l7.46,3.82-.08,1.41s-6.16,8.94-8.26,10.83S130.88,336.25,129.42,335.57Z" class="aw"/><rect width="27.11" height="6.62" x="102.75" y="301.73" class="ax" rx="3.31" transform="translate(80.61 629.55) rotate(-152.85)"/><rect width="9.83" height=".62" x="87.85" y="301.24" class="av" transform="translate(37.71 612.21) rotate(-152.85)"/><rect width="9.83" height=".62" x="88.98" y="299.03" class="av" transform="translate(40.86 608.55) rotate(-152.85)"/><rect width="9.83" height=".62" x="90.12" y="296.82" class="av" transform="translate(44.02 604.88) rotate(-152.85)"/><rect width="9.83" height=".62" x="91.25" y="294.6" class="av" transform="translate(47.17 601.22) rotate(-152.85)"/><rect width="9.83" height=".62" x="92.39" y="292.39" class="av" transform="translate(50.33 597.55) rotate(-152.85)"/><rect width="11.7" height="1.82" x="349.54" y="368.29" class="ay" transform="translate(12.9 750.39) rotate(-94.15)"/><rect width="29.53" height="3.05" x="338.94" y="344.35" class="az" transform="translate(34.35 723.69) rotate(-94.15)"/><rect width="3.82" height="4.66" x="352.96" y="359.65" class="ba" rx="1.33" transform="translate(19.54 742.13) rotate(-94.15)"/><path d="M368.66,352.31c-2.57,8-5.31,15.49-8.23,25.17s-8.11,14.47-18.36,19.68-40.65,20.71-50.26,24.54a10.86,10.86,0,0,1-1.32-6.91c14.69-9.1,36.51-22.29,44.36-28.25s15.26-12.83,18.39-22.89,7.18-21.17,7.18-21.17" class="at"/><circle cx="348.96" cy="383.78" r="2.9" class="bb"/><circle cx="348.96" cy="383.78" r="1.18" class="bc"/><rect width="29.15" height="1.82" x="286.45" y="427.71" class="ay" transform="translate(-196.83 265.9) rotate(-36.82)"/><rect width="29.53" height="3.05" x="311.97" y="407.86" class="az" transform="translate(-180.17 277.46) rotate(-36.82)"/><rect width="3.82" height="4.66" x="311.89" y="416.73" class="ba" rx="1.33" transform="translate(-188.54 271.65) rotate(-36.82)"/><rect width="3.82" height="4.66" x="337.61" y="397.48" class="at" rx="1.33" transform="translate(-171.88 283.22) rotate(-36.82)"/><rect width="36.2" height="1.82" x="246.33" y="399.07" class="ay" transform="translate(16.46 810.37) rotate(-115.39)"/><path d="M280.08,427.13l-13.75-26.74-2.84,1.28s8.74,20.13,11.68,26.57" class="az"/><path d="M274.89,428.09c.31,1.06.54,1.76.63,2a6.77,6.77,0,0,0,2.92,3.62c1.89,1.43,9.35,6.13,9.35,6.13,1.69,1,2.34,1.44,3.36,1a3.75,3.75,0,0,0,1.89-2.67,21.69,21.69,0,0,0,1-7.05c-.26-2.55.2-9.84-1.18-14s-16.65-36.8-19-41.91c-2-.21-2.58-.27-5.67-.48,3.25,13.84,11.31,51.69,11.31,51.69" class="at"/><rect width="3.82" height="4.66" x="264.24" y="401.28" class="ba" rx="1.33" transform="translate(15.64 817.11) rotate(-115.39)"/><path d="M268.41,375c0-.09,5.43.27,5.43.27l-1-3.89-4.34-1.65-1.74-24.39,4.72-4.12L271,339l-4.54,2.45-2.3,2.78s-12.33,8.16-13.55,9.29-2.69,3.38-2.66,5.27a45.09,45.09,0,0,0,1.05,8.2c.5,1.49,1.94,4.94,5.23,5.75S268.41,375,268.41,375Z" class="ay"/><circle cx="289.61" cy="436.95" r=".84" class="ay"/><circle cx="277.84" cy="428.95" r=".84" class="ay"/><rect width="19.66" height="3.62" x="254.01" y="378.73" class="az" rx="1.81" transform="translate(-119.47 120.73) rotate(-21.14)"/><circle cx="271.32" cy="377.66" r=".84" class="ay"/><rect width="19.66" height="3.62" x="248.83" y="373.8" class="ba" rx="1.81" transform="translate(-179.18 503.23) rotate(-71.7)"/><circle cx="261.21" cy="367.91" r=".84" class="ay"/><circle cx="286.92" cy="420.81" r="2.9" class="bb"/><circle cx="286.92" cy="420.81" r="1.18" class="bc"/><path d="M413.42,330.67,401,335.74a3,3,0,0,1-3.88-1.63l-2.36-5.8a3,3,0,0,1,1.63-3.88l13.95-5.67a3,3,0,0,1,3.88,1.64l1.75,4.31a1.16,1.16,0,0,1,0,.86l-1.9,4.51A1.14,1.14,0,0,1,413.42,330.67Z" class="bc"/><path d="M384.24,335a88.49,88.49,0,0,0,1.55,9.9,5.22,5.22,0,0,1-2.57,6,89.71,89.71,0,0,1-8.9,4.2c-6,2.52-10.3-3.29-12.25-5.68s-9.14-14.35-9.14-14.35l0-3.52,1.1-.45,1-.4,23.62-9.61L384.24,335Z" class="bc"/><path d="M384.21,334.86c-.25,0-9.49-2.07-11-2.61a7.53,7.53,0,0,1-3.16-2.17,14.23,14.23,0,0,0-2.45-2.73c-.67-.36-10,2.32-12.53,3.35l-2.1.85-7.39,3a1.24,1.24,0,0,1-.93-2.3l21.3-8.67,7.93-3.23,36.69-14.92a2.19,2.19,0,0,1,2.86,1.2l4.82,11.85a2.21,2.21,0,0,1-1.21,2.86Z" class="at"/><path d="M371.15,351.22a65.51,65.51,0,0,0,8.08-3.28c1.29-.81,2.18-.67,1.59-4.73s-.77-5.74-.77-5.74-6.28-.94-7.59-1.3a5,5,0,0,1-2.69-1.53c-.92-.88-3.44-3.52-3.44-3.52l-7.77,3.16,0,1.41s5.35,9.45,7.28,11.51S369.64,351.77,371.15,351.22Z" class="bd"/><rect width="27.11" height="6.62" x="373.33" y="318.65" class="be" rx="3.31" transform="translate(-92.8 169.53) rotate(-22.14)"/><rect width="9.83" height=".62" x="405.73" y="320.23" class="bc" transform="matrix(0.93, -0.38, 0.38, 0.93, -90.52, 178.38)"/><rect width="9.83" height=".62" x="404.79" y="317.93" class="bc" transform="translate(-89.72 177.85) rotate(-22.14)"/><rect width="9.83" height=".62" x="403.85" y="315.62" class="bc" transform="translate(-88.92 177.33) rotate(-22.14)"/><rect width="9.83" height=".62" x="402.91" y="313.32" class="bc" transform="translate(-88.12 176.81) rotate(-22.14)"/><rect width="9.83" height=".62" x="401.98" y="311.01" class="bc" transform="translate(-87.32 176.28) rotate(-22.14)"/><path d="M340.61,260.15l-3,14.17-6,3.53v25.28s1.21,5.05,0,6.95,0,8.22,0,8.22l-6,10.11L314,330.94l-2.42-10.75-11.47,3.16c-2.42-6.32-2.42-16.43-2.42-16.43s-1.81-4.42,0-6.32,3-8.22,3-8.22l-7.85-3.16-11.48,1.9v15.8h7.25l-9.67,12v15.8H263.28l-18.12,28.52-17.52-10.83v7H209.51V337.89l-7.85-14.54-9.06-5.06L198,311.7l-.6-6.05h-13.9l-7.85,12-2.42-6V305H163.6v6.68h-5.44l-8.46,4.07,5.44,10.74H149.7l-6.64,8.22V306.92l-4.84-32.6V250.67l222.33-3.79-7.85,12.64Z" class="ag"/><polygon points="245.16 363.25 241.83 357.76 259.58 328.76 273.25 328.76 278.99 334.73 266.6 335.33 245.16 363.25" class="bf"/><polygon points="325.51 328.41 322.67 321.46 331.55 318.3 325.51 328.41" class="bf"/><polygon points="331.55 310.08 322.67 306.77 331.55 303.13 331.55 310.08" class="bf"/><polygon points="331.55 277.85 327.11 270.91 331.55 267.88 331.55 255.79 340.61 260.15 337.59 274.32 331.55 277.85" class="bf"/><polygon points="322.67 321.46 322.67 306.77 331.05 314.11 331.55 318.3 322.67 321.46" class="bf"/><polygon points="300.13 323.35 307.8 310.08 311.61 320.19 300.13 323.35" class="bf"/><polygon points="278.99 318.93 275.18 314.11 281.41 306.92 288.66 306.92 278.99 318.93" class="bf"/><polygon points="227.64 359.38 221.9 355.15 221.9 348.67 227.64 352.42 227.64 359.38" class="bf"/><polygon points="292.89 289.22 284.26 271.34 272.29 271.34 281.41 291.12 292.89 289.22" class="bf"/><polygon points="197.43 305.65 202.08 296.4 183.53 305.65 197.43 305.65" class="bf"/><polygon points="175.68 317.66 176.54 310.08 180.27 305.65 183.53 305.65 175.68 317.66" class="bf"/><polygon points="163.6 311.7 158.16 311.7 159.59 301.02 163.6 305.02 163.6 311.7" class="bf"/><rect width="4.35" height="1.51" x="306.49" y="269.77" class="bg" transform="translate(315.71 -139.85) rotate(49.75)"/><rect width="5.14" height="1.78" x="306.06" y="264.18" class="bh" transform="translate(173.88 -118.8) rotate(30)"/><polygon points="299.22 185.57 302.69 189.24 316.7 204.06 328.85 198.68 317.09 190.02 306.58 185.57 299.22 185.57" class="ag"/><polygon points="328.85 198.68 376.39 204.86 376.39 243.66 317.09 219.32 316.7 204.06 328.85 198.68" class="ag"/><polygon points="376.39 204.86 391.48 229.36 409 233.51 376.39 243.66 376.39 204.86" class="ag"/><polygon points="246.29 212.94 268.13 259.11 284.86 243.66 278.6 214.5 246.29 212.94" class="ag"/><polygon points="117.97 214.31 71.92 225.66 62.72 271.17 47.63 277.52 31.24 312.05 48.29 318.41 175.06 221.42 159.06 218.81 110.64 247.77 138.57 212.1 117.97 214.31" class="ag"/><polygon points="175.06 221.42 107.24 271.17 138.57 297.43 188.3 265.25 197.9 243.66 194.13 226.42 175.06 221.42" class="ag"/><polygon points="161.06 204.93 156.04 208.57 138.57 212.1 110.64 247.77 159.06 218.81 161.06 204.93" class="ag"/><polyline points="206.93 229.29 197.9 243.66 200.52 282.4 228.65 297.16 255.32 233.44 224.95 233.44 206.93 229.29" class="ag"/><polyline points="278.6 214.5 317.09 219.32 376.39 243.66 343.37 281.33 301.07 255.74 284.86 243.66 278.6 214.5" class="ag"/><polygon points="376.39 243.66 413.5 263.36 409 285.81 436.62 301.38 374.73 318.34 343.37 281.33 376.39 243.66" class="bi"/><g class="bj"><polyline points="109.04 221.45 177.36 776.77 653.32 771.16 295.3 187.7" class="bk"/><polyline points="109.3 223.55 233.47 776.77 1003.48 792.32 296.87 194.27" class="bl"/><polygon points="542.7 765.05 -70.61 765.05 -70.61 201.37 16.04 215.89 119.58 195.39 335.43 185.68 542.7 201.37 542.7 765.05" class="bm"/></g><polygon points="187.36 210.01 173.5 221.47 250.11 239.09 280.08 214.72 187.36 210.01" class="bn"/><g class="bo"><polygon points="278.33 214.43 248.36 238.81 300.81 255.67 487.19 235.05 534.02 191.71 325.16 225.25 278.33 214.43" class="bp"/><polygon points="171.75 205.22 185.6 209.73 171.75 221.19 248.36 238.81 117.69 271.02 141.41 255.67 141.3 211.31 171.75 205.22" class="bq"/><polygon points="141.57 211.89 141.68 256.24 117.96 271.6 23.52 343.48 -70.93 330.24 -70.93 264.87 17.85 247.85 71.91 225.82 141.57 211.89" class="br"/></g><path d="M348.31,393.61c25.16-.07,46.33.33,46.56,2.85C396,409.07,340.11,433,278,459.31c-72.86,30.87-223.4,65.83-293.63,80.34l-4.34,91.13c88.17-26.73,281.31-90.86,365.1-146,101.74-67,95.15-102.14,43.68-104.41a218.44,218.44,0,0,0-29.69.71C357,386.87,348.31,393.61,348.31,393.61Z" class="bs"/><path d="M291.38,382c-13.52.05-26.19,0-33.79-.17-5.37-.13-11.79-.34-18.81-.64l-5.49,10c9,.36,17.13.57,23.28.63,11.77.1,27.29.31,42.66.55L296.49,391l-.37-3.22-2.73,1-2.07-2.7Z" class="bs"/><path d="M236.74,381.12c-3.48-.15-7.11-.33-10.81-.53l-3.1,10.11,8.35.39" class="bs"/><path d="M163.28,374.62c-29.43-8.41-59.23-15.75-80.66-27.66.08,5.52,1.94,10,6.38,13,20.66,10.75,46.76,19.85,74.24,24.59a425.92,425.92,0,0,0,48.38,5.54l5.7-10C198.17,378.92,177.94,377.15,163.28,374.62Z" class="bs"/><path d="M178.89,534.24l-1.71-8.14,14.44-4.83,6.25,29.8-6.6,2.21-1.46-6.94a14.66,14.66,0,0,1-2.32,7.27,10.42,10.42,0,0,1-5.5,4q-7.89,2.65-12.31-1.33t-7.07-16.6l-2.35-11.21q-2.89-13.82-.29-20t10.83-9q8.22-2.76,12.7.55T190,512.83l-8.82,3q-1.09-5.25-3-7.21c-1.26-1.33-3.15-1.58-5.64-.74a6.32,6.32,0,0,0-4.23,4.63,20.06,20.06,0,0,0,.24,9.09l3.78,18q2.42,11.5,8.71,9.4a6.46,6.46,0,0,0,4.48-5.45q.75-4.2-.72-11.26Z" class="bt"/><path d="M204.17,546,192.9,492.3l24.2-8.11,1.65,7.87-15.68,5.25L205.94,511l14.49-4.85,1.65,7.86-14.49,4.86L211,535.29,226.72,530l1.66,7.87Z" class="bt"/><path d="M221.67,484.5l8.38-2.8L247.59,510l-6.71-32,8-2.68,10.61,50.5-8.38,2.81-17.38-27.54,6.55,31.17-8,2.68Z" class="bt"/><path d="M252.53,475.18l25.23-8.45,1.46,7-8.84,3,8.53,40.61-7.55,2.52-8.53-40.6-8.84,3Z" class="bt"/><path d="M312.41,497.49l-6.89,3.11q-1.12-1.87-2.77-9.67-1-4.87-2.38-5.85c-.91-.68-2.79-.53-5.65.42l-2.33.78,3.82,18.22-6.2,3.15-8.86-42.18,12.26-4.11c3.43-1.15,6-1.1,7.88.15s3.08,3.38,3.71,6.4q1.86,8.85-3.37,11.53a5.07,5.07,0,0,1,4.31,1,8.38,8.38,0,0,1,2.36,4.76l.67,3.16c1.13,5.41,2.14,7.68,3.28,8.35ZM298.6,471.63c-.41-2-1-3.26-1.78-3.83s-1.88-.61-3.35-.11l-4.66,1.55,2.34,11.12,4.65-1.56Q299.82,477.45,298.6,471.63Z" class="bt"/><path d="M306.43,456.12l6.11-2.41,9.71,38.49-6.11,2.41Z" class="bt"/><path d="M326.78,488.34l-10.72-35.6,16.1-7.42,1.57,5.21-10.43,4.81,2.72,9,9.82-4.52,1.57,5.21-9.82,4.53,4.86,16.13Z" class="bt"/><path d="M334,444.67l5.17-2.65,11,32.42-5.17,2.65Z" class="bt"/><path d="M359.32,454.24l4.8-2.64a19.52,19.52,0,0,1,1.39,9.17,8.09,8.09,0,0,1-4.54,6.11q-4.73,2.6-7.61.75t-5.3-8.5l-2.32-6.36q-2.61-7.11-1.7-10.9a9.49,9.49,0,0,1,5.09-6.11q3.92-2.16,6.55-.66t4.51,6.62l-4.72,2.6a12.22,12.22,0,0,0-2-3.87,1.72,1.72,0,0,0-2.33-.34q-3.4,1.86-1.11,8.13L353.6,458q1.23,3.36,2.62,4.32a2.79,2.79,0,0,0,3.09,0,2.74,2.74,0,0,0,1.32-2.54A17,17,0,0,0,359.32,454.24Z" class="bu"/><path d="M369,459l-5.81-29.43,5.59-3.55L385,448.8l-4.49,2.85-4-5.95-4.85,3.08,1.73,7.36Zm1.78-14.44,3.56-2.26-6.27-9.62Z" class="bu"/><path d="M372.9,422.71l13.73-8,1.48,3.76-4.81,2.83,8.61,21.93-4.1,2.4-8.62-21.93-4.81,2.83Z" class="bt"/><path d="M388.89,413.58l3.64-2.35L402.41,434l-3.64,2.34Z" class="bt"/><path d="M401.2,422.72l-2.32-3.29q-2.86-4.08-2.85-6.69a7.32,7.32,0,0,1,2.5-5.13c1.86-1.87,3.51-2.55,4.94-2s3,2,4.73,4.47l2.33,3.31c1.72,2.44,2.6,4.52,2.66,6.24s-.79,3.43-2.52,5.18-3.23,2.4-4.65,2.14S403,425.27,401.2,422.72Zm-.4-7.26,3.77,5.36q2.4,3.42,4.26,1.56t-.37-5.25l-3.7-5.26c-1.71-2.45-3.21-3-4.48-1.76S399.19,413.17,400.8,415.46Z" class="bt"/><path d="M74.78,570.31l-3-11.15q-3.69-13.81-1.09-20.85T82.51,527q10.3-4.8,15.3-.58t8.34,16.73l3,11.23q3.31,12.39,1,19.42t-11.9,11.45Q89,589.57,83.6,586.41T74.78,570.31Zm6.1-19.94,4.86,18.15q3.09,11.6,9.93,8.4,7.18-3.34,4.2-14.5L95.1,544.6q-3.31-12.44-10.33-9.16T80.88,550.37Z" class="bu"/><path d="M402.92,403.14l1.39-3.51,11.43,1-9.62-5.54,1.33-3.37,15.2,8.75L421.26,404l-11.19-.85,9.39,5.4-1.34,3.36Z" class="bt"/><path d="M255.05,387.84a3.33,3.33,0,0,1-.93,2.53,4.37,4.37,0,0,1-2.86.77,4,4,0,0,1-2.76-.82,3.11,3.11,0,0,1-.85-2.5l.13-5.1h1.92l-.14,5.16a1.75,1.75,0,0,0,.41,1.32,1.78,1.78,0,0,0,1.33.44,1.94,1.94,0,0,0,1.39-.4,1.85,1.85,0,0,0,.44-1.35l.14-5.16h1.91Z" class="bu"/><path d="M261.87,385.13a1.17,1.17,0,0,0-.55-.94,2.46,2.46,0,0,0-1.37-.35,2.05,2.05,0,0,0-1.16.29.94.94,0,0,0-.44.81.61.61,0,0,0,.42.58,10.07,10.07,0,0,0,1.81.48,6.84,6.84,0,0,1,2.68.94,2,2,0,0,1,.63,1.68,2.18,2.18,0,0,1-1.07,1.85,5,5,0,0,1-2.8.68,4.45,4.45,0,0,1-2.73-.73,2.51,2.51,0,0,1-1-2.07h1.86a1.22,1.22,0,0,0,.51,1,2.43,2.43,0,0,0,1.4.36,3.23,3.23,0,0,0,1.45-.27.85.85,0,0,0,.54-.74.72.72,0,0,0-.36-.69,5.85,5.85,0,0,0-1.55-.46,8.67,8.67,0,0,1-2.92-.95,1.75,1.75,0,0,1-.69-1.59,2.31,2.31,0,0,1,1-1.91,4.53,4.53,0,0,1,2.66-.7,4,4,0,0,1,2.52.74,2.6,2.6,0,0,1,1,2Z" class="bu"/><path d="M274.1,388.1a3.58,3.58,0,0,1-1.39,2.41,4.67,4.67,0,0,1-2.92.88,4.3,4.3,0,0,1-3.25-1.23,4.48,4.48,0,0,1-1.12-3.34,4.77,4.77,0,0,1,1.3-3.39,4.43,4.43,0,0,1,3.31-1.25,4.62,4.62,0,0,1,2.86.84,3.21,3.21,0,0,1,1.29,2.29h-2a1.58,1.58,0,0,0-.66-1.12,2.42,2.42,0,0,0-1.47-.42,2.2,2.2,0,0,0-1.8.81,3.54,3.54,0,0,0-.71,2.25,3.32,3.32,0,0,0,.58,2.19,2.13,2.13,0,0,0,1.77.8,2.32,2.32,0,0,0,1.49-.46,1.89,1.89,0,0,0,.72-1.25Z" class="bu"/><path d="M113.08,360.72l2.49,1-.85,5,3.1-4.08,2.48,1-3.23,7.4-1.57-.64,2.8-6.38-4.37,5.73-1-.38,1.22-7-2.79,6.38-1.56-.63Z" class="bt"/><path d="M117.86,371.38l5-6.93,2.17.78-1,8.39-1.74-.62.32-2.12-1.88-.67L119.6,372Zm3.62-2.21,1.38.5.57-3.39Z" class="bt"/><path d="M130.75,375.74l-1.82-.56a6.49,6.49,0,0,1,.47-2,1.94,1.94,0,0,0,.13-1.31c-.13-.23-.56-.46-1.31-.69l-.6-.19-1.15,3.42-1.67-.51,2.65-7.92,3.19,1a2.88,2.88,0,0,1,1.73,1.1,1.81,1.81,0,0,1,.11,1.57q-.58,1.74-2,1.47a1.63,1.63,0,0,1,.84.76,1.49,1.49,0,0,1,0,1.12l-.21.62c-.35,1.06-.44,1.72-.26,2Zm-.11-6.35a.89.89,0,0,0-.7-1.35l-1.21-.38-.73,2.18,1.21.37C129.91,370.43,130.39,370.15,130.64,369.39Z" class="bt"/><path d="M135.3,373.69l.38-1.14,2.69.83-1.4,4.17-1.23-.38.33-1a1.9,1.9,0,0,1-1,.65,2.14,2.14,0,0,1-1.19-.06,2.66,2.66,0,0,1-1.85-1.36,3.9,3.9,0,0,1,.21-2.67l.52-1.57a4.08,4.08,0,0,1,1.56-2.42,4.1,4.1,0,0,1,4.42,1.27,2.7,2.7,0,0,1,0,2.17l-1.64-.5a1.81,1.81,0,0,0,.1-1.16c-.09-.28-.37-.49-.83-.63a1.1,1.1,0,0,0-1,.14,2.36,2.36,0,0,0-.69,1.11l-.84,2.52c-.36,1.07-.15,1.73.63,2a1.09,1.09,0,0,0,1.15-.22,3.29,3.29,0,0,0,.79-1.41Z" class="bt"/><path d="M140.45,370.05l1.64.43-2.23,7.8-1.64-.42Z" class="bt"/><path d="M143.28,370.75l1.68.46.73,5.45,1.45-4.85,1.62.43-2.29,7.67-1.69-.45-.77-5.33-1.41,4.73-1.62-.44Z" class="bt"/><path d="M147.39,380l4.48-7.17,2.19.62-.39,8.32-1.76-.49.18-2.11-1.9-.53-1.05,1.85Zm3.41-2.43,1.39.4.32-3.37Z" class="bt"/><path d="M156.26,374.08l1.66.37-1.67,6.71,3,.67L159,383l-4.7-1Z" class="bt"/><path d="M161.09,375.33l1.61.28-1.53,7.7-1.62-.28Z" class="bt"/><path d="M162.33,383.52l.23-1.15,4.27-4.88-3-.52.22-1.13,4.79.83-.23,1.14-4.3,4.88,3.32.58-.23,1.13Z" class="bt"/><path d="M170.07,376.89l1.62.28-1.54,7.7-1.62-.28Z" class="bt"/><path d="M173.12,377.28l1.71.24,1.38,5.22.81-4.91,1.63.23-1.29,7.75-1.7-.23-1.4-5.1-.8,4.78-1.62-.23Z" class="bt"/><path d="M182.44,383.18l.13-1.21,2.82.24-.48,4.42-1.29-.11.11-1a2,2,0,0,1-.8.84,2.16,2.16,0,0,1-1.19.2,2.72,2.72,0,0,1-2.12-.94,4,4,0,0,1-.37-2.69l.18-1.66a4.16,4.16,0,0,1,1-2.72,4.16,4.16,0,0,1,4.64.31,2.71,2.71,0,0,1,.46,2.14l-1.72-.15a1.82,1.82,0,0,0-.15-1.16,1.38,1.38,0,0,0-2-.08,2.21,2.21,0,0,0-.44,1.24l-.3,2.67c-.12,1.14.23,1.74,1.05,1.81a1.08,1.08,0,0,0,1.08-.46,3.39,3.39,0,0,0,.48-1.57Z" class="bt"/><path d="M26,555.4a10.47,10.47,0,0,0-9.21-1.51,8.51,8.51,0,0,0-2.59,1.25,7,7,0,0,0-2,2.14,7.19,7.19,0,0,0-.94,3.05,10.63,10.63,0,0,0,.47,3.89,7.64,7.64,0,0,0,3.9,5.08,27.09,27.09,0,0,0,7,2.12,52.08,52.08,0,0,1,5.09,1.19,20.56,20.56,0,0,1,5,2.2,16.41,16.41,0,0,1,7.37,9.92,20.4,20.4,0,0,1,.86,8,17.71,17.71,0,0,1-2,6.63,15.46,15.46,0,0,1-4.32,5,18.72,18.72,0,0,1-6.09,3,22.1,22.1,0,0,1-9.54.73,19.71,19.71,0,0,1-8-2.85l3.23-8.82a14.29,14.29,0,0,0,5.64,2.29,12.81,12.81,0,0,0,5.86-.29,7.2,7.2,0,0,0,4.57-3.66,8.68,8.68,0,0,0,.3-6.62,8,8,0,0,0-4.23-5.29,29,29,0,0,0-7.47-2.29,39.43,39.43,0,0,1-5.25-1.24A18.37,18.37,0,0,1,9,577.06a15.64,15.64,0,0,1-3.88-3.79,18.84,18.84,0,0,1-2.77-5.94,19.83,19.83,0,0,1-.84-8.22,16.48,16.48,0,0,1,2.21-6.51,15.84,15.84,0,0,1,4.39-4.72,19.08,19.08,0,0,1,5.71-2.8,21.74,21.74,0,0,1,8.38-.88,16,16,0,0,1,7.14,2.52Z" class="bu"/><path d="M53.3,544.26l14.63,50-9.73,2.85L43.58,547.11l-11,3.21-2.47-8.41,31.66-9.26,2.46,8.4Z" class="bu"/><path d="M144.31,526.81a21.53,21.53,0,0,1,.93,8.19,17.27,17.27,0,0,1-2,6.6,14.48,14.48,0,0,1-4.13,4.79,17.28,17.28,0,0,1-5.59,2.8l-6.9,2,6.85,23.41-9.73,2.85-17.08-58.36,16.11-4.71a22.29,22.29,0,0,1,6-.86,14.2,14.2,0,0,1,6.14,1.29,16.14,16.14,0,0,1,5.42,4.18A20.51,20.51,0,0,1,144.31,526.81ZM135,529.66q-1.36-4.68-4.22-6.16a8.22,8.22,0,0,0-6.31-.47l-5.6,1.64,5.4,18.47,5.61-1.64a7.75,7.75,0,0,0,5-4.09Q136.41,534.34,135,529.66Z" class="bu"/><polygon points="428.58 450.76 429.46 456.32 427.13 458.06 426.79 451.7 424.08 445.2 428.58 450.76" class="bv"/><polygon points="426.79 451.7 427.13 458.06 423.43 460.81 420.42 460.19 418.92 452.12 426.79 451.7" class="bw"/><polygon points="424.08 445.2 426.79 451.7 418.92 452.12 424.08 445.2" class="bx"/><polygon points="424.08 445.2 418.92 452.12 417.23 443.66 424.08 445.2" class="by"/><polygon points="423.43 460.81 423.09 461.06 416.39 463.76 410.3 459.17 413.77 459.56 420.42 460.19 423.43 460.81" class="bz"/><polygon points="418.92 452.12 420.42 460.19 413.77 459.56 418.92 452.12" class="ca"/><polygon points="417.23 443.66 418.92 452.12 410.81 449.46 412.83 446.17 417.23 443.66" class="cb"/><polygon points="418.92 452.12 413.77 459.56 410.3 459.17 408.99 452.4 410.81 449.46 418.92 452.12" class="cc"/><polygon points="207.22 394.54 207.72 397.42 206.41 398.32 206.23 395.03 204.71 391.67 207.22 394.54" class="bv"/><polygon points="206.23 395.03 206.41 398.32 204.34 399.75 204.34 399.75 202.67 399.42 201.83 395.25 206.23 395.03" class="bw"/><polygon points="204.71 391.67 206.23 395.03 201.83 395.25 204.71 391.67" class="bx"/><polygon points="204.71 391.67 201.83 395.25 200.89 390.87 204.71 391.67" class="by"/><polygon points="204.34 399.75 204.16 399.87 200.42 401.27 197.02 398.9 198.95 399.1 202.67 399.42 204.34 399.75" class="bz"/><polygon points="201.83 395.25 202.67 399.42 198.95 399.1 201.83 395.25" class="ca"/><polygon points="200.89 390.87 201.83 395.25 197.3 393.87 198.43 392.17 200.89 390.87" class="cb"/><polygon points="201.83 395.25 198.95 399.1 197.02 398.9 196.28 395.4 197.3 393.87 201.83 395.25" class="cc"/><polygon points="69.72 445.51 70.35 449.43 68.7 450.65 68.47 446.17 66.55 441.59 69.72 445.51" class="bv"/><polygon points="68.47 446.17 68.7 450.65 66.09 452.59 63.97 452.15 62.92 446.46 68.47 446.17" class="bw"/><polygon points="66.55 441.59 68.47 446.17 62.92 446.46 66.55 441.59" class="bx"/><polygon points="66.55 441.59 62.92 446.46 61.73 440.5 66.55 441.59" class="by"/><polygon points="66.09 452.59 65.86 452.77 61.13 454.67 56.84 451.44 59.28 451.71 63.97 452.15 66.09 452.59" class="bz"/><polygon points="62.92 446.46 63.97 452.15 59.28 451.71 62.92 446.46" class="ca"/><polygon points="61.73 440.5 62.92 446.46 57.19 444.59 58.62 442.27 61.73 440.5" class="cb"/><polygon points="62.92 446.46 59.28 451.71 56.84 451.44 55.91 446.67 57.19 444.59 62.92 446.46" class="cc"/><polygon points="294.68 517.72 295.31 521.63 293.66 522.86 293.43 518.38 291.51 513.8 294.68 517.72" class="bv"/><polygon points="293.43 518.38 293.66 522.86 291.05 524.8 288.93 524.36 287.88 518.67 293.43 518.38" class="bw"/><polygon points="291.51 513.8 293.43 518.38 287.88 518.67 291.51 513.8" class="bx"/><polygon points="291.51 513.8 287.88 518.67 286.69 512.71 291.51 513.8" class="by"/><polygon points="291.05 524.8 290.81 524.98 286.09 526.88 281.79 523.65 284.24 523.92 288.93 524.36 291.05 524.8" class="bz"/><polygon points="287.88 518.67 288.93 524.36 284.24 523.92 287.88 518.67" class="ca"/><polygon points="286.69 512.71 287.88 518.67 282.15 516.8 283.58 514.48 286.69 512.71" class="cb"/><polygon points="287.88 518.67 284.24 523.92 281.79 523.65 280.87 518.88 282.15 516.8 287.88 518.67" class="cc"/><polygon points="157.48 448.14 157.76 449.88 157.03 450.43 156.92 448.44 156.07 446.4 157.48 448.14" class="bv"/><polygon points="156.92 448.44 157.03 450.43 155.87 451.29 155.87 451.29 154.93 451.09 154.46 448.56 156.92 448.44" class="bw"/><polygon points="156.07 446.4 156.92 448.44 154.46 448.56 156.07 446.4" class="bx"/><polygon points="156.07 446.4 154.46 448.56 153.93 445.91 156.07 446.4" class="by"/><polygon points="155.87 451.29 155.76 451.37 153.66 452.21 151.76 450.77 152.84 450.9 154.93 451.09 155.87 451.29" class="bz"/><polygon points="154.46 448.56 154.93 451.09 152.84 450.9 154.46 448.56" class="ca"/><polygon points="153.93 445.91 154.46 448.56 151.91 447.73 152.55 446.7 153.93 445.91" class="cb"/><polygon points="154.46 448.56 152.84 450.9 151.76 450.77 151.34 448.66 151.91 447.73 154.46 448.56" class="cc"/><polygon points="225.79 558.8 226.07 560.54 225.34 561.09 225.24 559.1 224.38 557.06 225.79 558.8" class="bv"/><polygon points="225.24 559.1 225.34 561.09 224.18 561.95 223.24 561.75 222.77 559.22 225.24 559.1" class="bw"/><polygon points="224.38 557.06 225.24 559.1 222.77 559.22 224.38 557.06" class="bx"/><polygon points="224.38 557.06 222.77 559.22 222.24 556.57 224.38 557.06" class="by"/><polygon points="224.18 561.95 224.08 562.02 221.98 562.87 220.07 561.43 221.15 561.56 223.24 561.75 224.18 561.95" class="bz"/><polygon points="222.77 559.22 223.24 561.75 221.15 561.56 222.77 559.22" class="ca"/><polygon points="222.24 556.57 222.77 559.22 220.23 558.39 220.86 557.36 222.24 556.57" class="cb"/><polygon points="222.77 559.22 221.15 561.56 220.07 561.43 219.66 559.32 220.23 558.39 222.77 559.22" class="cc"/><polygon points="81.13 474.83 81.4 476.57 80.67 477.11 80.57 475.12 79.72 473.09 81.13 474.83" class="bv"/><polygon points="80.57 475.12 80.67 477.11 79.51 477.98 78.57 477.78 78.1 475.25 80.57 475.12" class="bw"/><polygon points="79.72 473.09 80.57 475.12 78.1 475.25 79.72 473.09" class="bx"/><polygon points="79.72 473.09 78.1 475.25 77.57 472.6 79.72 473.09" class="by"/><polygon points="79.51 477.98 79.41 478.05 77.31 478.9 75.4 477.46 76.49 477.58 78.57 477.78 79.51 477.98" class="bz"/><polygon points="78.1 475.25 78.57 477.78 76.49 477.58 78.1 475.25" class="ca"/><polygon points="77.57 472.6 78.1 475.25 75.56 474.42 76.19 473.39 77.57 472.6" class="cb"/><polygon points="78.1 475.25 76.49 477.58 75.4 477.46 74.99 475.34 75.56 474.42 78.1 475.25" class="cc"/><polygon points="203.87 456.74 204.37 459.77 203.05 460.72 202.87 457.25 201.33 453.7 203.87 456.74" class="bv"/><polygon points="202.87 457.25 203.05 460.72 200.97 462.22 199.28 461.88 198.43 457.47 202.87 457.25" class="bw"/><polygon points="201.33 453.7 202.87 457.25 198.43 457.47 201.33 453.7" class="bx"/><polygon points="201.33 453.7 198.43 457.47 197.48 452.86 201.33 453.7" class="by"/><polygon points="200.97 462.22 200.78 462.36 197.01 463.84 193.57 461.33 195.53 461.54 199.28 461.88 200.97 462.22" class="bz"/><polygon points="198.43 457.47 199.28 461.88 195.53 461.54 198.43 457.47" class="ca"/><polygon points="197.48 452.86 198.43 457.47 193.86 456.02 195 454.23 197.48 452.86" class="cb"/><polygon points="198.43 457.47 195.53 461.54 193.57 461.33 192.84 457.63 193.86 456.02 198.43 457.47" class="cc"/><polygon points="389.41 481.9 390.81 490.37 387.14 493.01 386.62 483.34 382.35 473.44 389.41 481.9" class="bv"/><polygon points="386.62 483.34 387.14 493.01 385.82 493.96 381.32 497.2 376.61 496.25 374.25 483.96 386.62 483.34" class="bw"/><polygon points="382.35 473.44 386.62 483.34 374.25 483.96 382.35 473.44" class="bx"/><polygon points="385.82 493.96 381.33 497.2 381.32 497.2 385.82 493.96" class="bw"/><polygon points="382.35 473.44 374.25 483.96 371.61 471.08 382.35 473.44" class="by"/><polygon points="381.32 497.2 380.8 497.57 370.28 501.7 360.71 494.7 366.16 495.3 376.61 496.25 381.32 497.2" class="bz"/><polygon points="374.25 483.96 376.61 496.25 366.16 495.3 374.25 483.96" class="ca"/><polygon points="371.61 471.08 374.25 483.96 361.5 479.92 364.68 474.91 371.61 471.08" class="cb"/><polygon points="374.25 483.96 366.16 495.3 360.71 494.7 358.65 484.41 361.5 479.92 374.25 483.96" class="cc"/><polygon points="104.85 413.24 106.24 421.7 102.58 424.34 102.05 414.67 97.78 404.78 104.85 413.24" class="bv"/><polygon points="102.05 414.67 102.58 424.34 102.58 424.35 96.76 428.53 92.04 427.59 89.69 415.3 102.05 414.67" class="bw"/><polygon points="97.78 404.78 102.05 414.67 89.69 415.3 97.78 404.78" class="bx"/><polygon points="97.78 404.78 89.69 415.3 87.04 402.42 97.78 404.78" class="by"/><polygon points="96.76 428.53 96.24 428.91 85.71 433.04 76.15 426.04 81.6 426.63 92.04 427.59 96.76 428.53" class="bz"/><polygon points="89.69 415.3 92.04 427.59 81.6 426.63 89.69 415.3" class="ca"/><polygon points="87.04 402.42 89.69 415.3 76.94 411.25 80.12 406.24 87.04 402.42" class="cb"/><polygon points="89.69 415.3 81.6 426.63 76.15 426.04 74.09 415.74 76.94 411.25 89.69 415.3" class="cc"/><polygon points="146.43 479.76 147.16 484.14 145.26 485.51 144.98 480.5 142.77 475.38 146.43 479.76" class="bv"/><polygon points="144.98 480.5 145.26 485.51 145.26 485.51 142.24 487.68 139.8 487.19 138.58 480.83 144.98 480.5" class="bw"/><polygon points="142.77 475.38 144.98 480.5 138.58 480.83 142.77 475.38" class="bx"/><polygon points="142.77 475.38 138.58 480.83 137.21 474.16 142.77 475.38" class="by"/><polygon points="142.24 487.68 141.97 487.88 136.52 490.01 131.57 486.39 134.39 486.7 139.8 487.19 142.24 487.68" class="bz"/><polygon points="138.58 480.83 139.8 487.19 134.39 486.7 138.58 480.83" class="ca"/><polygon points="137.21 474.16 138.58 480.83 131.98 478.73 133.63 476.14 137.21 474.16" class="cb"/><polygon points="138.58 480.83 134.39 486.7 131.57 486.39 130.5 481.06 131.98 478.73 138.58 480.83" class="cc"/><polygon points="442.77 505.46 445.52 522.17 438.28 527.39 437.24 508.29 428.81 488.75 442.77 505.46" class="bv"/><polygon points="437.24 508.29 438.28 527.39 438.28 527.41 426.79 535.68 417.47 533.81 412.82 509.53 437.24 508.29" class="bw"/><polygon points="428.81 488.75 437.24 508.29 412.82 509.53 428.81 488.75" class="bx"/><polygon points="428.81 488.75 412.82 509.53 407.58 484.1 428.81 488.75" class="by"/><polygon points="426.79 535.68 425.76 536.43 404.97 544.57 386.07 530.76 396.84 531.92 417.47 533.81 426.79 535.68" class="bz"/><polygon points="412.82 509.53 417.47 533.81 396.84 531.92 412.82 509.53" class="ca"/><polygon points="407.58 484.1 412.82 509.53 387.64 501.54 393.92 491.65 407.58 484.1" class="cb"/><polygon points="412.82 509.53 396.84 531.92 386.07 530.76 382.01 510.4 387.64 501.54 412.82 509.53" class="cc"/><polyline points="248.63 238.88 161.75 -49.83 183.42 -49.83 248.63 238.88 248.63 238.88" class="cd"/><path d="M248,158.15l91.82-208h45.56L251.76,158A19.12,19.12,0,0,0,248,158.15Z" class="cd"/><path d="M239.54,39.28c-3.07,4.48-5.87,7.9-6.3,7.61s.95-3,4-7.53,6.67-9,7.1-8.71S242.61,34.79,239.54,39.28Z" class="ce"/><path d="M247.33,37.86a9.53,9.53,0,0,1-9.48,9.8c-5.41,0-9.88-3-9.88-8.44s4.47-11.15,9.88-11.15A9.53,9.53,0,0,1,247.33,37.86Z" class="cf"/><path d="M238.81,42.52c0,1.74-1.81,3.15-4.22,3.15s-4.39-1-4.39-2.72,2-3.58,4.39-3.58S238.81,40.78,238.81,42.52Z" class="cg"/><path d="M244.07,34c0,1.22-1.35,2.21-3.15,2.21s-3.27-.69-3.27-1.9,1.48-2.51,3.27-2.51S244.07,32.78,244.07,34Z" class="ch"/><path d="M241.66,37.7c.33,5.49-.9,10-2.9,10.15s-3.84-2.86-4.17-8.34,1-11.41,3-11.53S241.34,32.22,241.66,37.7Z" class="ci"/><path d="M240.51,33.5c4.37,2.52,6.76,6.56,5.23,9.21s-5.24,3.44-9.61.92-7.75-7.38-6.22-10S236.14,31,240.51,33.5Z" class="ce"/><path d="M236.4,35c5.13-1.86,9.83-1.85,10.56.15s-1.55,4.7-6.68,6.56-11.17,2.17-11.9.16S231.27,36.85,236.4,35Z" class="cj"/><path d="M226.65,196.08l-1-135.6c4.1-1.08,8-10.5,12-20.5l-3.3,156.1h-7.69" class="ck"/><path d="M237.64,40c3.46,10.79,6.82,20,11,20.5L245.17,196.3l-10.83-.22Z" class="ag"/><path d="M226.65,61.07c3.23.12,6.61-4.43,9.06-12.86l-2.65,146.58h-5.63Z" class="cl"/><path d="M239.68,49.79c1.77,8.21,4.41,11.2,7.25,11.83L244,194.79H236.4Z" class="at"/><path d="M244,103.4V139h13.32V103.4A14.27,14.27,0,0,0,244,103.4Z" class="ag"/><path d="M247,139h-4.63V115a4.19,4.19,0,0,1,4.63,0Z" class="cm"/><path d="M260.39,139h-3.88V115a3,3,0,0,1,3.88,0Z" class="cm"/><path d="M256.51,139H247V125.47a13.29,13.29,0,0,1,9.5,0Z" class="ag"/><path d="M261.46,197.5H241.94V139c8.09-1.23,15.34-1.81,19.52,0Z" class="ag"/><path d="M244,107.85q9.8-1.35,13.32,0v1.32a33.72,33.72,0,0,0-13.32,0Z" class="cn"/><path d="M247,125.26q7-1,9.49,0v1a22.48,22.48,0,0,0-9.49,0Z" class="cn"/><path d="M241.94,139q14.35-1.6,19.52,0v1.59a58.11,58.11,0,0,0-19.52,0Z" class="cn"/><path d="M242.38,114.49a13.61,13.61,0,0,1,4.63,0v.38a14.1,14.1,0,0,0-4.63,0Z" class="cn"/><path d="M256.51,114.52a8.3,8.3,0,0,1,3.88,0V115a8.61,8.61,0,0,0-3.88,0Z" class="cn"/><path d="M247,104.53l-.84.3,0,.83a1.23,1.23,0,0,0,.6.17,1.3,1.3,0,0,0,1.3-1.3Z" class="co"/><polygon points="245.9 104.53 245.9 104.93 246.19 104.83 246.17 104.53 245.9 104.53" class="ae"/><path d="M246.46,104.53l.55-.39,1.12.39a1.3,1.3,0,0,0-1.3-1.3,1.24,1.24,0,0,0-.71.24l0,1.06Z" class="co"/><polygon points="248.15 104.54 246.82 103.94 246.16 104.54 245.82 104.54 245.84 104.99 246.82 104.54 248.15 104.54" class="ag"/><path d="M245.53,104.53a1.28,1.28,0,0,1,.59-1.06v-1.93l-.83,1.26.18,3.87.8-.09,0-.92A1.28,1.28,0,0,1,245.53,104.53Z" class="cp"/><path d="M245.9,104.53h.27l0-1.06a1.26,1.26,0,0,0,.11,2.19l0-.83-.28.1Z" class="co"/><path d="M262.51,198.85l5.33-80.09,2.55-1.5L272,105c3.5-5.74,8.45-7.67,14.37-7.06V198.85Z" class="cq"/><path d="M265.06,198.85c1.2-29.41,2.44-58.46,5.79-73.77h2.32l1.39-13.89c7.63.34,12.75,1.69,16,3.82,2.3,20.35,1.42,51.31,0,84.11Z" class="cq"/><polygon points="274.56 111.19 277.6 112.34 276.08 124.64 273.17 125.08 274.56 111.19" class="cn"/><path d="M270.85,125.08h2.32l-4.51,74-3.6-.27A609.5,609.5,0,0,1,270.85,125.08Z" class="cn"/><polygon points="272.01 104.97 273.17 103.28 272.01 116.25 270.39 117.26 272.01 104.97" class="cn"/><polygon points="267.73 120.42 265.83 122.96 261.02 198.85 262.51 198.85 267.73 120.42" class="cn"/><polygon points="283.6 97.8 283.6 85.42 284.17 84.75 284.84 85.44 284.84 97.8 283.6 97.8" class="cr"/><path d="M192.94,89.7V196.12h29.24V89.7C223.94,85.76,208,87.9,192.94,89.7Z" class="cs"/><path d="M217.9,196.39H189.3V95.18c14.24-1.56,30.18-3.69,28.6,0Z" class="ct"/><path d="M211.74,196.39H185.59V104.27c15.08-2.13,27.3-3.3,26.15,0Z" class="cu"/><polygon points="194.68 92.76 194.68 94.62 201.08 93.69 200.71 91.7 194.68 92.76" class="ag"/><polygon points="202.29 91.74 202.29 93.16 206.93 92.45 206.28 91.65 202.29 91.74" class="ag"/><polygon points="207.95 91.65 207.95 92.85 212.41 92.25 211.81 91.09 207.95 91.65" class="ag"/><path d="M220.65,87.84l-.13,108.28h1.66l1.71-89.43-1.69-2.18c.15-6.39.63-15.52,0-15.78A2.84,2.84,0,0,0,220.65,87.84Z" class="cn"/><path d="M217.2,94l.73.63c2.3,10.29,1.43,61.84,1.43,101.79h-1.79C217.71,156,218.29,105.17,217.2,94Z" class="cn"/><path d="M211,102.85l.72.58c2.3,9.4,1.44,56.48,1.43,93h-1.79C211.52,159.47,212.1,113.08,211,102.85Z" class="cn"/><polygon points="153.81 175.44 153.81 114.24 169.68 106.17 169.68 196.96 153.81 175.44" class="ag"/><polygon points="169.68 106.17 182.84 116.89 182.84 196.96 169.68 196.96 169.68 106.17" class="cv"/><polygon points="156.02 116.68 156.02 178.43 166.07 192.07 166.07 111.76 156.02 116.68" class="ct"/><polygon points="156.02 143.07 166.07 141.94 166.07 144.48 156.02 144.48 156.02 143.07" class="cn"/><polygon points="163.53 110.5 162.98 112.39 167.13 110.25 167.5 108.84 166.45 109.76 165.24 109.82 164.44 111.17 163.53 110.5" class="cw"/><polygon points="156.02 116.68 154.9 117.25 154.9 176.91 156.02 178.43 156.02 116.68" class="cn"/><polygon points="158.03 112.09 158.03 83.31 158.38 82.89 158.83 83.29 158.83 111.59 158.03 112.09" class="ag"/><polygon points="255.39 102.6 256.64 101.94 256.42 106.61 255.52 106.42 255.39 102.6" class="cp"/><polygon points="243.95 102.77 244.53 103.12 244.53 106.79 243.95 106.87 243.95 102.77" class="cp"/><path d="M247.4,102.13a13.73,13.73,0,0,1,7.07.17V101a19.83,19.83,0,0,0-7.07-.16Z" class="cx"/><polygon points="249.41 101.81 247.99 101.35 248.48 106.36 249.41 106.29 249.41 101.81" class="cp"/><polygon points="252.83 101.02 253.74 102.12 253.63 106.23 252.94 106.21 252.83 101.02" class="cp"/><polygon points="251.27 101.17 250.39 101.75 250.56 106.23 251.08 106.21 251.27 101.17" class="cp"/><path d="M247.4,100.79l.08-.61a12.74,12.74,0,0,1,6.86.31l.13.46A19.52,19.52,0,0,0,247.4,100.79Z" class="cn"/><path d="M238.92,161.71c5.86-4.14,12.74-4.74,20.47-2.32l-7.8,37.78-16.28-4.4Z" class="cy"/><path d="M201.72,164.34c-.54-2.23-6.36-2.86-13.57-3.07l-1.65,8.33,15.22,6.05V164.34" class="cy"/><path d="M187.68,165.14c4.08-.32,8.57,2.39,13.24,6.45l-6.62,14.59H183.42l4.26-21" class="cn"/><path d="M225,138.37c-9.63,2.9-22.17,11.88-27,20.14.81,7.34,4,8.71,2.92,15.47l19.48,10.6Z" class="cm"/><path d="M225,138.37c6.58,13.87,13.59,25.71,22.61,28.07l-9,23.23-18.18-5.09Z" class="cz"/><path d="M238.06,187.84c-3.89-1.18-24.1-10.82-43.63-16.09-1,10-6.92,27-9.85,32.66,22.49,1.27,42.92,10.27,51,12.72l6.86-28.45S241.94,189,238.06,187.84Z" class="cm"/><path d="M246.81,181.63c8.48-2.83,14.38-3.45,18.56-2.59l-3.08,13.46H248.18A9.77,9.77,0,0,0,246.81,181.63Z" class="cz"/><path d="M246.27,182.3l.54-.67c3.09,4.06,3,8.57.79,11.67l-2.9.32A8.63,8.63,0,0,0,246.27,182.3Z" class="da"/><path d="M251.59,187.84l-6.89,25c8.88-.34,22.15-13.92,23.34-15.36l-1-8.41C264.68,187.7,259.11,187.43,251.59,187.84Z" class="cm"/><polygon points="251.59 187.84 250.17 188.59 248.18 199.64 246.27 212.86 251.59 187.84" class="da"/><path d="M249.47,192.5c-5.6.77-11.81,1.88-13.49.56l-6.81,18.32,17.1,1.48Z" class="cm"/><path d="M169.49,158c9,0,17.62.05,19.27,1.87l-4.45,24.34-6.06-.3Z" class="cm"/><path d="M192.17,184.22c-9.06-1.52-18.12-3-22.68-1.14,2.33,2.34,6.15,20.39,5.55,22.73l9.54-1.4,7.31-17.22.7-3" class="cy"/><path d="M190.94,190.11q-9.08-2-21.45,0c2.1,2.24,4.11,4.6,5,8.49H187.2l1.56-2.83Z" class="cz"/><path d="M169.49,190.11l-.81,1.91a16.06,16.06,0,0,1,4.07,8.48h12.37l2.08-1.9H174.49C174.3,196.25,172.25,193.29,169.49,190.11Z" class="da"/><path d="M169.49,183.08l-.81,1.5a5.48,5.48,0,0,1,1.87,5.36l1.62-.23A7.58,7.58,0,0,0,169.49,183.08Z" class="da"/><path d="M187.83,159.24a1.72,1.72,0,0,1,.93.6c-1.07,7.32-2.51,15.07-4.23,23.16h-.46Q186.52,171.09,187.83,159.24Z" class="da"/><path d="M292,146.64s22.34,2.65,18.3,7-54.87,25.12-54.87,25.12l.86-4.12s44.89-19.52,44.16-21-8.45-3.17-8.45-3.17Z" class="db"/><path d="M256.36,174.06c17.05-7.48,32.5-14.61,43.74-20.84l.31.37c.32,1.28-26,13.36-44.16,21Z" class="ag"/><path d="M292,146.64v-.59c10.13,1.2,16.52,2.84,18.67,5.16.1,1,.18,1.67.07,1C309.36,149.78,302.19,148,292,146.64Z" class="ag"/><polygon points="199.45 156.32 201.72 153.55 179.13 132.68 174.85 131.8 199.45 156.32" class="dc"/><polygon points="174.85 131.8 174.85 132.76 198.93 157.05 199.45 156.32 174.85 131.8" class="ag"/><path d="M250.39,107.17l-10.56-2.9c-1.48-.39-14,5.57-14.84,7.59s13.17,5,13.17,5l.1-4.36s-7.95-1.62-6.81-2.24,6.14-3.41,8.64-3.4a12,12,0,0,1,3.86,1C245.05,107.68,248.2,107.3,250.39,107.17Z" class="dd"/><path d="M225,112.06v-.73c2.76-2.69,12.37-8,14.46-7.7,1.49.23,11,3.4,11,3v.56c-3.73-1.06-9.67-2.62-10.77-2.92S227.59,109,225,112.06Z" class="cz"/><path d="M238.27,112.06v.45c-3.35-.72-6.53-1.44-6.91-2.06v-.13l.23-.12A20.24,20.24,0,0,0,238.27,112.06Z" class="de"/><polygon points="291.88 134.51 374.73 185.59 375.89 185.57 291.71 131.8 291.88 134.51" class="df"/><polygon points="375.89 185.57 376.37 185.49 291.71 130.71 291.71 131.8 375.89 185.57" class="cz"/><path d="M110.65,136.77v-1.65c9.65-5.3,23.12-10.64,34.3-12.74a49.46,49.46,0,0,1,8.86,3.7v.79a80.33,80.33,0,0,0-9-3.22c-13,2.82-24.2,7-34.16,13.12h0" class="cz"/><path d="M153.81,126.87s-4.43-1.84-8.36-3.13-33.5,10.44-34.8,13,43.16,16.55,43.16,16.55v-5.94s-31.41-9.31-30.65-10.73,17.7-10.14,21.88-9.19a47.15,47.15,0,0,1,8.77,3.18Z" class="dg"/><polyline points="117.96 214.24 132.23 206.11 141.68 183.88 153.81 177.93 147.07 198.22 138.55 212.02 117.96 214.24 117.96 214.24" class="ag"/><polygon points="138.55 212.02 156.02 208.49 162.98 203.45 163.64 197.5 156.02 193.85 159.39 183 153.81 177.93 138.55 212.02" class="dh"/><polygon points="246.27 212.86 257.27 194.28 271.78 194.79 280.43 200.29 286.38 216.3 278.6 214.5 274.44 200.93 275.39 214.34 246.27 212.86" class="ag"/><polygon points="138.55 191.23 143.35 161.67 151.1 161.67 153.81 153.32 153.81 175.44 158.03 181.16 153.81 177.93 141.68 183.88 138.55 191.23" class="di"/><polygon points="291.77 164.02 303.04 171.75 306.56 185.49 299.2 185.49 291.77 164.02" class="ag"/><polygon points="291.77 164.02 290.63 197.17 299.2 185.49 291.77 164.02" class="dj"/><polygon points="276.04 197.5 279.89 180.6 284.22 175.65 286.38 190.11 288.85 193.66 290.55 199.12 283.29 207.89 280.43 200.29 276.04 197.5" class="dj"/><polygon points="284.22 175.65 293.86 178.68 295.91 184.58 299.2 185.49 290.13 197.79 288.85 193.66 286.38 190.11 284.22 175.65" class="ag"/><polygon points="159.04 218.73 161.85 202.7 187.87 204.79 188.9 209.89 175.04 221.35 159.04 218.73" class="ag"/><polygon points="206.93 229.29 206.93 214.5 197.88 205.29 199.45 199.12 210.18 186.15 215.6 209.8 224.95 216.3 224.95 233.44 206.93 229.29" class="ag"/><polygon points="201.72 209.2 194.11 226.34 206.93 229.29 206.93 214.5 201.72 209.2" class="dh"/><polygon points="194.11 226.34 192.17 207.01 187.87 204.79 188.9 209.89 175.04 221.35 194.11 226.34" class="dk"/><polygon points="189.98 205.88 192.94 192.5 199.45 213.19 194.11 226.34 192.17 207.01 189.98 205.88" class="ag"/><polygon points="229.17 202.7 224.99 221.35 246.27 212.86 238.27 205.41 238.27 211.38 234 211.38 229.17 202.7" class="ag"/><polygon points="238.27 205.41 234 211.38 238.27 211.38 238.27 205.41" class="dj"/><polygon points="163.06 202.7 163.64 197.5 156.02 193.85 159.39 183 158.31 182.02 163.31 178.43 172.01 203.51 163.06 202.7" class="ag"/><path d="M163.31,178.43l2.76,2.73,3.21,9.44-.6,1.42a16.24,16.24,0,0,1,4.07,8.48h4.11l1.08,3.49-5.92-.48Z" class="dh"/><polygon points="229.17 202.7 215.6 209.8 224.95 216.3 224.99 221.35 229.17 202.7" class="dl"/><path d="M199.18,609.71h3.7v.83h-2.82v1.71h2.41V613h-2.41v2.48h-.88Z" class="ag"/><path d="M203.13,613.44a3.58,3.58,0,0,1,.11-1,1.68,1.68,0,0,1,.82-1,1.72,1.72,0,0,1,.77-.16,1.76,1.76,0,0,1,.79.16,1.51,1.51,0,0,1,.47.37,1.37,1.37,0,0,1,.35.58,4.1,4.1,0,0,1,.1,1,4,4,0,0,1-.1,1,1.51,1.51,0,0,1-.35.6,1.12,1.12,0,0,1-.2.17.91.91,0,0,1-.27.18,1.74,1.74,0,0,1-.79.18,1.72,1.72,0,0,1-.77-.18,1.57,1.57,0,0,1-.48-.35,1.62,1.62,0,0,1-.34-.6A3.5,3.5,0,0,1,203.13,613.44Zm2.57,0a3.45,3.45,0,0,0,0-.65.71.71,0,0,0-.16-.34.6.6,0,0,0-.27-.22,1,1,0,0,0-.4-.08,1,1,0,0,0-.39.08.85.85,0,0,0-.28.22,1,1,0,0,0-.15.34,3.21,3.21,0,0,0,0,.64,3.1,3.1,0,0,0,0,.63,1.14,1.14,0,0,0,.15.36,2.27,2.27,0,0,0,.28.21.85.85,0,0,0,.39.08.84.84,0,0,0,.4-.08,1.05,1.05,0,0,0,.27-.21.83.83,0,0,0,.16-.36A3.22,3.22,0,0,0,205.7,613.45Z" class="ag"/><path d="M207.41,611.38h.83v.44h0a1.33,1.33,0,0,1,1.08-.49,1.36,1.36,0,0,1,.87.31l-.61.72a.9.9,0,0,0-.54-.2.79.79,0,0,0-.81.86v2.49h-.83Z" class="ag"/><path d="M212.58,611.38h.83v.44h0a1.31,1.31,0,0,1,1.07-.49,1.55,1.55,0,0,1,.7.14,2.22,2.22,0,0,1,.47.4,1.6,1.6,0,0,1,1.3-.54,1.42,1.42,0,0,1,.94.36,1.38,1.38,0,0,1,.44,1.07v2.75h-.83v-2.46a.9.9,0,0,0-.23-.66.86.86,0,0,0-1.17,0,.86.86,0,0,0-.24.66v2.46h-.83v-2.46a.9.9,0,0,0-.23-.66.81.81,0,0,0-.59-.23.78.78,0,0,0-.58.23.86.86,0,0,0-.24.66v2.46h-.83Z" class="ag"/><path d="M219.27,613.44a3.58,3.58,0,0,1,.11-1,1.68,1.68,0,0,1,.82-1,1.72,1.72,0,0,1,.77-.16,1.76,1.76,0,0,1,.79.16,1.51,1.51,0,0,1,.47.37,1.37,1.37,0,0,1,.35.58,4.1,4.1,0,0,1,.1,1,4,4,0,0,1-.1,1,1.51,1.51,0,0,1-.35.6,1.12,1.12,0,0,1-.2.17.91.91,0,0,1-.27.18,1.74,1.74,0,0,1-.79.18,1.72,1.72,0,0,1-.77-.18,1.57,1.57,0,0,1-.48-.35,1.62,1.62,0,0,1-.34-.6A3.5,3.5,0,0,1,219.27,613.44Zm2.57,0a3.45,3.45,0,0,0,0-.65.71.71,0,0,0-.16-.34.6.6,0,0,0-.27-.22,1,1,0,0,0-.4-.08,1,1,0,0,0-.39.08.85.85,0,0,0-.28.22,1,1,0,0,0-.15.34,3.21,3.21,0,0,0-.05.64,3.1,3.1,0,0,0,.05.63,1.14,1.14,0,0,0,.15.36,2.27,2.27,0,0,0,.28.21.85.85,0,0,0,.39.08.84.84,0,0,0,.4-.08,1.05,1.05,0,0,0,.27-.21.83.83,0,0,0,.16-.36A3.22,3.22,0,0,0,221.84,613.45Z" class="ag"/><path d="M223.55,611.38h.83v.44h0a1.35,1.35,0,0,1,1.08-.49,1.36,1.36,0,0,1,.87.31l-.61.72a.9.9,0,0,0-.54-.2.79.79,0,0,0-.81.86v2.49h-.83Z" class="ag"/><path d="M227.2,613.76a1,1,0,0,0,1,1,1.25,1.25,0,0,0,.9-.41l.6.52a2,2,0,0,1-1.49.67,2.19,2.19,0,0,1-.63-.1,1.23,1.23,0,0,1-.31-.14,1.32,1.32,0,0,1-.29-.19,1.62,1.62,0,0,1-.42-.64,2.56,2.56,0,0,1-.18-1,3,3,0,0,1,.15-1,1.9,1.9,0,0,1,.4-.66,1.71,1.71,0,0,1,.55-.35,1.84,1.84,0,0,1,.6-.1,1.73,1.73,0,0,1,1.2.46,1.68,1.68,0,0,1,.5,1.28v.69Zm1.74-.69a1.07,1.07,0,0,0-.26-.73.92.92,0,0,0-1.22,0,1.12,1.12,0,0,0-.26.73Z" class="ag"/><path d="M232.62,609.71h.83v.83h-.83Zm0,1.67h.83v4.13h-.83Z" class="ag"/><path d="M234.55,611.38h.83v.44h0a1.31,1.31,0,0,1,1.07-.49,1.42,1.42,0,0,1,.94.36,1.38,1.38,0,0,1,.44,1.07v2.75H237v-2.46a.9.9,0,0,0-.23-.66.86.86,0,0,0-1.17,0,.86.86,0,0,0-.24.66v2.46h-.83Z" class="ag"/><path d="M239.06,612h-.42v-.63h.42v-.55a1.08,1.08,0,0,1,.32-.86,1.2,1.2,0,0,1,.8-.26h.54v.78h-.47c-.25,0-.37.11-.36.34v.55h.83V612h-.83v3.5h-.83Z" class="ag"/><path d="M241,613.44a3.65,3.65,0,0,1,.1-1,1.48,1.48,0,0,1,.35-.58,1.51,1.51,0,0,1,.47-.37,1.8,1.8,0,0,1,.78-.16,1.76,1.76,0,0,1,.79.16,1.36,1.36,0,0,1,.46.37,1.28,1.28,0,0,1,.35.58,3.65,3.65,0,0,1,.1,1,3.57,3.57,0,0,1-.1,1,1.4,1.4,0,0,1-.35.6.79.79,0,0,1-.19.17.91.91,0,0,1-.27.18,1.74,1.74,0,0,1-.79.18,1.8,1.8,0,0,1-.78-.18,1.6,1.6,0,0,1-.82-1A3.57,3.57,0,0,1,241,613.44Zm2.57,0a3.45,3.45,0,0,0,0-.65.71.71,0,0,0-.16-.34.6.6,0,0,0-.27-.22,1,1,0,0,0-.4-.08,1,1,0,0,0-.39.08.76.76,0,0,0-.28.22,1,1,0,0,0-.15.34,3.21,3.21,0,0,0-.05.64,3.1,3.1,0,0,0,.05.63,1.14,1.14,0,0,0,.15.36,1.7,1.7,0,0,0,.28.21.85.85,0,0,0,.39.08.87.87,0,0,0,.4-.08,1.05,1.05,0,0,0,.27-.21.83.83,0,0,0,.16-.36A3.22,3.22,0,0,0,243.56,613.45Z" class="ag"/><path d="M245.26,611.38h.84v.44h0a1.4,1.4,0,0,1,1.94-.18l-.6.72a.93.93,0,0,0-.55-.2.79.79,0,0,0-.8.86v2.49h-.84Z" class="ag"/><path d="M248.48,611.38h.83v.44h0a1.32,1.32,0,0,1,1.08-.49,1.48,1.48,0,0,1,.69.14,2.22,2.22,0,0,1,.47.4,1.62,1.62,0,0,1,1.31-.54,1.4,1.4,0,0,1,.93.36,1.35,1.35,0,0,1,.44,1.07v2.75h-.83v-2.46a.9.9,0,0,0-.23-.66.78.78,0,0,0-.58-.23.81.81,0,0,0-.59.23.86.86,0,0,0-.23.66v2.46H251v-2.46a.89.89,0,0,0-.22-.66.87.87,0,0,0-1.18,0,.86.86,0,0,0-.24.66v2.46h-.83Z" class="ag"/><path d="M257.55,615.14h0a.69.69,0,0,1-.36.31,1.67,1.67,0,0,1-.66.11,1.49,1.49,0,0,1-1.06-.37,1.12,1.12,0,0,1-.4-.9,1.21,1.21,0,0,1,.34-.86,1.42,1.42,0,0,1,1-.36h1.15v-.43c0-.36-.28-.54-.85-.53a1.59,1.59,0,0,0-.49.06.61.61,0,0,0-.29.26l-.66-.5a1.62,1.62,0,0,1,1.4-.6,2.17,2.17,0,0,1,1.24.29,1.2,1.2,0,0,1,.48,1.07v2.82h-.83Zm0-1.38h-1c-.48,0-.72.17-.71.49a.44.44,0,0,0,.18.36.88.88,0,0,0,.6.17,1.46,1.46,0,0,0,.73-.13c.13-.09.2-.28.2-.59Z" class="ag"/><path d="M259.5,610.12h.83v1.26h.61V612h-.61v2.41c0,.21.09.31.3.3h.31v.79h-.44a1,1,0,0,1-.71-.27.94.94,0,0,1-.29-.75V612h-.41v-.63h.41Z" class="ag"/><path d="M261.74,609.71h.83v.83h-.83Zm0,1.67h.83v4.13h-.83Z" class="ag"/><path d="M263.47,613.44a3.65,3.65,0,0,1,.1-1,1.48,1.48,0,0,1,.35-.58,1.51,1.51,0,0,1,.47-.37,2,2,0,0,1,1.57,0,1.46,1.46,0,0,1,.46.37,1.28,1.28,0,0,1,.35.58,3.65,3.65,0,0,1,.1,1,3.57,3.57,0,0,1-.1,1,1.4,1.4,0,0,1-.35.6,1,1,0,0,1-.19.17.91.91,0,0,1-.27.18,1.8,1.8,0,0,1-1.57,0,1.6,1.6,0,0,1-.82-1A3.57,3.57,0,0,1,263.47,613.44Zm2.57,0a3.45,3.45,0,0,0,0-.65.82.82,0,0,0-.16-.34.6.6,0,0,0-.27-.22,1,1,0,0,0-.4-.08,1,1,0,0,0-.39.08.76.76,0,0,0-.28.22,1,1,0,0,0-.15.34,2.6,2.6,0,0,0-.05.64,2.51,2.51,0,0,0,.05.63,1.14,1.14,0,0,0,.15.36,1.7,1.7,0,0,0,.28.21.85.85,0,0,0,.39.08.87.87,0,0,0,.4-.08,1.05,1.05,0,0,0,.27-.21,1,1,0,0,0,.16-.36A3.22,3.22,0,0,0,266,613.45Z" class="ag"/><path d="M267.74,611.38h.83v.44h0a1.31,1.31,0,0,1,1.07-.49,1.4,1.4,0,0,1,.94.36,1.38,1.38,0,0,1,.44,1.07v2.75h-.83v-2.46a.86.86,0,0,0-.23-.66.78.78,0,0,0-.58-.23.81.81,0,0,0-.59.23.86.86,0,0,0-.24.66v2.46h-.83Z" class="ag"/><path d="M202.9,626.24a2,2,0,0,1-2.49.48,2,2,0,0,1-.68-.56,1.61,1.61,0,0,1-.33-.77,11.75,11.75,0,0,1,0-3.06,1.62,1.62,0,0,1,.33-.75,1.86,1.86,0,0,1,1.61-.79,2,2,0,0,1,.86.19,3.73,3.73,0,0,1,.7.52v-3.06h1.21v8.44H202.9ZM201.71,622a1.18,1.18,0,0,0-.65.15.89.89,0,0,0-.37.42,2.31,2.31,0,0,0-.14.59c0,.23,0,.47,0,.71s0,.45,0,.66a2.35,2.35,0,0,0,.14.62,1,1,0,0,0,.37.42,1.09,1.09,0,0,0,.65.17,1.14,1.14,0,0,0,.68-.18.82.82,0,0,0,.34-.44,2.18,2.18,0,0,0,.16-.61c0-.22,0-.43,0-.64s0-.46,0-.67a2.23,2.23,0,0,0-.16-.59.82.82,0,0,0-.34-.44A1.22,1.22,0,0,0,201.71,622Z" class="ag"/><path d="M206.37,624.33a1.37,1.37,0,0,0,1.44,1.48,1.78,1.78,0,0,0,1.31-.58l.88.74a2.87,2.87,0,0,1-2.17,1,3.28,3.28,0,0,1-.93-.14,2.2,2.2,0,0,1-.44-.21,1.88,1.88,0,0,1-.42-.27,2.37,2.37,0,0,1-.62-.94,3.71,3.71,0,0,1-.26-1.5,4.14,4.14,0,0,1,.23-1.48,2.52,2.52,0,0,1,.58-.95,2,2,0,0,1,.8-.51,2.43,2.43,0,0,1,.87-.16,2.51,2.51,0,0,1,1.74.68,2.47,2.47,0,0,1,.74,1.86v1Zm2.54-1a1.54,1.54,0,0,0-.38-1.06,1.33,1.33,0,0,0-1.78,0,1.65,1.65,0,0,0-.38,1.06Z" class="ag"/><path d="M211.23,623h3.57v1.21h-3.57Z" class="ag"/><path d="M219.59,626.24a2,2,0,0,1-2.53.46,2.31,2.31,0,0,1-.62-.49,2,2,0,0,1-.34-.72,7.93,7.93,0,0,1-.11-1.61,8.15,8.15,0,0,1,.11-1.64,1.88,1.88,0,0,1,.34-.71,2,2,0,0,1,.62-.51,2.1,2.1,0,0,1,2.53.48v-.63h1.21v5.86a2.54,2.54,0,0,1-.78,2,2.71,2.71,0,0,1-1.83.66,2.77,2.77,0,0,1-2.09-1l.94-.75a2,2,0,0,0,.53.37,1.51,1.51,0,0,0,.64.18,1.41,1.41,0,0,0,1-.35,1.28,1.28,0,0,0,.39-1Zm-2.39-2.36a6.44,6.44,0,0,0,.05,1,.92.92,0,0,0,.19.45,1,1,0,0,0,.37.29,1.11,1.11,0,0,0,1.18,0,1.09,1.09,0,0,0,.36-.29.93.93,0,0,0,.2-.45,6.88,6.88,0,0,0,0-1,7.4,7.4,0,0,0,0-1,.89.89,0,0,0-.2-.44,1.44,1.44,0,0,0-.36-.31,1.24,1.24,0,0,0-1.18,0,1.34,1.34,0,0,0-.37.31.88.88,0,0,0-.19.44A6.94,6.94,0,0,0,217.2,623.88Z" class="ag"/><path d="M223.27,624.33a1.37,1.37,0,0,0,1.44,1.48,1.78,1.78,0,0,0,1.31-.58l.88.74a2.87,2.87,0,0,1-2.17,1,3.21,3.21,0,0,1-.92-.14,2,2,0,0,1-.44-.21,2.2,2.2,0,0,1-.43-.27,2.37,2.37,0,0,1-.62-.94,3.71,3.71,0,0,1-.26-1.5,4.14,4.14,0,0,1,.23-1.48,2.52,2.52,0,0,1,.58-.95,2.1,2.1,0,0,1,.8-.51,2.53,2.53,0,0,1,2.61.52,2.44,2.44,0,0,1,.74,1.86v1Zm2.54-1a1.54,1.54,0,0,0-.38-1.06,1.33,1.33,0,0,0-1.78,0,1.65,1.65,0,0,0-.38,1.06Z" class="ag"/><path d="M228.29,620.87h1.21v.63h0a2,2,0,0,1,1.56-.71,2.07,2.07,0,0,1,1.37.53,2,2,0,0,1,.64,1.56v4h-1.21V623.3a1.3,1.3,0,0,0-.33-1,1.25,1.25,0,0,0-1.71,0,1.26,1.26,0,0,0-.34,1v3.58h-1.21Z" class="ag"/><path d="M234.72,619h1.21v1.83h.88v.92h-.88v3.5c0,.3.14.45.43.45h.45v1.14h-.63a1.45,1.45,0,0,1-1-.4,1.38,1.38,0,0,1-.42-1.09v-3.6h-.6v-.92h.6Z" class="ag"/><path d="M238,620.87h1.21v.63h0a2,2,0,0,1,1.56-.71,2,2,0,0,1,1.27.46l-.88,1a1.29,1.29,0,0,0-.8-.3,1.13,1.13,0,0,0-.79.3,1.19,1.19,0,0,0-.38,1v3.62H238Z" class="ag"/><path d="M242.6,618.44h1.21v1.21H242.6Zm0,2.43h1.21v6H242.6Z" class="ag"/><path d="M245.59,621.79H245v-.92h.6v-.8a1.56,1.56,0,0,1,.48-1.26,1.79,1.79,0,0,1,1.16-.37H248v1.14h-.68c-.37,0-.54.15-.53.49v.8H248v.92H246.8v5.09h-1.21Z" class="ag"/><path d="M247.84,620.87h1.27l1.43,4.21h0l1.42-4.21h1.28l-2.58,7.25a1.8,1.8,0,0,1-.69.94,2.1,2.1,0,0,1-1,.25h-.4v-1.14h.35a.9.9,0,0,0,.45-.13.76.76,0,0,0,.28-.39l.33-1Z" class="ag"/><path d="M252.91,625.67h1.21v1.21h-1.21Z" class="ag"/><path d="M255.42,623.87a5.42,5.42,0,0,1,.15-1.46,2.14,2.14,0,0,1,.5-.84,2.36,2.36,0,0,1,.7-.54,2.59,2.59,0,0,1,1.13-.24,2.69,2.69,0,0,1,1.15.24,2.2,2.2,0,0,1,.67.54,1.85,1.85,0,0,1,.51.84,6,6,0,0,1,.14,1.46,5.77,5.77,0,0,1-.14,1.44,2.13,2.13,0,0,1-.51.87,3.71,3.71,0,0,1-.28.26,1.44,1.44,0,0,1-.39.24,2.41,2.41,0,0,1-1.15.27,2.33,2.33,0,0,1-1.13-.27,2.47,2.47,0,0,1-.7-.5,2.51,2.51,0,0,1-.5-.87A5.26,5.26,0,0,1,255.42,623.87Zm3.74,0a6.78,6.78,0,0,0-.05-.94,1.11,1.11,0,0,0-.24-.5.93.93,0,0,0-.4-.32,1.26,1.26,0,0,0-.57-.12,1.32,1.32,0,0,0-.57.12,1.19,1.19,0,0,0-.41.32,1.34,1.34,0,0,0-.22.5,4.25,4.25,0,0,0-.07.93,4,4,0,0,0,.07.91,1.43,1.43,0,0,0,.22.52,1.47,1.47,0,0,0,.41.31,1.33,1.33,0,0,0,.57.13,1.26,1.26,0,0,0,.57-.13,1.09,1.09,0,0,0,.4-.31,1.19,1.19,0,0,0,.24-.52A6.22,6.22,0,0,0,259.16,623.88Z" class="ag"/><path d="M261.64,620.87h1.21v.63h0a2,2,0,0,1,2.83-.25l-.88,1a1.28,1.28,0,0,0-.79-.3,1.15,1.15,0,0,0-.8.3,1.22,1.22,0,0,0-.38,1v3.62h-1.21Z" class="ag"/><path d="M269.63,626.24a2,2,0,0,1-2.52.46,2.16,2.16,0,0,1-.62-.49,1.85,1.85,0,0,1-.34-.72,7.93,7.93,0,0,1-.11-1.61,8.15,8.15,0,0,1,.11-1.64,1.74,1.74,0,0,1,.34-.71,1.91,1.91,0,0,1,.62-.51,2,2,0,0,1,1-.23,2,2,0,0,1,1.55.71v-.63h1.21v5.86a2.48,2.48,0,0,1-.78,2,2.71,2.71,0,0,1-1.83.66,2.75,2.75,0,0,1-2.08-1l.94-.75a2,2,0,0,0,.53.37,1.47,1.47,0,0,0,.64.18,1.41,1.41,0,0,0,1-.35,1.24,1.24,0,0,0,.38-1Zm-2.38-2.36a5.27,5.27,0,0,0,.05,1,.84.84,0,0,0,.19.45,1,1,0,0,0,.37.29,1,1,0,0,0,.59.17,1,1,0,0,0,.59-.17,1.09,1.09,0,0,0,.36-.29.93.93,0,0,0,.2-.45c0-.18,0-.49,0-1s0-.79,0-1a.89.89,0,0,0-.2-.44,1.44,1.44,0,0,0-.36-.31,1.32,1.32,0,0,0-.59-.15,1.28,1.28,0,0,0-.59.15,1.34,1.34,0,0,0-.37.31.8.8,0,0,0-.19.44A5.66,5.66,0,0,0,267.25,623.88Z" class="ag"/></svg>