<svg xmlns="http://www.w3.org/2000/svg" viewBox="0 0 83 56.73"><title>camera</title><g id="Layer_2" data-name="Layer 2"><g id="Layer_1-2" data-name="Layer 1"><path d="M13.64,0H25.71a2,2,0,0,1,2,2V6.73a0,0,0,0,1,0,0h-16a0,0,0,0,1,0,0V2a2,2,0,0,1,2-2Z"/><circle cx="46" cy="31.73" r="24"/><path d="M15,31.73a30.94,30.94,0,0,1,12.68-25H12a12,12,0,0,0-12,12v26a12,12,0,0,0,12,12H27.68A30.94,30.94,0,0,1,15,31.73Z"/><path d="M71,6.73H64.32a31,31,0,0,1,0,50H71a12,12,0,0,0,12-12v-26A12,12,0,0,0,71,6.73Z"/></g></g></svg>