<svg xmlns="http://www.w3.org/2000/svg" viewBox="0 0 505.46 69.15"><defs><style>.cls-1{fill:#fff;}</style></defs><title>logo-white</title><g id="Layer_2" data-name="Layer 2"><g id="Layer_2-2" data-name="Layer 2"><path class="cls-1" d="M60.47,68.17H42.77a14.56,14.56,0,0,1-.2-2.17,15.92,15.92,0,0,1,.2-2.16l6.49-.69-6.1-17.7H17.21l-6.1,17.7,6.49.69A15.92,15.92,0,0,1,17.8,66a14.56,14.56,0,0,1-.2,2.17H.2A14.56,14.56,0,0,1,0,66a15.92,15.92,0,0,1,.2-2.16l5.6-.69C12.19,43.39,19.67,22.25,27.33,1.9h5.9C40.9,22.25,48.38,43.39,54.77,63.15l5.7.69a15.92,15.92,0,0,1,.2,2.16A14.56,14.56,0,0,1,60.47,68.17ZM31.17,10.65a14,14,0,0,1-.69-3.25h-.59a13.53,13.53,0,0,1-.69,3.25L18.78,40.93H41.59Z"/><path class="cls-1" d="M123.39,68.17h-17.7A16.08,16.08,0,0,1,105.5,66a17.67,17.67,0,0,1,.19-2.16l6.49-.69-6.09-17.7h-26L74,63.15l6.49.69a15.92,15.92,0,0,1,.2,2.16,14.56,14.56,0,0,1-.2,2.17H63.12a14.56,14.56,0,0,1-.2-2.17,15.92,15.92,0,0,1,.2-2.16l5.6-.69c6.4-19.76,13.87-40.9,21.54-61.25h5.9c7.67,20.35,15.14,41.49,21.53,61.25l5.7.69a15.92,15.92,0,0,1,.2,2.16A14.56,14.56,0,0,1,123.39,68.17ZM94.09,10.65A14,14,0,0,1,93.4,7.4h-.59a13.49,13.49,0,0,1-.68,3.25L81.7,40.93h22.81Z"/><path class="cls-1" d="M178.36,65.32c0,2.35-1.38,3.83-4.23,3.83-3.83,0-6.69-1.57-9.83-7.47l-12-22.42H140.21V63.15l7,.69a15.92,15.92,0,0,1,.2,2.16,14.56,14.56,0,0,1-.2,2.17H127.52a16.08,16.08,0,0,1-.19-2.17,17.67,17.67,0,0,1,.19-2.16l7.18-.69V6.91l-7.18-.69a16.07,16.07,0,0,1-.19-2.16,17.33,17.33,0,0,1,.19-2.16c7.57-.3,18.39-.5,23.21-.5,12.49,0,21.92,4.23,21.92,18.29,0,9.54-5.7,16.82-14.84,18.59L169.71,60c1.67,3,3.24,3.73,6.19,3.73h2.46ZM150.73,6.22c-3,0-7.47.1-10.52.2v28h10.42c10.91,0,16.22-4.92,16.22-14.75C166.85,9.37,161.05,6.22,150.73,6.22Z"/><path class="cls-1" d="M213.76,68.66c-8.46,0-19.37-.2-27.34-.49a14.56,14.56,0,0,1-.2-2.17,15.92,15.92,0,0,1,.2-2.16l7.18-.69V6.91l-7.18-.69a14.55,14.55,0,0,1-.2-2.16,15.63,15.63,0,0,1,.2-2.16c6.69-.3,18.78-.5,27.24-.5,16.71,0,28.51,9.25,28.51,32.25C242.17,57.84,230.08,68.66,213.76,68.66Zm-.4-62.44c-4.42,0-8.75.1-14.16.3v57c4.43.19,9.64.29,14.06.29,14.85,0,22.91-9.93,22.91-29.4C236.17,10.84,224.08,6.22,213.36,6.22Z"/><path class="cls-1" d="M305.2,6.22l-5.61.69C293.4,26.77,286.32,47.81,279,68.17h-5.9c-7.27-20.36-14.35-41.4-20.55-61.26l-5.7-.69a14.59,14.59,0,0,1-.19-2.16,15.61,15.61,0,0,1,.19-2.16h17.8a15.63,15.63,0,0,1,.2,2.16,14.55,14.55,0,0,1-.2,2.16l-6.49.69,17,52.21a14.73,14.73,0,0,1,.69,3.34h.59a14.21,14.21,0,0,1,.69-3.34l17-52.21-6.49-.69a14.55,14.55,0,0,1-.2-2.16,15.63,15.63,0,0,1,.2-2.16h17.5a15.63,15.63,0,0,1,.2,2.16A14.42,14.42,0,0,1,305.2,6.22Z"/><path class="cls-1" d="M361.74,68.17H344a14.56,14.56,0,0,1-.2-2.17,15.92,15.92,0,0,1,.2-2.16l6.49-.69-6.1-17.7h-26l-6.09,17.7,6.49.69a17.67,17.67,0,0,1,.19,2.16,16.08,16.08,0,0,1-.19,2.17H301.46a14.6,14.6,0,0,1-.19-2.17,15.89,15.89,0,0,1,.19-2.16l5.61-.69c6.39-19.76,13.86-40.9,21.53-61.25h5.9c7.67,20.35,15.14,41.49,21.53,61.25l5.71.69a17.67,17.67,0,0,1,.19,2.16A16.08,16.08,0,0,1,361.74,68.17ZM332.43,10.65a13.49,13.49,0,0,1-.68-3.25h-.59a14,14,0,0,1-.69,3.25L320.05,40.93h22.81Z"/><path class="cls-1" d="M416.7,65.32c0,2.35-1.38,3.83-4.23,3.83-3.83,0-6.68-1.57-9.83-7.47l-12-22.42H378.55V63.15l7,.69a15.92,15.92,0,0,1,.2,2.16,14.56,14.56,0,0,1-.2,2.17H365.87a14.56,14.56,0,0,1-.2-2.17,15.92,15.92,0,0,1,.2-2.16l7.17-.69V6.91l-7.17-.69a14.55,14.55,0,0,1-.2-2.16,15.63,15.63,0,0,1,.2-2.16c7.57-.3,18.38-.5,23.2-.5C401.56,1.4,411,5.63,411,19.69c0,9.54-5.71,16.82-14.85,18.59L408.05,60c1.67,3,3.24,3.73,6.19,3.73h2.46ZM389.07,6.22c-3.05,0-7.47.1-10.52.2v28H389c10.92,0,16.23-4.92,16.23-14.75C405.2,9.37,399.39,6.22,389.07,6.22Z"/><path class="cls-1" d="M469.8,64.92c-4.82,3-11.8,4.23-17.7,4.23-18.49,0-27.73-11.8-27.73-34.22,0-23.69,11-34,28.12-34,5.51,0,12.49,1,16.72,3.25V16.35a16,16,0,0,1-2.26.2,16,16,0,0,1-2.27-.2L463.6,7.89c-2.16-1.08-6.88-2-11.21-2-14.55,0-22,7.37-22,29,0,19.77,6.49,29.21,21.63,29.21,4.13,0,9.34-.79,12.19-2.07l1.08-7.87a13.6,13.6,0,0,1,4.53,0Z"/><path class="cls-1" d="M505.46,11.63a11.43,11.43,0,1,1-22.85,0,11.43,11.43,0,1,1,22.85,0Zm-21,.12c0,5.62,4.15,10,9.59,10s9.48-4.42,9.48-10.16-4.15-10.08-9.48-10.08S484.5,6,484.5,11.75Zm14.2-4.42A8.09,8.09,0,0,0,495,6.46c-3.55,0-5.29,2.26-5.29,5.29a5,5,0,0,0,5.32,5.32,7.37,7.37,0,0,0,3.82-1l.45,1.43a8.58,8.58,0,0,1-4.64,1.17,6.53,6.53,0,0,1-6.92-6.83,7,7,0,0,1,7.22-7,7.48,7.48,0,0,1,4.15,1Z"/></g></g></svg>