<svg xmlns="http://www.w3.org/2000/svg" viewBox="0 0 100 100"><defs><style>.cls-1{fill:#efefef;}</style></defs><title>github</title><g id="Layer_4" data-name="Layer 4"><path class="cls-1" d="M61.59,84.51V77.68a10.8,10.8,0,0,0-3-7.56c1.56-.28,3.11-.54,4.61-.84a23,23,0,0,0,8.38-3.38,16.55,16.55,0,0,0,6.46-8.38,27.72,27.72,0,0,0,1.28-14,16.68,16.68,0,0,0-4-8.25,1,1,0,0,1-.26-1.15,17.42,17.42,0,0,0-.49-11.27c-.16-.45-.44-.49-.83-.51A14.88,14.88,0,0,0,67.26,24a32.43,32.43,0,0,0-5,2.86,1.25,1.25,0,0,1-1.14.18,44.1,44.1,0,0,0-16.38-1.07A31.84,31.84,0,0,0,39.14,27a1.53,1.53,0,0,1-1.43-.25,29,29,0,0,0-8.36-4,11.08,11.08,0,0,0-3.14-.39.74.74,0,0,0-.8.56A17.12,17.12,0,0,0,25,34.29a.62.62,0,0,1-.13.74,18.89,18.89,0,0,0-4.4,14.47,27.3,27.3,0,0,0,2.14,9.29,17.94,17.94,0,0,0,11.68,9.77A38.9,38.9,0,0,0,41.51,70a9.89,9.89,0,0,0-2.84,5.81.58.58,0,0,1-.39.52,10.63,10.63,0,0,1-9,.13,9.68,9.68,0,0,1-4-3.83,10.51,10.51,0,0,0-5.22-4.58,5.94,5.94,0,0,0-3.12-.36,1,1,0,0,0-1.06.67c-.15.5.19.74.46,1a6.48,6.48,0,0,0,1.06.9,12.92,12.92,0,0,1,5.24,6.61,9.93,9.93,0,0,0,8.16,6.18,19,19,0,0,0,7.09-.14c.41,0,.54,0,.54.4v7.94a2.32,2.32,0,0,1-2.07,2.54,2.37,2.37,0,0,1-1.18-.18,44.33,44.33,0,0,1-14.66-8.08A46,46,0,0,1,5.16,61.63a46.07,46.07,0,0,1,7.69-40.09A45.82,45.82,0,0,1,40.6,4a44.27,44.27,0,0,1,11.87-1,45.6,45.6,0,0,1,26.31,10,46,46,0,0,1,16.16,24.6,44.84,44.84,0,0,1,1.45,14.86,45.75,45.75,0,0,1-11.28,27.4,46.09,46.09,0,0,1-20,13.5c-1.86.65-3.14,0-3.55-1.65C61.69,89.38,61.69,87,61.59,84.51Z"/><path class="cls-1" d="M37,79.22c-.35-.11-.85-.13-.82-.63s.6-.76,1.14-.78.85.18.79.63A1,1,0,0,1,37,79.22Z"/><path class="cls-1" d="M33.66,79.65c-.45,0-1-.17-1-.69s.45-.71,1-.71,1,0,1,.69S34.08,79.56,33.66,79.65Z"/><path class="cls-1" d="M27.49,76.71a.57.57,0,0,1-.52.62c-.34,0-1.21-.65-1.19-1.12a.52.52,0,0,1,.48-.56h.1A1.22,1.22,0,0,1,27.49,76.71Z"/><path class="cls-1" d="M30,79.07a1,1,0,0,1-1.08-.83c-.08-.6.33-.58.74-.6s1.28.45,1.21.86S30.46,79.07,30,79.07Z"/><path class="cls-1" d="M25.06,74.06c0,.31-.1.59-.47.55a1,1,0,0,1-1-1,.46.46,0,0,1,.3-.58.53.53,0,0,1,.22,0C24.76,73.05,25,73.48,25.06,74.06Z"/><path class="cls-1" d="M23.16,71.46c0,.35-.13.55-.41.52a.89.89,0,0,1-.89-.9c0-.31.13-.48.47-.44A.93.93,0,0,1,23.16,71.46Z"/><path class="cls-1" d="M20.39,69c.32.13.73.18.76.63a.36.36,0,0,1-.3.42h-.1a.79.79,0,0,1-.84-.64C19.87,69.15,20.15,69,20.39,69Z"/></g></svg>