<svg xmlns="http://www.w3.org/2000/svg" xmlns:xlink="http://www.w3.org/1999/xlink" id="Layer_1" data-name="Layer 1" viewBox="0 0 92 30"><defs><style>.cls-1{fill:none}.cls-2{fill:#8cc63f}.cls-3{fill:#fff}.cls-4{opacity:.21}.cls-5{clip-path:url(#clip-path)}.cls-6{fill:#29abe2}.cls-7{fill:#0071bc}</style><clipPath id="clip-path"><rect width="72" height="16" x="10" y="-37" class="cls-1"/></clipPath></defs><title>finished</title><rect width="72" height="16" x="10" y="7" class="cls-2"/><path d="M24.22,11h1.6v8.52h-1.6Zm.58,0h5v1.55h-5Zm0,3.59h4.37v1.55H24.8Z" class="cls-3"/><path d="M30.9,11h1.6v1.61H30.9Zm0,2.44h1.6v6.08H30.9Z" class="cls-3"/><path d="M34,13.44h1.6v6.08H34Zm3.51,2.4a.94.94,0,0,0-.25-.7,1,1,0,0,0-.73-.24.89.89,0,0,0-.68.25.92.92,0,0,0-.25.7l-.12-1.35a2.21,2.21,0,0,1,.66-.86,1.56,1.56,0,0,1,1-.29,1.82,1.82,0,0,1,1.49.65,2.83,2.83,0,0,1,.53,1.83v3.69H37.51Z" class="cls-3"/><path d="M40.61,11h1.61v1.61H40.61Zm0,2.44h1.61v6.08H40.61Z" class="cls-3"/><path d="M45.49,19.61l-.51-.1a4.76,4.76,0,0,1-1-.28,4.07,4.07,0,0,1-.8-.45l1-1.24a3.84,3.84,0,0,0,.92.43,2.83,2.83,0,0,0,.92.16,2.28,2.28,0,0,0,.87-.13c.21-.08.31-.2.31-.35a.37.37,0,0,0-.13-.31.86.86,0,0,0-.35-.15c-.14,0-.34-.05-.59-.08l-.21,0-.22,0h-.1a6.2,6.2,0,0,1-1.09-.21,1.39,1.39,0,0,1-.7-.5,1.7,1.7,0,0,1-.28-1.06,1.72,1.72,0,0,1,1.14-1.7A3.59,3.59,0,0,1,46,13.35a4.12,4.12,0,0,1,.92.1,5,5,0,0,1,.88.26,4.2,4.2,0,0,1,.78.43l-.95,1.16a3.79,3.79,0,0,0-.84-.34,3,3,0,0,0-.83-.13,1.89,1.89,0,0,0-.75.12c-.18.07-.27.17-.27.31a.25.25,0,0,0,.14.23,1.17,1.17,0,0,0,.36.13l.62.08h.32a6.29,6.29,0,0,1,1.15.21,1.5,1.5,0,0,1,.76.51,1.78,1.78,0,0,1,.32,1.14,1.81,1.81,0,0,1-1.2,1.77,3.71,3.71,0,0,1-1.41.24Z" class="cls-3"/><path d="M49.93,11h1.61v8.52H49.93Zm3.52,4.84a.94.94,0,0,0-.25-.7,1,1,0,0,0-.73-.24.91.91,0,0,0-.69.25,1,1,0,0,0-.24.7l-.12-1.35a2.21,2.21,0,0,1,.66-.86,1.54,1.54,0,0,1,1-.29,1.82,1.82,0,0,1,1.49.65,2.83,2.83,0,0,1,.53,1.83v3.69H53.45Z" class="cls-3"/><path d="M58.37,19.61l-.63-.32a2.19,2.19,0,0,1-1-.93,3.08,3.08,0,0,1-.33-1.48V16.2a3.44,3.44,0,0,1,.32-1.54,2.09,2.09,0,0,1,.91-1,2.85,2.85,0,0,1,1.45-.34,2.26,2.26,0,0,1,1.36.4,2.48,2.48,0,0,1,.87,1.16,4.94,4.94,0,0,1,.3,1.83v.4H57.5V16.05h2.7l0-.14a1.37,1.37,0,0,0-.33-.81.93.93,0,0,0-.71-.29,1.16,1.16,0,0,0-.9.35,1.38,1.38,0,0,0-.32,1v.78a1.3,1.3,0,0,0,.35,1,1.33,1.33,0,0,0,1,.34,2,2,0,0,0,.63-.11,2.08,2.08,0,0,0,.58-.33l1,.93a3.63,3.63,0,0,1-1.07.67,3.12,3.12,0,0,1-1.19.24Z" class="cls-3"/><path d="M63.84,19.3a1.93,1.93,0,0,1-.7-.9A3.77,3.77,0,0,1,62.9,17V16a3.88,3.88,0,0,1,.24-1.44,1.91,1.91,0,0,1,.7-.91,2,2,0,0,1,1.1-.31,1.53,1.53,0,0,1,.89.29,2.16,2.16,0,0,1,.65.82l-.13,1.35a1.18,1.18,0,0,0-.1-.52.71.71,0,0,0-.31-.33,1,1,0,0,0-.49-.12.84.84,0,0,0-.7.31,1.3,1.3,0,0,0-.25.86v1a1.26,1.26,0,0,0,.25.84.87.87,0,0,0,.7.3,1.07,1.07,0,0,0,.49-.11.74.74,0,0,0,.31-.32,1.13,1.13,0,0,0,.1-.51l.08,1.39a1.51,1.51,0,0,1-1.49,1A1.87,1.87,0,0,1,63.84,19.3ZM66.35,11H68v8.52H66.35Z" class="cls-3"/><g class="cls-4"><g class="cls-5"><rect width="5" height="133" x="-17.73" y="-122.37" class="cls-6" transform="translate(-14.89 2.04) rotate(14.91)"/><rect width="5" height="133" x="-12.9" y="-121.08" class="cls-7" transform="translate(-14.4 0.84) rotate(14.91)"/><rect width="5" height="133" x="-8.06" y="-119.8" class="cls-6" transform="translate(-13.9 -0.36) rotate(14.91)"/><rect width="5" height="133" x="-3.23" y="-118.51" class="cls-7" transform="translate(-13.41 -1.56) rotate(14.91)"/><rect width="5" height="133" x="1.6" y="-117.22" class="cls-6" transform="translate(-12.91 -2.76) rotate(14.91)"/><rect width="5" height="133" x="6.43" y="-115.94" class="cls-7" transform="translate(-12.42 -3.96) rotate(14.91)"/><rect width="5" height="133" x="11.26" y="-114.65" class="cls-6" transform="translate(-11.93 -5.16) rotate(14.91)"/><rect width="5" height="133" x="16.09" y="-113.36" class="cls-7" transform="translate(-11.43 -6.36) rotate(14.91)"/><rect width="5" height="133" x="20.93" y="-112.08" class="cls-6" transform="translate(-10.94 -7.56) rotate(14.91)"/><rect width="5" height="133" x="25.76" y="-110.79" class="cls-7" transform="translate(-10.45 -8.76) rotate(14.91)"/><rect width="5" height="133" x="30.59" y="-109.5" class="cls-6" transform="translate(-9.95 -9.96) rotate(14.91)"/><rect width="5" height="133" x="35.42" y="-108.22" class="cls-7" transform="translate(-9.46 -11.16) rotate(14.91)"/><rect width="5" height="133" x="40.25" y="-106.93" class="cls-6" transform="translate(-8.96 -12.36) rotate(14.91)"/><rect width="5" height="133" x="45.08" y="-105.64" class="cls-7" transform="translate(-8.47 -13.56) rotate(14.91)"/><rect width="5" height="133" x="49.92" y="-104.36" class="cls-6" transform="translate(-7.98 -14.76) rotate(14.91)"/><rect width="5" height="133" x="54.75" y="-103.07" class="cls-7" transform="translate(-7.48 -15.96) rotate(14.91)"/><rect width="5" height="133" x="59.58" y="-101.78" class="cls-6" transform="translate(-6.99 -17.16) rotate(14.91)"/><rect width="5" height="133" x="64.41" y="-100.5" class="cls-7" transform="translate(-6.5 -18.36) rotate(14.91)"/><rect width="5" height="133" x="69.24" y="-99.21" class="cls-6" transform="translate(-6 -19.56) rotate(14.91)"/><rect width="5" height="133" x="74.07" y="-97.92" class="cls-7" transform="translate(-5.51 -20.76) rotate(14.91)"/><rect width="5" height="133" x="78.91" y="-96.64" class="cls-6" transform="translate(-5.01 -21.96) rotate(14.91)"/><rect width="5" height="133" x="83.74" y="-95.35" class="cls-7" transform="translate(-4.52 -23.16) rotate(14.91)"/><rect width="5" height="133" x="88.57" y="-94.06" class="cls-6" transform="translate(-4.03 -24.36) rotate(14.91)"/><rect width="5" height="133" x="93.4" y="-92.78" class="cls-7" transform="translate(-3.53 -25.56) rotate(14.91)"/><rect width="5" height="133" x="98.23" y="-91.49" class="cls-6" transform="translate(-3.04 -26.76) rotate(14.91)"/><rect width="5" height="133" x="103.06" y="-90.2" class="cls-7" transform="translate(-2.54 -27.96) rotate(14.91)"/><rect width="5" height="133" x="107.9" y="-88.92" class="cls-6" transform="translate(-2.05 -29.16) rotate(14.91)"/></g></g></svg>