<svg xmlns="http://www.w3.org/2000/svg" viewBox="0 0 1024 739.01"><defs><style>.cls-1{fill:#fff;}.cls-2,.cls-8{fill:none;stroke:#000;stroke-linejoin:round;}.cls-2{stroke-width:6px;fill-rule:evenodd;}.cls-3{fill:lime;}.cls-4{fill:#fbb03b;}.cls-5{fill:#ff1d25;}.cls-6{fill:#333;}.cls-7{fill:gray;}.cls-8{stroke-width:3px;}</style></defs><title>game-minecraft</title><g id="game"><rect class="cls-1" x="71" y="49.86" width="507" height="370"/><path d="M575,52.86v364H74v-364H575m6-6H68v376H581v-376Z"/><polygon class="cls-2" points="332 307.86 267 277.86 267 194.86 332 224.86 332 307.86"/><polygon class="cls-2" points="332 307.86 397 277.86 397 194.86 332 224.86 332 307.86"/><polyline class="cls-2" points="266.93 194.84 331.93 164.84 396.94 194.84"/><circle class="cls-3" cx="516.98" cy="65.33" r="8.64"/><circle class="cls-4" cx="539.17" cy="65.33" r="8.64"/><circle class="cls-5" cx="561.36" cy="65.33" r="8.64"/><path d="M96.38,71.19,96.05,63h0c-.08.49-.15,1-.21,1.42s-.15.94-.24,1.42l-1,5.33H91.71L90.49,63h0c0,.49,0,1,0,1.45s0,1,0,1.43l-.3,5.29H86.34l1.52-13h4.37l1,6.91h0l.15-1.21c0-.4.11-.8.19-1.2l.84-4.5h4.33l1.25,13Z"/><path d="M102.91,61.22a2,2,0,0,1-.77-.16,2.17,2.17,0,0,1-.63-.42,2.13,2.13,0,0,1-.43-.63,2,2,0,0,1-.15-.78,1.93,1.93,0,0,1,.15-.75,2.31,2.31,0,0,1,.42-.63,1.93,1.93,0,0,1,.63-.42,1.7,1.7,0,0,1,.74-.16,2,2,0,0,1,.78.15,1.91,1.91,0,0,1,.63.41,2.22,2.22,0,0,1,.43.62,1.8,1.8,0,0,1,.16.77,2,2,0,0,1-.15.77,2.1,2.1,0,0,1-.42.63,2,2,0,0,1-.62.43A1.84,1.84,0,0,1,102.91,61.22Zm-1.71,10v-9.1h3.38v9.1Z"/><path d="M109.69,63.78l0,0a2.89,2.89,0,0,1,.34-.71,3.1,3.1,0,0,1,.53-.61,2.48,2.48,0,0,1,.67-.43,1.92,1.92,0,0,1,.78-.17,2.32,2.32,0,0,1,1.2.29,2.24,2.24,0,0,1,.75.75,3.2,3.2,0,0,1,.38,1.05,6.78,6.78,0,0,1,.1,1.2v6H111.1v-4.6a4.22,4.22,0,0,0-.09-1,.48.48,0,0,0-.52-.37.65.65,0,0,0-.39.11.68.68,0,0,0-.22.32,2.18,2.18,0,0,0-.08.49,6.22,6.22,0,0,0,0,.63v4.38H106.4v-9.1h3.38Z"/><path d="M124.12,68.1a3.76,3.76,0,0,1-1.38,2.43,4.21,4.21,0,0,1-2.63.85,4.75,4.75,0,0,1-1.84-.34,3.45,3.45,0,0,1-1.32-1,4,4,0,0,1-.78-1.44,6.29,6.29,0,0,1-.26-1.84,6.09,6.09,0,0,1,.28-1.87,4.49,4.49,0,0,1,.81-1.55,4,4,0,0,1,1.35-1.08,4,4,0,0,1,1.85-.41,3.81,3.81,0,0,1,1.81.41,3.72,3.72,0,0,1,1.25,1.08,4.3,4.3,0,0,1,.82,1.88,12.63,12.63,0,0,1,.16,2.08h-5a3.61,3.61,0,0,0,0,.44,2.11,2.11,0,0,0,.1.45.9.9,0,0,0,.25.35.57.57,0,0,0,.42.15.71.71,0,0,0,.49-.18.83.83,0,0,0,.25-.46Zm-3.27-2.58a1.87,1.87,0,0,0,0-.4,1.49,1.49,0,0,0-.14-.37.81.81,0,0,0-.25-.27.59.59,0,0,0-.38-.11.55.55,0,0,0-.36.11.81.81,0,0,0-.24.28,1.21,1.21,0,0,0-.12.38,2.9,2.9,0,0,0,0,.38Z"/><path d="M130.27,71.31l-.46,0a3.19,3.19,0,0,1-.45,0,3.61,3.61,0,0,1-1.74-.41,3.9,3.9,0,0,1-1.28-1.07,4.7,4.7,0,0,1-.8-1.52,6.28,6.28,0,0,1-.26-1.78,5.37,5.37,0,0,1,.3-1.78,4.74,4.74,0,0,1,.86-1.5,4.18,4.18,0,0,1,1.35-1,4,4,0,0,1,1.78-.39h.35l.35,0v2.94a1.55,1.55,0,0,0-1.14.49,1.77,1.77,0,0,0-.37,1.18,2.34,2.34,0,0,0,.07.57,2.61,2.61,0,0,0,.24.54,1.49,1.49,0,0,0,.41.42,1,1,0,0,0,.57.16h.22Z"/><path d="M137.71,65.68l-.5-.23a1.19,1.19,0,0,0-.45-.1,1.3,1.3,0,0,0-.75.2,1.35,1.35,0,0,0-.43.52,2.51,2.51,0,0,0-.19.69c0,.25,0,.5,0,.74v3.69H132v-9.1h3.39l-.19,1.74,0,0a3.46,3.46,0,0,1,.92-1.42,2.13,2.13,0,0,1,1.58-.55Z"/><path d="M147.25,71.19h-3.37l.15-1.5,0,0a3.52,3.52,0,0,1-.92,1.23,2.11,2.11,0,0,1-1.41.5,2,2,0,0,1-1-.24,2.35,2.35,0,0,1-.75-.62,3.83,3.83,0,0,1-.51-.89,5.66,5.66,0,0,1-.32-1,8,8,0,0,1-.16-1.06c0-.35,0-.68,0-1a10.24,10.24,0,0,1,.12-1.48,5.74,5.74,0,0,1,.44-1.51,3.24,3.24,0,0,1,.87-1.18,2.1,2.1,0,0,1,1.43-.48,1.88,1.88,0,0,1,1.34.48,3.62,3.62,0,0,1,.85,1.14l0,0-.14-1.4h3.43Zm-4.2-2.6a.54.54,0,0,0,.49-.25,1.44,1.44,0,0,0,.23-.58,3.28,3.28,0,0,0,.1-.7c0-.23,0-.41,0-.54V66a3.18,3.18,0,0,0-.07-.62,1.63,1.63,0,0,0-.22-.52.48.48,0,0,0-.44-.22.51.51,0,0,0-.46.26,2,2,0,0,0-.24.65,3.65,3.65,0,0,0-.08.74c0,.25,0,.45,0,.6s0,.29,0,.48a3.6,3.6,0,0,0,.08.56,1.33,1.33,0,0,0,.21.43A.44.44,0,0,0,143.05,68.59Z"/><path d="M149.66,71.19V64.8h-1V62.09h1V61a4.68,4.68,0,0,1,.73-2.79,2.61,2.61,0,0,1,2.22-1,5.8,5.8,0,0,1,1.63.24v3.12a1.81,1.81,0,0,0-.33-.2.74.74,0,0,0-.36-.09.39.39,0,0,0-.44.35,5,5,0,0,0-.07,1v.42h1.2V64.8H153v6.39Z"/><path d="M156.45,71.19V64.8h-1V62.09h1V59.42h3.37v2.67h1.12V64.8h-1.12v6.39Z"/><path d="M170.65,71.19v-10h-1.39v-3h4.91v13Z"/><path d="M179.73,71.38a2,2,0,0,1-.78-.16,1.82,1.82,0,0,1-.62-.43,2.13,2.13,0,0,1-.41-.64,2,2,0,0,1-.16-.77,1.87,1.87,0,0,1,.16-.75,2,2,0,0,1,.41-.62,1.85,1.85,0,0,1,.61-.42,1.61,1.61,0,0,1,.72-.16,2.13,2.13,0,0,1,.79.15,1.89,1.89,0,0,1,.65.41,1.92,1.92,0,0,1,.44.64,1.94,1.94,0,0,1,.17.8,1.83,1.83,0,0,1-.16.77,1.74,1.74,0,0,1-.43.61,2.08,2.08,0,0,1-.63.41A1.91,1.91,0,0,1,179.73,71.38Z"/><path d="M186.25,71.19v-10h-1.39v-3h4.91v13Z"/><path d="M194,62.47a5,5,0,0,1,.31-1.8,4.35,4.35,0,0,1,.9-1.42,4.11,4.11,0,0,1,1.39-.94,4.68,4.68,0,0,1,1.79-.33,4.3,4.3,0,0,1,1.68.32,3.82,3.82,0,0,1,1.29.91,3.88,3.88,0,0,1,.83,1.35,4.59,4.59,0,0,1,.3,1.67,5.21,5.21,0,0,1-.3,1.76,7.6,7.6,0,0,1-.77,1.6A11.49,11.49,0,0,1,200.32,67a16.42,16.42,0,0,1-1.24,1.26l0,0,.88-.08a8.31,8.31,0,0,1,.87,0h1.45v3h-8.95l3.42-4.57c.24-.32.5-.66.76-1a12.1,12.1,0,0,0,.73-1.13,6.26,6.26,0,0,0,.55-1.21,3.57,3.57,0,0,0,.22-1.24,2.87,2.87,0,0,0,0-.39,1.35,1.35,0,0,0-.14-.37,1.12,1.12,0,0,0-.25-.28.68.68,0,0,0-.38-.11.62.62,0,0,0-.46.17,1.22,1.22,0,0,0-.25.43,2.71,2.71,0,0,0-.11.51,4.19,4.19,0,0,0,0,.48v.48H194Z"/><path d="M205.73,71.38a2.05,2.05,0,0,1-.78-.16,1.92,1.92,0,0,1-.62-.43,2.13,2.13,0,0,1-.41-.64,2,2,0,0,1-.15-.77,1.86,1.86,0,0,1,.15-.75,2,2,0,0,1,.41-.62,2,2,0,0,1,.61-.42,1.64,1.64,0,0,1,.72-.16,2.09,2.09,0,0,1,.79.15,1.94,1.94,0,0,1,.66.41,2.08,2.08,0,0,1,.44.64,1.94,1.94,0,0,1,.16.8,2,2,0,0,1-.15.77,1.9,1.9,0,0,1-.44.61,2.16,2.16,0,0,1-.62.41A2,2,0,0,1,205.73,71.38Z"/><path d="M209.59,62.47a4.8,4.8,0,0,1,.32-1.8,4.33,4.33,0,0,1,.89-1.42,4.22,4.22,0,0,1,1.39-.94A4.68,4.68,0,0,1,214,58a4.3,4.3,0,0,1,1.68.32,3.82,3.82,0,0,1,1.29.91,3.88,3.88,0,0,1,.83,1.35,4.59,4.59,0,0,1,.3,1.67,5.21,5.21,0,0,1-.3,1.76,7.6,7.6,0,0,1-.77,1.6A10.6,10.6,0,0,1,215.92,67a16.42,16.42,0,0,1-1.24,1.26l0,0,.88-.08a8.38,8.38,0,0,1,.88,0h1.44v3H209l3.42-4.57c.24-.32.5-.66.76-1a10.36,10.36,0,0,0,.73-1.13,6.26,6.26,0,0,0,.55-1.21,3.57,3.57,0,0,0,.22-1.24,2.87,2.87,0,0,0,0-.39,1.35,1.35,0,0,0-.14-.37,1,1,0,0,0-.25-.28.66.66,0,0,0-.38-.11.64.64,0,0,0-.46.17,1.22,1.22,0,0,0-.25.43A2.71,2.71,0,0,0,213,62a4.19,4.19,0,0,0,0,.48v.48h-3.4Z"/></g><g id="console"><rect class="cls-6" x="215.11" y="326.19" width="283.49" height="352.67"/><path d="M495.59,329.19V675.86H218.11V329.19H495.59m6-6H212.11V681.86H501.59V323.19Z"/><rect class="cls-7" x="228.83" y="365.52" width="259.67" height="15.33"/><rect class="cls-7" x="228.83" y="389.52" width="259.67" height="15.33"/><circle class="cls-3" cx="437.19" cy="344.15" r="8.64"/><circle class="cls-4" cx="459.38" cy="344.15" r="8.64"/><circle class="cls-5" cx="481.57" cy="344.15" r="8.64"/><path class="cls-1" d="M229.54,345.63a2.87,2.87,0,0,0,.42.53,4.78,4.78,0,0,0,.54.47,2.66,2.66,0,0,0,.6.32,1.84,1.84,0,0,0,.66.12,1.32,1.32,0,0,0,.7-.21.72.72,0,0,0,.33-.65,1.22,1.22,0,0,0-.06-.41,1.06,1.06,0,0,0-.21-.31,2.23,2.23,0,0,0-.27-.26c-.1-.08-.2-.16-.32-.24-.34-.26-.66-.53-1-.79a5.8,5.8,0,0,1-.79-.86,3.77,3.77,0,0,1-.51-1,3.83,3.83,0,0,1-.19-1.28,4.79,4.79,0,0,1,.2-1.3,4.27,4.27,0,0,1,.66-1.4,4,4,0,0,1,1.22-1.11,3.64,3.64,0,0,1,1.88-.46,4.89,4.89,0,0,1,1.29.18,5.65,5.65,0,0,1,1.21.48v3.94a5.21,5.21,0,0,0-.39-.49,3.51,3.51,0,0,0-.5-.45,2.68,2.68,0,0,0-.57-.32,1.46,1.46,0,0,0-.61-.13,1.11,1.11,0,0,0-.61.2.68.68,0,0,0-.3.59.76.76,0,0,0,.1.39,2,2,0,0,0,.24.33,1.78,1.78,0,0,0,.32.29,3,3,0,0,1,.32.25c.37.26.7.52,1,.76a4,4,0,0,1,.73.82,3.54,3.54,0,0,1,.47,1,4.36,4.36,0,0,1,.17,1.28,4.69,4.69,0,0,1-.3,1.69,4.51,4.51,0,0,1-.85,1.38,3.73,3.73,0,0,1-1.31.93,4.2,4.2,0,0,1-1.68.34,6.69,6.69,0,0,1-2.63-.54Z"/><path class="cls-1" d="M241.16,342.17l0,0a2.86,2.86,0,0,1,.78-1.07,1.94,1.94,0,0,1,1.27-.41,2.15,2.15,0,0,1,1.43.48,3.44,3.44,0,0,1,.92,1.2,6,6,0,0,1,.47,1.54,9.54,9.54,0,0,1,.14,1.52,10.48,10.48,0,0,1-.12,1.49,5.84,5.84,0,0,1-.44,1.54,3.44,3.44,0,0,1-.87,1.21,2.05,2.05,0,0,1-1.43.49,2,2,0,0,1-1.28-.4,3.29,3.29,0,0,1-.87-1l0,0c0,.28.05.57.06.84s0,.56,0,.84v3.59h-3.38V340.91h3.38Zm.74,5.18a.52.52,0,0,0,.45-.22,1.37,1.37,0,0,0,.25-.56,3.59,3.59,0,0,0,.1-.68c0-.23,0-.43,0-.59s0-.35,0-.56a4.72,4.72,0,0,0-.12-.59,1.32,1.32,0,0,0-.25-.47.54.54,0,0,0-.81,0,1.38,1.38,0,0,0-.24.47,3.68,3.68,0,0,0-.11.61c0,.22,0,.42,0,.62s0,.44,0,.67a3.16,3.16,0,0,0,.11.64,1.19,1.19,0,0,0,.23.48A.47.47,0,0,0,241.9,347.35Z"/><path class="cls-1" d="M249.34,340a1.91,1.91,0,0,1-.76-.15,2.13,2.13,0,0,1-.63-.43,1.69,1.69,0,0,1-.43-.62,1.88,1.88,0,0,1-.16-.78,1.82,1.82,0,0,1,.16-.76,1.93,1.93,0,0,1,.42-.63,2.26,2.26,0,0,1,.62-.42,1.86,1.86,0,0,1,.75-.15,2.19,2.19,0,0,1,.77.14,1.93,1.93,0,0,1,.63.42,2,2,0,0,1,.43.62,1.76,1.76,0,0,1,.17.76,2,2,0,0,1-.16.78,2.08,2.08,0,0,1-.41.63,2,2,0,0,1-.62.43A1.85,1.85,0,0,1,249.34,340Zm-1.7,10v-9.09H251V350Z"/><path class="cls-1" d="M260.79,350.05a4.37,4.37,0,0,1-1,3.16,4.23,4.23,0,0,1-3.16,1.05,5.8,5.8,0,0,1-1.54-.19,3.33,3.33,0,0,1-1.23-.58,3.22,3.22,0,0,1-.86-1,4,4,0,0,1-.42-1.49H256a.8.8,0,0,0,.19.51.64.64,0,0,0,.5.23.55.55,0,0,0,.59-.42,4.18,4.18,0,0,0,.12-1.13V349h0a2,2,0,0,1-.8.84,2.33,2.33,0,0,1-2.6-.14,3.65,3.65,0,0,1-.92-1.17,5.44,5.44,0,0,1-.48-1.51,9.07,9.07,0,0,1-.14-1.48,8.08,8.08,0,0,1,.26-2,7.35,7.35,0,0,1,.35-1,3.8,3.8,0,0,1,.55-.89,2.62,2.62,0,0,1,.75-.62,2.14,2.14,0,0,1,1-.23,1.82,1.82,0,0,1,1.21.4,4.4,4.4,0,0,1,.82,1l0,0-.07-1.15h3.44Zm-4.08-2.7a.54.54,0,0,0,.42-.18,1.17,1.17,0,0,0,.23-.46,3.5,3.5,0,0,0,.1-.62c0-.23,0-.45,0-.67s0-.47,0-.71a3.83,3.83,0,0,0-.1-.62,1.1,1.1,0,0,0-.23-.46.57.57,0,0,0-.42-.17.53.53,0,0,0-.41.16,1.23,1.23,0,0,0-.24.44,2.28,2.28,0,0,0-.11.61c0,.23,0,.46,0,.7a4.93,4.93,0,0,0,0,.65,3.26,3.26,0,0,0,.12.65,1.18,1.18,0,0,0,.24.49A.47.47,0,0,0,256.71,347.35Z"/><path class="cls-1" d="M266.46,340.72a4.46,4.46,0,0,1,1.89.38,3.75,3.75,0,0,1,1.32,1,4.38,4.38,0,0,1,.78,1.52,6.68,6.68,0,0,1,0,3.62,4.43,4.43,0,0,1-.78,1.51,3.64,3.64,0,0,1-1.32,1,4.89,4.89,0,0,1-3.78,0,3.64,3.64,0,0,1-1.32-1,4.43,4.43,0,0,1-.78-1.51,6.68,6.68,0,0,1,0-3.62,4.38,4.38,0,0,1,.78-1.52,3.75,3.75,0,0,1,1.32-1A4.46,4.46,0,0,1,266.46,340.72Zm0,2.53a.59.59,0,0,0-.49.22,1.53,1.53,0,0,0-.28.54,5,5,0,0,0-.13.71c0,.26,0,.51,0,.74s0,.47,0,.73a4.73,4.73,0,0,0,.13.71,1.53,1.53,0,0,0,.28.54.66.66,0,0,0,1,0,1.53,1.53,0,0,0,.28-.54,3.75,3.75,0,0,0,.12-.71,6.29,6.29,0,0,0,0-.73,6.46,6.46,0,0,0,0-.74,3.9,3.9,0,0,0-.12-.71,1.53,1.53,0,0,0-.28-.54A.59.59,0,0,0,266.46,343.25Z"/><path class="cls-1" d="M272.9,350v-6.39h-1v-2.7h1v-2.67h3.37v2.67h1.12v2.7h-1.12V350Z"/><path class="cls-1" d="M278.63,345.89V343.1h4.22v2.79Z"/><path class="cls-1" d="M287.43,350V340H286v-3H291v13Z"/><path class="cls-1" d="M296.51,350.19a2,2,0,0,1-.78-.15,2.09,2.09,0,0,1-.62-.43,2.26,2.26,0,0,1-.41-.64,2,2,0,0,1-.15-.78,1.93,1.93,0,0,1,.15-.75,2.16,2.16,0,0,1,.41-.62,2.37,2.37,0,0,1,.61-.42,1.79,1.79,0,0,1,.72-.15,2.3,2.3,0,0,1,.79.14,2.06,2.06,0,0,1,.66.42,1.94,1.94,0,0,1,.6,1.43,1.77,1.77,0,0,1-.16.77,1.65,1.65,0,0,1-.43.61,2.31,2.31,0,0,1-.63.42A1.91,1.91,0,0,1,296.51,350.19Z"/><path class="cls-1" d="M303,350V340h-1.39v-3h4.91v13Z"/><path class="cls-1" d="M310.77,341.29a4.93,4.93,0,0,1,.31-1.8,4.41,4.41,0,0,1,.9-1.42,4,4,0,0,1,1.39-.94,4.68,4.68,0,0,1,1.79-.34,4.13,4.13,0,0,1,1.68.33,3.82,3.82,0,0,1,1.29.91,3.88,3.88,0,0,1,.83,1.35,4.55,4.55,0,0,1,.3,1.67,5.15,5.15,0,0,1-.3,1.75,7.44,7.44,0,0,1-.77,1.61,9.92,9.92,0,0,1-1.09,1.42,16.42,16.42,0,0,1-1.24,1.26l0,0,.88-.08a8.31,8.31,0,0,1,.87,0h1.45v3h-9l3.42-4.56c.24-.32.5-.66.76-1a12,12,0,0,0,.73-1.12,6.54,6.54,0,0,0,.55-1.21,3.61,3.61,0,0,0,.22-1.24,2.85,2.85,0,0,0,0-.4,1.49,1.49,0,0,0-.14-.37,1.07,1.07,0,0,0-.25-.27.59.59,0,0,0-.38-.11.58.58,0,0,0-.46.17,1.09,1.09,0,0,0-.25.42,3,3,0,0,0-.11.52,4,4,0,0,0,0,.47v.48h-3.4Z"/><path class="cls-1" d="M322.51,350.19a2,2,0,0,1-.77-.15,2,2,0,0,1-.62-.43,2.29,2.29,0,0,1-.42-.64,2,2,0,0,1-.15-.78,1.93,1.93,0,0,1,.15-.75,2.19,2.19,0,0,1,.42-.62,2.15,2.15,0,0,1,.6-.42,1.79,1.79,0,0,1,.72-.15,2.3,2.3,0,0,1,.79.14,2,2,0,0,1,.66.42,2.16,2.16,0,0,1,.44.63,2,2,0,0,1,.16.8,1.83,1.83,0,0,1-.58,1.38,2.66,2.66,0,0,1-.63.42A2,2,0,0,1,322.51,350.19Z"/><path class="cls-1" d="M326.37,341.29a4.73,4.73,0,0,1,.32-1.8,4.23,4.23,0,0,1,.89-1.42,4.07,4.07,0,0,1,1.39-.94,4.68,4.68,0,0,1,1.79-.34,4.13,4.13,0,0,1,1.68.33,3.82,3.82,0,0,1,1.29.91,3.88,3.88,0,0,1,.83,1.35,4.55,4.55,0,0,1,.3,1.67,5.15,5.15,0,0,1-.3,1.75,7.44,7.44,0,0,1-.77,1.61,10.63,10.63,0,0,1-1.08,1.42c-.41.45-.82.87-1.24,1.26l0,0,.88-.08a8.38,8.38,0,0,1,.88,0h1.44v3h-8.95l3.42-4.56c.25-.32.5-.66.76-1a10.24,10.24,0,0,0,.73-1.12,7.33,7.33,0,0,0,.56-1.21,3.84,3.84,0,0,0,.21-1.24,1.87,1.87,0,0,0,0-.4,1.49,1.49,0,0,0-.14-.37.92.92,0,0,0-.25-.27.59.59,0,0,0-.38-.11.56.56,0,0,0-.45.17,1,1,0,0,0-.25.42,2.31,2.31,0,0,0-.12.52c0,.18,0,.33,0,.47v.48h-3.39Z"/></g><g id="code"><rect class="cls-1" x="473" y="221.86" width="507" height="370"/><path d="M977,224.86v364H476v-364H977m6-6H470v376H983v-376Z"/><rect class="cls-1" x="473" y="254.36" width="147" height="337.5"/><path d="M617,257.36v331.5H476V257.36H617m6-6H470v343.5H623V251.36Z"/><rect class="cls-1" x="496.67" y="277.86" width="7.93" height="7.93"/><path d="M501.59,280.86v1.92h-1.92v-1.92h1.92m6-6H493.67v13.92h13.92V274.86Z"/><line class="cls-8" x1="500.63" y1="362.13" x2="500.63" y2="279.68"/><path d="M513.59,298.51v-4.08H512.1v-.71h2.38v4.84a.75.75,0,0,0,.82.85,2,2,0,0,0,.78-.18l.21.66a2.89,2.89,0,0,1-1.2.25C514.12,300.14,513.59,299.56,513.59,298.51Z"/><path d="M519.56,296.39h-1.94v-.71h2.83V300h-.89Zm-.29-2.19a.67.67,0,0,1,1.33,0,.67.67,0,0,1-1.33,0Z"/><path d="M522.78,299.46l.39-.57a3.21,3.21,0,0,0,1.86.57c.67,0,1-.27,1-.59s-.18-.51-1.28-.73-1.69-.64-1.69-1.3.66-1.27,1.86-1.27a3.39,3.39,0,0,1,1.79.57l-.42.55a2.64,2.64,0,0,0-1.45-.44c-.64,0-.9.25-.9.55s.35.48,1.21.66c1.41.31,1.77.67,1.77,1.35s-.71,1.33-2,1.33A3.86,3.86,0,0,1,522.78,299.46Z"/><path d="M529.3,298.31v-1.92h-1.2v-.66l1.23-.05.12-1.38h.74v1.38h2v.71h-2v1.92c0,.75.26,1.12,1,1.12a2.77,2.77,0,0,0,1-.19l.18.65a4.14,4.14,0,0,1-1.37.25C529.73,300.14,529.3,299.4,529.3,298.31Z"/><path d="M533.46,297.85a2.2,2.2,0,0,1,2.23-2.28,1.89,1.89,0,0,1,2,2.06,2.87,2.87,0,0,1,0,.48h-3.58v-.65h3l-.2.22c0-.95-.45-1.42-1.19-1.42a1.42,1.42,0,0,0-1.39,1.59,1.47,1.47,0,0,0,1.61,1.6,2.35,2.35,0,0,0,1.27-.39l.31.56a3,3,0,0,1-1.69.52A2.21,2.21,0,0,1,533.46,297.85Z"/><path d="M539,295.68h.73l.07.69h0a2.26,2.26,0,0,1,1.61-.8c1,0,1.48.63,1.48,1.76V300H542v-2.58c0-.76-.25-1.11-.9-1.11a1.69,1.69,0,0,0-1.24.69v3H539Z"/><path d="M544.16,297.85a2.19,2.19,0,0,1,2.23-2.28,1.89,1.89,0,0,1,2,2.06,2.87,2.87,0,0,1,0,.48h-3.58v-.65h3l-.19.22c0-.95-.46-1.42-1.2-1.42a1.41,1.41,0,0,0-1.38,1.59,1.47,1.47,0,0,0,1.6,1.6,2.38,2.38,0,0,0,1.28-.39l.31.56a3.06,3.06,0,0,1-1.7.52A2.21,2.21,0,0,1,544.16,297.85Z"/><path d="M550.15,295.68h.74l.08,1h0a2.22,2.22,0,0,1,1.89-1.12,1.84,1.84,0,0,1,.86.18l-.2.76a2.05,2.05,0,0,0-.79-.14,1.91,1.91,0,0,0-1.71,1.19V300h-.89Z"/><path d="M513.26,312.44v-1.92h-1.2v-.66l1.23-.05.12-1.38h.73v1.38h2.06v.71h-2.06v1.93c0,.74.27,1.11,1.06,1.11a2.77,2.77,0,0,0,1-.19l.18.65a4.15,4.15,0,0,1-1.38.25C513.69,314.27,513.26,313.54,513.26,312.44Z"/><path d="M517.51,313c0-1,.89-1.46,3.09-1.63a1,1,0,0,0-1.1-1,3,3,0,0,0-1.47.49l-.34-.59a3.93,3.93,0,0,1,2-.62,1.66,1.66,0,0,1,1.82,1.84v2.63h-.73l-.07-.57h0a2.87,2.87,0,0,1-1.67.67A1.32,1.32,0,0,1,517.51,313Zm3.09,0v-1c-1.72.12-2.22.47-2.22,1s.39.62.86.62A2.21,2.21,0,0,0,520.6,313Z"/><path d="M522.78,313.6l.4-.58a3.15,3.15,0,0,0,1.85.57c.67,0,1-.27,1-.59s-.18-.51-1.28-.73-1.69-.64-1.69-1.3.66-1.27,1.86-1.27a3.39,3.39,0,0,1,1.79.57l-.42.55a2.64,2.64,0,0,0-1.45-.44c-.64,0-.89.25-.89.55s.34.48,1.2.66c1.41.31,1.77.67,1.77,1.36s-.71,1.32-2,1.32A3.94,3.94,0,0,1,522.78,313.6Z"/><path d="M528.4,307.85h.89V312h0l2.14-2.15h1l-3.18,3.2v1.16h-.89Zm1.72,4.09.52-.56,2,2.79h-1Z"/><path d="M512.18,326.13a2.27,2.27,0,0,1,2.45-2.29,2.21,2.21,0,0,1,1.59.62l-.42.56a1.72,1.72,0,0,0-1.13-.45,1.49,1.49,0,0,0-1.59,1.56,1.47,1.47,0,0,0,1.56,1.54,2,2,0,0,0,1.29-.51l.38.57a2.6,2.6,0,0,1-1.74.67A2.2,2.2,0,0,1,512.18,326.13Z"/><path d="M517.35,326.13a2.17,2.17,0,1,1,2.16,2.27A2.14,2.14,0,0,1,517.35,326.13Zm3.42,0c0-.94-.48-1.56-1.26-1.56s-1.26.62-1.26,1.56.49,1.54,1.26,1.54S520.77,327.06,520.77,326.13Z"/><path d="M522.65,323.94h.69l.07.57h0a1,1,0,0,1,1-.67c.41,0,.68.25.8.74a1.1,1.1,0,0,1,1-.74c.61,0,1,.49,1,1.36v3.1h-.87v-3c0-.44-.12-.67-.4-.67s-.42.2-.62.61v3.1h-.77v-3c0-.44-.11-.67-.39-.67s-.44.2-.63.61v3.1h-.87Z"/><path d="M528,323.94h.69l.07.57h0a1.06,1.06,0,0,1,1-.67c.42,0,.69.25.81.74a1.1,1.1,0,0,1,1-.74c.61,0,1,.49,1,1.36v3.1h-.87v-3c0-.44-.12-.67-.4-.67s-.42.2-.62.61v3.1h-.77v-3c0-.44-.11-.67-.4-.67s-.44.2-.63.61v3.1H528Z"/><path d="M533.55,327.15c0-1,.89-1.46,3.09-1.62a1,1,0,0,0-1.1-1,3.17,3.17,0,0,0-1.47.49l-.34-.59a4,4,0,0,1,2-.61,1.66,1.66,0,0,1,1.83,1.83v2.63h-.74l-.07-.57h0a2.8,2.8,0,0,1-1.66.67A1.32,1.32,0,0,1,533.55,327.15Zm3.09,0v-1c-1.71.13-2.22.47-2.22,1s.39.62.86.62A2.17,2.17,0,0,0,536.64,327.11Z"/><path d="M539,323.94h.73l.07.7h0a2.23,2.23,0,0,1,1.61-.8c1,0,1.48.62,1.48,1.76v2.7H542v-2.59c0-.76-.25-1.11-.9-1.11a1.69,1.69,0,0,0-1.24.69v3H539Z"/><path d="M544.08,326.13a2.09,2.09,0,0,1,1.95-2.29,1.72,1.72,0,0,1,1.25.53h0l0-.77V322h.89v6.32h-.73l-.07-.54h0a2,2,0,0,1-1.37.64C544.83,328.4,544.08,327.57,544.08,326.13Zm3.18.95V325a1.44,1.44,0,0,0-1-.44c-.68,0-1.24.59-1.24,1.54s.44,1.54,1.17,1.54A1.43,1.43,0,0,0,547.26,327.08Z"/><path d="M512.15,340.78v-2.71H513v2.59c0,.75.25,1.11.91,1.11a1.54,1.54,0,0,0,1.22-.72v-3h.89v4.36h-.74l-.07-.73h0a2,2,0,0,1-1.58.83C512.61,342.53,512.15,341.91,512.15,340.78Z"/><path d="M518.6,340.71v-1.93h-1.2v-.66l1.24-.05.12-1.38h.73v1.38h2.06v.71h-2.06v1.93c0,.75.27,1.11,1,1.11a2.78,2.78,0,0,0,1-.19l.18.65a4,4,0,0,1-1.38.25C519,342.53,518.6,341.8,518.6,340.71Z"/><path d="M524.91,338.78H523v-.71h2.84v4.36h-.89Zm-.29-2.19a.67.67,0,1,1,.66.63A.62.62,0,0,1,524.62,336.59Z"/><path d="M529.64,340.9v-4.08h-1.5v-.71h2.38V341a.76.76,0,0,0,.82.85,1.85,1.85,0,0,0,.78-.19l.22.66a2.8,2.8,0,0,1-1.2.25C530.16,342.53,529.64,342,529.64,340.9Z"/><path d="M512.1,350.72h1l.76,2.39.26.9h0l.26-.9.76-2.39h1v5.84h-.81v-2.63c0-.59.09-1.7.13-2.23h0l-.36,1.25-.74,2.06h-.56l-.73-2.06-.36-1.25h0c.06.53.14,1.64.14,2.23v2.63h-.8Z"/><path d="M517.51,355.41c0-1,.89-1.46,3.09-1.62a1,1,0,0,0-1.1-1,3,3,0,0,0-1.47.49l-.34-.59a3.83,3.83,0,0,1,2-.62,1.66,1.66,0,0,1,1.82,1.84v2.62h-.73l-.07-.57h0a2.81,2.81,0,0,1-1.67.68A1.32,1.32,0,0,1,517.51,355.41Zm3.09,0v-1c-1.72.12-2.22.46-2.22,1s.39.62.86.62A2.25,2.25,0,0,0,520.6,355.38Z"/><path d="M523.41,352.21h.74l.08,1h0a2.23,2.23,0,0,1,1.9-1.12,1.8,1.8,0,0,1,.85.18l-.19.75a2.36,2.36,0,0,0-.8-.14,1.93,1.93,0,0,0-1.71,1.2v2.47h-.89Z"/><path d="M528.13,356l.39-.58a3.12,3.12,0,0,0,1.86.58c.67,0,1-.27,1-.6s-.18-.5-1.28-.73-1.69-.63-1.69-1.29.65-1.27,1.86-1.27a3.39,3.39,0,0,1,1.79.56l-.42.56a2.57,2.57,0,0,0-1.45-.45c-.65,0-.9.26-.9.56s.35.47,1.21.65c1.41.31,1.77.68,1.77,1.36s-.71,1.33-2,1.33A3.83,3.83,0,0,1,528.13,356Z"/><path d="M533.68,355.81h1.43v-4.33h-1.43v-.76h3.75v.76H536v4.33h1.42v.75h-3.75Z"/><path d="M539,352.21h.73l.07.69h0a2.23,2.23,0,0,1,1.61-.8c1,0,1.48.62,1.48,1.76v2.7H542V354c0-.76-.25-1.11-.9-1.11a1.71,1.71,0,0,0-1.24.7v3H539Z"/><path d="M544.26,354.39a2.28,2.28,0,0,1,2.46-2.29,2.23,2.23,0,0,1,1.59.62l-.42.56a1.75,1.75,0,0,0-1.14-.45,1.56,1.56,0,1,0,0,3.11,2,2,0,0,0,1.29-.52l.38.58a2.65,2.65,0,0,1-1.74.67A2.21,2.21,0,0,1,544.26,354.39Z"/><path d="M550.8,355.83a.81.81,0,1,1,.8.84A.8.8,0,0,1,550.8,355.83Z"/><path d="M554.74,358.15l.27-.65a2.37,2.37,0,0,0,1,.23c.8,0,1-.4,1-1.11v-3.71h-2v-.7h2.84v4.36a1.65,1.65,0,0,1-1.88,1.88A2.94,2.94,0,0,1,554.74,358.15Zm2-7.43a.66.66,0,0,1,1.32,0,.66.66,0,0,1-1.32,0Z"/><path d="M560.29,355.41c0-1,.89-1.46,3.09-1.62a1,1,0,0,0-1.1-1,3.06,3.06,0,0,0-1.47.49l-.34-.59a3.86,3.86,0,0,1,2-.62,1.66,1.66,0,0,1,1.83,1.84v2.62h-.74l-.07-.57h0a2.81,2.81,0,0,1-1.66.68A1.32,1.32,0,0,1,560.29,355.41Zm3.09,0v-1c-1.71.12-2.22.46-2.22,1s.39.62.86.62A2.23,2.23,0,0,0,563.38,355.38Z"/><path d="M565.37,352.21h.91l.92,2.35c.16.44.31.87.46,1.3h0c.15-.43.28-.86.45-1.3l.92-2.35h.86l-1.76,4.35h-1Z"/><path d="M571,355.41c0-1,.89-1.46,3.08-1.62a1,1,0,0,0-1.09-1,3,3,0,0,0-1.47.49l-.34-.59a3.83,3.83,0,0,1,2-.62,1.66,1.66,0,0,1,1.82,1.84v2.62h-.73l-.07-.57h0a2.84,2.84,0,0,1-1.67.68A1.32,1.32,0,0,1,571,355.41Zm3.08,0v-1c-1.71.12-2.21.46-2.21,1s.39.62.85.62A2.21,2.21,0,0,0,574.07,355.38Z"/><path d="M512.76,278h2.76c1.93,0,3.29.66,3.29,2.63s-1.38,2.78-3.29,2.78H514.1v3.34h-1.34Zm2.63,4.33c1.41,0,2.09-.54,2.09-1.7s-.7-1.55-2.09-1.55H514.1v3.25Z"/><path d="M522.66,284.45v-6.12h-2.24v-1.07H524v7.27a1.13,1.13,0,0,0,1.23,1.28,2.88,2.88,0,0,0,1.16-.28l.32,1a4.22,4.22,0,0,1-1.79.38C523.45,286.9,522.66,286,522.66,284.45Z"/><path d="M528.51,284.26v-4.05h1.34v3.88c0,1.13.37,1.66,1.36,1.66a2.28,2.28,0,0,0,1.82-1.07v-4.47h1.34v6.53h-1.1l-.11-1.09h0a3.1,3.1,0,0,1-2.38,1.25C529.21,286.9,528.51,286,528.51,284.26Z"/><path d="M536.45,287.91a1.74,1.74,0,0,1,1.06-1.41v-.05a1.22,1.22,0,0,1-.67-1.09,1.59,1.59,0,0,1,.78-1.22v-.06a2.06,2.06,0,0,1-.82-1.69,2.42,2.42,0,0,1,2.63-2.34,2.74,2.74,0,0,1,1,.16h2.69v1h-1.59a1.86,1.86,0,0,1,.48,1.19,2.28,2.28,0,0,1-2.57,2.23,2.93,2.93,0,0,1-1-.21.8.8,0,0,0-.45.68c0,.47.45.68,1.29.68h1.4c1.68,0,2.53.45,2.53,1.57s-1.44,2.3-3.7,2.3C537.59,289.69,536.45,289.07,536.45,287.91Zm5.41-.31c0-.56-.47-.71-1.4-.71H539.3a4,4,0,0,1-1-.1c-.55.3-.74.63-.74,1,0,.63.71,1,2,1S541.86,288.22,541.86,287.6Zm-1.06-5.21a1.37,1.37,0,1,0-1.37,1.43A1.34,1.34,0,0,0,540.8,282.39Z"/><path d="M547.66,281.27h-2.92v-1.06H549v6.53h-1.34Zm-.43-3.28a1,1,0,1,1,1,.94A.93.93,0,0,1,547.23,278Z"/><path d="M552.77,280.21h1.09l.11,1h0a3.32,3.32,0,0,1,2.41-1.2c1.52,0,2.22.94,2.22,2.64v4.05h-1.33v-3.88c0-1.14-.38-1.66-1.35-1.66a2.56,2.56,0,0,0-1.87,1v4.5h-1.33Z"/><circle class="cls-3" cx="919.05" cy="237.33" r="8.64"/><circle class="cls-4" cx="941.24" cy="237.33" r="8.64"/><circle class="cls-5" cx="963.43" cy="237.33" r="8.64"/><path d="M489.19,243.19v-13h3.51v13Z"/><path d="M497.93,235.78l0,0a2.89,2.89,0,0,1,.34-.71,3.1,3.1,0,0,1,.53-.61,2.48,2.48,0,0,1,.67-.43,1.92,1.92,0,0,1,.78-.17,2.29,2.29,0,0,1,1.2.29,2.07,2.07,0,0,1,.75.75,3.2,3.2,0,0,1,.38,1.05,6.78,6.78,0,0,1,.1,1.2v6h-3.37v-4.6a4.16,4.16,0,0,0-.1-1,.48.48,0,0,0-.52-.37.67.67,0,0,0-.39.11.68.68,0,0,0-.22.32,2.18,2.18,0,0,0-.08.49c0,.19,0,.4,0,.63v4.38h-3.37v-9.1H498Z"/><path d="M505.32,243.19V236.8h-1v-2.71h1v-2.67h3.38v2.67h1.12v2.71H508.7v6.39Z"/><path d="M519.13,240.1a3.8,3.8,0,0,1-1.38,2.43,4.21,4.21,0,0,1-2.63.85,4.75,4.75,0,0,1-1.84-.34,3.45,3.45,0,0,1-1.32-.95,4,4,0,0,1-.78-1.44,6,6,0,0,1-.26-1.84,6.41,6.41,0,0,1,.27-1.87,4.69,4.69,0,0,1,.82-1.55,4,4,0,0,1,1.34-1.08,4.11,4.11,0,0,1,1.86-.41,3.74,3.74,0,0,1,1.8.41,3.66,3.66,0,0,1,1.26,1.08,4.3,4.3,0,0,1,.82,1.88,12.63,12.63,0,0,1,.16,2.08h-5a3.61,3.61,0,0,0,0,.44,2.11,2.11,0,0,0,.1.45.79.79,0,0,0,.24.35.61.61,0,0,0,.43.15.72.72,0,0,0,.49-.18.83.83,0,0,0,.25-.46Zm-3.27-2.58a1.87,1.87,0,0,0,0-.4,1.49,1.49,0,0,0-.14-.37.81.81,0,0,0-.25-.27.59.59,0,0,0-.38-.11.55.55,0,0,0-.36.11.81.81,0,0,0-.24.28,1.21,1.21,0,0,0-.12.38,1.82,1.82,0,0,0,0,.38Z"/><path d="M520.68,243.19V229.46h3.38v13.73Z"/><path d="M525.88,243.19V229.46h3.38v13.73Z"/><path d="M532.79,233.22a2,2,0,0,1-.77-.16,2.17,2.17,0,0,1-.63-.42A2.13,2.13,0,0,1,531,232a2,2,0,0,1-.15-.78,1.93,1.93,0,0,1,.15-.75,2.31,2.31,0,0,1,.42-.63,2,2,0,0,1,.62-.42,1.78,1.78,0,0,1,.75-.16,2,2,0,0,1,.78.15,1.91,1.91,0,0,1,.63.41,2.45,2.45,0,0,1,.43.62,1.8,1.8,0,0,1,.16.77,2,2,0,0,1-.15.77,2.31,2.31,0,0,1-.42.63,2,2,0,0,1-.62.43A1.84,1.84,0,0,1,532.79,233.22Zm-1.71,10v-9.1h3.38v9.1Z"/><path d="M535.78,239.36a1.78,1.78,0,0,0,.61.55,1.64,1.64,0,0,0,.82.21.9.9,0,0,0,.57-.17,1.1,1.1,0,0,0,.31-.45,1.87,1.87,0,0,0,.12-.58c0-.21,0-.41,0-.61V230.2h3.51V239c0,.44,0,.91-.08,1.42a3.92,3.92,0,0,1-.45,1.43,3,3,0,0,1-1.1,1.11,3.77,3.77,0,0,1-2,.45,6.56,6.56,0,0,1-1.18-.11,11.43,11.43,0,0,1-1.15-.3Z"/><path d="M549,243.19v-13h3.51v13Z"/><path d="M554.59,230.2h2.82a7,7,0,0,1,2.64.46A5.12,5.12,0,0,1,562,232a5.25,5.25,0,0,1,1.18,2,8.3,8.3,0,0,1,.4,2.66,10.06,10.06,0,0,1-.29,2.57,6.31,6.31,0,0,1-.77,1.79,4.35,4.35,0,0,1-1.09,1.16,4.88,4.88,0,0,1-1.28.66,6.11,6.11,0,0,1-1.3.3c-.43,0-.82.07-1.18.07h-3.06Zm3.51,9.85a1.39,1.39,0,0,0,1-.33,2.2,2.2,0,0,0,.57-.83,4.5,4.5,0,0,0,.27-1,9.9,9.9,0,0,0,.07-1,11.21,11.21,0,0,0-.07-1.12,4.66,4.66,0,0,0-.27-1.1,2,2,0,0,0-.57-.82,1.39,1.39,0,0,0-1-.33Z"/><path d="M565.25,230.2h6.52v3.07h-3v1.8h2.7v3.07h-2.7v2h3v3.07h-6.52Z"/><path d="M579.47,243.19l-.26-1.67h-2.36l-.29,1.67h-3.62l3.12-13h4.29l2.75,13Zm-.67-4.43-.38-3c-.06-.4-.1-.81-.14-1.23s-.07-.82-.12-1.22h0c-.06.4-.11.81-.16,1.22s-.1.83-.17,1.23l-.48,3Z"/><path d="M977.07,224.86v26h-501v-26h501m6-6h-513v38h513v-38Z"/><path d="M644.22,276h1l.1.71h0a3,3,0,0,1,1.95-.85c1.55,0,2.4,1.17,2.4,3,0,2-1.24,3.16-2.63,3.16a2.61,2.61,0,0,1-1.67-.72h0l0,1.06v1.91h-1.19Zm4.24,2.85c0-1.23-.45-2-1.5-2a2.21,2.21,0,0,0-1.55.79v2.77a2.21,2.21,0,0,0,1.41.6C647.76,281,648.46,280.19,648.46,278.81Z"/><path d="M651.24,279.6V276h1.2v3.48c0,1,.34,1.49,1.22,1.49a2.07,2.07,0,0,0,1.64-1v-4h1.19v5.86h-1l-.1-1h0a2.74,2.74,0,0,1-2.12,1.12C651.86,282,651.24,281.12,651.24,279.6Z"/><path d="M659.71,281.17h0l-.11.65h-.94v-8.5h1.19v2.25l0,1.08h0a2.73,2.73,0,0,1,1.87-.83c1.55,0,2.41,1.17,2.41,3,0,2-1.24,3.17-2.61,3.17A2.68,2.68,0,0,1,659.71,281.17Zm3.15-2.36c0-1.23-.45-2-1.5-2a2.21,2.21,0,0,0-1.55.79v2.77a2.22,2.22,0,0,0,1.43.6C662.16,281,662.86,280.19,662.86,278.81Z"/><path d="M667.59,279.77v-5.5h-2v-.95h3.21v6.52a1,1,0,0,0,1.1,1.14,2.77,2.77,0,0,0,1.05-.24l.29.88a3.91,3.91,0,0,1-1.62.34C668.3,282,667.59,281.18,667.59,279.77Z"/><path d="M675.63,276.91H673v-1h3.82v5.86h-1.2Zm-.39-3a.89.89,0,0,1,1.78,0,.89.89,0,0,1-1.78,0Z"/><path d="M680.08,278.9a3.06,3.06,0,0,1,3.3-3.08,3,3,0,0,1,2.15.84l-.57.75a2.31,2.31,0,0,0-1.52-.61,2,2,0,0,0-2.13,2.1A2,2,0,0,0,683.4,281a2.72,2.72,0,0,0,1.74-.69l.52.77a3.6,3.6,0,0,1-2.35.9A3,3,0,0,1,680.08,278.9Z"/><path d="M694.36,281.05l.53-.77a4.29,4.29,0,0,0,2.5.77c.9,0,1.33-.36,1.33-.8s-.24-.68-1.72-1-2.27-.86-2.27-1.75.88-1.7,2.5-1.7a4.48,4.48,0,0,1,2.41.76l-.56.74a3.54,3.54,0,0,0-2-.6c-.88,0-1.21.35-1.21.75s.46.64,1.61.88c1.91.42,2.39.91,2.39,1.83S699,282,697.24,282A5.19,5.19,0,0,1,694.36,281.05Z"/><path d="M703.14,279.5v-2.59h-1.62V276l1.67-.06.15-1.86h1V276h2.77v1h-2.77v2.59c0,1,.36,1.5,1.42,1.5a3.66,3.66,0,0,0,1.33-.25l.25.87a5.51,5.51,0,0,1-1.86.34C703.72,282,703.14,281,703.14,279.5Z"/><path d="M708.87,280.27c0-1.31,1.19-2,4.15-2.18a1.3,1.3,0,0,0-1.48-1.31,4.2,4.2,0,0,0-2,.66l-.45-.79a5.23,5.23,0,0,1,2.65-.83,2.22,2.22,0,0,1,2.45,2.47v3.53h-1l-.1-.76h0a3.82,3.82,0,0,1-2.24.9A1.78,1.78,0,0,1,708.87,280.27Zm4.15,0v-1.38c-2.3.17-3,.63-3,1.33s.53.83,1.16.83A3,3,0,0,0,713,280.23Z"/><path d="M717.54,279.5v-2.59h-1.62V276l1.66-.06.16-1.86h1V276h2.77v1h-2.77v2.59c0,1,.36,1.5,1.42,1.5a3.72,3.72,0,0,0,1.34-.25l.24.87a5.51,5.51,0,0,1-1.86.34C718.12,282,717.54,281,717.54,279.5Z"/><path d="M726,276.91h-2.62v-1h3.81v5.86H726Zm-.39-3a.89.89,0,0,1,1.78,0,.89.89,0,0,1-1.78,0Z"/><path d="M730.48,278.9a3.06,3.06,0,0,1,3.3-3.08,3,3,0,0,1,2.15.84l-.57.75a2.33,2.33,0,0,0-1.52-.61,2,2,0,0,0-2.13,2.1A2,2,0,0,0,733.8,281a2.72,2.72,0,0,0,1.74-.69l.51.77a3.55,3.55,0,0,1-2.34.9A3,3,0,0,1,730.48,278.9Z"/><path d="M744.51,276h1.21l1.24,3.17c.22.59.42,1.17.62,1.75h0c.19-.58.38-1.16.6-1.75l1.24-3.17h1.15l-2.36,5.86h-1.35Z"/><path d="M751.84,278.9a2.92,2.92,0,1,1,2.92,3.06A2.89,2.89,0,0,1,751.84,278.9Zm4.62,0c0-1.26-.66-2.1-1.7-2.1s-1.69.84-1.69,2.1.66,2.08,1.69,2.08S756.46,280.15,756.46,278.9Z"/><path d="M762,276.91h-2.62v-1h3.81v5.86H762Zm-.39-3a.89.89,0,0,1,1.78,0,.89.89,0,0,1-1.78,0Z"/><path d="M766.24,278.9a2.8,2.8,0,0,1,2.62-3.08,2.34,2.34,0,0,1,1.68.71h0l-.05-1v-2.18h1.19v8.5h-1l-.09-.73h0a2.69,2.69,0,0,1-1.84.87C767.25,282,766.24,280.84,766.24,278.9Zm4.28,1.28v-2.77a2,2,0,0,0-1.39-.6c-.91,0-1.66.8-1.66,2.08S768.06,281,769,281A1.94,1.94,0,0,0,770.52,280.18Z"/><path d="M780.59,276h.93l.09.76h0a1.42,1.42,0,0,1,1.32-.9c.56,0,.93.33,1.09,1a1.46,1.46,0,0,1,1.35-1c.83,0,1.31.66,1.31,1.83v4.17h-1.17v-4.09c0-.59-.16-.89-.54-.89s-.56.27-.84.81v4.17h-1v-4.09c0-.59-.15-.89-.53-.89s-.59.27-.85.81v4.17h-1.16Z"/><path d="M788.07,280.27c0-1.31,1.19-2,4.15-2.18a1.3,1.3,0,0,0-1.48-1.31,4.2,4.2,0,0,0-2,.66l-.45-.79a5.2,5.2,0,0,1,2.65-.83,2.22,2.22,0,0,1,2.45,2.47v3.53h-1l-.09-.76h0a3.82,3.82,0,0,1-2.24.9A1.78,1.78,0,0,1,788.07,280.27Zm4.15,0v-1.38c-2.3.17-3,.63-3,1.33s.53.83,1.16.83A3,3,0,0,0,792.22,280.23Z"/><path d="M798,276.91h-2.62v-1h3.81v5.86H798Zm-.39-3a.89.89,0,0,1,1.78,0,.89.89,0,0,1-1.78,0Z"/><path d="M802.61,276h1l.1.93h0a3,3,0,0,1,2.16-1.07c1.37,0,2,.84,2,2.36v3.64h-1.2v-3.48c0-1-.34-1.49-1.21-1.49a2.25,2.25,0,0,0-1.67.93v4h-1.2Z"/><path d="M811.17,278.49a6.81,6.81,0,0,1,2.65-5.46l.66.58a6.37,6.37,0,0,0,0,9.75l-.66.58A6.8,6.8,0,0,1,811.17,278.49Z"/><path d="M816.72,280.81l.7-.83a3.32,3.32,0,0,0,2.25.93c1,0,1.54-.46,1.54-1.09s-.57-1-1.35-1.31l-1.11-.49a2.24,2.24,0,0,1-1.68-2c0-1.22,1.1-2.15,2.65-2.15a3.52,3.52,0,0,1,2.47,1l-.62.76a2.8,2.8,0,0,0-1.9-.7c-.82,0-1.38.39-1.38,1s.68.93,1.37,1.2l1.07.47a2.21,2.21,0,0,1,1.72,2.1c0,1.26-1.07,2.29-2.85,2.29A4.11,4.11,0,0,1,816.72,280.81Z"/><path d="M825.54,279.5v-2.59h-1.62V276l1.66-.06.16-1.86h1V276h2.77v1h-2.77v2.59c0,1,.36,1.5,1.42,1.5a3.66,3.66,0,0,0,1.33-.25l.25.87a5.51,5.51,0,0,1-1.86.34C826.12,282,825.54,281,825.54,279.5Z"/><path d="M832,276h1l.11,1.36h0a3,3,0,0,1,2.55-1.5,2.52,2.52,0,0,1,1.15.23l-.26,1a2.92,2.92,0,0,0-1.08-.19,2.58,2.58,0,0,0-2.29,1.61v3.33H832Z"/><path d="M841.23,276.91h-2.62v-1h3.81v5.86h-1.19Zm-.39-3a.89.89,0,1,1,.89.85A.82.82,0,0,1,840.84,274Z"/><path d="M845.81,276h1l.1.93h0a3,3,0,0,1,2.16-1.07c1.37,0,2,.84,2,2.36v3.64h-1.2v-3.48c0-1-.34-1.49-1.21-1.49a2.25,2.25,0,0,0-1.67.93v4h-1.2Z"/><path d="M852.76,282.87a1.58,1.58,0,0,1,1-1.27v-.05a1.06,1.06,0,0,1-.59-1,1.43,1.43,0,0,1,.7-1.1v0a1.84,1.84,0,0,1-.74-1.52,2.17,2.17,0,0,1,2.36-2.1,2.45,2.45,0,0,1,.89.14h2.41v.93h-1.43a1.65,1.65,0,0,1,.43,1.07,2,2,0,0,1-2.3,2,2.5,2.5,0,0,1-.94-.19.72.72,0,0,0-.41.61c0,.42.41.62,1.16.62h1.25c1.52,0,2.27.39,2.27,1.4s-1.29,2.07-3.32,2.07C853.79,284.47,852.76,283.91,852.76,282.87Zm4.86-.28c0-.5-.43-.64-1.26-.64h-1a3.25,3.25,0,0,1-.89-.09c-.49.27-.66.57-.66.87,0,.57.64.91,1.8.91S857.62,283.14,857.62,282.59Zm-1-4.67a1.23,1.23,0,1,0-1.23,1.28A1.21,1.21,0,0,0,856.67,277.92Z"/><path d="M861.78,273.33h3.39V274h-2.45v9h2.45v.66h-3.39Z"/><path d="M867.56,283H870v-9h-2.44v-.66h3.38v10.31h-3.38Z"/><path d="M881.66,280.27c0-1.31,1.2-2,4.16-2.18a1.31,1.31,0,0,0-1.48-1.31,4.13,4.13,0,0,0-2,.66l-.45-.79a5.19,5.19,0,0,1,2.64-.83,2.23,2.23,0,0,1,2.46,2.47v3.53h-1l-.09-.76h0a3.85,3.85,0,0,1-2.24.9A1.78,1.78,0,0,1,881.66,280.27Zm4.16,0v-1.38c-2.31.17-3,.63-3,1.33s.53.83,1.16.83A3,3,0,0,0,885.82,280.23Z"/><path d="M889.61,276h1l.11,1.36h0a3,3,0,0,1,2.56-1.5,2.52,2.52,0,0,1,1.15.23l-.26,1a3,3,0,0,0-1.08-.19,2.6,2.6,0,0,0-2.3,1.61v3.33h-1.19Z"/><path d="M896,282.87a1.56,1.56,0,0,1,.95-1.27v-.05a1.07,1.07,0,0,1-.6-1,1.46,1.46,0,0,1,.7-1.1v0a1.86,1.86,0,0,1-.73-1.52,2.16,2.16,0,0,1,2.35-2.1,2.47,2.47,0,0,1,.9.14h2.41v.93h-1.43a1.65,1.65,0,0,1,.43,1.07,2.05,2.05,0,0,1-2.31,2,2.58,2.58,0,0,1-.94-.19.72.72,0,0,0-.4.61c0,.42.41.62,1.16.62h1.25c1.52,0,2.27.39,2.27,1.4s-1.29,2.07-3.32,2.07C897,284.47,896,283.91,896,282.87Zm4.86-.28c0-.5-.43-.64-1.26-.64h-1a3.25,3.25,0,0,1-.89-.09c-.49.27-.66.57-.66.87,0,.57.64.91,1.8.91S900.82,283.14,900.82,282.59Zm-1-4.67a1.23,1.23,0,1,0-1.23,1.28A1.2,1.2,0,0,0,899.86,277.92Z"/><path d="M903.16,281.05l.53-.77a4.29,4.29,0,0,0,2.5.77c.9,0,1.33-.36,1.33-.8s-.25-.68-1.72-1-2.28-.86-2.28-1.75.88-1.7,2.51-1.7a4.48,4.48,0,0,1,2.41.76l-.56.74a3.57,3.57,0,0,0-2-.6c-.87,0-1.21.35-1.21.75s.47.64,1.62.88c1.91.42,2.39.91,2.39,1.83s-1,1.78-2.68,1.78A5.19,5.19,0,0,1,903.16,281.05Z"/><path d="M919.75,282c0-.87.12-1.45.12-2.25,0-.45-.33-.9-1.71-.92v-.73c1.38,0,1.71-.47,1.71-.92,0-.76-.12-1.42-.12-2.25,0-1.25.71-1.62,2.22-1.62h.8V274h-.59c-1.17,0-1.42.27-1.42,1s.07,1.38.07,2.12a1.14,1.14,0,0,1-1.12,1.33v.05a1.14,1.14,0,0,1,1.12,1.33c0,.79-.07,1.41-.07,2.12s.25,1,1.42,1h.59v.66H922C920.46,283.64,919.75,283.27,919.75,282Z"/><path d="M644.37,311.78H645c1.17,0,1.43-.27,1.43-1s-.07-1.33-.07-2.12a1.14,1.14,0,0,1,1.11-1.33v-.05a1.14,1.14,0,0,1-1.11-1.33c0-.74.07-1.45.07-2.12s-.26-1-1.43-1h-.58v-.66h.78c1.52,0,2.22.37,2.22,1.62,0,.83-.12,1.49-.12,2.25,0,.45.33.91,1.72.92v.73c-1.39,0-1.72.47-1.72.92,0,.8.12,1.38.12,2.25,0,1.25-.7,1.62-2.22,1.62h-.78Z"/></g></svg>