<svg xmlns="http://www.w3.org/2000/svg" xmlns:xlink="http://www.w3.org/1999/xlink" id="Layer_1" data-name="Layer 1" viewBox="0 0 92 30"><defs><style>.cls-1{fill:none}.cls-2{fill:#29abe2}.cls-3{opacity:.21}.cls-4{clip-path:url(#clip-path)}.cls-5{fill:#0071bc}.cls-6{fill:#fff}</style><clipPath id="clip-path"><rect width="72" height="16" x="10" y="7" class="cls-1"/></clipPath></defs><title>in-progress</title><rect width="72" height="16" x="10" y="7" class="cls-2"/><g class="cls-3"><g class="cls-4"><rect width="5" height="133" x="-17.73" y="-78.37" class="cls-2" transform="translate(-3.57 3.52) rotate(14.91)"/><rect width="5" height="133" x="-12.9" y="-77.08" class="cls-5" transform="translate(-3.07 2.32) rotate(14.91)"/><rect width="5" height="133" x="-8.06" y="-75.8" class="cls-2" transform="translate(-2.58 1.12) rotate(14.91)"/><rect width="5" height="133" x="-3.23" y="-74.51" class="cls-5" transform="translate(-2.09 -0.08) rotate(14.91)"/><rect width="5" height="133" x="1.6" y="-73.22" class="cls-2" transform="translate(-1.59 -1.28) rotate(14.91)"/><rect width="5" height="133" x="6.43" y="-71.94" class="cls-5" transform="translate(-1.1 -2.48) rotate(14.91)"/><rect width="5" height="133" x="11.26" y="-70.65" class="cls-2" transform="translate(-0.6 -3.68) rotate(14.91)"/><rect width="5" height="133" x="16.09" y="-69.36" class="cls-5" transform="translate(-0.11 -4.88) rotate(14.91)"/><rect width="5" height="133" x="20.93" y="-68.08" class="cls-2" transform="translate(0.38 -6.08) rotate(14.91)"/><rect width="5" height="133" x="25.76" y="-66.79" class="cls-5" transform="translate(0.88 -7.28) rotate(14.91)"/><rect width="5" height="133" x="30.59" y="-65.5" class="cls-2" transform="translate(1.37 -8.48) rotate(14.91)"/><rect width="5" height="133" x="35.42" y="-64.22" class="cls-5" transform="translate(1.86 -9.68) rotate(14.91)"/><rect width="5" height="133" x="40.25" y="-62.93" class="cls-2" transform="translate(2.36 -10.88) rotate(14.91)"/><rect width="5" height="133" x="45.08" y="-61.64" class="cls-5" transform="translate(2.85 -12.08) rotate(14.91)"/><rect width="5" height="133" x="49.92" y="-60.36" class="cls-2" transform="translate(3.35 -13.28) rotate(14.91)"/><rect width="5" height="133" x="54.75" y="-59.07" class="cls-5" transform="translate(3.84 -14.48) rotate(14.91)"/><rect width="5" height="133" x="59.58" y="-57.78" class="cls-2" transform="translate(4.33 -15.68) rotate(14.91)"/><rect width="5" height="133" x="64.41" y="-56.5" class="cls-5" transform="translate(4.83 -16.88) rotate(14.91)"/><rect width="5" height="133" x="69.24" y="-55.21" class="cls-2" transform="translate(5.32 -18.08) rotate(14.91)"/><rect width="5" height="133" x="74.07" y="-53.92" class="cls-5" transform="translate(5.82 -19.28) rotate(14.91)"/><rect width="5" height="133" x="78.91" y="-52.64" class="cls-2" transform="translate(6.31 -20.48) rotate(14.91)"/><rect width="5" height="133" x="83.74" y="-51.35" class="cls-5" transform="translate(6.8 -21.68) rotate(14.91)"/><rect width="5" height="133" x="88.57" y="-50.06" class="cls-2" transform="translate(7.3 -22.88) rotate(14.91)"/><rect width="5" height="133" x="93.4" y="-48.78" class="cls-5" transform="translate(7.79 -24.08) rotate(14.91)"/><rect width="5" height="133" x="98.23" y="-47.49" class="cls-2" transform="translate(8.28 -25.28) rotate(14.91)"/><rect width="5" height="133" x="103.06" y="-46.2" class="cls-5" transform="translate(8.78 -26.48) rotate(14.91)"/><rect width="5" height="133" x="107.9" y="-44.92" class="cls-2" transform="translate(9.27 -27.68) rotate(14.91)"/></g></g><path d="M17.92,19.52H16.26V11h1.66Z" class="cls-6"/><path d="M19.56,13.44h1.61v6.08H19.56Zm3.52,2.4a.9.9,0,0,0-.26-.69,1,1,0,0,0-.72-.25.9.9,0,0,0-.69.25,1,1,0,0,0-.24.7L21,14.5a2.42,2.42,0,0,1,.66-.86,1.6,1.6,0,0,1,1-.29,1.8,1.8,0,0,1,1.48.65,2.77,2.77,0,0,1,.53,1.83v3.69h-1.6Z" class="cls-6"/><path d="M28.43,11H30v8.52H28.43Zm.73,3.67h2.73a1,1,0,0,0,.51-.13.94.94,0,0,0,.34-.37,1.23,1.23,0,0,0,.12-.55,1.22,1.22,0,0,0-.12-.56.84.84,0,0,0-.34-.38,1,1,0,0,0-.51-.13H29.16V11h2.69a2.87,2.87,0,0,1,1.4.33,2.29,2.29,0,0,1,.94.91,2.82,2.82,0,0,1,.33,1.38A2.71,2.71,0,0,1,34.19,15a2.31,2.31,0,0,1-.94.92,3,3,0,0,1-1.4.32H29.16Z" class="cls-6"/><path d="M35.49,13.44h1.72v6.08H35.49ZM38.63,15a1.25,1.25,0,0,0-.4-.06.93.93,0,0,0-.75.31,1.29,1.29,0,0,0-.27.87l-.12-1.58a2.29,2.29,0,0,1,.65-.85,1.47,1.47,0,0,1,.89-.3,1.83,1.83,0,0,1,.68.12,1.42,1.42,0,0,1,.54.36l-.94,1.3A.78.78,0,0,0,38.63,15Z" class="cls-6"/><path d="M41.52,19.3a2.06,2.06,0,0,1-.89-.91A3,3,0,0,1,40.32,17V16a2.94,2.94,0,0,1,.31-1.41,2,2,0,0,1,.89-.9,3.43,3.43,0,0,1,2.85,0,2,2,0,0,1,.89.9A2.94,2.94,0,0,1,45.57,16v1a3,3,0,0,1-.31,1.42,2.09,2.09,0,0,1-.89.9,3.43,3.43,0,0,1-2.85,0Zm2.17-1.52A1.12,1.12,0,0,0,44,17V16a1.1,1.1,0,0,0-.27-.79,1,1,0,0,0-.75-.28,1,1,0,0,0-.75.28,1.09,1.09,0,0,0-.26.79v1a1.12,1.12,0,0,0,.26.8,1,1,0,0,0,.75.28A1,1,0,0,0,43.69,17.78Z" class="cls-6"/><path d="M47.8,19.3a1.93,1.93,0,0,1-.7-.9A3.77,3.77,0,0,1,46.86,17V16a3.88,3.88,0,0,1,.24-1.44,1.91,1.91,0,0,1,.7-.91,2,2,0,0,1,1.1-.31,1.5,1.5,0,0,1,.89.29,2.12,2.12,0,0,1,.65.83l-.12,1.34a1.17,1.17,0,0,0-.11-.52A.73.73,0,0,0,49.9,15a1,1,0,0,0-.49-.11.84.84,0,0,0-.7.31,1.35,1.35,0,0,0-.25.86v1a1.31,1.31,0,0,0,.25.84.87.87,0,0,0,.7.3A1,1,0,0,0,49.9,18a.69.69,0,0,0,.31-.32,1.13,1.13,0,0,0,.11-.51l.08,1.39a1.63,1.63,0,0,1-.58.77,1.54,1.54,0,0,1-.92.27A1.9,1.9,0,0,1,47.8,19.3ZM48.46,22l-.57-.25A2.12,2.12,0,0,1,47,21l1.08-1a1.35,1.35,0,0,0,.5.34,1.52,1.52,0,0,0,.59.12,1.26,1.26,0,0,0,.83-.27,1,1,0,0,0,.32-.76v-6h1.6v5.9a3.06,3.06,0,0,1-.32,1.44,2.08,2.08,0,0,1-.93.9,3.2,3.2,0,0,1-1.48.31Z" class="cls-6"/><path d="M53.5,13.44h1.73v6.08H53.5ZM56.64,15a1.23,1.23,0,0,0-.39-.06.94.94,0,0,0-.76.31,1.29,1.29,0,0,0-.26.87L55.1,14.5a2.21,2.21,0,0,1,.66-.85,1.42,1.42,0,0,1,.88-.3,1.92,1.92,0,0,1,.69.12,1.47,1.47,0,0,1,.53.36l-.94,1.3A.78.78,0,0,0,56.64,15Z" class="cls-6"/><path d="M60.24,19.61l-.63-.32a2.19,2.19,0,0,1-1-.93,3.08,3.08,0,0,1-.33-1.48V16.2a3.58,3.58,0,0,1,.31-1.54,2.16,2.16,0,0,1,.92-1A2.85,2.85,0,0,1,61,13.35a2.26,2.26,0,0,1,1.36.4,2.48,2.48,0,0,1,.87,1.16,5,5,0,0,1,.29,1.83v.4H59.37V16.05h2.7l0-.14a1.37,1.37,0,0,0-.33-.81.93.93,0,0,0-.71-.29,1.16,1.16,0,0,0-.9.35,1.38,1.38,0,0,0-.32,1v.78a1.3,1.3,0,0,0,.35,1,1.32,1.32,0,0,0,1,.34,1.77,1.77,0,0,0,.64-.12,1.83,1.83,0,0,0,.58-.32l1.05.93a3.63,3.63,0,0,1-1.07.67,3.13,3.13,0,0,1-1.2.24Z" class="cls-6"/><path d="M66.72,19.61l-.51-.1a4.76,4.76,0,0,1-1-.28,4.07,4.07,0,0,1-.8-.45l1-1.24a3.84,3.84,0,0,0,.92.43,2.83,2.83,0,0,0,.92.16,2.49,2.49,0,0,0,.87-.13c.21-.08.31-.2.31-.35a.37.37,0,0,0-.13-.31.86.86,0,0,0-.35-.15c-.14,0-.34-.05-.59-.08l-.22,0-.22,0h-.1a6.6,6.6,0,0,1-1.09-.21,1.4,1.4,0,0,1-.69-.5,1.7,1.7,0,0,1-.28-1.06,1.77,1.77,0,0,1,.29-1,1.79,1.79,0,0,1,.85-.66,3.59,3.59,0,0,1,1.35-.23,4.12,4.12,0,0,1,.92.1,4.28,4.28,0,0,1,.88.27,3.66,3.66,0,0,1,.78.42L68.9,15.3a3.79,3.79,0,0,0-.84-.34,3.11,3.11,0,0,0-.83-.13,1.89,1.89,0,0,0-.75.12c-.18.07-.27.17-.27.31a.24.24,0,0,0,.14.23,1.08,1.08,0,0,0,.36.13l.62.08h.11l.1,0h.11A6.46,6.46,0,0,1,68.8,16a1.5,1.5,0,0,1,.76.51,1.78,1.78,0,0,1,.31,1.14,1.78,1.78,0,0,1-1.19,1.77,3.71,3.71,0,0,1-1.41.24Z" class="cls-6"/><path d="M72.94,19.61l-.51-.1a4.76,4.76,0,0,1-1-.28,4,4,0,0,1-.79-.45l1-1.24a3.51,3.51,0,0,0,.92.43,2.77,2.77,0,0,0,.91.16,2.45,2.45,0,0,0,.87-.13c.21-.08.31-.2.31-.35a.37.37,0,0,0-.13-.31.86.86,0,0,0-.35-.15c-.14,0-.34-.05-.59-.08l-.21,0-.22,0h-.1A6.2,6.2,0,0,1,72,16.84a1.39,1.39,0,0,1-.7-.5A1.7,1.7,0,0,1,71,15.28a1.72,1.72,0,0,1,1.14-1.7,3.59,3.59,0,0,1,1.35-.23,4.05,4.05,0,0,1,.92.1,4.28,4.28,0,0,1,.88.27,3.43,3.43,0,0,1,.78.42l-.95,1.16a3.72,3.72,0,0,0-.83-.34,3.18,3.18,0,0,0-.84-.13,1.89,1.89,0,0,0-.75.12c-.18.07-.27.17-.27.31a.25.25,0,0,0,.14.23,1.17,1.17,0,0,0,.36.13l.62.08h.11l.1,0h.11A6.29,6.29,0,0,1,75,16a1.5,1.5,0,0,1,.76.51,1.78,1.78,0,0,1,.32,1.14,1.83,1.83,0,0,1-.31,1.08,1.9,1.9,0,0,1-.89.69,3.71,3.71,0,0,1-1.41.24Z" class="cls-6"/></svg>