<svg id="Layer_1" data-name="Layer 1" xmlns="http://www.w3.org/2000/svg" xmlns:xlink="http://www.w3.org/1999/xlink" viewBox="0 0 92 30"><defs><style>.cls-1{fill:none;}.cls-2{fill:#c1272d;}.cls-3{fill:#fff;}.cls-4{opacity:0.21;}.cls-5{clip-path:url(#clip-path);}</style><clipPath id="clip-path"><rect class="cls-1" x="10" y="-81" width="72" height="16"/></clipPath></defs><title>inactive</title><rect class="cls-2" x="10" y="7" width="72" height="16"/><path class="cls-3" d="M27.68,19.52H26V11h1.67Z"/><path class="cls-3" d="M29.32,13.44h1.6v6.08h-1.6Zm3.51,2.4a.94.94,0,0,0-.25-.7,1,1,0,0,0-.72-.24.9.9,0,0,0-.69.25.92.92,0,0,0-.25.7L30.8,14.5a2.21,2.21,0,0,1,.66-.86,1.59,1.59,0,0,1,1-.29,1.82,1.82,0,0,1,1.49.65,2.83,2.83,0,0,1,.53,1.83v3.69H32.83Z"/><path class="cls-3" d="M36.21,19.14a1.88,1.88,0,0,1-.48-1.41,1.66,1.66,0,0,1,.54-1.35,2.44,2.44,0,0,1,1.63-.46h1.52l.08,1.23H37.9a.89.89,0,0,0-.54.14.53.53,0,0,0-.18.44.47.47,0,0,0,.22.44,1.33,1.33,0,0,0,.7.14,2.31,2.31,0,0,0,.95-.14.49.49,0,0,0,.32-.46l.12.89a.8.8,0,0,1-.3.55,1.85,1.85,0,0,1-.67.35,3.35,3.35,0,0,1-.85.11A2,2,0,0,1,36.21,19.14Zm3.16-3.47a.8.8,0,0,0-.28-.65,1.21,1.21,0,0,0-.8-.23,1.92,1.92,0,0,0-.67.11,2,2,0,0,0-.6.31l-1-1a2.4,2.4,0,0,1,1-.65,3.73,3.73,0,0,1,1.32-.23,3.11,3.11,0,0,1,1.36.27,1.9,1.9,0,0,1,.86.77,2.37,2.37,0,0,1,.3,1.22v3.91H39.37Z"/><path class="cls-3" d="M44.11,19.61l-.61-.33a2.17,2.17,0,0,1-1-1,3.38,3.38,0,0,1-.32-1.52v-.65a3.33,3.33,0,0,1,.32-1.51,2.23,2.23,0,0,1,1-1A3.08,3.08,0,0,1,45,13.35a3.56,3.56,0,0,1,.94.12,2.44,2.44,0,0,1,.79.33,2.12,2.12,0,0,1,.59.52l-1,1a1.69,1.69,0,0,0-.52-.32,1.88,1.88,0,0,0-.62-.11,1.33,1.33,0,0,0-.95.32,1.25,1.25,0,0,0-.33.92v.65a1.27,1.27,0,0,0,.33.94,1.29,1.29,0,0,0,.95.33,1.68,1.68,0,0,0,.63-.12,1.41,1.41,0,0,0,.51-.35l1,1.06a2.11,2.11,0,0,1-.59.52,2.93,2.93,0,0,1-.79.33,4,4,0,0,1-.94.11Z"/><path class="cls-3" d="M47.92,13.44h3v1.37h-3Zm1,5.7a1.71,1.71,0,0,1-.38-1.2V11.67h1.61v5.87a.55.55,0,0,0,.09.34.28.28,0,0,0,.25.12h.4v1.55h-.81A1.45,1.45,0,0,1,48.92,19.14Z"/><path class="cls-3" d="M52.21,11h1.61v1.61H52.21Zm0,2.44h1.61v6.08H52.21Z"/><path class="cls-3" d="M58.77,13.44h1.6l-2.28,6.08H57l-2.28-6.08h1.6l1.25,3.81Z"/><path class="cls-3" d="M62.92,19.61l-.62-.32a2.09,2.09,0,0,1-.95-.93A3.08,3.08,0,0,1,61,16.88V16.2a3.44,3.44,0,0,1,.31-1.54,2.11,2.11,0,0,1,.92-1,2.85,2.85,0,0,1,1.45-.34,2.28,2.28,0,0,1,1.36.4,2.4,2.4,0,0,1,.86,1.16,4.94,4.94,0,0,1,.3,1.83v.4H62.06V16.05h2.7l0-.14a1.43,1.43,0,0,0-.33-.81.94.94,0,0,0-.71-.29,1.16,1.16,0,0,0-.9.35,1.34,1.34,0,0,0-.32,1v.78a1.26,1.26,0,0,0,.35,1,1.3,1.3,0,0,0,1,.34,2,2,0,0,0,.64-.11,2,2,0,0,0,.57-.33l1,.93a3.46,3.46,0,0,1-1.06.67,3.21,3.21,0,0,1-1.2.24Z"/></svg>