<svg xmlns="http://www.w3.org/2000/svg" xmlns:xlink="http://www.w3.org/1999/xlink" x="0" y="0" baseProfile="tiny" version="1.2" viewBox="0 0 586.3 578.7" xml:space="preserve"><g id="Layer_2" display="none"><rect width="590.7" height="590.7" y="-12" display="inline"/></g><g id="Layer_1"><ellipse cx="283.6" cy="331" fill="none" stroke="#FFF" stroke-miterlimit="10" stroke-width="40" rx="276" ry="102.1" transform="matrix(0.9294 -0.3692 0.3692 0.9294 -102.175 128.0965)"/><circle cx="420.1" cy="96.2" r="20.9" fill="#FFF"/><path fill="#FFF" d="M420.1,122.1c-14.3,0-25.9-11.6-25.9-25.9s11.6-25.9,25.9-25.9c14.3,0,25.9,11.6,25.9,25.9c0,0,0,0,0,0 C445.9,110.5,434.3,122.1,420.1,122.1z M420.1,80.4c-8.8,0-15.9,7.1-15.9,15.9s7.1,15.9,15.9,15.9s15.9-7.1,15.9-15.9c0,0,0,0,0,0 C435.9,87.5,428.8,80.4,420.1,80.4z"/><circle cx="283.6" cy="320.2" r="191.1" fill="#FFF"/><circle cx="176.3" cy="43.3" r="6.4" fill="#FFF"/><circle cx="359.1" cy="24.2" r="6.4" fill="#FFF"/><circle cx="477.4" cy="88.8" r="6.4" fill="#FFF"/><circle cx="449.8" cy="9.8" r="9.8" fill="#FFF"/></g></svg>