<svg xmlns="http://www.w3.org/2000/svg" viewBox="0 0 500 194"><defs><style>.a{fill:#fff}.b{fill:#f73a00}</style></defs><title>quote</title><rect width="500" height="500" y="-153" class="a"/><path d="M130.62,36.94V18.43h3.52l4.27,7.93a59.6,59.6,0,0,1,2.85,6.1h.06c-.21-2.43-.3-5-.3-7.93V18.43h3V36.94h-3.26l-4.32-8.06a61.16,61.16,0,0,1-2.93-6.24l-.08,0c.14,2.32.2,4.82.2,8.09v6.19Z"/><path d="M159,30.15c0,5.06-3.25,7.06-6.25,7.06-3.49,0-6.11-2.53-6.11-6.88,0-4.51,2.73-7,6.3-7S159,26,159,30.15Zm-9.05.11c0,2.47,1,4.56,2.91,4.56s2.83-2.1,2.83-4.59c0-2.05-.75-4.54-2.83-4.54S150,28.12,150,30.26Z"/><path d="M165.4,19.82v3.75h3V26h-3v6.21c0,1.63.5,2.34,1.62,2.34a4.56,4.56,0,0,0,1.19-.13l.07,2.49a7.45,7.45,0,0,1-2.3.31,3.72,3.72,0,0,1-2.74-1c-.7-.74-1-1.89-1-3.71V26h-1.82v-2.4h1.82v-3Z"/><path d="M170.73,17.59H174v7.68H174a4.47,4.47,0,0,1,1.52-1.41,4.27,4.27,0,0,1,2.16-.57c2.22,0,4.25,1.59,4.25,5.61v8h-3.24V29.18c0-1.79-.58-3.22-2.26-3.22a2.47,2.47,0,0,0-2.34,1.83,3.2,3.2,0,0,0-.14,1v8.14h-3.25Z"/><path d="M188.69,19.9a1.73,1.73,0,0,1-1.83,1.79,1.79,1.79,0,1,1,1.83-1.79Zm-3.41,17V23.57h3.25V36.94Z"/><path d="M191.9,27.48c0-1.53-.05-2.74-.11-3.91h2.83l.16,1.88h.07a4.5,4.5,0,0,1,3.93-2.16c2.3,0,4.35,1.57,4.35,5.46v8.19h-3.25V29.12c0-1.75-.57-3.16-2.25-3.16a2.47,2.47,0,0,0-2.33,1.88,3.59,3.59,0,0,0-.15,1.11v8H191.9Z"/><path d="M217.73,23.57c-.06,1-.11,2.13-.11,3.95v7.57c0,2.91-.55,4.75-1.83,5.94A7,7,0,0,1,211,42.6a9,9,0,0,1-4.2-.93l.68-2.49a7.28,7.28,0,0,0,3.49.89c2.06,0,3.47-1.15,3.47-3.91V35.05h0a3.93,3.93,0,0,1-3.47,1.81c-3.13,0-5.19-2.83-5.19-6.52,0-4.49,2.63-7,5.55-7a3.75,3.75,0,0,1,3.46,1.95h0l.13-1.67Zm-3.35,5.18a3.83,3.83,0,0,0-.11-.93,2.48,2.48,0,0,0-2.39-2c-1.73,0-2.91,1.71-2.91,4.38,0,2.46,1.06,4.17,2.89,4.17a2.45,2.45,0,0,0,2.37-1.85,4.17,4.17,0,0,0,.15-1.17Z"/><path d="M229.65,19.9a1.73,1.73,0,0,1-1.83,1.79,1.79,1.79,0,1,1,1.83-1.79Zm-3.41,17V23.57h3.25V36.94Z"/><path d="M232.86,27.48c0-1.53-.05-2.74-.11-3.91h2.83l.16,1.88h.07a4.5,4.5,0,0,1,3.93-2.16c2.3,0,4.35,1.57,4.35,5.46v8.19h-3.25V29.12c0-1.75-.57-3.16-2.25-3.16a2.47,2.47,0,0,0-2.33,1.88,3.59,3.59,0,0,0-.15,1.11v8h-3.25Z"/><path d="M254.76,23.57l2.14,7.2c.24.85.48,1.8.66,2.56h.07c.19-.74.41-1.71.63-2.57l1.86-7.19h3.39l-3.09,9.25c-1.5,4.36-2.64,6.77-4.19,8.3a6.89,6.89,0,0,1-3.31,1.82l-.82-2.75a6.19,6.19,0,0,0,3.56-3.11,1.35,1.35,0,0,0,.2-.6,1.44,1.44,0,0,0-.15-.61l-4.5-12.3Z"/><path d="M276.58,30.15c0,5.06-3.24,7.06-6.24,7.06-3.49,0-6.11-2.53-6.11-6.88,0-4.51,2.73-7,6.3-7S276.58,26,276.58,30.15Zm-9.05.11c0,2.47,1,4.56,2.91,4.56s2.84-2.1,2.84-4.59c0-2.05-.75-4.54-2.84-4.54S267.53,28.12,267.53,30.26Z"/><path d="M290.27,33c0,1.55.05,2.86.11,4h-2.83l-.17-1.84h-.07a4.48,4.48,0,0,1-3.89,2.11c-2.44,0-4.29-1.58-4.29-5.68v-8h3.25V31c0,2.13.6,3.52,2.21,3.52a2.44,2.44,0,0,0,2.25-1.65,3,3,0,0,0,.18-1.08V23.57h3.25Z"/><path d="M293.64,27.71c0-1.63-.05-3-.11-4.14h2.81l.14,2.39h.09a3.73,3.73,0,0,1,3.37-2.67,3.21,3.21,0,0,1,.74.07v3.11a4.26,4.26,0,0,0-.88-.08A2.85,2.85,0,0,0,297,28.87a5.82,5.82,0,0,0-.1,1.1v7h-3.24Z"/><path d="M308,17.59h3.25V36.94H308Z"/><path d="M318.08,19.9a1.8,1.8,0,1,1-1.79-1.79A1.73,1.73,0,0,1,318.08,19.9Zm-3.41,17V23.57h3.25V36.94Z"/><path d="M321.71,36.94V26h-1.79v-2.4h1.79V23a6.07,6.07,0,0,1,1.52-4.4,4.76,4.76,0,0,1,3.34-1.26,6.21,6.21,0,0,1,2.08.32l-.27,2.51a3.69,3.69,0,0,0-1.35-.23c-1.57,0-2.09,1.38-2.09,2.95v.7h2.76V26H325v11Z"/><path d="M331.67,31.14c.07,2.6,1.8,3.58,3.78,3.58a8.92,8.92,0,0,0,3.3-.58l.47,2.27a11.11,11.11,0,0,1-4.27.78c-4.07,0-6.4-2.63-6.4-6.74,0-3.91,2.2-7.16,6.06-7.16s5.3,3.27,5.3,6.39a8.11,8.11,0,0,1-.1,1.46Zm5.2-2.27c0-1.51-.57-3.31-2.47-3.31s-2.61,1.88-2.73,3.31Z"/><path d="M351.13,19.9a1.8,1.8,0,1,1-1.79-1.79A1.73,1.73,0,0,1,351.13,19.9Zm-3.41,17V23.57H351V36.94Z"/><path d="M354.16,33.93a6.55,6.55,0,0,0,3.08.89c1.35,0,2-.6,2-1.51s-.51-1.37-2-2c-2.43-1-3.4-2.36-3.4-3.88,0-2.34,1.87-4.13,4.78-4.13a6.89,6.89,0,0,1,3.25.76l-.65,2.31a5.21,5.21,0,0,0-2.53-.71c-1.14,0-1.76.62-1.76,1.41s.55,1.22,2.12,1.9c2.23.92,3.3,2.18,3.31,4.06,0,2.52-1.9,4.17-5.12,4.17a7.52,7.52,0,0,1-3.71-.89Z"/><path d="M377.15,36.94l-.22-1.45h-.07a4.4,4.4,0,0,1-3.61,1.72,3.82,3.82,0,0,1-4-4c0-3.4,3-5,7.33-5V28c0-1-.41-2.35-2.5-2.34a6.33,6.33,0,0,0-3.26.92l-.64-2.14a9,9,0,0,1,4.5-1.12c4,0,5.15,2.6,5.15,5.51v5a19.81,19.81,0,0,0,.2,3.17Zm-.45-6.59c-2,0-4.22.43-4.22,2.55a1.74,1.74,0,0,0,1.78,2,2.44,2.44,0,0,0,2.36-1.75,2.94,2.94,0,0,0,.08-.72Z"/><path d="M383,33.93a6.58,6.58,0,0,0,3.08.89c1.35,0,2-.6,2-1.51s-.5-1.37-2-2c-2.42-1-3.4-2.36-3.39-3.88,0-2.34,1.87-4.13,4.77-4.13a6.89,6.89,0,0,1,3.25.76l-.65,2.31a5.17,5.17,0,0,0-2.52-.71c-1.15,0-1.77.62-1.77,1.41s.55,1.22,2.12,1.9c2.23.92,3.3,2.18,3.31,4.06,0,2.52-1.9,4.17-5.12,4.17a7.52,7.52,0,0,1-3.71-.89Z"/><path d="M133.87,52.85A1.72,1.72,0,0,1,132,54.63a1.7,1.7,0,0,1-1.75-1.78,1.8,1.8,0,0,1,3.59,0Zm-3.41,17V56.52h3.25V69.88Z"/><path d="M137.08,60.43c0-1.54-.06-2.75-.11-3.91h2.78l.16,1.85H140a4.29,4.29,0,0,1,3.81-2.13,3.52,3.52,0,0,1,3.45,2.3h.06a5.14,5.14,0,0,1,1.54-1.6,4.29,4.29,0,0,1,2.46-.7c2.19,0,4.13,1.55,4.13,5.54v8.1h-3.18v-7.6c0-2.05-.6-3.39-2.13-3.39A2.31,2.31,0,0,0,148,60.6a4.26,4.26,0,0,0-.15,1.11v8.17h-3.18v-8c0-1.68-.58-3-2.06-3a2.4,2.4,0,0,0-2.19,1.83,3.49,3.49,0,0,0-.15,1.1v8.06h-3.18Z"/><path d="M158.76,60.88c0-1.76-.06-3.15-.11-4.36h2.84l.17,1.92h.05a4.53,4.53,0,0,1,4-2.2c2.94,0,5.13,2.7,5.13,6.82,0,4.85-2.74,7.1-5.53,7.1a3.81,3.81,0,0,1-3.31-1.67H162v6.78h-3.24ZM162,64.5a3.77,3.77,0,0,0,.11,1,2.62,2.62,0,0,0,2.53,2.12c1.94,0,3-1.87,3-4.42s-1-4.33-2.92-4.33a2.76,2.76,0,0,0-2.57,2.26A3.3,3.3,0,0,0,162,62Z"/><path d="M185.14,63.1c0,5.05-3.25,7.06-6.25,7.06-3.49,0-6.11-2.53-6.11-6.88,0-4.52,2.73-7,6.3-7S185.14,58.94,185.14,63.1Zm-9,.1c0,2.48,1,4.56,2.9,4.56s2.84-2.1,2.84-4.59c0-2.05-.75-4.53-2.84-4.53S176.09,61.06,176.09,63.2Z"/><path d="M187.75,60.65c0-1.62-.05-3-.11-4.13h2.82l.13,2.38h.09a3.73,3.73,0,0,1,3.38-2.66,3.31,3.31,0,0,1,.74.06v3.11a4.41,4.41,0,0,0-.88-.08,2.87,2.87,0,0,0-2.83,2.48,5.9,5.9,0,0,0-.1,1.1v7h-3.24Z"/><path d="M201.2,52.76v3.76h3v2.4h-3v6.2c0,1.64.5,2.35,1.62,2.35a5,5,0,0,0,1.19-.13l.07,2.48a7.16,7.16,0,0,1-2.3.31,3.71,3.71,0,0,1-2.74-1c-.7-.73-1-1.88-1-3.71V58.92h-1.81v-2.4H198v-3Z"/><path d="M213.5,69.88l-.22-1.45h-.07a4.38,4.38,0,0,1-3.61,1.73,3.83,3.83,0,0,1-4-4c0-3.39,3-5,7.33-5v-.26c0-1-.41-2.35-2.5-2.34a6.33,6.33,0,0,0-3.26.92l-.64-2.13a9,9,0,0,1,4.5-1.12c4,0,5.15,2.6,5.15,5.5v5a20.86,20.86,0,0,0,.2,3.17Zm-.44-6.59c-2,0-4.23.43-4.23,2.55a1.75,1.75,0,0,0,1.78,2,2.42,2.42,0,0,0,2.45-2.47Z"/><path d="M219.54,60.43c0-1.54,0-2.75-.11-3.91h2.83l.16,1.87h.08a4.49,4.49,0,0,1,3.92-2.15c2.3,0,4.35,1.57,4.35,5.46v8.18h-3.24V62.06c0-1.74-.58-3.16-2.26-3.16a2.5,2.5,0,0,0-2.33,1.88,3.61,3.61,0,0,0-.15,1.12v8h-3.25Z"/><path d="M237.71,52.76v3.76h3v2.4h-3v6.2c0,1.64.5,2.35,1.62,2.35a5,5,0,0,0,1.19-.13l.07,2.48a7.16,7.16,0,0,1-2.3.31,3.72,3.72,0,0,1-2.74-1c-.7-.73-1-1.88-1-3.71V58.92H232.7v-2.4h1.82v-3Z"/><path d="M255.28,69.88l-.21-1.45H255a4.37,4.37,0,0,1-3.61,1.73,3.82,3.82,0,0,1-3.95-4c0-3.39,3-5,7.32-5v-.26c0-1-.4-2.35-2.5-2.34a6.35,6.35,0,0,0-3.26.92l-.64-2.13a9,9,0,0,1,4.5-1.12c4,0,5.16,2.6,5.16,5.5v5a21,21,0,0,0,.19,3.17Zm-.44-6.59c-2,0-4.23.43-4.23,2.55a1.75,1.75,0,0,0,1.79,2,2.42,2.42,0,0,0,2.44-2.47Z"/><path d="M261.15,66.87a6.54,6.54,0,0,0,3.07.9c1.36,0,2-.61,2-1.51s-.51-1.37-2-2c-2.43-1-3.41-2.36-3.4-3.88,0-2.33,1.87-4.12,4.78-4.12a7,7,0,0,1,3.25.75l-.65,2.31a5.21,5.21,0,0,0-2.53-.71c-1.14,0-1.76.62-1.76,1.41s.55,1.22,2.12,1.9c2.23.92,3.3,2.18,3.31,4.06,0,2.52-1.9,4.17-5.12,4.17a7.61,7.61,0,0,1-3.71-.88Z"/><path d="M279.25,56.52l2.14,7.2c.24.84.48,1.8.66,2.55h.07c.18-.74.41-1.71.63-2.56l1.86-7.19H288l-3.09,9.24c-1.51,4.36-2.64,6.78-4.19,8.3a6.85,6.85,0,0,1-3.31,1.82l-.82-2.75a5.9,5.9,0,0,0,1.91-1A6,6,0,0,0,280.15,70a1.32,1.32,0,0,0,.2-.6,1.65,1.65,0,0,0-.15-.61l-4.5-12.29Z"/><path d="M301.07,63.1c0,5.05-3.24,7.06-6.25,7.06-3.49,0-6.11-2.53-6.11-6.88,0-4.52,2.74-7,6.3-7S301.07,58.94,301.07,63.1Zm-9.05.1c0,2.48,1,4.56,2.91,4.56s2.83-2.1,2.83-4.59c0-2.05-.75-4.53-2.83-4.53S292,61.06,292,63.2Z"/><path d="M314.76,65.91c0,1.55.05,2.87.11,4H312l-.17-1.83h-.07a4.48,4.48,0,0,1-3.89,2.11c-2.44,0-4.29-1.58-4.29-5.68v-8h3.25V64c0,2.12.59,3.52,2.21,3.52a2.46,2.46,0,0,0,2.25-1.66,3.13,3.13,0,0,0,.18-1.08V56.52h3.25Z"/><path d="M327.16,52.76v3.76h3v2.4h-3v6.2c0,1.64.49,2.35,1.62,2.35a5.11,5.11,0,0,0,1.19-.13l.06,2.48a7.13,7.13,0,0,1-2.29.31,3.73,3.73,0,0,1-2.75-1c-.7-.73-1-1.88-1-3.71V58.92h-1.82v-2.4H324v-3Z"/><path d="M332.49,50.54h3.24v7.68h.06a4.41,4.41,0,0,1,1.52-1.42,4.32,4.32,0,0,1,2.15-.56c2.23,0,4.26,1.58,4.26,5.6v8h-3.25V62.13c0-1.79-.58-3.22-2.26-3.22a2.46,2.46,0,0,0-2.34,1.82,3.27,3.27,0,0,0-.14,1v8.13h-3.24Z"/><path d="M350.45,52.85a1.73,1.73,0,0,1-1.84,1.78,1.7,1.7,0,0,1-1.75-1.78,1.8,1.8,0,0,1,3.59,0Zm-3.41,17V56.52h3.24V69.88Z"/><path d="M353.65,60.43c0-1.54,0-2.75-.11-3.91h2.83l.16,1.87h.07a4.52,4.52,0,0,1,3.93-2.15c2.3,0,4.35,1.57,4.35,5.46v8.18h-3.24V62.06c0-1.74-.58-3.16-2.26-3.16a2.49,2.49,0,0,0-2.33,1.88,3.61,3.61,0,0,0-.15,1.12v8h-3.25Z"/><path d="M371.44,62.42h.05c.3-.56.63-1.12.95-1.61l2.92-4.29h3.79L374.67,62l5,7.86h-3.88L372.44,64l-1,1.31v4.58H368.2V50.54h3.24Z"/><path d="M389.84,52.85a1.8,1.8,0,1,1-1.79-1.79A1.72,1.72,0,0,1,389.84,52.85Zm-3.41,17V56.52h3.25V69.88Z"/><path d="M396.8,52.76v3.76h3v2.4h-3v6.2c0,1.64.5,2.35,1.62,2.35a5,5,0,0,0,1.19-.13l.07,2.48a7.16,7.16,0,0,1-2.3.31,3.72,3.72,0,0,1-2.74-1c-.7-.73-1-1.88-1-3.71V58.92h-1.82v-2.4h1.82v-3Z"/><path d="M133.87,85.79A1.72,1.72,0,0,1,132,87.57a1.7,1.7,0,0,1-1.75-1.78,1.8,1.8,0,0,1,3.59,0Zm-3.41,17V89.46h3.25v13.36Z"/><path d="M136.89,99.82a6.62,6.62,0,0,0,3.08.89c1.36,0,2-.6,2-1.51s-.5-1.37-2-2c-2.43-1-3.41-2.37-3.4-3.88,0-2.34,1.87-4.13,4.78-4.13a7,7,0,0,1,3.25.76l-.65,2.31a5.25,5.25,0,0,0-2.53-.71c-1.14,0-1.76.61-1.76,1.41s.55,1.22,2.11,1.89c2.24.92,3.31,2.19,3.32,4.07,0,2.52-1.9,4.17-5.13,4.17a7.66,7.66,0,0,1-3.71-.89Z"/><path d="M154.92,89.46l1.27,6.07c.29,1.44.57,2.86.78,4.28H157c.25-1.4.63-2.9,1-4.24l1.63-6.11h2.59l1.55,6c.38,1.54.72,3,1,4.4h.06c.19-1.41.47-2.85.8-4.38l1.34-6h3.2l-4,13.36h-2.93l-1.5-5.45a42.36,42.36,0,0,1-.92-4.22h-.05a35.25,35.25,0,0,1-.95,4.23l-1.59,5.44h-3l-3.75-13.36Z"/><path d="M172.19,83.48h3.24v7.68h.06A4.5,4.5,0,0,1,177,89.74a4.32,4.32,0,0,1,2.15-.56c2.23,0,4.26,1.59,4.26,5.6v8h-3.25V95.07c0-1.79-.58-3.22-2.26-3.22a2.47,2.47,0,0,0-2.34,1.83,3.47,3.47,0,0,0-.14,1v8.13h-3.24Z"/><path d="M189.1,97c.07,2.59,1.8,3.58,3.78,3.58a9,9,0,0,0,3.31-.58l.47,2.26a11,11,0,0,1-4.27.79c-4.07,0-6.41-2.63-6.41-6.74,0-3.91,2.2-7.16,6.07-7.16s5.3,3.27,5.3,6.39a7.89,7.89,0,0,1-.11,1.46Zm5.21-2.27c0-1.51-.57-3.31-2.47-3.31s-2.62,1.88-2.74,3.31Z"/><path d="M199.89,93.37c0-1.53-.06-2.74-.11-3.91h2.83l.16,1.88h.07a4.48,4.48,0,0,1,3.93-2.16c2.3,0,4.35,1.57,4.35,5.46v8.18h-3.25V95c0-1.74-.58-3.15-2.25-3.15a2.47,2.47,0,0,0-2.33,1.88,3.52,3.52,0,0,0-.16,1.11v8h-3.24Z"/><path d="M221.79,89.46l2.14,7.2c.24.85.48,1.8.66,2.55h.07c.18-.74.41-1.7.63-2.56l1.86-7.19h3.39l-3.09,9.25c-1.51,4.36-2.64,6.77-4.19,8.3a6.81,6.81,0,0,1-3.31,1.81l-.82-2.74a6.27,6.27,0,0,0,3.56-3.11,1.35,1.35,0,0,0,.2-.61,1.65,1.65,0,0,0-.15-.61l-4.5-12.29Z"/><path d="M243.61,96c0,5.06-3.24,7.06-6.25,7.06-3.48,0-6.11-2.53-6.11-6.88,0-4.52,2.74-7,6.3-7S243.61,91.88,243.61,96Zm-9.05.11c0,2.47,1,4.55,2.91,4.55s2.83-2.1,2.83-4.58c0-2.06-.75-4.54-2.83-4.54S234.56,94,234.56,96.15Z"/><path d="M257.3,98.86c0,1.54.05,2.86.11,4h-2.83l-.17-1.83h-.07a4.48,4.48,0,0,1-3.89,2.11c-2.44,0-4.29-1.58-4.29-5.68v-8h3.25v7.46c0,2.12.59,3.52,2.21,3.52a2.46,2.46,0,0,0,2.25-1.66,3.13,3.13,0,0,0,.18-1.08V89.46h3.25Z"/><path d="M272.91,102.82l-.22-1.45h-.07A4.38,4.38,0,0,1,269,103.1a3.83,3.83,0,0,1-4-4c0-3.39,3-5,7.33-5v-.26c0-1-.41-2.35-2.5-2.34a6.23,6.23,0,0,0-3.26.92L266,90.3a9,9,0,0,1,4.5-1.12c4,0,5.15,2.6,5.15,5.51v5a19.59,19.59,0,0,0,.2,3.16Zm-.45-6.58c-2,0-4.22.42-4.22,2.55a1.74,1.74,0,0,0,1.78,2A2.44,2.44,0,0,0,272.38,99a2.53,2.53,0,0,0,.08-.72Z"/><path d="M279,93.6c0-1.63-.05-3-.11-4.14h2.81l.14,2.38h.09a3.74,3.74,0,0,1,3.37-2.66,3.36,3.36,0,0,1,.75.07v3.11a3.81,3.81,0,0,0-.89-.08,2.85,2.85,0,0,0-2.82,2.48,5.79,5.79,0,0,0-.1,1.09v7H279Z"/><path d="M290.16,97c.07,2.59,1.8,3.58,3.78,3.58a8.92,8.92,0,0,0,3.3-.58l.47,2.26a10.91,10.91,0,0,1-4.27.79c-4.07,0-6.4-2.63-6.4-6.74,0-3.91,2.2-7.16,6.06-7.16s5.3,3.27,5.3,6.39a9.18,9.18,0,0,1-.1,1.46Zm5.2-2.27c0-1.51-.57-3.31-2.47-3.31s-2.61,1.88-2.73,3.31Z"/><path d="M310,85.71v3.75h3v2.4h-3v6.21c0,1.63.49,2.34,1.62,2.34a4.61,4.61,0,0,0,1.19-.13l.06,2.49a7.38,7.38,0,0,1-2.29.31,3.67,3.67,0,0,1-2.74-1c-.71-.73-1-1.88-1-3.7V91.86H305v-2.4h1.81v-3Z"/><path d="M315.3,83.48h3.24v7.68h.06a4.6,4.6,0,0,1,1.52-1.42,4.35,4.35,0,0,1,2.15-.56c2.23,0,4.26,1.59,4.26,5.6v8h-3.25V95.07c0-1.79-.58-3.22-2.26-3.22a2.48,2.48,0,0,0-2.34,1.83,3.47,3.47,0,0,0-.14,1v8.13H315.3Z"/><path d="M333.26,85.79a1.72,1.72,0,0,1-1.84,1.78,1.7,1.7,0,0,1-1.75-1.78,1.8,1.8,0,0,1,3.59,0Zm-3.41,17V89.46h3.25v13.36Z"/><path d="M336.47,93.37c0-1.53-.06-2.74-.11-3.91h2.82l.17,1.88h.07a4.48,4.48,0,0,1,3.93-2.16c2.3,0,4.35,1.57,4.35,5.46v8.18h-3.25V95c0-1.74-.58-3.15-2.25-3.15a2.47,2.47,0,0,0-2.33,1.88,3.52,3.52,0,0,0-.16,1.11v8h-3.24Z"/><path d="M354.25,95.37h.05c.3-.57.64-1.12.95-1.61l2.92-4.3H362L357.48,95l5,7.86h-3.88l-3.39-5.89-1,1.31v4.58H351V83.48h3.24Z"/><path d="M367.6,85.79a1.72,1.72,0,0,1-1.83,1.78A1.7,1.7,0,0,1,364,85.79a1.79,1.79,0,0,1,3.58,0Zm-3.41,17V89.46h3.25v13.36Z"/><path d="M370.81,93.37c0-1.53-.05-2.74-.11-3.91h2.83l.16,1.88h.07a4.5,4.5,0,0,1,3.93-2.16c2.3,0,4.35,1.57,4.35,5.46v8.18h-3.25V95c0-1.74-.57-3.15-2.25-3.15a2.47,2.47,0,0,0-2.33,1.88,3.55,3.55,0,0,0-.15,1.11v8h-3.25Z"/><path d="M396.64,89.46c-.06,1-.11,2.13-.11,4V101c0,2.91-.55,4.75-1.83,5.94a7,7,0,0,1-4.82,1.57,8.86,8.86,0,0,1-4.2-.94l.68-2.48a7.28,7.28,0,0,0,3.49.89c2.06,0,3.47-1.15,3.47-3.91v-1.11h-.05a4,4,0,0,1-3.47,1.81c-3.13,0-5.19-2.83-5.19-6.53,0-4.48,2.63-7,5.55-7a3.75,3.75,0,0,1,3.46,1.95h.05l.13-1.67Zm-3.35,5.18a3.83,3.83,0,0,0-.11-.93,2.48,2.48,0,0,0-2.39-2c-1.73,0-2.91,1.72-2.91,4.39,0,2.46,1.06,4.17,2.89,4.17a2.46,2.46,0,0,0,2.37-1.86,4.06,4.06,0,0,0,.15-1.16Z"/><path d="M137.43,135.77l-.22-1.45h-.07a4.38,4.38,0,0,1-3.61,1.73,3.83,3.83,0,0,1-4-4c0-3.39,3-5,7.33-5v-.26c0-1-.41-2.35-2.5-2.34a6.33,6.33,0,0,0-3.26.92l-.64-2.13a8.94,8.94,0,0,1,4.5-1.12c4,0,5.15,2.6,5.15,5.5v5a19.81,19.81,0,0,0,.2,3.17Zm-.44-6.59c-2,0-4.23.43-4.23,2.55a1.74,1.74,0,0,0,1.78,2,2.42,2.42,0,0,0,2.36-1.75,2.5,2.5,0,0,0,.09-.72Z"/><path d="M143.36,135.77c0-.93.11-2.42.11-3.71V116.43h3.24v7.7h0a4.26,4.26,0,0,1,3.83-2c3,0,5,2.7,5,6.73,0,4.79-2.71,7.19-5.52,7.19a4,4,0,0,1-3.74-2.18h-.06l-.16,1.9Zm3.35-5.3a3.35,3.35,0,0,0,.09.81,2.68,2.68,0,0,0,2.56,2.17c1.91,0,3-1.74,3-4.43,0-2.39-1-4.31-3-4.31a2.79,2.79,0,0,0-2.57,2.25,4,4,0,0,0-.1.88Z"/><path d="M169.85,129c0,5-3.25,7.06-6.25,7.06-3.49,0-6.11-2.54-6.11-6.88,0-4.52,2.73-7,6.3-7S169.85,124.83,169.85,129Zm-9.06.1c0,2.48,1,4.56,2.91,4.56s2.84-2.1,2.84-4.59c0-2-.75-4.54-2.84-4.54S160.79,127,160.79,129.09Z"/><path d="M183.53,131.8c0,1.55.05,2.87.11,4h-2.83l-.16-1.84h-.08a4.47,4.47,0,0,1-3.89,2.12c-2.44,0-4.28-1.58-4.28-5.68v-8h3.24v7.46c0,2.12.6,3.51,2.21,3.51a2.45,2.45,0,0,0,2.26-1.65,3.22,3.22,0,0,0,.17-1.08v-8.24h3.25Z"/><path d="M190.66,118.65v3.76h3v2.39h-3V131c0,1.64.49,2.34,1.62,2.34a5.19,5.19,0,0,0,1.19-.12l.07,2.48a7.5,7.5,0,0,1-2.3.31,3.71,3.71,0,0,1-2.74-1c-.71-.74-1-1.89-1-3.71V124.8h-1.81v-2.39h1.81v-3Z"/><path d="M204.67,118.74a1.73,1.73,0,0,1-1.84,1.78,1.79,1.79,0,1,1,1.84-1.78Zm-3.41,17V122.41h3.25v13.36Z"/><path d="M211.63,118.65v3.76h3v2.39h-3V131c0,1.64.5,2.34,1.62,2.34a5.12,5.12,0,0,0,1.19-.12l.07,2.48a7.45,7.45,0,0,1-2.3.31,3.71,3.71,0,0,1-2.74-1c-.7-.74-1-1.89-1-3.71V124.8h-1.82v-2.39h1.82v-3Z"/><path d="M216.44,133.92a2,2,0,0,1,2-2.14,2.14,2.14,0,0,1,0,4.27A2,2,0,0,1,216.44,133.92Z"/><path d="M130.69,153.47a15.75,15.75,0,0,1,2.42-.19,5,5,0,0,1,3.57,1.11,4,4,0,0,1,1.25,3.15,4.67,4.67,0,0,1-1.27,3.43,5.47,5.47,0,0,1-3.9,1.27,20.2,20.2,0,0,1-2.07-.09Zm1.14,7.8a7.6,7.6,0,0,0,1.15.06,3.38,3.38,0,0,0,3.75-3.74c0-2.08-1.16-3.4-3.56-3.4a7,7,0,0,0-1.34.12Z" class="b"/><path d="M142.86,162.17l-.11-.8h0a2.36,2.36,0,0,1-1.93.94,1.81,1.81,0,0,1-1.94-1.81c0-1.54,1.36-2.38,3.8-2.36V158a1.3,1.3,0,0,0-1.44-1.46,3,3,0,0,0-1.64.47l-.26-.77a4,4,0,0,1,2.08-.55c1.94,0,2.41,1.32,2.41,2.59v2.36a10.19,10.19,0,0,0,.09,1.52Zm-.18-3.23c-1.25,0-2.67.19-2.67,1.42a1,1,0,0,0,1.07,1.1,1.59,1.59,0,0,0,1.54-1.06,1.18,1.18,0,0,0,.06-.36Z" class="b"/><path d="M145.65,157.55c0-.66,0-1.18-.05-1.71h1l.07,1h0a2.34,2.34,0,0,1,2.09-1.18c.87,0,2.23.52,2.23,2.69v3.78h-1.14v-3.65c0-1-.39-1.88-1.47-1.88a1.67,1.67,0,0,0-1.55,1.18,2.14,2.14,0,0,0-.07.54v3.81h-1.15Z" class="b"/><path d="M154.19,154.05a.69.69,0,0,1-.73.72.67.67,0,0,1-.69-.72.71.71,0,1,1,1.42,0Zm-1.28,8.12v-6.33h1.14v6.33Z" class="b"/><path d="M156.61,159.21a2,2,0,0,0,2.16,2.2,4.13,4.13,0,0,0,1.75-.33l.21.82a5.22,5.22,0,0,1-2.11.4,3,3,0,0,1-3.12-3.19c0-1.91,1.13-3.41,3-3.41,2.06,0,2.6,1.81,2.6,3a2.4,2.4,0,0,1,0,.54Zm3.37-.82a1.64,1.64,0,0,0-1.59-1.87,1.89,1.89,0,0,0-1.77,1.87Z" class="b"/><path d="M162.51,152.88h1.15v9.29h-1.15Z" class="b"/><path d="M168.4,153.35h1.14v4.25h0c.23-.34.48-.65.7-.93l2.69-3.32h1.41l-3.19,3.75,3.44,5.07h-1.35l-2.89-4.33-.85,1v3.36H168.4Z" class="b"/><path d="M179.17,162.17l-.1-.8h0a2.37,2.37,0,0,1-1.94.94,1.8,1.8,0,0,1-1.93-1.81c0-1.54,1.36-2.38,3.8-2.36V158a1.3,1.3,0,0,0-1.44-1.46,3.06,3.06,0,0,0-1.65.47l-.26-.77a4.07,4.07,0,0,1,2.09-.55c1.93,0,2.4,1.32,2.4,2.59v2.36a10.11,10.11,0,0,0,.1,1.52Zm-.18-3.23c-1.24,0-2.67.19-2.67,1.42a1,1,0,0,0,1.08,1.1,1.59,1.59,0,0,0,1.54-1.06A1.16,1.16,0,0,0,179,160Z" class="b"/><path d="M182,152.88h1.14v4h0A2.27,2.27,0,0,1,184,156a2.34,2.34,0,0,1,1.18-.32c.86,0,2.21.52,2.21,2.7v3.77H186.2v-3.64c0-1-.38-1.88-1.46-1.88a1.66,1.66,0,0,0-1.55,1.15,1.5,1.5,0,0,0-.08.54v3.83H182Z" class="b"/><path d="M189.22,157.55c0-.66,0-1.18-.05-1.71h1l.06,1h0a2.34,2.34,0,0,1,2.09-1.18c.87,0,2.23.52,2.23,2.69v3.78h-1.14v-3.65c0-1-.39-1.88-1.46-1.88a1.65,1.65,0,0,0-1.55,1.18,1.75,1.75,0,0,0-.08.54v3.81h-1.15Z" class="b"/><path d="M197.12,159.21a2,2,0,0,0,2.17,2.2,4.2,4.2,0,0,0,1.75-.33l.2.82a5.18,5.18,0,0,1-2.11.4,3,3,0,0,1-3.11-3.19c0-1.91,1.13-3.41,3-3.41,2.07,0,2.61,1.81,2.61,3a3.21,3.21,0,0,1,0,.54Zm3.37-.82a1.64,1.64,0,0,0-1.59-1.87,1.89,1.89,0,0,0-1.76,1.87Z" class="b"/><path d="M203,157.55c0-.66,0-1.18-.05-1.71h1l.07,1h0a2.18,2.18,0,0,1,2-1.16,1.86,1.86,0,0,1,1.79,1.27h0a2.47,2.47,0,0,1,.72-.83,2.18,2.18,0,0,1,1.39-.44c.84,0,2.08.54,2.08,2.74v3.73h-1.12v-3.58c0-1.22-.45-2-1.37-2a1.5,1.5,0,0,0-1.37,1,2.13,2.13,0,0,0-.09.58v3.92H207v-3.8c0-1-.44-1.73-1.31-1.73a1.58,1.58,0,0,0-1.43,1.15,1.73,1.73,0,0,0-.09.56v3.82H203Z" class="b"/><path d="M217.44,162.17l-.1-.8h0a2.36,2.36,0,0,1-1.93.94,1.81,1.81,0,0,1-1.94-1.81c0-1.54,1.36-2.38,3.81-2.36V158a1.3,1.3,0,0,0-1.44-1.46,3,3,0,0,0-1.65.47l-.26-.77a4,4,0,0,1,2.08-.55c1.94,0,2.41,1.32,2.41,2.59v2.36a10.19,10.19,0,0,0,.09,1.52Zm-.18-3.23c-1.25,0-2.67.19-2.67,1.42a1,1,0,0,0,1.07,1.1,1.59,1.59,0,0,0,1.54-1.06,1.18,1.18,0,0,0,.06-.36Z" class="b"/><path d="M220.23,157.55c0-.66,0-1.18,0-1.71h1l.06,1h0a2.34,2.34,0,0,1,2.09-1.18c.87,0,2.23.52,2.23,2.69v3.78h-1.14v-3.65c0-1-.39-1.88-1.47-1.88a1.65,1.65,0,0,0-1.54,1.18,1.75,1.75,0,0,0-.08.54v3.81h-1.15Z" class="b"/><path d="M227.21,161.49a.78.78,0,0,1,.78-.83.83.83,0,0,1,0,1.65A.78.78,0,0,1,227.21,161.49Z" class="b"/><path d="M235.44,154.3h-2.58l.19-1h6.24l-.19,1h-2.58L235,162.17h-1.09Z" class="b"/><path d="M238.54,162.17l1.76-9.29h1.09L240.6,157h0a2.72,2.72,0,0,1,2.26-1.26,1.53,1.53,0,0,1,1.58,1.69,6.26,6.26,0,0,1-.11,1.07l-.7,3.71h-1.08l.69-3.66a5,5,0,0,0,.08-.87.92.92,0,0,0-1-1,2.72,2.72,0,0,0-2.15,2.4l-.59,3.17Z" class="b"/><path d="M245.52,162.17l1.21-6.33h1.08l-1.21,6.33Zm1.41-8.09a.72.72,0,0,1,.71-.74.64.64,0,0,1,.65.68.72.72,0,0,1-.74.73A.61.61,0,0,1,246.93,154.08Z" class="b"/><path d="M248.51,162.17l.85-4.49c.14-.7.22-1.31.3-1.84h1l-.16,1.24h0a2.8,2.8,0,0,1,2.35-1.38,1.55,1.55,0,0,1,1.6,1.76,5.62,5.62,0,0,1-.12,1l-.7,3.69h-1.08l.69-3.66a4.18,4.18,0,0,0,.09-.81c0-.63-.25-1.1-1-1.1a2.79,2.79,0,0,0-2.17,2.49l-.57,3.08Z" class="b"/><path d="M255.49,162.17l1.77-9.29h1.08l-1.11,5.82h0l.59-.63,2.23-2.23h1.34l-2.76,2.6,1.89,3.73h-1.19l-1.52-3.12-.81.71-.45,2.41Z" class="b"/><path d="M261.54,162.17l1.21-6.33h1.08l-1.2,6.33Zm1.41-8.09a.73.73,0,0,1,.72-.74.63.63,0,0,1,.64.68.71.71,0,0,1-.73.73A.62.62,0,0,1,263,154.08Z" class="b"/><path d="M264.54,162.17l.84-4.49c.14-.7.23-1.31.3-1.84h1l-.17,1.24h0a2.8,2.8,0,0,1,2.35-1.38,1.55,1.55,0,0,1,1.59,1.76,6.59,6.59,0,0,1-.11,1l-.7,3.69h-1.08l.69-3.66a5.17,5.17,0,0,0,.08-.81c0-.63-.24-1.1-1-1.1a2.79,2.79,0,0,0-2.16,2.49l-.57,3.08Z" class="b"/><path d="M271.57,163.6a3.28,3.28,0,0,0,1.68.42c1.07,0,1.9-.54,2.28-2.25l.21-1h0a2.5,2.5,0,0,1-2.2,1.34,2,2,0,0,1-1.92-2.19,4.11,4.11,0,0,1,4-4.27,5,5,0,0,1,2,.44l-1,5.23a4.71,4.71,0,0,1-1.27,2.83,3.37,3.37,0,0,1-2.21.7,3.67,3.67,0,0,1-1.9-.45Zm4.87-6.82a2.56,2.56,0,0,0-1.05-.21c-1.58,0-2.67,1.65-2.68,3.21,0,.71.25,1.52,1.21,1.52s1.88-1.17,2.11-2.41Z" class="b"/><path d="M277.25,163.78a20.25,20.25,0,0,0,1.28-3.13l1.3-.13a18.49,18.49,0,0,1-1.75,3.18Z" class="b"/><path d="M285,153.35h4.47l-.18.93h-3.39l-.56,3h3.11l-.18.92H285.2l-.76,4h-1.08Z" class="b"/><path d="M293.06,162.17a15.89,15.89,0,0,1,.14-1.64h0a2.73,2.73,0,0,1-2.45,1.78,1.86,1.86,0,0,1-1.81-2.09,4.41,4.41,0,0,1,4.37-4.52,6.19,6.19,0,0,1,1.71.24l-.65,3.3a14.14,14.14,0,0,0-.27,2.93Zm.7-5.52a2.41,2.41,0,0,0-.75-.09c-1.64,0-3,1.71-3,3.47,0,.7.25,1.39,1.08,1.39s2-1.18,2.29-2.86Z" class="b"/><path d="M295.77,161.07a2.88,2.88,0,0,0,1.36.39,1.09,1.09,0,0,0,1.2-1c0-.49-.22-.8-.87-1.17a1.87,1.87,0,0,1-1.15-1.61,2.09,2.09,0,0,1,2.29-2,2.6,2.6,0,0,1,1.32.31l-.3.82a2.34,2.34,0,0,0-1.09-.29,1,1,0,0,0-1.13,1c0,.47.3.75.87,1.07a2,2,0,0,1,1.18,1.66A2.15,2.15,0,0,1,297,162.3a2.8,2.8,0,0,1-1.57-.43Z" class="b"/><path d="M303.42,154.14l-.32,1.7h1.51l-.17.85h-1.51l-.58,3.08a5.18,5.18,0,0,0-.13,1,.54.54,0,0,0,.6.61,2,2,0,0,0,.51,0l-.05.85a2.53,2.53,0,0,1-.84.12,1.17,1.17,0,0,1-1.33-1.23,5.38,5.38,0,0,1,.14-1.19l.61-3.2H301l.16-.85H302l.27-1.42Z" class="b"/><path d="M311.26,162.17a13.49,13.49,0,0,1,.14-1.64h0a2.74,2.74,0,0,1-2.45,1.78,1.87,1.87,0,0,1-1.82-2.09,4.41,4.41,0,0,1,4.37-4.52,6.13,6.13,0,0,1,1.71.24l-.64,3.3a14.14,14.14,0,0,0-.27,2.93Zm.7-5.52a2.46,2.46,0,0,0-.75-.09c-1.64,0-3,1.71-3,3.47,0,.7.24,1.39,1.08,1.39s2-1.18,2.28-2.86Z" class="b"/><path d="M313.91,162.17l.85-4.49c.14-.7.23-1.31.3-1.84h1l-.16,1.24h0a2.79,2.79,0,0,1,2.34-1.38,1.55,1.55,0,0,1,1.6,1.76,6.59,6.59,0,0,1-.11,1l-.7,3.69h-1.09l.69-3.66a4.18,4.18,0,0,0,.09-.81c0-.63-.24-1.1-1-1.1a2.77,2.77,0,0,0-2.16,2.49l-.57,3.08Z" class="b"/><path d="M327.62,152.88l-1.39,7.28a16.54,16.54,0,0,0-.26,2h-1l.17-1.25h0a2.74,2.74,0,0,1-2.29,1.39c-1.21,0-1.88-1-1.88-2.3a4.15,4.15,0,0,1,3.91-4.31,2.76,2.76,0,0,1,1.12.22l.56-3Zm-1.82,4a1.87,1.87,0,0,0-1-.27c-1.52,0-2.7,1.62-2.7,3.3,0,.77.26,1.56,1.19,1.56s1.85-.95,2.12-2.38Z" class="b"/><path d="M330.31,160.8a3.35,3.35,0,0,0,1.88.57,1.74,1.74,0,0,0,1.9-1.66c0-.65-.37-1.14-1.29-1.65-1.12-.6-1.75-1.31-1.75-2.26a2.71,2.71,0,0,1,3-2.58,3.45,3.45,0,0,1,1.81.45l-.39.89a2.86,2.86,0,0,0-1.52-.41,1.58,1.58,0,0,0-1.75,1.44c0,.71.44,1.12,1.37,1.63a2.6,2.6,0,0,1,1.68,2.36c0,1.52-1.2,2.72-3.18,2.72a3.56,3.56,0,0,1-2.12-.61Z" class="b"/><path d="M336.25,162.17l1.77-9.29h1.08l-1.77,9.29Z" class="b"/><path d="M345.3,158.33c0,1.95-1.38,4-3.51,4a2.41,2.41,0,0,1-2.47-2.6,3.78,3.78,0,0,1,3.51-4A2.41,2.41,0,0,1,345.3,158.33Zm-4.86,1.34c0,1,.57,1.78,1.5,1.78,1.27,0,2.24-1.65,2.24-3.12,0-.74-.34-1.77-1.47-1.77C341.34,156.56,340.44,158.22,340.44,159.67Z" class="b"/><path d="M347.47,155.84l.22,3.56c.05.78,0,1.19,0,1.7h0c.15-.41.38-.95.69-1.59l1.89-3.67h.94l.4,3.61c.06.69.11,1.23.1,1.65h0c.17-.51.34-1,.6-1.6l1.71-3.66h1.1l-3.13,6.33h-1l-.42-3.44a13.82,13.82,0,0,1-.09-1.68h0c-.26.61-.45,1.09-.73,1.65L348,162.17h-1l-.58-6.33Z" class="b"/><path d="M94.35,38.06l-3.14-2.59c2.46-2.49,3.8-4.79,4-6.88H91.5V18.5h11.87V25Q103.37,32.39,94.35,38.06Z" class="b"/><path d="M109.35,38.06l-3.14-2.59c2.46-2.49,3.8-4.79,4-6.88H106.5V18.5h11.87V25Q118.37,32.39,109.35,38.06Z" class="b"/></svg>