<?xml version="1.0" encoding="utf-8"?>
<!-- Generator: Adobe Illustrator 23.0.1, SVG Export Plug-In . SVG Version: 6.00 Build 0)  -->
<svg version="1.1" id="Layer_1" xmlns="http://www.w3.org/2000/svg" xmlns:xlink="http://www.w3.org/1999/xlink" x="0px" y="0px"
	 viewBox="0 0 500 194" style="enable-background:new 0 0 500 194;" xml:space="preserve">
<style type="text/css">
	.st0{fill:#F73A00;}
</style>
<g>
	<path d="M132.4,31.4h16v20.5h-2.4v-1.5h-11.2V52h-2.3V31.4z M145.9,33.7h-11.2v6h11.2V33.7z M134.7,48.1h11.2V42h-11.2V48.1z"/>
	<path d="M168.9,35.8l1.9,1c-0.1,0.2-0.2,0.3-0.4,0.4c-1.1,2.7-3,6.3-5,9c1.3,0.8,2.4,1.7,3.2,2.5l-1.6,2.1c-1.8-2-5.8-4.6-9.1-6.1
		l1.4-1.9c1.3,0.6,2.7,1.3,4,2.1c1.5-2,2.9-4.5,3.8-6.7h-7.6c-1.4,2.7-3.1,5.3-5.1,7.3c-0.5-0.4-1.5-1-2.1-1.3
		c3.6-3.2,6.2-8.6,7.5-13l2.9,0.8c-0.1,0.2-0.3,0.3-0.6,0.3c-0.4,1.2-0.9,2.4-1.4,3.6h7.8L168.9,35.8z"/>
	<path d="M180,40.2c0.9,0.7,3.4,3.2,4,3.8l-1.4,1.8c-0.5-0.8-1.7-2.1-2.6-3.2v9.8h-2.3v-9.9c-1,2.4-2.3,4.7-3.6,6.2
		c-0.2-0.6-0.8-1.6-1.2-2.2c1.6-1.7,3.3-4.7,4.3-7.4h-3.9V37h4.3v-3.4c-1.3,0.3-2.6,0.6-3.9,0.9c-0.1-0.5-0.4-1.2-0.7-1.7
		c3.3-0.7,6.9-1.7,9-2.9l1.9,1.7c-0.1,0.1-0.2,0.1-0.6,0.1c-1,0.5-2.2,0.9-3.5,1.3v4h3.9v2.2H180V40.2z M192.1,41.8
		c1.6,3.2,3.2,7.2,3.6,9.9l-2.4,0.8c-0.1-0.6-0.3-1.4-0.5-2.2c-3.8,0.5-7.6,0.9-10.1,1.2c0,0.2-0.2,0.4-0.4,0.4l-0.8-2.7
		c0.7,0,1.4-0.1,2.3-0.2c1.4-5.1,2.9-12.7,3.6-18.5l3.2,0.6c-0.1,0.2-0.4,0.4-0.7,0.5c-0.8,5.3-2.3,12.2-3.6,17.2
		c1.9-0.2,4-0.4,6.1-0.6c-0.6-1.9-1.4-3.9-2.3-5.7L192.1,41.8z"/>
	<path d="M211.8,35.7c-1.9,0.6-4.5,1.1-7,1.3c-1,5.3-2.4,10.7-4.2,14.7l-2.4-0.9c1.9-3.8,3.3-8.6,4.2-13.7c-0.4,0-0.7,0-1.1,0
		c-1.2,0-2.3,0-3.1,0l0-2.3c0.8,0,2,0,3.2,0c0.4,0,0.9,0,1.4,0c0.2-1.4,0.4-3.1,0.5-4.6l3.2,0.3c0,0.3-0.4,0.5-0.7,0.5
		c-0.1,1-0.3,2.3-0.6,3.5c2.1-0.2,4.3-0.6,6.1-1.3L211.8,35.7z M218.2,51.3c-0.7,0-1.5,0.1-2.3,0.1c-2,0-4.1-0.2-5.4-0.5
		c-1.9-0.5-2.9-1.8-2.9-3.5c0-1.4,0.7-2.6,1.5-3.5l2,0.8c-0.8,0.9-1.2,1.7-1.2,2.4c0,1.7,1.8,2,5.4,2c1,0,1.9,0,2.9-0.1L218.2,51.3z
		 M209,39.5c2.4-0.8,5.8-1.2,8.6-1.2v2.3c-2.6-0.1-5.7,0.3-8.1,1L209,39.5z"/>
	<path d="M237.6,35.3c-3,0.7-7.1,1.2-9.9,1.3c-0.3,2.6-0.7,4.7-1,5.4c1.7-1.3,4.4-2.3,6.4-2.3c3.4,0,5.8,1.8,5.8,5.3
		c0,4.9-4.7,6.6-12.7,6.7c-0.1-0.6-0.4-1.7-0.7-2.2c6.8-0.2,10.9-1.3,10.9-4.5c0-1.9-1.2-3.1-3.7-3.1c-2,0-5.4,1.2-6.9,3.5l-2.3-1.1
		c0.7-0.8,1.6-4,1.9-7.8H220v-2.3c1.1,0,3.8,0,5.6,0c0.1-1.3,0.1-2.8,0.1-4.2l3.2,0.3c-0.1,0.4-0.3,0.5-0.7,0.6
		c0,1.1-0.1,2.3-0.2,3.3c2.4-0.1,6.5-0.6,9.2-1.4L237.6,35.3z"/>
	<path d="M251,31.1c-0.1,0.3-0.4,0.5-0.8,0.5c-0.3,1.2-0.6,3.4-0.9,4.8c0.9-0.1,1.8-0.2,2.3-0.2c3.8,0,5,2.6,5,6.2
		c0,1-0.2,3.3-0.7,5.1c-0.7,2.7-2.3,4-4.5,4c-1,0-2.3-0.5-4.3-2c0.3-0.6,0.6-1.3,0.8-2c1.8,1.3,2.8,1.6,3.5,1.6
		c1.2,0,1.8-0.8,2.3-2.3c0.4-1.3,0.6-3.4,0.6-4.4c0-2.5-0.8-3.9-2.9-3.9c-0.6,0-1.5,0-2.6,0.2c-1.2,4.6-2.5,8.9-4.7,12.7l-2.2-1.1
		c2.1-3.7,3.4-7.2,4.5-11.4l-4,0.6l-0.2-2.4l4.6-0.5c0.3-1.8,0.7-3.9,0.9-5.9L251,31.1z M258,34.5c-0.6-1-2-2.6-3-3.4l1.1-0.8
		c1.1,0.9,2.4,2.3,3,3.3L258,34.5z M261.1,44.2c-0.7-3.2-2.4-6.3-4.4-8l2-1.3c2.3,2,4.2,5.1,4.9,8.4L261.1,44.2z M261.7,33.5
		c-0.6-1-2-2.6-3-3.3l1.2-0.8c1.1,0.9,2.4,2.3,3,3.3L261.7,33.5z"/>
	<path d="M270.6,39.4v7.8c1.6,2.6,4.8,2.6,9.1,2.6c2.8,0,6.1-0.1,8.2-0.2c-0.3,0.5-0.6,1.6-0.7,2.2c-1.8,0.1-4.5,0.1-7,0.1
		c-5.2,0-8.3,0-10.5-2.9c-1,1-2.1,2-3,2.8c0,0.2-0.1,0.3-0.3,0.5l-1.2-2.4c1-0.7,2.2-1.6,3.2-2.5v-5.9h-3v-2.1H270.6z M267.4,30.5
		c1.4,1.1,3.1,2.7,3.9,3.9l-1.8,1.4c-0.7-1.2-2.3-2.9-3.8-4.1L267.4,30.5z M274.6,39.9v8.8h-2V38.2h1.9v-7.5h10.1v7.5h1.9v8.5
		c0,1.9-0.7,2.1-3.8,2.1c-0.1-0.6-0.3-1.3-0.6-1.8c0.5,0,1,0,1.4,0c0.8,0,0.9,0,0.9-0.3v-6.7H274.6z M282.6,41.2v5.2H278v0.9h-1.7
		v-6.1H282.6z M276.5,32.4v5.7h1.9v-4h4.1v-1.8H276.5z M280.9,45v-2.2h-3V45H280.9z M282.5,38.2v-2.5h-2.4v2.5H282.5z"/>
	<path d="M306.6,50c-2,0.4-4.8,0.5-7.2,0.5c-2.1,0-3.9-0.1-4.9-0.3c-3-0.6-4.3-2.6-4.3-4.8c0-1.8,1-3.7,2.3-5.1l2,1
		c-1.2,1.2-1.9,2.6-1.9,3.8c0,1.3,0.8,2.5,2.7,2.9c0.8,0.2,2.2,0.3,3.6,0.3c2.4,0,5.2-0.2,7.4-0.7L306.6,50z M295.3,37.7
		c1-0.8,2.5-1.8,3.6-2.4v0c-1.5,0.2-5.3,0.3-7.6,0.3c0-0.6,0-1.8,0-2.3c2.3,0,7.2,0,9.4-0.2c1.4-0.1,3-0.3,4.4-0.6l0.2,2.5
		c-3,0.4-6.5,2.7-8,3.9L295.3,37.7z M306.3,41.5c-0.6-1-2.1-2.4-3.1-3.2l1-1c1.1,0.8,2.4,2.2,3.2,3.2L306.3,41.5z M308.9,39.1
		c-0.6-0.9-2-2.4-3.1-3.2l1-0.9c1.1,0.8,2.4,2.2,3.1,3.1L308.9,39.1z"/>
	<path d="M316.8,31c0,0.3-0.3,0.5-0.7,0.5c-0.2,3-0.4,9-0.4,12.5c0,3.3,1.7,4.9,4.4,4.9c2.6,0,5.4-1.3,8.2-4.2
		c0.3,0.5,1.1,1.7,1.4,2.1c-2.9,3.1-6.2,4.6-9.6,4.6c-4.9,0-7-2.7-7-7.4c0-3.1,0.2-10.3,0.4-13.2L316.8,31z"/>
	<path d="M329.8,33c0.7,0,1.8,0,2.4-0.1c2.4-0.2,13.7-0.9,17.3-1l0,2.5c-2-0.1-3.2,0.1-5.1,1.3c-3.1,2-6.5,5.5-6.5,8.4
		c0,3,2.4,4.8,8,5.5l-1.2,2.4c-6.8-0.9-9.4-3.6-9.4-7.8c0-3.1,3-7.1,7-9.7c-2.6,0.1-9.1,0.7-11.7,1c-0.1,0.2-0.4,0.3-0.6,0.4
		L329.8,33z"/>
	<path d="M355.8,33.2c0,0.2-0.3,0.4-0.6,0.4c-0.3,1.9-0.5,4.3-0.5,6.4c0,6.5,2.1,7.9,3.4,7.9c0.9,0,2-2.4,2.7-4.8
		c0.5,0.4,1.4,1.2,2,1.5c-1.4,4.3-2.9,5.9-4.8,5.9c-3.4,0-5.3-4.2-5.6-8.4c-0.1-0.9-0.1-1.9-0.1-3c0-2.1,0.1-4.4,0.4-6.6L355.8,33.2
		z M370.5,44.6c-0.7-4.2-2.8-7-5.9-8.8l1.5-1.8c3.4,1.8,6.1,5.2,6.8,9.8L370.5,44.6z"/>
	<path d="M381.9,40.2c1.5-0.7,3.6-1.1,5.3-1.1c3.7,0,6.2,2.2,6.2,5.9c0,4.3-3.8,6.8-8.8,6.8c-3.1,0-5.3-1.3-5.3-3.6
		c0-1.8,1.9-3.4,4.1-3.4c2.6,0,4.5,1.9,4.8,4c1.6-0.6,2.6-2,2.6-3.8c0-2.3-1.8-3.8-4.5-3.8c-3.4,0-6.7,1.5-8.4,3.1
		c-0.6,0.6-1.6,1.6-2.2,2.3l-1.7-1.7c1.9-2,8.4-8.1,11.6-11.1c-1.3,0.2-5.8,0.4-8.1,0.5c0,0.2-0.3,0.3-0.5,0.4l-0.2-2.8
		c3.2,0,9.6-0.2,11.3-0.5l0.4-0.2l1.7,2c-0.2,0.1-0.4,0.2-0.7,0.3C388.1,34.5,383.9,38.4,381.9,40.2L381.9,40.2z M384.2,49.6
		c0.5,0,1.3-0.1,1.8-0.2c-0.2-1.6-1.4-2.8-2.8-2.8c-1,0-1.9,0.6-1.9,1.4C381.3,49.3,382.9,49.6,384.2,49.6z"/>
	<path d="M397.8,31.4h16v20.5h-2.4v-1.5h-11.2V52h-2.3V31.4z M411.4,33.7h-11.2v6h11.2V33.7z M400.1,48.1h11.2V42h-11.2V48.1z"/>
	<path d="M149.9,71.1c-0.1,0.2-0.3,0.2-0.6,0.2c-0.4,0.6-1,1.4-1.6,2.1h3.9v5.2h-2.2v-3.2h-16.2v3.2H131v-5.2h3.6
		c-0.4-0.8-1.1-1.7-1.6-2.4l2-0.8c0.8,0.9,1.6,2.1,2,3l-0.6,0.3h3.6v-3.5l2.9,0.1c0,0.2-0.2,0.3-0.6,0.4v2.9h3.6
		c-0.2-0.1-0.4-0.2-0.6-0.2c0.6-0.8,1.5-2.2,1.9-3.1L149.9,71.1z M150,84.2V89c0,2.2-1.1,2.3-5,2.3c-0.1-0.6-0.5-1.4-0.7-2
		c0.8,0,1.6,0,2.2,0c1.2,0,1.4,0,1.4-0.4v-2.8h-5.5v6.1H140v-6.1h-5.1v5.2h-2.2v-7.2h7.3v-1.7h-5V77h12.8v5.5h-5
		c-0.1,0.1-0.2,0.2-0.5,0.2v1.5H150z M137,78.6v2.2h8.4v-2.2H137z"/>
	<path d="M170.5,79c-0.1,0-0.1,0-0.2,0c-0.2,0-0.4,0-0.6-0.1c-7.2,2-13.1,4.8-13.1,7.8c0,2,2.2,2.8,5.9,2.8s6.7-0.3,8.4-0.6l0.2,2.4
		c-1.7,0.2-4.8,0.5-8.7,0.5c-4.7,0-8.2-1.1-8.3-4.9c0-2.6,2.4-4.8,6.1-6.7c-0.9-1.6-1.2-4.3-1.1-9.6l3.5,0.3c0,0.3-0.3,0.5-0.8,0.6
		c0,3.8,0,6.3,0.6,7.7c2.1-1,4.6-1.9,7.1-2.7L170.5,79z"/>
	<path d="M177.8,73.2c0,0.2-0.3,0.4-0.6,0.4c-0.3,1.9-0.5,4.3-0.5,6.4c0,6.5,2.1,7.9,3.4,7.9c0.9,0,2-2.4,2.7-4.8
		c0.5,0.4,1.4,1.2,2,1.5c-1.4,4.3-2.9,5.9-4.8,5.9c-3.4,0-5.3-4.2-5.6-8.4c-0.1-0.9-0.1-1.9-0.1-3c0-2.1,0.1-4.4,0.4-6.6L177.8,73.2
		z M192.4,84.6c-0.7-4.2-2.8-7-5.9-8.8L188,74c3.4,1.8,6.1,5.2,6.8,9.8L192.4,84.6z"/>
	<path d="M196.9,78.7c3.6-1,8.2-2,10.1-2c3.5,0,6,1.8,5.9,5.8c0,4.5-3.5,7.7-10.2,9.6c-0.3-0.6-1-1.5-1.6-2.1
		c6.2-1.5,9.2-4.3,9.2-7.4c0-2.1-1-3.6-3.4-3.6c-2,0-5.5,0.8-8.5,1.9c0,0.2-0.2,0.5-0.5,0.6L196.9,78.7z M200.6,70.4
		c3.3,0.2,7.1,0.9,9.6,1.8l-0.6,2.4c-2.5-0.9-6.5-1.6-9.5-1.8L200.6,70.4z"/>
	<path d="M228.1,75c-0.1,0.2-0.3,0.4-0.6,0.4c-0.9,7.9-3.4,13.5-7.4,13.5c-2.3,0-4.2-2.1-4.2-6.1c0-6,4.7-10.6,10.9-10.6
		c6.9,0,10.1,4.2,10.1,9.1c0,5.7-3.1,8.5-9,10c-0.4-0.6-0.9-1.4-1.5-2c5.5-1.1,8-3.7,8-7.9c0-3.9-2.6-7-7.6-7c-0.3,0-0.6,0-1,0
		L228.1,75z M225,74.6c-4.2,0.7-6.9,4.3-6.9,8.1c0,2.3,0.8,3.8,1.9,3.8C222.7,86.4,224.5,80.6,225,74.6z"/>
	<path d="M241,91c-0.7-1.8-1-5.6-1-8.8c0-3.3,0.5-7.2,1.2-11l3.1,0.6c0,0.2-0.3,0.4-0.7,0.4c-1.4,5.3-1.4,9.4-1.4,11.1
		c0,1.2,0,2.5,0.1,3.1c0.4-1.2,1.3-3.3,1.7-4.3l1.3,1.5c-0.2,0.5-2.4,4.8-2.4,6.1c0,0.3,0.1,0.7,0.2,1.1L241,91z M247.2,76.5
		c1,0,4.5,0,5.6-0.1c-0.1-2-0.2-3.7-0.2-5.4l3.1,0.1c0,0.2-0.2,0.4-0.6,0.5c0,1.4,0,2.5,0.1,4.7c1.8-0.2,3.2-0.5,4.4-0.9l0.2,2.4
		c-1.1,0.3-2.7,0.6-4.6,0.8c0.1,2.4,0.2,4.9,0.3,6.4c1.7,0.7,3.5,1.8,4.7,2.9l-1.3,2.2c-0.9-0.9-2-1.8-3.3-2.5
		c-0.1,2.4-1.1,3.9-4.3,3.9c-2.9,0-4.7-1.5-4.7-3.7c0-2.5,2.4-3.7,4.7-3.7c0.6,0,1.2,0.1,1.8,0.2c-0.1-1.4-0.2-3.6-0.3-5.6
		c-0.7,0-1.6,0.1-2.2,0.1h-3.5L247.2,76.5z M253.5,86.4c-0.6-0.2-1.3-0.4-2-0.4c-1.3,0-2.7,0.5-2.7,1.7c0,1.1,1.2,1.7,2.7,1.7
		c1.5,0,2.1-0.8,2.1-2.3L253.5,86.4z"/>
	<path d="M263.4,85.4c1.7,1.4,4.1,3.8,5.3,5.2l-2,1.8c-1.1-1.5-3.6-4.1-5.1-5.4L263.4,85.4z"/>
	<path d="M296.1,86.2h-8.5c1.7,2.3,4.7,3.7,8.8,4.2c-0.5,0.5-1.1,1.4-1.4,2c-4.7-0.8-7.8-2.7-9.7-6c-1.3,2.4-4,4.5-9.5,6
		c-0.3-0.5-0.9-1.4-1.4-1.8c4.6-1.2,7-2.7,8.3-4.4h-8v-1.9h9c0.2-0.6,0.3-1.1,0.3-1.7h-6.3v-1.9h6.4v-1.6h-7.1v-1.5h-1.8v-4.9h8.9
		v-2.8l2.9,0.2c0,0.2-0.2,0.3-0.6,0.4v2.2h9v4.9h-1.7v1.5h-7.4v1.6h6.7v1.9h-6.8c0,0.6-0.1,1.1-0.2,1.7h9.9V86.2z M277.5,77.2h6.6
		v-2l2.9,0.2c0,0.2-0.2,0.3-0.6,0.4v1.5h6.7v-2.5h-15.6V77.2z"/>
	<path d="M300.3,91c-0.7-1.8-1-5.6-1-8.8c0-3.3,0.5-7.2,1.2-11l3.1,0.6c0,0.2-0.3,0.4-0.7,0.4c-1.4,5.3-1.4,9.4-1.4,11.1
		c0,1.2,0,2.5,0.1,3.1c0.4-1.2,1.3-3.3,1.7-4.3l1.3,1.5c-0.2,0.5-2.4,4.8-2.4,6.1c0,0.3,0.1,0.7,0.2,1.1L300.3,91z M306.5,76.5
		c1,0,4.5,0,5.6-0.1c-0.1-2-0.2-3.7-0.2-5.4l3.1,0.1c0,0.2-0.2,0.4-0.6,0.5c0,1.4,0,2.5,0.1,4.7c1.8-0.2,3.2-0.5,4.4-0.9l0.2,2.4
		c-1.1,0.3-2.7,0.6-4.6,0.8c0.1,2.4,0.2,4.9,0.3,6.4c1.7,0.7,3.5,1.8,4.7,2.9l-1.3,2.2c-0.9-0.9-2-1.8-3.3-2.5
		c-0.1,2.4-1.1,3.9-4.3,3.9c-2.9,0-4.7-1.5-4.7-3.7c0-2.5,2.4-3.7,4.7-3.7c0.6,0,1.2,0.1,1.8,0.2c-0.1-1.4-0.2-3.6-0.3-5.6
		c-0.7,0-1.6,0.1-2.2,0.1h-3.5L306.5,76.5z M312.8,86.4c-0.6-0.2-1.3-0.4-2-0.4c-1.3,0-2.7,0.5-2.7,1.7c0,1.1,1.2,1.7,2.7,1.7
		c1.5,0,2.1-0.8,2.1-2.3L312.8,86.4z"/>
	<path d="M343.6,79.4v2h-3.2v8.4c0,2.4-1.2,2.6-6,2.6c-0.1-0.6-0.5-1.6-0.8-2.2c1.1,0,2.1,0.1,2.9,0.1c1.4,0,1.6,0,1.6-0.5v-8.4
		h-16.3v-2H343.6z M333.1,74.2c3.1,1,6.8,2.4,9.1,3.3l-1.7,1.6c-2-1-5.4-2.3-8.4-3.3c-1.4,1.6-3.9,2.6-8.4,3.2
		c-0.2-0.5-0.6-1.4-1-1.8c4.7-0.5,6.9-1.5,7.9-3.3h-7.5v-2h8.3c0.1-0.6,0.2-1.4,0.3-2.2l2.8,0.2c0,0.2-0.2,0.3-0.6,0.4
		c-0.1,0.6-0.1,1.1-0.2,1.6h8.8v2h-9.3L333.1,74.2z M334,89.6h-7.2v1.6h-2.2v-8.1h9.4V89.6z M331.8,85h-5.1v2.9h5.1V85z"/>
	<path d="M351.5,87.5c1-0.2,1.9-0.4,2.9-0.6l0.2,1.8c-3,0.8-6,1.6-8,2c0,0.2-0.2,0.4-0.3,0.4l-0.8-2.3l1.1-0.2v-7.9l2.3,0.2
		c0,0.2-0.2,0.3-0.5,0.3v7.1l1.3-0.3v-9.3h-3v-7.7h7.4v7.7h-2.4v3.1h2.8v2h-2.8V87.5z M348.4,72.8v3.9h3.5v-3.9H348.4z M358.1,79.3
		c0,0.2-0.2,0.3-0.5,0.3c-0.5,2.5-1.4,5.3-2.6,6.9c-0.4-0.3-1.1-0.7-1.5-1c1.1-1.5,1.9-4.2,2.3-6.7L358.1,79.3z M365.8,78.6
		c1.1,2.2,2,5.2,2.4,7.1l-1.9,0.8c-0.2-1.9-1.1-4.9-2.2-7.1v10.4c0,2.3-0.9,2.5-4.4,2.5c0-0.6-0.3-1.5-0.6-2.2c1.1,0,2.2,0,2.5,0
		c0.3,0,0.4-0.1,0.4-0.4V76.2h-1.5c-0.2,7.2-0.6,12.9-5.4,16.1c-0.3-0.5-0.9-1.3-1.4-1.6c4.4-2.7,4.7-7.7,4.8-14.5h-3.8V74h5.4v-4.2
		l2.8,0.2c0,0.2-0.2,0.3-0.6,0.4V74h5.6v2.2h-3.8v3.1L365.8,78.6z"/>
	<path d="M382.2,75c-0.1,0.2-0.3,0.4-0.6,0.4c-0.9,7.9-3.4,13.5-7.4,13.5c-2.3,0-4.2-2.1-4.2-6.1c0-6,4.7-10.6,10.9-10.6
		c6.9,0,10.1,4.2,10.1,9.1c0,5.7-3.1,8.5-9,10c-0.4-0.6-0.9-1.4-1.5-2c5.5-1.1,8-3.7,8-7.9c0-3.9-2.6-7-7.6-7c-0.3,0-0.6,0-1,0
		L382.2,75z M379.1,74.6c-4.2,0.7-6.9,4.3-6.9,8.1c0,2.3,0.8,3.8,1.9,3.8C376.8,86.4,378.6,80.6,379.1,74.6z"/>
	<path d="M398.3,79.4v7.8c1.6,2.6,4.8,2.6,9.1,2.6c2.8,0,6.1-0.1,8.2-0.2c-0.3,0.5-0.6,1.6-0.7,2.2c-1.8,0.1-4.5,0.1-7,0.1
		c-5.2,0-8.3,0-10.5-2.9c-1,1-2.1,2-3,2.8c0,0.2-0.1,0.3-0.3,0.5l-1.2-2.4c1-0.7,2.2-1.6,3.2-2.5v-5.9h-3v-2.1H398.3z M395,70.5
		c1.4,1.1,3.1,2.7,3.9,3.9l-1.8,1.4c-0.7-1.2-2.3-2.9-3.8-4.1L395,70.5z M405.8,89.1v-2.4h-6.7v-1.9h6.7v-1.4h-5.2v-8h5.2V74h-6.3
		v-1.9h6.3v-2.2l2.8,0.2c0,0.2-0.2,0.3-0.5,0.4v1.6h6.6V74H408v1.4h5.4v8H408v1.4h7v1.9h-7v2.4H405.8z M402.7,77v1.6h3.1V77H402.7z
		 M402.7,81.7h3.1v-1.6h-3.1V81.7z M411.3,77H408v1.6h3.2V77z M411.3,81.7v-1.6H408v1.6H411.3z"/>
	<path d="M133.2,124.4c0,0.2-0.2,0.3-0.5,0.3c-0.2,2-0.7,4.3-1.4,5.7c-0.4-0.3-1.2-0.6-1.6-0.8c0.6-1.3,1-3.6,1.2-5.7L133.2,124.4z
		 M137.5,123.6c-0.1-0.4-0.2-0.8-0.4-1.3l-1.5,0.1v10.1h-2v-10c-1.2,0.1-2.2,0.1-3,0.2c0,0.2-0.2,0.3-0.4,0.3l-0.5-2.4l1.6,0
		c0.5-0.6,0.9-1.2,1.4-1.9c-0.7-1.1-1.8-2.5-2.9-3.5c0.5-0.6,0.8-1.1,1.2-1.5c0.2,0.2,0.4,0.4,0.6,0.6c0.7-1.4,1.5-3.1,2-4.4
		l2.3,0.9c-0.1,0.2-0.3,0.2-0.6,0.2c-0.6,1.3-1.6,3.2-2.4,4.5c0.4,0.5,0.8,0.9,1.1,1.3c0.9-1.5,1.8-2.9,2.4-4.2l2.2,1
		c-0.1,0.1-0.3,0.2-0.6,0.2c-1.1,1.9-2.9,4.5-4.5,6.6l3-0.1c-0.3-0.7-0.7-1.4-1.1-2.1l1.6-0.7c0.9,1.5,1.8,3.4,2.2,4.7v-3.3h13v4.7
		H150v-2.9h-8.9v2.9h-2v-0.9L137.5,123.6z M137.8,123.9c0.6,1.4,1.2,3.3,1.4,4.5l-1.8,0.6c-0.2-1.2-0.7-3.1-1.3-4.6L137.8,123.9z
		 M144.7,122.6c0,0.2-0.2,0.3-0.5,0.4c-0.3,4.7-1.8,7.9-5.4,9.4c-0.3-0.4-1-1.2-1.4-1.6c3.2-1.2,4.4-4.1,4.6-8.4L144.7,122.6z
		 M144.4,115.8v-1.8h-5.5V112h5.5v-2.2l2.8,0.2c0,0.2-0.2,0.3-0.6,0.4v1.6h5.6v1.9h-5.6v1.8h4.6v1.9h-11.4v-1.9H144.4z M148.4,129.5
		c0,0.6,0,0.7,0.5,0.7h1.2c0.4,0,0.5-0.4,0.6-3c0.4,0.4,1.3,0.7,1.8,0.8c-0.2,3.2-0.7,4.1-2.2,4.1h-1.7c-1.8,0-2.2-0.6-2.2-2.6v-7.1
		l2.6,0.2c0,0.2-0.2,0.3-0.5,0.4V129.5z"/>
	<path d="M163.6,110.6c-0.1,0.2-0.3,0.4-0.7,0.5c-0.1,0.9-0.4,2.1-0.6,3c2-0.1,4.6-0.5,6.5-1.1l0.3,2.3c-2.2,0.5-4.7,0.9-7.2,1.1
		c-1.1,4.5-2.6,8.2-4.8,11.6l-2.4-0.9c2.1-3.1,3.7-6.7,4.6-10.7c-0.5,0-1.1,0-1.7,0h-2.8v-2.2h2.8c0.7,0,1.5,0,2.1,0
		c0.2-1.2,0.4-2.5,0.6-3.8L163.6,110.6z M169.8,121c0,1.7,0.1,3,0.2,4.5c1.4,0.6,3.5,1.6,4.9,2.6l-1.2,2.2c-1.1-0.9-2.6-1.8-3.7-2.3
		c0,1.3-0.5,4-4.7,4c-2.6,0-4.8-1.3-4.7-3.7c0-2.4,2.5-3.7,4.8-3.7c0.7,0,1.5,0.1,2.3,0.3c-0.1-1.3-0.2-2.7-0.2-3.6L169.8,121z
		 M167.9,127c-0.8-0.3-1.8-0.5-2.5-0.5c-1.3,0-2.7,0.6-2.7,1.8c0,1.1,1.1,1.7,2.7,1.7c1.3,0,2.4-0.6,2.4-2.1V127z M174.7,118.9
		c-2.6,0-5.9,0.4-8.4,1.1l-0.4-2.1c2.7-0.7,6-1.2,8.6-1.2L174.7,118.9z"/>
	<path d="M190,115c-0.1,0.2-0.3,0.4-0.6,0.4c-0.9,7.9-3.4,13.5-7.4,13.5c-2.3,0-4.2-2.1-4.2-6.1c0-6,4.7-10.6,10.9-10.6
		c6.9,0,10.1,4.2,10.1,9.1c0,5.7-3.1,8.5-9,10c-0.4-0.6-0.9-1.4-1.5-2c5.5-1.1,8-3.7,8-7.9c0-3.9-2.6-7-7.6-7c-0.3,0-0.6,0-1,0
		L190,115z M186.9,114.6c-4.2,0.7-6.9,4.3-6.9,8.1c0,2.3,0.8,3.8,1.9,3.8C184.6,126.4,186.4,120.6,186.9,114.6z"/>
	<path d="M210.5,111.1c-0.1,0.3-0.4,0.5-0.8,0.5c-0.3,1.2-0.6,3.4-0.9,4.8c0.9-0.1,1.8-0.2,2.3-0.2c3.8,0,5,2.6,5,6.2
		c0,1-0.2,3.3-0.7,5.1c-0.7,2.7-2.3,4-4.5,4c-1,0-2.3-0.5-4.3-2c0.3-0.6,0.6-1.3,0.8-2c1.8,1.3,2.8,1.6,3.5,1.6
		c1.2,0,1.8-0.8,2.3-2.3c0.4-1.3,0.6-3.4,0.6-4.4c0-2.5-0.8-3.9-2.9-3.9c-0.6,0-1.5,0-2.6,0.2c-1.2,4.6-2.5,8.9-4.7,12.7l-2.2-1.1
		c2.1-3.7,3.4-7.2,4.5-11.4l-4,0.6l-0.2-2.4l4.6-0.5c0.3-1.8,0.7-3.9,0.9-5.9L210.5,111.1z M220.6,122.8c-0.7-3.3-2.9-6.3-5.1-8.1
		l1.8-1.3c2.5,1.8,5,5.3,5.7,8.5L220.6,122.8z"/>
	<path d="M237.7,123.5c-1.4,0.2-3.5,0.3-5.4,0.3c-0.1,1.2-0.1,1.4-0.1,1.8c0,3.1,1.9,3.7,4.3,3.7c1,0,2.1-0.1,3-0.4
		c1.4-0.4,2.1-1.3,2.1-2.6c0-1.2-0.6-2.7-1.8-4.2c0.6-0.2,1.6-0.6,2.2-0.8c1.4,2,2.2,3.8,2.2,5.4c0,4.8-6.3,4.8-7.7,4.8
		c-3.6,0-6.6-0.9-6.6-6c0-0.6,0-1.2,0.1-1.8c-1.8-0.1-5.1-0.2-5.1-2.9c0-1,0.6-2.1,2-3.2l1.8,0.9c-1,0.6-1.6,1.3-1.6,1.9
		c0,1.1,1.6,1.1,3,1.2c0.1-1.5,0.3-3.1,0.5-4.8c-1.6-0.1-3.6-0.6-4.8-1.2l0.5-2.2c1.3,0.6,2.9,1,4.6,1.2c0.2-1.4,0.4-2.9,0.5-4.1
		l3.3,0.4c0,0.3-0.4,0.5-0.8,0.5c-0.2,0.9-0.4,2.2-0.6,3.4c0.6,0,1.4,0.1,2.1,0.1c0.8,0,1.7,0,2.4-0.1l-0.1,2.2
		c-0.7,0-1.5,0.1-2.4,0.1c-0.8,0-1.7,0-2.4-0.1c-0.2,1.6-0.4,3.2-0.5,4.7c1.8,0,3.6-0.1,5.2-0.4L237.7,123.5z"/>
	<path d="M251.5,111c0,0.3-0.3,0.5-0.7,0.5c-0.2,3-0.4,9-0.4,12.5c0,3.3,1.7,4.9,4.4,4.9c2.6,0,5.4-1.3,8.2-4.2
		c0.3,0.5,1.1,1.7,1.4,2.1c-2.9,3.1-6.2,4.6-9.6,4.6c-4.9,0-7-2.7-7-7.4c0-3.1,0.2-10.3,0.4-13.2L251.5,111z"/>
	<path d="M270.8,110.5l3.2,0.2c0,0.3-0.2,0.4-0.6,0.5c-0.1,1-0.2,2.4-0.3,3.2l0.9,0.3c-0.5,1-0.9,2.3-1.2,3.2
		c2.6-2.4,5.2-3.8,7.1-3.8c2.3,0,3.6,1.6,3.6,4.5c0,0.3,0,0.6,0,0.9c-0.2,2.4-0.4,4.9-0.4,6.5c0,1.4,0.1,2.1,1,2.1
		c0.7,0,2.1-0.8,3.1-1.6c0,0.6,0.2,2.1,0.3,2.6c-1.2,0.8-2.7,1.5-3.8,1.5c-2.3,0-3.1-1.3-3.1-4.1c0-1.2,0.4-7.3,0.4-7.4
		c0-1.8-0.6-2.6-1.7-2.6c-1.6,0-4.2,1.7-6.6,4.2c0,5,0,9.3,0,10.8h-2.4v-8.8c-0.8,1.5-2.4,3.5-4,5.1l-1.2-2.2
		c1.8-1.6,4.2-4.4,5.2-6.7c0-0.6,0-1.2,0-1.9c-0.9,0.2-2.6,0.4-4.2,0.4l0-2.3c1.8,0,3.6-0.2,4.4-0.3L270.8,110.5z"/>
	<path d="M298.5,110.6c-0.1,0.2-0.3,0.4-0.7,0.5c-0.1,0.9-0.4,2.1-0.6,3c2-0.1,4.6-0.5,6.5-1.1l0.3,2.3c-2.2,0.5-4.7,0.9-7.2,1.1
		c-1.1,4.5-2.6,8.2-4.8,11.6l-2.4-0.9c2.1-3.1,3.7-6.7,4.6-10.7c-0.5,0-1.1,0-1.7,0h-2.8v-2.2h2.8c0.7,0,1.5,0,2.1,0
		c0.2-1.2,0.4-2.5,0.6-3.8L298.5,110.6z M304.7,121c0,1.7,0.1,3,0.2,4.5c1.4,0.6,3.5,1.6,4.9,2.6l-1.2,2.2c-1.1-0.9-2.6-1.8-3.7-2.3
		c0,1.3-0.5,4-4.7,4c-2.6,0-4.8-1.3-4.7-3.7c0-2.4,2.5-3.7,4.8-3.7c0.7,0,1.5,0.1,2.3,0.3c-0.1-1.3-0.2-2.7-0.2-3.6L304.7,121z
		 M302.8,127c-0.8-0.3-1.8-0.5-2.5-0.5c-1.3,0-2.7,0.6-2.7,1.8c0,1.1,1.1,1.7,2.7,1.7c1.3,0,2.4-0.6,2.4-2.1V127z M309.6,118.9
		c-2.6,0-5.9,0.4-8.4,1.1l-0.4-2.1c2.7-0.7,6-1.2,8.6-1.2L309.6,118.9z"/>
	<path d="M316.7,113.2c0,0.2-0.3,0.4-0.6,0.4c-0.3,1.9-0.5,4.3-0.5,6.4c0,6.5,2.1,7.9,3.4,7.9c0.9,0,2-2.4,2.7-4.8
		c0.5,0.4,1.4,1.2,2,1.5c-1.4,4.3-2.9,5.9-4.8,5.9c-3.4,0-5.3-4.2-5.6-8.4c-0.1-0.9-0.1-1.9-0.1-3c0-2.1,0.1-4.4,0.4-6.6
		L316.7,113.2z M331.3,124.6c-0.7-4.2-2.8-7-5.9-8.8l1.5-1.8c3.4,1.8,6.1,5.2,6.8,9.8L331.3,124.6z"/>
	<path d="M341.6,129c0,1.8-1.5,3.4-3.4,3.4c-1.8,0-3.4-1.5-3.4-3.4c0-1.8,1.5-3.4,3.4-3.4C340.2,125.6,341.6,127.2,341.6,129z
		 M340.6,129c0-1.3-1.1-2.4-2.4-2.4c-1.3,0-2.4,1.1-2.4,2.4c0,1.3,1.1,2.4,2.4,2.4C339.6,131.4,340.6,130.3,340.6,129z"/>
</g>
<g>
	<g>
		<path class="st0" d="M137.3,153.9h-2.9v9h-1.1v-9h-2.9v-0.9h7V153.9z"/>
		<path class="st0" d="M145.1,152.9l-3.4,10h-1.2l-3.2-10h1.2l1.5,5c0.4,1.3,0.8,2.6,1,3.8h0c0.3-1.2,0.7-2.5,1.1-3.8l1.7-5H145.1z"
			/>
		<path class="st0" d="M156.6,153.4c0,0.1-0.1,0.1-0.2,0.1c-0.7,1.7-1.8,3.1-3.1,4.2c-0.2-0.2-0.6-0.4-0.8-0.5
			c1.2-0.9,2.2-2.1,2.6-3.2h-9.4v-0.9h9.9l0.1-0.1L156.6,153.4z M151.5,155.8c0,0.1-0.1,0.2-0.3,0.2c-0.4,3.1-1.4,6-4.1,7.6
			c-0.2-0.2-0.5-0.5-0.8-0.6c2.7-1.5,3.6-4.2,3.9-7.3L151.5,155.8z"/>
		<path class="st0" d="M168.6,161.3v0.9h-10.8v-0.9H168.6z M167.3,154.1v0.9h-8.1v-0.9H167.3z"/>
		<path class="st0" d="M172.7,155c1.2,0.5,2.5,1.2,3.7,1.9c0.8-1.3,1.7-2.9,2.4-4.6l1.3,0.5c-0.1,0.1-0.2,0.2-0.5,0.2
			c-0.6,1.4-1.5,3-2.3,4.4c1,0.6,2.1,1.3,2.9,2l-0.6,0.8c-0.7-0.6-1.7-1.3-2.8-2c-1.3,1.9-3.3,3.9-5.5,5.3c-0.2-0.2-0.5-0.5-0.7-0.7
			c2.2-1.4,4.2-3.4,5.5-5.2c-1.2-0.7-2.5-1.4-3.7-1.9L172.7,155z"/>
		<path class="st0" d="M183.9,161.3v-9.6h4.4v0.7h-3.7v8.9H183.9z"/>
		<path class="st0" d="M190.2,152.7h8.5v11h-0.9v-0.8h-6.7v0.9h-0.9V152.7z M197.8,153.6h-6.7v3.8h6.7V153.6z M191.1,162h6.7v-3.8
			h-6.7V162z"/>
		<path class="st0" d="M211.5,152.4c-0.1,0.1-0.2,0.1-0.3,0.1c-0.3,0.4-0.7,1-1.1,1.4h2.4v2.7h-0.9v-1.9h-9.3v1.9h-0.8v-2.7h2.1
			c-0.2-0.5-0.7-1.1-1-1.6l0.8-0.3c0.5,0.5,1,1.2,1.2,1.6l-0.5,0.2h2.4v-2l1.1,0.1c0,0.1-0.1,0.2-0.2,0.2v1.8h2.4l-0.4-0.2
			c0.4-0.5,0.9-1.2,1.2-1.7L211.5,152.4z M211.6,159.7v2.7c0,1-0.5,1-2.6,1c0-0.2-0.2-0.5-0.3-0.8c0.5,0,1,0,1.3,0
			c0.7,0,0.8,0,0.8-0.2v-1.9h-3.4v3.5h-0.9v-3.5h-3.2v2.9h-0.9v-3.7h4.1v-1.1h-2.9v-2.9h6.9v2.9h-3c0,0-0.1,0-0.2,0.1v1H211.6z
			 M204.3,156.4v1.5h5.3v-1.5H204.3z"/>
		<path class="st0" d="M218,154.4v9.6h-4.4v-0.7h3.7v-8.9H218z"/>
	</g>
</g>
<g>
	<path class="st0" d="M94.7,49.2l-3.1-2.6c2.5-2.5,3.8-4.8,4-6.9h-3.7V29.7h11.9v6.5C103.8,41.1,100.7,45.4,94.7,49.2z"/>
	<path class="st0" d="M109.7,49.2l-3.1-2.6c2.5-2.5,3.8-4.8,4-6.9h-3.7V29.7h11.9v6.5C118.8,41.1,115.7,45.4,109.7,49.2z"/>
</g>
</svg>
