<svg xmlns="http://www.w3.org/2000/svg" xmlns:xlink="http://www.w3.org/1999/xlink" id="Layer_1" x="0" y="0" enable-background="new 0 0 500 310.8" version="1.1" viewBox="0 0 500 310.8" xml:space="preserve"><style type="text/css">.st0{fill:#f73a00}</style><g><path d="M132.4,31.4h16v20.5H146v-1.5h-11.2V52h-2.3V31.4H132.4z M145.9,33.7h-11.2v6h11.2V33.7z M134.7,48.1h11.2V42h-11.2V48.1z"/><path d="M168.9,35.8l1.9,1c-0.1,0.2-0.2,0.3-0.4,0.4c-1.1,2.7-3,6.3-5,9c1.3,0.8,2.4,1.7,3.2,2.5l-1.6,2.1c-1.8-2-5.8-4.6-9.1-6.1 l1.4-1.9c1.3,0.6,2.7,1.3,4,2.1c1.5-2,2.9-4.5,3.8-6.7h-7.6c-1.4,2.7-3.1,5.3-5.1,7.3c-0.5-0.4-1.5-1-2.1-1.3 c3.6-3.2,6.2-8.6,7.5-13l2.9,0.8c-0.1,0.2-0.3,0.3-0.6,0.3c-0.4,1.2-0.9,2.4-1.4,3.6h7.8L168.9,35.8z"/><path d="M180,40.2c0.9,0.7,3.4,3.2,4,3.8l-1.4,1.8c-0.5-0.8-1.7-2.1-2.6-3.2v9.8h-2.3v-9.9c-1,2.4-2.3,4.7-3.6,6.2 c-0.2-0.6-0.8-1.6-1.2-2.2c1.6-1.7,3.3-4.7,4.3-7.4h-3.9V37h4.3v-3.4c-1.3,0.3-2.6,0.6-3.9,0.9c-0.1-0.5-0.4-1.2-0.7-1.7 c3.3-0.7,6.9-1.7,9-2.9l1.9,1.7c-0.1,0.1-0.2,0.1-0.6,0.1c-1,0.5-2.2,0.9-3.5,1.3v4h3.9v2.2H180V40.2z M192.1,41.8 c1.6,3.2,3.2,7.2,3.6,9.9l-2.4,0.8c-0.1-0.6-0.3-1.4-0.5-2.2c-3.8,0.5-7.6,0.9-10.1,1.2c0,0.2-0.2,0.4-0.4,0.4l-0.8-2.7 c0.7,0,1.4-0.1,2.3-0.2c1.4-5.1,2.9-12.7,3.6-18.5l3.2,0.6c-0.1,0.2-0.4,0.4-0.7,0.5c-0.8,5.3-2.3,12.2-3.6,17.2 c1.9-0.2,4-0.4,6.1-0.6c-0.6-1.9-1.4-3.9-2.3-5.7L192.1,41.8z"/><path d="M211.8,35.7c-1.9,0.6-4.5,1.1-7,1.3c-1,5.3-2.4,10.7-4.2,14.7l-2.4-0.9c1.9-3.8,3.3-8.6,4.2-13.7c-0.4,0-0.7,0-1.1,0 c-1.2,0-2.3,0-3.1,0v-2.3c0.8,0,2,0,3.2,0c0.4,0,0.9,0,1.4,0c0.2-1.4,0.4-3.1,0.5-4.6l3.2,0.3c0,0.3-0.4,0.5-0.7,0.5 c-0.1,1-0.3,2.3-0.6,3.5c2.1-0.2,4.3-0.6,6.1-1.3L211.8,35.7z M218.2,51.3c-0.7,0-1.5,0.1-2.3,0.1c-2,0-4.1-0.2-5.4-0.5 c-1.9-0.5-2.9-1.8-2.9-3.5c0-1.4,0.7-2.6,1.5-3.5l2,0.8c-0.8,0.9-1.2,1.7-1.2,2.4c0,1.7,1.8,2,5.4,2c1,0,1.9,0,2.9-0.1V51.3z M209,39.5c2.4-0.8,5.8-1.2,8.6-1.2v2.3c-2.6-0.1-5.7,0.3-8.1,1L209,39.5z"/><path d="M237.6,35.3c-3,0.7-7.1,1.2-9.9,1.3c-0.3,2.6-0.7,4.7-1,5.4c1.7-1.3,4.4-2.3,6.4-2.3c3.4,0,5.8,1.8,5.8,5.3 c0,4.9-4.7,6.6-12.7,6.7c-0.1-0.6-0.4-1.7-0.7-2.2c6.8-0.2,10.9-1.3,10.9-4.5c0-1.9-1.2-3.1-3.7-3.1c-2,0-5.4,1.2-6.9,3.5l-2.3-1.1 c0.7-0.8,1.6-4,1.9-7.8H220v-2.3c1.1,0,3.8,0,5.6,0c0.1-1.3,0.1-2.8,0.1-4.2l3.2,0.3c-0.1,0.4-0.3,0.5-0.7,0.6 c0,1.1-0.1,2.3-0.2,3.3c2.4-0.1,6.5-0.6,9.2-1.4L237.6,35.3z"/><path d="M251,31.1c-0.1,0.3-0.4,0.5-0.8,0.5c-0.3,1.2-0.6,3.4-0.9,4.8c0.9-0.1,1.8-0.2,2.3-0.2c3.8,0,5,2.6,5,6.2 c0,1-0.2,3.3-0.7,5.1c-0.7,2.7-2.3,4-4.5,4c-1,0-2.3-0.5-4.3-2c0.3-0.6,0.6-1.3,0.8-2c1.8,1.3,2.8,1.6,3.5,1.6 c1.2,0,1.8-0.8,2.3-2.3c0.4-1.3,0.6-3.4,0.6-4.4c0-2.5-0.8-3.9-2.9-3.9c-0.6,0-1.5,0-2.6,0.2c-1.2,4.6-2.5,8.9-4.7,12.7l-2.2-1.1 c2.1-3.7,3.4-7.2,4.5-11.4l-4,0.6l-0.2-2.4l4.6-0.5c0.3-1.8,0.7-3.9,0.9-5.9L251,31.1z M258,34.5c-0.6-1-2-2.6-3-3.4l1.1-0.8 c1.1,0.9,2.4,2.3,3,3.3L258,34.5z M261.1,44.2c-0.7-3.2-2.4-6.3-4.4-8l2-1.3c2.3,2,4.2,5.1,4.9,8.4L261.1,44.2z M261.7,33.5 c-0.6-1-2-2.6-3-3.3l1.2-0.8c1.1,0.9,2.4,2.3,3,3.3L261.7,33.5z"/><path d="M270.6,39.4v7.8c1.6,2.6,4.8,2.6,9.1,2.6c2.8,0,6.1-0.1,8.2-0.2c-0.3,0.5-0.6,1.6-0.7,2.2c-1.8,0.1-4.5,0.1-7,0.1 c-5.2,0-8.3,0-10.5-2.9c-1,1-2.1,2-3,2.8c0,0.2-0.1,0.3-0.3,0.5l-1.2-2.4c1-0.7,2.2-1.6,3.2-2.5v-5.9h-3v-2.1 C265.4,39.4,270.6,39.4,270.6,39.4z M267.4,30.5c1.4,1.1,3.1,2.7,3.9,3.9l-1.8,1.4c-0.7-1.2-2.3-2.9-3.8-4.1L267.4,30.5z M274.6,39.9v8.8h-2V38.2h1.9v-7.5h10.1v7.5h1.9v8.5c0,1.9-0.7,2.1-3.8,2.1c-0.1-0.6-0.3-1.3-0.6-1.8c0.5,0,1,0,1.4,0 c0.8,0,0.9,0,0.9-0.3V40L274.6,39.9L274.6,39.9z M282.6,41.2v5.2H278v0.9h-1.7v-6.1C276.3,41.2,282.6,41.2,282.6,41.2z M276.5,32.4 v5.7h1.9v-4h4.1v-1.8L276.5,32.4L276.5,32.4z M280.9,45v-2.2h-3V45H280.9z M282.5,38.2v-2.5h-2.4v2.5H282.5z"/><path d="M306.6,50c-2,0.4-4.8,0.5-7.2,0.5c-2.1,0-3.9-0.1-4.9-0.3c-3-0.6-4.3-2.6-4.3-4.8c0-1.8,1-3.7,2.3-5.1l2,1 c-1.2,1.2-1.9,2.6-1.9,3.8c0,1.3,0.8,2.5,2.7,2.9c0.8,0.2,2.2,0.3,3.6,0.3c2.4,0,5.2-0.2,7.4-0.7L306.6,50z M295.3,37.7 c1-0.8,2.5-1.8,3.6-2.4l0,0c-1.5,0.2-5.3,0.3-7.6,0.3c0-0.6,0-1.8,0-2.3c2.3,0,7.2,0,9.4-0.2c1.4-0.1,3-0.3,4.4-0.6l0.2,2.5 c-3,0.4-6.5,2.7-8,3.9L295.3,37.7z M306.3,41.5c-0.6-1-2.1-2.4-3.1-3.2l1-1c1.1,0.8,2.4,2.2,3.2,3.2L306.3,41.5z M308.9,39.1 c-0.6-0.9-2-2.4-3.1-3.2l1-0.9c1.1,0.8,2.4,2.2,3.1,3.1L308.9,39.1z"/><path d="M316.8,31c0,0.3-0.3,0.5-0.7,0.5c-0.2,3-0.4,9-0.4,12.5c0,3.3,1.7,4.9,4.4,4.9c2.6,0,5.4-1.3,8.2-4.2 c0.3,0.5,1.1,1.7,1.4,2.1c-2.9,3.1-6.2,4.6-9.6,4.6c-4.9,0-7-2.7-7-7.4c0-3.1,0.2-10.3,0.4-13.2L316.8,31z"/><path d="M329.8,33c0.7,0,1.8,0,2.4-0.1c2.4-0.2,13.7-0.9,17.3-1v2.5c-2-0.1-3.2,0.1-5.1,1.3c-3.1,2-6.5,5.5-6.5,8.4 c0,3,2.4,4.8,8,5.5l-1.2,2.4c-6.8-0.9-9.4-3.6-9.4-7.8c0-3.1,3-7.1,7-9.7c-2.6,0.1-9.1,0.7-11.7,1c-0.1,0.2-0.4,0.3-0.6,0.4 L329.8,33z"/><path d="M355.8,33.2c0,0.2-0.3,0.4-0.6,0.4c-0.3,1.9-0.5,4.3-0.5,6.4c0,6.5,2.1,7.9,3.4,7.9c0.9,0,2-2.4,2.7-4.8 c0.5,0.4,1.4,1.2,2,1.5c-1.4,4.3-2.9,5.9-4.8,5.9c-3.4,0-5.3-4.2-5.6-8.4c-0.1-0.9-0.1-1.9-0.1-3c0-2.1,0.1-4.4,0.4-6.6L355.8,33.2 z M370.5,44.6c-0.7-4.2-2.8-7-5.9-8.8l1.5-1.8c3.4,1.8,6.1,5.2,6.8,9.8L370.5,44.6z"/><path d="M381.9,40.2c1.5-0.7,3.6-1.1,5.3-1.1c3.7,0,6.2,2.2,6.2,5.9c0,4.3-3.8,6.8-8.8,6.8c-3.1,0-5.3-1.3-5.3-3.6 c0-1.8,1.9-3.4,4.1-3.4c2.6,0,4.5,1.9,4.8,4c1.6-0.6,2.6-2,2.6-3.8c0-2.3-1.8-3.8-4.5-3.8c-3.4,0-6.7,1.5-8.4,3.1 c-0.6,0.6-1.6,1.6-2.2,2.3l-1.7-1.7c1.9-2,8.4-8.1,11.6-11.1c-1.3,0.2-5.8,0.4-8.1,0.5c0,0.2-0.3,0.3-0.5,0.4l-0.2-2.8 c3.2,0,9.6-0.2,11.3-0.5l0.4-0.2l1.7,2c-0.2,0.1-0.4,0.2-0.7,0.3C388.1,34.5,383.9,38.4,381.9,40.2L381.9,40.2z M384.2,49.6 c0.5,0,1.3-0.1,1.8-0.2c-0.2-1.6-1.4-2.8-2.8-2.8c-1,0-1.9,0.6-1.9,1.4C381.3,49.3,382.9,49.6,384.2,49.6z"/><path d="M397.8,31.4h16v20.5h-2.4v-1.5h-11.2V52h-2.3V31.4H397.8z M411.4,33.7h-11.2v6h11.2V33.7z M400.1,48.1h11.2V42h-11.2V48.1z"/><path d="M149.9,71.1c-0.1,0.2-0.3,0.2-0.6,0.2c-0.4,0.6-1,1.4-1.6,2.1h3.9v5.2h-2.2v-3.2h-16.2v3.2H131v-5.2h3.6 c-0.4-0.8-1.1-1.7-1.6-2.4l2-0.8c0.8,0.9,1.6,2.1,2,3l-0.6,0.3h3.6V70l2.9,0.1c0,0.2-0.2,0.3-0.6,0.4v2.9h3.6 c-0.2-0.1-0.4-0.2-0.6-0.2c0.6-0.8,1.5-2.2,1.9-3.1L149.9,71.1z M150,84.2V89c0,2.2-1.1,2.3-5,2.3c-0.1-0.6-0.5-1.4-0.7-2 c0.8,0,1.6,0,2.2,0c1.2,0,1.4,0,1.4-0.4v-2.8h-5.5v6.1H140v-6.1h-5.1v5.2h-2.2v-7.2h7.3v-1.7h-5V77h12.8v5.5h-5 c-0.1,0.1-0.2,0.2-0.5,0.2v1.5H150z M137,78.6v2.2h8.4v-2.2H137z"/><path d="M170.5,79c-0.1,0-0.1,0-0.2,0c-0.2,0-0.4,0-0.6-0.1c-7.2,2-13.1,4.8-13.1,7.8c0,2,2.2,2.8,5.9,2.8s6.7-0.3,8.4-0.6l0.2,2.4 c-1.7,0.2-4.8,0.5-8.7,0.5c-4.7,0-8.2-1.1-8.3-4.9c0-2.6,2.4-4.8,6.1-6.7c-0.9-1.6-1.2-4.3-1.1-9.6l3.5,0.3c0,0.3-0.3,0.5-0.8,0.6 c0,3.8,0,6.3,0.6,7.7c2.1-1,4.6-1.9,7.1-2.7L170.5,79z"/><path d="M177.8,73.2c0,0.2-0.3,0.4-0.6,0.4c-0.3,1.9-0.5,4.3-0.5,6.4c0,6.5,2.1,7.9,3.4,7.9c0.9,0,2-2.4,2.7-4.8 c0.5,0.4,1.4,1.2,2,1.5c-1.4,4.3-2.9,5.9-4.8,5.9c-3.4,0-5.3-4.2-5.6-8.4c-0.1-0.9-0.1-1.9-0.1-3c0-2.1,0.1-4.4,0.4-6.6L177.8,73.2 z M192.4,84.6c-0.7-4.2-2.8-7-5.9-8.8L188,74c3.4,1.8,6.1,5.2,6.8,9.8L192.4,84.6z"/><path d="M196.9,78.7c3.6-1,8.2-2,10.1-2c3.5,0,6,1.8,5.9,5.8c0,4.5-3.5,7.7-10.2,9.6c-0.3-0.6-1-1.5-1.6-2.1 c6.2-1.5,9.2-4.3,9.2-7.4c0-2.1-1-3.6-3.4-3.6c-2,0-5.5,0.8-8.5,1.9c0,0.2-0.2,0.5-0.5,0.6L196.9,78.7z M200.6,70.4 c3.3,0.2,7.1,0.9,9.6,1.8l-0.6,2.4c-2.5-0.9-6.5-1.6-9.5-1.8L200.6,70.4z"/><path d="M228.1,75c-0.1,0.2-0.3,0.4-0.6,0.4c-0.9,7.9-3.4,13.5-7.4,13.5c-2.3,0-4.2-2.1-4.2-6.1c0-6,4.7-10.6,10.9-10.6 c6.9,0,10.1,4.2,10.1,9.1c0,5.7-3.1,8.5-9,10c-0.4-0.6-0.9-1.4-1.5-2c5.5-1.1,8-3.7,8-7.9c0-3.9-2.6-7-7.6-7c-0.3,0-0.6,0-1,0 L228.1,75z M225,74.6c-4.2,0.7-6.9,4.3-6.9,8.1c0,2.3,0.8,3.8,1.9,3.8C222.7,86.4,224.5,80.6,225,74.6z"/><path d="M241,91c-0.7-1.8-1-5.6-1-8.8c0-3.3,0.5-7.2,1.2-11l3.1,0.6c0,0.2-0.3,0.4-0.7,0.4c-1.4,5.3-1.4,9.4-1.4,11.1 c0,1.2,0,2.5,0.1,3.1c0.4-1.2,1.3-3.3,1.7-4.3l1.3,1.5c-0.2,0.5-2.4,4.8-2.4,6.1c0,0.3,0.1,0.7,0.2,1.1L241,91z M247.2,76.5 c1,0,4.5,0,5.6-0.1c-0.1-2-0.2-3.7-0.2-5.4l3.1,0.1c0,0.2-0.2,0.4-0.6,0.5c0,1.4,0,2.5,0.1,4.7c1.8-0.2,3.2-0.5,4.4-0.9l0.2,2.4 c-1.1,0.3-2.7,0.6-4.6,0.8c0.1,2.4,0.2,4.9,0.3,6.4c1.7,0.7,3.5,1.8,4.7,2.9l-1.3,2.2c-0.9-0.9-2-1.8-3.3-2.5 c-0.1,2.4-1.1,3.9-4.3,3.9c-2.9,0-4.7-1.5-4.7-3.7c0-2.5,2.4-3.7,4.7-3.7c0.6,0,1.2,0.1,1.8,0.2c-0.1-1.4-0.2-3.6-0.3-5.6 c-0.7,0-1.6,0.1-2.2,0.1h-3.5L247.2,76.5z M253.5,86.4c-0.6-0.2-1.3-0.4-2-0.4c-1.3,0-2.7,0.5-2.7,1.7c0,1.1,1.2,1.7,2.7,1.7 s2.1-0.8,2.1-2.3L253.5,86.4z"/><path d="M263.4,85.4c1.7,1.4,4.1,3.8,5.3,5.2l-2,1.8c-1.1-1.5-3.6-4.1-5.1-5.4L263.4,85.4z"/><path d="M296.1,86.2h-8.5c1.7,2.3,4.7,3.7,8.8,4.2c-0.5,0.5-1.1,1.4-1.4,2c-4.7-0.8-7.8-2.7-9.7-6c-1.3,2.4-4,4.5-9.5,6 c-0.3-0.5-0.9-1.4-1.4-1.8c4.6-1.2,7-2.7,8.3-4.4h-8v-1.9h9c0.2-0.6,0.3-1.1,0.3-1.7h-6.3v-1.9h6.4v-1.6H277v-1.5h-1.8v-4.9h8.9 v-2.8l2.9,0.2c0,0.2-0.2,0.3-0.6,0.4v2.2h9v4.9h-1.7v1.5h-7.4v1.6h6.7v1.9h-6.8c0,0.6-0.1,1.1-0.2,1.7h9.9v1.9H296.1z M277.5,77.2 h6.6v-2l2.9,0.2c0,0.2-0.2,0.3-0.6,0.4v1.5h6.7v-2.5h-15.6V77.2z"/><path d="M300.3,91c-0.7-1.8-1-5.6-1-8.8c0-3.3,0.5-7.2,1.2-11l3.1,0.6c0,0.2-0.3,0.4-0.7,0.4c-1.4,5.3-1.4,9.4-1.4,11.1 c0,1.2,0,2.5,0.1,3.1c0.4-1.2,1.3-3.3,1.7-4.3l1.3,1.5c-0.2,0.5-2.4,4.8-2.4,6.1c0,0.3,0.1,0.7,0.2,1.1L300.3,91z M306.5,76.5 c1,0,4.5,0,5.6-0.1c-0.1-2-0.2-3.7-0.2-5.4l3.1,0.1c0,0.2-0.2,0.4-0.6,0.5c0,1.4,0,2.5,0.1,4.7c1.8-0.2,3.2-0.5,4.4-0.9l0.2,2.4 c-1.1,0.3-2.7,0.6-4.6,0.8c0.1,2.4,0.2,4.9,0.3,6.4c1.7,0.7,3.5,1.8,4.7,2.9l-1.3,2.2c-0.9-0.9-2-1.8-3.3-2.5 c-0.1,2.4-1.1,3.9-4.3,3.9c-2.9,0-4.7-1.5-4.7-3.7c0-2.5,2.4-3.7,4.7-3.7c0.6,0,1.2,0.1,1.8,0.2c-0.1-1.4-0.2-3.6-0.3-5.6 c-0.7,0-1.6,0.1-2.2,0.1h-3.5L306.5,76.5z M312.8,86.4c-0.6-0.2-1.3-0.4-2-0.4c-1.3,0-2.7,0.5-2.7,1.7c0,1.1,1.2,1.7,2.7,1.7 s2.1-0.8,2.1-2.3L312.8,86.4z"/><path d="M343.6,79.4v2h-3.2v8.4c0,2.4-1.2,2.6-6,2.6c-0.1-0.6-0.5-1.6-0.8-2.2c1.1,0,2.1,0.1,2.9,0.1c1.4,0,1.6,0,1.6-0.5v-8.4 h-16.3v-2H343.6z M333.1,74.2c3.1,1,6.8,2.4,9.1,3.3l-1.7,1.6c-2-1-5.4-2.3-8.4-3.3c-1.4,1.6-3.9,2.6-8.4,3.2 c-0.2-0.5-0.6-1.4-1-1.8c4.7-0.5,6.9-1.5,7.9-3.3h-7.5v-2h8.3c0.1-0.6,0.2-1.4,0.3-2.2l2.8,0.2c0,0.2-0.2,0.3-0.6,0.4 c-0.1,0.6-0.1,1.1-0.2,1.6h8.8v2h-9.3L333.1,74.2z M334,89.6h-7.2v1.6h-2.2v-8.1h9.4L334,89.6L334,89.6z M331.8,85h-5.1v2.9h5.1V85 z"/><path d="M351.5,87.5c1-0.2,1.9-0.4,2.9-0.6l0.2,1.8c-3,0.8-6,1.6-8,2c0,0.2-0.2,0.4-0.3,0.4l-0.8-2.3l1.1-0.2v-7.9l2.3,0.2 c0,0.2-0.2,0.3-0.5,0.3v7.1l1.3-0.3v-9.3h-3V71h7.4v7.7h-2.4v3.1h2.8v2h-2.8v3.7H351.5z M348.4,72.8v3.9h3.5v-3.9H348.4z M358.1,79.3c0,0.2-0.2,0.3-0.5,0.3c-0.5,2.5-1.4,5.3-2.6,6.9c-0.4-0.3-1.1-0.7-1.5-1c1.1-1.5,1.9-4.2,2.3-6.7L358.1,79.3z M365.8,78.6c1.1,2.2,2,5.2,2.4,7.1l-1.9,0.8c-0.2-1.9-1.1-4.9-2.2-7.1v10.4c0,2.3-0.9,2.5-4.4,2.5c0-0.6-0.3-1.5-0.6-2.2 c1.1,0,2.2,0,2.5,0s0.4-0.1,0.4-0.4V76.2h-1.5c-0.2,7.2-0.6,12.9-5.4,16.1c-0.3-0.5-0.9-1.3-1.4-1.6c4.4-2.7,4.7-7.7,4.8-14.5h-3.8 V74h5.4v-4.2l2.8,0.2c0,0.2-0.2,0.3-0.6,0.4V74h5.6v2.2h-3.8v3.1L365.8,78.6z"/><path d="M382.2,75c-0.1,0.2-0.3,0.4-0.6,0.4c-0.9,7.9-3.4,13.5-7.4,13.5c-2.3,0-4.2-2.1-4.2-6.1c0-6,4.7-10.6,10.9-10.6 c6.9,0,10.1,4.2,10.1,9.1c0,5.7-3.1,8.5-9,10c-0.4-0.6-0.9-1.4-1.5-2c5.5-1.1,8-3.7,8-7.9c0-3.9-2.6-7-7.6-7c-0.3,0-0.6,0-1,0 L382.2,75z M379.1,74.6c-4.2,0.7-6.9,4.3-6.9,8.1c0,2.3,0.8,3.8,1.9,3.8C376.8,86.4,378.6,80.6,379.1,74.6z"/><path d="M398.3,79.4v7.8c1.6,2.6,4.8,2.6,9.1,2.6c2.8,0,6.1-0.1,8.2-0.2c-0.3,0.5-0.6,1.6-0.7,2.2c-1.8,0.1-4.5,0.1-7,0.1 c-5.2,0-8.3,0-10.5-2.9c-1,1-2.1,2-3,2.8c0,0.2-0.1,0.3-0.3,0.5l-1.2-2.4c1-0.7,2.2-1.6,3.2-2.5v-5.9h-3v-2.1H398.3z M395,70.5 c1.4,1.1,3.1,2.7,3.9,3.9l-1.8,1.4c-0.7-1.2-2.3-2.9-3.8-4.1L395,70.5z M405.8,89.1v-2.4h-6.7v-1.9h6.7v-1.4h-5.2v-8h5.2V74h-6.3 v-1.9h6.3v-2.2l2.8,0.2c0,0.2-0.2,0.3-0.5,0.4v1.6h6.6V74H408v1.4h5.4v8H408v1.4h7v1.9h-7v2.4C408,89.1,405.8,89.1,405.8,89.1z M402.7,77v1.6h3.1V77H402.7z M402.7,81.7h3.1v-1.6h-3.1V81.7z M411.3,77H408v1.6h3.2L411.3,77L411.3,77z M411.3,81.7v-1.6H408v1.6 H411.3z"/><path d="M133.2,124.4c0,0.2-0.2,0.3-0.5,0.3c-0.2,2-0.7,4.3-1.4,5.7c-0.4-0.3-1.2-0.6-1.6-0.8c0.6-1.3,1-3.6,1.2-5.7L133.2,124.4z M137.5,123.6c-0.1-0.4-0.2-0.8-0.4-1.3l-1.5,0.1v10.1h-2v-10c-1.2,0.1-2.2,0.1-3,0.2c0,0.2-0.2,0.3-0.4,0.3l-0.5-2.4h1.6 c0.5-0.6,0.9-1.2,1.4-1.9c-0.7-1.1-1.8-2.5-2.9-3.5c0.5-0.6,0.8-1.1,1.2-1.5c0.2,0.2,0.4,0.4,0.6,0.6c0.7-1.4,1.5-3.1,2-4.4 l2.3,0.9c-0.1,0.2-0.3,0.2-0.6,0.2c-0.6,1.3-1.6,3.2-2.4,4.5c0.4,0.5,0.8,0.9,1.1,1.3c0.9-1.5,1.8-2.9,2.4-4.2l2.2,1 c-0.1,0.1-0.3,0.2-0.6,0.2c-1.1,1.9-2.9,4.5-4.5,6.6l3-0.1c-0.3-0.7-0.7-1.4-1.1-2.1l1.6-0.7c0.9,1.5,1.8,3.4,2.2,4.7v-3.3h13v4.7 H150v-2.9h-8.9v2.9h-2v-0.9L137.5,123.6z M137.8,123.9c0.6,1.4,1.2,3.3,1.4,4.5l-1.8,0.6c-0.2-1.2-0.7-3.1-1.3-4.6L137.8,123.9z M144.7,122.6c0,0.2-0.2,0.3-0.5,0.4c-0.3,4.7-1.8,7.9-5.4,9.4c-0.3-0.4-1-1.2-1.4-1.6c3.2-1.2,4.4-4.1,4.6-8.4L144.7,122.6z M144.4,115.8V114h-5.5v-2h5.5v-2.2l2.8,0.2c0,0.2-0.2,0.3-0.6,0.4v1.6h5.6v1.9h-5.6v1.8h4.6v1.9h-11.4v-1.9L144.4,115.8 L144.4,115.8z M148.4,129.5c0,0.6,0,0.7,0.5,0.7h1.2c0.4,0,0.5-0.4,0.6-3c0.4,0.4,1.3,0.7,1.8,0.8c-0.2,3.2-0.7,4.1-2.2,4.1h-1.7 c-1.8,0-2.2-0.6-2.2-2.6v-7.1l2.6,0.2c0,0.2-0.2,0.3-0.5,0.4v6.5H148.4z"/><path d="M163.6,110.6c-0.1,0.2-0.3,0.4-0.7,0.5c-0.1,0.9-0.4,2.1-0.6,3c2-0.1,4.6-0.5,6.5-1.1l0.3,2.3c-2.2,0.5-4.7,0.9-7.2,1.1 c-1.1,4.5-2.6,8.2-4.8,11.6l-2.4-0.9c2.1-3.1,3.7-6.7,4.6-10.7c-0.5,0-1.1,0-1.7,0h-2.8v-2.2h2.8c0.7,0,1.5,0,2.1,0 c0.2-1.2,0.4-2.5,0.6-3.8L163.6,110.6z M169.8,121c0,1.7,0.1,3,0.2,4.5c1.4,0.6,3.5,1.6,4.9,2.6l-1.2,2.2c-1.1-0.9-2.6-1.8-3.7-2.3 c0,1.3-0.5,4-4.7,4c-2.6,0-4.8-1.3-4.7-3.7c0-2.4,2.5-3.7,4.8-3.7c0.7,0,1.5,0.1,2.3,0.3c-0.1-1.3-0.2-2.7-0.2-3.6L169.8,121z M167.9,127c-0.8-0.3-1.8-0.5-2.5-0.5c-1.3,0-2.7,0.6-2.7,1.8c0,1.1,1.1,1.7,2.7,1.7c1.3,0,2.4-0.6,2.4-2.1V127H167.9z M174.7,118.9c-2.6,0-5.9,0.4-8.4,1.1l-0.4-2.1c2.7-0.7,6-1.2,8.6-1.2L174.7,118.9z"/><path d="M190,115c-0.1,0.2-0.3,0.4-0.6,0.4c-0.9,7.9-3.4,13.5-7.4,13.5c-2.3,0-4.2-2.1-4.2-6.1c0-6,4.7-10.6,10.9-10.6 c6.9,0,10.1,4.2,10.1,9.1c0,5.7-3.1,8.5-9,10c-0.4-0.6-0.9-1.4-1.5-2c5.5-1.1,8-3.7,8-7.9c0-3.9-2.6-7-7.6-7c-0.3,0-0.6,0-1,0 L190,115z M186.9,114.6c-4.2,0.7-6.9,4.3-6.9,8.1c0,2.3,0.8,3.8,1.9,3.8C184.6,126.4,186.4,120.6,186.9,114.6z"/><path d="M210.5,111.1c-0.1,0.3-0.4,0.5-0.8,0.5c-0.3,1.2-0.6,3.4-0.9,4.8c0.9-0.1,1.8-0.2,2.3-0.2c3.8,0,5,2.6,5,6.2 c0,1-0.2,3.3-0.7,5.1c-0.7,2.7-2.3,4-4.5,4c-1,0-2.3-0.5-4.3-2c0.3-0.6,0.6-1.3,0.8-2c1.8,1.3,2.8,1.6,3.5,1.6 c1.2,0,1.8-0.8,2.3-2.3c0.4-1.3,0.6-3.4,0.6-4.4c0-2.5-0.8-3.9-2.9-3.9c-0.6,0-1.5,0-2.6,0.2c-1.2,4.6-2.5,8.9-4.7,12.7l-2.2-1.1 c2.1-3.7,3.4-7.2,4.5-11.4l-4,0.6l-0.2-2.4l4.6-0.5c0.3-1.8,0.7-3.9,0.9-5.9L210.5,111.1z M220.6,122.8c-0.7-3.3-2.9-6.3-5.1-8.1 l1.8-1.3c2.5,1.8,5,5.3,5.7,8.5L220.6,122.8z"/><path d="M237.7,123.5c-1.4,0.2-3.5,0.3-5.4,0.3c-0.1,1.2-0.1,1.4-0.1,1.8c0,3.1,1.9,3.7,4.3,3.7c1,0,2.1-0.1,3-0.4 c1.4-0.4,2.1-1.3,2.1-2.6c0-1.2-0.6-2.7-1.8-4.2c0.6-0.2,1.6-0.6,2.2-0.8c1.4,2,2.2,3.8,2.2,5.4c0,4.8-6.3,4.8-7.7,4.8 c-3.6,0-6.6-0.9-6.6-6c0-0.6,0-1.2,0.1-1.8c-1.8-0.1-5.1-0.2-5.1-2.9c0-1,0.6-2.1,2-3.2l1.8,0.9c-1,0.6-1.6,1.3-1.6,1.9 c0,1.1,1.6,1.1,3,1.2c0.1-1.5,0.3-3.1,0.5-4.8c-1.6-0.1-3.6-0.6-4.8-1.2l0.5-2.2c1.3,0.6,2.9,1,4.6,1.2c0.2-1.4,0.4-2.9,0.5-4.1 l3.3,0.4c0,0.3-0.4,0.5-0.8,0.5c-0.2,0.9-0.4,2.2-0.6,3.4c0.6,0,1.4,0.1,2.1,0.1c0.8,0,1.7,0,2.4-0.1l-0.1,2.2 c-0.7,0-1.5,0.1-2.4,0.1c-0.8,0-1.7,0-2.4-0.1c-0.2,1.6-0.4,3.2-0.5,4.7c1.8,0,3.6-0.1,5.2-0.4L237.7,123.5z"/><path d="M251.5,111c0,0.3-0.3,0.5-0.7,0.5c-0.2,3-0.4,9-0.4,12.5c0,3.3,1.7,4.9,4.4,4.9c2.6,0,5.4-1.3,8.2-4.2 c0.3,0.5,1.1,1.7,1.4,2.1c-2.9,3.1-6.2,4.6-9.6,4.6c-4.9,0-7-2.7-7-7.4c0-3.1,0.2-10.3,0.4-13.2L251.5,111z"/><path d="M270.8,110.5l3.2,0.2c0,0.3-0.2,0.4-0.6,0.5c-0.1,1-0.2,2.4-0.3,3.2l0.9,0.3c-0.5,1-0.9,2.3-1.2,3.2 c2.6-2.4,5.2-3.8,7.1-3.8c2.3,0,3.6,1.6,3.6,4.5c0,0.3,0,0.6,0,0.9c-0.2,2.4-0.4,4.9-0.4,6.5c0,1.4,0.1,2.1,1,2.1 c0.7,0,2.1-0.8,3.1-1.6c0,0.6,0.2,2.1,0.3,2.6c-1.2,0.8-2.7,1.5-3.8,1.5c-2.3,0-3.1-1.3-3.1-4.1c0-1.2,0.4-7.3,0.4-7.4 c0-1.8-0.6-2.6-1.7-2.6c-1.6,0-4.2,1.7-6.6,4.2c0,5,0,9.3,0,10.8h-2.4v-8.8c-0.8,1.5-2.4,3.5-4,5.1l-1.2-2.2 c1.8-1.6,4.2-4.4,5.2-6.7c0-0.6,0-1.2,0-1.9c-0.9,0.2-2.6,0.4-4.2,0.4v-2.3c1.8,0,3.6-0.2,4.4-0.3L270.8,110.5z"/><path d="M298.5,110.6c-0.1,0.2-0.3,0.4-0.7,0.5c-0.1,0.9-0.4,2.1-0.6,3c2-0.1,4.6-0.5,6.5-1.1l0.3,2.3c-2.2,0.5-4.7,0.9-7.2,1.1 c-1.1,4.5-2.6,8.2-4.8,11.6l-2.4-0.9c2.1-3.1,3.7-6.7,4.6-10.7c-0.5,0-1.1,0-1.7,0h-2.8v-2.2h2.8c0.7,0,1.5,0,2.1,0 c0.2-1.2,0.4-2.5,0.6-3.8L298.5,110.6z M304.7,121c0,1.7,0.1,3,0.2,4.5c1.4,0.6,3.5,1.6,4.9,2.6l-1.2,2.2c-1.1-0.9-2.6-1.8-3.7-2.3 c0,1.3-0.5,4-4.7,4c-2.6,0-4.8-1.3-4.7-3.7c0-2.4,2.5-3.7,4.8-3.7c0.7,0,1.5,0.1,2.3,0.3c-0.1-1.3-0.2-2.7-0.2-3.6L304.7,121z M302.8,127c-0.8-0.3-1.8-0.5-2.5-0.5c-1.3,0-2.7,0.6-2.7,1.8c0,1.1,1.1,1.7,2.7,1.7c1.3,0,2.4-0.6,2.4-2.1V127H302.8z M309.6,118.9c-2.6,0-5.9,0.4-8.4,1.1l-0.4-2.1c2.7-0.7,6-1.2,8.6-1.2L309.6,118.9z"/><path d="M316.7,113.2c0,0.2-0.3,0.4-0.6,0.4c-0.3,1.9-0.5,4.3-0.5,6.4c0,6.5,2.1,7.9,3.4,7.9c0.9,0,2-2.4,2.7-4.8 c0.5,0.4,1.4,1.2,2,1.5c-1.4,4.3-2.9,5.9-4.8,5.9c-3.4,0-5.3-4.2-5.6-8.4c-0.1-0.9-0.1-1.9-0.1-3c0-2.1,0.1-4.4,0.4-6.6 L316.7,113.2z M331.3,124.6c-0.7-4.2-2.8-7-5.9-8.8l1.5-1.8c3.4,1.8,6.1,5.2,6.8,9.8L331.3,124.6z"/><path d="M341.6,129c0,1.8-1.5,3.4-3.4,3.4c-1.8,0-3.4-1.5-3.4-3.4c0-1.8,1.5-3.4,3.4-3.4C340.2,125.6,341.6,127.2,341.6,129z M340.6,129c0-1.3-1.1-2.4-2.4-2.4s-2.4,1.1-2.4,2.4s1.1,2.4,2.4,2.4C339.6,131.4,340.6,130.3,340.6,129z"/></g><g><g><path d="M137.3,273h-2.9v9h-1.1v-9h-2.9v-0.9h7v0.9H137.3z" class="st0"/><path d="M145.1,272l-3.4,10h-1.2l-3.2-10h1.2l1.5,5c0.4,1.3,0.8,2.6,1,3.8l0,0c0.3-1.2,0.7-2.5,1.1-3.8l1.7-5H145.1z" class="st0"/><path d="M156.6,272.5c0,0.1-0.1,0.1-0.2,0.1c-0.7,1.7-1.8,3.1-3.1,4.2c-0.2-0.2-0.6-0.4-0.8-0.5 c1.2-0.9,2.2-2.1,2.6-3.2h-9.4v-0.9h9.9l0.1-0.1L156.6,272.5z M151.5,274.9c0,0.1-0.1,0.2-0.3,0.2c-0.4,3.1-1.4,6-4.1,7.6 c-0.2-0.2-0.5-0.5-0.8-0.6c2.7-1.5,3.6-4.2,3.9-7.3L151.5,274.9z" class="st0"/><path d="M168.6,280.4v0.9h-10.8v-0.9H168.6z M167.3,273.2v0.9h-8.1v-0.9H167.3z" class="st0"/><path d="M172.7,274.1c1.2,0.5,2.5,1.2,3.7,1.9c0.8-1.3,1.7-2.9,2.4-4.6l1.3,0.5c-0.1,0.1-0.2,0.2-0.5,0.2 c-0.6,1.4-1.5,3-2.3,4.4c1,0.6,2.1,1.3,2.9,2l-0.6,0.8c-0.7-0.6-1.7-1.3-2.8-2c-1.3,1.9-3.3,3.9-5.5,5.3c-0.2-0.2-0.5-0.5-0.7-0.7 c2.2-1.4,4.2-3.4,5.5-5.2c-1.2-0.7-2.5-1.4-3.7-1.9L172.7,274.1z" class="st0"/><path d="M183.9,280.4v-9.6h4.4v0.7h-3.7v8.9L183.9,280.4L183.9,280.4z" class="st0"/><path d="M190.2,271.8h8.5v11h-0.9V282h-6.7v0.9h-0.9L190.2,271.8L190.2,271.8z M197.8,272.7h-6.7v3.8h6.7V272.7z M191.1,281.1h6.7v-3.8h-6.7V281.1z" class="st0"/><path d="M211.5,271.5c-0.1,0.1-0.2,0.1-0.3,0.1c-0.3,0.4-0.7,1-1.1,1.4h2.4v2.7h-0.9v-1.9h-9.3v1.9h-0.8V273h2.1 c-0.2-0.5-0.7-1.1-1-1.6l0.8-0.3c0.5,0.5,1,1.2,1.2,1.6l-0.5,0.2h2.4v-2l1.1,0.1c0,0.1-0.1,0.2-0.2,0.2v1.8h2.4l-0.4-0.2 c0.4-0.5,0.9-1.2,1.2-1.7L211.5,271.5z M211.6,278.8v2.7c0,1-0.5,1-2.6,1c0-0.2-0.2-0.5-0.3-0.8c0.5,0,1,0,1.3,0 c0.7,0,0.8,0,0.8-0.2v-1.9h-3.4v3.5h-0.9v-3.5h-3.2v2.9h-0.9v-3.7h4.1v-1.1h-2.9v-2.9h6.9v2.9h-3c0,0-0.1,0-0.2,0.1v1H211.6z M204.3,275.5v1.5h5.3v-1.5H204.3z" class="st0"/><path d="M218,273.5v9.6h-4.4v-0.7h3.7v-8.9L218,273.5L218,273.5z" class="st0"/></g></g><g><path d="M94.7,49.2l-3.1-2.6c2.5-2.5,3.8-4.8,4-6.9h-3.7v-10h11.9v6.5C103.8,41.1,100.7,45.4,94.7,49.2z" class="st0"/><path d="M109.7,49.2l-3.1-2.6c2.5-2.5,3.8-4.8,4-6.9h-3.7v-10h11.9v6.5C118.8,41.1,115.7,45.4,109.7,49.2z" class="st0"/></g><g><path d="M131.9,162.2h-4.2v-1.9h10.6v1.9h-4.2v16.6h-2.2V162.2z"/><path d="M139.9,159.6h2.2v7.5h0.1c0.3-0.5,0.8-1,1.3-1.4c0.6-0.3,1.2-0.5,2-0.5c1.7,0,3.6,1.2,3.6,5v8.5H147v-8.2 c0-1.8-0.5-3.4-2.2-3.4c-1.2,0-2.1,0.8-2.5,2.2c-0.1,0.3-0.1,0.7-0.1,1.1v8.4h-2.2V159.6z"/><path d="M153.9,172.4c0,3.8,1.8,4.8,3.6,4.8c1.2,0,2.1-0.3,2.7-0.6l0.4,1.6c-0.8,0.4-2,0.7-3.5,0.7c-3.5,0-5.4-2.6-5.4-6.7 c0-4.2,2-7.1,5.1-7.1c3.3,0,4.4,3.2,4.4,6c0,0.5,0,0.9-0.1,1.2H153.9z M159.1,170.8c0-2.3-0.8-3.9-2.4-3.9c-1.8,0-2.6,2.1-2.7,3.9 H159.1z"/><path d="M177.8,159.6v15.9c0,1,0.1,2.4,0.1,3.3H176l-0.1-1.9h-0.1c-0.5,1.1-1.7,2.1-3.4,2.1c-2.6,0-4.5-2.5-4.5-6.8 c0-4.6,2.2-7,4.7-7c1.4,0,2.4,0.6,3,1.7h0.1v-7.4H177.8z M175.6,170.6c0-0.3,0-0.6-0.1-0.9c-0.2-1.4-1.2-2.7-2.5-2.7 c-2,0-2.9,2.4-2.9,5.1c0,2.8,0.9,5,2.8,5c1,0,2.1-0.6,2.6-2.5c0.1-0.3,0.1-0.6,0.1-0.9V170.6z"/><path d="M187.1,178.8l-0.2-1.5h-0.1c-0.6,1-1.7,1.7-3.2,1.7c-2.1,0-3.5-1.6-3.5-3.8c0-3.3,2.7-4.9,6.5-4.9V170c0-1.5-0.4-3-2.4-3 c-1,0-1.9,0.3-2.6,0.8l-0.5-1.5c0.7-0.5,2.1-1,3.6-1c3.1,0,4.2,2.1,4.2,5v5.5c0,1,0,2.2,0.2,3.1H187.1z M186.8,171.9 c-1.6,0-4.3,0.3-4.3,3.1c0,1.7,0.9,2.3,1.9,2.3c1.2,0,2.1-0.8,2.4-2.1c0.1-0.3,0.1-0.5,0.1-0.8V171.9z"/><path d="M194.7,161.9c0,0.8-0.5,1.4-1.4,1.4c-0.8,0-1.3-0.6-1.3-1.4c0-0.8,0.6-1.4,1.3-1.4C194.1,160.5,194.7,161.1,194.7,161.9z M192.2,178.8v-13.3h2.2v13.3H192.2z"/><path d="M197.8,159.6h2.2v19.2h-2.2V159.6z"/><path d="M204.5,165.5l2.2,7.7c0.3,1,0.5,1.9,0.7,2.7h0.1c0.2-0.8,0.4-1.8,0.7-2.7l1.9-7.7h2.3l-2.7,8.8c-1.1,3.8-2.1,6.7-3.7,8.5 c-1,1.1-2.1,1.7-2.6,1.9l-0.7-1.9c0.6-0.3,1.3-0.8,2-1.5c0.6-0.6,1.1-1.5,1.5-2.4c0.1-0.3,0.2-0.5,0.2-0.6c0-0.2,0-0.3-0.1-0.5 l-3.9-12.2H204.5z"/><path d="M219,159.6h2.2v19.2H219V159.6z"/><path d="M227.1,161.9c0,0.8-0.5,1.4-1.4,1.4c-0.8,0-1.3-0.6-1.3-1.4c0-0.8,0.6-1.4,1.3-1.4C226.6,160.5,227.1,161.1,227.1,161.9z M224.7,178.8v-13.3h2.2v13.3H224.7z"/><path d="M230.6,178.8v-11.6h-1.7v-1.7h1.7v-0.8c0-1.6,0.3-3.1,1.3-4.2c0.8-0.9,1.9-1.2,2.9-1.2c0.8,0,1.4,0.2,1.8,0.3l-0.3,1.7 c-0.3-0.1-0.7-0.3-1.3-0.3c-1.7,0-2.1,1.7-2.1,3.5v0.8h2.7v1.7h-2.7v11.6H230.6z"/><path d="M238.3,172.4c0,3.8,1.8,4.8,3.6,4.8c1.2,0,2.1-0.3,2.7-0.6l0.4,1.6c-0.8,0.4-2,0.7-3.5,0.7c-3.5,0-5.4-2.6-5.4-6.7 c0-4.2,2-7.1,5.1-7.1c3.3,0,4.4,3.2,4.4,6c0,0.5,0,0.9-0.1,1.2H238.3z M243.5,170.8c0-2.3-0.8-3.9-2.4-3.9c-1.8,0-2.6,2.1-2.7,3.9 H243.5z"/><path d="M254.1,165.5l1.5,6.6c0.3,1.4,0.6,2.9,0.8,4.2h0.1c0.2-1.4,0.6-2.9,1-4.2l1.7-6.6h1.8l1.7,6.5c0.4,1.5,0.7,2.9,1,4.4h0.1 c0.2-1.4,0.5-2.8,0.8-4.3l1.5-6.5h2.2l-3.7,13.3h-1.9l-1.7-6.4c-0.4-1.4-0.6-2.6-0.9-4.1h-0.1c-0.3,1.6-0.6,2.9-0.9,4.2l-1.8,6.3 h-1.9l-3.5-13.3H254.1z"/><path d="M271.3,172.4c0,3.8,1.8,4.8,3.6,4.8c1.2,0,2.1-0.3,2.7-0.6l0.4,1.6c-0.8,0.4-2,0.7-3.5,0.7c-3.5,0-5.4-2.6-5.4-6.7 c0-4.2,2-7.1,5.1-7.1c3.3,0,4.4,3.2,4.4,6c0,0.5,0,0.9-0.1,1.2H271.3z M276.5,170.8c0-2.3-0.8-3.9-2.4-3.9c-1.8,0-2.6,2.1-2.7,3.9 H276.5z"/><path d="M292,178.8l-0.2-1.5h-0.1c-0.6,1-1.7,1.7-3.2,1.7c-2.1,0-3.5-1.6-3.5-3.8c0-3.3,2.7-4.9,6.5-4.9V170c0-1.5-0.4-3-2.4-3 c-1,0-1.9,0.3-2.6,0.8l-0.5-1.5c0.7-0.5,2.1-1,3.6-1c3.1,0,4.2,2.1,4.2,5v5.5c0,1,0,2.2,0.2,3.1H292z M291.6,171.9 c-1.6,0-4.3,0.3-4.3,3.1c0,1.7,0.9,2.3,1.8,2.3c1.2,0,2.1-0.8,2.4-2.1c0.1-0.3,0.1-0.5,0.1-0.8V171.9z"/><path d="M297.1,169.2c0-1.3-0.1-2.6-0.1-3.7h2l0.1,2.3h0.1c0.5-1.4,1.7-2.5,3.1-2.5c0.2,0,0.4,0,0.5,0v2.2c-0.2,0-0.3,0-0.6,0 c-1.5,0-2.5,1.3-2.8,2.9c-0.1,0.3-0.1,0.7-0.1,1.2v7.3h-2.2V169.2z"/><path d="M305.7,172.4c0,3.8,1.8,4.8,3.6,4.8c1.2,0,2.1-0.3,2.7-0.6l0.4,1.6c-0.8,0.4-2,0.7-3.5,0.7c-3.5,0-5.4-2.6-5.4-6.7 c0-4.2,2-7.1,5.1-7.1c3.3,0,4.4,3.2,4.4,6c0,0.5,0,0.9-0.1,1.2H305.7z M310.9,170.8c0-2.3-0.8-3.9-2.4-3.9c-1.8,0-2.6,2.1-2.7,3.9 H310.9z"/><path d="M320.1,176.5c0.6,0.4,1.5,0.8,2.5,0.8c1.4,0,2.2-0.8,2.2-1.9c0-1.1-0.5-1.7-2-2.5c-2-1-3-2.2-3-3.8c0-2.2,1.7-3.8,4-3.8 c1.1,0,2.1,0.4,2.7,0.7l-0.6,1.7c-0.5-0.3-1.2-0.7-2.1-0.7c-1.2,0-1.9,0.8-1.9,1.7c0,1,0.5,1.5,2,2.3c1.8,0.9,3,2.1,3,4 c0,2.6-1.8,4-4.3,4c-1.1,0-2.3-0.3-3-0.8L320.1,176.5z"/><path d="M329.4,169.7c0-1.9-0.1-3.2-0.1-4.2h2l0.1,1.9h0.1c0.8-1.5,2-2.1,3.5-2.1c2.6,0,4.5,2.5,4.5,6.8c0,4.9-2.3,7-4.8,7 c-1.4,0-2.4-0.8-2.9-1.7h-0.1v6.8h-2.2V169.7z M331.6,173.7c0,0.4,0,0.7,0.1,1.1c0.4,1.8,1.5,2.4,2.5,2.4c2,0,2.9-2.3,2.9-5.1 c0-2.7-0.9-5-2.9-5c-1.2,0-2.3,1.2-2.5,2.6c-0.1,0.3-0.1,0.7-0.1,1V173.7z"/><path d="M343.4,172.4c0,3.8,1.8,4.8,3.6,4.8c1.2,0,2.1-0.3,2.7-0.6l0.4,1.6c-0.8,0.4-2,0.7-3.5,0.7c-3.5,0-5.4-2.6-5.4-6.7 c0-4.2,2-7.1,5.1-7.1c3.3,0,4.4,3.2,4.4,6c0,0.5,0,0.9-0.1,1.2H343.4z M348.6,170.8c0-2.3-0.8-3.9-2.4-3.9c-1.8,0-2.6,2.1-2.7,3.9 H348.6z"/><path d="M353.3,169c0-1.5-0.1-2.4-0.1-3.5h1.9l0.1,1.8h0.1c0.6-1.1,1.8-2,3.5-2c1.8,0,3.7,1.3,3.7,5v8.6h-2.2v-8.2 c0-1.8-0.5-3.4-2.3-3.4c-1.1,0-2.1,0.9-2.4,2.3c-0.1,0.3-0.1,0.7-0.1,1.2v8.2h-2.2V169z"/><path d="M375,159.6v15.9c0,1,0.1,2.4,0.1,3.3h-1.9l-0.1-1.9H373c-0.5,1.1-1.7,2.1-3.4,2.1c-2.6,0-4.5-2.5-4.5-6.8 c0-4.6,2.2-7,4.7-7c1.4,0,2.4,0.6,3,1.7h0.1v-7.4H375z M372.8,170.6c0-0.3,0-0.6-0.1-0.9c-0.2-1.4-1.2-2.7-2.5-2.7 c-2,0-2.9,2.4-2.9,5.1c0,2.8,0.9,5,2.8,5c1,0,2.1-0.6,2.6-2.5c0.1-0.3,0.1-0.6,0.1-0.9V170.6z"/><path d="M380.8,161.9c0,0.8-0.5,1.4-1.4,1.4c-0.8,0-1.3-0.6-1.3-1.4c0-0.8,0.6-1.4,1.3-1.4C380.2,160.5,380.8,161.1,380.8,161.9z M378.3,178.8v-13.3h2.2v13.3H378.3z"/><path d="M383.9,169c0-1.5-0.1-2.4-0.1-3.5h1.9l0.1,1.8h0.1c0.6-1.1,1.8-2,3.5-2c1.8,0,3.7,1.3,3.7,5v8.6h-2.2v-8.2 c0-1.8-0.5-3.4-2.3-3.4c-1.1,0-2.1,0.9-2.4,2.3c-0.1,0.3-0.1,0.7-0.1,1.2v8.2h-2.2V169z"/><path d="M405.7,165.5c-0.1,0.9-0.1,2.1-0.1,4v7.5c0,3.3-0.5,4.9-1.5,5.9c-1,1-2.4,1.5-4,1.5c-1.3,0-2.6-0.3-3.5-0.8l0.5-1.7 c0.7,0.4,1.7,0.8,3,0.8c2,0,3.3-1.1,3.3-4.3v-1.4h-0.1c-0.5,1.1-1.7,1.8-3.1,1.8c-2.7,0-4.5-2.7-4.5-6.5c0-4.8,2.5-7,4.8-7 c1.7,0,2.6,1,3.1,1.9h0.1l0.1-1.7H405.7z M403.4,170.3c0-0.4,0-0.7-0.1-1c-0.3-1.1-1-2.2-2.4-2.2c-1.8,0-2.9,2-2.9,5 c0,3.1,1.2,4.9,2.9,4.9c0.9,0,2-0.5,2.4-2.1c0.1-0.4,0.2-0.8,0.2-1.2V170.3z"/><path d="M130.6,205.3c0,3.8,1.8,4.8,3.6,4.8c1.2,0,2.1-0.3,2.7-0.6l0.4,1.6c-0.8,0.4-2,0.7-3.5,0.7c-3.5,0-5.4-2.6-5.4-6.7 c0-4.2,2-7.1,5.1-7.1c3.3,0,4.4,3.2,4.4,6c0,0.5,0,0.9-0.1,1.2H130.6z M135.8,203.7c0-2.3-0.8-3.9-2.4-3.9c-1.8,0-2.6,2.1-2.7,3.9 H135.8z"/><path d="M141.4,198.4l2,7.4c0.3,1,0.5,2.2,0.8,3.3h0.1c0.2-1.1,0.5-2.2,0.8-3.3l2-7.4h2.2l-4.1,13.3h-2l-4-13.3H141.4z"/><path d="M152.3,205.3c0,3.8,1.8,4.8,3.6,4.8c1.2,0,2.1-0.3,2.7-0.6l0.4,1.6c-0.8,0.4-2,0.7-3.5,0.7c-3.5,0-5.4-2.6-5.4-6.7 c0-4.2,2-7.1,5.1-7.1c3.3,0,4.4,3.2,4.4,6c0,0.5,0,0.9-0.1,1.2H152.3z M157.5,203.7c0-2.3-0.8-3.9-2.4-3.9c-1.8,0-2.6,2.1-2.7,3.9 H157.5z"/><path d="M162.1,202.1c0-1.3-0.1-2.6-0.1-3.7h2l0.1,2.3h0.1c0.5-1.4,1.7-2.5,3.1-2.5c0.2,0,0.4,0,0.5,0v2.2c-0.2,0-0.3,0-0.6,0 c-1.5,0-2.5,1.3-2.8,2.9c-0.1,0.3-0.1,0.7-0.1,1.2v7.3h-2.2V202.1z"/><path d="M171.4,198.4l2.2,7.7c0.3,1,0.5,1.9,0.7,2.7h0.1c0.2-0.8,0.4-1.8,0.7-2.7l1.9-7.7h2.3l-2.7,8.8c-1.1,3.8-2.1,6.7-3.7,8.5 c-1,1.1-2.1,1.7-2.6,1.9l-0.7-1.9c0.6-0.3,1.3-0.8,2-1.5c0.6-0.6,1.1-1.5,1.5-2.4c0.1-0.3,0.2-0.5,0.2-0.6c0-0.2,0-0.3-0.1-0.5 l-3.9-12.2H171.4z"/><path d="M190,192.5v15.9c0,1,0.1,2.4,0.1,3.3h-1.9l-0.1-1.9h-0.1c-0.5,1.1-1.7,2.1-3.4,2.1c-2.6,0-4.5-2.5-4.5-6.8 c0-4.6,2.2-7,4.7-7c1.4,0,2.4,0.6,3,1.7h0.1v-7.4H190z M187.8,203.6c0-0.3,0-0.6-0.1-0.9c-0.2-1.4-1.2-2.7-2.5-2.7 c-2,0-2.9,2.4-2.9,5.1c0,2.8,0.9,5,2.8,5c1,0,2.1-0.6,2.6-2.5c0.1-0.3,0.1-0.6,0.1-0.9V203.6z"/><path d="M199.3,211.7l-0.2-1.5H199c-0.6,1-1.7,1.7-3.2,1.7c-2.1,0-3.5-1.6-3.5-3.8c0-3.3,2.7-4.9,6.5-4.9v-0.4c0-1.5-0.4-3-2.4-3 c-1,0-1.9,0.3-2.6,0.8l-0.5-1.5c0.7-0.5,2.1-1,3.6-1c3.1,0,4.2,2.1,4.2,5v5.5c0,1,0,2.2,0.2,3.1H199.3z M198.9,204.9 c-1.6,0-4.3,0.3-4.3,3.1c0,1.7,0.9,2.3,1.9,2.3c1.2,0,2.1-0.8,2.4-2.1c0.1-0.3,0.1-0.5,0.1-0.8V204.9z"/><path d="M205.2,198.4l2.2,7.7c0.3,1,0.5,1.9,0.7,2.7h0.1c0.2-0.8,0.4-1.8,0.7-2.7l1.9-7.7h2.3l-2.7,8.8c-1.1,3.8-2.1,6.7-3.7,8.5 c-1,1.1-2.1,1.7-2.6,1.9l-0.7-1.9c0.6-0.3,1.3-0.8,2-1.5c0.6-0.6,1.1-1.5,1.5-2.4c0.1-0.3,0.2-0.5,0.2-0.6c0-0.2,0-0.3-0.1-0.5 l-3.9-12.2H205.2z"/><path d="M219.7,201.9c0-1.5-0.1-2.4-0.1-3.5h1.9l0.1,1.8h0.1c0.6-1.1,1.7-2.1,3.4-2.1c1.4,0,2.6,0.8,3.1,2.2h0.1 c0.4-0.7,0.9-1.2,1.4-1.6c0.6-0.4,1.3-0.7,2.2-0.7c1.8,0,3.6,1.2,3.6,5.1v8.5h-2.2v-8c0-2-0.5-3.6-2.2-3.6c-1.1,0-1.9,0.8-2.3,2.1 c-0.1,0.3-0.1,0.8-0.1,1.2v8.4h-2.2v-8.5c0-1.7-0.5-3.2-2.2-3.2c-1.1,0-2,0.9-2.3,2.2c-0.1,0.3-0.1,0.7-0.1,1.2v8.3h-2.2V201.9z"/><path d="M244.8,211.7l-0.2-1.5h-0.1c-0.6,1-1.7,1.7-3.2,1.7c-2.1,0-3.5-1.6-3.5-3.8c0-3.3,2.7-4.9,6.5-4.9v-0.4c0-1.5-0.4-3-2.4-3 c-1,0-1.9,0.3-2.6,0.8l-0.5-1.5c0.7-0.5,2.1-1,3.6-1c3.1,0,4.2,2.1,4.2,5v5.5c0,1,0,2.2,0.2,3.1H244.8z M244.4,204.9 c-1.6,0-4.3,0.3-4.3,3.1c0,1.7,0.9,2.3,1.9,2.3c1.2,0,2.1-0.8,2.4-2.1c0.1-0.3,0.1-0.5,0.1-0.8V204.9z"/><path d="M250.7,198.4l2.2,7.7c0.3,1,0.5,1.9,0.7,2.7h0.1c0.2-0.8,0.4-1.8,0.7-2.7l1.9-7.7h2.3l-2.7,8.8c-1.1,3.8-2.1,6.7-3.7,8.5 c-1,1.1-2.1,1.7-2.6,1.9l-0.7-1.9c0.6-0.3,1.3-0.8,2-1.5c0.6-0.6,1.1-1.5,1.5-2.4c0.1-0.3,0.2-0.5,0.2-0.6c0-0.2,0-0.3-0.1-0.5 l-3.9-12.2H250.7z"/><path d="M265.1,211.7c0-0.8,0.1-2.3,0.1-3.3v-15.9h2.2v7.7h0.1c0.7-1.4,1.9-2,3.4-2c2.5,0,4.3,2.5,4.3,6.7c0,4.8-2.3,7-4.7,7 c-1.6,0-2.6-0.8-3.3-2.1h-0.1l-0.1,1.9H265.1z M267.4,206.8c0,0.3,0,0.6,0.1,0.8c0.5,1.9,1.6,2.5,2.6,2.5c2,0,2.9-2.2,2.9-5.1 c0-2.7-0.9-5-2.9-5c-1.2,0-2.3,1.2-2.6,2.6c-0.1,0.3-0.1,0.6-0.1,0.9V206.8z"/><path d="M279.2,205.3c0,3.8,1.8,4.8,3.6,4.8c1.2,0,2.1-0.3,2.7-0.6l0.4,1.6c-0.8,0.4-2,0.7-3.5,0.7c-3.5,0-5.4-2.6-5.4-6.7 c0-4.2,2-7.1,5.1-7.1c3.3,0,4.4,3.2,4.4,6c0,0.5,0,0.9-0.1,1.2H279.2z M284.4,203.7c0-2.3-0.8-3.9-2.4-3.9c-1.8,0-2.6,2.1-2.7,3.9 H284.4z"/><path d="M287.5,215.1c0.6-1.6,1.3-4.5,1.6-6.5l2.5-0.3c-0.6,2.3-1.8,5.3-2.6,6.5L287.5,215.1z"/><path d="M301.4,194.9c0,0.8-0.5,1.4-1.4,1.4c-0.8,0-1.3-0.6-1.3-1.4c0-0.8,0.6-1.4,1.3-1.4C300.9,193.4,301.4,194,301.4,194.9z M299,211.7v-13.3h2.2v13.3H299z"/><path d="M304.6,201.9c0-1.5-0.1-2.4-0.1-3.5h1.9l0.1,1.8h0.1c0.6-1.1,1.8-2,3.5-2c1.8,0,3.7,1.3,3.7,5v8.6h-2.2v-8.2 c0-1.8-0.5-3.4-2.3-3.4c-1.1,0-2.1,0.9-2.4,2.3c-0.1,0.3-0.1,0.7-0.1,1.2v8.2h-2.2V201.9z"/><path d="M322.3,211.7v-11.6h-1.7v-1.7h1.7v-0.8c0-1.6,0.3-3.1,1.3-4.2c0.8-0.9,1.9-1.2,2.9-1.2c0.8,0,1.4,0.2,1.8,0.3l-0.3,1.7 c-0.3-0.1-0.7-0.3-1.3-0.3c-1.7,0-2.1,1.7-2.1,3.5v0.8h2.7v1.7h-2.7v11.6H322.3z"/><path d="M334.8,211.7l-0.2-1.5h-0.1c-0.6,1-1.7,1.7-3.2,1.7c-2.1,0-3.5-1.6-3.5-3.8c0-3.3,2.7-4.9,6.5-4.9v-0.4c0-1.5-0.4-3-2.4-3 c-1,0-1.9,0.3-2.6,0.8l-0.5-1.5c0.7-0.5,2.1-1,3.6-1c3.1,0,4.2,2.1,4.2,5v5.5c0,1,0,2.2,0.2,3.1H334.8z M334.5,204.9 c-1.6,0-4.3,0.3-4.3,3.1c0,1.7,0.9,2.3,1.8,2.3c1.2,0,2.1-0.8,2.4-2.1c0.1-0.3,0.1-0.5,0.1-0.8V204.9z"/><path d="M347.5,211.3c-0.5,0.3-1.5,0.6-2.8,0.6c-3.3,0-5.5-2.5-5.5-6.8c0-3.9,2.2-7,5.9-7c1,0,1.9,0.3,2.4,0.5l-0.5,1.8 c-0.4-0.2-1-0.5-2-0.5c-2.4,0-3.6,2.4-3.6,5.1c0,3.1,1.5,5,3.6,5c0.8,0,1.5-0.2,2-0.5L347.5,211.3z"/><path d="M352.7,194.8v3.6h2.9v1.7h-2.9v7.6c0,1.7,0.6,2.3,1.5,2.3c0.4,0,0.8,0,1-0.1l0.1,1.7c-0.4,0.2-1,0.3-1.8,0.3 c-0.9,0-1.7-0.3-2.3-0.9c-0.6-0.7-0.8-1.6-0.8-3.4v-7.5h-1.8v-1.7h1.8v-3L352.7,194.8z"/><path d="M356.3,215.1c0.6-1.6,1.3-4.5,1.6-6.5l2.5-0.3c-0.6,2.3-1.8,5.3-2.6,6.5L356.3,215.1z"/><path d="M373.7,211.7l-0.2-1.5h-0.1c-0.6,1-1.7,1.7-3.2,1.7c-2.1,0-3.5-1.6-3.5-3.8c0-3.3,2.7-4.9,6.5-4.9v-0.4c0-1.5-0.4-3-2.4-3 c-1,0-1.9,0.3-2.6,0.8l-0.5-1.5c0.7-0.5,2.1-1,3.6-1c3.1,0,4.2,2.1,4.2,5v5.5c0,1,0,2.2,0.2,3.1H373.7z M373.4,204.9 c-1.6,0-4.3,0.3-4.3,3.1c0,1.7,0.9,2.3,1.8,2.3c1.2,0,2.1-0.8,2.4-2.1c0.1-0.3,0.1-0.5,0.1-0.8V204.9z"/><path d="M128.8,242.4c0.6,0.4,1.5,0.8,2.5,0.8c1.4,0,2.2-0.8,2.2-1.9c0-1.1-0.5-1.7-2-2.5c-2-1-3-2.2-3-3.8c0-2.2,1.7-3.8,4-3.8 c1.1,0,2.1,0.4,2.7,0.7l-0.6,1.7c-0.5-0.3-1.2-0.7-2.1-0.7c-1.2,0-1.9,0.8-1.9,1.7c0,1,0.5,1.5,2,2.3c1.8,0.9,3,2.1,3,4 c0,2.6-1.8,4-4.3,4c-1.1,0-2.3-0.3-3-0.8L128.8,242.4z"/><path d="M139.6,238.3c0,3.8,1.8,4.8,3.6,4.8c1.2,0,2.1-0.3,2.7-0.6l0.4,1.6c-0.8,0.4-2,0.7-3.5,0.7c-3.5,0-5.4-2.6-5.4-6.7 c0-4.2,2-7.1,5.1-7.1c3.3,0,4.4,3.2,4.4,6c0,0.5,0,0.9-0.1,1.2H139.6z M144.8,236.7c0-2.3-0.8-3.9-2.4-3.9c-1.8,0-2.6,2.1-2.7,3.9 H144.8z"/><path d="M149.4,235c0-1.3-0.1-2.6-0.1-3.7h2l0.1,2.3h0.1c0.5-1.4,1.7-2.5,3.1-2.5c0.2,0,0.4,0,0.5,0v2.2c-0.2,0-0.3,0-0.6,0 c-1.5,0-2.5,1.3-2.8,2.9c-0.1,0.3-0.1,0.7-0.1,1.2v7.3h-2.2V235z"/><path d="M159.4,227.8c0,0.8-0.5,1.4-1.4,1.4c-0.8,0-1.3-0.6-1.3-1.4c0-0.8,0.6-1.4,1.3-1.4C158.9,226.4,159.4,227,159.4,227.8z M157,244.6v-13.3h2.2v13.3H157z"/><path d="M163.9,238.3c0,3.8,1.8,4.8,3.6,4.8c1.2,0,2.1-0.3,2.7-0.6l0.4,1.6c-0.8,0.4-2,0.7-3.5,0.7c-3.5,0-5.4-2.6-5.4-6.7 c0-4.2,2-7.1,5.1-7.1c3.3,0,4.4,3.2,4.4,6c0,0.5,0,0.9-0.1,1.2H163.9z M169.1,236.7c0-2.3-0.8-3.9-2.4-3.9c-1.8,0-2.6,2.1-2.7,3.9 H169.1z"/><path d="M173.4,242.4c0.6,0.4,1.5,0.8,2.5,0.8c1.4,0,2.2-0.8,2.2-1.9c0-1.1-0.5-1.7-2-2.5c-2-1-3-2.2-3-3.8c0-2.2,1.7-3.8,4-3.8 c1.1,0,2.1,0.4,2.7,0.7l-0.6,1.7c-0.5-0.3-1.2-0.7-2.1-0.7c-1.2,0-1.9,0.8-1.9,1.7c0,1,0.5,1.5,2,2.3c1.8,0.9,3,2.1,3,4 c0,2.6-1.8,4-4.3,4c-1.1,0-2.3-0.3-3-0.8L173.4,242.4z"/><path d="M197.1,237.9c0,5.1-2.7,6.9-5.2,6.9c-2.8,0-5-2.3-5-6.8c0-4.7,2.4-6.9,5.2-6.9C195,231.1,197.1,233.5,197.1,237.9z M189.1,238c0,2.4,0.8,5.2,2.9,5.2c2,0,2.8-2.8,2.8-5.2c0-2.1-0.6-5.1-2.9-5.1C189.8,232.8,189.1,235.8,189.1,238z"/><path d="M200.1,244.6V233h-1.7v-1.7h1.7v-0.8c0-1.6,0.3-3.1,1.3-4.2c0.8-0.9,1.9-1.2,2.9-1.2c0.8,0,1.4,0.2,1.8,0.3l-0.3,1.7 c-0.3-0.1-0.7-0.3-1.3-0.3c-1.7,0-2.1,1.7-2.1,3.5v0.8h2.7v1.7h-2.7v11.6H200.1z"/><path d="M211.3,235c0-1.5-0.1-2.6-0.1-3.7h2.5l0.1,1.7h0.1c0.6-1.1,1.8-2,3.4-2c1.5,0,2.6,0.8,3.1,2.1h0.1c0.4-0.7,0.9-1.2,1.4-1.5 c0.6-0.4,1.3-0.6,2.2-0.6c2.1,0,3.7,1.5,3.7,5.2v8.4H225v-7.9c0-1.9-0.4-3.3-1.9-3.3c-0.9,0-1.7,0.7-2,1.7 c-0.1,0.3-0.1,0.7-0.1,1.1v8.4h-2.8v-8.3c0-1.5-0.4-2.9-1.9-2.9c-0.9,0-1.7,0.8-2,1.9c-0.1,0.3-0.1,0.7-0.1,1.1v8.3h-2.8V235z"/><path d="M234,227.7c0,1-0.6,1.7-1.6,1.7c-0.9,0-1.6-0.7-1.6-1.7c0-1,0.7-1.7,1.6-1.7C233.3,226.1,234,226.7,234,227.7z M230.9,244.6v-13.3h2.9v13.3H230.9z"/><path d="M236.9,235.2c0-1.4-0.1-2.7-0.1-3.9h2.5l0.1,2.2h0.1c0.5-1.5,1.8-2.5,3.1-2.5c0.3,0,0.4,0,0.6,0.1v2.8c-0.2,0-0.4,0-0.7,0 c-1.3,0-2.3,1-2.6,2.5c-0.1,0.3-0.1,0.7-0.1,1.2v7.1h-2.9V235.2z"/><path d="M251.1,244.6l-0.2-1.4h-0.1c-0.7,1-1.8,1.7-3.2,1.7c-2.2,0-3.6-1.7-3.6-3.9c0-3.4,2.9-4.9,6.6-4.9v-0.3 c0-1.3-0.5-2.5-2.3-2.5c-1.1,0-2,0.3-2.8,0.8l-0.6-1.9c0.8-0.5,2.3-1,4-1c3.6,0,4.6,2.4,4.6,5.3v5.2c0,1.1,0,2.2,0.2,3.1H251.1z M250.7,238c-1.6,0-3.9,0.4-3.9,2.7c0,1.5,0.9,2.1,1.7,2.1c1,0,1.8-0.7,2.1-1.7c0.1-0.2,0.1-0.5,0.1-0.7V238z"/><path d="M264.5,244.3c-0.5,0.3-1.5,0.5-2.8,0.5c-3.5,0-5.8-2.5-5.8-6.8c0-4,2.4-7,6.2-7c1,0,1.9,0.2,2.4,0.5l-0.5,2.2 c-0.4-0.2-1-0.4-1.9-0.4c-2.2,0-3.4,2.1-3.4,4.6c0,2.8,1.4,4.5,3.4,4.5c0.8,0,1.4-0.2,1.9-0.4L264.5,244.3z"/><path d="M266.5,225.5h2.9v19.2h-2.9V225.5z"/><path d="M274.7,238.7c0,3,1.7,4,3.4,4c1.2,0,2.1-0.2,2.8-0.5l0.4,2c-0.9,0.4-2.3,0.7-3.7,0.7c-3.7,0-5.7-2.6-5.7-6.7 c0-4.2,2.1-7.1,5.4-7.1c3.3,0,4.7,3,4.7,6.2c0,0.7,0,1.1-0.1,1.4H274.7z M279.3,236.6c0-1.9-0.7-3.5-2.2-3.5 c-1.6,0-2.3,1.9-2.4,3.5H279.3z"/><path d="M284.1,241.9c0.6,0.4,1.7,0.8,2.6,0.8c1.2,0,1.9-0.6,1.9-1.6c0-0.9-0.5-1.5-1.9-2.2c-2.1-1.1-3-2.4-3-3.8 c0-2.3,1.7-4,4.3-4c1.2,0,2.2,0.3,2.8,0.7l-0.6,2.1c-0.5-0.3-1.3-0.6-2.2-0.6c-1.1,0-1.7,0.7-1.7,1.5c0,0.8,0.5,1.3,1.9,2 c2,1,3,2.2,3,4c0,2.6-1.9,4.1-4.7,4.1c-1.2,0-2.5-0.3-3.2-0.8L284.1,241.9z"/><path d="M293.6,243.3c0-1,0.6-1.7,1.5-1.7c0.9,0,1.5,0.7,1.5,1.7c0,1-0.6,1.6-1.5,1.6C294.2,244.9,293.6,244.2,293.6,243.3z"/></g></svg>