<svg xmlns="http://www.w3.org/2000/svg" viewBox="0 0 100 100"><defs><style>.cls-1{fill:#c0f2bd;}.cls-2{fill:#fd6c79;}</style></defs><title>japanese</title><g id="japanese"><circle class="cls-1" cx="50" cy="50" r="48"/><path class="cls-2" d="M40.09,22.16a37,37,0,0,1,7.25,1.42c.75.26,1.12.63,1.12,1.12a1.61,1.61,0,0,1-.3,1,5,5,0,0,0-.88,2.23c-.06.33-.15.88-.27,1.67-.08.58-.16,1.06-.24,1.42a126.75,126.75,0,0,0,16.12-2.6,1.76,1.76,0,0,1,.42-.06c.32,0,.53.23.64.69a19.73,19.73,0,0,1,.6,4.21c0,.66-.43,1.07-1.3,1.24a158.8,158.8,0,0,1-17.57,2.6c-.26,2.54-.41,4.62-.45,6.26A31.47,31.47,0,0,1,54.72,42a14.8,14.8,0,0,0,1-4.54,20.94,20.94,0,0,1,5.5,2.3c.75.48,1.12.94,1.12,1.36a1.14,1.14,0,0,1-.36.75,5.71,5.71,0,0,0-.79,1.21q6.48,1.72,9.74,6a14.41,14.41,0,0,1,2.93,9.13,14.93,14.93,0,0,1-5.53,11.68,28.78,28.78,0,0,1-11.67,5.77,4,4,0,0,1-1,.18c-.69,0-1.25-.44-1.69-1.33a15.53,15.53,0,0,0-3.66-3.84,38.89,38.89,0,0,0,6.95-2.18,24.28,24.28,0,0,0,4.54-2.35,11,11,0,0,0,5-9.29,8.42,8.42,0,0,0-2.57-6.26,11.14,11.14,0,0,0-5.08-2.72,67.67,67.67,0,0,1-11.7,16.21c.12.44.48,1.38,1.08,2.81a1.48,1.48,0,0,1,.19.64c0,.28-.23.58-.67.9a17.75,17.75,0,0,1-3.72,2.15,1.42,1.42,0,0,1-.6.21c-.21,0-.42-.17-.64-.51a13.22,13.22,0,0,1-1-2.42q-6.47,4.47-10.79,4.47A6.32,6.32,0,0,1,26,70a8.33,8.33,0,0,1-1.64-5.39q0-6,4.93-11.85a30.19,30.19,0,0,1,9.56-7.41c.06-2.21.16-4.8.3-7.74q-2.26.09-4.14.09l-2.21,0a30.23,30.23,0,0,1-3.54-.12c-.68-.06-1.06-.53-1.12-1.42A23.65,23.65,0,0,1,28,33.8c-.06-1.21-.1-2-.12-2.36a57.28,57.28,0,0,0,6.53.33l5.48-.06a65.81,65.81,0,0,0,.51-6.77A14.24,14.24,0,0,0,40.09,22.16Zm-1.24,29.3a22.73,22.73,0,0,0-6.05,6.11,10.77,10.77,0,0,0-1.94,5.77,2.43,2.43,0,0,0,.7,1.82,1.85,1.85,0,0,0,1.36.54q2.59,0,7.17-3.6A87.67,87.67,0,0,1,38.85,51.46ZM45.68,58a51.07,51.07,0,0,0,7.17-10.7,27,27,0,0,0-7.92,1.42A66.16,66.16,0,0,0,45.68,58Z"/></g></svg>