<svg xmlns="http://www.w3.org/2000/svg" xmlns:xlink="http://www.w3.org/1999/xlink" viewBox="0 0 100 100"><defs><style>.cls-1{fill:none;}.cls-2{fill:#3fb29d;}.cls-3{clip-path:url(#clip-path);}.cls-4{fill:#ab362b;}.cls-5{fill:#be3c2f;}.cls-6{fill:#c8584c;}.cls-7{fill:#e4b4a6;}.cls-8{fill:#ffc9b9;}.cls-9{fill:#ffdbd1;}</style><clipPath id="clip-path"><circle class="cls-1" cx="50" cy="50" r="48"/></clipPath></defs><title>log</title><g id="log"><circle class="cls-2" cx="50" cy="50" r="48"/><g class="cls-3"><g id="_Group_" data-name="&lt;Group&gt;"><path class="cls-4" d="M123.1-.17,59.43,63.5l-.32.08c-.45-2.65-1.25-6.39-2.1-7.94L118.89-5.77A65.49,65.49,0,0,1,123.1-.17Z"/><path class="cls-5" d="M118.89-5.77,57,55.64a2.33,2.33,0,0,0-.37-.52c-1.4-1.39-7-1.39-8.38-2.79-1.2-1.2-1.37-5.46-2.28-7.54,0,0,48.84-49.87,61.19-61.55A66.34,66.34,0,0,1,118.89-5.77Z"/><path class="cls-6" d="M100.57-21a63.28,63.28,0,0,1,6.6,4.24C94.82-5.08,46,44.79,46,44.79a2.68,2.68,0,0,0-.51-.84c-1-1.05-5.21-2.09-8.42-2.55l0-.24Z"/><path class="cls-7" d="M59.11,63.58,38.28,68.79A6.16,6.16,0,0,0,37.52,67L57,55.65h0C57.86,57.19,58.66,60.93,59.11,63.58Z"/><path class="cls-8" d="M57,55.64h0L37.52,67a6.7,6.7,0,0,0-1.83-2.06L46,44.79c.91,2.08,1.08,6.34,2.28,7.54,1.39,1.4,7,1.4,8.38,2.79A2.33,2.33,0,0,1,57,55.64Z"/><path class="cls-9" d="M46,44.79,35.69,64.9a6.86,6.86,0,0,0-2.87-1.28L37.05,41.4c3.21.46,7.37,1.5,8.42,2.55A2.68,2.68,0,0,1,46,44.79Z"/><path class="cls-5" d="M38.28,68.79,31.5,70.48l1.32-6.86a6.86,6.86,0,0,1,2.87,1.28A6.7,6.7,0,0,1,37.52,67,6.16,6.16,0,0,1,38.28,68.79Z"/></g></g></g></svg>