<svg id="music" xmlns="http://www.w3.org/2000/svg" xmlns:xlink="http://www.w3.org/1999/xlink" viewBox="0 0 100 100"><defs><style>.cls-1{fill:none;}.cls-2{fill:#ffb389;}.cls-3{fill:#8dc63f;}.cls-4{fill:#414042;}.cls-5{fill:#ac2743;}.cls-6{fill:#c13356;}.cls-7{fill:#ea506d;}.cls-8{opacity:0.31;}.cls-9{clip-path:url(#clip-path);}.cls-10{fill:#b33548;}.cls-11{fill:#ffc239;}.cls-12{fill:#ddd;}</style><clipPath id="clip-path"><circle class="cls-1" cx="49.78" cy="51.36" r="26.03"/></clipPath></defs><title>mars</title><circle class="cls-2" cx="50" cy="50" r="48"/><g id="Layer_2" data-name="Layer 2"><g id="L_logo" data-name="L logo"><g id="_Group_" data-name=" Group "><circle class="cls-3" cx="64.83" cy="27.98" r="2.3"/><path class="cls-4" d="M64.83,30.83A2.86,2.86,0,1,1,67.68,28h0A2.86,2.86,0,0,1,64.83,30.83Zm0-4.6A1.75,1.75,0,1,0,66.58,28h0A1.75,1.75,0,0,0,64.83,26.23Z"/></g><g id="_Group_2" data-name=" Group 2"><circle class="cls-5" cx="49.78" cy="51.36" r="27.38"/><path class="cls-4" d="M49.78,80.14a28.78,28.78,0,1,1,20.35-8.43A28.79,28.79,0,0,1,49.78,80.14Zm0-54.75a26,26,0,1,0,26,26A26,26,0,0,0,49.78,25.39Z"/></g><g id="_Group_3" data-name=" Group 3"><path class="cls-6" d="M75.52,51.56c0,13.72-7.71,23.59-21.6,25.54S25.15,65.28,25.15,51.56,36.44,25.35,50.34,25.35,75.52,37.85,75.52,51.56Z"/></g><g id="_Group_4" data-name=" Group 4"><path class="cls-7" d="M74.83,52.1c0,13.51-7.72,23.25-21.61,25.16S24.45,65.61,24.45,52.11s11.28-25.87,25.19-26C66,25.93,74.83,38.58,74.83,52.1Z"/></g><g class="cls-8"><g class="cls-9"><circle class="cls-10" cx="31.54" cy="40.62" r="13.05"/><circle class="cls-10" cx="44.59" cy="64.62" r="8.28"/><circle class="cls-10" cx="74.41" cy="62.16" r="8.77"/></g></g><g id="_Group_5" data-name=" Group 5"><circle class="cls-11" cx="52.96" cy="24.6" r="4.14"/><path class="cls-4" d="M53,29.94A5.34,5.34,0,1,1,58.3,24.6,5.34,5.34,0,0,1,53,29.94Zm0-8.28a2.95,2.95,0,1,0,2.95,2.95h0a3,3,0,0,0-2.94-3h0Z"/></g><g id="_Group_6" data-name=" Group 6"><circle class="cls-4" cx="50.34" cy="55.1" r="0.7"/></g><g id="_Group_7" data-name=" Group 7"><circle class="cls-4" cx="63.67" cy="40.65" r="0.7"/></g><g id="_Group_8" data-name=" Group 8"><path class="cls-4" d="M33.84,68.34c-1.68,0-3.05-1.64-3.05-3.65a.71.71,0,0,1,1.41,0h0c0,1.21.75,2.24,1.64,2.24a.71.71,0,0,1,0,1.41Z"/></g><g id="_Group_9" data-name=" Group 9"><circle class="cls-4" cx="37.94" cy="20.73" r="0.7"/></g><g id="_Group_10" data-name=" Group 10"><circle class="cls-4" cx="58.1" cy="20.03" r="0.7"/></g><g id="_Group_11" data-name=" Group 11"><circle class="cls-4" cx="71.15" cy="27.15" r="0.7"/></g><g id="_Group_12" data-name=" Group 12"><circle class="cls-4" cx="68.1" cy="18.44" r="1.08"/></g><g id="_Group_13" data-name=" Group 13"><path class="cls-4" d="M32.36,81.2a6.61,6.61,0,0,1-5.16-2c-2.44-2.71-2.39-5.76.18-10.84a1.4,1.4,0,0,1,2.51,1.26c-2.51,5-1.76,6.42-.61,7.7,1.52,1.68,5.63,1.29,11-1.06,6-2.62,12.89-7.31,19.42-13.21s11.9-12.29,15.11-18C77.68,40,78.49,36,77,34.3c-.85-.94-2.31-1.72-6.68-.41a1.4,1.4,0,0,1-.83-2.68h0c3.1-.94,7-1.64,9.57,1.21,1.32,1.45,1.76,3.53,1.31,6.17a25.58,25.58,0,0,1-3.11,7.91c-3.36,5.94-8.93,12.57-15.68,18.67s-13.92,11-20.17,13.72a25.72,25.72,0,0,1-8.19,2.29Z"/></g><g id="_Group_14" data-name=" Group 14"><circle class="cls-12" cx="52.96" cy="70.05" r="4.56"/><path class="cls-4" d="M53,75.62a5.57,5.57,0,1,1,5.57-5.57h0A5.57,5.57,0,0,1,53,75.62Zm0-9.12a3.55,3.55,0,1,0,3.55,3.55h0A3.55,3.55,0,0,0,53,66.5Z"/></g><g id="_Group_15" data-name=" Group 15"><path class="cls-4" d="M57.87,61.53a1.19,1.19,0,0,1-1.19-1.19,1.22,1.22,0,0,1,.32-.82l12.24-13A1.2,1.2,0,1,1,71,48.12l-12.23,13A1.22,1.22,0,0,1,57.87,61.53Z"/></g><g id="_Group_16" data-name=" Group 16"><path class="cls-4" d="M30.35,43.32a1,1,0,0,1-.25,0,1.18,1.18,0,0,1-.92-1.41,16.43,16.43,0,0,1,4.44-8.49c2.29-2.19,5-3.11,7.51-2.58a1.2,1.2,0,0,1-.49,2.34,6,6,0,0,0-5.36,2,14.07,14.07,0,0,0-3.77,7.26A1.19,1.19,0,0,1,30.35,43.32Z"/></g></g></g></svg>