<svg xmlns="http://www.w3.org/2000/svg" xmlns:xlink="http://www.w3.org/1999/xlink" viewBox="0 0 100 100"><defs><style>.cls-1{fill:none;}.cls-2{fill:#fff18d;}.cls-3{fill:#bf7c6a;}.cls-4{clip-path:url(#clip-path);}.cls-5{fill:#ab362b;}</style><clipPath id="clip-path"><circle class="cls-1" cx="-70" cy="50" r="48"/></clipPath></defs><title>music</title><g id="music-2" data-name="music"><circle class="cls-2" cx="50" cy="50" r="48"/><path class="cls-3" d="M67.76,29.56c-9.6-10.9-8.17-8.81-11.39-15.18-1.14-2.26-4.19.13-4.2,1.65,0,12.68-.62,43.76-.62,45.43A5.64,5.64,0,0,1,50.36,65a18.75,18.75,0,0,0-12.82-.46c-8.33,2.45-13.68,9.16-12,15s9.85,8.57,18.18,6.12c7.51-2.21,12.59-7.9,12.24-13.28,0,0,0-.08,0-.14V32.73c0-1.3,2.69-4.73,5.46-1.61s7.87,5,8.24,18.58c.1,3.54,3.24,2.41,3.78.85S77.36,40.45,67.76,29.56Z"/></g><g id="log"><g class="cls-4"><g id="_Group_" data-name="&lt;Group&gt;"><path class="cls-5" d="M3.1-.17-60.57,63.5l-.32.08c-.45-2.65-1.25-6.39-2.1-7.94L-1.11-5.77A65.49,65.49,0,0,1,3.1-.17Z"/></g></g></g></svg>