<svg xmlns="http://www.w3.org/2000/svg" viewBox="0 0 512 512"><defs><style>.cls-1{fill:#9d5b93;}.cls-2{fill:#eeac86;}.cls-3{fill:#fab9cd;}.cls-4{fill:#fef6ee;}.cls-5{fill:#bbbddf;}.cls-6{fill:#8b76a1;}.cls-7{fill:#f4f9fc;}.cls-8{fill:#bcbee0;}.cls-9{fill:#cf6dab;}.cls-10{fill:#78647e;}.cls-11{fill:#f4def0;}.cls-12{fill:#f8a9e5;}.cls-13{fill:#ce6aa9;}.cls-14{fill:#e3aed8;}.cls-15{fill:#e1acd6;}.cls-16{fill:#e1acd7;}.cls-17{fill:#cf6baa;}.cls-18{fill:#46394b;}.cls-19{fill:#bbc1e1;}.cls-20,.cls-21{fill:none;stroke:#8a749f;stroke-linecap:round;stroke-linejoin:round;}.cls-20{stroke-width:2.82px;}.cls-21{stroke-width:2.26px;}.cls-22{fill:#50fcfe;}</style></defs><title>shelter</title><g id="HEAD"><path class="cls-1" d="M541.14,213.83a12,12,0,0,1,7.21-.68.54.54,0,0,0,.49-.12c.14.06.41.3.54.36s-.47,0-.49-.08c-.86-3.14,1.24-5.5,2.21-8.28a5.07,5.07,0,0,1,1.19-1.94c-14.12-12.16-33.23-17.9-52.5-20-.45-.76-.93-1.51-1.42-2.24a4.28,4.28,0,0,1-3.68.45c-.36-.13-.71-.23-1.07-.33.45.44.9.87,1.34,1.32l.44.39c-.92-.08-1.83-.14-2.75-.2a214.54,214.54,0,0,0-47,2.33l-.07,0a.45.45,0,0,0-.52-.38l-26.9,2.67,1.78-.76-.69,0c-3.6-.28-3.61-5.92,0-5.64l.33,0a3.29,3.29,0,0,1-.05-.77c-25.23,11.56-53.72,16.66-81.75,19.59-20.19,2.11-40.58,3.92-60.85,3.84L291.1,197l1.06-.42.13-.05.06,0a4,4,0,0,0,1.66-.82,42.36,42.36,0,0,0,10.88-6.48.51.51,0,0,0,.17-.3l.13,0a2.45,2.45,0,0,1,2-2.73c11.14-2.54,22.71-4.26,33.35-8.48a2.79,2.79,0,0,1,1.81-1.91c8.52-3.08,16.52-7.41,25-10.64,8.78-3.35,18.28-3.85,27-7.4,4.18-1.71,8.24-3.73,12.57-5.07A71,71,0,0,1,420,150a67.71,67.71,0,0,1,16.59.18,2.89,2.89,0,0,1-1.16-3.18q-6.17-1.11-12.46-1.85c-8.09-1-15.6-.52-23.7-.05a124.41,124.41,0,0,0-20.42,2.87c-13.29,3-20,4.92-32.55,10.79-13.75,6.46-27.06,18-41.73,22.18-15.15,4.29-26.77,6.85-48.13,8.84-17.15,1.59-35.39,2.19-50.1-6.77-12.21-7.45-19-20-29-30.27-15.79-16.16-31-24-50.94-24.81s-40.75,4.76-55.12,18.56c-14,13.43-22.23,32-25.75,51.12-.94,5.07-1.32,10.14-1.93,15.24-.53,4.48-.64,8.75-1,13.25s-.41,9.55-.49,13.8c-.17,9.21.11,18.39,2.32,27.38s7,17,9.3,26c2.46,9.65,1.59,19.72.73,29.53,0,.48.44.63.79.47l2.19,3a.6.6,0,0,0,.77.17.56.56,0,0,0,0,.08c16.56,20.75,27,45.37,38.93,68.85,11.67,22.93,25.25,44.34,45.94,60.15C155.4,464.88,168.84,473,178.8,485a.54.54,0,0,0-.06.38c2.35,11.92,11.79,20.87,22.63,25.57,14,6.06,29.8,5.06,44.63,4.13a.49.49,0,0,0,.55.15,15.28,15.28,0,0,1,5.42-.67.47.47,0,0,0,.5-.32,41.4,41.4,0,0,0,14.28.12c5.55,6.62,15.05,9.24,23.42,8.15a28.52,28.52,0,0,0,7-1.87,30,30,0,0,1,3.7-1.48c1.52-.4,2.81.13,4.23-.12s2.24-1.68,1.44-2.45a36.67,36.67,0,0,0,.34-11.4l6.61,9.12a.71.71,0,0,0,.15.15l0,0c1.24,1.59,2.48,4.32,4.61,4.63,3.41.48,7.48,0,10.88-.42,1.57-.18,5.45-.16,6.53-1.51.74-.92.19-1.75-.54-2.33A112.57,112.57,0,0,0,320,470.22c-8.52-14.17-20.38-25.36-32.66-36.21a1.06,1.06,0,0,0,.21.11l.22.12.44.22.88.46,1.76.9A236.29,236.29,0,0,0,322,449.63c11,3.75,22.69,6.18,34.38,6h.28c.73,0,3.22,2.72,3.73,3.13,1.81,1.4,3.67,2.73,5.59,4,8.83,5.72,19.48,7.61,28.13,13.33,5.74,3.8,8.31,10.57,9.32,17.12,1,6.36.84,12.86,1.78,19.21.14.88.29,1.76.48,2.63.06.29.12.58.2.88,0,.06.06.15.05.21s-.1.11-.16.17a.59.59,0,0,0-.17.5.57.57,0,0,0,.69.46c2.91-.76,5.19-3,7.09-5.2a32.62,32.62,0,0,0,5.14-7.9,29.65,29.65,0,0,0,2.67-11.76,63.64,63.64,0,0,0-1-10.22c.11.76,1.37,2,1.79,2.72.59,1,1.15,2,1.66,3a63,63,0,0,1,4.84,14.3c.41,1.78,1.11,4.46,1.43,6.61,1.73-4.78,1.14-10.5.86-15.49a110.4,110.4,0,0,0-2.1-16,102.15,102.15,0,0,0-5.85-18.88c-5.31-12.56-13.64-24-24.75-31.91-15.93-11.34-34.85-17.51-57.19-26.39,6.7-.64,10.92-.92,15-2.47-23.89-5.78-37.46-11.76-54.14-21.95-14.56-8.9-30.59-19.38-42.2-33,1.11,1.29,4.36,1.4,5.95,1.84,3.47.95,6.89,2.08,10.35,3.06a160.65,160.65,0,0,0,21.76,4.8c11.18,1.52,22.79,1.21,33.42-2.57,5.7-2,9.93-5.65,15.14-8.69,3.55-2.07,9.66-2.89,13.29-.62a13,13,0,0,1,3.13,3.11c7,8.85,11.14,18.86,15.37,29.17a126,126,0,0,0-.62-17.94,139,139,0,0,0-3.5-20.44c-.25-1.06-1.45-3.72-1.15-4.73s3.21-2,4.23-2.51c3.23-1.51,6.58-2.72,9.85-4.15a83.39,83.39,0,0,0,15.88-9.17c2.18-1.61,4.13-3.53,7-3.34a76.4,76.4,0,0,1,8.78,1.27,48.33,48.33,0,0,1,16.45,5.93c9.14,5.66,13.63,15.07,16.22,26.53-.51-2.28-.26-4.63-.42-6.94a39.11,39.11,0,0,0-1.11-7,32.87,32.87,0,0,0-3.55-8.63,27.88,27.88,0,0,0-2.66-3.74c-.39-.46-.8-.91-1.22-1.35a37.29,37.29,0,0,0-10.29-7.16c-1.91-.94-3.86-1.79-5.82-2.59-.95-.39-2-.69-2.89-1.16-.27-.15-1.73-1.33-1.9-1.19,4.78-3.91,12.27-5.75,18.07-7.63a156.8,156.8,0,0,1,62.36-7,143.16,143.16,0,0,1,17.84,2.76.65.65,0,0,0,.28,0l.08,0c.64.33,1-.17.39-.5a220.29,220.29,0,0,0-35.74-15.13c12.7-4.16,26.73.9,38.46,6.29,4,1.84,7.36,5.2,10.23,8.47a68.33,68.33,0,0,1,6,8c2.13,3.29,3.58,7.16,5.79,10.33a27.87,27.87,0,0,0,.05-10.07,60.41,60.41,0,0,0-2.37-9.66,50.45,50.45,0,0,0-10.05-17.69,54.6,54.6,0,0,0-6.7-6.38,63.23,63.23,0,0,0-7.51-5.16,80.81,80.81,0,0,0-8.13-4.16c-2.81-1.25-5.67-2.35-8.57-3.36s-5.85-1.93-8.81-2.79-5.9-1.64-8.86-2.41l-2-.52c-.19-.05-.81-.09-.88-.26s.57-.65.74-.76a13.63,13.63,0,0,1,1.32-.8l8.63-5.15a42.86,42.86,0,0,1,10.4-2.66,55.08,55.08,0,0,1,10.35-.32,75.66,75.66,0,0,1,10.5,1.4,105,105,0,0,1,10.33,2.65c1.4.43,2.78.89,4.17,1.36l2.06.74,1,.37a6.68,6.68,0,0,1,1,.37c10.17,7.24,18.87,11.45,29.67,25.32C570.17,246.51,561.61,229.15,541.14,213.83Zm-30.26-17.54-1-.48,2.24.65Z"/><path id="FACE_2" data-name="FACE 2" class="cls-2" d="M172.65,263.09a38,38,0,0,1-2.16-3.63,14.63,14.63,0,0,1-.76-1.89.61.61,0,0,0,0-.13,15.64,15.64,0,0,1,.06-9,2.68,2.68,0,0,0-2.38-2.81c-1.1,0-2.21-1.63-3.17-2.12a9.5,9.5,0,0,0-3.87-.82,1.73,1.73,0,0,0-1.31.42,2.09,2.09,0,0,0-1.77-.54l-.12-.43a1.89,1.89,0,0,0-3.38-.62,7.76,7.76,0,0,0-2.54-1.57h-.05a8.29,8.29,0,0,0-1.6-1.34,1.89,1.89,0,0,0-2.86,1.41c-1-1.54-2.52-2.43-4.6-1.58l-.06,0a4.57,4.57,0,0,0-3.1.14l-.09,0a2.4,2.4,0,0,0-2.15,1.43l-.41-.58a2.16,2.16,0,0,0-1.14-.8l-.09-.53a1.56,1.56,0,0,0-.69-1.13c-.69-1.56-3.37-2-3.76.1-.06.34-.12.67-.17,1a1.91,1.91,0,0,0-.62.22c0-.73,0-1.45.07-2.18a1.82,1.82,0,0,0-2.38-1.83l0-.36a2.14,2.14,0,0,0-3.14-1.65,10.69,10.69,0,0,0-1.11-1.25,2,2,0,0,0-2.63-.14,2,2,0,0,0-1.66-1.17c-.09-.52-.17-1-.26-1.58-.25-1.51-2-1.74-3.09-1a1.89,1.89,0,0,0-2.29,0l-.23-.75a1.87,1.87,0,0,0-2.52-1.27,75.68,75.68,0,0,1-6.22-6.19,1.81,1.81,0,0,0-3,.33l-.24-.15a1.94,1.94,0,0,0-2.84,1.13,5.12,5.12,0,0,1-.73-1.85c-.33-1.85-2.53-1.74-3.44-.53q-1.26-2.12-2.67-4.14a2,2,0,0,0-1.41-.85,121.49,121.49,0,0,1-3.44-12,1.76,1.76,0,0,0-2.18-1.36v-.13c-4.35,11.4-11.65,21-20.62,29.37,0,.1,0,.18,0,.27s0,.07,0,.07c.13.55.3,1.18.38,1.74l.05.33q.45,3,1.11,6a6.61,6.61,0,0,0-6.18-1.52,6.13,6.13,0,0,0-3.72,4.52,13.74,13.74,0,0,0-.24,4.1.47.47,0,0,0,.87.22,6.46,6.46,0,0,1,5-3.2,3.11,3.11,0,0,1,2.39.65,4,4,0,0,1,1,2.41c.63,3.84-.24,7.69-.94,11.52,1.27,2.11,5.64,6,8.85,6.64a.81.81,0,0,0,1-.79c.92,2.24,1.89,4.49,2.89,6.76,1.4,3.19,4.42,6.57,6.26,9.54a50.12,50.12,0,0,0,17.15,16.39c0,.05,0,.11,0,.17A25.71,25.71,0,0,1,98.89,307c.09.92-.75,1.75.09,2.58a94.73,94.73,0,0,1,7,7.73c.41.87.83,1.75,1.24,2.63a1.66,1.66,0,0,0,1.53,1q2,2.67,3.74,5.48a1.82,1.82,0,0,0,1.42.91,7.6,7.6,0,0,0,.77.72,6.83,6.83,0,0,0,3.49,1.5l2.34,2.09a2,2,0,0,0,3.35-1.46c2.58,1.81,6.58.27,9.19-.71A42.74,42.74,0,0,0,143.12,324q1.32-.54,2.64-1.14a1.58,1.58,0,0,0,1-1.39,2,2,0,0,0-1.61-3.11c-5.12-.1-5.83-6.82-6.21-10.65a83.56,83.56,0,0,1,.59-16.65h0a99,99,0,0,0,19.91-19.63,4.29,4.29,0,0,0,.55-1.09,14.65,14.65,0,0,0,10.65-1.67,15.32,15.32,0,0,0,2.07-1.45,3.39,3.39,0,0,0,.84-.76C174.23,265.32,173.36,264.19,172.65,263.09Z"/><path id="HAIR_1" data-name="HAIR 1" class="cls-3" d="M43.3,215.13a141.77,141.77,0,0,1,2.09-17.66c3.52-19.08,11.76-37.7,25.75-51.13,14.37-13.8,35.22-19.41,55.12-18.56s35.15,8.65,50.94,24.82c10,10.23,16.83,22.81,29,30.26,14.71,9,32.95,8.36,50.1,6.77,21.36-2,33-4.55,48.13-8.84,14.67-4.15,28-15.72,41.73-22.18,12.5-5.87,19.26-7.76,32.55-10.78A123.36,123.36,0,0,1,399.17,145c8.1-.46,15.61-.9,23.7.06,24.42,2.89,47.77,9.37,67.41,26.39,4.36,3.77,10.91,12.31,12.74,18.93a94.06,94.06,0,0,0-8.18-8.13c-10.95-11.22-23.69-17.95-38.77-22.27a130.35,130.35,0,0,0-27-4.89c-17.17-1-32.55,3.81-48.5,10.25-8.81,3.55-19,7.94-28,10.9-7.56,2.48-15,5.5-22.76,7.29a836.23,836.23,0,0,1-95.64,16.15c34.08,6.08,69.06,3.34,103.49-.26,29.44-3.07,59.39-8.54,85.54-21.37,9-4.45,19.67-10.42,29.12-14a91.13,91.13,0,0,1,25-5.55c11.88-1,22-1.24,33.75.57,8.77,1.35,19,3,27.23,6.32a40.13,40.13,0,0,1,17.48,13.46c2.29,3.36,4.06,9.15,5.5,18.11-4.79-13.28-12.62-21.42-24.57-26.37-11-4.54-20.85-5.52-32.67-6.52a146.08,146.08,0,0,0-16.87-.23c-32.88,1.62-62.36,24-94.32,31.91,30.12-6.3,60.29-15.84,99.72-13.35,32.15,2,65.5,13.31,77.58,46.76-4.72-5.17-9.63-8.34-22.92-16.73a162.23,162.23,0,0,0-37.46-16.73c43.57,20.24,59.83,41,61.52,74.44-11.42-14.66-19.58-17.5-30.53-25.57-5.55-4.09-16.87-13.58-23.26-16.16-16.42-6.63-32.21-6.06-50.16-2-16.83,3.8-32.79,11.36-49.52,15.62,10.76-2.37,37.19-4.6,48.16-3.56,9.74.93,18.09.94,27.83,1.87,0,0-10.19,5.81-12.45,7.43-4.58-.63-20.75.42-26.88,1.41-11.5,1.86-22.61,6.28-34.19,7.08-9.8.68-20.07-2.13-29.93-2.05-26.69.24-52.41,6.73-80.41,13.3a4.64,4.64,0,0,1-1.29.13c-9-.36-22.63-5.08-36-10.18,5.88,7,13.69,14.9,20.74,20.05-14.19.19-28.21-6-39.9-13-42.25-25.37-67.14-56.41-104.58-78,20.78,20,38.83,45.15,47.2,76.67-9.59-10-15.94-16.41-27.64-26,4.51,5.47,10.75,13.21,12.76,20-7.44-6.18-14.74-11.12-24.1-13.57-11.59-3-25.34-.38-35.28-7.06-6.32-4.25-13.53-11.37-18.51-16.17,5.39,9.2,10.74,17.07,19.77,23.76-14.21-3.81-23.88-11-31.11-22.56-7.91-12.65-11.22-31.08-12.85-48.78,0,0-1.77,19.75.39,30.28-1,3.07-2.07,6-3.18,8.66-6.61-1.18-11.93,4-18,7.94-4.24-7.1-4.72-11.91-7.47-20.3C48,205.25,49.26,208,43.3,215.13Z"/><path id="FACE_1" data-name="FACE 1" class="cls-4" d="M76.93,269.7c.9,1.88,3.92,5.52,5.64,8.3,7.51,12.15,20.74,19.88,34.5,23.75a6.77,6.77,0,0,0,2.26.36,6.85,6.85,0,0,0,2.73-1c10.29-5.65,20.86-11.73,28.26-20.85a64.81,64.81,0,0,0,7.91-12.83c1.94-3.82,4-8.57,3.59-12.83s-3.07-5.91-7.29-6.63c-3.1-.53-9-.12-10.5-.31-6.91-.87-10.17-2.31-17.84-2,0,0,2,3,3.62,3.89-24.23-2.08-38.84-20-48.52-37.23-5.35,7.52-10.6,14.38-17,18.79.08.56.18,1.12.27,1.68a8.64,8.64,0,0,0-6-1.8c-3,.39-4.72,2.69-5.58,5.4-2,6.32.18,13.38,4.11,18.46l.24.29a33.51,33.51,0,0,0,6.5,8.26,37.39,37.39,0,0,0,6.56,4.43,6.94,6.94,0,0,0,2.33.86C73.76,269,76.93,269.7,76.93,269.7Zm-4.47-7.21c-3.21-.61-7.58-4.53-8.85-6.64.7-3.83,1.57-7.68.94-11.52a4,4,0,0,0-1-2.41,3.11,3.11,0,0,0-2.39-.65,6.46,6.46,0,0,0-5,3.2.47.47,0,0,1-.87-.22,13.74,13.74,0,0,1,.24-4.1,6.13,6.13,0,0,1,3.72-4.52,6.61,6.61,0,0,1,6.18,1.52l8,24.55A.81.81,0,0,1,72.46,262.49Z"/></g><g id="BODY"><path class="cls-5" d="M248.56,403.05h0c-4.71,4.35-12.11,8-20.8,11.69-3.49,1.51-7.18,3-11,4.62-2.09.88-2.8,2.28-2.75,3.76a30.61,30.61,0,0,1-1.24-6.68c-.19-3.32,3.67-6.07,12.41-11s15.48-19.7,15.48-19.7h0c4.63.6,9.1,3.6,10.55,6.55C252.9,395.75,251.34,398.94,248.56,403.05Z"/><path class="cls-6" d="M240.67,385.77h0s-6.74,14.81-15.48,19.7-12.6,7.64-12.41,11a30.61,30.61,0,0,0,1.24,6.68h0a5.57,5.57,0,0,0,.36,1.71c.5,1.38,5.65,5.72,9.07,10.21-6.9,6.92-25.51,17-32.07,16.69a171.38,171.38,0,0,0,8.87-26.65,119.38,119.38,0,0,0,2.47-13.59c0-.29.07-.56.09-.83,10-2.8,20.88-7.92,27.54-19.85A9.73,9.73,0,0,1,240.67,385.77Z"/><path class="cls-7" d="M214,423.13h0c-.05-1.48.66-2.88,2.75-3.76,3.81-1.59,7.5-3.11,11-4.62h0s2.75,7.62,4,12.44c2.53,10.15-3.18,22.91-19.67,30.13,8.55-5.68,14.53-12.53,14.45-15.75,0-2-1.33-4.26-3.05-6.52-3.42-4.49-8.57-8.83-9.07-10.21A5.57,5.57,0,0,1,214,423.13Z"/><path class="cls-8" d="M212.05,457.32c-7.17,4.74-16.14,8.66-24.88,8.92H187a34.65,34.65,0,0,0-.52-4h0c1.66-3.23,3.31-6.76,4.89-10.5h0c6.56.35,25.17-9.77,32.07-16.69,1.72,2.26,3,4.55,3.05,6.52C226.58,444.79,220.6,451.64,212.05,457.32Z"/><path class="cls-8" d="M177.05,393.69c2.43-11.2,5-25.39,5-33.54-2.25,7.05-3.07,10.15-3.07,9.73.17-11.22.38-22.17-1.16-27.78-.17-.62-1.55-1-1.84-1.88.54-1.5,3.74-4.81,5.44-4.53s2.43,15.4,1.69,20.73c6.76,6.06,15.93,15.5,17.9,23.68.8,3.3.59,8.32-.1,13.47-1,7.62-3.1,15.53-4.55,18.68a33.05,33.05,0,0,1-11.66-.57c-5.14-1.39-11.16-1.16-11.39,1.26l-1.08,0a8.26,8.26,0,0,1,.69-3C173.54,408.45,175.27,401.87,177.05,393.69Z"/><path class="cls-6" d="M184.67,411.68a61.72,61.72,0,0,1-2.33,8.36s-8.43-3.71-9-6.6a2.13,2.13,0,0,1,0-.5C173.51,410.52,179.53,410.29,184.67,411.68Z"/><path class="cls-6" d="M182,360.15c0,8.15-2.54,22.34-5,33.54l-.19,0c-.36.83-.7,1.65-1,2.44.25-.64,0-36.53.09-45v0c0-.61,0-1.07,0-1.37.12-4.23-2.74-7.52-4.15-8.08s-38.77,0-41,0c.07-1.73.14-3.72.14-3.89s-.06-.86.76-.9c.13,0,1.17,0,2.84,0,4.31.07,12.88.25,20.91.46l3.33.09-.21.25,2,.05.24-.24c6.84.2,12.36.4,13,.57a3.21,3.21,0,0,1,2.13,2.13c.29.85,1.67,1.26,1.84,1.88,1.54,5.61,1.33,16.56,1.16,27.78C179,370.3,179.77,367.2,182,360.15Z"/><path class="cls-9" d="M179.9,425.19l.44-.15c.58-1.21,1.29-3,2-5a61.72,61.72,0,0,0,2.33-8.36,33.05,33.05,0,0,0,11.66.57c2.08-.44,4.26-1,6.48-1.58,0,.27-.06.54-.09.83a119.38,119.38,0,0,1-2.47,13.59l-.22,0a137.43,137.43,0,0,0-11.88,9.34c.43,3.24-4.37,13.39-8.88,18.47,2.82-11,3.38-22.84.89-27.45Z"/><path class="cls-10" d="M177.24,484.16s.48,8.59.41,9.72-.78,7.4-8,7.54c-1.39,0-5.77,0-12,.06a50.37,50.37,0,0,0,3.38-5.24c4-.05,6.5-.09,6.91-.11,2.68-.14,8.32-.34,8-6.79-.15-3.49-.14-4.68-.1-5h.1A11.49,11.49,0,0,0,177.24,484.16Z"/><path class="cls-2" d="M158.51,482.79c1.07-3.34,1.55-6.37,1.35-7.38,6.68,3.57,10.27,6.1,12.41,5.73,3-.52,8.29-7.53,13.67-17.84l.54-1.06a34.65,34.65,0,0,1,.52,4,6.4,6.4,0,0,1-.12,2.06,6.84,6.84,0,0,1-1.2,2.33,1.4,1.4,0,0,0-.27,1,18.93,18.93,0,0,1-.31,4.32c-.16.76-1.72,1.88-3,2.49a1.34,1.34,0,0,0-.73,1.14,6.69,6.69,0,0,1-1.39,3.65,3,3,0,0,1-1.38.66,12.86,12.86,0,0,1-1.4.29,11.49,11.49,0,0,1-1.21.13s-.06-.3-.1,0c-1.19.1-5.69,1.12-7.56,1.26S158.51,482.79,158.51,482.79Z"/><path class="cls-7" d="M183.08,356.42c.74-5.33,0-20.45-1.69-20.73s-4.9,3-5.44,4.53a3.21,3.21,0,0,0-2.13-2.13c-.61-.17-6.13-.37-13-.57,1.56-1.7,9.23-10.23,12.16-13.49l1.14-1.27c5.83.38,12.21,1.13,15,3.2s22,19.48,27.23,28.4a7.34,7.34,0,0,0,1.16,1.5c7.66,7.49,32.66,27.88,36.47,35,1.67,3.1-.43,7.45-5.24,12-.07.08-.16.15-.24.23,2.78-4.11,4.34-7.3,2.66-10.73-1.45-2.95-5.92-5.95-10.55-6.55a9.73,9.73,0,0,0-10.32,5.05c-6.66,11.93-17.53,17.05-27.54,19.85-2.22.62-4.4,1.14-6.48,1.58,1.45-3.15,3.54-11.06,4.55-18.68.69-5.15.9-10.17.1-13.47C199,371.92,189.84,362.48,183.08,356.42Z"/><path class="cls-11" d="M175.94,351.11v0c-.06,8.42.16,44.31-.09,45-3.15,8.16-3.51,14.29-8.21,15.58-1.68.46-6.87-4.09-10.93-11-6-10.28-11.41-24.84-13.77-28.1-3.95-5.45-8.64-16-12.41-20.49,0-.12,0-.32.05-.58h0c.15-.33,2.59-5.57,2.68-6.84,6.11.28,35.9-.19,37.51,0S175.89,349.4,175.94,351.11Z"/><path class="cls-12" d="M168,418.45c9.16,15.23,9.72,21.71,7.46,36.8,2.26-3.25,4.37-13.54,2.4-22.14C176.32,426.42,168.25,418.7,168,418.45ZM140.5,396c-2.58-3.3-8.82-3.88-14.38-12.4-3.84-5.88-10.1-16.36-12.31-20.94,6.1-3.86,13-8.27,16.72-10.6,3.77,4.51,8.46,15,12.41,20.49,2.36,3.26,7.73,17.82,13.77,28.1,4.06,6.91,9.25,11.46,10.93,11,4.7-1.29,5.06-7.42,8.21-15.58.31-.79.65-1.61,1-2.44l.19,0c-1.78,8.18-3.51,14.76-4.16,16.25a8.26,8.26,0,0,0-.69,3c-.23,5.33,4.86,10,7.7,12.27l.26.21c2.49,4.61,1.93,16.45-.89,27.45,4.51-5.08,9.31-15.23,8.88-18.47A137.43,137.43,0,0,1,200,425l.22,0a171.38,171.38,0,0,1-8.87,26.65h0c-1.58,3.74-3.23,7.27-4.89,10.5h0l-.54,1.06c-4.28,1.71-8.08,6.19-13.72,6.89-3.78.47-7.19-26.79-11.7-34S143,399.28,140.5,396Z"/><path class="cls-8" d="M179.9,425.19c-2.84-2.3-7.93-6.94-7.7-12.27l1.08,0a2.13,2.13,0,0,0,0,.5c.6,2.89,9,6.6,9,6.6-.71,2-1.42,3.79-2,5Z"/><path class="cls-13" d="M171.28,323.24c1.32.56,1.73.79,1.73.79-2.93,3.26-10.6,11.79-12.16,13.49l-2-.06c1-1.1,4.93-5.69,8.16-9.38C169,325.71,170.81,323.71,171.28,323.24Z"/><path class="cls-9" d="M175.46,455.25c2.26-15.09,1.7-21.57-7.46-36.8.25.25,8.32,8,9.86,14.66C179.83,441.71,177.72,452,175.46,455.25Z"/><path class="cls-12" d="M165.53,328c0-.85-.5-1.81.83-3.45a1.71,1.71,0,0,0,.11-.14,4.21,4.21,0,0,1,4.81-1.17c-.47.47-2.25,2.47-4.32,4.84l-1.68-.06Z"/><path class="cls-12" d="M160.34,332.87c-.31-.95-.21-1.66.81-3.28s2.85-1.52,4.13-1.57l1.68.06c-3.23,3.69-7.2,8.28-8.16,9.38l-3.33-.09v-.27a7.86,7.86,0,0,1,3.58-3.56C159.51,333.28,159.94,333.06,160.34,332.87Z"/><path class="cls-2" d="M159.06,333.54a7.86,7.86,0,0,0-3.58,3.56v.27c-8-.21-16.6-.39-20.91-.46C137.27,334.62,153.89,333.23,159.06,333.54Z"/><path class="cls-12" d="M142.75,472.77s-10.61-.09-13.25-.09-10,1.22-16,1.32-26.89-6.3-32-5.92S77.72,471,71.6,471s-5.07-3.66-12.21-2.82-7.15,3.85-17.2,10.72c5.54-14,26.87-22.37,28-24.16,3.7.85,34.19-.34,52.54-1.12C125.63,458.49,137.3,467,142.75,472.77Z"/><path class="cls-14" d="M175.94,351.11c-.05-1.71-3.59-6.26-5.17-6.44s-31.4.28-37.51,0c-.09,1.27-2.53,6.51-2.68,6.84a61.22,61.22,0,0,0,.14-7.33c0-.23.06-1.32.1-2.52,2.21,0,39.61-.55,41,0s4.27,3.85,4.15,8.08C176,350,175.94,350.5,175.94,351.11Z"/><path class="cls-2" d="M130.53,352.09c-3.7,2.33-10.62,6.74-16.72,10.6-5.69,3.59-10.66,6.72-11.66,7.26A23.59,23.59,0,0,1,98,365.82c-4.23-3.48-8.65-16.92-8.74-18.71a41.34,41.34,0,0,1,.75-6.3s3.76,3.2,6.76-1.31c5.46,3.1,6,1.41,9.59-2,4.42,2.07,7.43,1.23,9.21-2.82,4.51,2.07,6.32,1.83,8.77-1.69.28-.39,0-1.09-.47-1.9l1.63-.35a44.18,44.18,0,0,1,4.69,10,15.75,15.75,0,0,1,.51,3.41,61.22,61.22,0,0,1-.14,7.33h0C130.56,351.77,130.54,352,130.53,352.09Z"/><path class="cls-4" d="M165.28,328c-1.28.05-3.16.05-4.13,1.57s-1.12,2.33-.81,3.28c-.4.19-.83.41-1.28.67-5.17-.31-21.79,1.08-24.5,3.37-1.67,0-2.71-.05-2.84,0-.82,0-.76.6-.76.9s-.07,2.16-.14,3.89c0,1.2-.09,2.29-.1,2.52a15.75,15.75,0,0,0-.51-3.41,44.18,44.18,0,0,0-4.69-10c-.41-.67-.8-1.28-1.16-1.84l1.48-.5c1,1.53,2.17,2.95,3.17,2.62,6.08-2,18.54-8.6,20.86-10.29l.12-.42c4.82,1.39,14.09,3.72,16.37,4.22-1.33,1.64-.83,2.6-.83,3.45Z"/><path class="cls-4" d="M124.36,328.92c-1.08-1.65-1.88-2.73-2-3-.15-.47.13-.59,1.26-.74a24.6,24.6,0,0,1,2.19,3.24Z"/><path class="cls-2" d="M123.65,325.18c-1.13.15-1.41.27-1.26.74.09.27.89,1.35,2,3,.36.56.75,1.17,1.16,1.84l-1.63.35c-1.35-2.12-4.67-5-6-4.77-2.38.36-2.64,1.88-4,1.6s-13.69-18.9-15.3-19a22.17,22.17,0,0,0,.54-3.36c.42-2.89.63-11.35.63-11.35l8.67,17.2L138,293.82a129.21,129.21,0,0,0,2,18.61c.84,3.8,4.51,6.2,8.6,7.47.41.13.9.28,1.45.43l-.12.42C147.55,322.44,135.09,329,129,331c-1,.33-2.16-1.09-3.17-2.62A24.6,24.6,0,0,0,123.65,325.18Z"/><path class="cls-15" d="M92.42,487.81c3.81.85,11.7,2.26,15.79,1.48s10.86-4.11,19-3.45,25.47,4.08,27.35,5.14a29.36,29.36,0,0,0,3.91-8.19s7.93,2.91,9.86,2.77,6.37-1.16,7.56-1.26c0,.36-.05,1.55.1,5,.28,6.45-5.36,6.65-8,6.79-.41,0-2.93.06-6.91.11-21.93.26-88.3.83-90.93.6a5.64,5.64,0,0,1-4.94-4.23,11,11,0,0,1-.46-2.08,11.77,11.77,0,0,1-.08-1.19C74,488.51,89.67,487.2,92.42,487.81Z"/><path class="cls-16" d="M73.81,442c-.7,1.55-1.83,3.39-1.83,4.23s1.27,1.84,3,1.41,3.1-1.12,4.09-1.12,5.5,1.19,7.61,1.22,10.58.25,11.7,0,3.53-.24,4.23-4.19c.68-3.77-6.42-52.18-14.75-67l1-.25c1.89,2.63,10.15,10.91,12,11.09C102,391,134.3,448.52,135.42,453l-12.69.57c-18.35.78-48.84,2-52.54,1.12s-5.11-2.86-5.44-9.88c.91-.87,4-4.51,3.94-6.85.55-3.81-2-7.24-3.48-8.64a13.85,13.85,0,0,1,3.15-.9l-2.94-7.26L64.79,418l.08-14.3h.34S76.35,431,76.77,432.83s.85,3.24.57,4S74.52,440.44,73.81,442Z"/><path class="cls-15" d="M98,365.82c-4.14,3.75-9.22,7.89-9.22,10.52l-1,.25a18,18,0,0,0-1.18-1.85c-1-1.34,3.53-5,3.74-6.56a14.11,14.11,0,0,0-.46-7.54c-1.23-3.8-4.23-15.75-5.22-16s-15.92-.32-17.42.39c-.43.2-.77.37-1,.51-.35-3,2.3-4.49,4.25-4.7,2.88-.3,19.53,0,19.53,0a41.34,41.34,0,0,0-.75,6.3C89.37,348.9,93.79,362.34,98,365.82Z"/><path class="cls-11" d="M90.38,368.18c-.21,1.56-4.72,5.22-3.74,6.56a18,18,0,0,1,1.18,1.85c8.33,14.77,15.43,63.18,14.75,67-.7,3.95-3.1,3.95-4.23,4.19s-9.58,0-11.7,0S80,446.51,79,446.51s-2.4.7-4.09,1.12-3-.56-3-1.41,1.13-2.68,1.83-4.23,3.25-4.37,3.53-5.15-.14-2.18-.57-4-11.56-29.18-11.56-29.18h-.34l.34-57.14a2,2,0,0,1,1-1c.26-.14.6-.31,1-.51,1.5-.71,16.44-.68,17.42-.39s4,12.23,5.22,16A14.11,14.11,0,0,1,90.38,368.18Z"/><path class="cls-12" d="M89.34,336.54H84.06a31.73,31.73,0,0,1-5-5.76l1-.24a5.29,5.29,0,0,1,3.29.7h0a2.41,2.41,0,0,1,.93,1.14,15,15,0,0,1,.67,2.5A12.92,12.92,0,0,1,89.34,336.54Z"/><path class="cls-10" d="M84.06,336.54l-3.51.36-1-.36Z"/><path class="cls-2" d="M90.31,336.54h-1A12.92,12.92,0,0,0,85,334.88a15,15,0,0,0-.67-2.5,2.41,2.41,0,0,0-.93-1.14c.25,0,6.26.74,6.72.74s.8.51.76,1.22S90.31,336.54,90.31,336.54Z"/><path class="cls-17" d="M84.06,336.54H79.6l-5.08-1.94s-4.69-14.71-3.29-14.75c.93,0,1.14-.07,1.18-.11.06.19.15.43.26.69a45.42,45.42,0,0,0,2.86,5.13c1.07,1.7,2.31,3.53,3.54,5.22A31.73,31.73,0,0,0,84.06,336.54Z"/><path class="cls-12" d="M79.07,330.78c-1.23-1.69-2.47-3.52-3.54-5.22l.45-.27a4.16,4.16,0,0,1,3.37,1.55c1,1,.73,2.57.7,3.7Z"/><path class="cls-4" d="M90.07,332c-.46,0-6.47-.71-6.72-.74h0a5.29,5.29,0,0,0-3.29-.7c0-1.13.25-2.71-.7-3.7A4.16,4.16,0,0,0,76,325.29a3.27,3.27,0,0,0,.51-3.07,2.27,2.27,0,0,0-.22-.53l.79-.17C93.49,318.86,97.41,313,98.51,309c1.61.09,13.89,18.7,15.3,19s1.67-1.24,4-1.6c1.36-.2,4.68,2.65,6,4.77.51.81.75,1.51.47,1.9-2.45,3.52-4.26,3.76-8.77,1.69-1.78,4.05-4.79,4.89-9.21,2.82-3.57,3.39-4.13,5.08-9.59,2-3,4.51-6.76,1.31-6.76,1.31l.28-4.27s.47-2.64.52-3.34S90.55,332,90.07,332Z"/><path class="cls-12" d="M75.53,325.56a45.42,45.42,0,0,1-2.86-5.13c1.43.12,2.94.19,3.6,1.26a2.27,2.27,0,0,1,.22.53,3.27,3.27,0,0,1-.51,3.07Z"/><path class="cls-9" d="M64.73,436a6.71,6.71,0,0,1,2.46.17,1.86,1.86,0,0,1,1.5,1.83c0,2.34-3,6-3.94,6.85-.11-2.31-.1-5.18,0-8.73Z"/><path class="cls-10" d="M89.34,336.54h1L90,340.81s-16.65-.3-19.53,0c-2,.21-4.6,1.74-4.25,4.7a2,2,0,0,0-1,1c-1.06-1.9-1-5.47-.63-6.86a4.44,4.44,0,0,1,3.94-3.11H79.6l1,.36,3.51-.36Z"/><path class="cls-9" d="M92.42,487.81c-2.75-.61-18.38.7-27.75,1.53-3.57.31-6.23.55-6.93.59-.2,0-.49.05-.86.11-4.19.63-18.22,3.56-22-5.61-3.73-9-1.7-45.66-.19-58.35l18.85,5.54a34.31,34.31,0,0,0,.61,5,.16.16,0,0,1,0,0c.25,2.56,6.25-.28,10.61-.66v.12c-.09,3.55-.1,6.42,0,8.73.33,7,1.77,9,5.44,9.88-1.13,1.79-22.46,10.15-28,24.16C52.24,472,52.24,469,59.39,468.17S65.49,471,71.6,471s4.89-2.54,10-2.91,25.94,6,32,5.92,13.34-1.32,16-1.32,13.25.09,13.25.09c-5.45-5.82-17.12-14.28-20-19.16l12.69-.57c-1.12-4.52-33.46-62-34.58-65.61-1.89-.18-10.15-8.46-12-11.09,0-2.63,5.08-6.77,9.22-10.52a23.59,23.59,0,0,0,4.13,4.13c1-.54,6-3.67,11.66-7.26,2.21,4.58,8.47,15.06,12.31,20.94,5.56,8.52,11.8,9.1,14.38,12.4s15.51,33,20,40.18,7.92,34.45,11.7,34c5.64-.7,9.44-5.18,13.72-6.89-5.38,10.31-10.69,17.32-13.67,17.84-2.14.37-5.73-2.16-12.41-5.73.2,1-.28,4-1.35,7.38A29.36,29.36,0,0,1,154.6,491c-1.88-1.06-19.18-4.48-27.35-5.14s-15,2.68-19,3.45S96.23,488.66,92.42,487.81ZM63.8,451.32C59,445,57.46,443.4,55.63,440.16c-2.4,3-15.65,27.12-17.06,38.73C52.24,459.76,55.34,452.05,63.8,451.32Z"/><path class="cls-18" d="M157.7,501.48c-25.78,0-83,0-87.76.08-5.92.07-10.3-7.47-5.19-11a11,11,0,0,0,.46,2.08,5.64,5.64,0,0,0,4.94,4.23c2.63.23,69-.34,90.93-.6A50.37,50.37,0,0,1,157.7,501.48Z"/><path class="cls-12" d="M55.63,440.16C57.46,443.4,59,445,63.8,451.32c-8.46.73-11.56,8.44-25.23,27.57C40,467.28,53.23,443.12,55.63,440.16Z"/><path class="cls-8" d="M58.54,495.71c.37.38-.09-.94.57,1.79s.6,5.89,7.44,6.67,105.39,1.33,106.94,1.33c3.74,0,9.28-2.53,12.4-5.78l.29-.24c9.63,11.1,25.27,15.84,31.55,18,8.66,3-171.32,7-169.44,2,4.76-12.68,6.39-18.09,7.46-23.21C57.79,495.9,58.16,495.33,58.54,495.71Z"/><path class="cls-6" d="M173.49,505.5c-1.55,0-100.1-.55-106.94-1.33s-6.79-3.95-7.44-6.67-.2-1.41-.57-1.79-.75.19-2.79.57c.41-2,.74-3.93,1.13-6.24.37-.06.66-.1.86-.11.7,0,3.36-.28,6.93-.59a11.77,11.77,0,0,0,.08,1.19c-5.11,3.56-.73,11.1,5.19,11,4.77-.06,62,0,87.76-.08,6.21,0,10.59,0,12-.06,7.19-.14,7.9-6.42,8-7.54s-.41-9.72-.41-9.72a12.86,12.86,0,0,0,1.4-.29,31.86,31.86,0,0,0,7.54,15.61l-.29.24C182.77,503,177.23,505.5,173.49,505.5Z"/><path class="cls-19" d="M68.69,438a1.86,1.86,0,0,0-1.5-1.83,6.71,6.71,0,0,0-2.46-.17c-4.36.38-10.36,3.22-10.61.66a.16.16,0,0,0,0,0c-.09-2,6.65-5.58,11.1-7.26C66.72,430.76,69.24,434.19,68.69,438Z"/><path class="cls-6" d="M65.21,429.36c-4.45,1.68-11.19,5.28-11.1,7.26a34.31,34.31,0,0,1-.61-5l0-5.63,11.88-4.79,2.94,7.26A13.85,13.85,0,0,0,65.21,429.36Z"/><path class="cls-8" d="M68.36,428.46c-1.41-1.94-.89-4.79-4.28-4.51s-4.65,8.32-15.36,8.32A17.2,17.2,0,0,1,40,429.92C37,428.39,46.13,335,46.13,335L65,354l-.21,64Z"/><path class="cls-6" d="M53,367.84C57.25,379.61,58.52,390.2,62,398c1.08-8.62.87-12.78,1.57-25A86.48,86.48,0,0,1,65,361.38c.09,15.53,0,34.16.19,56C59.22,404.84,55.56,379.11,53,367.84Z"/><path class="cls-8" d="M32.76,457.38c-4.51-6.13-4.11-9.23-4.86-15.9a121.88,121.88,0,0,1-13.51-5.76,32.89,32.89,0,0,1-10.48-8.14c1.85-3.09.92-4.33,3.64-5.28,0,.05,8.17,1.35,8.22,1.39a122.68,122.68,0,0,0,16.52,12.38,12.49,12.49,0,0,0,1.55.71C33.47,443.31,32.94,450.83,32.76,457.38Z"/><path class="cls-6" d="M34.57,427.1c-.32,3.67-.59,7.33-.81,11A155.19,155.19,0,0,1,13.82,423.7c4.37-1.62,8.85-4.57,13-6.65a45.45,45.45,0,0,0,8,7.88A13.27,13.27,0,0,0,34.57,427.1Z"/><path class="cls-7" d="M49.38,339.68c4.3,29.92-2.88,61.08-9.4,90.24-4.81-2.53-9.64-8.18-13.09-12.38a.86.86,0,0,0-1-.13c-4.69,2.37-11.25,7.51-16.69,6.93-2.33-.25-4.6,2.77-4.9,3.59-.13.36-1.62-2.47-1.16-3.77,8.39-23.76,12.2-32.57,18.75-49,3.49-8.76,7.28-17.31,11.21-25.87,3.44-7.5,6.61-17.45,12.83-23.13,6.5-5.93,16.87-6.06,25.33-6.32.77,7.25,5.39,14.08,12,17-6,.29-11.48-.95-17.16.44-3.3.8-1.47,6.69-1.26,9.7.26,3.72.34,11,.19,14.69-1.59-.95-3.36-3.52-4.14-4.48-2.64-3.23-5-4.13-6.19-.85-1.07-1.45-2.31-6.27-2.69-8C51.39,345.74,50.13,342.24,49.38,339.68Z"/><path class="cls-20" d="M96.51,508.3c-5.64,2.45-9.4,8.84-9.4,10.15"/><path class="cls-21" d="M140.69,509.06c3.57,2.63,6.2,6.95,6.39,8.46"/></g><g id="DECROATE"><circle class="cls-22" cx="51.52" cy="223.84" r="1.69"/><circle class="cls-22" cx="194.19" cy="197.64" r="1.69"/><circle class="cls-22" cx="175.5" cy="158.1" r="1.69"/><circle class="cls-22" cx="162.05" cy="152.22" r="1.69"/><circle class="cls-22" cx="58.66" cy="177.22" r="1.69"/><circle class="cls-22" cx="290.06" cy="284.75" r="1.69"/><circle class="cls-22" cx="260.18" cy="312.94" r="1.69"/><circle class="cls-22" cx="225.77" cy="293.77" r="1.69"/><circle class="cls-22" cx="178.97" cy="287" r="1.69"/><circle class="cls-22" cx="186.3" cy="264.45" r="1.69"/><circle class="cls-22" cx="277.66" cy="281.36" r="1.69"/><circle class="cls-22" cx="243.82" cy="311.82" r="1.69"/><circle class="cls-22" cx="202.3" cy="306.95" r="1.69"/><circle class="cls-22" cx="374.66" cy="320.84" r="1.69"/><circle class="cls-22" cx="357.74" cy="292.64" r="1.69"/><circle class="cls-22" cx="389.88" cy="310.69" r="1.69"/><circle class="cls-22" cx="407.93" cy="285.31" r="1.69"/><circle class="cls-22" cx="338.56" cy="298.85" r="1.69"/><circle class="cls-22" cx="216.54" cy="309.7" r="1.69"/><circle class="cls-22" cx="168.53" cy="279.19" r="1.69"/><circle class="cls-22" cx="183.9" cy="294.9" r="1.69"/><circle class="cls-22" cx="190.81" cy="291.51" r="1.69"/></g></svg>