<svg xmlns="http://www.w3.org/2000/svg" viewBox="0 0 512 512"><defs><style>.cls-1{fill:#666;}.cls-2{fill:#4db5b0;}.cls-3{fill:#113d47;}.cls-4{fill:#fdfff4;}.cls-5{fill:#265266;}.cls-6{fill:#d8d8d8;}.cls-7{fill:#52777f;}.cls-8{fill:#e2e2e2;}.cls-9{fill:#021919;}.cls-10{fill:#efefef;}.cls-11{fill:#39d8d8;}.cls-12{fill:#38bfc6;}.cls-13{fill:#59eefe;}.cls-14{fill:#6df5fc;}.cls-15{fill:#38c4d2;}.cls-16{fill:#324948;}.cls-17{fill:none;stroke:#36f1ff;stroke-linecap:round;stroke-linejoin:round;stroke-width:0.68px;}.cls-18{fill:#40737a;}.cls-19{fill:#e6e6e6;}.cls-20{fill:#333;}</style></defs><title>miku</title><g id="Layer_9" data-name="Layer 9"><rect class="cls-1" width="512" height="512"/></g><g id="leg_right-2" data-name="leg right-2"><path class="cls-2" d="M149.06,403.58c1.06,3.84-2.08,17.18-1.82,23.69h0q.15.57.33,1.17c4.85,15.95,5.46,17.85,9.65,21.44,5.2-4.95,6.44-13.5,6.65-20.07,0,0-8-2.64-9.29-4.47.6-5,3.83-18.65,10-27.21s7.3-11.71,7-15a19.75,19.75,0,0,0-5.15.78c-3.46,1.15-3.1,1.49-8.76,2.63s-6.35,1.45-8,2.85a4.75,4.75,0,0,1-2.47,1.25c1,2,1.88,8.7,1.53,12a5,5,0,0,1,.22.91Z"/><path class="cls-3" d="M147.2,390.66a1.48,1.48,0,0,1-.28,0,75.63,75.63,0,0,1-9.75,6.51,65.34,65.34,0,0,0,2.63,7.76c2.46-1,6.42-4,8.93-2.26C149.08,399.36,148.21,392.66,147.2,390.66Z"/><path class="cls-4" d="M207.81,391.34s5.45-25.34,1.93-23-23.87,12.46-32.33,14.37a41.83,41.83,0,0,1-5.83.42c.28,3.27-.86,6.43-7,15s-9.38,22.21-10,27.21c1.34,1.83,9.29,4.47,9.29,4.47.22-6.57,5.47-15.92,5.35-19.68s6-13.58,11.33-14.79,19.78-5.09,22.27-5.06S205.53,391.38,207.81,391.34Z"/><path class="cls-5" d="M149.06,403.58H149c.68,4.81-5.6,9.56-1.71,23.68C147,420.76,150.12,407.42,149.06,403.58Z"/><path class="cls-6" d="M280.59,379.89c-20.54,1.75-40.8,2.93-53.44,7.07s-18.14,6.84-20.6,7.54-3.58-30.72.72-31.11,7.66,1.35,10.1,1.68.25.91,2.54,2.7,22.37-5.75,25.52-5.83,27-4.81,35.06-1.28a13.57,13.57,0,0,1,6.9,8.51C288,371.67,286.36,379.4,280.59,379.89Z"/><path class="cls-7" d="M206.61,395.75h-.43a19.75,19.75,0,0,0-4,1c-.35-7.94-2.11-27.74,2.4-33.49a18.87,18.87,0,0,1,4.12,0c-2.46,5.23-2.91,24.53-2.21,32.41"/></g><g id="leg_right-1" data-name="leg right-1"><path class="cls-6" d="M301,286.33c.05.13-24.3,56.41-29.13,63s-6.5,13.58-6.29,17c.18,3,10.75,19,21.61,9.69,14.08-12,45.39-66.19,45.39-66.19"/></g><g id="leg_left-2" data-name="leg left-2"><path class="cls-2" d="M184.41,313.18c-2,3.46-13.68,10.61-18.12,15.38h0c-.2.34-.4.69-.59,1.06-7.93,14.67-8.85,16.43-8.45,21.94,7.17.21,14.12-4.93,18.94-9.39,0,0-3.72-7.51-3.37-9.76,4-3.09,16-10.4,26.36-12s13.47-3.06,15.58-5.56a19.42,19.42,0,0,0-4.17-3.11c-3.25-1.65-3.25-1.16-8-4.38s-5.49-3.49-7.65-3.67a4.65,4.65,0,0,1-2.62-.88c-.72,2.12-4.86,7.46-7.47,9.54a4.32,4.32,0,0,1-.5.8Z"/><path class="cls-3" d="M192.28,302.77a.92.92,0,0,1-.21-.2,74.44,74.44,0,0,1-11.48-2.34,66,66,0,0,0-3.67,7.33c2.46,1,7.34,1.77,7.89,4.75C187.42,310.23,191.56,304.89,192.28,302.77Z"/><path class="cls-4" d="M234.44,346.31s21.84-13.95,17.68-14.8-25.65-8.19-33-12.86a42.25,42.25,0,0,1-4.41-3.84c-2.11,2.5-5.17,3.91-15.58,5.56s-22.38,8.95-26.36,12c-.35,2.25,3.37,9.76,3.37,9.76,4.82-4.47,15.15-7.32,17.74-10.06s13.87-5.3,18.49-2.35S230,340.23,231.68,342,232.81,344.72,234.44,346.31Z"/><path class="cls-5" d="M184.41,313.18l-.1-.07c-2.93,3.87-10.73,2.75-18,15.45C170.73,323.79,182.42,316.64,184.41,313.18Z"/><path class="cls-8" d="M294.28,387.32C278.59,374,263,363.05,251.16,357s-17.62-8.08-19.85-9.34,19.31-24.16,22.61-21.38,4.43,6.39,5.91,8.36-.47.83-.13,3.7,19.83,11.86,22.1,14,22.44,15.82,25.58,24c1.26,3.27-.24,5.22-2,8.22C304,386.8,298.7,391.08,294.28,387.32Z"/><path class="cls-7" d="M230.46,348.56a2.91,2.91,0,0,0-.3-.31,19.34,19.34,0,0,0-3.56-2.13c5.4-5.83,18.22-21,25.48-21.85a18.55,18.55,0,0,1,2.87,3c-5.44,1.94-19.48,15.2-24.58,21.23"/></g><g id="leg_left-1" data-name="leg left-1"><path class="cls-8" d="M302.24,292.8c.08.12-12.38,60.43-15.61,67.92s-3,12.85-2.05,16.16c.86,2.89,13.62,17.6,22.12,6.13,11-14.89,25.83-57.11,25.83-57.11"/></g><g id="arm_left" data-name="arm left"><path class="cls-4" d="M362.4,186.31c-7.83-3.06-48.86,5.51-52.72,5.28s-4.7,1.9-6.12,3.63c-3,3.62-22.4,31.76-25.53,34.31-1,.82-2.71,4.54-3.56,5.31s-5.07,4.36-6.5,5.79a6.24,6.24,0,0,0-1.71,2.56c-.45.84-5.2.87.38-7.93-4.17,2.09-11.21,5-16.26,7.48-2.13,1-3.44-1.07-1.17-2.72s8.56-5.08,9.69-5.79c-7.12,2.75-11.09,5.57-13,5.84s-3.05-2.56-.16-4,9.47-4.52,10.43-5.14c-3.27,1.24-9.06,2.64-10,2.91s-3-.7-1-2.64c1.66-1.6,6.56-1.9,11.11-4.19-3,.68-9.63,2.51-10.33,2.29s-1.63-1.91.45-3,8.08-3.5,11.43-4.69,8.66-3,11.12-3.07,4.3-.4,6.31-2.1,16-24.47,19.23-30a34.75,34.75,0,0,1,5.61-7c2.27-1.87,3.48-2,9.3-2,6.47,0,45.66-5.83,57.12-4.51"/></g><g id="body"><polygon class="cls-9" points="290.49 264.42 282.37 271.39 295.81 290.73 299.73 286.02 314.28 309.84 344.56 346.59 349.67 327.62 340.22 310.86 315.47 283.04 308.66 274.96 301.51 272.83 297.35 263.49 290.49 264.42"/><path class="cls-9" d="M299.73,255.14c-.34,0-6.55,7.83-6.55,7.83l3,1.78,5.3,8.08,6.61,2.47,41.55,51.39L357,313.87l-27.9-34.48L301.34,253.1Z"/><path class="cls-9" d="M302.9,248.76c.57.42-4,7.27-4,7.27l1.41,4,8,5.86,3.95,4.69L356.78,315l9.39-17.83-31.48-24.42-31.33-24.9Z"/><path class="cls-10" d="M359.11,169.7c.35-1,2.26-2.33,3.63-4.08l16.69,1.92L379,172.8s9.19,10.45,10.26,21.51.12,18.05-7.75,33.52c-6.94,13.61-11.3,22.52-12.21,36.58s-2.13,26.77-2.13,32.78l-63.08-50.13s1-.69,5.83-1.93c9-2.33,14.63-2.67,25.86-7.26,11.64-4.76,17.07-17.07,19.23-25.69S357.8,173.49,359.11,169.7Z"/><path class="cls-11" d="M279,273.43c.51.17,9.19,7.09,9.19,7.09l7,12,3.76-4.77,7.3,11.06,6.47,11.74,7,6.86,3,4.8,12.87,14.37,2.95,5.36,5.11,4,.42,3.41,1.53-5.45-5-3.57-1.92-4.88-7.94-11.8-4.77-2.21-3.74-5.73-4.94-4.31-6.89-11.14-7-11.74-2.81-5.25-4.94,5.67-4.87-10.21-7.72-8.33Z"/><path class="cls-12" d="M304.11,247.06,302.24,249l4.29,2.67,2.56,2,3.63,2.38s11.17,8.77,11.51,8.77,6.64,4.93,6.64,4.93l7.82,7.23,13.5,10.21,14.56,13.71.44-3.73-13.3-10.86-11.2-8.82-9.22-7.37-7.28-5.73L316,256.19l-4.31-3.09-3.19-3Z"/><path class="cls-12" d="M293.24,261.67l-3.82,2.54,6.48,1.31,6.34,11.16,3.13-3.62s14.61,16.87,15,17.13,7.23,9.87,7.23,9.87L335,307.2l5.84,5.65,2.07,4.65,1.45,6.46,5.1,5.62,2.13-3.74L348,323.37l-2.46-7.06s-2.05-4.77-2.14-5.11-5.27-4.76-5.27-4.76l-5.7-5.62-9.79-11.23-17-18.61-2.75,2.88L298,262.8Z"/><path class="cls-12" d="M300.4,254.29l-2.89,3.31,2.36-.48,7.8,11.43,3.06-3.46S324,281.54,324.38,281.8s8.24,9.95,8.24,9.95l9.76,5.44,4.65,3.73,2.27,6.6,3.29,4.76,4.18,6.09,1.49-5.18L355,310.35l-2.61-4.54s-3.54-6-3.63-6.35-5.1-3.84-5.1-3.84l-8.12-4.17-8.92-10.25-15.73-17.71-3,2.9-.5-1.23L302,254.4Z"/></g><g id="hair-3"><path class="cls-2" d="M296.1,141.39c-47,26.15-48.55,26.15-85.76,38.4-35.79,11.79-90.09,39.81-106.08,115a.24.24,0,0,0,.42.2c37.49-56.39,57.23-65.48,77.31-78.85,27.5-18.31,37.55-22.57,55.6-29.05.26-.09.45.27.22.41-49.25,31-96,72.84-118.09,146.91a.23.23,0,0,0,.41.21c38-56.89,96.76-112.13,133.32-133.45,36.05-21,37.2-33.58,79.88-60.34,15.87-9.95,29.78-32.66,31.54-35.93a.23.23,0,0,0-.23-.34"/></g><g id="hair-2"><path class="cls-13" d="M354.6,110.77c77.2-.63-72.75.07-73,.08-63.18,2.4-155.53,1.43-254.07,64.55a.23.23,0,0,0,.19.42C146.59,140,175.39,140.78,266,130.31c.29,0,.32.42,0,.47-82.78,13.57-148.56,15.45-199.61,101.55a.23.23,0,0,0,.36.29c49.63-47.25,65.23-52.89,87.49-59,34.13-9.38,166.13-39.75,192.83-43.25.27,0,7-9.82,7-9.82"/></g><g id="hair-1"><path class="cls-14" d="M108.31,73.17C166.67,67,165.8,68.62,213.63,85.42c6.91,2.42,13.54,4.57,20,6.47,45.38,13.43,81.06,14.58,125.17,17.86L354,107.44c-32.33-3.48-65.51-.93-123-18.62q-4.1-1.26-7.8-2.46c-49.67-16-50.86-23.41-114.88-13.19Z"/><path class="cls-14" d="M140.84,91.43c54.58-6.57,53.81-5.27,99.1,6.12,6.54,1.64,12.81,3.08,18.89,4.34,42.91,8.88,76.4,8.65,117.86,9.79l-4.53-1.62c-30.41-1.66-61.47,1.33-115.86-10.44q-3.87-.84-7.38-1.65c-47-10.73-48.3-16.35-108.08-6.54Z"/></g><g id="head"><path class="cls-15" d="M386,103.39s10.76,2.57,12.47,5.2,6.92,26.6,4.65,42a.23.23,0,0,1-.45,0,66.84,66.84,0,0,0-1.94-12A101.46,101.46,0,0,1,396.55,160a.09.09,0,0,1-.17,0c.59-8.07.86-13.45-.09-18.44-1.36,8.82-4.94,19.31-10.42,31.33a.15.15,0,0,1-.28-.09c2.52-11.26,6.52-30.94,6.52-30.94-3.56,6.06-10.54,22-12,23.37C382.64,154.38,386,103.39,386,103.39Z"/><path class="cls-4" d="M388,115.18a.44.44,0,0,1,.16,0c3.4,1.18,10,3.39,8,13s-4.62,15-2.73,17.56a8.67,8.67,0,0,0,4.38,3.27.33.33,0,0,1,.21.41c-.43,1.35-2.29,3.19-3,3.95a.24.24,0,0,0-.07.12,4.31,4.31,0,0,0,.18,2.83.34.34,0,0,1-.15.38,9.29,9.29,0,0,1-2.14.82.33.33,0,0,0-.2.46l.55,1.13a.69.69,0,0,1,0,.64c-.59,1-2.3,3.22-2.16,5.39a1.49,1.49,0,0,1-1.37,1.53c-3.28.26-6.64-.39-8-.26a7.2,7.2,0,0,0-1.39.23.33.33,0,0,0-.2.47c.57,1.28-.24,3-.93,5.71-2-.86-15.74-2.27-17.9-3a.33.33,0,0,1-.22-.36l6.47-51.12a.33.33,0,0,1,.28-.29Z"/><path class="cls-13" d="M379.57,149c2.71,6.47,2.19,13.87,2.28,20.75-3.83-7.88-6.83-11.4-8.72-13.51"/><path class="cls-13" d="M372.52,97.4c18.61,2.66,22.12,7.66,23.92,10"/><path class="cls-13" d="M372.69,98.18c-16.24-4.46-38,4.17-39.31,31.84s23.93,31,25.82,32.71,2.94,2,2.12,4.81"/><g id="headphone"><polygon class="cls-16" points="376.25 127.83 379.21 127.69 380.15 143.9 376.66 152.31 360.53 153.42 356.62 145.37 357.33 129.87 362.48 128.89 363.45 113.05 360.94 112.33 362.62 102.42 365.15 102.27 369.54 92.14 381.52 94.54 377.57 104.69 376.33 113.73 376.25 127.83"/><path class="cls-17" d="M370.72,92.53l-4.54,10.54-2.68.27-1.15,7.43s13.29,2.86,13.2,2.69.92-8.82.92-8.82l4.1-9.92"/><line class="cls-17" x1="362.67" y1="109.43" x2="375.79" y2="111.94"/><path class="cls-17" d="M366,152.6l-4.57.09a.1.1,0,0,1-.1-.07c-.2-.75-3.48-7.11-3.48-7.11l.44-14.71,5.07-1.16,1-17.14-2.3-.53.28-1.2"/><polygon class="cls-18" points="360.09 132 372.65 130.38 373.18 149.31 362.62 151.19 359.73 145.23 360.09 132"/><path class="cls-19" d="M361.25,137.06s-.6,6.79-.34,6.88,13.32.24,13.41,0-.26-7.66-.26-7.66Z"/><path class="cls-20" d="M363.46,138.08a30,30,0,0,0-.25,4.27c.19.06,10,.18,10.07,0s-.2-4.86-.2-4.86Z"/></g><path class="cls-12" d="M390.87,188.3c-1-.68-3.35-2.84-3.69-3.86s-6-13.16-6-13.16l-21.44-4.19-.62,2.61s19,3.53,19.81,4.34,3.44,6.89,4.35,8.36a39.51,39.51,0,0,1,3.5,9.58c-3.44,7.11-9,10-20.74,19.12,9.65,0,14.39-2.18,17.46-5.24-3.5,3.63-7.89,7.56-11.85,11.25,12.6-2.61,20.88-14.63,20.88-14.63.68-1.59-.06-4.31.73-8.17S391.83,189,390.87,188.3Zm-6.83,17c1.95-2.14,3.22-4.64,4.82-7.08q.13.25.3.51A33.33,33.33,0,0,1,384,205.29Z"/><path class="cls-13" d="M378.54,104c.85-.47,1.17-3.38,2.22-3.46s1.9.81,3.46,1.35,2.35.38,3,.91,8,2.62,11,5.7-16.41,47.36-30,58.51c1-4.6,1.46-5.9,1-6.52-1.42,1.55-2.9,9.2-8,10.79C361.45,163.8,364,111.93,378.54,104Z"/></g><g id="arm_right" data-name="arm right"><path class="cls-4" d="M387.86,192.54c6.21,20,11.92,33.94,18.65,32.9,3.31-.51,29.39-14.31,33.75-15.71s7.7-2.69,9.83-3.09a16.61,16.61,0,0,0,5.49-1.92c1.2-.8,4.05-2.81,5.29-3.13s7.33-1.68,9.5-2.36a7,7,0,0,0,3-1.65c.89-.6,5.63,1.86-4.53,7.69,5.24.1,13.77.9,20.1,1.07,2.66.06,2.86,2.87-.27,3.31s-11.17.59-12.66.69c8.52,1,13.94.27,16,1s1.68,4.14-1.95,4.09-11.79-.47-13.07-.36c3.9.48,10.4,2.12,11.47,2.33s2.64,2.29-.37,3.17c-2.48.73-7.52-1.54-13.24-1.64,3.32.88,10.89,2.54,11.48,3.12s.62,2.76-2,2.73-9.72-1.51-13.67-2.07A59.64,59.64,0,0,1,459.67,220a18.06,18.06,0,0,0-9.14-.49c-2.89.64-29.32,15.15-34.82,19.75s-8.82,5.55-10.21,5.39a20,20,0,0,1-8.12-4.06c-3.26-2.56-23.21-34.27-28.57-42-5.1-7.36-7-17.44-4.66-21.86a9.51,9.51,0,0,1,17,.17A101.91,101.91,0,0,1,387.86,192.54Z"/></g></svg>