<svg xmlns="http://www.w3.org/2000/svg" xmlns:xlink="http://www.w3.org/1999/xlink" viewBox="0 0 586.35 578.72"><defs><style>.cls-1{fill:none;}.cls-2{fill:#8dc63f;}.cls-3{fill:#414042;}.cls-4{fill:#ac2743;}.cls-5{fill:#c13356;}.cls-6{fill:#ea506d;}.cls-7{opacity:0.31;}.cls-8{clip-path:url(#clip-path);}.cls-9{fill:#b33548;}.cls-10{fill:#ffc239;}.cls-11{fill:#ddd;}</style><clipPath id="clip-path"><circle class="cls-1" cx="283.64" cy="308.18" r="235.94"/></clipPath></defs><title>logo</title><g id="Layer_2" data-name="Layer 2"><g id="L_logo" data-name="L logo"><g id="_Group_" data-name="&lt;Group&gt;"><circle class="cls-2" cx="420.06" cy="96.24" r="20.86"/><path class="cls-3" d="M420.06,122.09a25.86,25.86,0,1,1,25.85-25.85A25.89,25.89,0,0,1,420.06,122.09Zm0-41.71a15.86,15.86,0,1,0,15.85,15.86A15.87,15.87,0,0,0,420.06,80.38Z"/></g><g id="_Group_2" data-name="&lt;Group&gt;"><circle class="cls-4" cx="283.64" cy="308.18" r="248.15"/><path class="cls-3" d="M283.64,569.05A260.87,260.87,0,0,1,99.17,123.72,260.87,260.87,0,0,1,468.1,492.65,259.15,259.15,0,0,1,283.64,569.05Zm0-496.3c-129.82,0-235.43,105.62-235.43,235.43S153.82,543.62,283.64,543.62,519.07,438,519.07,308.18,413.45,72.75,283.64,72.75Z"/></g><g id="_Group_3" data-name="&lt;Group&gt;"><path class="cls-5" d="M517,310c0,124.39-69.95,213.8-195.87,231.48C196.26,558.88,60.42,434.36,60.42,310s102.26-237.6,228.3-237.6S517,185.7,517,310Z"/></g><g id="_Group_4" data-name="&lt;Group&gt;"><path class="cls-6" d="M510.67,314.93c0,122.48-69.95,210.75-195.87,228.05-124.9,17.17-260.74-105.57-260.74-228S156.32,80.51,282.36,79.24C430.54,77.71,510.67,192.31,510.67,314.93Z"/></g><g class="cls-7"><g class="cls-8"><circle class="cls-9" cx="118.29" cy="210.88" r="118.29"/><circle class="cls-9" cx="236.58" cy="428.38" r="75.04"/><circle class="cls-9" cx="506.86" cy="406.12" r="79.49"/></g></g><g id="_Group_5" data-name="&lt;Group&gt;"><circle class="cls-10" cx="312.51" cy="65.63" r="37.52"/><path class="cls-3" d="M312.51,114a48.33,48.33,0,1,1,48.33-48.33A48.38,48.38,0,0,1,312.51,114Zm0-75a26.71,26.71,0,1,0,26.71,26.71A26.74,26.74,0,0,0,312.51,38.92Z"/></g><g id="_Group_6" data-name="&lt;Group&gt;"><circle class="cls-3" cx="288.72" cy="342.11" r="6.36"/></g><g id="_Group_7" data-name="&lt;Group&gt;"><circle class="cls-3" cx="409.56" cy="211.14" r="6.36"/></g><g id="_Group_8" data-name="&lt;Group&gt;"><path class="cls-3" d="M139.15,462.09c-15.22,0-27.6-14.84-27.6-33.07a6.36,6.36,0,0,1,12.72,0c0,11,6.81,20.35,14.88,20.35a6.36,6.36,0,1,1,0,12.72Z"/></g><g id="_Group_9" data-name="&lt;Group&gt;"><circle class="cls-3" cx="176.29" cy="30.53" r="6.36"/></g><g id="_Group_10" data-name="&lt;Group&gt;"><circle class="cls-3" cx="359.06" cy="24.17" r="6.36"/></g><g id="_Group_11" data-name="&lt;Group&gt;"><circle class="cls-3" cx="477.35" cy="88.78" r="6.36"/></g><g id="_Group_12" data-name="&lt;Group&gt;"><circle class="cls-3" cx="449.75" cy="9.79" r="9.79"/></g><g id="_Group_13" data-name="&lt;Group&gt;"><path class="cls-3" d="M125.77,578.72c-20.46,0-36.18-5.93-46.8-17.67-22.16-24.65-21.69-52.22,1.64-98.34a12.72,12.72,0,0,1,22.7,11.48C80.59,519.1,87.4,532.38,97.86,544c13.76,15.2,51,11.62,99.6-9.63,54.29-23.73,116.78-66.27,176-119.77s107.9-111.42,137-163c26.08-46.16,33.44-82.8,19.67-98-7.72-8.54-20.95-15.65-60.54-3.73a12.72,12.72,0,1,1-7.33-24.36c28.09-8.46,63.33-14.85,86.74,11,11.92,13.18,15.9,32,11.82,55.92-3.52,20.66-13,44.77-28.21,71.68-30.42,53.84-80.89,114-142.11,169.3S264.38,532.9,207.65,557.7c-28.31,12.38-53.28,19.36-74.22,20.76C130.81,578.63,128.25,578.72,125.77,578.72Z"/></g><g id="_Group_14" data-name="&lt;Group&gt;"><circle class="cls-11" cx="312.51" cy="477.6" r="41.34"/><path class="cls-3" d="M312.51,528.11A50.51,50.51,0,1,1,363,477.6,50.57,50.57,0,0,1,312.51,528.11Zm0-82.67a32.17,32.17,0,1,0,32.16,32.16A32.19,32.19,0,0,0,312.51,445.44Z"/></g><g id="_Group_15" data-name="&lt;Group&gt;"><path class="cls-3" d="M357,400.4a10.82,10.82,0,0,1-7.88-18.21L460.05,264a10.81,10.81,0,1,1,15.77,14.8L364.91,397A10.81,10.81,0,0,1,357,400.4Z"/></g><g id="_Group_16" data-name="&lt;Group&gt;"><path class="cls-3" d="M107.49,235.31a11.31,11.31,0,0,1-2.22-.23,10.82,10.82,0,0,1-8.38-12.79c6.41-30.77,20.72-58.09,40.31-76.94,20.68-19.9,44.83-28.21,68-23.4a10.81,10.81,0,0,1-4.39,21.17c-16-3.32-33.23,3-48.61,17.81-16.48,15.86-28.6,39.22-34.13,65.77A10.82,10.82,0,0,1,107.49,235.31Z"/></g></g></g></svg>