<svg xmlns="http://www.w3.org/2000/svg" viewBox="0 0 100 100"><defs><style>.cls-1{fill-opacity:0}.cls-2{fill:#efefef}</style></defs><title>dribbble</title><g id="Layer_6" data-name="Layer 6"><rect width="92.11" height="92.11" x="4.31" y="6" class="cls-1"/><path d="M50.36,6A46.06,46.06,0,1,0,96.42,52.06,46.07,46.07,0,0,0,50.36,6ZM80.78,27.23a39.11,39.11,0,0,1,8.89,24.48c-1.29-.25-14.28-2.9-27.37-1.25-.3-.65-.55-1.35-.85-2.05-.8-1.9-1.7-3.85-2.6-5.7C73.34,36.82,79.93,28.33,80.78,27.23ZM50.36,12.79a39.3,39.3,0,0,1,26.08,9.89c-.7,1-6.65,9-20.63,14.19a213.1,213.1,0,0,0-14.69-23A40,40,0,0,1,50.36,12.79Zm-16.73,3.7A247.85,247.85,0,0,1,48.21,39.22,147.62,147.62,0,0,1,11.85,44,39.51,39.51,0,0,1,33.63,16.49ZM11,52.11v-1.2a143.59,143.59,0,0,0,40.41-5.6c1.15,2.2,2.2,4.45,3.2,6.7l-1.55.44C32.78,59,22,76.88,21.09,78.38A39.25,39.25,0,0,1,11,52.11ZM50.36,91.42a39,39,0,0,1-24.12-8.3c.7-1.44,8.69-16.83,30.87-24.57l.25-.1a162.8,162.8,0,0,1,8.39,29.82A38.68,38.68,0,0,1,50.36,91.42Zm21.93-6.75a170,170,0,0,0-7.64-28,57.33,57.33,0,0,1,24.47,1.7A39,39,0,0,1,72.29,84.67Z" class="cls-2"/></g></svg>