<svg xmlns="http://www.w3.org/2000/svg" id="Layer_1" data-name="Layer 1" viewBox="0 0 106.5 61.5"><defs><style>.cls-1{fill:#f9f9f9}</style></defs><title>japanese</title><path d="M23.25,27.93c-.6,0-1.12.05-1.55.05v-.35c.61,0,1.14,0,1.57,0,0-.39,0-.79,0-1.23h.39c0,.73-.06,1.13-.06,1.19.86-.05,1.85-.16,3-.31v.34c-1.06.14-2.06.25-3,.31,0,.49,0,1,0,1.48a5.7,5.7,0,0,1,1.68-.26,6,6,0,0,0,.12-.59l.38.06c-.06.24-.1.42-.14.56a2,2,0,0,1,1.35.71,2.15,2.15,0,0,1,.47,1.33A2.19,2.19,0,0,1,26.82,33,3.82,3.82,0,0,1,25,33.8l-.19-.32a3.27,3.27,0,0,0,1.85-.87,1.94,1.94,0,0,0,.44-1.39,1.83,1.83,0,0,0-.52-1.3,1.54,1.54,0,0,0-1-.47,9.65,9.65,0,0,1-1.37,2.87,3.2,3.2,0,0,1-.8.8,1.75,1.75,0,0,1-.92.33.88.88,0,0,1-.74-.33,1.28,1.28,0,0,1-.26-.8A2.78,2.78,0,0,1,22,30.58a3.2,3.2,0,0,1,1.25-1C23.25,28.94,23.24,28.41,23.25,27.93Zm.46,4.47a12.76,12.76,0,0,1-.43-2.52A2.89,2.89,0,0,0,22.16,31a2.55,2.55,0,0,0-.33,1.33.86.86,0,0,0,.24.62.52.52,0,0,0,.41.16A1.74,1.74,0,0,0,23.71,32.4Zm.28-.35a8.72,8.72,0,0,0,1.23-2.63,4.73,4.73,0,0,0-1.58.3A12.33,12.33,0,0,0,24,32.05Z" class="cls-1"/><path d="M11.73,48.14,12,49.31s0,.06,0,.07l-.19,0s0,0-.06,0l-.16-.79-.05-.23L11.4,48s0,0,0-.06l1.25-.27.51-.11a3.25,3.25,0,0,0-.55-.65l0,0,.09-.07.09-.06s0,0,0,0a4.68,4.68,0,0,1,.62.71l1.34-.3a4.07,4.07,0,0,0-.55-.74l0,0s0,0,.09-.08l.09-.06s0,0,.05,0a3.72,3.72,0,0,1,.62.81l1-.23c.08-.23.15-.47.21-.71a2,2,0,0,0,.05-.55,1.42,1.42,0,0,1,.31,0c.05,0,.08,0,.09.07a.15.15,0,0,1-.05.1.67.67,0,0,0-.09.21c-.07.25-.15.51-.25.79l.67-.15,1.25-.3s.05,0,.06,0l.06.32,0,.25.19.77a.05.05,0,0,1,0,.07l-.18,0s-.06,0-.07-.05l-.25-1.13Zm-.26-1.61.44-.1c.69-.15,1.47-.37,2.34-.64a18.92,18.92,0,0,0,2.36-.9,1.55,1.55,0,0,0,.32-.2,1.12,1.12,0,0,1,.26.11s.08.06.08.08,0,.07-.09.09a1,1,0,0,0-.27.1q-1.07.47-2.58,1c-.83.27-1.67.51-2.52.71H11.7l-.07-.07A.43.43,0,0,0,11.47,46.53ZM14,48.74,14,49a.48.48,0,0,0,.12.26.38.38,0,0,0,.24.06,6.83,6.83,0,0,0,.8-.13,3.53,3.53,0,0,0,1.18-.42.51.51,0,0,0,.19-.33,2.61,2.61,0,0,0,0-.4l.2.1c.06,0,.1,0,.1.07v.09a.86.86,0,0,1-.3.66,4,4,0,0,1-1.29.47l-.59.12a9.08,9.08,0,0,1-.36.85l2.53-.57a.4.4,0,0,0,.12,0l.07,0a.39.39,0,0,1,.18.08c.07.05.11.09.11.12s0,.06,0,.09a1,1,0,0,0-.16.22,8.79,8.79,0,0,1-1,1.34,8.32,8.32,0,0,0,2.09.28c.51,0,1.15,0,1.91-.08A.56.56,0,0,0,20,52c0,.07-.05.1-.08.11h-.06a11.25,11.25,0,0,1-3.92-.34,9,9,0,0,1-3,1.92l-.09,0s-.05,0-.1-.08a.48.48,0,0,0-.15-.1,9.51,9.51,0,0,0,3.08-1.88,5.54,5.54,0,0,1-1.57-.85,7.73,7.73,0,0,1-1.59,1.87l-.08.06a.17.17,0,0,1-.1,0,.37.37,0,0,0-.15-.08,6.51,6.51,0,0,0,1.41-1.47,8.25,8.25,0,0,0,.82-1.6s0,0-.06,0a.47.47,0,0,1-.53-.42l-.07-.33a4.74,4.74,0,0,0-.19-.65,1.23,1.23,0,0,1,.31,0s.07,0,.07.06a.16.16,0,0,1,0,.1A1.59,1.59,0,0,0,14,48.74Zm-1.42,1.35,0,0-.13,0a.44.44,0,0,1-.12-.07s0,0,0,0a3.23,3.23,0,0,0,.53-1.37s0,0,0,0l.11,0c.08,0,.12,0,.12,0v0A4.07,4.07,0,0,1,12.54,50.09ZM16.91,50l-2.75.62a6.55,6.55,0,0,0,1.67.84A8.64,8.64,0,0,0,16.91,50ZM14.63,48s0,0,0,0,0,0,.05-.09a.36.36,0,0,1,.09-.09l0,0a4.07,4.07,0,0,1,.82.52l0,0a.81.81,0,0,1-.06.13c0,.06-.06.09-.07.09l0,0A3.78,3.78,0,0,0,14.63,48Zm2.31-.25s0,0,0,0,0,0,.07-.09.07-.08.08-.08a.06.06,0,0,1,.05,0,7.39,7.39,0,0,1,1.21,1,0,0,0,0,1,0,0s0,.06-.08.13-.08.08-.1.08l0,0A7.22,7.22,0,0,0,16.94,47.71Z" class="cls-1"/><path d="M76.54,18.22a3.81,3.81,0,0,0,1.84-1.45,5.36,5.36,0,0,0,.54-2.25l.1-1.35.4,0-.1,1.37a5.18,5.18,0,0,1-.77,2.65,4.48,4.48,0,0,1-1.79,1.31Zm.14-6.52,5.64.42a4.39,4.39,0,0,1-1.85,3l-.28-.26a3.51,3.51,0,0,0,1.62-2.45l-5.15-.38Z" class="cls-1"/><path d="M85.44,15.78a21,21,0,0,0-2-2l.26-.24a19.76,19.76,0,0,1,1.89,1.85,11.36,11.36,0,0,0,1.25-3.19l.4.12a12.78,12.78,0,0,1-1.38,3.39,18.17,18.17,0,0,1,1.51,2.13l-.35.23a15,15,0,0,0-1.38-2A8.2,8.2,0,0,1,82.43,19l-.25-.28A8.06,8.06,0,0,0,85.44,15.78Z" class="cls-1"/><path d="M88.52,12.31l-.31,4.26-.41,0,.32-4.26ZM88,19.07a5.85,5.85,0,0,0,1.75-.57,2.32,2.32,0,0,0,1-1.07,6.26,6.26,0,0,0,.38-1.91l.23-3,.4,0-.22,3.05a6.64,6.64,0,0,1-.44,2.09,2.53,2.53,0,0,1-1,1.17,5.6,5.6,0,0,1-1.82.6Z" class="cls-1"/><path d="M94.51,14.17l2.67.2a36.27,36.27,0,0,1-.48,4.26,2.55,2.55,0,0,1-.27.77.72.72,0,0,1-.31.29,3.4,3.4,0,0,1-1.44.07l-.09-.39a2.87,2.87,0,0,0,1.29,0c.18-.08.33-.36.43-.83a32.89,32.89,0,0,0,.44-3.83l-2.27-.17a8.4,8.4,0,0,1-.92,3.31,5.54,5.54,0,0,1-1.8,1.77l-.26-.29a5,5,0,0,0,1.89-2,8.79,8.79,0,0,0,.69-2.84L92,14.34l0-.35,2.06.15c.06-.65.11-1.2.14-1.65l.41,0Q94.6,13.45,94.51,14.17Z" class="cls-1"/><path d="M46.83,39.82,44.5,40a8.19,8.19,0,0,0,1.74,2.82,5.84,5.84,0,0,0,2.33,1.56.43.43,0,0,0-.17.18s-.06.08-.08.08l-.09,0a6.59,6.59,0,0,1-2.48-1.9,7.42,7.42,0,0,1-1.47-2.6,6.54,6.54,0,0,1-.44,2,5.35,5.35,0,0,1-1.15,1.79A7.29,7.29,0,0,1,41.09,45l-.09,0s-.06,0-.1-.06a.61.61,0,0,0-.21-.12,5.73,5.73,0,0,0,2.88-3A7.15,7.15,0,0,0,44,40l-2.14.13-1.23.09a0,0,0,0,1-.05,0V40s0-.06,0-.06l1.23-.06L44,39.72c0-.46,0-1,0-1.59,0-.15,0-.25,0-.33a3.2,3.2,0,0,0-.09-.68l.38,0c.06,0,.1,0,.1.08a1.1,1.1,0,0,1,0,.15,2.18,2.18,0,0,0,0,.72c0,.55,0,1.08,0,1.6l2.5-.15L48,39.46s.05,0,.05,0v.2s0,.06,0,.06Z" class="cls-1"/><path d="M50,42.14a.06.06,0,0,1-.06,0h-.12c-.09,0-.14,0-.14,0s0,0,0,0A19.43,19.43,0,0,0,50.58,39h-.17l-1,.07s-.06,0-.07-.05V38.8a.05.05,0,0,1,.06-.06l1,0,.23,0c.09-.48.16-.94.2-1.36a2,2,0,0,0,0-.49.53.53,0,0,0,0-.13,1.49,1.49,0,0,1,.36,0c.05,0,.08,0,.09.07a.35.35,0,0,1-.06.14.89.89,0,0,0-.09.34c-.05.38-.13.84-.22,1.37l.59,0,1-.08c.05,0,.07,0,.07.05v0l0,.54a8.13,8.13,0,0,1-.72,3,13.68,13.68,0,0,1,1.11.85s0,0,0,0a.6.6,0,0,1-.08.13c-.06.06-.09.09-.11.09l0,0a8.23,8.23,0,0,0-1-.86,6.71,6.71,0,0,1-1.71,2l-.08,0s0,0-.1-.06a.42.42,0,0,0-.16-.11,6.54,6.54,0,0,0,1.83-2,11.62,11.62,0,0,0-1.24-.73c0,.09-.06.21-.11.36Zm2.24-3.3-1.39.09a22.64,22.64,0,0,1-.58,2.33,11.32,11.32,0,0,1,1.28.76A7.71,7.71,0,0,0,52.24,38.84Zm1.84-1.68L56.31,37a.47.47,0,0,0,.17,0l.07,0a.19.19,0,0,1,.16.07c.11.09.16.15.16.17a.1.1,0,0,1-.07.1,1.3,1.3,0,0,0-.28.31,10.48,10.48,0,0,1-1.35,1.48.62.62,0,0,0,0,.21l.06.93,1-.06,1.21-.1s0,0,.06.05v.19s0,.06-.05.06l-1.22,0-1,.06.1,1.66.07,1a1.21,1.21,0,0,1,0,.5.62.62,0,0,1-.14.22.7.7,0,0,1-.37.2,3.5,3.5,0,0,1-.63.08H54a.64.64,0,0,1,0-.1.71.71,0,0,0-.13-.22c.2,0,.48,0,.83,0s.53-.24.5-.66L55,40.51l-.91.06-1.21.09s-.06,0-.06,0v-.19s0-.05,0-.06l1.21,0,.91-.06v-.12a8.6,8.6,0,0,0-.16-1.34,1.5,1.5,0,0,1,.3.06,9.47,9.47,0,0,0,1.34-1.58l-2.32.14L53,37.5a0,0,0,0,1,0,0v-.18s0-.06,0-.06Z" class="cls-1"/><path d="M61.29,39.24a7.45,7.45,0,0,0,1.52,1.87l-.21.39a5.19,5.19,0,0,0-2.27-.36c-1.29.07-1.92.48-1.88,1.2s.88,1,2.51.94c.36,0,.75-.06,1.19-.11l0,.37c-.26,0-.67.06-1.21.09q-2.79.16-2.88-1.26a1.16,1.16,0,0,1,.58-1.11,3.46,3.46,0,0,1,1.65-.44,5,5,0,0,1,2,.28,7.38,7.38,0,0,1-1.39-1.78,23.18,23.18,0,0,1-2.76.33l-.08-.32A21.17,21.17,0,0,0,60.77,39c-.17-.33-.36-.74-.57-1.24-.72.12-1.54.21-2.47.28l-.06-.33a23.63,23.63,0,0,0,2.39-.26c-.05-.12-.12-.3-.21-.55s-.16-.4-.2-.52l.36-.07c.09.25.22.61.4,1.08.64-.12,1.29-.27,2-.46l.08.32c-.68.18-1.32.33-1.92.44.25.56.45,1,.6,1.24q.82-.16,1.68-.42l.09.33C62.3,39,61.77,39.15,61.29,39.24Z" class="cls-1"/><path d="M68.14,36.45l0,.39a3.64,3.64,0,0,0-1.47.63A3.83,3.83,0,0,0,65.37,39,3.07,3.07,0,0,0,65,40.57c.09,1.36,1,2.11,2.85,2.24l-.06.38a3.69,3.69,0,0,1-2.35-.82,2.45,2.45,0,0,1-.81-1.75,3.69,3.69,0,0,1,1.89-3.42l.5-.27v0l-.57.12c-1.62.22-2.86.4-3.71.53l0-.37C64.21,37,66,36.71,68.14,36.45Zm-1,2,.27-.13a12.55,12.55,0,0,1,.81,1.5L68,40A9.55,9.55,0,0,0,67.19,38.42Zm.93-.41.28-.13a7.91,7.91,0,0,1,.78,1.46l-.29.16A9.63,9.63,0,0,0,68.12,38Z" class="cls-1"/><path d="M73.22,37.12l.12,1.93a3,3,0,0,1,.29,1.17c.08,1.45-.79,2.42-2.61,2.89l-.24-.28a3.7,3.7,0,0,0,2-1.1,2.31,2.31,0,0,0,.43-1.61A1.19,1.19,0,0,1,72,41a1.37,1.37,0,0,1-1-.33,1.36,1.36,0,0,1-.39-.89,1.34,1.34,0,0,1,.35-1,1.38,1.38,0,0,1,.93-.41,1.4,1.4,0,0,1,1.06.36c0-.68-.08-1.19-.1-1.54q-1.41.12-3.51.36l0-.36q2.39-.24,3.51-.33l-.08-1.24.38,0c0,.14,0,.36,0,.67s0,.42,0,.56l2.22-.15,0,.36C74.78,37,74,37.06,73.22,37.12Zm-1.31,1.53a.9.9,0,0,0-.71.36,1.09,1.09,0,0,0-.2.75.88.88,0,0,0,.36.7,1.17,1.17,0,0,0,.72.17,1,1,0,0,0,.76-.36,1.06,1.06,0,0,0,.2-.75.89.89,0,0,0-.37-.69A1.17,1.17,0,0,0,71.91,38.65Z" class="cls-1"/><path d="M50.72,11.19s0,0,0,0v-.36H48.16v.35s0,0,0,0H48s0,0,0,0l0-1.72V7.13a0,0,0,0,1,0,0l.72,0h2.11a0,0,0,0,1,0,0l0,1.16v2.84a0,0,0,0,1,0,0ZM48.17,9v1.67l2.53,0,0-1.67Zm0-1.7V8.81l2.54,0V7.28Z" class="cls-1"/><path d="M54.92,10.21h-.43v1a.18.18,0,0,1,0,.06,0,0,0,0,1,0,0h-.14a0,0,0,0,1,0,0c0-.07,0-.42,0-1h-1s0,0,0,0v-.11a0,0,0,0,1,0,0l.66,0h.37q0-1,0-2a5.9,5.9,0,0,1-2.07,2.29l-.05,0s0,0,0-.05a.28.28,0,0,0-.09-.07,5,5,0,0,0,1.26-1A6,6,0,0,0,54.23,8H52.35s0,0,0,0V7.85a0,0,0,0,1,0,0l.71,0h1.28V7.32a4.14,4.14,0,0,0,0-.6.66.66,0,0,1,.21,0s.06,0,.06,0a.14.14,0,0,1,0,.06l0,0a2.08,2.08,0,0,0,0,.44v.53h2.11s0,0,0,0V8a0,0,0,0,1,0,0L55.9,8H54.6a5.63,5.63,0,0,0,2.24,2.27l-.09.09,0,0-.05,0A5.71,5.71,0,0,1,54.5,8.07c0,.62,0,1.28,0,2h1.08a0,0,0,0,1,0,0v.11a0,0,0,0,1,0,0Z" class="cls-1"/><path d="M58.53,7.86H57.4s0,0,0,0v-.1a0,0,0,0,1,0,0l.54,0h1.13s0,0,0,0v.1a0,0,0,0,1,0,0Zm.27,3.38a0,0,0,0,1,0,0V11h-1v.28a0,0,0,0,1,0,0h-.1s0,0,0,0l0-.75V9.81a0,0,0,0,1,0,0l.44,0h.84a0,0,0,0,1,0,0v1.39a0,0,0,0,1,0,0Zm-.29-4.09h-.86s0,0,0,0V7a0,0,0,0,1,0,0H59a0,0,0,0,1,0,0v.1s0,0,0,0Zm-.06,2.1h-.78a0,0,0,0,1,0,0V9.12a0,0,0,0,1,0,0l.42,0h.78a0,0,0,0,1,0,0v.11a0,0,0,0,1,0,0Zm0-.69h-.78a0,0,0,0,1,0,0v-.1a0,0,0,0,1,0,0h1.2s0,0,0,0v.11a0,0,0,0,1,0,0Zm-.69,1.37v.94h1V9.94Zm3.31-2.78h-.64c0,.2-.11.45-.19.75h1a0,0,0,0,1,0,0V9h.63a0,0,0,0,1,0,0v.1a0,0,0,0,1,0,0H59.11a0,0,0,0,1,0,0V9a0,0,0,0,1,0,0h.6c.12-.28.22-.59.33-.93h-.55a0,0,0,0,1,0,0V7.91a0,0,0,0,1,0,0l.55,0h0c.09-.32.15-.57.19-.75h-1s0,0,0,0V7a0,0,0,0,1,0,0h2.44a0,0,0,0,1,0,0v.1a0,0,0,0,1,0,0Zm.22,4.18s0,0,0,0v-.23H59.66v.24a0,0,0,0,1,0,0h-.12a0,0,0,0,1,0,0l0-.79v-.8a0,0,0,0,1,0,0h1.91a0,0,0,0,1,0,0l0,.42V11.3s0,0,0,0Zm-1.62-1.5v1.08h1.61V9.84Zm1.42-1.78H60.2c-.09.28-.19.59-.31.93h1.19Z" class="cls-1"/><path d="M52,4.17a4.59,4.59,0,0,0-.11.85,3.16,3.16,0,0,0,0,.55h-.08a4.8,4.8,0,0,1,0-.55,4.53,4.53,0,0,1,.1-.86Zm.2.92h.07a.77.77,0,0,0,0,.15c0,.13.1.2.31.2l.32,0v.08h-.33c-.25,0-.38-.09-.38-.26A.88.88,0,0,1,52.23,5.09Zm0-.65V4.36h.64v.08H52.7Z" class="cls-1"/><path d="M53.26,4.14h.08a5.62,5.62,0,0,0-.12.93,2.52,2.52,0,0,0,.06.52H53.2a3.17,3.17,0,0,1-.05-.53A5.44,5.44,0,0,1,53.26,4.14Zm.73.63h-.44V4.7H54c0-.18,0-.31,0-.4h-.43V4.24h.77v.06h-.27c0,.13,0,.26,0,.41h.29v.07h-.29c0,.15,0,.29,0,.43a.94.94,0,0,1,.33.23l0,.06a.94.94,0,0,0-.28-.22v0a.33.33,0,0,1-.08.24.29.29,0,0,1-.19.07.4.4,0,0,1-.24-.07.22.22,0,0,1,0-.33.33.33,0,0,1,.21-.06.58.58,0,0,1,.19,0C54,5,54,4.86,54,4.77Zm0,.47a.51.51,0,0,0-.2,0c-.15,0-.23,0-.23.16a.14.14,0,0,0,.06.12.25.25,0,0,0,.16,0c.14,0,.21-.08.21-.25Z" class="cls-1"/><path d="M55,4.15l.08,0c-.16.4-.29.69-.37.88h0a.42.42,0,0,1,.33-.23.15.15,0,0,1,.14.09.66.66,0,0,1,0,.28.71.71,0,0,0,0,.27.13.13,0,0,0,.11.06.21.21,0,0,0,.2-.13A1.14,1.14,0,0,0,55.71,5l.08,0a2.23,2.23,0,0,1,0,.23,1.16,1.16,0,0,1-.06.15.28.28,0,0,1-.26.16.2.2,0,0,1-.18-.09.6.6,0,0,1,0-.28,1,1,0,0,0,0-.28.08.08,0,0,0-.08,0c-.1,0-.21.08-.31.24a2.13,2.13,0,0,0-.2.44l-.08,0C54.74,4.93,54.92,4.46,55,4.15Z" class="cls-1"/><path d="M55.89,5l.07,0a.41.41,0,0,0-.07.23c0,.17.14.25.43.25a3.1,3.1,0,0,0,.42,0v.08a2.87,2.87,0,0,1-.42,0c-.34,0-.5-.11-.5-.32A.5.5,0,0,1,55.89,5Zm0-.76h.31a2,2,0,0,0,.34,0l0,.1a3.61,3.61,0,0,0-.4.26l0,0,.35-.23h-.6Zm.69-.19.06,0a2.87,2.87,0,0,1,.14.32l-.06,0A1.83,1.83,0,0,0,56.61,4.08ZM56.8,4l.06,0a1.81,1.81,0,0,1,.13.31l-.06,0A2.63,2.63,0,0,0,56.8,4Z" class="cls-1"/><path d="M88.18,48,85,47.14,84.21,47s0,0,0,0l0-.11s0,0,0,0L85,47l.91.25a2.13,2.13,0,0,0-.15-.49s0,0,0,0l.07,0h.07s0,0,0,0a2.2,2.2,0,0,1,.18.58l1,.28.25-.27a.86.86,0,0,0,.11-.19l.16.1a.09.09,0,0,1,0,.06s0,0-.06,0a.58.58,0,0,0-.12.1l-.21.19,1,.26.74.19s0,0,0,0l0,.11s0,0,0,0Zm-.56,1.52s0,0,0,0l.05-.19-2.89-.8-.07.23s0,0,0,0l-.11,0s0,0,0-.05l.19-.63.05-.21.08-.33s0,0,0,0l.79.23,1.61.44.79.2s0,0,0,0l-.09.28-.06.24-.16.62s0,0,0,0ZM85,47.7l-.18.66,2.89.79.18-.66Zm3.21-1.77L86,45.34l-.79-.21s0,0,0,0l0-.1s0,0,0,0l.79.23,1,.26.12-.45-1.36-.37-.76-.2s0,0,0,0l0-.11s0,0,0,0l.75.22,1.36.37v0a3.93,3.93,0,0,0,.13-.6l.2.09s0,0,0,.05a.3.3,0,0,1-.06.09,1.67,1.67,0,0,0-.14.42v0l1.48.4.75.2s0,0,0,0l0,.11s0,0,0,0l-.75-.22-1.48-.4-.13.45,1,.28L89,46s0,0,0,0l0,.1s0,0,0,0Zm-.48.27.77.2s0,0,0,0l-.1.3-.05.19-.07.31s0,0,0,0l-.76-.22-1.43-.39-.77-.2s0,0,0,0l.1-.31.05-.19.07-.31s0,0,0,0l.77.22Zm.42.87.15-.55-2.66-.73-.15.55Z" class="cls-1"/><path d="M90.27,46.1l0-.23a8.36,8.36,0,0,0,1.55.26l0,.24a2.72,2.72,0,0,0-1.24.84,3.05,3.05,0,0,0-.71,1.29,1.32,1.32,0,0,0,0,1,.93.93,0,0,0,.61.47c.93.25,1.6-.35,2-1.81a5.17,5.17,0,0,0,.19-1.67H93a9.54,9.54,0,0,0,.24,1.21,6,6,0,0,0,.39,1l-.24.12a6.54,6.54,0,0,1-.42-1.4l0-.3h0v.31a4.82,4.82,0,0,1-.15,1,2.92,2.92,0,0,1-1,1.66,1.41,1.41,0,0,1-1.23.17c-.84-.23-1.13-.83-.86-1.79a3.13,3.13,0,0,1,.7-1.29,3.23,3.23,0,0,1,1.08-.82A9.41,9.41,0,0,1,90.27,46.1ZM93.42,46l.2,0A7.49,7.49,0,0,1,93.79,47l-.21,0A5.92,5.92,0,0,0,93.42,46Zm.65-.06.19,0a5.94,5.94,0,0,1,.17,1l-.21,0A6.27,6.27,0,0,0,94.07,45.89Z" class="cls-1"/></svg>