<svg xmlns="http://www.w3.org/2000/svg" viewBox="0 0 100 100"><defs><style>.cls-1{fill:#efefef}</style></defs><title>wordpress</title><g id="Layer_5" data-name="Layer 5"><path id="wordpress-logo-simplified-cmyk" d="M88,28a42.69,42.69,0,0,1-16,57.4L85,47.7a40.31,40.31,0,0,0,3.25-15.3A31.72,31.72,0,0,0,88,28Zm-31.58.46c2.57-.13,4.88-.4,4.88-.4A1.77,1.77,0,0,0,61,24.55s-6.92.54-11.38.54c-4.2,0-11.25-.54-11.25-.54-2.3-.14-2.57,3.38-.27,3.52,0,0,2.18.27,4.48.4L49.23,46.7l-9.35,28L24.33,28.47c2.58-.13,4.89-.4,4.89-.4A1.77,1.77,0,0,0,29,24.55s-6.92.54-11.38.54c-.8,0-1.75,0-2.75-.05a42.7,42.7,0,0,1,64.52-8l-.55,0a7.4,7.4,0,0,0-7.18,7.58c0,3.52,2,6.5,4.2,10a22.49,22.49,0,0,1,3.52,11.77c0,3.66-1.41,7.9-3.25,13.81L71.82,74.38ZM50.5,91.21a43,43,0,0,1-12.07-1.74L51.25,52.23l13.13,36a4.09,4.09,0,0,0,.3.59A42.69,42.69,0,0,1,50.5,91.21ZM7.79,48.5a42.54,42.54,0,0,1,3.7-17.38L31.86,86.93A42.72,42.72,0,0,1,7.79,48.5ZM50.5,1A47.5,47.5,0,1,0,98,48.5,47.56,47.56,0,0,0,50.5,1Z" class="cls-1"/></g></svg>