<svg xmlns="http://www.w3.org/2000/svg" viewBox="0 0 809.45 482.27"><title>404</title><g id="Layer_2" data-name="Layer 2"><g id="Layer_2-2" data-name="Layer 2"><path d="M31.72,36.42v4.36H7.18V.63h24.2V5H11.76V17.44H27.31v4.18H11.76v14.8Z"/><path d="M61.09,40.78,52.83,25.87a5.06,5.06,0,0,1-1,.06H44.4V40.84H39.81V.75h11a18.85,18.85,0,0,1,5.9.86A12.79,12.79,0,0,1,61.2,4.13a10.26,10.26,0,0,1,2.87,4,13.68,13.68,0,0,1,1,5.22A12.14,12.14,0,0,1,63,20.48a11.39,11.39,0,0,1-5.73,4.24l9.06,16.06Zm-9.92-19.1h-.06c3,0,5.28-.8,6.82-2.35a8.18,8.18,0,0,0,2.36-6,7.89,7.89,0,0,0-2.41-6.08A9.51,9.51,0,0,0,51.17,5H44.46V21.68Z"/><path d="M94.87,40.78,86.61,25.87a5,5,0,0,1-1,.06H78.18V40.84H73.59V.75h11a18.81,18.81,0,0,1,5.9.86A12.92,12.92,0,0,1,95,4.13a10.34,10.34,0,0,1,2.86,4,13.68,13.68,0,0,1,1,5.22,12.14,12.14,0,0,1-2.07,7.17A11.39,11.39,0,0,1,91,24.72l9.06,16.06ZM85,21.68h-.06c3,0,5.28-.8,6.83-2.35a8.21,8.21,0,0,0,2.35-6,7.89,7.89,0,0,0-2.41-6.08A9.49,9.49,0,0,0,85,5H78.24V21.68Z"/><path d="M104.85,20.88a25.54,25.54,0,0,1,1.38-8.61A20,20,0,0,1,110,5.68a16.26,16.26,0,0,1,5.79-4.19A18.39,18.39,0,0,1,123.15,0a18.88,18.88,0,0,1,7.4,1.49,16.58,16.58,0,0,1,5.9,4.19,19,19,0,0,1,3.9,6.59,25.54,25.54,0,0,1,1.38,8.61,25.48,25.48,0,0,1-1.38,8.6,19.19,19.19,0,0,1-3.9,6.6,17,17,0,0,1-5.85,4.19,19.94,19.94,0,0,1-14.68-.06A17,17,0,0,1,110.07,36a19.09,19.09,0,0,1-3.84-6.59,25.49,25.49,0,0,1-1.38-8.61Zm4.7-.12a21.47,21.47,0,0,0,1,6.89,16.31,16.31,0,0,0,2.87,5.16,12.11,12.11,0,0,0,4.3,3.27,13.42,13.42,0,0,0,5.51,1.09A13.28,13.28,0,0,0,128.77,36a12,12,0,0,0,4.3-3.27,16.09,16.09,0,0,0,2.87-5.16,21,21,0,0,0,1-6.83,21.77,21.77,0,0,0-1-6.94,15,15,0,0,0-2.81-5.16,12.1,12.1,0,0,0-4.36-3.21A13.74,13.74,0,0,0,123.2,4.3a13.37,13.37,0,0,0-5.5,1.09,11.93,11.93,0,0,0-4.3,3.27,15.92,15.92,0,0,0-2.82,5.16,21.47,21.47,0,0,0-1,6.89Z"/><path d="M170.35,40.78l-8.26-14.91a5.06,5.06,0,0,1-1,.06h-7.45V40.84h-4.59V.75h11a18.92,18.92,0,0,1,5.91.86,12.79,12.79,0,0,1,4.53,2.52,10.26,10.26,0,0,1,2.87,4,13.68,13.68,0,0,1,1,5.22,12.14,12.14,0,0,1-2.07,7.17,11.43,11.43,0,0,1-5.73,4.24l9.06,16.06Zm-9.92-19.1h-.06c3,0,5.28-.8,6.82-2.35a8.18,8.18,0,0,0,2.36-6,7.89,7.89,0,0,0-2.41-6.08A9.51,9.51,0,0,0,160.43,5h-6.72V21.68Z"/><rect x="5.37" y="58.8" width="60.28" height="9.56"/><path d="M89.18,185H74.51v29.5H61.84V185H5v-9.66l59-77.5h10.5v75.33H89.18ZM62.51,173.16l-.67-31V133c0-3,.17-5.67.34-8s.16-4.17.33-5.67l.17-2.17h-.17l-1,1.34c-.67,1-1.5,2.16-2.5,3.66s-2.17,3.17-3.5,5-2.67,3.67-4.17,5.5l-21.83,28.5c-3.33,4.5-5.83,7.33-7.16,9a17.12,17.12,0,0,0-2,2.67l.16.33h42Z"/><path d="M150,95.83a41.13,41.13,0,0,1,20,4.67,44.2,44.2,0,0,1,14.84,13A62.75,62.75,0,0,1,194,132.83a82.74,82.74,0,0,1,3.17,23.66A84.05,84.05,0,0,1,194,180.33a61.78,61.78,0,0,1-9.16,19.16,44.31,44.31,0,0,1-14.84,13,43.06,43.06,0,0,1-20,4.5,43.1,43.1,0,0,1-20-4.5,44.31,44.31,0,0,1-14.84-13A63.2,63.2,0,0,1,106,180.16a83.93,83.93,0,0,1-3.17-23.83A83.93,83.93,0,0,1,106,132.5a63.15,63.15,0,0,1,9.16-19.34,44.31,44.31,0,0,1,14.84-13,41.27,41.27,0,0,1,20-4.66Zm0,12.67a28.42,28.42,0,0,0-14.84,3.66,32.31,32.31,0,0,0-10.5,10.17,46.12,46.12,0,0,0-6.33,15.17,91.2,91.2,0,0,0,0,38,46.12,46.12,0,0,0,6.33,15.17,32.28,32.28,0,0,0,10.5,10.16A28.43,28.43,0,0,0,150,204.49a28.41,28.41,0,0,0,14.83-3.67,32.28,32.28,0,0,0,10.5-10.16,46.12,46.12,0,0,0,6.33-15.17,91.2,91.2,0,0,0,0-38,46.12,46.12,0,0,0-6.33-15.17,32.31,32.31,0,0,0-10.5-10.17,27.8,27.8,0,0,0-14.67-3.66Z"/><path d="M295,185H280.33v29.5H267.67V185H210.84v-9.66l59-77.5h10.5v75.33H295Zm-26.67-11.83-.66-31V133c0-3,.16-5.67.33-8s.17-4.17.33-5.67l.17-2.17h-.17l-1,1.34c-.66,1-1.5,2.16-2.5,3.66s-2.16,3.17-3.5,5-2.66,3.67-4.16,5.5l-21.83,28.5c-3.34,4.5-5.84,7.33-7.17,9a18,18,0,0,0-2,2.67l.17.33h42Z"/><path d="M26.7,288.75l-.39.13a10.13,10.13,0,0,0-3.57-6.24,10.66,10.66,0,0,0-6.83-2.21,10.53,10.53,0,0,0-6.57,1.95,6.3,6.3,0,0,0-2.53,5.27,5.23,5.23,0,0,0,1,3.12,8.33,8.33,0,0,0,2.6,2.34,34.7,34.7,0,0,0,3.71,1.82c1.37.58,2.73,1.1,4.1,1.62s3,1.24,4.68,2a22.59,22.59,0,0,1,4.35,2.73A13.56,13.56,0,0,1,30.47,305a10.06,10.06,0,0,1,1.31,5.2,12,12,0,0,1-1.11,5.13,12.52,12.52,0,0,1-3.06,4.1,12.85,12.85,0,0,1-4.81,2.67,19,19,0,0,1-6.24,1,18.43,18.43,0,0,1-6.18-1,13.63,13.63,0,0,1-4.74-2.67,14.27,14.27,0,0,1-3.32-4.1,16.88,16.88,0,0,1-1.75-5.2l5-1.36a12.47,12.47,0,0,0,1.17,3.77A10.73,10.73,0,0,0,9,315.6a10.42,10.42,0,0,0,3.31,2,12,12,0,0,0,4.43.78,13.52,13.52,0,0,0,4.09-.58A9.13,9.13,0,0,0,24,316.13a7.37,7.37,0,0,0,2-2.54,7.62,7.62,0,0,0,.72-3.25,6.26,6.26,0,0,0-1.17-3.84,11.11,11.11,0,0,0-3-2.73,23.68,23.68,0,0,0-4.1-2c-1.49-.59-3-1.24-4.48-1.89-1.31-.58-2.67-1.17-4.1-1.82a16.86,16.86,0,0,1-3.9-2.41A13.15,13.15,0,0,1,3,292.26a8.93,8.93,0,0,1-1.17-4.68,10.28,10.28,0,0,1,1.11-4.68A11.16,11.16,0,0,1,6,279.19a16.52,16.52,0,0,1,4.62-2.53,16.74,16.74,0,0,1,5.85-1,16.45,16.45,0,0,1,5.46.85,14.76,14.76,0,0,1,4.49,2.4,15.07,15.07,0,0,1,3.31,3.71,14.84,14.84,0,0,1,2,4.75Z"/><path d="M37.23,299.54a29,29,0,0,1,1.56-9.75,22.78,22.78,0,0,1,4.29-7.47,18.33,18.33,0,0,1,6.57-4.75A20.62,20.62,0,0,1,58,275.88a21.17,21.17,0,0,1,8.39,1.69,18.81,18.81,0,0,1,6.7,4.75,22,22,0,0,1,4.42,7.47,31.28,31.28,0,0,1,0,19.51,22.17,22.17,0,0,1-4.42,7.48,19.15,19.15,0,0,1-6.63,4.74,22.59,22.59,0,0,1-16.65-.06,19.28,19.28,0,0,1-6.63-4.82,21.75,21.75,0,0,1-4.36-7.47,29,29,0,0,1-1.56-9.75Zm5.33-.12a24,24,0,0,0,1.17,7.8A18.22,18.22,0,0,0,47,313.07a13.64,13.64,0,0,0,4.87,3.71,16,16,0,0,0,12.49-.07A13.53,13.53,0,0,0,69.22,313a18,18,0,0,0,3.25-5.85,23.82,23.82,0,0,0,1.17-7.73,24.7,24.7,0,0,0-1.17-7.87,16.88,16.88,0,0,0-3.18-5.85,13.76,13.76,0,0,0-4.94-3.64A15.63,15.63,0,0,0,58,280.75,15.12,15.12,0,0,0,51.8,282a13.56,13.56,0,0,0-4.88,3.71,18.07,18.07,0,0,0-3.19,5.85,24,24,0,0,0-1.17,7.8Z"/><path d="M125.72,276.59l-.39,45.65h-5.07V302.41c0-2.15,0-4.23.06-6.25s.13-3.83.2-5.39.06-2.8.13-3.77l.06-1.43h-.13l-.32.65c-.26.45-.53,1-.85,1.75s-.72,1.5-1.11,2.34-.78,1.63-1.17,2.41l-9.49,18.14h-2.73l-9.49-18.14c-.39-.78-.78-1.63-1.17-2.47s-.78-1.63-1.11-2.34-.58-1.3-.84-1.76L92,285.5h-.06l.06,1.43c.07,1,.07,2.21.13,3.77s.13,3.32.2,5.33.06,4.1.06,6.25v19.83H87.29V276.66h4.88l10.34,19.63c.78,1.5,1.49,2.74,2,3.71a26.31,26.31,0,0,1,1.17,2.41c.26.65.46,1.1.59,1.36l.19.39h.07l.19-.39c.13-.26.33-.71.59-1.36a25.12,25.12,0,0,1,1.17-2.47c.52-1,1.23-2.22,2-3.71l10.34-19.64Z"/><path d="M164.85,317.17v4.94H137V276.59h27.44v5H142.23v14.1h17.61v4.75H142.23v16.78Z"/><path d="M202.75,276.59v5H188.84v40.57h-5.2V281.54H169.79v-5Z"/><path d="M242.34,276.59v45.52h-5.26V301H215v21.07h-5.2V276.59H215V296h22.11V276.59Z"/><path d="M253.59,322.11V276.59h5.2v45.52Z"/><path d="M303.84,276.59l.07,45.52h-4.75l-18.27-27.64c-.78-1.23-1.62-2.27-2.34-3.38s-1.3-2.08-1.82-2.92l-1.23-2-.46-.78H275l.06,1c.07.65,0,1.56,0,2.73s.07,2.53.13,4.09.07,3.25.07,5v23.93H270.1V276.59h4.75l18.33,27.7c.72,1.11,1.43,2.15,2.08,3.19s1.24,1.95,1.76,2.79.91,1.5,1.3,2l.52.71H299v-1c0-.71,0-1.62-.07-2.79s-.13-2.54-.19-4-.07-3.06-.07-4.68V276.59Z"/><path d="M347.53,315.8l-.13.06a17.11,17.11,0,0,1-1.95,2.22,15.68,15.68,0,0,1-3.12,2.34,18.71,18.71,0,0,1-4.16,1.75,16.49,16.49,0,0,1-5.2.78,21.53,21.53,0,0,1-8.26-1.62,19,19,0,0,1-6.57-4.69,21.7,21.7,0,0,1-4.29-7.41,31.25,31.25,0,0,1,0-19.5,22.73,22.73,0,0,1,4.29-7.48,18.36,18.36,0,0,1,6.57-4.75,20.79,20.79,0,0,1,8.32-1.69,19.62,19.62,0,0,1,18.4,11.9l-5.2,1.37a14.27,14.27,0,0,0-5.46-6.11,14.67,14.67,0,0,0-7.8-2.15,15.14,15.14,0,0,0-6.24,1.3,13.48,13.48,0,0,0-4.88,3.71,17.88,17.88,0,0,0-3.19,5.85,26.39,26.39,0,0,0,0,15.54A16.3,16.3,0,0,0,322,313a14.79,14.79,0,0,0,5.07,3.64,15.84,15.84,0,0,0,6.37,1.24,16.63,16.63,0,0,0,5.27-.78,16.87,16.87,0,0,0,4.16-2.08,12.8,12.8,0,0,0,3-2.86,13.5,13.5,0,0,0,1.76-3.06v-6.3H335.24v-4.36h16.91v23.73H347.6V315.8Z"/><path d="M428.08,276.59l-13.85,45.52h-4.81L402.33,298c-.91-3.06-1.49-5.34-1.75-6.77a10.57,10.57,0,0,0-.46-2.14h-.06a10.57,10.57,0,0,0-.46,2.14c-.26,1.43-.84,3.64-1.75,6.7l-7.09,24.19H386l-13.59-45.52h5.46l9,30.76c.59,2,1,3.7,1.24,5a10.42,10.42,0,0,0,.45,1.95h.07a7.36,7.36,0,0,0,.52-1.95c.26-1.3.72-3,1.3-5l7.48-24.9h4.61l7.55,24.9c.58,2,1,3.7,1.3,5a6.9,6.9,0,0,0,.52,1.95h.06a9,9,0,0,0,.46-1.95c.26-1.3.65-3,1.23-5l9-30.76Z"/><path d="M463.31,317.17v4.94H435.49V276.59h27.43v5H440.69v14.1h17.62v4.75H440.69v16.78Z"/><path d="M506.35,276.59l.07,45.52h-4.75L483.4,294.47c-.78-1.23-1.63-2.27-2.34-3.38s-1.3-2.08-1.82-2.92-.91-1.5-1.24-2l-.45-.78h-.07l.07,1c.06.65,0,1.56,0,2.73s.06,2.53.13,4.09.06,3.25.06,5v23.93h-5.13V276.59h4.74l18.34,27.7c.71,1.11,1.43,2.15,2.08,3.19s1.23,1.95,1.75,2.79.91,1.5,1.3,2l.52.71h.14v-1c0-.71,0-1.62-.07-2.79s-.13-2.54-.2-4-.06-3.06-.06-4.68V276.59Z"/><path d="M546.33,276.59v5H532.42v40.57h-5.2V281.54H513.37v-5Z"/><path d="M620.12,276.59l-13.85,45.52h-4.81L594.37,298c-.91-3.06-1.49-5.34-1.75-6.77a10.57,10.57,0,0,0-.46-2.14h-.06a10.57,10.57,0,0,0-.46,2.14c-.26,1.43-.84,3.64-1.75,6.7l-7.09,24.19H578L564.4,276.59h5.46l9,30.76c.59,2,1,3.7,1.24,5a10.42,10.42,0,0,0,.45,1.95h.07a6.9,6.9,0,0,0,.52-1.95c.26-1.3.72-3,1.3-5l7.48-24.9h4.61l7.55,24.9c.58,2,1,3.7,1.3,5a6.9,6.9,0,0,0,.52,1.95h.06a9,9,0,0,0,.46-1.95c.26-1.3.65-3,1.23-5l9-30.76Z"/><path d="M651.58,322.11l-9.36-16.91a5.51,5.51,0,0,1-1.11.07h-8.45v16.9h-5.2V276.72h12.42a21.68,21.68,0,0,1,6.7,1,14.71,14.71,0,0,1,5.13,2.86,11.7,11.7,0,0,1,3.25,4.49,15.33,15.33,0,0,1,1.11,5.91,13.78,13.78,0,0,1-2.34,8.13,12.93,12.93,0,0,1-6.5,4.81l10.27,18.21Zm-11.25-21.65h-.06c3.38,0,6-.92,7.74-2.67a9.28,9.28,0,0,0,2.66-6.83,8.92,8.92,0,0,0-2.73-6.89c-1.82-1.69-4.35-2.53-7.61-2.53h-7.6v18.92Z"/><path d="M662.89,299.54a29,29,0,0,1,1.56-9.75,22.78,22.78,0,0,1,4.29-7.47,18.25,18.25,0,0,1,6.57-4.75,20.62,20.62,0,0,1,8.32-1.69,21.17,21.17,0,0,1,8.39,1.69,18.81,18.81,0,0,1,6.7,4.75,22,22,0,0,1,4.42,7.47,31.28,31.28,0,0,1,0,19.51,22.17,22.17,0,0,1-4.42,7.48,19.1,19.1,0,0,1-6.64,4.74,22.56,22.56,0,0,1-16.64-.06,19.19,19.19,0,0,1-6.63-4.82,21.75,21.75,0,0,1-4.36-7.47,29,29,0,0,1-1.56-9.75Zm5.33-.12a24,24,0,0,0,1.17,7.8,18.39,18.39,0,0,0,3.25,5.85,13.76,13.76,0,0,0,4.88,3.71,15.18,15.18,0,0,0,6.24,1.23,15,15,0,0,0,6.24-1.3,13.48,13.48,0,0,0,4.88-3.71,18,18,0,0,0,3.25-5.85,23.82,23.82,0,0,0,1.17-7.73,24.7,24.7,0,0,0-1.17-7.87,16.74,16.74,0,0,0-3.19-5.85,13.68,13.68,0,0,0-4.94-3.64,15.55,15.55,0,0,0-6.3-1.31,15.12,15.12,0,0,0-6.24,1.24,13.48,13.48,0,0,0-4.88,3.71,17.88,17.88,0,0,0-3.19,5.85,24,24,0,0,0-1.17,7.8Z"/><path d="M746.89,276.59l.06,45.52h-4.74l-18.27-27.64c-.78-1.23-1.63-2.27-2.34-3.38s-1.3-2.08-1.82-2.92-.91-1.5-1.24-2l-.45-.78H718l.07,1c.06.65,0,1.56,0,2.73s.06,2.53.13,4.09.06,3.25.06,5v23.93h-5.13V276.59h4.74l18.34,27.7c.71,1.11,1.43,2.15,2.08,3.19s1.23,1.95,1.75,2.79.91,1.5,1.3,2l.52.71H742v-1c0-.71,0-1.62-.06-2.79s-.13-2.54-.2-4-.06-3.06-.06-4.68V276.59Z"/><path d="M790.57,315.8l-.13.06a17.11,17.11,0,0,1-2,2.22,15.12,15.12,0,0,1-3.12,2.34,18.52,18.52,0,0,1-4.16,1.75,16.45,16.45,0,0,1-5.2.78,21.53,21.53,0,0,1-8.26-1.62,19,19,0,0,1-6.56-4.69,21.7,21.7,0,0,1-4.29-7.41,31.25,31.25,0,0,1,0-19.5,22.73,22.73,0,0,1,4.29-7.48,18.42,18.42,0,0,1,6.56-4.75,20.84,20.84,0,0,1,8.33-1.69,19.62,19.62,0,0,1,18.4,11.9l-5.21,1.37a14.27,14.27,0,0,0-5.46-6.11,14.67,14.67,0,0,0-7.8-2.15,15.14,15.14,0,0,0-6.24,1.3,13.56,13.56,0,0,0-4.88,3.71,18.05,18.05,0,0,0-3.18,5.85,26.39,26.39,0,0,0,0,15.54A16.28,16.28,0,0,0,765,313a14.79,14.79,0,0,0,5.07,3.64,15.85,15.85,0,0,0,6.38,1.24,15.82,15.82,0,0,0,9.42-2.86,12.6,12.6,0,0,0,3-2.86,13.5,13.5,0,0,0,1.76-3.06v-6.3H778.29v-4.36h16.9v23.73h-4.55V315.8Z"/><path d="M12.41,350.8,15.15,352q-2.47,4.2-5,7.75v22.56H7.4V363.62A76.92,76.92,0,0,1,2,369.89a23.31,23.31,0,0,0-2-2.26A69.07,69.07,0,0,0,12.41,350.8Zm-6.3,35,2.77.95A127.57,127.57,0,0,1,3.47,398.6l-2.8-1.21A71.63,71.63,0,0,0,6.11,385.76Zm7.18.73H16.2v8.16c0,2.49,1.45,3.75,4.25,3.79H31.08q5.22.27,5.9-4a52.22,52.22,0,0,0,.94-5.16c1,.43,2,.8,2.93,1.1-.32,1.76-.67,3.44-1.05,5.06q-1.23,6-8.1,5.79H19.57q-6.28,0-6.28-6.11Zm11.07-19.24,2.36,1.64a126.63,126.63,0,0,1-10,10.42,18.64,18.64,0,0,0-2.15-2A69.66,69.66,0,0,0,24.36,367.25Zm-6.95.48A16.94,16.94,0,0,0,15,366a62.4,62.4,0,0,0,10-15l2.85.76c-.63,1.33-1.54,3-2.74,5h25v2.69l-3.53,7.27a24.87,24.87,0,0,0-2.77-1.11l3.31-6.27H23.6A72.11,72.11,0,0,1,17.41,367.73ZM22.1,385.6,24,383.72q3.52,2.92,7.4,6.62l-2.2,2.1A82.32,82.32,0,0,0,22.1,385.6Zm10.54-22.5H35.5v12.95c.14,3.68-1.86,5.53-6,5.57l-1.91.05H25a20.47,20.47,0,0,0-.67-3c1.7.11,3.26.17,4.68.17,2.47.05,3.68-1,3.6-3.1Zm7.06,6.84,1.91-1.88q4.35,3.7,10.14,9.2l-2.15,2.1Q44.22,373.87,39.7,369.94ZM42,386.2l2.26-1.65q4.08,4.74,8.26,10.1L50,396.5Q46.07,391.1,42,386.2Z"/><path d="M103.18,402.45,98.88,401q-10.09-3.3-15.32-4.89-8.88,4.75-25.86,6.78A18.2,18.2,0,0,0,56.54,400q15-1.58,23-5.11-7.26-2.34-14.48-4.57c2-2.26,3.63-4.19,4.9-5.79H55.22V382H72q1.62-2.13,3.63-5.25l2.88,1.16q-1.29,1.83-3,4.09h32v2.53H95.62a30.57,30.57,0,0,1-9,9.8l1.1.32q10.8,3.25,16.9,5.19ZM57.05,353.79H105.6v2.53H89.35v6.41h13.56v12.94H59.8V362.73H73.2v-6.41H57.05Zm5.58,11.41v8H73.2v-8Zm20.31,27.94a27.12,27.12,0,0,0,9.26-8.64H73.52c-1,1.26-2.23,2.83-3.84,4.74l4.11,1.21ZM76,356.32v6.41H86.55v-6.41Zm0,8.88v8H86.55v-8Zm24.09,0H89.35v8h10.74Z"/><path d="M121.27,391.6q3.42-2.44,7.83-5.94c.12,1.43.25,2.59.38,3.47q-3.88,2.72-8.48,6.43a21.07,21.07,0,0,0-2.34,2.15l-2.08-2.42a6.69,6.69,0,0,0,1.35-2.29,10.28,10.28,0,0,0,.35-3V372.2h-7.59v-2.74h10.58Zm.11-29.14q-3.18-3.69-7.51-8.24l2.2-1.91q4.09,4.06,7.73,8Zm21.15-10.26,2.77-1.1c.63,1.45,1.67,4,3.12,7.54l.3.72-2.93,1.16h16.76v2.64H139.46l-.35,9.55h19.57q-.27,11.09-.81,19.33c-.23,3.51-1,5.91-2.21,7.18s-3.35,2.08-6.51,2.21l-3,.08c-.46,0-.95,0-1.45,0h-1.83a23.9,23.9,0,0,0-.84-3.21q2.53.1,6.89.11c.22,0,.44,0,.68,0q5.05,0,5.27-6.65.57-7.05.73-16.47H139q.19,16.9-11.73,27.61c-.79-.73-1.65-1.47-2.58-2.21q7-6.79,8.93-11.94,2.2-4.94,2.53-15.77l.32-9.88h-7.42v-2.64h16.63A81,81,0,0,0,142.53,352.2Z"/><path d="M168.71,361.52h2.94v41.23h-2.94Zm2.48-8.45,2.21-1.81q4.47,4.29,7.67,7.67l-2.37,2Q175.85,357.75,171.19,353.07Zm9.61,14.29h21.53v20.5H180.8Zm2.8,2.69v15.1h15.93v-15.1Zm1-12.73v-2.75h30V394.3q.42,7.36-7.32,7.4-3.45.14-8.4.16a15.11,15.11,0,0,0-.65-3.15q4.23.17,8.43.16c1.88,0,3.18-.36,3.9-1.13s1.15-2,1.13-3.87V357.32Z"/><path d="M222.84,360h5.62q1.59-5,2.53-8.8l3,.64c-.22.65-.59,1.78-1.11,3.4q-1.05,3.3-1.53,4.76h10.95V401.8h-2.85v-4.41H225.72v4.79h-2.88Zm2.88,2.66v14.59h13.72V362.67Zm0,17.2v14.94h13.72V379.87Zm21.36-8.1a18.58,18.58,0,0,0-2.53-1.61,79.84,79.84,0,0,0,8.27-19l2.93.75c-1,2.86-2,5.5-3,7.94h17.82q-.33,18.84-1,32.81,0,9-9.2,9l-3.66.08-2.13,0h-2.82a29.87,29.87,0,0,0-.7-3c2.81.11,5.75.16,8.8.16q6.81.36,6.83-6.54.49-8.69.89-29.71h-16A68.23,68.23,0,0,1,247.08,371.77Zm2.32,2.42,2.2-1.56q3.75,4.61,8.72,11.3l-2.42,1.83Q253.46,379.39,249.4,374.19Z"/><path d="M323.87,402.13q-7.25-4.68-19.68-12.36l-2.47-1.53q-3.08,8.94-24,14.83a21.2,21.2,0,0,0-1.78-2.8q21.39-5.38,23.55-14.77a20.8,20.8,0,0,0,1.08-5.14q.29-2.83.29-8.59h3q.08,9.56-1.27,13.78,15,9,23.15,14.1Zm-40.62-37.2h14.54l2.34-7.83H278.06v-2.74h48.47v2.74H303.25l-2.31,7.83h20.23V389.4h-3V367.68h-32v21.93h-3Z"/><path d="M331.54,354.22h50.64V357h-24.7l-3.07,8.31h24.73v37.6h-2.85V399.6h-39v3.31h-2.88v-37.6h17l2.88-8.31H331.54ZM337.27,368v29h10V368Zm12.78,0v8h13.4v-8Zm0,10.55v8h13.4v-8Zm0,10.57V397h13.4v-7.89ZM376.29,368h-10v29h10Z"/><path d="M387.59,355.62h49.6v2.91H417.36a95.37,95.37,0,0,1-29.28,29.66,25.58,25.58,0,0,0-2.15-2.43q18.75-12.28,27.72-27.23H387.59ZM410.23,369h3.09v34h-3.09Zm25.48,17.71q-9.66-6.76-18.19-12.09l1.86-2.26q8.24,5.11,18.3,11.87Z"/><path d="M460.07,350.64l3.2.84c-.72,1.88-1.45,3.69-2.2,5.41h32v2.8H459.85A95.8,95.8,0,0,1,452.51,373v29.87h-3V377.26q-2.94,3.9-6.68,8.18a26.62,26.62,0,0,0-2.1-2.5,84.15,84.15,0,0,0,15.83-23.25H442.66v-2.8h15.15C458.65,354.82,459.41,352.74,460.07,350.64Zm14.53,27.08,11.25-8.21H460.12v-2.72h29.42v3.15l-12,8.94v2.63h15.72v2.77H477.59v12q.33,6.06-6.11,6.06l-3,.08c-.47,0-1,0-1.51,0h-2.15a30.5,30.5,0,0,0-.73-3.13q3.72.17,6.73.17c2.67.1,3.94-1,3.79-3.21v-12H456v-2.77H474.6Z"/><path d="M517,350.94l3,.59q-1.41,3.8-2.88,7.11h31v2.77H515.89A74,74,0,0,1,508.3,374v28.66h-3V377.61a86.78,86.78,0,0,1-7.05,7.05,15.66,15.66,0,0,0-2.05-2.37q11.09-9.74,16.39-20.88h-14v-2.77h15.34C514.73,356.84,515.75,354.28,517,350.94Zm10.82,14.69h3V376.4h14.29v2.69H530.77v16.82h17.38v2.69H510.83v-2.69h17V379.09H513.63V376.4h14.18Z"/><path d="M563.6,396.75a2.37,2.37,0,0,1-1.64-4,2.29,2.29,0,0,1,1.64-.64,2.41,2.41,0,0,1,1.7.64,2.21,2.21,0,0,1,.7,1.67,2.24,2.24,0,0,1-.7,1.67A2.36,2.36,0,0,1,563.6,396.75Zm1.21-12.22h-2.5l-.3-30h3.07Z"/><path d="M8.13,460.72c.57.28,1.38.73,2.42,1.34.2.09.3.21.3.35a.6.6,0,0,1-.14.35,8.5,8.5,0,0,0-1.48,4.31q0,6.72,14.1,6.73a69,69,0,0,0,15.83-1.59,1.19,1.19,0,0,1,.32,0c.22,0,.36.14.43.43a20.28,20.28,0,0,1,.51,2.85v.13q0,.44-.72.6A84.58,84.58,0,0,1,23,477.59q-17.15,0-17.14-10.36A11.67,11.67,0,0,1,8.13,460.72Zm1.53-20.54a65.45,65.45,0,0,0,13.78,1.24q6.47,0,12.19-.48h.19a.54.54,0,0,1,.59.51,16.52,16.52,0,0,1,.16,2.47.76.76,0,0,1-.78.84q-6.27.89-14.26,6.27a1.39,1.39,0,0,1-.86.32,1.25,1.25,0,0,1-.7-.21A6.35,6.35,0,0,0,17.71,450a72.51,72.51,0,0,1,9.5-5.51c-1.63.14-3.63.21-6,.21a54.54,54.54,0,0,1-11.19-1c-.32-.06-.49-.31-.49-.76C9.55,442.35,9.59,441.42,9.66,440.18Zm26-4.36,2-1.45a.58.58,0,0,1,.3-.11.51.51,0,0,1,.3.14A23.76,23.76,0,0,1,44.43,441a.45.45,0,0,1,.11.27.43.43,0,0,1-.19.35L42.74,443a.53.53,0,0,1-.33.14.47.47,0,0,1-.4-.24A22.64,22.64,0,0,0,35.63,435.82Zm4.85-3.71,1.77-1.37a.63.63,0,0,1,.35-.14.42.42,0,0,1,.24.11,29.08,29.08,0,0,1,6.3,6.43.47.47,0,0,1,.08.27.51.51,0,0,1-.24.38l-1.51,1.34a.4.4,0,0,1-.29.14c-.13,0-.24-.09-.35-.27A24.73,24.73,0,0,0,40.48,432.11Z"/><path d="M73,453.67c-.07.8-.11,1.56-.11,2.26a2.1,2.1,0,0,1-.16,1.05,2.74,2.74,0,0,1-.89.56q-3.06,1.43-5.73,2.59v6.94l0,8.37c0,2.17-.47,3.6-1.42,4.31a4.51,4.51,0,0,1-2.1.83,28.71,28.71,0,0,1-3.69.16,2,2,0,0,1-1.13-.19,1.8,1.8,0,0,1-.43-.91,6.44,6.44,0,0,0-1.1-2.37c1.38.11,2.9.16,4.57.16a2,2,0,0,0,1.67-.59A3.45,3.45,0,0,0,63,475V461.44c-1.83.69-3.15,1.16-4,1.43a5.71,5.71,0,0,0-2,1.05,1,1,0,0,1-.73.32.62.62,0,0,1-.59-.48,32.26,32.26,0,0,1-1.05-3.15,32.48,32.48,0,0,0,4.84-1.32c1-.3,2.16-.73,3.53-1.26V446.08H61l-5.49.11a.41.41,0,0,1-.46-.46v-2.37c0-.29.15-.43.46-.43L61,443H63v-4.42a47,47,0,0,0-.32-6.73,31.53,31.53,0,0,1,3.47.35c.44.06.67.22.67.49a3.45,3.45,0,0,1-.35,1,22.46,22.46,0,0,0-.27,4.79V443H67l5.5-.11c.3,0,.45.14.45.43v2.37a.4.4,0,0,1-.45.46l-5.5-.11h-.83v10.74Q70.8,454.83,73,453.67Zm29.55-8.27a11.35,11.35,0,0,1-.94,3.72,5,5,0,0,1-1.59,1.75q-2,1.32-11.25,1.32-7.94,0-9.74-.6a4,4,0,0,1-3.1-4.14v-9.63a42.72,42.72,0,0,0-.27-5.63c.33,0,1.46.13,3.4.32q.78.09.78.51a3.64,3.64,0,0,1-.33,1,13.2,13.2,0,0,0-.27,3.63v2.53a94.3,94.3,0,0,0,14.21-3.85,9.12,9.12,0,0,0,3.37-1.88A18.19,18.19,0,0,1,99,436.6a1.23,1.23,0,0,1,.32.76c0,.34-.36.56-1.1.67q-.24.06-2.31.78A99.67,99.67,0,0,1,79.28,443v3.25a2.36,2.36,0,0,0,1.94,2.42,45,45,0,0,0,7.81.44c4.89,0,7.84-.34,8.82-1a3.07,3.07,0,0,0,1.3-2,21.57,21.57,0,0,0,.37-3.42,6.25,6.25,0,0,0,2.16,1.21c.64.25,1,.55,1,.91A3,3,0,0,1,102.59,445.4Zm-3,35.07c0,.25-.14.38-.43.38h-2.5c-.29,0-.43-.13-.43-.38v-3H79.82v3.21a.38.38,0,0,1-.43.43H76.94a.39.39,0,0,1-.43-.43l.11-10.77v-5.54l-.11-7.46a.39.39,0,0,1,.43-.43l6.62.11h9l6.57-.11a.38.38,0,0,1,.43.43l-.11,6.68v6.16Zm-3.36-15v-6H79.82v6Zm0,9.07v-6.27H79.82v6.27Z"/><path d="M157.38,475.9a10.06,10.06,0,0,0-.78,2.31,2.1,2.1,0,0,1-.37,1,1.68,1.68,0,0,1-.94.19c-2.36.07-4.09.11-5.2.11q-16,0-22-3a13,13,0,0,1-4.58-3.77,26.39,26.39,0,0,1-2.31-3.82,28.7,28.7,0,0,1-8.1,11.09,2.52,2.52,0,0,1-.78.54c-.13,0-.38-.23-.75-.68a5.5,5.5,0,0,0-1.89-1.48q9.26-6.83,10.63-19.19a17.3,17.3,0,0,0,.19-2.34q0-.34,0-.72c.95.12,2,.32,3.21.59.55.14.83.35.83.62a2.44,2.44,0,0,1-.38.86,2.94,2.94,0,0,0-.56,1.37,50.39,50.39,0,0,1-1.21,5.63,18.35,18.35,0,0,0,4,6.27,14.84,14.84,0,0,0,6.19,3.23V451.33h-5.94l-7.57.1c-.32,0-.48-.14-.48-.43v-2.34c0-.29.16-.43.48-.43l7.57.11h15.31l7.56-.11a.38.38,0,0,1,.43.43V451a.38.38,0,0,1-.43.43l-7.56-.1h-6.06v9.23H144l5.41-.11a.38.38,0,0,1,.43.43v2.34a.38.38,0,0,1-.43.43l-5.41-.11h-8.21v11.9a84.47,84.47,0,0,0,12.46.73Q152,476.17,157.38,475.9Zm-1-27.13a.41.41,0,0,1-.46.46H153.4c-.29,0-.43-.16-.43-.46v-7.59h-37.6v7.59a.4.4,0,0,1-.45.46h-2.53c-.29,0-.43-.16-.43-.46l.1-5.65v-1.73l-.1-2.93c0-.25.14-.38.43-.38l7.61.11h11.9v-.78a27.87,27.87,0,0,0-.38-5.62c1.6.07,2.79.17,3.58.29.45.06.67.2.67.43a3,3,0,0,1-.35,1,18.45,18.45,0,0,0-.21,3.9v.78h13.08l7.64-.11c.31,0,.46.13.46.38l-.11,2.56v2.1Z"/><path d="M191,442.71A71,71,0,0,1,188,457a43.56,43.56,0,0,1-4.31,9.85q-3.33,5.68-8.1,5.68-3.53,0-5.86-3.69a16.26,16.26,0,0,1-2.18-8.83,18.88,18.88,0,0,1,1.88-8.1,20.59,20.59,0,0,1,4.52-6.19q6.54-6.1,16.53-6.11,9.76,0,15.12,5.58a16.87,16.87,0,0,1,4.55,12.19,17.28,17.28,0,0,1-4.87,12.48q-4.5,4.69-12.65,6.73a1.69,1.69,0,0,1-.48.08,1.09,1.09,0,0,1-.95-.67,6.14,6.14,0,0,0-2.15-2q8.85-1.76,13.27-6.57a15.26,15.26,0,0,0,3.93-10.69,13.21,13.21,0,0,0-4.69-10.52,14.16,14.16,0,0,0-9.55-3.42Zm-3.85.22A17.94,17.94,0,0,0,176.38,448a16.3,16.3,0,0,0-5.3,11.92,12,12,0,0,0,1.67,6.84,3.47,3.47,0,0,0,2.8,1.77c1.88,0,3.59-1.34,5.11-4a49,49,0,0,0,4.26-10.37A58.44,58.44,0,0,0,187.12,442.93Z"/><path d="M219.55,460.39a34.92,34.92,0,0,0,5.84-4.95q1.7-1.69,7.83-7.94a5,5,0,0,1,3.26-1.77,5.35,5.35,0,0,1,3.36,1.48,199.34,199.34,0,0,0,25.3,18.08.75.75,0,0,1,.46.62,1,1,0,0,1-.13.43,16.63,16.63,0,0,1-1.7,2.77.71.71,0,0,1-.54.35.9.9,0,0,1-.46-.18q-13.72-9.42-25-18.74a2.1,2.1,0,0,0-1.1-.61,1.53,1.53,0,0,0-1,.48q-3.26,3.29-9.26,9.72a21.86,21.86,0,0,0-2.37,3,.77.77,0,0,1-.67.46,1.05,1.05,0,0,1-.6-.24A28.61,28.61,0,0,1,219.55,460.39Zm36.5-21.79a5.55,5.55,0,0,1,5.57,5.57,5.28,5.28,0,0,1-1.83,4.11,5.56,5.56,0,0,1-9.31-4.11,5.31,5.31,0,0,1,1.83-4.15A5.39,5.39,0,0,1,256.05,438.6Zm0,2.1a3.31,3.31,0,0,0-2.59,1.13,3.4,3.4,0,0,0-.89,2.34,3.3,3.3,0,0,0,1.13,2.55,3.4,3.4,0,0,0,2.35.89,3.47,3.47,0,0,0,2.34-6A3.43,3.43,0,0,0,256.05,440.7Z"/><path d="M274,454.64a108.72,108.72,0,0,0,12.19.48h16.9q5.79,0,12.09-.16l.24,0c.37,0,.56.23.56.67A14.12,14.12,0,0,1,316,457c0,.56,0,1-.06,1.45s-.19.68-.56.68a.88.88,0,0,1-.24,0Q311,459,303.22,459H282.9a48.13,48.13,0,0,0-5.94.33l-1.08.16-.43.05a.94.94,0,0,1-.94-.78A26,26,0,0,1,274,454.64Z"/><path d="M325.91,453.07c.27-.39.61-.94,1-1.64.34-.54.57-.89.68-1.05a.78.78,0,0,1,.64-.43l.3,0a44.08,44.08,0,0,1,9.71,5,.81.81,0,0,1,.43.62,1,1,0,0,1-.16.51,14.41,14.41,0,0,1-1.42,2.37c-.18.25-.36.38-.54.38a.8.8,0,0,1-.51-.27A38.56,38.56,0,0,0,325.91,453.07Zm4.47,20.57a25.34,25.34,0,0,0,5.78-2.16A104.09,104.09,0,0,0,351.32,462,92.33,92.33,0,0,0,367,446.72a13.92,13.92,0,0,0,1,3.58,1.46,1.46,0,0,1,.16.57,1.48,1.48,0,0,1-.43.94,95.76,95.76,0,0,1-14.54,13.51,136.22,136.22,0,0,1-16.09,10.31,10.87,10.87,0,0,0-2.66,1.85.88.88,0,0,1-.65.33,1.2,1.2,0,0,1-.89-.49A32.16,32.16,0,0,1,330.38,473.64Zm2-33.24,1.7-2.61c.18-.27.36-.41.54-.41a1.41,1.41,0,0,1,.45.14,43.8,43.8,0,0,1,9.59,5.73c.25.2.37.38.37.54a1.38,1.38,0,0,1-.21.57,20.57,20.57,0,0,1-1.59,2.36.6.6,0,0,1-.4.25,1.2,1.2,0,0,1-.6-.35A34.47,34.47,0,0,0,332.42,440.4Zm23.69-3.53,2-1.42a.48.48,0,0,1,.29-.14.53.53,0,0,1,.33.14,24.2,24.2,0,0,1,6.21,6.64.39.39,0,0,1,.11.27.43.43,0,0,1-.21.35L363.21,444a.51.51,0,0,1-.32.14.41.41,0,0,1-.38-.25A22.65,22.65,0,0,0,356.11,436.87Zm4.87-3.71,1.75-1.37a.62.62,0,0,1,.35-.16.43.43,0,0,1,.27.1,29.42,29.42,0,0,1,6.27,6.46.53.53,0,0,1,.1.27c0,.13-.09.25-.26.38L368,440.18a.46.46,0,0,1-.29.14c-.13,0-.25-.09-.38-.27A24.72,24.72,0,0,0,361,433.16Z"/><path d="M391.25,448.55q1.31-4.95,2-8.15a19.78,19.78,0,0,0,.51-4.41v-.89a23.72,23.72,0,0,1,4.28,1.48.85.85,0,0,1,.57.78.93.93,0,0,1-.35.67,4.19,4.19,0,0,0-.92,1.8L395,448.1a43.28,43.28,0,0,1,5.35-.38q3.93,0,5.6,2.34,1.56,2.16,1.56,6.7,0,11.31-3,17.95-2,4.37-6.3,4.36a13.87,13.87,0,0,1-5.6-1,.93.93,0,0,1-.67-.95,9.88,9.88,0,0,0-.65-3.31,16,16,0,0,0,6.38,1.56,3.39,3.39,0,0,0,2.18-.64,6,6,0,0,0,1.54-2.23q2.47-5.72,2.47-15.8c0-2.32-.3-3.89-.91-4.71a3.37,3.37,0,0,0-2.88-1.13,37.64,37.64,0,0,0-6,.59,150.15,150.15,0,0,1-11.22,26.08.64.64,0,0,1-.56.35,1,1,0,0,1-.38-.08,12.31,12.31,0,0,1-2.21-1.48.64.64,0,0,1-.24-.46,1,1,0,0,1,.13-.43A121.07,121.07,0,0,0,390.15,452q-3,.43-7.29,1.21a7.15,7.15,0,0,0-2.42.7,1.35,1.35,0,0,1-.7.27.81.81,0,0,1-.73-.54,21.32,21.32,0,0,1-1.27-3.74h1a35.2,35.2,0,0,0,4.71-.29C385.32,449.38,387.92,449,391.25,448.55Zm19.52-1.67a24.76,24.76,0,0,1,2.47-1.72,1.17,1.17,0,0,1,.3-.05.86.86,0,0,1,.54.27A30.47,30.47,0,0,1,423,458.73a2,2,0,0,1,.08.45.66.66,0,0,1-.24.49,10.65,10.65,0,0,1-2.26,1.48,1,1,0,0,1-.49.16c-.25,0-.4-.16-.46-.48A31,31,0,0,0,410.77,446.88Zm1.58-8.69,2-1.51a.52.52,0,0,1,.24-.08.58.58,0,0,1,.3.17,23.48,23.48,0,0,1,6.21,6.64.39.39,0,0,1,.11.27.45.45,0,0,1-.19.35l-1.61,1.32a.53.53,0,0,1-.32.14.42.42,0,0,1-.38-.25A22.46,22.46,0,0,0,412.35,438.19Zm4.85-3.71,1.77-1.37a.68.68,0,0,1,.35-.17.38.38,0,0,1,.25.11,29.35,29.35,0,0,1,6.27,6.43.56.56,0,0,1,.1.3c0,.11-.08.23-.24.38l-1.5,1.32a.41.41,0,0,1-.3.16c-.11,0-.23-.09-.35-.27A24.15,24.15,0,0,0,417.2,434.48Z"/><path d="M479,472.8a12.63,12.63,0,0,1-.91,4,4.69,4.69,0,0,1-1.56,1.81c-1.26,1-4,1.48-8.32,1.48a34.68,34.68,0,0,1-7.45-.54,3.29,3.29,0,0,1-2.43-3.47V464.49h-6.56q-.84,7.88-5.65,12.16-4.23,3.77-11.31,4.52a4.48,4.48,0,0,1-.62.06c-.37,0-.72-.31-1-.92a5.7,5.7,0,0,0-1.69-2.05q15.72-.66,16.79-13.77h-.64l-7.51.1a.38.38,0,0,1-.43-.43l.1-6.81V441.66l-.1-6.83a.38.38,0,0,1,.43-.43l7.56.1h15.31l7.56-.1a.38.38,0,0,1,.44.43l-.11,6.83v15.69l.11,6.81a.38.38,0,0,1-.44.43l-7.56-.1H461.6v10a1.89,1.89,0,0,0,1.48,2.13,29.89,29.89,0,0,0,5.25.27q4.71,0,5.84-.89a3.5,3.5,0,0,0,1.29-2.21,22.59,22.59,0,0,0,.35-3.76,11.65,11.65,0,0,0,2.29,1.32c.61.25.92.55.92.91A4,4,0,0,1,479,472.8ZM467.5,443.47v-6H443v6Zm0,8.82v-6H443v6Zm0,9.21v-6.35H443v6.35Z"/><path d="M486.15,449.44a51.2,51.2,0,0,0,10.68-3q11.48-4.2,18.68-4.2t11.3,4.2a13,13,0,0,1,3.47,9.37,15.2,15.2,0,0,1-2.61,9,18.11,18.11,0,0,1-6.43,5.38,47,47,0,0,1-14.75,4.69,2.14,2.14,0,0,1-.32,0,1.24,1.24,0,0,1-1.05-.7,8.24,8.24,0,0,0-2.45-2.58,44.65,44.65,0,0,0,15.59-4.31q7.88-4,7.88-11.68a9.24,9.24,0,0,0-3.39-7.64,11.8,11.8,0,0,0-7.67-2.39q-6.75,0-20.72,5.89a17.32,17.32,0,0,0-3.75,1.94,2.35,2.35,0,0,1-1,.48,1.55,1.55,0,0,1-1.05-.67A19.46,19.46,0,0,1,486.15,449.44Z"/><path d="M555.37,448.47q1.29-4.35,2.2-8.07a19.8,19.8,0,0,0,.52-4.41v-.89a23.87,23.87,0,0,1,4.27,1.48.85.85,0,0,1,.57.78.93.93,0,0,1-.35.67,4.19,4.19,0,0,0-.92,1.8L559.11,448a53.35,53.35,0,0,1,5.35-.32q3.9,0,5.6,2.31,1.56,2.13,1.56,6.54,0,11.42-3,18.14-2,4.37-6.27,4.36a14,14,0,0,1-5.62-1,.92.92,0,0,1-.68-.92,9.85,9.85,0,0,0-.64-3.31,16.33,16.33,0,0,0,6.38,1.53,3.41,3.41,0,0,0,2.18-.64,6.16,6.16,0,0,0,1.53-2.21q2.47-5.79,2.48-15.82c0-2.32-.31-3.89-.92-4.71a3.37,3.37,0,0,0-2.88-1.13,40.48,40.48,0,0,0-6,.54,153.94,153.94,0,0,1-11.23,26.07.62.62,0,0,1-.56.35.87.87,0,0,1-.38-.08,13.11,13.11,0,0,1-2.21-1.5.55.55,0,0,1-.24-.43,1.09,1.09,0,0,1,.14-.44,121,121,0,0,0,10.57-23.49q-3,.44-7.29,1.24a6.92,6.92,0,0,0-2.42.7,1.32,1.32,0,0,1-.7.27.81.81,0,0,1-.73-.54,20.85,20.85,0,0,1-1.26-3.74h1a33.52,33.52,0,0,0,4.71-.3Q550.44,449.24,555.37,448.47Zm19.78-1.64a23.2,23.2,0,0,1,2.47-1.72.89.89,0,0,1,.3-.06.78.78,0,0,1,.54.27,30.35,30.35,0,0,1,8.88,13.35,2.1,2.1,0,0,1,.08.46.63.63,0,0,1-.24.48,9.41,9.41,0,0,1-2.26,1.48,1,1,0,0,1-.49.17c-.23,0-.38-.17-.45-.49A31,31,0,0,0,575.15,446.83Z"/><path d="M602.76,433.78a14.43,14.43,0,0,1,3.85,1.32c.48.27.73.54.73.8a1.31,1.31,0,0,1-.22.73,5.76,5.76,0,0,0-1,2.15,78.87,78.87,0,0,0-1.66,12.68c0,.75,0,1.41,0,2a30.56,30.56,0,0,0,.24,4.26c.47-.92,1.18-2.31,2.15-4.18l1.94-3.74a7.55,7.55,0,0,0,1.1,2.24,1.35,1.35,0,0,1,.25.7,1.7,1.7,0,0,1-.3.8,55.91,55.91,0,0,0-3.5,7.27,5.43,5.43,0,0,0-.37,1.78c0,.09,0,.16,0,.21a.54.54,0,0,1-.4.57c-.47.09-1.35.21-2.64.38-.25,0-.44-.19-.56-.57A30.75,30.75,0,0,1,601,452.83a93,93,0,0,1,1.3-12.94,42.9,42.9,0,0,0,.51-5.2C602.79,434.41,602.78,434.1,602.76,433.78ZM620,434a19,19,0,0,1,4,.46c.58.11.86.37.86.78a2.5,2.5,0,0,1,0,.32,5.52,5.52,0,0,0-.16,1.48q0,.51,0,1.11.67,9.15.67,14.58,0,12-4.52,18.09a28.33,28.33,0,0,1-9.09,8,1.33,1.33,0,0,1-.68.24,1.16,1.16,0,0,1-.75-.35,7.54,7.54,0,0,0-2.8-1.53c4.38-2.33,7.57-4.86,9.58-7.56a20.53,20.53,0,0,0,3.55-7.49,37.45,37.45,0,0,0,1-9.2q0-6.33-.54-13.13A25.13,25.13,0,0,0,620,434Z"/><path d="M657.88,466.24q-.27-4.64-.33-8.32c-1.84.07-3.63.11-5.35.11q-4,0-7.32-.27c-.36,0-.57-.23-.62-.68a19.14,19.14,0,0,1-.16-2.79,77,77,0,0,0,9,.48c1.52,0,3,0,4.33-.11l-.06-8.21c-2,.09-4,.14-5.73.14-3.17,0-6.12-.14-8.85-.4a.61.61,0,0,1-.51-.54,22.07,22.07,0,0,1-.22-2.88,81.74,81.74,0,0,0,10,.56c1.69,0,3.47,0,5.35-.13l-.05-5.79a14.25,14.25,0,0,0-.48-3.63,22.57,22.57,0,0,1,4.36.72.82.82,0,0,1,.62.81.86.86,0,0,1-.14.46,5.25,5.25,0,0,0-.65,2.53c0,.45-.09,2-.18,4.79a125.49,125.49,0,0,0,13.45-1.83l.27,0c.2,0,.32.15.35.43a19.64,19.64,0,0,1,.16,2.43c0,.36-.12.53-.37.53a136.42,136.42,0,0,1-13.86,1.62c0,3.71,0,6.43.08,8.15a96.05,96.05,0,0,0,12.16-1.58.83.83,0,0,1,.27-.06c.18,0,.3.11.35.32l.06,2.64c0,.33-.19.51-.57.57A103.15,103.15,0,0,1,661,457.76q0,3.8.38,9.12A44.16,44.16,0,0,1,676.12,474a.69.69,0,0,1,.3.53,1.29,1.29,0,0,1-.08.41A6.47,6.47,0,0,1,675,477.3a.7.7,0,0,1-.49.29.69.69,0,0,1-.35-.13,42.61,42.61,0,0,0-12.57-7c0,3.23-.88,5.53-2.74,6.89q-2.37,1.72-7.13,1.72-5.07,0-7.59-2a5.46,5.46,0,0,1-2.16-4.57,5.76,5.76,0,0,1,3-5,13,13,0,0,1,7.1-1.77A32.67,32.67,0,0,1,657.88,466.24Zm0,3.28a26.86,26.86,0,0,0-5.84-.7,10.63,10.63,0,0,0-5.44,1.13,2.69,2.69,0,0,0-1.5,2.34q0,3.42,6.16,3.42c2.78,0,4.66-.58,5.63-1.72a5.64,5.64,0,0,0,1-3.61C658,470.13,658,469.84,657.93,469.52Z"/><path d="M718.4,447.93q.11-3.36.11-9.58a19,19,0,0,0-.48-4.57,24.91,24.91,0,0,1,4.28.83c.48.15.72.38.72.7a1.49,1.49,0,0,1-.32.89,4.77,4.77,0,0,0-.46,2q-.07,5.87-.21,9.42,7.69-.58,11.35-.7.57,0,.57.54c0,.41,0,.83,0,1.24s0,.81,0,1.18-.19.67-.57.67q-5.4,0-11.52.49-.29,8.55-.67,11.38-.75,5.52-5.78,5.52a27.21,27.21,0,0,1-4.12-.38c-.4-.09-.62-.42-.68-1a12.14,12.14,0,0,0-.88-3.1,19.94,19.94,0,0,0,5.35.89,2.18,2.18,0,0,0,1.91-.83,5,5,0,0,0,.73-2.32,87.15,87.15,0,0,0,.57-9.9c-5.23.45-10.48,1.08-15.78,1.88q-.07,7.24-.08,9.85c0,2.89.07,5.1.19,6.62q.33,3.72,2.37,4.77t7.56,1a88,88,0,0,0,13.32-1h.27a.55.55,0,0,1,.62.51,17.44,17.44,0,0,1,.16,2.58q0,.74-.48.78a98.75,98.75,0,0,1-13.35.78q-8.29,0-11.11-2.18c-1.56-1.22-2.51-3.42-2.83-6.59q-.27-2.43-.27-16.58-4.87.75-7.83,1.4a19.71,19.71,0,0,0-2.53.7,1.52,1.52,0,0,1-.43.08.7.7,0,0,1-.67-.51,18.33,18.33,0,0,1-1-3.42,29.52,29.52,0,0,0,4.09-.32c1.2-.16,2.72-.4,4.55-.73l3.82-.67c0-1.42.05-3.49.05-6.22a22.07,22.07,0,0,0-.67-5.41,20.87,20.87,0,0,1,4.36.73c.52.12.78.4.78.83a1.9,1.9,0,0,1-.13.62,2.59,2.59,0,0,0-.19.54,7.93,7.93,0,0,0-.4,2.42q0,.14-.17,6Q711.39,448.64,718.4,447.93Z"/><path d="M761.92,435a18.13,18.13,0,0,1,4,2.1,1,1,0,0,1,.49.81,1.21,1.21,0,0,1-.38.81,8,8,0,0,0-1.67,2.23Q755,458.47,753.6,461l.11.11q3.93-4,7.78-4a6.48,6.48,0,0,1,6,3,15.24,15.24,0,0,1,1.83,6.49,14.62,14.62,0,0,0,1.34,5.7,3.3,3.3,0,0,0,3,1.7q3.86,0,7.08-3.8a26.86,26.86,0,0,0,4.63-9.09,7.18,7.18,0,0,0,2,2.9.92.92,0,0,1,.4.78,1.79,1.79,0,0,1-.13.65,25.21,25.21,0,0,1-4.34,7.51,11.83,11.83,0,0,1-9.66,4.84q-4.07,0-5.89-2.79c-1-1.51-1.64-3.9-2-7.16-.33-3-.88-5.05-1.67-6.19a3.57,3.57,0,0,0-3.12-1.54q-3.58,0-7.59,4.74-2.8,3.45-6.79,12.16c-.14.34-.32.51-.53.51a1,1,0,0,1-.46-.13,9.43,9.43,0,0,1-2.42-1.43.58.58,0,0,1-.27-.45A1.06,1.06,0,0,1,743,475q11.7-22.85,16.74-33.59A26.54,26.54,0,0,0,761.92,435Z"/><path d="M801.67,467a7.53,7.53,0,0,1,5.76,2.53,7.54,7.54,0,0,1-.57,10.82,7.85,7.85,0,0,1-11-.56,7.54,7.54,0,0,1,.57-10.82A7.62,7.62,0,0,1,801.67,467Zm0,2.75a4.79,4.79,0,0,0-3.66,1.61,4.86,4.86,0,0,0-1.26,3.31,5,5,0,0,0,4.92,4.9A4.91,4.91,0,0,0,805,471,4.78,4.78,0,0,0,801.67,469.71Z"/><circle cx="805.67" cy="319.85" r="3"/></g></g></svg>